<svg xmlns="http://www.w3.org/2000/svg" fill="none" viewBox="0 0 1000 1000"><path fill="#FC5B61" d="M550.9 180.8c2.3-1.4 2.1-3.4 1.1-5.3l-.3.3a8.307 8.307 0 0 1-4.7 1h-1.3c-.8 3 2.4 5.8 5.2 4ZM523.6 176.4v-.5c-.1-1.1-1-3.9-2.6-3.4l.5 1.2c.071.294.208.567.4.8l.3.7 1.1 1.7c-.1-.1 0-.3.3-.5Z"/><path fill="#DBDBDB" d="M515.6 216.7a10.997 10.997 0 0 0-.6 2.6 46.936 46.936 0 0 0-.9 5.2l-.3 2.6a66.381 66.381 0 0 1 9.7-16.1l1.2-1.5c.9-1 1.7-2 2.6-2.9l1.3-1.5 2.7-2.7.3-.3.3-.2a27.816 27.816 0 0 0-1.7-5.6c0-.2-.1-.3-.1-.4l-.2-.3-.3-.5-.3-.3-.5-.2-2-.2-.5-.2h-.3l-.5.4c-1 .9-1.7 2.3-2.9 3.2-1.9 4.6-3.9 9.3-5.6 14-.5 1.6-1 3.2-1.4 4.9ZM596.7 270.1c0-1.2.1-2.4.1-3.6.3-4.7.4-9.5.3-14.2 0-1.2 0-2.4-.1-3.6-.1-1.2-.3-4.8-.5-7.1a37.124 37.124 0 0 0-1.1-5.8 35.185 35.185 0 0 0-1.3-4.3 12.207 12.207 0 0 0-.5-1.4c-.3-.9-.7-1.8-1.1-2.7-2-4.6-4.4-9.1-6.6-13.7-.6-1.3-1.3-2.7-1.9-4.1l-1.2-2.8c-.3-.9-.7-1.8-1-2.8a42.23 42.23 0 0 1-1.9-7.2c-.5 1.7-1.1 3.4-1.7 5-.6 1.6-1.4 3.2-2.2 4.7l-.6.8a9.92 9.92 0 0 1-1.1 1.7l-.5.9c-.02.213-.089.418-.2.6a3.586 3.586 0 0 0-.2 1.1 7.57 7.57 0 0 0 .3 2.1c0 .3.1.7.1 1 .3 2 .5 3.9.9 5.8a84.799 84.799 0 0 0 2.5 11.1 91.688 91.688 0 0 0 8.7 21.3c1.1 1.9 2.3 3.7 3.5 5.5 1.2 1.8 2.2 3.6 3.2 5.5a24.902 24.902 0 0 1 1.5 4.1l1.2 5.4c.3 1.8.5 3.6.7 5.5.1-1.5.2-3 .4-4.4l.3-4.4ZM631.3 234.2c-.2 1.3-.3 2.5-.5 3.6s-.3 1.2-.4 1.8a25.297 25.297 0 0 0 8.4-3.5c.2-2 .4-4 .5-6a26.581 26.581 0 0 1-7.9 2.3 10.941 10.941 0 0 0-.1 1.8ZM628.6 239.9a42.286 42.286 0 0 1-.5-7.1h-1.9l-5.5.3h-1.3l-5.6.2h-1.4a45.592 45.592 0 0 1-12.9-1.4l-1.3-.4a40.34 40.34 0 0 1 1.7 6.2l1 .4a42.195 42.195 0 0 0 18 2.7 86.233 86.233 0 0 0 9.7-1v.1ZM610.6 294.5a28.512 28.512 0 0 1-11.7-2.4c-.1 1-.4 1.9-.6 2.9-.2 1-.1.6-.2.9l.3.2h.3c7.9 3.9 19.8 2.4 27.4-.6l.6-2.3c-5 1.7-11.8 1.5-16.1 1.3ZM520 284.1l1.5 1.5 1.5 1.4c.523.488 1.092.924 1.7 1.3l2.8 1.8 1.1.5a52.288 52.288 0 0 0 6.9 2.8 88.616 88.616 0 0 0 12.1 2.9 93.71 93.71 0 0 0 8.7 1.2l5.7.4c4.835.201 9.677.101 14.5-.3l5.7-.6a104.212 104.212 0 0 0 11.4-2.1c-.1-2.7-.1-5.3 0-8h-.1c-3.5.4-7 .7-10.6.8h-10.6l-7-.5a129.245 129.245 0 0 1-27.6-5.9l-2.1-.7-2.3-.7-1.2-.4-2.4-.8-2.4-1-2.4-1-2.3-1.2a23.536 23.536 0 0 1-3.1-2 13.12 13.12 0 0 0-2 2.1 15.115 15.115 0 0 0-1.2 2.6 1.888 1.888 0 0 0-.2.8c1.3 1.8 2.5 3.5 3.9 5.1ZM546.3 174.5c8-.3 7.6-11.6 6.9-17.2-.4-3.7-.6-6.9-4.9-8.3a21.832 21.832 0 0 0-5.2-1c-6.8 5.4-13.9 10.4-20.9 15.5l-2.3 1.7c-.4.3-.9-.4-.5-.6 7-5.5 13.8-11.5 20.9-16.8l-2.2-.2c-5.6-.5-11.3-.3-16.9-.6-3.4-.2-7.8-.2-10.6 2s-2.4 3.8-2.5 6.4c-.017.702.017 1.403.1 2.1.017.704.084 1.406.2 2.1.097 1.209.264 2.411.5 3.6a7.8 7.8 0 0 0 .9 2.7c.275.506.611.976 1 1.4a6.191 6.191 0 0 0 2 1.5 6.595 6.595 0 0 0 3.2.5 5.775 5.775 0 0 0 1.8-.4l1.8-.9.9-.8c.9-.8 1.7-1.7 2.6-2.4l.9-.6a5.792 5.792 0 0 1 2.1-.7 4.1 4.1 0 0 1 1.9.1 6.303 6.303 0 0 1 2.8 1.2l.9.6c1.9 1.8 3.1 4.3 5.3 5.8a16.354 16.354 0 0 0 2.6 1.6l2.9 1.1c1.228.393 2.51.596 3.8.6Zm-24.9-16.2c4.2-3.5 8.5-6.7 12.7-10.2h.2c.053 0 .104.021.141.059a.2.2 0 0 1-.141.341l-6.3 5.1-6.3 5.1h-.1c-.2-.1-.3-.3-.2-.4Zm-4 3.7-.6.5h-.2v-.2l.6-.5h.1c.2.1.2.1.1.2ZM284.4 940.4c-3.078.179-6.112.82-9 1.9-2.1.8-4 2.4-6.2 2.9s-4.2-.9-5.9-2.5l-3.3-2.2c-5.8-2.6-12.8-.9-18.7.3a1.201 1.201 0 0 1-1.3-1.7 5.187 5.187 0 0 0-2.9 2.9c-2 5.4 5.8 2.7 8.6 2.9a38.21 38.21 0 0 1 16.5 5c3.5 2.1 7 4.8 11 4.8s6.4-2 9.8-2.6c5.1-.9 10.1 1.4 15.2 2.7 2.9.6 4.8 1.5 6.1 2.8a77.43 77.43 0 0 0-5.2-14.9c-5-.8-9.5-2.6-14.7-2.3ZM314.7 962.1c-1.8-5.7-3.4-11.5-4.8-17.3l-3.8 2a112.425 112.425 0 0 1 2.6 17.4 15.911 15.911 0 0 1 6-2.1ZM359.3 954.8c1.8.8 3.6 1.7 5.5 1.7h.1c-.3-3.4-.6-6.7-1-10l-1.6.7c-1 .4-2-.5-2.3-1.4a11.921 11.921 0 0 0-1.8-2.9l-.8-.4-.9-1c-3-2.1-7.1-1.9-10.6.5a1.798 1.798 0 0 1-2.1-.3c-2.4-2.5-9.3-.8-12.3-.3a74.206 74.206 0 0 0-8.2 1.6c-.2 3.7.9 10.8 3.6 17.1 7.5-9.1 22-9.8 32.4-5.3ZM586.2 962.8a40.812 40.812 0 0 1 14.5-4.1 21.202 21.202 0 0 0-14.5 4.1Z"/><path fill="#DBDBDB" d="M795.6 936.7a54.516 54.516 0 0 0-15.7-1.7l-5.3.2c-3.9.3-8.1.3-12 .9a.895.895 0 0 1-.5.9c-9.8 4.7-19.9 2.5-30.1 2.2a43.061 43.061 0 0 0-6.2.1c-5.2.4-10.5.3-15.7 1.1a1.496 1.496 0 0 1-1.502-.59 1.503 1.503 0 0 1-.098-1.61 21.674 21.674 0 0 1-3.5-.2c-5-.7-9.9-2-14.9-3a169.672 169.672 0 0 0-18.7-3.1c-5-.4-10.1-.4-14.9-1.4-4.8-1-11.2-4-16.8-4.3-1 1.8-2.1 3-3.2 3.2-14 2.7-28.3 2.7-42.3 4.5-14 1.8-28.5 4.6-42 9.9-13.5 5.3-27.3 14.9-40.1 23.5-7.4 5-15.3 12.4-23.7 17.6a72.188 72.188 0 0 0 23.3-11.4l.4-.6a16.399 16.399 0 0 1 20.5-1.1c.384.451.82.854 1.3 1.2a9.696 9.696 0 0 0 7.3.6c2.7-.9 5.3-2.7 7.8-3.9 4.1-1.8 8.4-3.2 12.9-3a16.098 16.098 0 0 1 10.8 5c3.1 2.9 5.8 4.6 10.4 3.5 2.5-.7 4.9-2.1 7.3-3.1l.9-.3a2.208 2.208 0 0 0-.7-.6 37.08 37.08 0 0 1-5.4-4.4c-.5-.6-1.1-1.2-1-2 .028-.366.168-.715.4-1a1.402 1.402 0 0 1-1.639-1.521c.03-.288.148-.56.339-.779 5.6-6.1 15.4-9 22.9-4.6a1.005 1.005 0 0 1 .6 1.1h1.5c8.8-.9 18.1-2.4 25.9-7.1 1.8-1 3.5-2.3 5.4-3.4a1.401 1.401 0 0 1 0-1.5 10.705 10.705 0 0 1 11.116-5.381 10.704 10.704 0 0 1 8.784 8.681c7.6-4.6 18.5-7.5 26.3-3.2.224.144.399.354.5.6h2.9a143.398 143.398 0 0 0 29.2-3.9c3.2-.8 6.5-1.8 9.9-1.9 3.171.165 6.319.634 9.4 1.4 6.1 1.2 13.4 2.1 19.4.7a109.918 109.918 0 0 1 22.2-3c5.6-.1 11.4.3 16.9-1 .347-.063.663-.238.9-.5.5-.8-.6-1.6-1.5-1.8ZM298.2 631.3c-.2 1.5-.5 3-.7 4.4a5.405 5.405 0 0 0 2.3 1l2.9.4h5.2l2.8-.3h1.5l2.2-.2 2.1-.3c1.5-.1 2.9-.4 4.3-.6l3.1-.5 1.2-.2a5.397 5.397 0 0 0 2.7-1 1.297 1.297 0 0 0 .3-1.3 2.402 2.402 0 0 0-.6-.9l-1.3-.7-1-.4-1.3-.3-1.3-.3-1.4-.3h-.7l-1.3-.2c-2.5-.3-4.7-.4-5.4-.4-2.548.03-5.089.264-7.6.7l-7.5 1.7-.5-.3ZM296.8 698l1.8.6-.3-.2-.3-.6v-.3c.1-.4.1-.8.2-1.1.116-.34.25-.674.4-1l.6-.9.8-.7-.2-.2a1.201 1.201 0 0 1 .2-1.6 13.259 13.259 0 0 1 2.5-1.6 15.72 15.72 0 0 1 2.8-1h.3l1-.3h1.2a1.105 1.105 0 0 1 .6 1.1c-.12.267-.333.48-.6.6l-.8.2h-.3l-3 .2-.7.2-.3.3v.4c0 .1.1.1.2.2h.7l2.2-.2h.6a.1.1 0 0 1 .071.03.097.097 0 0 1 .029.07.402.402 0 0 1-.1.5h-.1l-.7.2-1.1.2a12.153 12.153 0 0 0-3 1.1.997.997 0 0 1-.5.4l-.4.6-.2.6c.1.2.1.4.3.6.231.168.518.24.8.2h.9a.703.703 0 0 1 .6.6c-.02.213-.088.418-.2.6l-.6.5h-2.6a44.202 44.202 0 0 0 11.5 1.4h4.4l6.9-.4a61.243 61.243 0 0 0 6.9-.6c2.334-.333 4.634-.633 6.9-.9l4.5-1 2.2-.5c2.2-.6 4.3-1.3 6.4-2.1h.2l1.6-.5.7-.2 1.1-.5c.435-.104.822-.35 1.1-.7.089-.222.123-.462.1-.7-.1-1.3-1.6-3-2.7-3.9-1.1-.9-.3-.3-.4-.4l-1.6-1a21.67 21.67 0 0 0-3.4-1.7 36.957 36.957 0 0 0-5.6-1.9l-4-.8a74.138 74.138 0 0 0-8-.7h-3.9l-3.7.3a56.295 56.295 0 0 0-16.8 4.4l-3.5 1.6-1.7.9c-2.3 1.2-4.5 2.5-6.7 3.9l-.3.2c-.1 0-.2 0-.2.1l.3 2.2a23.36 23.36 0 0 0 4.9 3.2Zm37.3-10.8a2.103 2.103 0 0 1 2.5.9c.223.228.393.501.5.8v.5c0-.2 0-.2.1 0a1.998 1.998 0 0 1-1.2 2.4 2.098 2.098 0 0 1-2.5-.8l-.3-.5c-.2-.2-.2-.5-.3-.8a2.098 2.098 0 0 1 1.2-2.5Zm-20.1 4.5a7.905 7.905 0 0 1 2.5-1.5c-2.8-1.2.4-3.8 2-4.4a8.746 8.746 0 0 1 2.2-.5c.3.1 2.4.9 2 1.1a5.393 5.393 0 0 1-2.5.9 5.012 5.012 0 0 0-2.1.2c-.7.3-1.1 1.2-.6 1.7.5.5 1 .3 1.6.3a7.704 7.704 0 0 1 4.2.7.994.994 0 0 1-.5.8 1.69 1.69 0 0 1-1 .3l-4 .7c-.8.1-1.8.4-2 1.1a1.7 1.7 0 0 0 .8 1.6 3.402 3.402 0 0 0 1.8.3c.7 0 5-1.2 5.1-.2.1 1-.2.6-.6.8h-.2a11.203 11.203 0 0 1-7 .2 3.196 3.196 0 0 1-2.4-1.6 2.405 2.405 0 0 1 .7-2.5Z"/><path fill="#DBDBDB" d="M747.2 795.9c.7 5.6 1.5 11.2 2.1 16.8l.6 5.6c.2 1.3.3 2.7.4 4 .618 6.648.785 13.33.5 20-.2 2.7-.4 5.3-.7 8a82.797 82.797 0 0 1-5.4 19.8c-1.5 3.8-3.3 7.6-5.2 11.3-3.6 6.8-8.3 15-11.3 23.5a61.225 61.225 0 0 0-2.4 9.1 45.9 45.9 0 0 0-.6 7.3 24.902 24.902 0 0 0 5.4 15.1h8a24.663 24.663 0 0 0 1.8-3.1c.311-.75.578-1.518.8-2.3.19-.755.324-1.524.4-2.3.1-.4.1-.8.2-1.2.3-3.2 0-6.5.1-9.7v-2a34.09 34.09 0 0 1 1.9-10.1 18.505 18.505 0 0 1 1.9-3.7c.4-.7.9-1.3 1.3-1.9 1.9-2.4 4.1-4.6 6.1-6.9a44.186 44.186 0 0 0 4.4-5.3l1.2-1.9a45.177 45.177 0 0 0 3.8-8c.278-.684.512-1.385.7-2.1a30.363 30.363 0 0 0 1.2-4.3 66.192 66.192 0 0 0 1.6-14.7c0-1.4-.1-2.8-.2-4.2l-.3-4.2-.6-4.1a15.46 15.46 0 0 0-.4-2.1 89.516 89.516 0 0 0-3-12.4c-1.6-5.5-3.5-10.8-5.6-16.1l-1.6-3.9c-.5-1.2-1.1-2.5-1.6-3.8l-.6-1.4-1-2.7a34.462 34.462 0 0 1-1.5-6.6 24.396 24.396 0 0 1 .2-8.1 24.922 24.922 0 0 1 2-5.8 28.331 28.331 0 0 1 2.8-4.6l5.3-7.8a106.297 106.297 0 0 0 12.5-25 111.918 111.918 0 0 0 5-21.9c.568-4.51.836-9.054.8-13.6a82.941 82.941 0 0 0-.8-11.1c-.1-1.3-.3-2.5-.5-3.7-1.2-7.2-2.9-14.4-4.8-21.4-.2-1-.5-2-.7-3l-.9-3.3c-3.3-12.2-6.8-24.7-8.4-37.3a106.657 106.657 0 0 1-.9-13.8l-.3 1.8-.3 1.8a63.955 63.955 0 0 0-1 7.8c-.2 2.6-.3 5.2-.4 7.9-.1 2.7 0 5.3 0 8l.3 8c0 2.7.2 5.4.2 8.1 0 2.7.2 5.3.2 7.9v4a91.882 91.882 0 0 1-.7 11.7c-.1 1.4-.3 2.9-.5 4.3s-.5 2.9-.7 4.3c-.2 1.4-1 5.8-1.6 8.6-3.6 17.1-8.8 33.9-10.9 51.3-.2 1.9-.4 3.8-.5 5.7-.9 13.4.5 26.6 2.2 39.7ZM725.7 875.2l1.8-6c1.1-4 2.3-7.9 3.1-12 .215-.958.382-1.925.5-2.9 1.3-8.5.3-16.7-1.4-24.8-.1-.9-.3-1.8-.5-2.8-.9-3.6-1.8-7.2-2.6-10.9a28.64 28.64 0 0 1-.7-2.8c-.4-1.7-.7-3.4-1-5.1a69.469 69.469 0 0 1-.9-7.5 21.735 21.735 0 0 1-.1-2.5 40.063 40.063 0 0 1 .1-4.9c.034-1.607.167-3.21.4-4.8.1-.9.3-1.7.4-2.5a51.76 51.76 0 0 1 1.8-7.3 48.296 48.296 0 0 1 1.8-4.9c1.9-4.8 4-9.4 5.7-14.2a40.109 40.109 0 0 0 1.6-4.9c.28-.887.514-1.788.7-2.7.2-.9.3-1.8.5-2.7.2-1.793.3-3.596.3-5.4a45.698 45.698 0 0 0-1.3-10.9c-.4-1.8-.9-3.6-1.4-5.3a31.483 31.483 0 0 1-.1 5.3c0 .6-.1 1.2-.1 1.8a50.504 50.504 0 0 1-1.1 5.6 55.093 55.093 0 0 1-1.6 5.4 123.945 123.945 0 0 1-5.8 12.9c-.9 1.7-1.8 3.4-2.6 5.1-.8 1.7-.9 1.7-1.3 2.6-.4.9-1.6 3.4-2.3 5.1-.7 1.7-1.5 3.5-2.1 5.3a46.912 46.912 0 0 0-2.2 16c0 1 .1 2.1.2 3.1a84.507 84.507 0 0 0 1.5 11.1c.1 1.1.3 2.1.5 3.2s.5 2.1.7 3.1l.9 4.8.6 3.2.3 1.6c.1 1 .3 2.1.4 3.2.122.525.189 1.061.2 1.6.498 4.114.599 8.267.3 12.4-.2 2-.5 4.1-.8 6.1-.3 2-.9 4.1-1.4 6.1-.5 2-1.9 6-2.9 9l-2.1 5.9-.9 3a52.476 52.476 0 0 0-1.7 6 49.404 49.404 0 0 0-1.5 10 51.392 51.392 0 0 0 1 11.7 45.83 45.83 0 0 0 1.3 5 33.951 33.951 0 0 0 1.7 4.8c1.9 4.7 4.4 9.2 6.5 13.8a7.29 7.29 0 0 1-.4-2.7c.1-3 1.5-6.9 1.9-9.1.4-2.2.3-3.4.4-5a76.996 76.996 0 0 0-.5-8.3 27.47 27.47 0 0 1 .6-7.5l.9-3.8c.3-1.2.7-2.4 1-3.6.3-1.2 1.1-4 1.7-6ZM326.1 962.8c-5.9-9.8-7.5-20.2-6.6-31 .1-.5.1-1.1.2-1.7a91.083 91.083 0 0 1 1.8-10.2 8.559 8.559 0 0 1 .4-1.7c.7-2.9 1.5-5.8 2.4-8.6.3-1.2.7-2.3 1.1-3.5.4-1.2.7-2.3 1.1-3.4l1.2-3.5a34.296 34.296 0 0 0 1.3-3.4l1.9-5.1c.4-1.1.8-2.2 1.3-3.3l.6-1.7 1.2-3.4c.275-.514.509-1.049.7-1.6l1.2-3.3c.12-.579.287-1.148.5-1.7.4-1.1.8-2.1 1.1-3.2.3-1.1 1.1-3.2 1.6-4.8.5-1.6 1.2-4.2 1.6-6.3.4-2.1.7-3.1 1-4.6a102.196 102.196 0 0 0-.8-38.2c-.4-2.1-.8-4.2-1.3-6.3l-1.7-6.2a189.029 189.029 0 0 0-12.1-29.9c-2.4-4.8-4.9-9.5-7.6-14a25.41 25.41 0 0 0-1.6-2.8c-3.5-5.9-7.2-11.8-10.7-17.7l-1.5-2.6c-3-5.1-5.8-10.3-8.3-15.7-.9-1.8-1.7-3.6-2.5-5.4-.8-1.8-2.1-5.5-3-8.2-.9-2.7-1.1-3.7-1.6-5.5-.5-1.8-.9-3.7-1.3-5.6-.4-1.9-.9-5.6-1.2-8.5a86.269 86.269 0 0 1-.4-11.4c.1-2 .2-3.9.4-5.9a214.058 214.058 0 0 1 3.8-24c1.6-8 3.2-16 4.4-24a98.487 98.487 0 0 0 .4-25.4c-.2-2.1-.5-4.1-.9-6.2-.4-2.1-.9-4.1-1.4-6.1l-.9-3.1c-1-3-2.1-6-3.4-9.1-1.3-3.1-1.7-3.6-2.5-5.3l-2.6-5.4c-5.2-10.6-10.7-21-13.6-32.6l-.6-2.4-.9-4.7c-.4-2.4-.7-4.8-.9-7.2-.1-1.7-.2-3.3-.2-4.9a78.001 78.001 0 0 1 1.8-19.3 51.879 51.879 0 0 0-4.6 15 56.238 56.238 0 0 0-.7 9.2c0 2 .1 4 .2 6.1.8 10.3 3.5 20.6 6.5 31 3.5 12.4 7.4 24.9 8.7 37.1.2 2.2.4 4.3.5 6.5.1 2.2.2 4.2.2 6.4s.1 6.4-.1 9.6c-.2 7.5-.8 15-1.6 22.5l-.6 6.4-.6 6.4c-.5 5.3-1 10.7-1.4 16l-.3 6.4c-.1 2.2-.1 4.3-.1 6.5s0 4.2.1 6.4.3 6.4.6 9.6a141.172 141.172 0 0 0 4.8 24.3c.5 1.8 1 3.5 1.6 5.3 1.1 3.5 2.3 7 3.5 10.4 2.333 6 4.733 12 7.2 18l4.4 10.1c2.2 5.1 4.4 10.1 6.5 15.2a270.531 270.531 0 0 1 10.9 29.3l1.5 5a173.299 173.299 0 0 1 1.8 7.5c.4 1.7.7 3.4 1 5.1l.9 5.1.3 2.6c.2 1.7.3 3.4.4 5.1a97.727 97.727 0 0 1-.7 20.9c-2.5 17-9.6 32.8-10.1 50.2a123.814 123.814 0 0 0 1.1 20.2c.6 4.5 1.4 8.9 2.2 13.4 1.3 6.6 2.8 13.2 4.3 19.8a28.917 28.917 0 0 1 6.5.5l1.2.3 1 .2Z"/><path fill="#DBDBDB" d="M301.1 939c-.7-1.7-1.4-3.4-2.2-5-.8-1.6-2.5-4.8-3.8-7.2-1.3-2.4-2.6-4.8-3.8-7.2a36.915 36.915 0 0 1-4.3-14.9c-.1-1.331-.1-2.668 0-4 .1-.4.1-.9.2-1.3 1.1-8.6 4.2-17 6.9-25.3 1.2-3.6 2.6-7.3 3.8-11 .4-1.1.7-2.2 1-3.2.3-1 1-3.2 1.4-4.9.4-1.7.5-2.1.7-3.2.2-1.1.3-2.2.5-3.3.2-1.1.1-1.2.1-1.7s.1-2.3.1-3.4l-.3-3.3c-.1-1-.3-2.1-.5-3.2s-.5-2.1-.8-3.2a42.791 42.791 0 0 0-1.5-4.7c-.7-2.1-1.6-4.1-2.5-6.2-.9-2.1-2.3-5.2-3.5-7.8.585 3.236.92 6.513 1 9.8a61.107 61.107 0 0 1-.1 7.4 19.468 19.468 0 0 1-.2 2.4c-.1 1-.2 2-.4 3a90.483 90.483 0 0 1-2.5 11.5c-.6 1.8-1.1 3.7-1.8 5.5-.7 1.8-1.3 3.7-2 5.5-.7 1.8-1.4 3.6-2.2 5.4-1.8 4.6-3.8 9.1-5.6 13.6a55.437 55.437 0 0 0-2.6 8.2c-.2 1-.3 2.1-.5 3.2a28.319 28.319 0 0 0 .1 6.5c.094 1.084.295 2.156.6 3.2a24.651 24.651 0 0 0 1.7 5 48.805 48.805 0 0 0 6.3 10.5c2.4 3.4 5.1 6.5 7.6 9.7l3.7 4.9a62.061 62.061 0 0 1 4.4 6.9l1 1.8Z"/><path fill="#FC5B61" d="m269.3 661.5-1.4-.4-1.4-.3-1.3-.2-2.5-.4-2.6-.3a45.507 45.507 0 0 0-21 3.5c-.695.273-1.365.607-2 1a9.437 9.437 0 0 0-1.8 1.2 11.65 11.65 0 0 0-1.8 2.4l-.6 1.4a.698.698 0 0 1-.1.5v1c.119.646.433 1.239.9 1.7l.8.5.6.3 1.8.6a48.39 48.39 0 0 0 6.4 1c.86.15 1.728.25 2.6.3 1.691.217 3.397.284 5.1.2h2.6l2.5-.2a39.026 39.026 0 0 0 7.6-1.4l5-1.6 1.7-.4.3-6c0-.3.1-.6.1-.9a3.004 3.004 0 0 0-.4-2.8l-1.1-.7Zm-7.4 9.3-1.2.3a2.092 2.092 0 0 1-1.85-.325 2.102 2.102 0 0 1-.85-1.675 2.11 2.11 0 0 1 .227-.938 2.11 2.11 0 0 1 1.51-1.118c.321-.056.651-.037.963.056l1.2.3c.353.123.659.353.876.657a1.806 1.806 0 0 1 0 2.086 1.802 1.802 0 0 1-.876.657ZM228.3 668.4l-8.9-1.3c-2.1-.4-6.1-2.1-8.2-.8-2.1 1.3 1.5 3.3 2.6 3.9 1.1.6 2.3 2.6.3 3a19.906 19.906 0 0 0-7.1 2.8c1.7.9 4.4.6 7.3-.1 1.9-.5 3.8-1.2 5.7-1.9l7-2.8h.5a1.983 1.983 0 0 1 .1-.7 6.802 6.802 0 0 1 .7-2v-.1ZM571 556.2l6.6.4c2.2.1 4.4.2 6.6.1h3.4c3.4-.1 6.9-.3 10.3-.6h.5l2-.3a4.396 4.396 0 0 0 3.3-2.3c.186-.358.352-.725.5-1.1a5.998 5.998 0 0 0-.2-4.4 4.602 4.602 0 0 0-1.3-1.8 5.493 5.493 0 0 0-2.3-1.1h-.7l-4.4-.7-4.5-.6c-6-.6-12-.8-18-1.5h-1.1l-5.9-1-2.3-.2a3.804 3.804 0 0 0-2.3.3l-.5.4a3 3 0 0 0-.5 1.5c-.087.428-.12.864-.1 1.3 0 1.3-.2 2.6-.2 4v1.3c.1 6.8 5.8 5.9 11.1 6.3ZM670.3 714c-1-1-1.9-2.1-2.8-3.2l-4-4.7c-5.8-6.3-11.6-12.6-17.3-19-2.9-3.1-5.7-6.3-8.6-9.5l-8.5-9.5-8-8.8c-2.6-2.9-5.7-7.3-9.7-8.6 0 1 0 2.1.1 3.1s.1 1.9.1 2.8c5.4 7.1 10.9 14 16.5 20.8 10.1 12.1 20.9 24.2 29.9 37.2l2 .6 2.2.6 1 .3 1.8.5.9.2 2.6.6.4.2 2.3.5h.7l2.7.5-1.5-1.5-2.8-3.1ZM687.1 663.7c-3.2-2.1-6.2-4.4-9.4-6.5l-7.8-5.2-7.8-5.1-1.1-.6c-2.7-1.8-5.5-3.7-8.3-5.4a57.768 57.768 0 0 0-5.6-2.7l-2.3-.8-1.3-.3-2.6-.5h-.8a2.9 2.9 0 0 0-1.4.3l-.4.3h-.2l-.5.4c3.8.8 7.2 4.1 10.1 6.3 6.8 5.2 13.5 10.6 20.4 15.7 6.9 5.1 13 9.7 19.3 14.8l3.5 2.7c.33-2.523.798-5.027 1.4-7.5l.6-2.5-2-1.1c-1.3-.6-2.6-1.4-3.8-2.3ZM638.2 165.6c-.173.654-.407 1.29-.7 1.9-.19.616-.424 1.218-.7 1.8a37.89 37.89 0 0 1-1.7 3.5 15.705 15.705 0 0 0 2-1.6 6.304 6.304 0 0 0 2.4-3.4c.221-.814.489-1.616.8-2.4.1-.2.2-.2.3-.3l-1-.5-1-.4c-.1.5-.3 1-.4 1.4ZM623.1 189.7l-3.2 3.9c-4.1 5-8.5 9.9-13 14.6l-.7.9c-1.3 1.3-2.5 2.8-3.8 4.2a43.736 43.736 0 0 1-6.9 6.1c-.598.425-1.234.793-1.9 1.1h-.3c.7 1.4 1.3 2.7 2 4 .7 1.3 1.2 2.7 1.7 4l5.4 1.2c3.616.469 7.255.736 10.9.8h7.8l4.7-.2 2.3-.2c0-1.1 0-2.1.1-3.1s0-2.1-.1-3.2a44.205 44.205 0 0 0-1.5-10.4c-.5-2-1.2-4-1.9-6.1v-.3a1.004 1.004 0 0 1 .4-.7h.6l.5.2a16.29 16.29 0 0 1 2.9 4.9l.6 1.8c.2.6.3 1.2.5 1.9.018.309.086.613.2.9.2 1.6.4 3.2.5 4.7.1 1.5.4 4.5.5 6.7v2.3l2.1-.4a25.709 25.709 0 0 0 6-2.3c.1-1.9.1-3.8.1-5.6v-2.9c-.1-.9-.1-1.9-.2-2.8-.1-.9-.1-1.6-.1-2.4a32.296 32.296 0 0 0-5-14.4c-2.8-4.6-5.9-8.8-11.2-9.2ZM636.9 192.2a22.66 22.66 0 0 0-2.6-1.4 10.52 10.52 0 0 0-2.8-1 .103.103 0 0 0-.071.029.105.105 0 0 0-.029.071 26.037 26.037 0 0 1 2.5 3.1 44.16 44.16 0 0 1 3.2 6.1c.14-.443.306-.877.5-1.3a18.98 18.98 0 0 1 1.1-2.5l.6-1.3a14.978 14.978 0 0 0-2.4-1.8Z"/><path fill="#FC5B61" d="M641.4 167.3a4.098 4.098 0 0 1-.3 1.6 5.704 5.704 0 0 1-1.1 2.2 1.005 1.005 0 0 1-.5.6 20.928 20.928 0 0 1-2.8 2.4l-.5.3-2.3 1.7.4.8 2.3-1.1 2.4-1 .7-.2 2.3-.8a4.514 4.514 0 0 1 1.6-.3h1.6a12.907 12.907 0 0 0-2.3-6.2l-1.6-1.6a8.57 8.57 0 0 1 .1 1.6ZM641.7 176l-.8.2-1.5.4-4.8 1.7c.114.966.08 1.944-.1 2.9a26.919 26.919 0 0 1 6.4-.4 12.32 12.32 0 0 1 3.9.6c.32-1.681.487-3.388.5-5.1v-1.7l-2.1 1-1.5.4ZM634 187.1h-1.3l-.3.8a4.29 4.29 0 0 1-.4.7c2.9.4 6.2 1.4 8.4 3.4.5-.8.9-1.6 1.3-2.4-2.6-.9-4.9-2.4-7.7-2.5ZM643.3 183.2l-1.9-.3-.9-.2-2.9-.2h-3.4a9.387 9.387 0 0 1-.4 1.6l-.6 1.6a10.08 10.08 0 0 1 2.5-.3l2.4.4a9.9 9.9 0 0 1 2.4.9c.727.374 1.4.845 2 1.4a25.747 25.747 0 0 0 1.8-4.6l-1-.3ZM600.4 240.6c0 .3.1.7.1 1 .3 2.6.4 5.2.6 7.8.2 2.6.1 2.6.1 3.9 0 4 0 7.9-.2 11.8-.2 3.9-.2 5.3-.4 7.9-.086.63-.119 1.265-.1 1.9-.2 3.3-.4 6.9-.7 10.5-.1 1.5-.3 2.9-.5 4.3h.8a34.183 34.183 0 0 0 12.4 1.8 68.118 68.118 0 0 0 9-.7 48.165 48.165 0 0 0 6-.7c3.6-14 7-28.1 9.5-42.3.5-2.7.9-5.3 1.3-8-5.7 3.2-13.2 3.7-19.4 3.8-6.2.1-13.2.3-18.5-3Zm26.6 12.7c.1-1.3 2.2-1.3 2.1 0-.2 3-.3 6.4-1.7 9.1-.3.6-1.1.2-1.1-.3-.2-2.9.5-5.9.7-8.8Zm-6 27.9c.533-2.2.933-4.4 1.2-6.6.2-1.5 2.6-1.5 2.4 0-.2 1.5-.7 4.6-1.2 6.8s-.8 4.3-2.2 5.8a.8.8 0 0 1-1.4-.6c-.2-1.8.7-3.6 1.2-5.4ZM597.9 298.2c.3 4.5.5 9 .8 13.4.6 7.5 1.2 15 1.9 22.5l1.1-.2h.4c.2-.1.3 0 .4 0l2.4-1.2 2.2-1.3 2-1.4.9-.8 1.8-1.7 1.5-1.9 1.5-2.1a33.96 33.96 0 0 0 2-3.8l1-2.2c2.3-5.3 4-10.9 6.8-15.9l.6-2.5c-7.2 3.7-20.2 3.1-27.3-.9Zm18.7 8.1c-2 6.6-3.9 15.1-8.1 20.7-.8.9-2.7.4-2.2-.9 1.1-3.1 2.9-5.9 4.4-8.8a79.81 79.81 0 0 0 4.6-11.4.703.703 0 0 1 .807-.31.696.696 0 0 1 .493.71ZM591.7 161c1.3-2.4 2.8-4.8 4.1-7.3-1.84.063-3.66.4-5.4 1a15.1 15.1 0 0 1 1.3 6.3ZM633.7 131.2a205.14 205.14 0 0 1-4.3 22.1c-1.4 5.2-5.6 9.7-8.9 14-10.1 13.3-22.1 25-34.5 36.2 1.2 3.5 2.6 7 4.1 10.3l1.5 3.4.3.6c1.9-3.6 5-6.6 7.9-9.6l1.4-1.5 1.4-1.5 9.3-10.4 3.1-3.5 5.8-6.5 1.4-1.6c1-1.1 1.9-2.3 2.8-3.4.9-1.1 1.8-2.3 2.7-3.5l1.2-1.8c.8-1.2 1.5-2.4 2.2-3.7a38.28 38.28 0 0 0 3.3-8.1 69.59 69.59 0 0 0 1.7-6.9c.3-1.5.5-3.1.7-4.7.9-6.4 1.4-12.8 1.8-19.2.2-1.6.3-3.2.4-4.8.1-1.6.1-1.5.2-2.3l3.3-37.2-2.3-.5a19.015 19.015 0 0 0-2.5-.3 314.431 314.431 0 0 1-4 44.4ZM590 162a22.943 22.943 0 0 1-.7-3.6c-.2-1-.5-2-.8-3l-2.8 1.7a19.005 19.005 0 0 1 2.3 3.9c.6 1.5 1.5 3.4.9 5l1.9-3.5a.994.994 0 0 1-.8-.5ZM586.5 167.9l.6-.7.7-.6h-.2l-.2-.2-.2-.2c-.9-1.1-1.1-2.7-1.5-4-.4-1.3-1.1-2.5-1.7-3.7a22.004 22.004 0 0 0-3.3 3.5l1.5 1.4a26.705 26.705 0 0 1 4.3 4.5ZM574.9 173.7a45.4 45.4 0 0 0-1.2 5l2.4.4 2.5.3h1.1l1 .2.6-1.8c.2-.5.3-1.1.5-1.7h-.6l-1.8-.6a15.728 15.728 0 0 1-4.5-1.8ZM579.6 168.1l1.8.9 1.6.7a4.405 4.405 0 0 1 1.6.6l.2-.3-1.4-1.6c-.4-.5-.9-1-1.3-1.6l-2.7-3.2a37.291 37.291 0 0 0-1.9 3.4l1 .5 1.1.6ZM575.3 185l1 .2 1.4.4 1.4.4c.132-.642.299-1.276.5-1.9.132-.642.299-1.276.5-1.9a13.508 13.508 0 0 1-3.5-.6l-3.3-1.1-.9 4.2h1l1.9.3ZM575.7 171.4h-.1l1.2.3 3.6 1.3 1.8.4.6.2.3-.6c.071-.264.209-.505.4-.7a15.689 15.689 0 0 1-2.3-.9l-.6-.4-2-1.1-1.9-1.2a24.53 24.53 0 0 0-1 2.4v.3ZM570.1 192.6a28.294 28.294 0 0 1-1.6 3.6 21.995 21.995 0 0 0 3.2 2.1l1.6.9 1.8.7 1.5-4.8-1.5-.4a6.612 6.612 0 0 1-1.5-.5 27.21 27.21 0 0 1-3.5-1.6ZM574.8 192l1.3.3 1.2.4c.3-1.3.7-2.6 1-3.8-2.1-.3-4.5-1.7-6.5-1.8-.1.6-.3 1.1-.4 1.7-.1.6-.3 1.1-.5 1.7l2.9 1.1 1 .4ZM568.4 204.4a8.202 8.202 0 0 0 2.4 2.5c.383.159.787.26 1.2.3a44.993 44.993 0 0 0 2.3-5 22.792 22.792 0 0 1-6-3.6l-.8-.7-.9 1.4-1.1 1.3c1 1.3 1.9 2.6 2.9 3.8ZM560.9 204.6a18.106 18.106 0 0 0 2.8 5.3c.214.402.523.745.9 1 .1.2.3.3.4.4a7.105 7.105 0 0 0 2.2 1.3h.3l2.1-1.5.9-1.5h-.4l-.8-.6a8.96 8.96 0 0 1-1.6-1.8 29.789 29.789 0 0 1-3.4-5.3 22.404 22.404 0 0 1-3.4 2.7ZM559.7 260a25.096 25.096 0 0 0 12.1 4.2c3.4.2 6.6-.8 9.9-1.1a2.595 2.595 0 0 0-.2-2.3c-.7-1.1-2.2-1.4-3.6-1.6l-14.5-1.7c-1.5-.1-3.4-.2-4.3 1.1a3.11 3.11 0 0 0-.3 1.3 1.01 1.01 0 0 1 .462-.058c.156.018.307.072.438.158ZM556.7 206.4a43.68 43.68 0 0 0 .9 5c.098.542.231 1.076.4 1.6.121.514.289 1.016.5 1.5.172.495.408.965.7 1.4l.3.5c.401.416.678.935.8 1.5a12.75 12.75 0 0 0 2.5-1.5l2.3-1.7-.5-.3a10.188 10.188 0 0 1-1.8-1.8l-1.1-1.5-.8-1.3-.6-1.4c-.4-1-.7-1.9-1-2.9l-1.3.5-1.3.4ZM562.4 159.4a9.903 9.903 0 0 1 4.2-3.4h-6l-3.5-.3h-.4c.083.964.117 1.932.1 2.9 0 .9-.1 1.8-.1 2.7a38.443 38.443 0 0 1 4.8-.1l.9-1.8ZM552.5 219.2h3.1a18.255 18.255 0 0 0 3.2-.7l-.6-.3c-2.7-1.5-3.4-8.3-3.6-11.6h-.9a11.17 11.17 0 0 1-.2 1.7c-.1.2-.1.5-.2.8-.1.3-.3 1.1-.4 1.6-.1.5-.4 1.7-.5 2.5-.123 2-.089 4.006.1 6ZM547.1 217.5l2.3 1a18.617 18.617 0 0 1-.1-4.1c.1-.5.1-1.1.2-1.7l.3-1.6c.2-.5.3-1 .5-1.5l.3-.7.6-1.3c.301-.376.569-.777.8-1.2l-.9-.2-1-.4h-.2c-.7 3-1.3 5.9-2.1 8.8-.2.9-.5 1.9-.7 2.9ZM544.9 209.9c-.48.6-.914 1.235-1.3 1.9l-1.4 1.9.7.8 1 .8c.287.32.625.59 1 .8a110.837 110.837 0 0 1 3.9-11l-.7-.4a23.517 23.517 0 0 1-3.2 5.2ZM541.9 208a17.308 17.308 0 0 1-2.5 2.1l.6.8 1-1.1a9.441 9.441 0 0 0 1-1l1.2-1.3a23.085 23.085 0 0 0 3.4-4.2l-.2-.2-.9 1.1-1.9 2.1-1 1.1-.7.6ZM538.6 200.7a14.345 14.345 0 0 1-2.7 1.9c.178.384.312.786.4 1.2l.9-.4.9-.6 1.4-1.2a12.094 12.094 0 0 0 1.6-1.6l1.4-1.9h.1l-.6-.9a16.499 16.499 0 0 1-3.4 3.5ZM540.4 203.9a13.788 13.788 0 0 1-3 2.4l.6 1.3 1.8-1.3 1.4-1.1 2.5-2.4 1.2-1.4a10.39 10.39 0 0 1-1.2-1.7 17.01 17.01 0 0 1-3.3 4.2ZM536.3 198.2l-1.7.5c.1.5.3.9.4 1.4l2-1.1 1.1-.8 1-.9a16.981 16.981 0 0 0 2-1.8l-.2-.4a9.4 9.4 0 0 1-4.6 3.1ZM533.7 196.5l.3.7 1.7-.8 1.7-.8c.737-.408 1.44-.876 2.1-1.4l.6-.6-.3-.5-.3-.5a9.312 9.312 0 0 1-1.4 1.4 6.102 6.102 0 0 1-1.6 1.2 14.59 14.59 0 0 1-2.8 1.3ZM532.2 194.4a12.87 12.87 0 0 0 2.1-.6l.7-.2.9-.6a12.177 12.177 0 0 0 1.7-1.5l.7-.9-.4-.6a13.997 13.997 0 0 1-3.2 2.2l-1.5.8-1.6.7.6.7ZM536.4 187.7c0-.1.1-.2.1-.4.087-.427.12-.864.1-1.3-.1-.4-.1-.7-.2-1.1a6.88 6.88 0 0 0-.2-1.3 19.085 19.085 0 0 0-1.1-3.5 8.191 8.191 0 0 0-1.7-2.9 2.5 2.5 0 0 0-1.2-.8 4.208 4.208 0 0 0-2.5-.1 4.104 4.104 0 0 0-1.8.5l-.9.4a5.6 5.6 0 0 0-1.5 1l.7.3c.477.312.914.681 1.3 1.1l.5.7c.326.502.594 1.039.8 1.6a35.916 35.916 0 0 1 2 5.1c.341.996.477 2.05.4 3.1.021.337-.013.674-.1 1l2.2-.8.6-.3a4.39 4.39 0 0 0 2.5-2.3Zm-3.7-2.4a2.207 2.207 0 0 1-1.9-1.2 1.602 1.602 0 0 1-.2-1c-.6-1.1-1-2.5.3-3.2 1.3-.7 3.1.6 3.7 2 .6 1.4 0 3.5-1.9 3.4ZM528.1 188.5c-.1-.3-.1-.6-.2-.9a7.807 7.807 0 0 1-.5-1.4 6.837 6.837 0 0 1-.6-1.3c-.6-1.5-1.3-4.7-3.5-3.5l-.3.7-.3 1.5a8.703 8.703 0 0 0 .1 3.6c.112.531.315 1.039.6 1.5.111.245.245.48.4.7l.6.7.6.5.7.3h1.6c.9-.4 1-1.3.8-2.4ZM527.2 343.4l-2-.4-4.1-.5c-9.2-.6-17.3 2.6-24.5 8.2l2.2 3.4.7 1.1.9 1.3a20.287 20.287 0 0 1 2.1 3.8l13.4-8.2c4.5-2.7 8.9-5.5 13.3-8.3l-2-.4ZM519.2 188.6c.16.896.429 1.769.8 2.6a2 2 0 0 0 .4.8c.246.378.549.716.9 1a4.08 4.08 0 0 1 1.1-.7 5.483 5.483 0 0 1-1.3-1.4l-.6-1.3a7.388 7.388 0 0 1-.4-1.4l-.5.2-.4.2ZM515 190.7a.894.894 0 0 1 .1.5.597.597 0 0 0-.1.4c.048.548.257 1.07.6 1.5.1.2.1.3.2.4l.5.6.5.4a.497.497 0 0 0 .5.3l1 .5.7-.6a2.71 2.71 0 0 1-.7-.8 7.103 7.103 0 0 1-1.4-4.2l-1.9.9v.1ZM535 256.4a4.297 4.297 0 0 0 2.7-1c.242-.251.415-.561.5-.9a1.498 1.498 0 0 0-.4-1.7 2.806 2.806 0 0 0-1.6-.5c-8.8-.5-19.7-2.4-23-12.1-.2.9-.5 1.8-.7 2.7 2 3.3 4.2 6.2 7.7 8.2l1.2.6c.827.404 1.7.706 2.6.9.839.305 1.712.506 2.6.6l1.3.3c.91.152 1.811.353 2.7.6a1.099 1.099 0 0 1 .8 1.3.895.895 0 0 1-.3.7l-.3.2h-.3a16.87 16.87 0 0 0 4.5.1ZM513.2 187l-1.5-.4a5.384 5.384 0 0 1 0 1.8.597.597 0 0 1-.1.4l3.2-1.4-1.6-.4ZM512.9 191.5l-.9.5v.2a.394.394 0 0 1-.1.3 2.603 2.603 0 0 0 .2 1.5c.21.661.55 1.273 1 1.8l.3.4c.359.446.801.819 1.3 1.1h.1l.8-.4c-.5-.321-.94-.727-1.3-1.2a5.697 5.697 0 0 1-1.4-4.2ZM508.6 193.6v.5a5.098 5.098 0 0 0 .8 3.2 8.083 8.083 0 0 0 1.8 1.9l1.4-.7-.7-.7a16.332 16.332 0 0 1-1.1-1.7 6.307 6.307 0 0 1-.9-2.5v-.7l-1.3.6v.1ZM507.3 189.6l-.3 1.3 1.8-.8.7-.4c.1-.2.1-.5.2-.8.1-.3.1-.9.2-1.3a5.667 5.667 0 0 0-.1-1.3l-1.5-.3-1.6-.2c.178.384.312.786.4 1.2.162.857.23 1.729.2 2.6ZM507.4 198.2a4.923 4.923 0 0 1-.5-1.6 9.721 9.721 0 0 1-.2-2.4l-2.7 1c0 .2.1.3.1.4a6.702 6.702 0 0 0 .5 3.1l.6.9.4.3.8.5.4.3 1.9-.6a3.99 3.99 0 0 1-1-1.2l-.3-.7ZM501.8 187.2c.202.583.337 1.187.4 1.8v1.1a8.198 8.198 0 0 1-.9 3.4l3.3-1.4c.112-.253.18-.524.2-.8a8.78 8.78 0 0 0 .7-2.3 4.203 4.203 0 0 0-.3-2.5 2.998 2.998 0 0 0-.4-.8h-3.7c.3.466.536.97.7 1.5ZM503.8 201.4l-.3-.4a4.08 4.08 0 0 1-.7-1.1 6.872 6.872 0 0 1-.5-1.3 13.552 13.552 0 0 1-.2-2v-.7l-1.3.4a6.018 6.018 0 0 0-.1 2.3c.1.3.1.5.2.8.16.704.546 1.337 1.1 1.8l.6.4 1.2-.2ZM497.2 201.4l.5.7h2l-.3-.6a7.611 7.611 0 0 1-.6-3.6l.3-1.2h-1.4l-.4.5a3.003 3.003 0 0 0-.6 1.8.399.399 0 0 0 0 .5c-.021.336.013.674.1 1 .108.311.242.612.4.9ZM497.1 189.3c.216.985.283 1.996.2 3a6.283 6.283 0 0 1-.3 1.9h1.8l.8-1.2.9-1.9c.1-.5.3-.9.4-1.4.1-.5.1-.4.1-.6.1-.528.1-1.071 0-1.6a1.903 1.903 0 0 0-.2-.7l-.3-.6-.2-.3a34.924 34.924 0 0 0-4.3.7c.192.271.328.577.4.9.287.578.521 1.18.7 1.8ZM491.7 188.8a6.091 6.091 0 0 1 1.3 2.2c.1.3.2.8.3 1.2a3 3 0 0 0 .8.8l.8.6c.263-.981.431-1.986.5-3a9.595 9.595 0 0 0-.8-3.8l-1.9.5-1.8.6.8.9ZM493.5 198.2a5.612 5.612 0 0 0-.9 1.7v.7c-.023.238.011.478.1.7.02.213.088.418.2.6l1.9.2c-.166-.457-.3-.924-.4-1.4v-.6a5.2 5.2 0 0 1 .4-2.1c.126-.352.294-.688.5-1l.3-.4h-.1l-1.1.8-.9.8ZM489.2 194.5a6.613 6.613 0 0 0-2 .6l-1 .5-1.8 1.2-.9.8a5.406 5.406 0 0 0 1.7 2l.8.6a4.397 4.397 0 0 1 .9-2.2l.9-1.2a7.906 7.906 0 0 1 3.6-2.4 7.917 7.917 0 0 0-2.2.1ZM492.7 196.1l.6-.5h-.1l-.6.2-.5.3-1.1.6-.5.4-.9.9-.4.4a4.302 4.302 0 0 0-1.3 2.7l.8.2 1.4.3a1.977 1.977 0 0 1-.1-.7 5.896 5.896 0 0 1 2.7-4.8Z"/><path fill="#FC5B61" d="M465.6 216c-4.4-4.2-7.3-9.6-10-15l-36-69.9-1.9 1.5-2 1.5 1.8 4.2 1.6 4.2c1.1 2.8 2.1 5.6 3.1 8.5 2 5.7 4 11.4 6.2 17 3 7.5 6.1 15 9.5 22.4l4.2 8.7 2.3 4.3a84.334 84.334 0 0 0 5.6 9.7 43.254 43.254 0 0 0 4.2 5.2l1.7 1.5 1.8 1.3 2 1 1 .5 2 .7a38.222 38.222 0 0 0 7.6 1.8c12.9 2 26.4 2.1 39.4 1.4.2-2 .5-4 .9-6-4.6.1-9.6 1.6-14 2.3-10.1 1.6-23.1.6-31-6.8Z"/><path fill="#FC5B61" d="m485.4 194.2 1.3-.5 1.6-.6h1.2l.9-.2a.898.898 0 0 0 .7-.3l.3-.2.2-.5c.1-1-1.4-2.5-2.2-3.1h-.2l-1.2.6a11.81 11.81 0 0 0-3.1 2.4l-.5.6a6.996 6.996 0 0 0-.9 1.7c-.18.486-.314.989-.4 1.5v.5c0-.7 1.1-1.3 2.3-1.9ZM466.2 472.2l-.8.9-.9.9c.36.845.66 1.714.9 2.6.1.476.234.944.4 1.4a9.483 9.483 0 0 0 1.7-2.7c-.3-1-.7-2.1-1.1-3.1h-.2ZM496.4 360.4c-.6-.8-1.1-1.7-1.7-2.6l-1.6-2.9c-.6-.9-1.1-1.9-1.6-2.8-3.9 3-7.6 6.1-11.5 8.9-7.9 5.5-16.7 10-22.9 17.4-8.8 10.5-8.5 24.6-6.9 37.5.8 6.6.6 13.1 1.5 19.8L455 461c.4 3.3.7 7-1.4 9.6-2.1 2.6-5.1 3-8.1 3.1a34.698 34.698 0 0 1-17.3-4 20.812 20.812 0 0 0 3.8 3l1.2.7a23.808 23.808 0 0 0 8.2 3c1.742.37 3.52.537 5.3.5h1.6a24.504 24.504 0 0 0 6.4-1.4 16.27 16.27 0 0 0 4.4-2.1 10.692 10.692 0 0 0 4.3-5.6c.295-.876.496-1.781.6-2.7.116-.492.183-.995.2-1.5.3-3.9-.3-8.2-.4-11.7-.1-3.5-.1-5.1-.2-7.7-.3-7.7-.5-15.3-.6-23-.1-3.1-.3-6.3-.4-9.5 0-.8-.1-1.6-.1-2.4v-4.8c0-1.605.101-3.208.3-4.8.1-.4.1-.8.2-1.1a20.09 20.09 0 0 1 .4-2.4c.119-.743.286-1.478.5-2.2a26.805 26.805 0 0 1 4.7-9.6 48.384 48.384 0 0 1 6.3-6.5 93.259 93.259 0 0 1 9.4-6.7l4-2.4 9.8-5.8h.2c-.6-.9-1.3-1.7-1.9-2.6ZM366.2 492.1c-5.2-.8-10.5-.6-15.7-.8-5.2-.2-12.4-.4-18.5-.8-11.7-.6-23.4-1.7-35-3.1l2.2 2c.7.6 1.3 1.3 1.9 1.9 19.9 5 39.8 3.7 60.2 4.3l4.9-3.5ZM355.6 475.3a3.001 3.001 0 0 1 2 1h.4c0-.1.1-.1.1-.2.1 0 .1-.1.1-.2v-.2c0-.2-.1-.3-.1-.4 0-.1-4.8-1.5-5.4-1.7l-5.4-1.6-24-6.6-3 3-.5.4a75.24 75.24 0 0 1 8.2 1.9c9.2 2.6 17.8 4.5 27.6 4.6ZM466.4 480.8c.5 2.9.4 5.8-1.9 8a15.1 15.1 0 0 1-6.3 3.5c-7.9 2.7-16.4 3.3-24.8 4.3-38.5 4.5-75.3 18-111.7 31.3l-16.6 6.1-1.1.5 1.3.4 1.4.2h1.4l3.1-.5c2.1-.4 4.1-1 5.8-1.4l10.5-2.9c7-2 13.8-4.3 20.7-6.5l5.2-1.7 5.2-1.6 10.3-3.2a167.304 167.304 0 0 1 10.5-3l7.1-1.7c4.4-1.3 8.9-2.5 13.3-3.6 6.7-1.8 13.5-3.4 20.2-4.9l20.2-4.6 15.3-3.5c3.1-.7 8.4-1 11.5-2.9a2.69 2.69 0 0 0 1.2-.9c2.8-2.9 1.5-9 .5-12.8a6.28 6.28 0 0 1-.2-.7 10.396 10.396 0 0 1-2.1 2.1Z"/><path fill="#FFFFFF" d="M768.1 517.6a6.487 6.487 0 0 0 1.423-4.809 6.492 6.492 0 0 0-2.423-4.391c-5.2-3.8-10.7 4.3-7.7 8.9 1.9 2.9 6.5 2.8 8.7.3Zm-4-7.5a2.706 2.706 0 0 1 2.2 1.2c1.3 1.5 1.2 4.2-.6 5.2-6 3.5-4.9-6.2-1.6-6.4ZM778 589.3c10-6.7 3.7-19.6-6.1-22.5-9.8-2.9-21.4 11.8-14.3 20.7 4.9 6.1 14.3 5.8 20.4 1.8Zm-16.2-17.2c5.2-3.5 11.1-2.6 15.6 1.6 6.3 5.6 2.7 12.9-4.6 15.2-4.9 1.6-10.9.9-14-3.7-3.1-4.6-1.3-10.2 3-13.1ZM723.8 591.7c.201.523.509.998.906 1.394.396.397.871.705 1.394.906 2 .6 3.7-1.2 4-3 .3-1.8-.9-4.1-3-4.2a4.3 4.3 0 0 0-3 1.3 2.903 2.903 0 0 0-.8 3.1c0 .3.3.4.5.5Zm3.1-2.6a1.499 1.499 0 0 1 1.8 1.6c-.1 2.5-3.2 1.7-3.5-.2a2.398 2.398 0 0 1 1.7-1.4ZM717.7 652.3a8.295 8.295 0 0 0 7.3 6.5c5.5.7 10-3.7 10.7-8.9.7-5.2-3.7-10.7-9.3-10.3-5.6.4-9.9 7.3-8.7 12.7Zm7-8.9c4.5-2.3 8.9.8 9.2 5.6a7.502 7.502 0 0 1-7.4 8.3c-7.8.2-7.7-11.1-1.8-13.9ZM717.7 534.9c7 2 18.3-.1 18.5-8.9.2-8.8-3.1-16.3-12-16.3s-15 7.8-15.1 14.9c0 4.4 2.5 8.5 8.6 10.3Zm-4.4-16.4a12.698 12.698 0 0 1 7.9-5.7c7.2-1.7 11 2.8 12.1 9.4.6 3.9.4 7.4-3.6 9.4a18.487 18.487 0 0 1-8.7 1.3c-8.2-.4-9.6-8-7.7-14.4ZM685.8 946c-7.8-4.3-18.7-1.4-26.3 3.2a10.704 10.704 0 0 0-15.197-7.756 10.7 10.7 0 0 0-4.703 4.456 1.401 1.401 0 0 0 0 1.5 1.493 1.493 0 0 0 1.3.752 1.5 1.5 0 0 0 1.3-.752c4.7-6.9 14.7-3 13.7 5.2a1.794 1.794 0 0 0 .904 1.668 1.795 1.795 0 0 0 1.896-.068 32.506 32.506 0 0 1 12.6-5.6c4.7-.9 9.1.1 13.8 0a1.49 1.49 0 0 0 1.077-.714 1.49 1.49 0 0 0 .123-1.286 1.302 1.302 0 0 0-.5-.6ZM699.2 398.6c1.7 16.5-10.9 31.9-5.2 48.3a1.21 1.21 0 0 0 .584.711 1.21 1.21 0 0 0 1.627-.495 1.2 1.2 0 0 0 .089-.916c-5.3-15.6 6.6-30 6.9-45.4.3-12.1-6.1-23.7-11-34.3-2.8-6-5.3-12.2-6-18.8-.7-6.6 1.1-15.1 3.5-22.3 2.4-7.2 4.5-13.3 4.9-20.4.4-7.1-1.6-14.3-2.9-21.6-1.7-9.8 3-17.6 4.2-27.1a37.803 37.803 0 0 0-3.2-21.2c-.5-.8-1.9-.2-1.6.7 2.6 8.3 4 16.4 1.7 25.1-1.7 6.5-4.5 12.4-3.9 19.3.6 6.9 3.2 15.1 3 23-.2 7.9-3 15.4-5.5 23-4.2 12.6-4.3 23.7.1 36.2 4.4 12.5 11.4 23.4 12.7 36.2ZM659.4 457.9c-1.9 3.1-3.4 6-3.3 9.8.3 7.6 4.1 15.5 6.8 22.5s6.5 16.3 7.4 25c.9 8.7-1.5 18.4-4.9 27.3-3.4 8.9-2.7 13.8 1.9 20.9 11.1 17 16.6 38.6 10.7 58.4a1.2 1.2 0 0 0 2.2.7c5.5-16.1 2.4-32.7-3.6-48.2-3.1-8.1-10.1-17.3-7.7-26.2 1.2-4.3 3.4-8.3 4.5-12.7a56.388 56.388 0 0 0 1.5-13c-.1-17.6-9.4-32.2-14-48.6-1.6-5.7-1.4-9.8 1.5-15.1a75.812 75.812 0 0 0 5.2-11.2 62.306 62.306 0 0 0 3.3-24.2c-.7-10.4-3.1-20.2-2.6-30.7.3-8.6 1.1-17.5-3.6-25.2a.513.513 0 0 0-.255-.098.496.496 0 0 0-.545.498c2.7 8.5 2.1 16.9 1.7 25.7-.4 8.8 1.1 16.8 2.3 25.3a58.409 58.409 0 0 1-2.6 27.2 59.9 59.9 0 0 1-5.9 11.9ZM627.4 262.4c1.4-2.7 1.5-6.1 1.7-9.1.1-1.3-2-1.3-2.1 0-.2 2.9-.9 5.9-.7 8.8 0 .5.8.9 1.1.3ZM621.2 287.2c1.4-1.5 1.7-3.8 2.2-5.8.5-2 .9-4.5 1.2-6.8.3-2.3-2.2-1.5-2.4 0-.2 1.5-.7 4.4-1.2 6.6-.5 2.2-1.4 3.6-1.2 5.4a.797.797 0 0 0 .481.81.798.798 0 0 0 .919-.21ZM583.1 975.2c-4.6 1.1-7.3-.6-10.4-3.5a16.1 16.1 0 0 0-10.8-5c-4.5-.2-8.8 1.2-12.9 3-2.5 1.2-5.1 3-7.8 3.9a9.696 9.696 0 0 1-7.3-.6 7.36 7.36 0 0 1-1.3-1.2 16.4 16.4 0 0 0-20.5 1.1l-.4.6a1.5 1.5 0 0 0 2.4 1.4 12.997 12.997 0 0 1 15-1.2c3 1.8 4.4 5.2 8.1 5.2 3.7 0 8-3 11.5-4.6 5.4-2.6 12.3-5.3 18-2.2 3.6 1.9 5.6 5.8 9.5 7.2 3.9 1.4 6.9.2 10.1-1.1 5.7-2.4 11-4.4 17.2-4.9 6.2-.5 10.2.8 15.4 1.1 1.5.1 2.3-2.4.8-3-8.4-3.8-19.8-2.5-28.4.4l-.9.3c-2.4 1-4.8 2.4-7.3 3.1ZM615.3 305.9a79.81 79.81 0 0 1-4.6 11.4c-1.5 2.9-3.3 5.7-4.4 8.8-.5 1.3 1.4 1.8 2.2.9 4.2-5.6 6.1-14.1 8.1-20.7a.696.696 0 0 0-.493-.71.695.695 0 0 0-.807.31ZM606.2 956.9c-7.5-4.4-17.3-1.5-22.9 4.6a1.396 1.396 0 0 0-.165 1.611 1.4 1.4 0 0 0 1.465.689.9.9 0 0 0 .7-.3l.9-.7a21.202 21.202 0 0 1 14.5-4.1c1.54.038 3.076.172 4.6.4.172.045.352.051.527.017A1.197 1.197 0 0 0 606.8 958a1.004 1.004 0 0 0-.6-1.1ZM603.7 468.5c1.7.6 2.9-1.4 2.2-2.8a8.714 8.714 0 0 0-2.6-2.8 28.248 28.248 0 0 0-2.8-2 1.998 1.998 0 0 0-2.454.336 2 2 0 0 0-.246 2.464c1.5 1.9 3.5 4 5.9 4.8ZM567.1 107.6c.3-6.5-2.2-13.8-1-20.1 1-4.7 3.6-8.8 3.2-13.7 0-.5-.7-.5-.6 0 .3 5.7-3.8 10.5-4.3 16.2a55.515 55.515 0 0 0 1.7 17.7.5.5 0 0 0 .889.268.498.498 0 0 0 .111-.368ZM565.5 166.6c.08-.869.317-1.716.7-2.5h.4c.7-.2 1.7-.3 2.2-1.1a.392.392 0 0 0 .013-.381.395.395 0 0 0-.313-.219 2.1 2.1 0 0 0-1.5.3 7.99 7.99 0 0 0 1.2-2.2.705.705 0 0 0-.609-.876.706.706 0 0 0-.391.076 8.303 8.303 0 0 0-2.4 3.1 5.201 5.201 0 0 0-.7 3.8c.2.6 1.3.8 1.4 0ZM561.5 122.8c.1-.4-.5-.6-.7-.2-1.6 3.8-1.4 7.5-.8 11.5.9 6.2 2 10.6-.9 16.4-.7 1.4 1.1 3.1 2.3 1.8 7.4-8.2-3.5-20.3.1-29.5ZM582.7 263h-1c-3.3.3-6.5 1.3-9.9 1.1a25.096 25.096 0 0 1-12.1-4.2 1.008 1.008 0 0 0-.9-.1 1.2 1.2 0 0 0-.6 2c6.3 5.3 18.2 8.9 25.3 3a1.093 1.093 0 0 0 .157-1.148 1.096 1.096 0 0 0-.957-.652ZM544.1 53.7c5.4 1.3 7.9 11.8 7.4 16.5-.5 4.7-3.9 9.4-4.5 14.6a.6.6 0 0 0 1.1.1c2.3-7.2 6.2-13.6 5-21.4-.8-4.8-3.5-9.9-8.9-10.4a.304.304 0 1 0-.1.6ZM531.6 112.2a.522.522 0 0 0 1 .3c1.5-4.8 3.8-10.1 3.1-15.2-.7-5.1-1.3-6.5-.1-10s2.3-4.5 3-6.9c.6-2.213.803-4.516.6-6.8-.1-2.7.2-5.4.1-8.2a10.005 10.005 0 0 0-4.8-8.3c-.5-.4-1.1.6-.5.9 5.3 2.5 4.1 10.8 4 15.6-.1 4.8-.3 5.8-2.2 8.8a22.682 22.682 0 0 0-2.7 4.8c-1.2 3.5.3 6.2 1.1 9.6 1.2 5.5-.9 10.3-2.6 15.4ZM534.6 181.9c-.6-1.4-2.1-2.8-3.7-2-1.6.8-.9 2.1-.3 3.2a1.6 1.6 0 0 0 .2 1 2.199 2.199 0 0 0 1.9 1.2c1.9.1 2.4-2 1.9-3.4Zm-2.3-.1.3.4c.123.32.191.658.2 1a5.803 5.803 0 0 0-.5-1.4ZM529.7 170.4a.696.696 0 0 0 .878-.322.696.696 0 0 0-.226-.908.696.696 0 0 0-.652-.07.704.704 0 0 0-.44.65c0 .14.042.277.12.393.079.115.19.205.32.257Z"/><path fill="#FFFFFF" d="M524.7 96.9a37.091 37.091 0 0 1 1.5 9.9c-.1 3.3-1.4 6.1-2.2 9.2-.8 3.1-1.5 7.5.3 11.3.5.9 2 .1 1.5-.9-2.9-5.7.4-11.2 1.6-16.7 1.2-5.5.2-8.8-1-13.3-2.4-9.6 8.2-18 5.3-28.2a.898.898 0 0 0-1.7 0c-1.2 6.2-1.2 11.6-3.9 17.5-1.9 4.1-2.5 6.8-1.4 11.2ZM522.3 78.1a.403.403 0 0 0 .8.1 15.798 15.798 0 0 0-.4-13.6.337.337 0 0 0-.45-.15.333.333 0 0 0-.15.45c1.9 4.4.4 8.7.2 13.2ZM521.6 158.6h.1l6.3-5.1 6.3-5.1a.2.2 0 1 0 0-.4h-.2c-4.2 3.5-8.5 6.7-12.7 10.2-.1.2 0 .4.2.4ZM517.4 161.8h-.1l-.6.5v.2h.2l.6-.5c.1-.1.1-.1 0-.1l-.1-.1ZM516.2 180a1.398 1.398 0 0 0-.584-1.704 1.413 1.413 0 0 0-.616-.196 1.296 1.296 0 0 0-1.2.9c-.4.4-.2 1.1.3 1.6a1.506 1.506 0 0 0 1.179.154 1.506 1.506 0 0 0 .921-.754Zm-1.6-.6h.2c.2-.1.5.1.3.3-.2.2-.4 0-.5-.3ZM517.1 140.1c.4.3.9-.3.7-.7-2.6-4.9-4.7-8.8-3.2-14.6 1-4.2 3.4-7.9 4.7-12 2.8-8.6-1.6-17 .9-25.6.2-.6-.7-.8-.9-.2-1.4 4.5-1.1 8.4-.3 13.1 1.4 7.3-2.3 12.5-5.1 19s-4 15.8 3.2 21ZM509 508.7c2.3 5.6 6.1 10.5 8.7 16 4.5 9.2 3.4 18.8 1.9 28.5-.2 1.1 1.4 1.6 1.6.5 1.4-7.4 2.8-15.1 1.2-22.5-1.6-7.4-5.3-12.3-8.3-18.2-3.9-7.5-5-14.4-2.1-22.4 2.9-8 6.3-12.7 8.7-19.4a31.3 31.3 0 0 0 .6-18.9c-2.1-7.2-5.9-13.9-7.6-21.3-3.4-14.4 4.4-30.2-2.8-43.9-.7-1.2-2.8-.4-2.2.9 5.8 14.1-1.6 28.7 1.3 43.2 1.4 7.2 5 13.7 7 20.7s1.1 14.9-2.2 22.3c-5 11.3-11 22.1-5.8 34.5ZM503.2 172a7.321 7.321 0 0 0-2.1-.6c-1.2 0-2.8 1.2-2.8 2.5a1.4 1.4 0 0 0 0 .9 2.59 2.59 0 0 0 1.5 1.7 3.6 3.6 0 0 0 4.7-2.2 2.1 2.1 0 0 0-1.3-2.3Zm-2.7 2.9a1.102 1.102 0 0 1-.7-.9c.2-.5.3-1.1 1.1-1.3a1.602 1.602 0 0 1 1.2.1c0 .1.2.8.2 1a1.5 1.5 0 0 1-1.8 1.1ZM497 156.7a2.903 2.903 0 0 0 2.6 3c2.6.4 5.5-1 5.3-3.9-.2-2.9-2.1-4.5-4.7-3.7a5 5 0 0 0-3.2 4.6Zm5.6-1.7c.5 1.2-.4 2.9-2.6 2.4s-1.5-3.2.5-3.5a1.906 1.906 0 0 1 1.243.182c.381.2.683.524.857.918ZM488.7 924.8c6.9 5.2 16.9 4.8 25 5.3 8.1.5 19.4-.3 28.3-4a24.595 24.595 0 0 0 10.3-9.1c2.9-4.3 7-7.8 9.2-12.6 3.7-8.3 1.5-17.9 1.8-26.7.3-9.5 1.7-19 1.4-28.5a3.91 3.91 0 0 0-.6-1.5 16.707 16.707 0 0 0-3.3-10.4c-4.9-6.5-11-12.1-16.6-18.1-5.6-6-12.8-16.4-21.5-18.5-8.7-2.1-18.7 2.3-27.6 1.7-4.1-.2-8.8-1.2-12.5 1.1-3.7 2.3-5.1 7.7-7.3 11.4s-4.5 8.2-6.5 12.5c-3.2 6.8-7.3 13.1-10.7 19.7a1.196 1.196 0 0 0-.4 1.5c3.8 8.9 8.1 17.7 12 26.6 3.9 8.9 6.3 20.1 9.4 30.1 2 6.4 3.8 15.2 9.6 19.5Zm-20.9-74.5a23.008 23.008 0 0 0 2.5-4.3c1.8-3.8 3.7-7.6 5.8-11.3 4.6-8.6 8.9-17.4 13.7-25.9.127-.211.196-.453.2-.7 6.3-1 13.4.4 19.5.7 3.2.1 8.4 1 12.2 0 .4 0 7.3 5.8 8.1 6.6 7.6 6.9 11.3 14.8 16.9 23.2 3 4.7 5.8 9.5 8.9 14.1-2.8 7-1.8 14.3-1.2 21.6.6 7.3 1 15.2 1.1 22.8a82.024 82.024 0 0 0-7 8.4c-3.1 3.9-6.6 7.4-9.4 11.6-5.6-1.1-11.9-.8-17.6-1.4-4.2-.4-8.4.1-12.6.1-4.2 0-9.4.2-11.6-2.2-4.1-4.6-3.1-12.1-4.4-17.7a54.43 54.43 0 0 0-8.2-18c-6.4-8.9-12.3-17.5-16.9-27.6ZM487.7 128.6a9.8 9.8 0 0 0-1.5 5.2c0 3.3 1.5 6.5 4.8 7.8a7.096 7.096 0 0 0 8.324-2.307 7.108 7.108 0 0 0 1.276-2.793c.9-4.2-1.6-9.9-5.9-11.1a6.304 6.304 0 0 0-7 3.2Zm6.1 1.5c1.9.5 4.5 3.2 4.5 5.3-.1 4.3-5.2 5-8.1 2.9-2.9-2.1-1.5-9.7 3.6-8.2ZM490.1 108a3.597 3.597 0 0 0 2.562-3.336c.015-.501-.074-1-.262-1.464a3.498 3.498 0 0 0-3.385-2.336c-.49.012-.972.126-1.415.336-1.9 1-2.1 3.2-1.3 4.9a3.5 3.5 0 0 0 3.8 1.9Zm-1.7-5a1.722 1.722 0 0 1 1.5 3.1 1.904 1.904 0 0 1-1.569-.131 1.903 1.903 0 0 1-.931-1.269 1.701 1.701 0 0 1 1-1.7ZM484.3 155.2c2.5 1.2 6.2.3 7.2-2.5a4.406 4.406 0 0 0-.454-3.791 4.4 4.4 0 0 0-3.246-2.009 7.101 7.101 0 0 0-3.9 1.2 4 4 0 0 0 .4 7.1Zm.7-5.6c1.2-.9 4-.5 4.3 1.2.3 1.7-.8 2.2-1.9 2.5a3.596 3.596 0 0 1-2.7-.1c-1.5-.8-.8-2.8.3-3.6ZM485 116.8c.4-2.2-1-3.8-3.3-3.1a2.594 2.594 0 0 0-1.7 2.2 2.506 2.506 0 0 0 .245 1.93A2.507 2.507 0 0 0 481.8 119a2.8 2.8 0 0 0 3.2-2.2Zm-1.5 0c-.8 1.7-2.9-.2-2-1.4a.298.298 0 0 0 .1-.2c1-.8 2.3.5 1.9 1.6ZM443.4 709.4a6.894 6.894 0 0 0-1.8 1.6 12.902 12.902 0 0 0-2.2 13.3c2.7 6 10.9 8.4 16.3 4.5 5.4-3.9 5.7-11.6 1.9-16.3-3.8-4.7-9.9-6.3-14.2-3.1Zm10 2.9a8.602 8.602 0 0 1 3.1 11.7 8.294 8.294 0 0 1-5.362 3.791 8.299 8.299 0 0 1-6.438-1.291 9.304 9.304 0 0 1-3.689-7.227 9.301 9.301 0 0 1 3.389-7.373c2.4-1.7 6.5-.9 9 .4ZM468.7 64.6h-.5a5.2 5.2 0 0 0-3.4 1.4l-.6.9-.3.5-.3 1.1a5.907 5.907 0 0 0 .4 2.3c.1.2.1.4.2.6l.3.5a3.608 3.608 0 0 0 2.7 1.9l.9.2a4.601 4.601 0 0 0 3-1.1 4.91 4.91 0 0 0 1-1.5c.202-.294.307-.643.3-1a6.21 6.21 0 0 0 .2-1.9 4.103 4.103 0 0 0-1.1-2.6 3.802 3.802 0 0 0-1.3-.9l-1.5-.4Zm2.2 5.3a2.101 2.101 0 0 1-1.9 2.2 1.898 1.898 0 0 1-2-2 2.299 2.299 0 0 1 2.3-2.1 1.799 1.799 0 0 1 1.6 1.9ZM462 40h.9a.7.7 0 0 0 .2-.9 2.705 2.705 0 0 1-.1-1.3c.1-.4.3-.8.8-.8a1.506 1.506 0 0 1 1 .6l.2.3.5.7a11.4 11.4 0 0 0 2.6 3.2h.3c.1 0 .2 0 .2-.1a.405.405 0 0 0 .2-.4 4.896 4.896 0 0 0-.4-1.1 4.085 4.085 0 0 0-.5-.9 3.597 3.597 0 0 0-.7-1l-.6-.9-.2-.3-.2-.3-.5-.6a3.301 3.301 0 0 0-1-.6h-1.5l-1 .5-.4.6c0 .1-.1.2-.1.4-.205.33-.309.712-.3 1.1v.4c.027.373.094.742.2 1.1.1.1.2.3.4.3ZM460.4 43.3l-.3.7a18.472 18.472 0 0 0-.4 2.3c0 .3-.1.5-.1.8a18.802 18.802 0 0 1-1.2-1.8 2.2 2.2 0 0 0-1.3-.8h-.7c-.2.1-.4.1-.5.3a.998.998 0 0 0-.4.5 6.594 6.594 0 0 0-.4 2.5c.017.638.084 1.273.2 1.9.1.3.1.6.2.9.1.3.3 1.1.4 1.6.1.5.1.3.2.4a.894.894 0 0 0 .7.3h.4l.6-.4c.1-.257.1-.543 0-.8l-.6-2.4a11.483 11.483 0 0 1-.1-2.6c.7.5 1.2 1.6 1.9 2.2l.9.3a.696.696 0 0 0 .6-.4c.128-.324.228-.659.3-1 0-.3.1-.5.1-.8a6.669 6.669 0 0 1 .6-1.7.794.794 0 0 1 .768-.573c.114 0 .228.025.332.073.7.3 1.1 4.9 1.3 5.7a.9.9 0 0 0 .3.5.9.9 0 0 0 .6.3 1.297 1.297 0 0 0 1.2-.6c.12-.19.221-.39.3-.6l.3-.8a.8.8 0 0 1 .2-.4c1.6-2 1.4 0 1.6 1.3.2 1.3.6 3.9 1.6 5.6.1.2.2.3.4.3h.2l.5-.2a.8.8 0 0 0 .2-.4v-1.7l-.3-1.6a30.091 30.091 0 0 0-.8-3.2 2.408 2.408 0 0 0-.2-.8.904.904 0 0 0-.1-.5 1.302 1.302 0 0 0-.3-.8.497.497 0 0 0-.2-.4 1.3 1.3 0 0 0-.6-.7 1.804 1.804 0 0 0-1.5-.5h-.4a2.296 2.296 0 0 0-1.1.9l-.3.4c-.2-.5-.3-1-.5-1.5a8.529 8.529 0 0 0-1-1.9c-.264-.32-.61-.56-1-.7l-.6-.2h-.9l-.7.3-.4.7ZM453.3 35.2a2.2 2.2 0 0 0-2.3 1.7 4.296 4.296 0 0 0-.4 1.9h-.5c-.456.22-.839.567-1.1 1-.193.407-.296.85-.3 1.3 0 1.4.8 2.9 1.1 4.1h.1a.599.599 0 0 0 .9.1c.1-.1.2-.2.2-.3v-.2a12.075 12.075 0 0 1-.5-1.8c0-.1-.1-.1-.1-.2a.903.903 0 0 0-.1-.5v-.2c-.134-.597-.1-1.22.1-1.8 0-.053.021-.104.058-.141a.202.202 0 0 1 .142-.059l.4.2h.8l.4-.3c0-.2.1-.3.1-.5a2.79 2.79 0 0 1-.1-.9v-.3a.396.396 0 0 1 .1-.3.8.8 0 0 1 .2-.4l.3-.2a1.6 1.6 0 0 1 1.1-.3l.2.3.3.8c0 .2 0 .3.1.4.02.276.088.547.2.8v.4h.1c.1.1.1.3.2.4l.2.3.3.2.5.2a.498.498 0 0 0 .5-.4.8.8 0 0 0 .2-.4 2.391 2.391 0 0 0 0-1.2c.015-.205-.02-.41-.1-.6h.1a1.1 1.1 0 0 1 .8.1l.6.5c.4.6.6 1.4 1 2.1l.3.7h.2c.3.1.6.1.7-.2.1-.3.1-.5.1-.8a4.1 4.1 0 0 0-2-3.7l-.7-.3c-.3 0-.6-.1-.8 0h-.4l-.4.2a7.079 7.079 0 0 0-1-1.4l-.5-.4a.903.903 0 0 0-.7-.3l-.6.4ZM449 34.7h.7a.803.803 0 0 0 .2-.5 4.516 4.516 0 0 1-.1-1.1c.018-.406.085-.81.2-1.2.094-.253.23-.49.4-.7.152-.216.359-.389.6-.5h.6l.3.2.3.3c.142.213.243.45.3.7l.3.8c.111.246.245.48.4.7h.2c.3.2.7 0 .9-.4.2-.4.1-.4 0-.6a4.396 4.396 0 0 0-.8-2.1 3.007 3.007 0 0 0-.8-.8l-1.1-.4h-.3a2.1 2.1 0 0 0-1.2.3 3.596 3.596 0 0 0-1.4 1.8c0 .3-.1.6-.1.9-.09.257-.124.53-.1.8v1.2a.598.598 0 0 0 .5.6Z"/><path fill="#FFFFFF" d="M445.2 29.1c-5.2 5.5-6 15-5.3 22.3a57.79 57.79 0 0 0 8.7 24.3c3.1 5 7.5 10.1 13.7 10.9 6.2.8 12.1-6 14.7-11.5a32.32 32.32 0 0 0 2.2-5.9c.2-.8.7-6 1.1-6.2 7.7-4.2 4.4-15.9 3.2-22.9-.5-2.7-1.1-7-4.8-7.1-2.2-.1-4.2 1.8-5.7 3.7a38.64 38.64 0 0 0-6.2-6.6c-3.1-2.5-8-6-12.4-5.5l1.8-2.1a20.724 20.724 0 0 0 3.1-4.8 22.991 22.991 0 0 0 1.2-3.7 5.602 5.602 0 0 0-.6-3.9c-3.2-4.2-8.4 4-10.6 7.8-3.2-3.2-9.5-8.6-12.6-4.5-3.1 4.1 4.4 13.4 8.5 15.7Zm31.2 7.7.9-.4c1.2-.3 2.4.3 3.5 2.7.112.253.18.524.2.8.282.806.45 1.648.5 2.5.082.293.116.597.1.9.1.4.1.8.2 1.2 0 .408.067.814.2 1.2.084.807.218 1.609.4 2.4.115.39.182.794.2 1.2.198.819.299 1.658.3 2.5.134 1.203.066 2.42-.2 3.6a7.31 7.31 0 0 1-.9 2.2c-.411.61-.88 1.18-1.4 1.7a36.488 36.488 0 0 0-.4-5.7c-.4-1.9-.8-3.8-1.4-5.7a27.916 27.916 0 0 0-1.4-3.7 24.021 24.021 0 0 0-1.3-2.8l-.8-1.4-.8-1.3a8.994 8.994 0 0 1 2.1-1.9Zm-27.7-15.9a1.396 1.396 0 0 0 1.591.084c.161-.099.3-.23.409-.384 1.4-2.8 2.5-5.7 4.8-7.9s2.5-1.7 3.5-.4a2.09 2.09 0 0 1 .3 1.6 9.696 9.696 0 0 1-1.2 2.9 26.511 26.511 0 0 1-4 4.2c-.8.7-4.9 4-3.7 5.3l.6.3h1c1.348.136 2.685.37 4 .7a36.496 36.496 0 0 1 9.4 5.4c4 3.4 6.6 8 8.6 12.8 3.5 8.4 3.3 17.5.7 26.2-1.1 3.7-2.9 8.3-6.6 10.2a9.2 9.2 0 0 1-8.7.4c-5.7-2.8-8.9-9.5-11.7-14.9-.5-.9-.9-1.9-1.3-2.8a8.897 8.897 0 0 0 5.1 3.3c.6.1 1.1-.7.5-1.1-4.7-2.9-7.6-8-9.3-13.2a38.617 38.617 0 0 1-.6-4.9v-3.2a2.397 2.397 0 0 1 2.3-.2 4.498 4.498 0 0 1 1.1 1.9c.4.8.6 1.7 1 2.5a30.385 30.385 0 0 0 2.5 4.7c1.4 1.9 3.6 4.7 6.2 4.2a.7.7 0 0 0 .4-.9 8.2 8.2 0 0 0-2.5-2.4 16.992 16.992 0 0 1-2.9-3.6c-1-1.8-1.5-4-2.5-5.9a6.208 6.208 0 0 0-1.1-1.7 3.602 3.602 0 0 0-1.9-1.3c-.5-.2-1.4-.1-1.8-.4-.4-.3-.2-3.7.1-4.8a18.787 18.787 0 0 1 2.6-5.8l1-1.6c.099-.394.166-.795.2-1.2-.1-1.8-2.1-2.8-3.4-3.9-1.3-1.1-5.4-4.7-5.3-8 .4-6.7 9.3 2.4 10.6 3.8ZM444.8 595.6c-5.1-1-12.2 2.8-11.8 8.6a.798.798 0 0 0 .2.6 12.005 12.005 0 0 0 5.9 11.3c5.4 3 12.6-2.5 13.6-8s-2.3-11.5-7.9-12.5Zm-4.5 18.4c-3-1.4-5.2-5.9-4.9-9.4 1.9-2.8 4-5.3 7.6-5.4a6.998 6.998 0 0 1 7.2 6.3c.6 4.7-5 10.9-9.9 8.5ZM439.5 391.4c-.9-.5-2-.3-3-.5s-1.9-1.1-2.9-1.4a1.3 1.3 0 0 0-1.6 1.6 5.297 5.297 0 0 0 3.5 2.7c1.2.3 3.3.6 4.2-.6a1.098 1.098 0 0 0-.2-1.8ZM473 944.7l-.3-.4c-3.2-2.4-5.9-9.5-7.7-13-1-1.8-3.2-4.5-2.2-6.4 1-1.9 3.8-1.3 5.3-2.6s-1.6-5.7-2.8-6.9c-1.2-1.2-1.9-2.3-2.8-2.5-.9-.2-4.9 3.6-5 3.4a41.078 41.078 0 0 1-2.2-4.1c-5.1-10-10.6-18.8-11.1-30.2-.7-13.4 0-26.6-.9-40a80.876 80.876 0 0 1-8.6 1.2c-2.3.1-4.8-1.6-6.9.1a4.794 4.794 0 0 0-1.2 2.2c-2.5 7.7-2.8 15.6-6.3 23.1-3.5 7.5-6.7 14.3-9.8 21.5-3.1 7.2-5.2 12.1-8.8 17.5-1.9 2.7-4.1 5.3-5.5 8.3a19.905 19.905 0 0 0-1.4 10.2c.5 8.2 3.5 16.3 2.6 24.6-.4 4.3 7.1.4 8-.6 3.6-3.7 7-7.7 11.1-11s10.6-3 16.7-4.4c6.1-1.4 11.1-4 16.8-5.3 2.6 4.8 6.1 9.2 9 13.9 5.3 8.4 6.7 18.3 8.9 27.8.6 2.5.5 6.6 2.7 8.2 2.2 1.6 4.3-1.3 6.4-3.2 2.1-1.9 3.2-3.5 3.4-5.9v-.6c0-3.5-2.3-7.4-3.3-10.6-1-3.2-2.1-9.8-4.1-14.3ZM442.4 923c-4.2 1.1-8.6 1.5-12.9 2.2-4.3.7-7.7.8-10.5 3.3-4.4 3.8-9.6 6.6-13.9 10.6-.4-4-1-8-1.5-12 4.7-13.3 12-25.5 18.1-38.2a91.827 91.827 0 0 0 6.9-18.3c1.5-6.2 2-13.2 3.7-19.1.2-.6.3-1.2.5-1.8.08-.189.115-.395.1-.6l3.2-.2h2c-1.1 8.6-.9 17.3-.9 26s-1.6 17.2.4 25.3c2 8.1 3.9 13.3 7 19.3.4.9.9 1.7 1.3 2.6l-3.5.9ZM416.3 592.7a3.598 3.598 0 0 0 4.6-2.5 3.713 3.713 0 0 0-.67-2.935 3.706 3.706 0 0 0-2.63-1.465c-1.6-.1-3.9 1.6-3.4 3.2a3.301 3.301 0 0 0 2.1 3.7Zm1-4.6a1.406 1.406 0 0 1 1.068.478 1.409 1.409 0 0 1 .332 1.122 1.389 1.389 0 0 1-.615.914 1.414 1.414 0 0 1-1.085.186 2.2 2.2 0 0 1-1.1-1.2c.4-.5.6-1.3 1.4-1.5ZM411.1 689.2a3.5 3.5 0 0 0 1.5 2c2.6 1.7 7-.4 7.8-3.5.8-3.1-1.2-6.6-4.4-6.9-3.2-.3-6.1 4.8-4.9 8.4Zm4.5-5.7c1.6 0 2.6 1.9 2.3 3.3-.3 1.4-4.1 3.7-4.9 1-.8-2.7.8-4.2 2.6-4.3ZM404.9 776.3a1.494 1.494 0 0 0-.1.7c-.5 2.8-.5 5.5 2.6 6.8 5.1 2 9.5-2.4 10.1-7.1.2-2.1.1-4.9-1.5-6.5a5.505 5.505 0 0 0-5.9-1.1c-3 1.1-4.7 4.2-5.2 7.2Zm9.4-4.4c1.1 1 1.1 2.9.9 4.3-.4 3-2.5 5.8-5.8 5.5a2.298 2.298 0 0 1-2.3-1.9 8.204 8.204 0 0 1 2.8-7.5c1.1-1 3.2-1.7 4.4-.4ZM399.3 270.4c-.1-.6-1-.4-1 .2.1 9.7-2.8 18.8-4.2 28.4-1.4 9.6.4 15.4 4.3 22.9 2.1 4.1 4.4 8.1 5.4 12.6s.2 10-.5 14.9c-1 7.4-2.1 15 1.9 21.9.7 1.2 2.3.1 1.8-1.1-3.8-8.7-.7-17.8.2-26.8.9-9-1.2-14.2-4.7-21.1-4.5-8.8-6.4-16.6-5.2-26.5 1.2-9.9 3.4-16.8 2-25.4ZM402.7 865.9c2.4-3.4 5.8-6.9 7.4-10.9.4-1-1.1-1.5-1.8-1a28.028 28.028 0 0 0-4.1 4.9l-4 5.5c-1.1 1.5 1.4 2.9 2.5 1.5ZM379.4 640.5l-.5.3c-2.3 1.9-2.3 5.9.3 7.4a4.398 4.398 0 0 0 6.2-2.4c1.1-3.4-2.7-7.2-6-5.3Zm4.1 4.9a2.704 2.704 0 0 1-3.3.5 3 3 0 0 1-.7-1.1 3.198 3.198 0 0 1 .6-1.5 1.999 1.999 0 0 1 3.4 2.1ZM371.7 536.5c-6.4 14.5-3.2 29.6 6.1 42 2.6 3.3 5.5 6.9 6.5 11.1 1 4.2-1.8 8.9-3.2 13.4-2 6.1-.1 13.3 5.8 16.5 1.2.6 2.1-.6 1.7-1.7-1.9-4.5-5.8-7-4.6-12.5.8-3.4 2.7-6.4 3.2-9.9.8-5.8-1.7-10.6-5-15.1s-8.6-11.7-10.4-19.2a42.09 42.09 0 0 1 1.8-23.8c.4-1.1-1.4-1.9-1.9-.8ZM363.4 182.4a28.688 28.688 0 0 0-1 11c2.2 18.5 16.7 34.1 12.4 53.5a61.386 61.386 0 0 1-5.5 14.8c-2.1 4.4-4.8 8.7-5.7 13.6-1.7 8.9 1.5 19 4 27.4 6 20.5 15.7 41.3 11.6 63.1-2.1 11.1-10.2 19.5-12.7 30.3s2.9 20.1 8.6 28.5a1.1 1.1 0 0 0 1.8-1.1c-6.4-10.5-10.8-21-4.7-32.8 4.2-8.2 9.6-15.4 11.5-24.6 4-19.6-3.4-39.2-9.6-57.5-3.2-9.4-7.9-21-6.9-31.1.5-5.6 3.8-10.5 6.1-15.5a70.78 70.78 0 0 0 4.9-13.3c4.2-18-6.5-32.5-11.3-49.1a34.294 34.294 0 0 1-1.1-15.6c.123-.319.191-.658.2-1 1.1-4.7 3.1-9.1 3.1-14.2s-1.6-11.6-2.5-17.2c-.9-5.6-1.6-13-3.6-19.2-.4-1-2.1-.9-2.1.3 0 11.5 4 22.9 4.8 34.3.4 5.4-1.2 10.3-2.3 15.4ZM338.3 325.9c4.9 7.4 9 15 9.7 24.1.7 9.1-2.2 17.4-1.4 26.2a1.001 1.001 0 0 0 1.9 0c-.4-8.1 2.6-15.6 3.2-23.6a42.4 42.4 0 0 0-3.7-19.8c-2.9-6.1-7.2-11.4-10.5-17.3-4.3-7.6-4.7-14.7-2.5-23 3.8-14 10.9-28 10.6-42.8-.3-14.8-10.9-26.3-11-40.6-.1-14.3 9.3-29.2 2.7-43.3-.4-.9-2-.2-1.6.7 4.7 13.9-3.7 27.1-4.2 41-.5 13.9 9 24.7 11 38 2.4 16.4-6.8 30.9-11.8 45.9-2 6-2.9 12.2-1.1 18.4 1.8 6.2 5.3 11 8.7 16.1ZM333.2 690.5l.3.5a2.1 2.1 0 0 0 2.5.8 1.998 1.998 0 0 0 1.2-2.4c-.1-.2-.1-.2-.1 0v-.5a2.204 2.204 0 0 0-.5-.8 2.1 2.1 0 0 0-2.5-.9 2.097 2.097 0 0 0-1.2 2.5c.1.3.1.6.3.8ZM315.7 695.9c2.295.683 4.748.613 7-.2h.2c.4-.2.7-.4.6-.8-.1-.4-4.4.2-5.1.2a3.4 3.4 0 0 1-1.8-.3 1.702 1.702 0 0 1-.8-1.6c.2-.7 1.2-1 2-1.1l4-.7c.356.008.706-.097 1-.3a1 1 0 0 0 .5-.8 7.704 7.704 0 0 0-4.2-.7c-.6 0-1.3.1-1.6-.3-.3-.4-.1-1.4.6-1.7a5.012 5.012 0 0 1 2.1-.2 5.393 5.393 0 0 0 2.5-.9c.4-.2-1.7-1-2-1.1a8.736 8.736 0 0 0-2.2.5c-1.6.6-4.8 3.2-2 4.4a7.905 7.905 0 0 0-2.5 1.5 2.404 2.404 0 0 0-.7 2.6 3.202 3.202 0 0 0 2.4 1.5ZM323.2 576.7a10.595 10.595 0 0 0 3.175-12.667 10.605 10.605 0 0 0-2.775-3.733c-3.9-3.3-11.2-3.5-14.2.9a10.202 10.202 0 0 0-2.2 11.6 10.695 10.695 0 0 0 11.744 5.798 10.69 10.69 0 0 0 4.256-1.898ZM310.1 564h.2c3.4-2 6.8-4.4 10.8-1.9a7.804 7.804 0 0 1 3.035 9.293 7.789 7.789 0 0 1-1.935 2.907 8.098 8.098 0 0 1-12.7-2.6 7.903 7.903 0 0 1 .6-7.7Z"/><path fill="#FFFFFF" d="M552.2 943.8c13.5-5.3 27.7-8.1 42-9.9 14.3-1.8 28.3-1.8 42.3-4.5 1.1-.2 2.2-1.4 3.2-3.2 2.7-4.9 4.6-14.1 5.7-16.8 2.9-7.5 6.1-15 8.8-22.6 1.7-4.7 2.6-10.4 5.6-14.5a1.1 1.1 0 0 0 .2-.8 19.486 19.486 0 0 1 4.1-4c4.4-3.3 9.1-6.2 13.4-9.6 4.3-3.4 9-7.7 13.4-11.7 6.1-5.6 15.1-13.2 12.9-22.6-.9-3.8-2.4-6.9-2.9-10.9a.412.412 0 0 0-.1-.3c-.3-2.9-1.1-14.9-2.6-15.5l-17.6-6.6a47.374 47.374 0 0 1-12.8-7.2c-11.8-8.7-21.3-19.8-31.1-30.7-4.6-5.2-10.7-7.5-16.8-10.6-6.1-3.1-11.4-5.6-16.4-9.4-3-2.2-6-4.9-9.8-5.5-3.8-.6-5.9 1.4-8.8 4-2.9 2.6-6.9 6.2-10.5 9.1-1.8 1.5-3.6 3-5.5 4.4-1.9 1.4-5.7 3.4-5.7 3.8a6.107 6.107 0 0 0-1.3-3.3c6.7-7.1.3-17.3-4.9-23.5a35.476 35.476 0 0 0-4.7-4.8 39.622 39.622 0 0 0-1.7-10c-1.8-5.2-5.1-13-10-17.6 2.5-7.2 1.1-17.7.8-23a31.346 31.346 0 0 0-1-6 13.593 13.593 0 0 0 4-3.5c3.5-4.5 2.9-9.3.8-14.2a103.561 103.561 0 0 0-9.6-17.2c6.5-7 5.7-19.4 5.4-28.2-.1-2.2 0-4.8-.3-7.4a8.27 8.27 0 0 0 2.1-.6c4.6-1.9 7.8-6.5 9.7-11a49.006 49.006 0 0 0 3.5-16c1.5-.3 2.7-1.9 3.4-3.5.435.293.905.528 1.4.7v.8c.1 5.6 1.5 11.4 2.6 16.7 1.5 7 3.4 13.9 5.5 20.7 4.3 13.8 9.3 27.3 14.6 40.7 4.5 11.5 9.2 22.9 14.3 34.3 2.7 6.2 5.5 12.4 8.4 18.5l4.4 9c.7 1.3 1.6 2.6 2.3 4a20.382 20.382 0 0 0 1.8 4 5.093 5.093 0 0 0 3.7 2.1l4.6.9c3.5.7 7.1 1 10.7 1.8 6.7 1.6 13.4 3.7 20 5.7s13.9 4.2 21 5.2c4.8.7 11.9 2.5 16.3-.3s3.7-9.7 3.6-14.1c-.2-7.8-1.4-15.6-1.1-23.5.3-7.9 2.5-13.3 3.3-20.1.8-6.8-2.5-11.2-7.5-15.4-5-4.2-12.2-10.7-18.6-15.8-6.4-5.1-13.8-11-20.4-17a223.541 223.541 0 0 1-26.8-29c-4.1-5.3-7.9-10.8-11.5-16.4-2.7-4.1-5-8.6-7.7-12.7a7.692 7.692 0 0 0 4.5-5.6c.8-2.8.6-6.9-1.7-9a14.5 14.5 0 0 0-3.8-2.2c-.5-.2-4.5-1.4-4.6-1.1 3.2-6.6 4.5-14.7 6.3-21.6 2.3-8.7 4.4-17.4 6.1-26.2 3.2-16.3 5.2-33 4.5-49.7-.7-16.7-5.1-33.7-7.9-50.4-2.8-16.7-4.9-35.3-6.6-53 0-.6-.1-1.2-.1-1.8l2-.4.9-.4c6.3-1.1 11.6-7.1 14.6-12.3a77.58 77.58 0 0 0 8.4-22.9l.2-.4-2.5-.7c-2.8 5-4.5 10.6-6.8 15.9l-1 2.2a33.96 33.96 0 0 1-2 3.8l-1.5 2.1-1.5 1.9-1.8 1.7-.9.8-2 1.4-2.2 1.3-2.4 1.2c-.1 0-.2-.1-.4 0h-.4l-1.1.2c-.7-7.5-1.3-15-1.9-22.5-.3-4.4-.5-8.9-.8-13.4 7.1 4 20.1 4.6 27.3.9l-.6 2.5 2.5.7c1-3.5 2.1-7 3.1-10.6a1.103 1.103 0 0 0 .5-1.3.602.602 0 0 0-.1-.4c1.6-5.6 3-11.2 4.4-16.9 2.8-11.7 5.7-23.8 6.7-35.9.1-2.4.2-4.8.2-7.1v-3.2a98.842 98.842 0 0 0-.1-10.9 48.543 48.543 0 0 0-3.2-13l-.7-1.8a1.194 1.194 0 0 0 1.2-.4c3.3-3.6 6.5-10.6 7.8-17.6 1.7-8.9.3-17.9-7.8-20.6 2.7-10.8 2.4-22.8 3.4-33.7 1.2-14 2.5-28 3.7-42 2.3-5.3 4.7-10.6 7.4-15.7.8-1.6 4.2-5.9 2.5-7.8-1.7-1.9-3-.3-3.9.5l-.2.2c.3-.7.6-1.4.8-2 .2-.6 1.1-3.3-.2-4.9a.899.899 0 0 0-1.3 0l-1.7 1.7c-1.3 1.3-2.4 2.7-3.6 4 1.2-3.3 1.8-6.5-.1-7.3-1.9-.8-3.5 1.4-4.4 2.5l-.8 1c1.1-4.1 1.1-7.7-2.1-7.2s-6.2 5.6-7.5 8.2a50.424 50.424 0 0 0-3.1 7.6c-.2-5.4-1.8-11.3-7.1-7.4-3.5 2.5-4.8 9-5.7 12.9-1.4 6.2-2.2 12.5-3.2 18.7-2.3 13.3-4.8 26.7-8 39.8a93.73 93.73 0 0 1-6.5 18.9c-13-2.7-20.2 9.1-23.8 20.1h-.1a262.86 262.86 0 0 0-1.8 6.6l-.3 1.6c-1.5 1.2-3.1 2.3-4.7 3.4-1.9-1.4-2.9-4.1-3.3-6.6-.4-2.5.7-2.1 1-3.2 6 .4 10.3-8.3 9.1-13.7a3.994 3.994 0 0 0-1.9-2.6v-.2a.898.898 0 0 0 0-1.1 1.8 1.8 0 0 0-1.7-.9l.4-.6a17.605 17.605 0 0 0 3.2-7.7 20.31 20.31 0 0 0 .1-6.5c-.4-2.8-1.6-5.2-2.6-7.7s-2.3-5.4-1-8.5c1.3-3.1 2.1-2.8 3-4.3 3.9-6 2.5-13.2 0-19.6-.6-1.6-1.3-3.1-1.8-4.8a9.986 9.986 0 0 1-.3-3.8c.1-.4.1-.8.2-1.2 3.3-6.3 5.8-14 5.4-21.2-.4-7.2-4.7-13.1-10.3-17.4-5.6-4.3-12.8-7.2-20.2-6.6-2.624.06-5.195.747-7.5 2-4.4 2.4-7.4 5.6-12.6 2.8-3.1-1.7-7.6-2.8-7.2 2.2.1.7 2.5 2 .8 2.9.2-.1-2-1.5-2-1.6a3.901 3.901 0 0 0-4.2 1.2c-1.1 1.3-.9 3.1-.5 4.6.8 3.8 3 6.7 2.7 10.9v.8c-.077.26-.11.53-.1.8-.7 4-2.5 7.8-3.7 11.6a30.608 30.608 0 0 0-1.1 12.8 36.508 36.508 0 0 1-2.1 16 43.389 43.389 0 0 0-2.9 11.8 26.5 26.5 0 0 0 6.4 19.1l.9 1 1 .9c-.4-.3-2.7.9-3.1 1.2a7.208 7.208 0 0 0-2.5 2.4c-1.2 1.9-1.2 4.3-1.3 6.5v1.5c0 1.8-.1 3.7-.1 5.5.1 3.7.6 8.1 3.9 10.3a9.39 9.39 0 0 0 8.5.4v.2a9.672 9.672 0 0 0 1.4 3.3c.6 1 1.9 2.2 1.6 3.5-.3 1.3-1.1 1.5-1.4 2.1a10.896 10.896 0 0 0-1 2.5 10.983 10.983 0 0 1-.2 1.8c-.1.2-1.3 1.1-1.6.9-8.2-5.3-19.7-4.5-28.6-1.4-4.6 1.6-9.8 5.2-11 9.9-4.1-4.2-8.1-8.2-11.3-13.4a191.693 191.693 0 0 1-9.9-18.4c-7-13.9-14.1-27.8-19.9-42.2a1.403 1.403 0 0 0-1.7-.7c1.3-5 3-10.1 3.6-15.3.4-3.2 1.6-7.8-.4-10.5a1.304 1.304 0 0 0-1.3-.3c-2.4.3-3.9 3.2-4.8 5.2-.9 2-.6 1.8-.9 2.7-1.3 3.6-.4 2.4-1.4 1.4-1-1-1.6-3.8-2-5.2-1.1-3.2-2.3-9-5.2-11-2.9-2-3.7 4.1-3.4 6.2.3 2.1.6 4.1.7 6.2.1 2.1-.4 5.5-2.5 1.8s-3.9-8.3-6.9-10.3c-5.9-4-3.3 7.1-2.4 9.2.9 2.1 1.8 3.3 2.3 5 1.2 4.3-3.3-.5-4.3-1.7s-3.1-5.9-5.6-6.4c-7.1-1.5-.2 10.3.7 11.8a46.822 46.822 0 0 1 2.9 3.7c-.2-.3-3.5-2.4-3.8-2.6-2-1.7-3.9-5.1-6.7-5.1-5.5-.1-1 6.4.5 8.2 6.8 8.1 14.8 15.2 19.2 25.1.152.279.401.492.7.6 3 12.1 8.3 24.1 13 35.5 4.7 11.4 10.8 24.7 16.3 37 2.2 4.8 4.5 9.6 8.8 13 4.3 3.4 9.6 5.2 15.1 6.2 13.6 2.3 27.8 2.5 41.6 1.7a30.175 30.175 0 0 0 1 6.8c-.1 1.3-.3 2.6-.4 4-.1 1.4.1.2.1.3 0 .1-.1.2-.1.4.5 4 3.1 7.9 6.7 10.6-2.3 5-3.8 11.1-.8 16l.4.5a12.198 12.198 0 0 0-2.7 3.5 10.992 10.992 0 0 0-1.2 6.2c-6.6 3.8-23.6 15.6-15 20.9l-32.8 37.6c-10.5 11.9-22.3 23.3-31.8 36.1s-9.5 26.9-9.5 41.7c0 14.8.7 32.2.8 48.3h-.6c-15.6 4.5-31.4 3.8-47.2 1.3-7.4-1.2-14.6-2.7-21.9-4.3l-.9-.2c-6.7-1.6-13.6-3.7-20.4-4.4-6.8-.7-9 1.6-12.8 5.3a57.884 57.884 0 0 1-17.8 11.5c-3.6 1.6-10.2 2.8-12.2 6.8a4.794 4.794 0 0 0-.267 3.713 4.79 4.79 0 0 0 2.467 2.787c3.8 4.8 8.1 8.9 12.1 13.6 6.9 7.9 3.5 14.7-1.2 22.6-1.8 2.9-6.3 9.6-4.4 13.3 1.9 3.7 10.1 2.1 13.3 1.6 14.8-2.4 29.4-7.8 43.7-12.4 14.3-4.6 28.8-8.3 43.2-12.5 18.3-3.6 36.4-8.1 54.5-12.3 6.4-1.5 17.6-1.8 19.8-9.6 2.2-7.8-2.2-19.3-5.7-26.9.2-12.8.1-25.7-.1-38.6-.2-12.9-3.5-29.7 6.2-40.3 7.6-8.4 18.9-14.3 28.4-20.2 9.5-5.9 21.2-13.2 31.7-20l.3-.2 1.9.6c4.7 1.7 12 3.5 14.2 8.4 2.2 4.9 2.3 9.9 3.4 14.5l3.6 15.1c2.3 10.1 4.7 20.1 7 30.1 4.7 20.8 7.4 41.3 5.7 62.7-1.7 21.4-4.4 40.2-6.9 60.3h-1.8c-4.9 0-5.1 3.4-5.3 7.4 0 1.1-.2 2.4-.2 3.6-2.3-1.4-5.3.9-6.4 3.2-5.9-2.4-14.1 8.9-17.6 12-3.5 3.1-9.6 6.6-10.2 12.2a10.389 10.389 0 0 0 .69 4.455 10.383 10.383 0 0 0 2.51 3.745c-3.7 2-6.1 6.4-8.5 9.7l-8.2 11c-1.6 2.2-4.2 4.8-4 7.8.2 3 5.7 9.4 9.1 12.1-1 3-.6 6.4.2 9.5a95.469 95.469 0 0 0 7.1 19.6l.6 1.3c-2.5 1.9-3.8 5-4.4 8.1-1.3 6.2-1.4 13-1.8 19.3-.2 3.8-.1 8.2 3.4 10.6.877.519 1.819.923 2.8 1.2-2.3 5.6-1.6 12.9.5 18.3s6.1 12.9 11.5 17.4a32.593 32.593 0 0 0 3.4 11.7c2.1 4 5.4 8.4 10.1 9.4a9.804 9.804 0 0 0 3 .1c.078.666.281 1.31.6 1.9l.3.4a4.996 4.996 0 0 0 1.9 1.9l.9.4a9.704 9.704 0 0 1-1.5 1.9c-2.7 2-6.3.6-9.2-.3-5.1-1.6-8.6-.4-13.2 1.3-2.8 1-5.1 2.8-7.8 4.3s-5.8 2.9-8 5.4l-1.6-.3a48.417 48.417 0 0 0-10.5-3c-5.1-1.2-10.2-2.6-15.3-4-5.1-1.4-9.5-.5-13.3 2.6l-.7.4-.2.2-.7.5c-8.3 7-14.7 17.1-22 25.3-3.8 4.4-7.4 9.5-11.9 13.2l-1.6 1.4-3.5.8c-8.6 1.4-17.5 1.7-23.2 9.3a116.388 116.388 0 0 0-8 13c-1.8 2.9-3.5 5.8-5.2 8.7l-8.6 14.6c-8.8 8.6-16.7 18.2-26.1 25.9-2.3 1.9-6 4.2-5.3 7.2-.5 16.4 5.9 32.5 6.5 48.8.1 3.4.4 6.7.8 10l-.7.2a12.502 12.502 0 0 0-17.7-4.3c-2.8-1.8-6.2-1.1-9.5-.8a97.141 97.141 0 0 0-12.4 2.4c-1-26.4 16.4-51 22.5-76.8 7.2-30.9-1.7-62.9-15.8-90.5-12.5-24.5-31.7-47.3-37.4-74.4 9.4 6.2 22.8 5.3 33.5 4.5a87.695 87.695 0 0 0 23.3-4.7c3.5-1.3 9.8-2.9 8.6-7.8-1.2-4.9-8.4-7.2-12.4-8.8a56.701 56.701 0 0 0-19.5-3.7c-12.4-.2-25.4 3.5-34.8 11.9-.2-1.6-.3-3.2-.4-4.8-.5-15.8 3.3-31.4 6.2-46.9 1.6.9 3.4.9 5.3 1 4.5.3 9.018.2 13.5-.3a68.55 68.55 0 0 0 11-2c1.7-.5 4.2-.9 4.9-2.9 1.9-5.1-7.7-6.5-10.6-7-7.3-1.3-15.4-1.1-22.4 1.6 1.9-12.5 2.7-25.1-.3-37.7-4.2-17.3-14.6-32.2-21.1-48.6-7.5-18.7-7.6-38.1-3.5-57.6.3-1.2-1.1-1.5-1.9-1.2-.8.3-2 1.9-2.6 2.7a40.537 40.537 0 0 0-4.1 6.6 49.441 49.441 0 0 0-4 10.5 66.098 66.098 0 0 0-1.1 22.6c1.5 15.3 6.4 29.9 10.1 44.7 4.5 17.9 5.5 35.4 4.2 53.7-.9 12-2.3 23.9-3.3 35.9-4.8-1.2-10.2-1-15.1-1.2-4.9-.2-9.3-.3-13.8.9-3 .9-9.1 3.4-12.5 6.8a.105.105 0 0 0-.029-.071.105.105 0 0 0-.071-.029l-.7-.2c-4.8-1.3-9.6-2.3-14.4-3.2-2.6-.5-5.6-1.4-7.6.6s-.7 6.1 2.3 7.9a19.992 19.992 0 0 0-5.3 3 1.599 1.599 0 0 0-.6 2c2.2 3.1 5 3.4 8.5 2.6l3.2-.7a81.827 81.827 0 0 0 13.1-4.8h.1c1.2 2 3.9 2.6 6 3.3a48.694 48.694 0 0 0 13.5 2.5c6.5.4 16.4.1 22.6-3.7v.9c-.5 30.9 10.1 58.8 22.1 86.8 12 28 24.7 55 23.5 85-.7 18.9-9.2 36.4-10.5 55.2-.9 13.9 1.2 27.7 4.5 41.2 1.4 5.8 3 11.6 4.8 17.3a15.894 15.894 0 0 0-6 2.1 112.425 112.425 0 0 0-2.6-17.4c-.4-1.3-.7-2.7-1.1-4-2-7.3-5.6-13.7-9.3-20.2-4.6-8.4-7.7-16.5-5.1-26.2 2.6-9.7 6.5-17 9.5-25.4 3-8.4 6-15.9 6.5-24.3s-1.4-14.5-4.1-21.3c-2.7-6.8-6.6-13.7-9.3-20.8a83.002 83.002 0 0 1-4.9-27.5c0-1.7-2.7-1.7-2.6 0v7.1a.898.898 0 0 0-.4.6c-1.8 7.3.5 15.2 2 22.4a76.419 76.419 0 0 1 1.7 26.5 114.553 114.553 0 0 1-6.6 25.9c-2.8 7.8-6.9 15.1-9.4 23.1-4.6 14.8 1.8 27.5 11 39 4.3 5.4 8.9 10.5 12.6 16.4-7.6-3-18.1-1.1-24.7 2.1-1.7.9-3.6 1.8-5.5.8a16.409 16.409 0 0 1-2.4-2.2 16.513 16.513 0 0 0-6.3-2.6c-5.9-1.3-11.6.5-17 2.4a1.8 1.8 0 0 0-.7.5 1.198 1.198 0 0 0 .65 1.64c.207.08.432.101.65.06 5.9-1.2 12.9-2.9 18.7-.3l1 .5a13.712 13.712 0 0 1 2.3 1.7c1.7 1.6 3.1 3.2 5.9 2.5 2.8-.7 4.1-2.1 6.2-2.9a30.801 30.801 0 0 1 9-1.9c5.2-.3 9.7 1.5 14.7 2.3a77.43 77.43 0 0 1 5.2 14.9l.9 3.5c.7 2.9.3 5.8 0 8.7a1.105 1.105 0 0 0 .1 1c.4.4 1 .2 1.5-.1.5-.3 2.5-1.6 3.8-2.3a30.76 30.76 0 0 1 5.2-1.4 21.607 21.607 0 0 1 11-.1c6 1.7 9.6 6.6 15.1 8.7 8.2 3.2 15.9-4.6 23.6-5 .7 4.8 2.2 8.9 6 9.4 9.3 1.2 18.3 3 27.5 5.1 9.2 2.1 20.4 5 30.8 5.9 8.603.568 17.24.334 25.8-.7 7-.7 15.2 1.2 22-.6a42.969 42.969 0 0 0 10.8-4.8c8.4-5.2 16.3-12.6 23.7-17.6 12.8-8.6 25.8-17.8 40.1-23.5Zm119.7-225.6h-.7l-2.3-.5-.4-.2-2.6-.6-.9-.2-1.8-.5-1-.3-2.2-.6-2-.6-7.1-2.2c-5.6-1.6-11.2-3.3-16.9-4.4-2.4-.5-6.5.3-7.8-2.2-2.2-4.2-3.7-8.9-5.4-13.3-1.7-4.4-3.4-9-4.8-13.6a104.861 104.861 0 0 1-4.4-22.3c0-.9-.1-1.9-.1-2.8 0-.9-.1-2.1-.1-3.1 4 1.3 7.1 5.7 9.7 8.6l8 8.8 8.5 9.5c2.9 3.2 5.7 6.4 8.6 9.5 5.7 6.4 11.5 12.7 17.3 19l4 4.7c.9 1.1 1.8 2.2 2.8 3.2l2.8 3.2 1.5 1.5-2.7-.6Zm20.4-48.4a70.212 70.212 0 0 0-1.4 7.5 57.092 57.092 0 0 0-.7 8.4c0 6 .6 12.1.6 18.1a67.714 67.714 0 0 1-.7 10.1c-8.4-10.8-17.1-21.3-25.8-32s-15.9-19.7-21.9-30.9a78.373 78.373 0 0 1-4.2-8.8c-.6-1.6-1.8-3.4-.1-4.8h.2l.4-.3a2.91 2.91 0 0 1 1.4-.3h.8l2.6.5 1.3.3 2.3.8c1.914.799 3.783 1.7 5.6 2.7 2.8 1.7 5.6 3.6 8.3 5.4l1.1.6 7.8 5.1 7.8 5.2c3.2 2.1 6.2 4.4 9.4 6.5 1.2.9 2.5 1.7 3.8 2.5l2 1.1-.6 2.3Zm-72.3-79a216.498 216.498 0 0 0 26.3 29.4c7.5 6.9 15.5 13.4 23.4 19.9 3.6 3 7.2 6.1 11 8.9 1.9 1.4 3.8 2.8 5.8 4.1 2 1.3 5.7 4 6.5 7 .33 1.238.465 2.52.4 3.8-5.2-4.3-11.2-7.9-16.7-11.6-5.5-3.7-12.6-8.3-19-12.2-6.4-3.9-11.3-7.3-17.9-7-4.8.3-7.3 3.2-5.9 7.9 3.9 13.3 13.5 25.5 21.9 36.2 10.7 13.5 21.8 26.9 33.1 39.9l.3.3c-.7 1.3-1.9 1.9-4.3 2-2.4.1-2.6 0-3.9 0-2-3.1-4.7-5.7-7.1-8.4l-10.1-10.9c-6.2-6.7-12.4-13.5-18.7-20.2l-18.8-20.2c-4.7-5-8.9-11-16.2-11.9-.7-.1-1.3.7-1.3 1.3-.5 20.5 7.2 39.5 15.3 58a29.978 29.978 0 0 1-7-1.3c-1.5-5.7-4.3-11.1-6.6-16.4-2.3-5.3-5.4-11.9-8.1-17.8-5.3-11.8-10.5-23.5-15.3-35.4-4.8-11.9-10.3-25.7-14.6-38.8-2.1-6.5-4-13-5.6-19.7-1.6-6.7-1.9-11.9-3.2-17.8a18.64 18.64 0 0 0 3.4.3h5.1a33.833 33.833 0 0 1 4.4-.1l11.3.2h11.3l2.3-.2c3.9 11 11.8 21.6 18.5 30.7Zm6.1-295.2c-7.6 3-19.5 4.5-27.4.6h-.3l-.3-.2c.1-.3.1-.6.2-.9.1-.3.5-1.9.6-2.9a28.496 28.496 0 0 0 11.7 2.4c4.3.2 11.1.4 16.1-1.2l-.6 2.2Zm10.9-47.5c-2.5 14.2-5.9 28.3-9.5 42.3a48.209 48.209 0 0 1-6 .7 68.118 68.118 0 0 1-9 .7 34.183 34.183 0 0 1-12.4-1.8h-.8c.2-1.4.4-2.8.5-4.3.3-3.6.5-7.2.7-10.5-.019-.635.014-1.27.1-1.9.2-2.6.3-5.2.4-7.9.1-2.7.2-7.8.2-11.8 0-1.3-.1-2.6-.1-3.9 0-1.3-.3-5.2-.6-7.8 0-.3-.1-.7-.1-1 5.3 3.3 12.6 3.5 18.5 3.3 5.9-.2 13.7-.6 19.4-3.8-.4 2.4-.8 5-1.3 7.7Zm1.8-12a25.297 25.297 0 0 1-8.4 3.5l-1.8.3c-3.212.516-6.451.85-9.7 1a42.195 42.195 0 0 1-18-2.7l-1-.4a40.31 40.31 0 0 0-1.7-6.2l1.3.4a45.592 45.592 0 0 0 12.9 1.4h1.4l5.6-.2h1.3l5.5-.3h1.9a42.286 42.286 0 0 0 .5 7.1l1.8-.3c.1-.6.3-1.2.4-1.8.1-.6.3-2.3.5-3.6-.017-.602.017-1.204.1-1.8a26.581 26.581 0 0 0 7.9-2.3c-.1 1.9-.3 3.9-.5 5.9Zm.5-23c0 .8.1 1.6.1 2.4 0 .8.1 1.9.2 2.8v2.9c0 1.8 0 3.7-.1 5.6a25.664 25.664 0 0 1-6 2.3l-2.1.4v-2.3c-.1-2.2-.3-4.5-.5-6.7s-.3-3.1-.5-4.7a2.895 2.895 0 0 1-.2-.9c-.2-.7-.3-1.3-.5-1.9l-.6-1.8a16.303 16.303 0 0 0-2.9-4.9l-.5-.2h-.6a1.01 1.01 0 0 0-.4.7v.3c.7 2.1 1.4 4.1 1.9 6.1a44.205 44.205 0 0 1 1.5 10.4c.1 1.1.1 2.1.1 3.2s-.1 2-.1 3.1l-2.3.2-4.7.2h-7.8a98.103 98.103 0 0 1-10.9-.8l-5.4-1.2c-.5-1.3-1.1-2.6-1.7-4-.6-1.4-1.3-2.6-2-4h.3a11.823 11.823 0 0 0 1.9-1.1 43.686 43.686 0 0 0 6.9-6.1c1.3-1.4 2.5-2.9 3.8-4.2l.7-.9c4.5-4.7 8.9-9.6 13-14.6l3.2-3.9c5.3.4 8.4 4.6 11.2 9a32.304 32.304 0 0 1 5 14.6Zm-44 60.3-1.2-5.4a24.902 24.902 0 0 0-1.5-4.1c-1-1.9-2.1-3.7-3.2-5.5-1.1-1.8-2.4-3.6-3.5-5.5a91.67 91.67 0 0 1-8.7-21.3 84.799 84.799 0 0 1-2.5-11.1c-.4-1.9-.6-3.8-.9-5.8 0-.3-.1-.7-.1-1a7.57 7.57 0 0 1-.3-2.1c.009-.375.076-.746.2-1.1.111-.182.18-.387.2-.6l.5-.9a9.881 9.881 0 0 0 1.1-1.7l.6-.8c.8-1.5 1.5-3.1 2.2-4.7.7-1.6 1.2-3.3 1.7-5a42.23 42.23 0 0 0 1.9 7.2c.3 1 .7 1.9 1 2.8l1.2 2.8c.6 1.4 1.3 2.8 1.9 4.1 2.2 4.6 4.6 9.1 6.6 13.7.4.9.8 1.8 1.1 2.7.195.456.362.924.5 1.4a35.238 35.238 0 0 1 1.3 4.3c.52 1.901.888 3.841 1.1 5.8.2 2.3.4 4.7.5 7.1.1 2.4.1 2.4.1 3.6.1 4.7 0 9.5-.3 14.2 0 1.2-.1 2.4-.1 3.6l-.3 4.4c-.2 1.4-.3 2.9-.4 4.4-.2-1.9-.4-3.7-.7-5.5Zm-35.9 8.4c-3.7-.6-7.5-1.3-11.1-2.2a131.825 131.825 0 0 1-18.7-6.1l-2.6-1.1a35.974 35.974 0 0 1-4.4-2.2l-.6-.5a12.867 12.867 0 0 1-1.7-1.6l-.5-.6a7.493 7.493 0 0 1-1.3-3.9 22.786 22.786 0 0 1 1-8.1 12.992 12.992 0 0 0 6.9 1.8 10.092 10.092 0 0 0 4.1-.9h.3l.3-.2a.908.908 0 0 0 .3-.7 1.099 1.099 0 0 0-.8-1.3 26.228 26.228 0 0 0-2.7-.6l-1.3-.3a10.997 10.997 0 0 1-2.6-.6c-.9-.194-1.773-.496-2.6-.9l-1.2-.6c-3.5-2-5.7-4.9-7.7-8.2.2-.9.5-1.8.7-2.7.2-.9.6-1.7.8-2.5a84.599 84.599 0 0 1 17.2-30.1l1.7-1.9a29.763 29.763 0 0 0 2.1 5.2 28.272 28.272 0 0 0 5.1 6.7 22.381 22.381 0 0 0 7 4.6 17.994 17.994 0 0 0 6.1 1.3 19.575 19.575 0 0 0 4.8-.5 23.295 23.295 0 0 0 12.5-6.9l.3 2.2c.5 2.9 1 5.9 1.6 8.8l.9 4.3c.7 2.9 1.5 5.7 2.5 8.6.188.714.422 1.416.7 2.1a73.137 73.137 0 0 0 3.5 8.3 28.12 28.12 0 0 0 2.1 3.8c2.4 3.8 5.1 7.4 7 11.3a41.444 41.444 0 0 1 2.6 8.2c.7 2.9 1.1 5.8 1.6 8.7l-5.7.5-5.6.3h-2.9c-6.597.052-13.187-.45-19.7-1.5Zm-28.3-90.7c.087-.326.121-.663.1-1a7.806 7.806 0 0 0-.4-3.1 36.036 36.036 0 0 0-2-5.1 8.056 8.056 0 0 0-.8-1.6l-.5-.7a6.908 6.908 0 0 0-1.3-1.1l-.7-.3a5.6 5.6 0 0 1 1.5-1l.9-.4a4.097 4.097 0 0 1 1.8-.5 4.208 4.208 0 0 1 2.5.1 2.5 2.5 0 0 1 1.2.8 8.206 8.206 0 0 1 1.7 2.9 19.162 19.162 0 0 1 1.1 3.5c.108.426.175.861.2 1.3.1.4.1.7.2 1.1.02.436-.013.873-.1 1.3 0 .2-.1.3-.1.4a4.411 4.411 0 0 1-2.5 2.3l-.6.3-2.2.8Zm-3.8-.2h-1.6l-.7-.3-.6-.5-.6-.7a4.29 4.29 0 0 1-.4-.7 4.697 4.697 0 0 1-.6-1.5 8.703 8.703 0 0 1-.1-3.6l.3-1.5.3-.7c2.2-1.2 2.9 2 3.5 3.5.154.453.355.889.6 1.3.122.482.289.95.5 1.4.1.3.1.6.2.9.1.3.1 2-.8 2.4Zm5.9 2.1 1.5-.8a13.965 13.965 0 0 0 3.2-2.2l.4.6-.7.9a12.177 12.177 0 0 1-1.7 1.5l-.9.6-.7.2a12.87 12.87 0 0 1-2.1.6l-.6-.7 1.6-.7Zm6.3-.4.3.5.3.5-.6.6c-.66.524-1.363.992-2.1 1.4l-1.7.8-1.7.8-.3-.7a14.59 14.59 0 0 0 2.8-1.3 6.102 6.102 0 0 0 1.6-1.2 9.312 9.312 0 0 0 1.4-1.4Zm6 11.6.9-1.1.2.2a23.085 23.085 0 0 1-3.4 4.2l-1.2 1.3a9.441 9.441 0 0 1-1 1l-1 1.1-.6-.8a17.244 17.244 0 0 0 2.5-2.1l.7-.6 1-1.1 1.9-2.1Zm4.6 1.6 1 .4.9.2a8.32 8.32 0 0 1-.8 1.2l-.6 1.3-.3.7c-.2.5-.3 1-.5 1.5l-.3 1.6c-.1.6-.1 1.2-.2 1.7a18.556 18.556 0 0 0 .1 4.1l-2.3-1c.2-1 .5-2 .7-3 .8-2.9 1.4-5.8 2.1-8.8l.2.1Zm3.2 3.4c.1-.3.1-.6.2-.8.11-.561.177-1.129.2-1.7h.9c.2 3.3.9 10.1 3.6 11.6l.6.3a18.255 18.255 0 0 1-3.2.7h-3.1a38.484 38.484 0 0 1-.1-5.9c.1-.8.3-1.6.5-2.5.2-.9.3-1.2.4-1.7Zm7-.8.6 1.4.8 1.3 1.1 1.5a10.155 10.155 0 0 0 1.8 1.8l.5.3-2.3 1.7a12.78 12.78 0 0 1-2.5 1.5 3.105 3.105 0 0 0-.8-1.5l-.3-.5a6.072 6.072 0 0 1-.7-1.4 8.715 8.715 0 0 1-.5-1.5 12.23 12.23 0 0 1-.4-1.6 43.68 43.68 0 0 1-.9-5l1.3-.4 1.3-.5c.3 1 .6 1.9 1 2.9Zm7.2-10.5.8.7a22.792 22.792 0 0 0 6 3.6 45.36 45.36 0 0 1-2.3 5 4.179 4.179 0 0 1-1.2-.3 8.202 8.202 0 0 1-2.4-2.5c-1-1.2-1.9-2.5-2.9-3.8l1.1-1.3.9-1.4Zm9.1-2.8-1.5 4.8-1.8-.7-1.6-.9a21.941 21.941 0 0 1-3.2-2.1 28.294 28.294 0 0 0 1.6-3.6 27.21 27.21 0 0 0 3.5 1.6c.478.226.982.394 1.5.5l1.5.4Zm-8.9 12.1a8.96 8.96 0 0 0 1.6 1.8l.8.6h.4l-.9 1.5-2.1 1.5h-.3a7.093 7.093 0 0 1-2.2-1.3c-.1-.1-.3-.2-.4-.4a2.79 2.79 0 0 1-.9-1 18.082 18.082 0 0 1-2.8-5.3 22.404 22.404 0 0 0 3.4-2.7 29.789 29.789 0 0 0 3.4 5.3Zm-22.8 8.9a3.907 3.907 0 0 1-1-.8l-1-.8-.7-.8 1.4-1.9c.386-.664.82-1.299 1.3-1.9a23.517 23.517 0 0 0 3.2-5.2l.7.4a110.673 110.673 0 0 0-3.9 11Zm-1.2-13.3-2.5 2.4-1.4 1.1-1.8 1.3-.6-1.3a13.788 13.788 0 0 0 3-2.4 17.01 17.01 0 0 0 3.3-4.2c.342.606.744 1.175 1.2 1.7l-1.2 1.4Zm-1.1-4.8h-.1l-1.4 1.9a12.094 12.094 0 0 1-1.6 1.6l-1.4 1.2-.9.6-.9.4a5.64 5.64 0 0 0-.4-1.2 14.3 14.3 0 0 0 2.7-1.9 16.506 16.506 0 0 0 3.4-3.6l.6 1Zm-1.5-2.5a17.061 17.061 0 0 1-2 1.8l-1 .9-1.1.8-2 1.1c-.1-.5-.3-.9-.4-1.4l1.7-.5a9.4 9.4 0 0 0 4.6-3.1l.2.4Zm40.7-19.3c-.2.6-.3 1.2-.5 1.7l-.6 1.8-1-.2h-1.1l-2.5-.3-2.4-.4a45.4 45.4 0 0 1 1.2-5 15.7 15.7 0 0 0 4.5 1.8l1.8.6h.6Zm50.7 2.7a29.543 29.543 0 0 1-.5 5.3 27.017 27.017 0 0 1-1.6 4.8 13.308 13.308 0 0 0-4.7-2.5 95.16 95.16 0 0 0 6.5-8.8.401.401 0 0 1 .1.3.5.5 0 0 0 .2.9Zm5.1 18.9c-.194.423-.361.857-.5 1.3a44.268 44.268 0 0 0-3.2-6.1 26.037 26.037 0 0 0-2.5-3.1.1.1 0 0 1 .029-.071.103.103 0 0 1 .071-.029 10.52 10.52 0 0 1 2.8 1c.896.41 1.765.877 2.6 1.4a14.978 14.978 0 0 1 2.4 1.8l-.6 1.3a18.85 18.85 0 0 0-1.1 2.5Zm2.8-5.8c-2.2-2-5.5-3-8.4-3.4a4.29 4.29 0 0 0 .4-.7l.3-.8h1.3c2.8.1 5.1 1.6 7.7 2.5-.4.8-.8 1.6-1.3 2.4Zm2.1-3.9a9.026 9.026 0 0 0-2-1.4 9.916 9.916 0 0 0-2.4-.9l-2.4-.4a10.074 10.074 0 0 0-2.5.3l.6-1.6c.18-.52.314-1.056.4-1.6h3.4l2.9.2.9.2 1.9.3 1 .2a25.806 25.806 0 0 1-1.8 4.7Zm2.8-11.8a28.426 28.426 0 0 1-.5 5.1 12.32 12.32 0 0 0-3.9-.6 26.919 26.919 0 0 0-6.4.4c.18-.956.214-1.934.1-2.9l4.8-1.7 1.5-.4.8-.2 1.5-.4 2.1-1v1.7Zm-4-10.6 1.6 1.6a12.907 12.907 0 0 1 2.3 6.2h-1.6a4.51 4.51 0 0 0-1.6.3l-2.3.8-.7.2-2.4 1-2.3 1.1-.4-.8 2.3-1.7.5-.3a20.928 20.928 0 0 0 2.8-2.4 1 1 0 0 0 .5-.6 5.697 5.697 0 0 0 1.1-2.2 4.098 4.098 0 0 0 .3-1.6 8.656 8.656 0 0 0-.1-1.6Zm-1.7-1.1 1 .5c-.1.1-.2.1-.3.3a22.356 22.356 0 0 0-.8 2.4 6.3 6.3 0 0 1-2.4 3.4 15.618 15.618 0 0 1-2 1.6 37.89 37.89 0 0 0 1.7-3.5c.276-.582.51-1.184.7-1.8.293-.61.527-1.246.7-1.9.1-.4.3-.9.4-1.4l1 .4Zm-28.6-50c2-9.3 3.7-18.7 5.2-28.1 3.9.6 8 .3 11.9.4 2 .1 4.3-.1 6.6-.1h.8v-2.3h-2.4c-5.4-.1-11.1-.9-16.5-.3 0-.4.1-.7.1-1.1a98.189 98.189 0 0 1 3-14.1c.7-2.2 3.4-9.2 5.2-3.6.8 2.5.1 5.9-.1 8.4a1.401 1.401 0 0 0 1.8 1.3.999.999 0 0 0 1.5-.3c2.2-5.4 3.2-11.3 6.4-16.4.4-.5 1.9-3.2 2.7-3.2 2.8-.3 1.5 2.3 1.2 3.4a55.089 55.089 0 0 1-2.7 8.1 6.304 6.304 0 0 0-.9 2.2c-.3 1.1 1.4 2 1.9.8s.4-.9.8-1.6c1.7-3.4 6.6-10.7 7.2-10.3.6.4-3.3 11-4 12.6a.9.9 0 0 0 1.5.9 54.564 54.564 0 0 1 4.7-6.8 27.406 27.406 0 0 1 2.2-2.6 16.653 16.653 0 0 1 1.6-2.1c0-.1 0-.1.1-.1s.4-.1.4.5a4.9 4.9 0 0 1-.7 2.4c-.4.6-.7 1.2-1.1 1.7a17.339 17.339 0 0 0-1.5 2.2l-3.9 7.2a1.104 1.104 0 0 0-.1.5 1.1 1.1 0 0 0 1.3 1.1h.3a.802.802 0 0 0 .4-.4l1.2-1.8c.467-.61.901-1.244 1.3-1.9a16.003 16.003 0 0 1 3-3.3l.2-.2.8-.9.4-.2h.3c.1.1.3.1.4.3l-.5 1-.3.4a5.953 5.953 0 0 1-.4.8l-1 1.6a1.611 1.611 0 0 1-.3.6v.2a.099.099 0 0 0-.1.1c-.6 1-1.1 2.1-1.7 3.2l-1.7 3.3c-.8 1.7-1.5 3.4-2.2 5.1-.7 1.7-.5 1.1-.7 1.7-.449.011-.876.19-1.2.5a12.403 12.403 0 0 0-4.8-.8h-3v2.3h2.2c.839.045 1.674.145 2.5.3l2.3.5-3.3 37.2c-.1.8-.1 1.5-.2 2.3-.1.8-.2 3.2-.4 4.8-.4 6.4-.9 12.8-1.8 19.2-.2 1.6-.4 3.2-.7 4.7a69.521 69.521 0 0 1-1.7 6.9 38.28 38.28 0 0 1-3.3 8.1c-.7 1.3-1.4 2.5-2.2 3.7l-1.2 1.8c-.9 1.2-1.7 2.4-2.7 3.5-1 1.1-1.8 2.3-2.8 3.4l-1.4 1.6-5.8 6.5-3.1 3.5-9.3 10.4-1.4 1.5-1.4 1.5c-2.9 3-6 6-7.9 9.6l-.3-.6-1.5-3.4c-1.5-3.3-2.9-6.8-4.1-10.3l-.5-1.2c-.1-.5-.3-1-.4-1.5-.1-.5-1.2-3.9-1.8-5.8-.6-1.9-.3-1-.5-1.5s-.7-1.9-1.1-2.8c-.4-.9.9-3.3 1.4-4.9l1.2-4.9c.2-.6.3-1.1.5-1.6a97.277 97.277 0 0 1 3.9-10.2h.3l.2-.2 1.3-1.7c12.1-15.4 16.4-33.9 20.4-52.7Zm-15.2 39.1c-1.3 2.5-2.8 4.9-4.1 7.3a15.1 15.1 0 0 0-1.3-6.3c1.74-.6 3.56-.937 5.4-1Zm-16.4 9.9 1.3-1.7a22.004 22.004 0 0 1 3.3-3.5c.6 1.2 1.2 2.5 1.7 3.7.5 1.2.6 2.9 1.5 4h1.7c.6-1.6-.3-3.5-.9-5a19.05 19.05 0 0 0-2.3-3.9l2.8-1.7c.3 1 .6 2 .8 3 .137 1.217.371 2.421.7 3.6a1 1 0 0 0 .8.5l-1.9 3.5h-1.7l.2.2.2.2h.2l-.7.6-.6.7a26.74 26.74 0 0 0-4.3-4.6l-1.5-1.4-1.3 1.7 2.7 3.2c.4.6.9 1.1 1.3 1.6l1.4 1.6-.2.3a4.423 4.423 0 0 0-1.6-.6l-1.6-.7-1.8-.9-1.1-.6-1-.5a37.101 37.101 0 0 1 1.9-3.3Zm-2.7 5.2 1.9 1.2 2 1.1.6.4c.742.36 1.511.661 2.3.9a1.597 1.597 0 0 0-.4.7l-.3.6-.6-.2-1.8-.4-3.6-1.3-1.2-.3h.1v-.2a24.39 24.39 0 0 1 1-2.5Zm-3.4 11.7 3.3 1.1c1.135.353 2.312.555 3.5.6a18.057 18.057 0 0 0-.5 1.9 18.057 18.057 0 0 0-.5 1.9l-1.4-.4-1.4-.4-1-.2-1.9-.3h-1l.9-4.2Zm-1.9 8.3c.1-.6.3-1.1.4-1.7 2 .1 4.4 1.5 6.5 1.8-.3 1.2-.7 2.5-1 3.8l-1.2-.4-1.3-.3-1-.4-2.9-1.1c.2-.6.3-1.2.5-1.7Zm-.7-6.5c-.3 1-.5 2-.8 3.1-.3 1.1-.6 2.1-1 3.1s-.3 1.1-.5 1.6-.9 2-1.3 2.9a21.011 21.011 0 0 1-5.7 7.4 16.896 16.896 0 0 1-4.2 2.3l-1.7.4c-3.9.6-6.3-1.8-8.4-4.9a31.647 31.647 0 0 0 3.4-3l3.2-3.4c3.3-.1 6.7-2.5 9.4-4.2a49.3 49.3 0 0 0 7.6-5.3Zm-6.8-.7a5 5 0 0 0 1.4 1.5c-2.8 1.7-5.6 3.2-8.5 4.7a53.836 53.836 0 0 0 5.6-9.5 9.88 9.88 0 0 0 1.5 3.3ZM513.3 141a27.59 27.59 0 0 1-4-7.8 21.499 21.499 0 0 1-1-12.3c1.4-6.5 6.3-11.3 6.8-18.2.3-3.5-.6-6.6-1.2-9.9a26.89 26.89 0 0 1 1-13.2 53.952 53.952 0 0 0 2.2-8.8c0-.2.1-.5.1-.8a18.294 18.294 0 0 0-.7-8c-.5-1.6-3-6.3-.7-7.6a1.7 1.7 0 0 1 1.9.2c1.4 1 1.5 2.5 3.5 2.1a2.401 2.401 0 0 0 2-2.2c.2-1.6-2-2.9-1.9-3.8.4-3 5.9 1.1 7.6 1.3a8.7 8.7 0 0 0 5-1c2.2-1 4-2.6 6.2-3.6 4-2 8.8-1.1 12.9 0 7.9 2.3 17.3 8.3 19.7 16.6 1.9 6.7-.4 13.3-2.2 19.8a37.402 37.402 0 0 0-1.2 4.5.4.4 0 0 1-.1.3 7.662 7.662 0 0 1-.2 1.5 24.336 24.336 0 0 0-.1 2.7c.1 7.9 5.6 16.3 1 23.9-2.8 4.7-4.9 7.5-2.5 13.1 1.3 3.2 3.4 6 4 9.5.382 1.912.416 3.877.1 5.8a7.918 7.918 0 0 1-.6 2.2c-.223.716-.49 1.417-.8 2.1-.4.8-.8 1.8-1.3 2.7l-.5.8-.3.4a3.113 3.113 0 0 1-1.332.83 3.111 3.111 0 0 1-1.568.07h-1.9l-3-.2-3.1-.2h-.5l-.3-1.5a10.41 10.41 0 0 0-1.6-3.9 15.947 15.947 0 0 0-1.3-1.3v-.2l.2-.2c.3-.9.5-1.7.7-2.5a17.71 17.71 0 0 0 .1-7.6 24.504 24.504 0 0 0-.8-2.9l-.5-1.7c-.2-.6-.3-1.2-.5-1.7a12.658 12.658 0 0 1-.3-3.4 6.222 6.222 0 0 1 .3-1.8l.3-.9c.272-.695.607-1.365 1-2 .7-1.3 1.5-2.5 2.2-3.7 3-5 5.4-9.7 4.6-16.1-.4-3.4-1.3-6.8-1.8-10.2-.8-5.4 1.1-10 2.3-15.2 1.2-5.2 1.2-12.3-3.1-17.8-.4-.5-1.1.2-.9.7 2.4 5.1 5.1 9.4 3.3 15.2-1 3.1-2.6 5.9-3.4 9.1-1.8 7.2 1 13.6 1.3 20.7.1 4.4-.6 9.1-2.8 12.9l-.3.5-.6.9c-1.4 2-3.2 3.8-4.1 6.1-.17.558-.303 1.125-.4 1.7a7.794 7.794 0 0 0 .4 3.4c.12.612.287 1.214.5 1.8l.6 1.8a42.021 42.021 0 0 1 1 4.2c.234 1.422.268 2.869.1 4.3 0 .3-.1.6-.1.9-.12.612-.287 1.214-.5 1.8a3.834 3.834 0 0 1-.3 1 15.513 15.513 0 0 0-4.3-1.4l-3.2-.5-3.1-.2h-1.4c.166-1.36.233-2.73.2-4.1 0-.4-.1-.9-.1-1.3a25.104 25.104 0 0 0-.4-2.7l-.3-1.3-.3-1.4-.6-1.7-.3-1a20.375 20.375 0 0 1-1.1-4.6 8.602 8.602 0 0 1 .4-2.8 44.895 44.895 0 0 1 3.4-7.8l2.2-4.1a39.974 39.974 0 0 0 2.7-5.5c.1-.5.3-1 .4-1.5.244-1.15.345-2.325.3-3.5 0-1.2-.1-2.3-.2-3.5a9.766 9.766 0 0 0-.1-1.7v-1.7c.053-1.154.255-2.297.6-3.4a.5.5 0 0 0-.9-.4 5.893 5.893 0 0 0-1.3 3.3 6.582 6.582 0 0 0-.1 2c0 .941.101 1.88.3 2.8.12.962.186 1.931.2 2.9a21.342 21.342 0 0 1-.7 4.4c-.3 1-.7 2-1.1 3a20.944 20.944 0 0 1-1.5 3l-.5.9-1.2 1.9-.5 1-1.2 1.8c-.6 1.1-1.3 2.1-1.8 3.1-.327.71-.594 1.446-.8 2.2a7.8 7.8 0 0 0-.3 3.4c.8 6.3 4 11.7 3 18.2l-4.4-.4a.412.412 0 0 0-.1-.3 20.691 20.691 0 0 1-2.6-6.6 18.466 18.466 0 0 1-.4-2.3 34.657 34.657 0 0 1-.1-7.2c.017-.803.084-1.605.2-2.4a.597.597 0 0 0-.6-.6.593.593 0 0 0-.522.056.595.595 0 0 0-.278.444l-.3 2.6c-.05.866-.05 1.734 0 2.6v1.3c.1 1.3.2 2.6.4 4s.2 1.3.4 2 .1.8.1 1.1c.16 1.123.428 2.228.8 3.3l.4 1 .6.9-7.2-.3h-7a4.197 4.197 0 0 1-2.5-.6l-1.1-.8-.8-.8Zm43.5 17.4a28.346 28.346 0 0 0-.1-2.9h.4l3.5.3h6a9.897 9.897 0 0 0-4.2 3.4l-.9 1.6a38.635 38.635 0 0 0-4.8.1c0-.7.1-1.6.1-2.5Zm-34.6 16.8-.3-.7a1.993 1.993 0 0 1-.4-.8l-.5-1.2a5.427 5.427 0 0 0-.5-1.1h-.2a16.4 16.4 0 0 0 2.2-1.4 20.81 20.81 0 0 0 1.5-1.5 2.703 2.703 0 0 0-.3 1.6c.2 1.2 1.6 3.2 2.9 2.2a.694.694 0 0 0 .1-.6c-.2-1-1.5-1.1-1.4-2.3.1-1.2 2.6-2.1 3.9-1.8 1.3.3 1.9 1.5 2.7 2.4a16.485 16.485 0 0 0 5.6 4.2 36.553 36.553 0 0 0 4.4 1.8l.6-1.9-2.9-1.1a16.354 16.354 0 0 1-2.6-1.6c-2.2-1.5-3.4-4-5.3-5.8l-.9-.6a6.303 6.303 0 0 0-2.8-1.2 4.1 4.1 0 0 0-1.9-.1 5.805 5.805 0 0 0-2.1.7l-.9.6c-.9.7-1.7 1.6-2.6 2.4l-.9.8-1.8.9a5.775 5.775 0 0 1-1.8.4 6.593 6.593 0 0 1-3.2-.5 6.191 6.191 0 0 1-2-1.5 7.053 7.053 0 0 1-1-1.4 7.8 7.8 0 0 1-.9-2.7 31.382 31.382 0 0 1-.5-3.6 14.926 14.926 0 0 1-.2-2.1 14.734 14.734 0 0 1-.1-2.1c.1-2.6.7-5 2.5-6.4 1.8-1.4 7.2-2.2 10.6-2 5.6.3 11.3.1 16.9.6l2.2.2c-7.1 5.3-13.9 11.3-20.9 16.8-.4.2.1.9.5.6l2.3-1.7c7-5.1 14.1-10.1 20.9-15.5 1.767.121 3.514.457 5.2 1 4.3 1.4 4.5 4.6 4.9 8.3.7 5.6 1.1 16.9-6.9 17.2a12.598 12.598 0 0 1-3.8-.6l-.6 1.9 1.1.3h1.3l1.4.2h1.3a9.704 9.704 0 0 0 4.7-1l.3-.3h.1l.9-.6c2.8-2.4 3.1-7.2 3.4-10.6v-.3h.2l1.4-.2h4.4a1.103 1.103 0 0 0 1.1-.6.5.5 0 0 0 .2-.4 7.7 7.7 0 0 1 2.2-3.1 4.9 4.9 0 0 1 2-1.1c2.8-.9 3.6 1.2 3.1 3.7a12.905 12.905 0 0 1-2.4 5.4 5 5 0 0 1-2.2 1.9 3.801 3.801 0 0 1-2.8.3h-.3l-.6.2-.4.3-.2.5v.3c-.5 1.1-1 2.3-1.4 3.4a71.154 71.154 0 0 1-2.9 6.9l-1.8 3.3a71.165 71.165 0 0 1-7.2 9.2l-2.7 2.8-1.6-2.6c-.5-.9-1.1-1.7-1.6-2.5l-.9-1.1a11.252 11.252 0 0 0-2-1.8l-1.1-.7a10.61 10.61 0 0 0-.3-3.5 34.812 34.812 0 0 0-1.9-5.5 23.883 23.883 0 0 0-1.2-2.2 3.613 3.613 0 0 0-.7-1l-1.3-1.3a4.802 4.802 0 0 0-3.4-1h-.7l-.8.2h-.3c-.955.309-1.863.747-2.7 1.3l-.9.5-.6.4c-.2.2-.4.3-.5.5-.1.2-.4.4-.3.5l-1.1-1.5Zm.4 22.6c1.2-.9 1.9-2.3 2.9-3.2l.5-.4h.3l.5.2 2 .2.5.2.3.3.3.5.2.3c0 .1.1.2.1.4a27.816 27.816 0 0 1 1.7 5.6l-.3.2-.3.3-2.7 2.7-1.3 1.5c-.9.9-1.7 1.9-2.6 2.9l-1.2 1.5a66.381 66.381 0 0 0-9.7 16.1l.3-2.6c.202-1.749.503-3.485.9-5.2.094-.888.295-1.761.6-2.6.4-1.7.9-3.3 1.4-4.9 1.7-4.7 3.7-9.4 5.6-14Zm-2.5-9.6c.087.479.221.948.4 1.4l.6 1.3a5.483 5.483 0 0 0 1.3 1.4c-.402.173-.773.41-1.1.7a4.287 4.287 0 0 1-.9-1 1.993 1.993 0 0 1-.4-.8 11.214 11.214 0 0 1-.8-2.6l.4-.2.5-.2Zm-1.8 5.7c.178.311.416.582.7.8l-.7.6-1-.5a.5.5 0 0 1-.5-.3l-.5-.4-.5-.6c-.1-.1-.1-.2-.2-.4a2.798 2.798 0 0 1-.6-1.5.597.597 0 0 1 .1-.4.904.904 0 0 0-.1-.5l1.9-.9a7.094 7.094 0 0 0 1.4 4.1Zm-2.6 3.1-.8.4h-.1a4.48 4.48 0 0 1-1.3-1.1l-.3-.4a5.193 5.193 0 0 1-1-1.8 2.595 2.595 0 0 1-.2-1.5.393.393 0 0 0 .1-.3v-.2l.9-.5a5.696 5.696 0 0 0 1.5 4.3c.338.429.744.8 1.2 1.1Zm-4-8.6a5.384 5.384 0 0 0 0-1.8l1.5.4 1.6.4-3.2 1.4a.602.602 0 0 0 .1-.4Zm-1.8 5.2c.119.888.426 1.74.9 2.5a16.17 16.17 0 0 0 1.1 1.7l.7.7-1.4.7a8.083 8.083 0 0 1-1.8-1.9 5.098 5.098 0 0 1-.8-3.2v-.5l1.3-.6v.6Zm-3.1 7.1-.4-.3-.8-.5-.4-.3-.6-.9a6.702 6.702 0 0 1-.5-3.1c0-.1-.1-.2-.1-.4l2.7-1a9.717 9.717 0 0 0 .2 2.4c.073.558.243 1.099.5 1.6l.3.7c.251.462.591.87 1 1.2l-1.9.6Zm1.5-14.7 1.5.3c.083.428.116.864.1 1.3-.1.4-.1.9-.2 1.3s-.1.6-.2.8l-.7.4-1.8.8.3-1.3a11.872 11.872 0 0 0-.2-2.6 5.64 5.64 0 0 0-.4-1.2l1.6.2Zm-5.3-.3h1.8c.172.245.307.515.4.8.353.783.458 1.656.3 2.5a8.817 8.817 0 0 1-.7 2.3c-.02.276-.088.547-.2.8l-3.3 1.4a8.213 8.213 0 0 0 .9-3.4V189a8.052 8.052 0 0 0-.4-1.8 6.112 6.112 0 0 0-.7-1.4l1.9-.1Zm-2.1 13.7c-.1-.3-.1-.5-.2-.8a5.979 5.979 0 0 1 .1-2.3l1.3-.4v.7c.017.671.084 1.339.2 2 .122.449.29.885.5 1.3.173.402.409.773.7 1.1l.3.4-1.2.2-.6-.4a3.298 3.298 0 0 1-1.1-1.8Zm-.6-13.6.2.3.3.6c.111.218.179.456.2.7.1.529.1 1.071 0 1.6 0 .2-.1.4-.1.6 0 .2-.3.9-.4 1.4l-.9 1.9-.8 1.2H497a6.315 6.315 0 0 0 .3-1.9 10.114 10.114 0 0 0-.2-3 10.717 10.717 0 0 0-.7-1.9 2.514 2.514 0 0 0-.4-.9 34.963 34.963 0 0 1 4.3-.6Zm-3.6 13.3c0-.649.21-1.281.6-1.8l.4-.5h1.4l-.3 1.2a7.584 7.584 0 0 0 .6 3.6l.3.6h-2l-.5-.7a5.912 5.912 0 0 1-.4-.8 3.094 3.094 0 0 1-.1-1 .392.392 0 0 1-.1-.464.394.394 0 0 1 .1-.136Zm-1.1-2.5-.3.4a4.675 4.675 0 0 0-.5 1 5.2 5.2 0 0 0-.4 2.1v.6c.1.476.234.943.4 1.4l-1.9-.2a1.392 1.392 0 0 1-.2-.6 1.494 1.494 0 0 1-.1-.7v-.7a5.59 5.59 0 0 1 .9-1.7l.9-.9 1.1-.8.1.1Zm-5.5 4.9-1.4-.3-.8-.2a4.297 4.297 0 0 1 1.3-2.7l.4-.4.9-.9.5-.4 1.1-.6.5-.3.6-.2h.1l-.6.5a5.905 5.905 0 0 0-2.7 4.7c-.022.271.013.543.1.8Zm-2.3-4.7-.9 1.2a4.397 4.397 0 0 0-.9 2.2l-.8-.6a5.396 5.396 0 0 1-1.7-2l.9-.8 1.8-1.2 1-.5a6.613 6.613 0 0 1 2-.6 7.915 7.915 0 0 1 2.2-.1 7.906 7.906 0 0 0-3.6 2.4Zm4.9-9.5 1.9-.5a9.595 9.595 0 0 1 .8 3.8 15.705 15.705 0 0 1-.5 3l-.8-.6a2.985 2.985 0 0 1-.8-.8c-.1-.4-.2-.9-.3-1.2a6.091 6.091 0 0 0-1.3-2.2l-.8-.9 1.8-.6Zm-9.6 8.1a8.3 8.3 0 0 1 .4-1.5c.22-.605.523-1.177.9-1.7l.5-.6a11.81 11.81 0 0 1 3.1-2.4l1.2-.6h.2c.8.6 2.3 2.1 2.2 3.1l-.2.5-.3.2a.908.908 0 0 1-.7.3l-.9.2h-1.2l-1.6.6-1.3.5c-1.2.6-2.3 1.2-2.3 1.7v-.3Zm-68.6-63.6c-2.7-5.2-7.1-9.8-11.2-14.1l-4.1-4.3a15.4 15.4 0 0 0-1.7-1.9l-.3-.4-.8-.9c-.8-.9-1.6-2-1.2-2.2h.5l.5.2a10.116 10.116 0 0 1 2.3 1.9l1.6 1.5a9.503 9.503 0 0 0 2.4 2.1c.89.6 1.927.946 3 1a1.7 1.7 0 0 0 1.8-1.5 5.501 5.501 0 0 0-.9-3.1 24.29 24.29 0 0 0-1.4-2l-.6-1a6.084 6.084 0 0 1-.7-1c-.2-.5-1.2-2.1-1.9-3.6a6.592 6.592 0 0 1-.8-2.4c.1-.3.2-.5.6-.4.4 0 1.2 1.3 2 2.4l1.3 2.1a20.74 20.74 0 0 0 2.7 3.2l1 .9c.69.509 1.471.882 2.3 1.1a3.196 3.196 0 0 0 2.2-.2l.7-.7.3-.5c.115-.39.182-.793.2-1.2a6.801 6.801 0 0 0-.5-3c-.5-1.3-1.2-2.5-1.8-3.7a6.066 6.066 0 0 1-.5-1.2c-.3-.7-.5-1.3-.7-1.9a11.67 11.67 0 0 1-.5-2c-.1-.4-.1-.9-.2-1.3s-.2-1.8.8-.1a11.3 11.3 0 0 1 3.1 4.3l1.2 2.4.3.8c.5.8.9 1.6 1.4 2.3a7.69 7.69 0 0 0 1.8 1.8c3 2.1 4-.1 4.2-3a7.61 7.61 0 0 0 .1-1.5c0-.9-.1-1.8-.1-2.6a2.79 2.79 0 0 1-.1-.9 5.31 5.31 0 0 1-.1-1.2.895.895 0 0 1-.1-.5c0-.3-.2-.8-.3-1.4-.1-.6-.1-.2-.1-.4s-.1-.6-.2-.9a2.9 2.9 0 0 1-.2-.9 4.704 4.704 0 0 1-.1-2.6c.3-.6.5-.8.8-.9h.3c.177.08.32.222.4.4v.3l.5 1c.2.4.3.9.5 1.2.8 2.1 1.4 4.2 2 6.3.6 2.1 2.5 11.2 6.7 8.2a4.302 4.302 0 0 0 1.4-2.3l.3-1c.023-.168.057-.335.1-.5.4-.9.6-1.9 1-2.8.091-.317.226-.62.4-.9l.5-1.1.2-.4c.2-.3.3-.4.3-.1-.006.172.028.344.1.5v.8c0 .9-.1 1.9-.1 2.8 0 .9-.4 3.6-.7 5.4-.6 3.6-1.5 7.2-2.3 10.8l-.6 2.6-5.3 2c-1.733.8-3.434 1.7-5.1 2.7a37.625 37.625 0 0 0-6.7 5.2l-1.9 2.3Zm96.1 88.7c-.4 2-.7 4-.9 6-13 .7-26.5.6-39.4-1.4a38.222 38.222 0 0 1-7.6-1.8l-2-.7-1-.5-2-1-1.8-1.3-1.7-1.5a43.254 43.254 0 0 1-4.2-5.2 84.104 84.104 0 0 1-5.6-9.7l-2.3-4.3-4.2-8.7c-3.4-7.4-6.5-14.9-9.5-22.4-2.2-5.6-4.2-11.3-6.2-17-1-2.9-2-5.7-3.1-8.5l-1.6-4.2-1.8-4.2 2-1.5 1.9-1.5 3.7-2.7 3.8-2.4 3.9-2.3 4.2-2 .3-.2a169.593 169.593 0 0 0 6.3 16.8c1.5 3.7 3.1 7.3 4.8 10.9 2.5 5.5 5.2 10.8 7.7 16.2 2.5 5.4 6.1 12.9 10 19.3a62.457 62.457 0 0 0 6.5 8.8 33.225 33.225 0 0 0 3.9 3.6 20.159 20.159 0 0 0 4.2 3l.3.2h.3c.1.3.3.5.4.8a10.695 10.695 0 0 0 6 4.3c1.038.372 2.109.64 3.2.8l1.7.2 3.5.3h3.4a45.7 45.7 0 0 0 5.9-.7 31.06 31.06 0 0 0 5.1-1.1 47.927 47.927 0 0 0 8.1-3.4l.7-.3a22.34 22.34 0 0 0-1.1 2.2c-.7 1.6-1.4 3.1-2 4.7a81.472 81.472 0 0 0-3.8 12.4Zm5.7 57.7a15.08 15.08 0 0 1 1.2-2.6 13.077 13.077 0 0 1 2-2.1 23.536 23.536 0 0 0 3.1 2l2.3 1.2 2.4 1 2.4 1 2.4.8 1.2.4 2.3.7 2.1.7a129.306 129.306 0 0 0 27.6 5.9l7 .5h10.6c3.6-.1 7.1-.4 10.6-.8h.1c-.1 2.7-.1 5.3 0 8a104.212 104.212 0 0 1-11.4 2.1l-5.7.6c-4.823.401-9.665.501-14.5.3l-5.7-.4a94.344 94.344 0 0 1-8.7-1.2 88.58 88.58 0 0 1-12.1-2.9 52.233 52.233 0 0 1-6.9-2.8l-1.1-.5-2.8-1.8a10.838 10.838 0 0 1-1.7-1.3l-1.5-1.4-1.5-1.5c-1.4-1.6-2.6-3.3-3.9-5.1.007-.278.075-.551.2-.8Zm-12.9 13.4 1.4-1.3.5-.4.9-.7 1.1-1.1 3.2-2.9 3.5-2.7c.289.994.727 1.938 1.3 2.8a6.57 6.57 0 0 0 1.2 1.7l2.2 2.4 1.7 1.4 1.9 1.3c6.5 4.1 15 6.5 20.6 7.8a109.054 109.054 0 0 0 25.4 2.7c8.548-.02 17.067-.993 25.4-2.9v.3c0 .1 0 .1.1.2a.394.394 0 0 0 .1.3c.1 2.7.3 5.5.5 8.2.2 2.7.4 8.3.7 12.5l.9 12.5v1l-7.7.6h-3.9a93.12 93.12 0 0 1-19-2.3 85.077 85.077 0 0 1-18.1-6.5 78.773 78.773 0 0 1-6.9-3.8l-3.3-2.1-3.4-2.4a74.415 74.415 0 0 1-9.4-8.3l-1.3-1.4c-1.7-1.8-3.4-3.7-5.2-5.4a29.503 29.503 0 0 0-4.4-3.5 15.606 15.606 0 0 0-6.2-2.3 20.12 20.12 0 0 0-3.3.2h-.6c-1.7 0-2.9-.5-2.1-3a9.397 9.397 0 0 1 1.8-2.6c.2 0 .3-.2.4-.3ZM307.8 476.1a55.015 55.015 0 0 0 12-7.5l.5-.4 3-3 24 6.6 5.4 1.6c.6.2 5.1 1 5.4 1.7.3.7.1.2.1.4v.2c0 .1 0 .2-.1.2-.5 1.3-4 .8-5.1.8l-6 .4c-14.7.8-29.5.9-44.3 1.1 1.8-.5 3.5-1.3 5.1-2.1Zm-1.8 50.7c3-4.9 6.7-9.8 7-15.8.3-6-2.2-9.2-5.4-12.9-3.2-3.7-4.2-4.6-6.5-6.8-.6-.6-1.2-1.3-1.9-1.9l-2.2-2c11.6 1.4 23.3 2.5 35 3.1 6.1.4 12.3.6 18.5.8 6.2.2 10.5 0 15.7.8a318.335 318.335 0 0 1-31.3 19.9c-9.8 5.5-20.7 10.4-30 16.9.327-.72.694-1.421 1.1-2.1Zm162.5-48.1c.053.237.12.471.2.7 1 3.8 2.3 9.9-.5 12.8-.307.407-.723.72-1.2.9-3.1 1.9-8.4 2.2-11.5 2.9l-15.3 3.5-20.2 4.6c-6.7 1.5-13.5 3.1-20.2 4.9-4.4 1.1-8.9 2.3-13.3 3.6l-7.1 1.7a167.304 167.304 0 0 0-10.5 3l-10.3 3.2-5.2 1.6-5.2 1.7c-6.9 2.2-13.7 4.5-20.7 6.5l-10.5 2.9c-1.7.4-3.7 1-5.8 1.4l-3.1.5h-1.4l-1.4-.2-1.3-.4a1.396 1.396 0 0 1-.9-1.2l4-1.9c2.7-1.4 5.2-2.9 7.8-4.5l3.8-2.2 8.8-5.1 8.8-5.3 8.7-5.2 4.3-2.7c2.9-1.7 5.8-3.5 8.6-5.4 4.3-2.7 8.5-5.5 12.6-8.5l.3-.3a1.604 1.604 0 0 0 .3-1.6 1.509 1.509 0 0 0-.9-.8l-3.9-.7a82.022 82.022 0 0 0-9.9-.4h-7.1c-5.2-.1-10.3-.3-15.4-.6-9.2-.5-18.5-1.3-27.7-2.3l-7.1-.8h-4.4a2.288 2.288 0 0 1-1.1-.5.393.393 0 0 1-.313-.218.403.403 0 0 1 .013-.382 1.3 1.3 0 0 1 .3-.8l.5-.6.3-.2.6-.5.9-.5h.5l13.4.2h9l9-.3h4.4l18.8-1c1.9-.1 3.9-.1 5.9-.4.993-.16 1.965-.428 2.9-.8a6.872 6.872 0 0 0 1.9-1l.6-.4c.2-.1.2-.3.3-.5v-.5a5.29 5.29 0 0 0-.6-1.3c-.7-1-1.8-1.2-3.3-1.8-3.9-1.4-7.7-2.7-11.6-3.9a213.24 213.24 0 0 0-21.8-5.9c3.2-3.3 6.3-3.4 10.6-2.6 4.3.8 8.6 1.8 12.9 2.8l4.3 1h.9l.8.2c21.4 4.9 43.3 9.4 65.1 4.8a25.08 25.08 0 0 0 2.9 5.1l1.3 1.5c5 5.6 12.6 8.6 20.5 9.3l2.8.2a34.883 34.883 0 0 0 12.9-1.5l2.6-1.1a15.897 15.897 0 0 0 3.5-2.2 10.389 10.389 0 0 0 2.1-2.5Zm-1-3.4a9.505 9.505 0 0 1-1.7 2.7 14.794 14.794 0 0 1-6 3.7l-2.9.8a34.61 34.61 0 0 1-4.5.6h-3.1c-2 0-3.9-.2-5.6-.3a39.033 39.033 0 0 1-6.8-1.4l-1.6-.6-3.2-1.3-1.5-.8-2.8-1.9a23.704 23.704 0 0 1-4.8-4.7 30.389 30.389 0 0 1-1.9-3l3.2-.8c.41.99.985 1.902 1.7 2.7.282.44.618.843 1 1.2l1.1 1.1a23.59 23.59 0 0 0 7.9 4.8 22.486 22.486 0 0 0 4.4 1.4c1.517.331 3.053.565 4.6.7h1.1a30.386 30.386 0 0 0 8.9-1.3l2.6-.9 2.5-1.1a15.516 15.516 0 0 0 4.4-3l.9-.9.8-.9h.2c.4 1.1.8 2.2 1.1 3.2Zm20.8-106.5-4 2.4a93.259 93.259 0 0 0-9.4 6.7 48.323 48.323 0 0 0-6.3 6.5 26.789 26.789 0 0 0-4.7 9.6 17.457 17.457 0 0 0-.5 2.2 19.892 19.892 0 0 0-.4 2.4c-.1.3-.1.7-.2 1.1-.2 1.592-.3 3.195-.3 4.8v4.8c0 .8.1 1.6.1 2.4.1 3.2.3 6.4.4 9.5.1 7.7.3 15.3.6 23 .1 2.6.1 5.1.2 7.7.1 2.6.7 7.8.4 11.7a7.664 7.664 0 0 1-.2 1.5 13.062 13.062 0 0 1-.6 2.7 10.702 10.702 0 0 1-4.3 5.6 16.27 16.27 0 0 1-4.4 2.1 24.504 24.504 0 0 1-6.4 1.4h-1.6c-1.78.037-3.559-.13-5.3-.5a23.808 23.808 0 0 1-8.2-3l-1.2-.7a20.735 20.735 0 0 1-3.8-3 3.907 3.907 0 0 1-.8-1 3.1 3.1 0 0 1-.5-1 5.885 5.885 0 0 1-.2-1.3c.02-.212.088-.418.2-.6a1.8 1.8 0 0 0 .4-1c.3-11.2.3-22.3.4-33.5v-11.2c.1-2 0-4 0-6.1 0-2.1 0-4.1.1-6.2.1-2.1.1-4.1.3-6.1l.3-3.1c.1-1 .3-2 .4-3a37.2 37.2 0 0 1 2.4-8.4 45.98 45.98 0 0 1 7.6-12.2c9.6-11.7 19.5-23.1 29.5-34.5l10-11.3.9 2.3c2.2 5.2 5.4 9.9 8.7 14.6 1 1.4 1.8 2.9 2.7 4.4l.9 1.6c.5.9 1 1.9 1.6 2.8l1.6 2.9c.6.9 1.1 1.8 1.7 2.6.6.8 1.3 1.7 1.9 2.5h-.2l-9.8 5.9Zm27.6-16.7-13.4 8.2a20.287 20.287 0 0 0-2.1-3.8l-.9-1.3-.7-1.1-2.2-3.4c7.2-5.6 15.3-8.8 24.5-8.2l4.1.5 2 .4 2 .4c-4.4 2.8-8.8 5.6-13.3 8.3Zm49 40c-1.2-5.1-2.4-10.1-3.5-15.2l-3-13.2a8.255 8.255 0 0 1-.4-1.5l-.6-3.1a39.057 39.057 0 0 0-1.2-4.6 14.538 14.538 0 0 0-1.1-2.9 13.703 13.703 0 0 0-3.9-4.7l-2.1-1.3-3.4-1.6-2.4-.8-4.7-1.5-2.7-.7a66.629 66.629 0 0 0-11.3-1.9h-7.4l-3 .3-2.9.4a32.54 32.54 0 0 0-4.2 1.1 27.383 27.383 0 0 0-4 1.5l-2.5 1.3a21.566 21.566 0 0 0-3.5 2.4l-2.1 2-1.9-3-3.3-4.5-3.2-4.5c-1.6-2.2-3.2-4.5-4.7-6.9a17.575 17.575 0 0 1-1.4-2.3l10.7-12.1 10.7-12 .3-.4c1 0 2.1-.2 3.2-.1 4.5.2 7.7 3.2 10.7 6.3 3 3.1 6.5 6.8 10 9.9a52 52 0 0 0 3.6 3 90.38 90.38 0 0 0 19 11.2l4.1 1.7 4.2 1.4a84.758 84.758 0 0 0 23.9 4.4h8.9c2.2-.133 4.4-.333 6.6-.6 1.1 14.3 2.6 28.6 4.6 42.9l-9 2.2a271.659 271.659 0 0 0-26.8 7.3l-.3.1Zm5.1 132.3c1.8-13.6 3.8-27.1 5.1-40.7.6-5.7.9-11.4 1-17 .1-2.3.1-4.5 0-6.7-.1-5.7-.4-11.3-1-16.9l-.9-6.7c-.3-2.2-.7-4.5-1.1-6.7-1.1-5.8-2.3-11.5-3.6-17.3-1.3-5.8-2.5-11.4-3.9-17.1h.5l9-1.7 8.9-2.1 8.8-2.3 8.9-2.3c2.4 16.2 6.5 32.2 8.2 48.4l.3 3.3c.2 2.1.3 4.2.4 6.4.1 2.2.1 6.4.1 9.6-.1 1.1-.1 2.2-.1 3.3 0 1.1-.3 4.2-.4 6.4l-.6 6.4c-.2 2.1-.5 4.3-.8 6.4-.3 2.1-.9 6.4-1.5 9.5-1.3 7.1-2.8 14.1-4.5 21.1-.5 2.4-1.1 4.7-1.7 7l-1.8 7c-.7 2.3-1.3 4.6-1.9 6.9a80.862 80.862 0 0 0-2.7 10.5 7.767 7.767 0 0 0-.2 1.6c-3.1-.4-6.2-.5-9.1-.7l-2.9-.3-11.6-1.3-2.6-.4c.5-4.5 1.1-9.1 1.7-13.6Zm-10.1 24c0-1.4.2-2.7.2-4a5.253 5.253 0 0 1 .1-1.3 2.991 2.991 0 0 1 .5-1.5l.5-.4a3.804 3.804 0 0 1 2.3-.3l2.3.2 5.9 1h1.1c6 .7 12 .9 18 1.5l4.5.6 4.4.7h.7c.842.182 1.63.558 2.3 1.1a4.602 4.602 0 0 1 1.3 1.8 6.003 6.003 0 0 1 .2 4.4 11.96 11.96 0 0 1-.5 1.1 4.404 4.404 0 0 1-3.3 2.3l-2 .3h-.5c-3.4.3-6.9.5-10.3.6h-3.4c-2.2.1-4.4 0-6.6-.1l-6.6-.4c-5.3-.4-11 .5-11.1-6.5v-1.1Zm-7.2 4.4c.3-1.2 1.2-1.5 2.1-1.8.462.251.869.591 1.2 1a9.494 9.494 0 0 0 1.4 4.4c-.3 1.1-.8 2.2-1.6 2.4-.3-2.6-1.3-4.6-3.2-5.4-.015-.205.02-.411.1-.6Zm-246.5 76.8c2.51-.436 5.052-.67 7.6-.7.7 0 2.9.1 5.4.4l1.3.2h.7l1.4.3 1.3.3 1.3.3 1 .4 1.3.7c.266.251.471.558.6.9a1.302 1.302 0 0 1-.3 1.3 5.397 5.397 0 0 1-2.7 1l-1.2.2-3.1.5c-1.4.2-2.8.5-4.3.6l-2.1.3-2.2.2h-1.5l-2.8.3h-5.2l-2.9-.4a5.395 5.395 0 0 1-2.3-1c.2-1.4.5-2.9.7-4.4h.5l7.5-1.4Zm-78.7 41.5h-.5l-7 2.8c-1.9.7-3.8 1.4-5.7 1.9-2.9.7-5.6 1-7.3.1a19.906 19.906 0 0 1 7.1-2.8c2-.4.7-2.4-.3-3-1-.6-5.1-2.2-2.6-3.9 2.5-1.7 6.1.4 8.2.8l8.9 1.3a6.774 6.774 0 0 0-.7 2 2.01 2.01 0 0 0-.1.8Zm43.3-6.2c0 .3-.1.6-.1.9l-.3 6-1.7.4-5 1.6a39.026 39.026 0 0 1-7.6 1.4l-2.5.2H251a28.882 28.882 0 0 1-5.1-.2c-.872-.05-1.74-.151-2.6-.3a48.364 48.364 0 0 1-6.4-1l-1.8-.6-.6-.3-.8-.5a3.196 3.196 0 0 1-.9-1.7v-1a.698.698 0 0 0 .1-.5l.6-1.4a11.614 11.614 0 0 1 1.8-2.4 9.437 9.437 0 0 1 1.8-1.2 12.407 12.407 0 0 1 2-1 45.507 45.507 0 0 1 21-3.5l2.6.3 2.5.4 1.3.2 1.4.3 1.4.4 1.1.6a2.997 2.997 0 0 1 .4 2.9Zm256.8-94.2c2-2 4.4-3.5 6.6-5.3 2.2-1.8 5.1-5.7 8-8.2 1.2-1 3.3-2.7 4.9-2.6 1.6.1 1.1.8 1.7 1.9a11.76 11.76 0 0 0 1.4 2.2c.6.6 1.5 1.1 1.8 1.8.3.7.1 3.8 0 5.2a43.025 43.025 0 0 1-2.3 9.4c-1.3 3.7-3.5 7.6-7 9.8a8.493 8.493 0 0 1-2.6 1.1 10.806 10.806 0 0 0-2.8-5c-2.9-2.8-7.2-2.4-10.3-.2a7.3 7.3 0 0 1 .6-10.1Zm9 15.4c-.5 0-6.8-2.2-6.4-2.7l.3-.3c1.6-1.5 4.7.3 5.6 1.9.185.358.352.725.5 1.1Zm-21.3 35-1.4-1.2a21.979 21.979 0 0 1-4.7-5.4c-1.7-3-.9-4.4.9-6.9s5.3-7.5 8-11.2c2.7-3.7 5.1-8.6 9.1-10.8.2 0 .3.2.4.3a20.097 20.097 0 0 0 9.6 3.8c.08.63.114 1.265.1 1.9.3 3.9.4 7.8.4 11.7.1 5.6-.3 13.9-4.3 18.8-1.8-2.5-4.1-5.4-7.4-5.6a14.601 14.601 0 0 0-9.8 3.7l-.9.9Zm15.7 3.3c-.944.553-1.952.989-3 1.3-3.5 1-7-.5-10.1-2.6a9.608 9.608 0 0 1 5-2.8 5.525 5.525 0 0 1 1.8-.2c2.7-.1 4.8 2.3 6.3 4.3Zm-12.4 13.4c-1.1-3.2-3-7.9-2.3-11.5 4.2 2.8 9.2 4.6 14.2 2.4a20.009 20.009 0 0 0 2.5-1.4c.5 1 1.1 1.8 1.5 2.5 2 3 3.8 6.1 5.5 9.3 1.7 3.2 5.2 9.1 2.6 13.8a12.694 12.694 0 0 1-3.7 3.6 7.212 7.212 0 0 0-1.7-2.2c-3.6-3.3-8.5-2.9-12.8-1.6l-1.3-2.7a104.766 104.766 0 0 1-4.5-12.2Zm17.3 20.5c-2.6 1.3-5.3 1.8-7.2.6a9.087 9.087 0 0 1-2.5-2.9c3.8-.8 7.4-1.2 9.7 2.3Zm-17 28.2c-.7-3 .1-6.8.4-9.8.5-6.6 0-13.7 3.7-19.3 1.7 3 4 5.5 7.5 5.5a16.396 16.396 0 0 0 6.8-1.3 35.81 35.81 0 0 1 .8 8.6c.2 3.8.9 11.3-.6 16.5a9.502 9.502 0 0 0-11.4 1.1 34.221 34.221 0 0 1-2.7 2.7c-2.2-1-4.1-2.3-4.5-4Zm15.7 4.8c-1.1 1.3-3.8 1.2-5.3.9l-2.4-.5c.3 0 1.5-1.9 1.8-2.1l.8-.5a4.594 4.594 0 0 1 2-.5c1.4 0 4.6 1.1 3.1 2.7Zm-9.2 19.5c-2.2-5.4-2.6-11.2-.4-16l1.1.3c2.5.8 4.9 1.6 7.5 1a9.399 9.399 0 0 0 4.9-3.2c3.6 3.2 5.9 8 7.8 13a36.22 36.22 0 0 1 1.8 8.3l-1.7-.4c-4.6-.7-7.6 1.5-10.4 4.8-.5.7-3.3 4.9-2.5 5.8-3.7-3.9-6.4-9.4-8.1-13.6Zm11.4 11.6c1-1.8 2.5-2.5 4.2-3.5 1.7-1 4.6-1.8 7.1-.6h.2c0 6.3-1.9 12-8.4 10.1a11.012 11.012 0 0 1-4-2.1c-.8-.4.6-3.3.9-3.9Zm16.3 20.9a7.4 7.4 0 0 0-3 3.9 7.896 7.896 0 0 1-4.5-.9c-2.9-1.6-4.9-4.6-6.4-7.5a30.083 30.083 0 0 1-2.7-7.2 13.098 13.098 0 0 0 7 1.5c5.7-.6 8-5.8 8.6-11.6l2.3 2.5c4.6 5.3 10.1 13 4.6 18.7a6.895 6.895 0 0 0-5.9.6Zm5.6 7.5-.6.6a5.096 5.096 0 0 1-2.7.6 1.996 1.996 0 0 1-1.4-.6 3.898 3.898 0 0 1-.2-1.5 28.474 28.474 0 0 0 5.5-2.8c.155.22.289.455.4.7a2.597 2.597 0 0 1-.6 2.8l-.4.2ZM291.8 693l.3-.2c2.2-1.4 4.4-2.7 6.7-3.9l1.7-.9 3.5-1.6a56.295 56.295 0 0 1 16.8-4.4l3.7-.3h3.9a74.16 74.16 0 0 1 8 .7l4 .8a36.994 36.994 0 0 1 5.6 1.9 21.67 21.67 0 0 1 3.4 1.7l1.6 1c.1.1.3.2.4.4.1.2 2.6 2.6 2.7 3.9.023.238-.012.478-.1.7a2 2 0 0 1-1.1.7l-1.1.5-.7.2-1.6.5h-.2c-2.1.8-4.2 1.5-6.4 2.1l-2.2.5-4.5 1c-2.333.4-4.633.7-6.9.9-2.267.2-4.567.4-6.9.6l-6.9.4h-4.4a44.202 44.202 0 0 1-11.5-1.4h2.6l.6-.5c.111-.182.18-.387.2-.6a.703.703 0 0 0-.6-.6h-.9a1.097 1.097 0 0 1-.8-.2c-.2-.2-.2-.4-.3-.6l.2-.6.4-.6a.997.997 0 0 0 .5-.4 12.113 12.113 0 0 1 3-1.1l1.1-.2.7-.2h.1a.402.402 0 0 0 .1-.5.105.105 0 0 0-.029-.071.105.105 0 0 0-.071-.029h-.6l-2.2.2h-.7c-.1-.1-.2-.1-.2-.2v-.4l.3-.3.7-.2 3-.2h.3l.8-.2c.266-.12.48-.333.6-.6a1.101 1.101 0 0 0-.6-1.1h-1.2l-1 .3h-.3c-.963.244-1.901.579-2.8 1-.891.438-1.73.975-2.5 1.6a1.201 1.201 0 0 0-.2 1.6l.2.2-.8.7-.6.9c-.151.326-.284.66-.4 1-.1.3-.1.7-.2 1.1v.3l.3.6.3.2-1.8-.6a23.37 23.37 0 0 1-4.9-2.7l-.3-2.2c0-.6.1-.6.2-.6Zm3.9 237.3-3.7-4.9c-2.5-3.2-5.2-6.3-7.6-9.7a48.765 48.765 0 0 1-6.3-10.5 24.53 24.53 0 0 1-1.7-5 16.493 16.493 0 0 1-.6-3.2 28.263 28.263 0 0 1-.1-6.5c.2-1.1.3-2.2.5-3.2a55.281 55.281 0 0 1 2.6-8.2c1.8-4.5 3.8-9 5.6-13.6.8-1.8 1.5-3.6 2.2-5.4.7-1.8 1.4-3.6 2-5.5.6-1.9 1.2-3.7 1.8-5.5a90.483 90.483 0 0 0 2.5-11.5c.2-1 .3-2 .4-3 .116-.795.183-1.597.2-2.4.182-2.462.216-4.933.1-7.4a63.824 63.824 0 0 0-1-9.8c1.2 2.6 2.4 5.2 3.5 7.8 1.1 2.6 1.8 4.1 2.5 6.2a42.791 42.791 0 0 1 1.5 4.7c.3 1.1.6 2.1.8 3.2.2 1.1.4 2.2.5 3.2l.3 3.3c0 1.1 0 2.2-.1 3.4-.1 1.2-.1 1.1-.1 1.7 0 .6-.3 2.2-.5 3.3-.2 1.1-.5 2.1-.7 3.2-.2 1.1-.9 3.3-1.4 4.9-.5 1.6-.6 2.1-1 3.2-1.2 3.7-2.6 7.4-3.8 11-2.7 8.3-5.8 16.7-6.9 25.3-.1.4-.1.9-.2 1.3-.1 1.332-.1 2.669 0 4a36.9 36.9 0 0 0 4.3 14.9c1.2 2.4 2.5 4.8 3.8 7.2 1.3 2.4 2.6 4.7 3.8 7.2 1.2 2.5 1.5 3.3 2.2 5l-1-1.8a62.061 62.061 0 0 0-4.4-6.9Zm30.4 32.5-1-.2-1.2-.3a28.922 28.922 0 0 0-6.5-.5c-1.5-6.6-3-13.2-4.3-19.8-.8-4.5-1.6-8.9-2.2-13.4a123.814 123.814 0 0 1-1.1-20.2c.5-17.4 7.6-33.2 10.1-50.2a97.727 97.727 0 0 0 .7-20.9c-.1-1.7-.2-3.4-.4-5.1l-.3-2.6-.9-5.1c-.3-1.7-.6-3.4-1-5.1-.4-1.7-1.1-5-1.8-7.5l-1.5-5a270.742 270.742 0 0 0-10.9-29.3c-2.1-5.1-4.3-10.1-6.5-15.2l-4.4-10.1c-2.467-6-4.867-12-7.2-18-1.2-3.4-2.4-6.9-3.5-10.4-.6-1.8-1.1-3.5-1.6-5.3a141.172 141.172 0 0 1-4.8-24.3c-.333-3.2-.533-6.4-.6-9.6-.1-2.2-.1-4.3-.1-6.4 0-2.1 0-4.3.1-6.5l.3-6.4c.4-5.3.9-10.7 1.4-16l.6-6.4.6-6.4c.8-7.5 1.4-15 1.6-22.5.2-3.2.2-6.4.1-9.6-.1-3.2-.1-4.3-.2-6.4-.1-2.1-.3-4.3-.5-6.5-1.3-12.2-5.2-24.7-8.7-37.1-3-10.4-5.7-20.7-6.5-31-.1-2.1-.2-4.1-.2-6.1a56.23 56.23 0 0 1 .7-9.2 51.879 51.879 0 0 1 4.6-15 78.001 78.001 0 0 0-1.8 19.3c0 1.6.1 3.2.2 4.9.1 1.7.5 4.8.9 7.2l.9 4.7.6 2.4c2.9 11.6 8.4 22 13.6 32.6l2.6 5.4c.8 1.7 1.7 3.5 2.5 5.3.8 1.8 2.4 6.1 3.4 9.1l.9 3.1c.5 2 1 4.1 1.4 6.1.4 2 .7 4.1.9 6.2a98.531 98.531 0 0 1-.4 25.4c-1.2 8-2.8 16-4.4 24a214.058 214.058 0 0 0-3.8 24c-.2 2-.3 3.9-.4 5.9a86.269 86.269 0 0 0 .4 11.4c.3 2.9.7 5.7 1.2 8.5s.8 3.7 1.3 5.6c.5 1.9 1 3.7 1.6 5.5.6 1.8 1.9 5.5 3 8.2 1.1 2.7 1.6 3.6 2.5 5.4 2.5 5.4 5.3 10.6 8.3 15.7l1.5 2.6c3.5 5.9 7.2 11.8 10.7 17.7a25.573 25.573 0 0 1 1.6 2.8c2.7 4.5 5.2 9.2 7.6 14a189.029 189.029 0 0 1 12.1 29.9l1.7 6.2c.5 2.1.9 4.2 1.3 6.3a102.196 102.196 0 0 1 .8 38.2c-.3 1.5-.6 3-1 4.6-.4 1.6-1 4.1-1.6 6.3-.6 2.2-1 3.2-1.6 4.8-.6 1.6-.7 2.1-1.1 3.2-.213.552-.38 1.121-.5 1.7l-1.2 3.3a11.094 11.094 0 0 1-.7 1.6l-1.2 3.4-.6 1.7c-.5 1.1-.9 2.2-1.3 3.3l-1.9 5.1a34.296 34.296 0 0 1-1.3 3.4l-1.2 3.5c-.4 1.1-.8 2.3-1.1 3.4-.3 1.1-.8 2.3-1.1 3.5-.9 2.8-1.7 5.7-2.4 8.6a8.49 8.49 0 0 0-.4 1.7 90.855 90.855 0 0 0-1.8 10.2c-.1.6-.1 1.2-.2 1.7-.9 10.8.7 21.2 6.6 31Zm32.2 7c-2.8.8-5.6 2-8.6 2.5s-7.4-.7-10.9-3.4a34.727 34.727 0 0 0-10.3-5.4 35.454 35.454 0 0 1-1.6-3.4c-2.7-6.3-3.8-13.4-3.6-17.1a74.206 74.206 0 0 1 8.2-1.6c3-.5 9.9-2.2 12.3.3a1.8 1.8 0 0 0 2.1.3c3.5-2.4 7.6-2.6 10.6-.5a7.525 7.525 0 0 1 1.7 1.4 11.921 11.921 0 0 1 1.8 2.9c.3.9 1.3 1.8 2.3 1.4l1.6-.7c.4 3.3.7 6.6 1 10 0 .4.1.8.1 1.2.2 2.5 0 6.7.3 10.8-2.383.101-4.74.539-7 1.3ZM480.6 983c-5.1 2-10.4 1.9-15.8 1.4h-2.2l-2.2-.3c-2.6-.2-5.2-.4-7.8-.4h-1.1l-12.7.2-12.6.3a39.818 39.818 0 0 1-6.9-.4 82.063 82.063 0 0 1-8.6-1.8c-4.1-1-8-2.2-12-3l-2.9-.5-4.6-.5a29.725 29.725 0 0 1-4.3-.9l-1.4-.4-2.6-1.2-6.6-3.1a5.892 5.892 0 0 1-1.9-1.1 6.395 6.395 0 0 1-1.3-3.3 38.457 38.457 0 0 1-.8-4.9 39.316 39.316 0 0 1-.6-4.8c0-4.5 0-9 .1-13.5v-13.5c.81.011 1.618-.09 2.4-.3a11.976 11.976 0 0 0 3.3-1.3 17.307 17.307 0 0 0 5.2-4.9 25.598 25.598 0 0 0 2.7-5.5c.226-.616.393-1.252.5-1.9 1.2-5.1.6-10.2-.1-15.4-.7-5.2-1.3-9.1-1-13.6l1.8-1.3 5.7-3.8a55.147 55.147 0 0 0 5.5-4l1.7-1.5a2.5 2.5 0 0 0 .7-1.2 2.404 2.404 0 0 0-1.2-2.5 3.41 3.41 0 0 0-1.2-.4h-.4l-.9.2-2.1 1.1c-2.1 1.1-4 2.5-6 3.8l-1 .7c-2.4 1.5-5.3 3.1-7.1 5.1a7.098 7.098 0 0 0-1.4 4.7c0 3.2 1 6.7 1.5 9.1.5 2.4.5 2.3.7 3.4l.6 2.4a33.12 33.12 0 0 1 1.1 9.4c-.017.77-.084 1.539-.2 2.3l-.3 1.2a27.383 27.383 0 0 1-1.5 4c-.4.6-.7 1.3-1.1 1.8a12.101 12.101 0 0 1-2.1 2.4l-1.6 1.2a8.697 8.697 0 0 1-5 1.3l-.3-5.2c-.2-5.2-.7-10.5-.9-15.7-.1-2.2-.4-4.5-.7-6.8-.3-2.3-.6-3.8-.8-5.7-.2-1.9-.1-1.9-.2-2.8a21.208 21.208 0 0 1 .7-6.7 11.393 11.393 0 0 1 1.5-3.6c.408-.737.876-1.44 1.4-2.1a25.711 25.711 0 0 1 3.5-3.9l2.9-2.6 2.9-2.6.9-.9c4.2-4 8.1-8.2 11.8-12.5l5.6-6.6c1.8-2.2 3.6-4.5 5.3-6.8l5.1-6.7 5-6.7c1.4-1.8 2.5-3.7 3.8-5.4l2.4-3.2a14.577 14.577 0 0 1 1.6-1.9 8.907 8.907 0 0 1 3.2-2.1l1.8-.4 2.1-.2a35 35 0 0 0 9.1-1.2 7.702 7.702 0 0 0 3.5-2.1c.345-.342.617-.75.8-1.2l.3-.4c.2-.3.3-.7.5-1l1-1.8a30.706 30.706 0 0 1 2.8-4.2c1.4-1.8 2.9-3.5 4.4-5.1l2.4-2.3 8.6-8.1 2.2-2.3c3.1-3 6-6 8.8-9.3 1.4-1.6 2.8-3.2 4.1-4.9l1.8-2.6c2.4.3 4.8.8 7.2 1.3l3.5.6 3.6.6 1.1.2c2.445.09 4.882.323 7.3.7l1.2.2 1.2.9a23.993 23.993 0 0 0 3.9 2l1.4.4h.7l1.4.2h.7l1.4-.2a31.915 31.915 0 0 0 9.8-4.5l2.1-1.4 2-1.5 2-1.5 1-.7 2.2.4h1.1l3.2.2h1.7l2.3.2 1.3.2h2.9a10.99 10.99 0 0 0 4.1-.6h1.1a34.68 34.68 0 0 0 6.2-2.9l2.2-1.4.8-.6 1.4-1a22.094 22.094 0 0 0 4.4-4.2c1.6-1.9 2.4-3.8 2.2-5.6 3.2-2.2 6.4-4.6 9.4-7.1a84.948 84.948 0 0 0 13.2-14.3h1.1c.41.053.813.154 1.2.3a10.901 10.901 0 0 1 3.5 1.9l2.1 1.6.8.7 2.6 2c2.7 1.8 5.4 3.4 8.3 5 2.9 1.6 5.6 2.9 8.5 4.2 2.9 1.3 5.7 2.8 8.5 4.4a20.483 20.483 0 0 1 3.5 2.5 40.298 40.298 0 0 1 4.5 4.7c1.5 1.6 2.9 3.3 4.3 4.9 1.4 1.6 3.9 4.4 5.8 6.7l3 3.3a147.451 147.451 0 0 0 12.4 12.6l3.5 2.9c3.1 2.4 6.5 4.7 9.8 7l3.3 2.2a35.986 35.986 0 0 0 3.6 2.3c3.4 2.2 6.6 4.2 9.3 7.8a22.614 22.614 0 0 1 3.5 9c.2 1.1.4 2.2.5 3.2.086.577.219 1.146.4 1.7.3 1.7.9 3.3 1.2 5a8.32 8.32 0 0 1 .1 2.2c-.018.44-.085.876-.2 1.3 0 .3-.1.5-.1.7a6.94 6.94 0 0 1-.5 1.3l-.8 1.6a16.967 16.967 0 0 1-2.3 3 4.587 4.587 0 0 1-.7.7l-2 2-3.5 3.1-.7.6c-3.2 3.1-6.5 6-9.8 8.9-3.3 2.9-6.8 5.7-10.3 8.4l-2.2 1.8a3.505 3.505 0 0 0-.1-2 10.22 10.22 0 0 0-2.4-3.8 20.494 20.494 0 0 0-2.7-2.3l-2.1-1.4-2-1.3-2.9-2.1-1.7-1.6c-.8-.9-7-8.8-7.4-8.3 2.2-2.8 4.4-5.7 6.4-8.6l1.3-2.1c.5-.6.9-1.3 1.4-2l1.2-1.4c.8-.9 1.7-2 1.7-2.6.307-.352.544-.759.7-1.2.6-2.1-1.8-4.3-3.4-5.2h-.3a1.907 1.907 0 0 0-1-.3 2.202 2.202 0 0 0-1.6.9l-.5.6c-.192.518-.426 1.02-.7 1.5-.095.254-.23.49-.4.7-1 1.2-1.9 2.4-2.9 3.5l-2.5 2.8-1.2 1.4-1.2 1.4-2 2.4c-1.7-2.7-2.7-5.8-3.9-8.8a49.007 49.007 0 0 0-2.4-5.2 18.964 18.964 0 0 0-2.5-3.1l-1.6-1.4c-2.7-2.2-5.9-4-8.4-6.1l-3.7-3.3c-4.9-4.4-9.4-9.2-13.8-14-2.2-2.5-4.4-4.9-6.5-7.4l-3.3-3.6-1.6-1.8-1.3-1.6-.7-.9-1.2-1.8-.6-1-.7-1.1a7.533 7.533 0 0 0-.7-1.2l-.3-.4a3.807 3.807 0 0 0-.9-.9 3.405 3.405 0 0 0-2.5-1 2.994 2.994 0 0 0-2.4 1.1 3.08 3.08 0 0 0-.5 1 3.698 3.698 0 0 0-.5 1.1c-.156.725-.256 1.46-.3 2.2a16.862 16.862 0 0 0-.1 3.2 9.662 9.662 0 0 0 .1 1.7c-.02.569.013 1.138.1 1.7 0 .6.1 1.1.1 1.7 0 .6.3 2.1.4 3-.02.436.013.873.1 1.3v1.9c-.7 6.8-2.1 13.6-3.4 20.4-.8 4.1-1.6 8.2-2.2 12.2a21.936 21.936 0 0 0-.3 3.6c.005 1.14.105 2.277.3 3.4.1 1.1.3 2.2.5 3.4l.6 3.4c.8 5.1 1.6 10.1 2.2 15 .4 3.333.7 6.633.9 9.9.402 5.056.502 10.132.3 15.2v2a20.8 20.8 0 0 0 .6 3.6c.2.7.5 1.3.7 1.9.144.28.311.548.5.8l.3.4.9.9.8.4 1.3.2a7.094 7.094 0 0 0 3.3-1l4.8-2.8 9.6-5.4 4.9-2.6c3.2-1.6 6.5-3 9.7-4.5l2.4-1.2a42.319 42.319 0 0 0 6.9-4.4l.7-.6.3-.3 1.3-1.3.5-.5c-.3 3.6-.7 7.2-1.3 10.7-.3 1.1-.5 2.3-.8 3.4-.3 1.1-.3 1.2-.4 1.8-.1.6-.7 2.2-1.1 3.3-.19.584-.424 1.152-.7 1.7a44.51 44.51 0 0 1-2.4 4.9l-1 1.5c-.9 1.5-1.9 3-2.7 4.5a9.198 9.198 0 0 0-.4 8.1 9.36 9.36 0 0 0 1.2 2.2l.7 1a61.166 61.166 0 0 1 4 4.9c.393.705.727 1.441 1 2.2l.3 1.5c.082.224.116.462.1.7.08.53.113 1.065.1 1.6v.6a6.396 6.396 0 0 0 .1 2 1.4 1.4 0 0 0 .4.7h.3a.5.5 0 0 0 .2-.4 8.378 8.378 0 0 0 .5-1.7c.023-.168.057-.335.1-.5a12.86 12.86 0 0 1 .4-1.9c.116-.593.183-1.195.2-1.8a8.813 8.813 0 0 0-.7-3.3 26.42 26.42 0 0 0-2.9-4.9c-2.3-3.6-3.5-5.7-1.1-9.8.374-.703.809-1.372 1.3-2 .6-1 1.4-1.9 2-2.9l1.3-2 .6-1.1a55.914 55.914 0 0 0 3.7-9.1l.9-3.2 2.5-1.5 7.2-4.9 3.6-2.3c.8-.6 1.7-1.1 2.4-1.7l1.2-.8a13.428 13.428 0 0 0 2.1-2l1.6 1.6 1.1 1.3.5.6c.301.457.635.892 1 1.3 1.8 2.3 3.7 4.1 7 2.7a17.094 17.094 0 0 0-2.1 2.6 6.084 6.084 0 0 0-.7 1l-.8 1.4-.7 1.4-1.2 2.8a58.569 58.569 0 0 1-2.3 5.8v.4l-1.5 3.3c-1.4 3.3-2.9 6.6-4.4 9.9l-1.8 4.4c-1.2 3-2.3 5.9-3.4 8.9s-1.1 3-1.7 4.5a36.325 36.325 0 0 1-2.1 4.7l-1.7 2.9a18.793 18.793 0 0 1-5.9 6c-1.241.55-2.554.92-3.9 1.1a25.287 25.287 0 0 1-6.7-.5l-2.5-.4a89.904 89.904 0 0 0-16.4-1.2h-4c-2.8.2-5.5.5-8.2.9a96.687 96.687 0 0 0-31 10.2l-3.6 2-25.7 15.5-16.9 10.6c-8.5 5.3-16.8 10.8-25 16.4a23.728 23.728 0 0 1-3 1.8 9.46 9.46 0 0 1-2.1.9Zm156.3-120.8-3.1 2-3 2.1a94.747 94.747 0 0 0 1.3-10.7c.1-1.2.1-2.4.1-3.6a27.334 27.334 0 0 0 2.4-2.6 5.994 5.994 0 0 0 1.1-1.4l.6-.8v-.2l1.3 1.5 3 2.5 1.6 1.1 2.1 2 2.1 1.8-1.3.7a56.769 56.769 0 0 0-6 4l-2.2 1.6Zm-14.5-11.9-1.6 2.1c-3.5 1.9-7.2 3.3-10.7 5.1-5.7 2.9-11.6 5.9-17.3 9.1l-5.7 3.1c-1.3-7.8-3.3-15.6-5-23.3l-1.5-6.3-1.2-6.4c-.1-.4-.1-.7-.2-1.1a16.382 16.382 0 0 0-.2-2.2v-1.2c-.1-.8-.1-1.6-.2-2.3l-.3-2.3c.2-6.3 1.4-12.5 2.5-18.8.2-.8.5-1.7.7-2.6.41-1.266.678-2.574.8-3.9.183-1.292.216-2.6.1-3.9.119-.645.287-1.28.5-1.9.1-.7.3-1.3.4-2 .1-.7.3-2.4.4-3.6.1-1.2.5-2.2.7-3.3.2-1.1.1-.7.1-1l.3.3.6.4.4.2.8.9 1.8 1.9.9 1 3.9 3.4a19.895 19.895 0 0 0 1.9 2.2c1.9 2.2 3.8 4.3 5.9 6.4l5.5 5.6a324.777 324.777 0 0 0 16.9 16.3c.2.9.5 1.7.7 2.5a78.856 78.856 0 0 0 3.3 7.2l1.8 3.8c.6 1.2 1.1 2.5 1.8 3.7-.391.447-.758.915-1.1 1.4l-3.9 4.7-3.8 4.8Z"/><path fill="#FFFFFF" d="m261.9 667.4-1.2-.3a2.106 2.106 0 0 0-1.85.325 2.102 2.102 0 0 0-.85 1.675 2.102 2.102 0 0 0 2.7 2l1.2-.3c.353-.123.659-.353.876-.657a1.804 1.804 0 0 0-.876-2.743ZM710.1 940.4c5.2-.8 10.5-.7 15.7-1.1a43.061 43.061 0 0 1 6.2-.1c10.2.3 20.3 2.5 30.1-2.2a.904.904 0 0 0 .5-.9c0-.6-.4-1.2-1-1.1-6.1.7-11.9 1.3-17.8 1.5 4.2-7.1 2.8-16 4.2-24.1 1.1-6.4 5.3-10.3 9.5-14.9a47.394 47.394 0 0 0 8.6-12.7c9-19.4 5.6-42.1-1-61.7-1.5-4.5-3.3-9-5.2-13.5-2.9-6.8-7.5-14.7-5.1-22.4 1.7-5.3 5.9-9.6 9-14.1a105.722 105.722 0 0 0 9.5-17.5c8.5-19.9 9.4-41 6-62-.3-2.2-.7-4.5-1.2-6.7-5.8-28.9-17.3-56.9-12.4-86.8.3-1.8-2.3-2.6-2.7-.8-1.2 5.5-3.5 10.8-4.3 16.4-.1.9-.3 1.8-.4 2.7-1.1 6.1-2.5 12.1-2.7 18.4-.5 11.8.4 23.7-.3 35.5-1.3 23.8-9.8 46.3-13.8 69.6.016-.635-.017-1.27-.1-1.9-2.3-20.2-15.9-38.9-9.7-59.8.5-1.5-1.6-2.3-2.5-1-9 14.1-.8 31.4.5 46.4 1.5 17.3-9 30.8-15.1 46.1-6.8 16.9-2.3 32.9.8 50.1 1.7 9.9 1.7 19.3-1 29.1s-5.7 16.3-7.6 24.7a50.293 50.293 0 0 0 .8 26.4c2.6 8.8 6.9 18.4 13.1 25.2a29.297 29.297 0 0 0 3.4 9.2c-4.96.04-9.909.475-14.8 1.3-.311.082-.59.257-.8.5a1.502 1.502 0 0 0 .763 2.124c.266.105.556.131.837.076Zm34.9-184c.1-1.9.3-3.8.5-5.7 2.1-17.4 7.3-34.2 10.9-51.3.6-2.8 1.1-5.7 1.6-8.6.5-2.9.5-2.8.7-4.3.2-1.5.4-2.9.5-4.3.482-3.881.716-7.789.7-11.7v-4c0-2.6-.1-5.3-.2-7.9-.1-2.6-.2-5.4-.2-8.1l-.3-8c0-2.7-.1-5.4 0-8 .1-2.6.2-5.3.4-7.9a63.955 63.955 0 0 1 1-7.8l.3-1.8.3-1.8c.001 4.615.301 9.224.9 13.8 1.6 12.6 5.1 25.1 8.4 37.3l.9 3.3c.2 1 .5 2 .7 3 1.9 7 3.6 14.2 4.8 21.4.2 1.2.4 2.4.5 3.7.515 3.678.782 7.386.8 11.1.035 4.546-.232 9.089-.8 13.6a111.918 111.918 0 0 1-5 21.9 106.297 106.297 0 0 1-12.5 25l-5.3 7.8a28.26 28.26 0 0 0-2.8 4.6 24.906 24.906 0 0 0-2 5.8 24.396 24.396 0 0 0-.2 8.1 34.479 34.479 0 0 0 1.5 6.6l1 2.7.6 1.4c.5 1.3 1.1 2.6 1.6 3.8l1.6 3.9c2.1 5.3 4 10.6 5.6 16.1a89.516 89.516 0 0 1 3 12.4c.181.69.315 1.392.4 2.1l.6 4.1c.1 1.4.3 2.8.3 4.2 0 1.4.2 2.8.2 4.2a66.199 66.199 0 0 1-1.6 14.7 30.363 30.363 0 0 1-1.2 4.3 17.235 17.235 0 0 1-.7 2.1 45.247 45.247 0 0 1-3.8 8l-1.2 1.9a44.344 44.344 0 0 1-4.4 5.3c-2 2.3-4.2 4.5-6.1 6.9-.4.6-.9 1.2-1.3 1.9a18.505 18.505 0 0 0-1.9 3.7 34.083 34.083 0 0 0-1.9 10.1v2c-.1 3.2.2 6.5-.1 9.7-.1.4-.1.8-.2 1.2-.076.776-.21 1.544-.4 2.3-.222.782-.489 1.55-.8 2.3a24.93 24.93 0 0 1-1.8 3.1h-8a24.902 24.902 0 0 1-5.4-15.1c.005-2.445.206-4.887.6-7.3a61.225 61.225 0 0 1 2.4-9.1c3-8.5 7.7-16.7 11.3-23.5 1.9-3.7 3.7-7.5 5.2-11.3a82.822 82.822 0 0 0 5.4-19.8c.3-2.7.5-5.3.7-8 .285-6.67.118-13.352-.5-20-.1-1.3-.2-2.7-.4-4l-.6-5.6c-.6-5.6-1.4-11.2-2.1-16.8-1.7-13.3-3.1-26.5-2.2-39.7Zm-.7 58.4c1.3 11.8 2.2 23.9.4 35.8-1.8 11.9-6.9 22.8-12.7 33.5-1.8 3.3-3.6 6.9-5.3 10.6a100.2 100.2 0 0 1 2.1-12.2c1.8-6.9 4.1-13.7 5.8-20.7 3.2-13.8 1.8-26.4-1.6-40-3.9-15.1-6.9-28.9-1.3-44 2.7-7.5 6.2-14.7 8.2-22.2-1.2 19.8 2.1 39.3 4.4 59.2ZM724 881.2c-.3 1.2-.7 2.4-1 3.6l-.9 3.8a27.47 27.47 0 0 0-.6 7.5c.316 2.756.483 5.526.5 8.3-.1 1.6-.2 3.3-.4 5-.2 1.7-1.8 6.1-1.9 9.1a7.29 7.29 0 0 0 .4 2.7c-2.1-4.6-4.6-9.1-6.5-13.8a33.87 33.87 0 0 1-1.7-4.8 45.83 45.83 0 0 1-1.3-5 51.397 51.397 0 0 1-1-11.7 49.333 49.333 0 0 1 1.5-10 52.476 52.476 0 0 1 1.7-6l.9-3 2.1-5.9c1-3 2-5.9 2.9-9 .9-3.1 1-4 1.4-6.1.4-2.1.6-4.1.8-6.1a64.557 64.557 0 0 0-.3-12.4 7.767 7.767 0 0 0-.2-1.6c-.1-1.1-.3-2.2-.4-3.2l-.3-1.6-.6-3.2-.9-4.8c-.2-1-.4-2.1-.7-3.1-.3-1-.4-2.1-.5-3.2a84.507 84.507 0 0 1-1.5-11.1c-.1-1-.2-2.1-.2-3.1a46.912 46.912 0 0 1 2.2-16c.6-1.8 1.3-3.5 2.1-5.3.8-1.8 1.5-3.4 2.3-5.1.8-1.7.9-1.7 1.3-2.6.4-.9 1.7-3.4 2.6-5.1a123.945 123.945 0 0 0 5.8-12.9 55.174 55.174 0 0 0 1.6-5.4 50.504 50.504 0 0 0 1.1-5.6c0-.6.1-1.2.1-1.8.182-1.761.216-3.534.1-5.3.5 1.7 1 3.5 1.4 5.3a45.698 45.698 0 0 1 1.3 10.9c0 1.804-.101 3.607-.3 5.4-.2.9-.3 1.8-.5 2.7a26.68 26.68 0 0 1-.7 2.7 40.109 40.109 0 0 1-1.6 4.9c-1.7 4.8-3.8 9.4-5.7 14.2a48.208 48.208 0 0 0-1.8 4.9 51.76 51.76 0 0 0-1.8 7.3c-.1.8-.3 1.6-.4 2.5a38.757 38.757 0 0 0-.4 4.8 40.063 40.063 0 0 0-.1 4.9c-.015.835.019 1.669.1 2.5a69.5 69.5 0 0 0 .9 7.5c.3 1.7.6 3.4 1 5.1.186.945.42 1.879.7 2.8.8 3.7 1.7 7.3 2.6 10.9.2 1 .4 1.9.5 2.8 1.7 8.1 2.7 16.3 1.4 24.8a29.382 29.382 0 0 1-.5 2.9c-.8 4.1-2 8-3.1 12l-1.8 6c-.6 2-1.2 4-1.7 6Z"/></svg>