<svg xmlns="http://www.w3.org/2000/svg" fill="none" viewBox="0 0 1000 1000"><path fill="#FC5B61" d="M543.3 165.4a6.302 6.302 0 0 0-5.3 3.8 5.503 5.503 0 0 0 .462 4.467c.387.67.911 1.251 1.538 1.704a5.49 5.49 0 0 0 2.1.929 6.896 6.896 0 0 0 4.2-.8 5.895 5.895 0 0 0 3.1-3.8c.8-3.9-2.5-6.6-6.1-6.3ZM527.1 214.4c.287-.532.49-1.106.6-1.7a5.21 5.21 0 0 0-2-4.2 6.503 6.503 0 0 0-4.7-.8 5.092 5.092 0 0 0-3.8 2.3l-.3.8c-1 3.2.9 5.4 3.5 6.3l1.9.4h.9c1.5 0 3.1-1.5 3.9-3.1Z"/><path fill="#DBDBDB" d="M432.3 548.5c0-.1.1-.1.2-.1l.3-.2h.4l.9.2a1.703 1.703 0 0 1 .863 1.422 1.698 1.698 0 0 1-.763 1.478 28.504 28.504 0 0 0-3.7 2.3l-3.4 2.5-.8.6a1.002 1.002 0 0 0-.5.4c-2.3 1.6-5.6 4.2-5.8 6.3-.2 2.1.3 1.2 1 1.3.7.1 3.7-1.1 5.6-2.1l.6-.4 1.4-.8 5.8-3.2 1.9-1.1.5-.2h.8c.308.025.595.169.8.4a1.7 1.7 0 0 1 .5 1.2v1.7c0 .1-.1.2-.1.4v2.6c0 .3.1.6.1.9.069.842.202 1.678.4 2.5l.2.3c.3.6.6 1 1.2 1a1.8 1.8 0 0 0 1.3-.4 3.2 3.2 0 0 0 1.4-1.8l.3-.8c.083-.63.116-1.265.1-1.9a7.397 7.397 0 0 0-.1-2.1 71.196 71.196 0 0 0-1.4-7.4c-.1-.1-.1-.2-.1-.4a.798.798 0 0 1 .1-.4.9.9 0 0 1 .3-.6c.201-.251.462-.447.76-.569.297-.123.62-.168.94-.131.323.007.637.111.9.3.246.248.419.56.5.9 0 .1 0 .2.1.2l1.4.8 1.5.7 3.1 1.4c1.002.423 2.039.758 3.1 1 1.043.28 2.12.415 3.2.4l1.1-.2a3.198 3.198 0 0 0 1.5-.9l.3-.5c.08-.189.114-.395.1-.6a3.711 3.711 0 0 0-.8-1.5l-.5-.3-1-.6-2.3-.7h-.5l-2-.5-2-.3c-1.3-.2-2.7-.2-4-.3a1.705 1.705 0 0 1-1-.3 2.201 2.201 0 0 1-.8-1.3 1.798 1.798 0 0 1 .2-1l.3-.4 1.6-1.5 3.2-2.9 1.5-1.6 1.2-2a8.601 8.601 0 0 0 .7-2.1c.5-2.5-.4-4.7-4.1-4.6h-1a6.802 6.802 0 0 0-2 .7 13.309 13.309 0 0 0-3.7 3.1 40.485 40.485 0 0 0-5.3 8.2l-.4.9-.3.5a2.3 2.3 0 0 1-1.6.6 1.9 1.9 0 0 1-1.5-.7l-1.7-1.9-.6-.6-.7-.8-.8-.7-1.1-1a.796.796 0 0 1-.4-.4l-1.8-1.3-.7-.3-.5-.2c-.5 0-.8.1-1 .5-.168.231-.24.518-.2.8.105.376.238.744.4 1.1l.7 1.1a38.282 38.282 0 0 0 5.7 5.9Zm9.3-1.6c.9-.1 1.6.8 1.7 1.7a4.312 4.312 0 0 1-.1 1.6 1.802 1.802 0 0 1-1.6 1.3 1.7 1.7 0 0 1-1.7-1.5 6.57 6.57 0 0 1-.1-1.4 2.099 2.099 0 0 1 1.1-1.6l.7-.1ZM949.6 429.2c-3.7-2.2-20.6 1.2-20.8 6.6 0 2.3 2 3.9 3.7 5.4 4 3.5 1.3 9.7 1.5 14.5a2.402 2.402 0 0 0 2.3 2.4c3.4.3 7.1-1.7 10-3 2.9-1.3 8.2-4.1 12.5-5.7a2.498 2.498 0 0 0 1.8-2.3c-.6-5.9-5.9-14.8-11-17.9ZM927.7 367.9c-2.3-2.3-5.4-2.3-7-5.3-1.6-3-1.8-4.6-4.9-4.3-3.1.3-5.2 2.9-6.7 5.2-3.3 5.2-5.5 14.2 0 18.6 5.5 4.4 18.1 2.8 21.2-4 1.8-3.8.2-7.4-2.6-10.2ZM924.6 441.4l-1-1.6a2.295 2.295 0 0 0-2.2-.9c-2.7.3-5.4 4-6 6.5-.6 2.5.7 8.2 5.1 8.5a6.394 6.394 0 0 0 5.101-1.706 6.385 6.385 0 0 0 1.999-4.994c-.2-2.4-1.6-3.9-3-5.8ZM921.2 432.7c2.3-4.8-.3-10.3-4.7-13-4.4-2.7-11.3-2-14.1 2.6-2.8 4.6-1.4 13.9 3.4 17 4.8 3.1 13.1-1.4 15.4-6.6ZM837 520.5c-3.4.3-7.4 1.7-9.8 4.2l-.3.3c-2.9 3.3-2.2 8.4-1.6 12.4.6 4 .1 7.6-.1 11.6s-.1 9.6 3.6 10.9c1.7.6 3.3-.5 4.8-.9 3.2-.9 6.3-.4 9.5-.4s7.4-.9 9.1-5c3.2-7.6 2-20.4-2.3-27.3-2.7-4.3-7.9-6.2-12.9-5.8ZM825.8 183.7c0-.5.5-1 .5-1.6a1.604 1.604 0 0 0-1.2-1.5h-.7l-1.3.2a14.75 14.75 0 0 0-2.9 1.2l-.9.5c-.345.211-.65.482-.9.8l-.3.5v.6c0 .1 0 .1.1.2s.2.3.3.4a2.7 2.7 0 0 0 1.2.6h.5l1.1.2.4.3c.2.1.2.3.2.5a.602.602 0 0 1-.1.4 1.993 1.993 0 0 1-.4.8l-1.1 1.5-1.3 1.6a10.93 10.93 0 0 0-1.1 1.4c-.17.21-.305.447-.4.7-.122.423-.19.86-.2 1.3a2.21 2.21 0 0 0 .1.8c.08.431.25.84.5 1.2a1.8 1.8 0 0 0 .7.5l.7.3h.1a1.696 1.696 0 0 0 1.5-.5l.3-.4c.2-.5.3-1 .5-1.5.071-.264.209-.505.4-.7.225-.275.547-.454.9-.5h.2c.9.2 1 1.1 1.1 1.9a.602.602 0 0 1 .1.4c.107.3.277.573.5.8l.7.2a.798.798 0 0 0 .8-.2 5.294 5.294 0 0 0 1.3-1.6c0-.2.1-.3.1-.4.111-.182.18-.387.2-.6l.3-.5c.103-.354.312-.669.6-.9l.6-.2.7.2c.4.2.8.7 1.2.9a.79.79 0 0 0 .326.184.79.79 0 0 0 .374.016c.1.1.3 0 .4 0a2.71 2.71 0 0 0 .8-.7l.2-.2a.394.394 0 0 1 .1-.3c.153-.256.287-.523.4-.8l.3-.8a3.704 3.704 0 0 0 0-1.8v-.2a3.807 3.807 0 0 0-2.5-1.8l-.8-.2c-1.5-.2-5.4-1.2-5.2-3.2ZM808.3 156.1c1.8-.5 2.8-3 4.7-3.1 1.9-.1 2.4 1.2 3.7 1.3a2.31 2.31 0 0 0 1.045-.246 2.3 2.3 0 0 0 1.155-2.754 2.305 2.305 0 0 0-1.6-1.303 2.283 2.283 0 0 0-1.059.015c-.348.087-.67.254-.941.488-.7-.9.4-2.1 1.4-2.6 1-.5 2.4-.8 2.8-1.8.4-1-.7-2.7-2-3.1-1.3-.4-2.7-.2-4-.5a5.597 5.597 0 0 1-2.9-1.6c-1-1.1-.6-1.9-1-3.1-1-2.8-4.5-1.9-6.9-1.9-2.4 0-2.2-1-2.1-2.1.5-5.5-5.3-4-8.6-5.4-1-.3-2-.9-2.9-.5a3.402 3.402 0 0 0-1.4 2.2 5.938 5.938 0 0 1-.6 1.4 5.512 5.512 0 0 1-1.3 1.7c-1 1-2.2 1.8-3.2 2.7l-.9 1c-1.1 1.4-1.9 5.7.7 5.9a.596.596 0 0 0 .6 0c.612-.12 1.214-.287 1.8-.5h.5a1.101 1.101 0 0 1 .7.9c.15.812.045 1.65-.3 2.4-.5 1.8-.7 3.8.3 5.4a3.506 3.506 0 0 0 2.9 1.6c.465.007.92-.133 1.3-.4l.5-.4.4-.6a.809.809 0 0 0 .2-.4c.177-.349.311-.719.4-1.1l.3-.8a2.508 2.508 0 0 1 2-1.2c.2.1.5.2.6.4a1.6 1.6 0 0 1 .5 1c0 .3.1.6.1.8l.2.3a.796.796 0 0 0 .5.5h.5a.997.997 0 0 0 .5-.4 1.406 1.406 0 0 0 .3-1.3 1.405 1.405 0 0 0-.2-.6c-.1-.4-.4-.8-.5-1.2a1.903 1.903 0 0 1-.2-.7 2.295 2.295 0 0 1 .3-1.6.997.997 0 0 1 .4-.5 3.398 3.398 0 0 1 2.5-1.1h.4l1.3.5a5.41 5.41 0 0 1 1.5 1.5c.4.617.704 1.291.9 2 .4 1.8.2 3.7.7 5.6v.3c.7 1.8 2.3 3.4 4 2.9ZM586.7 913.4a27.097 27.097 0 0 1-11.2 7.4c-6.6 2-13.5.9-18.7-3.6-3.3-2.9-7.2-5.6-11.7-6.3-1.9-.3-4.1.5-5.9-.2-1.8-.7-6.6-5.7-7.8-3.9l-2.7 4.2-.2.2c-.3.6-.7 1.1-1 1.6l-.4.6-.9 1.3-.4.6-.9 1.2-.5.7-.9 1.3-.5.5-1.4 1.8 4.2-.8c6.1-1 13.5-2.9 19.6-1.4 6.1 1.5 8.5 4.7 11.2 8.8 7 10.6 10.2 23.3 17.4 33.6 8.1-6.8 10.8-19.1 15.4-28.4-1.9-4.4-1.7-10.4-2.2-14.8-.2-1.3-.3-2.8-.5-4.4ZM567.4 664.4c.6-1.2.9-4.5-.3-5.4-1.2-.9-2.3-.2-3.2 0-.9.2-4.6 3-6.8 3.4l-1.2 1.8c3.9 1.5 9.9 3.8 11.5.2Z"/><path fill="#DBDBDB" d="M566.8 960.2c-.6-1-1.2-1.9-1.7-2.9l-.2-.3-1.8-3.3-.3-.7-1.7-3.2c-.9-1.8-1.8-3.6-2.6-5.4-3.8 7.8-12.8 13.8-20.1 16.3-11.6 3.8-27 4.8-38.7.8-6.3-2.2-12.3-5.7-14.6-12.4l-.3 1.2c-1.4 4.9-2.7 9.9-4.9 14.5 3.08.566 6.12 1.334 9.1 2.3 5.8 1.8 11.4 5 17.4 6 12.6 2.1 25.7-2.7 38.2-4.2 7.9-1 17.3-1.1 24.8-4.8l-2.1-3a2.205 2.205 0 0 0-.5-.9ZM533.1 748.4c-.9 6.1-3.4 13.2 5.7 13.4 5.5.1 4.4-7.4 4.2-12-3.2-.2-6.9-.3-9.9-1.4ZM518.8 877.6a20.512 20.512 0 0 1-4.1-1.6l1.9 2.7.3.4 3.6 5.6.3.5c.6.9 1.1 1.8 1.7 2.6 2.3 3.8 5.1 7.1 7.7 10.7a64.633 64.633 0 0 0 4.4-11.6c.7-2.5 1.3-5 2.1-7.6a5.028 5.028 0 0 1-.2-1.2.401.401 0 0 1-.1-.3c0-.4-.1-.8-.1-1.2v-.5a1.311 1.311 0 0 0-.1-.6 10.941 10.941 0 0 0-.1-1.8c-5.3 3-11.1 5.4-17.3 3.9Z"/><path fill="#DBDBDB" d="M490.9 928.8c4.3-3.3 10.1-4.3 15.3-5.2l10.8-2c.5-.5 1-1.2 1.5-1.8l.5-.5 1.1-1.6.3-.4 1.2-1.8c.107-.3.277-.573.5-.8l.6-1.2 1.2-2.1.2-.4c.3-.6.6-1.1.8-1.6a39.12 39.12 0 0 1-13.6 4.1c-5.7.8-11.2 2.5-16.8 4.1-3.5 1.1-7.1 2-10.5 3.4.2 0-1.9.9-2.2 1.1-3.334 3.2-6.533 6.6-9.6 10.2-7 8.1-15 18.6-26.7 19-11.7.4-20.9-8-27.5-16.3-3.9-5-7.3-10.2-9.2-16.3a9.444 9.444 0 0 1-.5-1.8l-.6 1.5c-.1.2-.2.3-.2.5-.276.582-.51 1.184-.7 1.8h-.1l-1 2.8h-.1c-.19.583-.424 1.152-.7 1.7-.02.213-.088.418-.2.6l-.6 1.4-.3.7-.6 1.4-.3.7a17.455 17.455 0 0 1-1 1.9 65.052 65.052 0 0 1 5.1 5.4c2.8 3.4 5.3 6.7 8.8 9.4a84.016 84.016 0 0 0 28.4 14.1 79.041 79.041 0 0 0 16 2.9c3.234.182 6.476.115 9.7-.2a40.645 40.645 0 0 0 4.6-.3 3.4 3.4 0 0 0 1.9-.9c1.8-1.7 2.4-6.3 3.1-8.7.7-2.4 1.9-6.7 3-10 1.8-5.2 3.9-11.3 8.4-14.8ZM479.7 833.4l-1 .9c.9 1.7 1.9 3.3 2.9 5l.4.5a21.41 21.41 0 0 1-2.3-6.4ZM488.2 847.2a17.19 17.19 0 0 1-2.8-2.5l.6.9h.1l.7.9h.1l.5.9h.2c.186.323.353.657.5 1 .1 0 .1 0 .1.1.189.252.356.52.5.8 0 .1.1.1.1.2.204.278.372.58.5.9h.1l.4.9c0 .1.1.1.1.2l.4.9v.2l.3.8c0 .1 0 .2.1.2s.1.7.2 1c.1.3.1.6.2.9v.3c0 .3.1.6.1 1 0 .3-.1.7-.1 1v.2c-.1.4-.1.7-.2 1.1-.1.3-.1.7-.2 1a.401.401 0 0 0-.1.3c-.176.315-.31.651-.4 1h1.1c4-.8 8.4 0 12.1-1.8 3.7-1.8 4.7-3.7 7-5.5a15.178 15.178 0 0 1 3-1.7c0-.5-.1-.9-.1-1.4-8.1 3.6-18.4 1.5-25.1-3.8ZM284 519.9a21.106 21.106 0 0 1 11.5 3.6l.7.5h.1a23.91 23.91 0 0 1 5.2 4.8h.1c0 .1.1.1.1.2a93.241 93.241 0 0 1 6.1 14.3c.9 2.9 1.3 5.1.4 5.1h1.1a22.03 22.03 0 0 1 5.8.6h.2a9.675 9.675 0 0 1 2.2.8 12.75 12.75 0 0 1 2.5 1.5l.4.3a22.38 22.38 0 0 1 2.1 2.2c4.3 5.7 5.6 14.1 4 21.1 8-.3 14 7.9 16.5 15.1a30.462 30.462 0 0 1 1.6 6.1h.7c19 2.7 37.9 1.9 57 1.8 16.5-.1 32.9-.1 49.2-1.7a241.114 241.114 0 0 0 25.5-3.7 66.35 66.35 0 0 0 9-2.5c3.8-2.7 6.9-6 7.2-9.7 1-11.6-13.6-.6-17.4 1a2.203 2.203 0 0 1-2.996-1.21 2.195 2.195 0 0 1-.104-1.19c.8-4.7 5-10.6 2-15.2l-.6-.8-.3-.3c-.2-.1-.3-.3-.5-.5l-.3-.2-.3-.2c-1.8-1.3-4.2-2-6-2.9-1.8-.9-2.5-.7-2.7.3a1.198 1.198 0 0 0 .7 1.2l1.2.7a5.504 5.504 0 0 1 3 4.9 15.209 15.209 0 0 1-1 6c-1.9 6-4.7 12.7-10.6 14.9a25.927 25.927 0 0 1-7.4.9c-15.6.3-31.4 1-46.9 2.4s-34 1.7-49.6-5.2a15.094 15.094 0 0 1-4.5-2.9c-1.4-1.4-2.2-3.3-3.3-4.9-3.5-5.5-10.5-6.7-14.1-11.9-1.7-2.5-2.8-5.4-4.4-8a23.404 23.404 0 0 0-11.2-9.4 10.687 10.687 0 0 1-3.8-2 9.103 9.103 0 0 1-2.3-4.7c-1.7-6.4-3.6-13.6-9.2-17.2-3.1-2.1-7.6-2.7-10.2-5.5 0-2.6-3-7.9-3.9-10.5a2.101 2.101 0 0 0-.8-1.2h-.3a1.692 1.692 0 0 0-1.4.9 4.392 4.392 0 0 0-.1 2c.2 3.7 0 7.9-2.8 10.5a14.299 14.299 0 0 1 2.9-.2ZM471.1 856.5c-1.9 6-7.5 11.2-14.2 10.9-14.5-.7-30.6-3.4-38.8-16.8l-.7-1.1c.3 1.8.5 3.6.7 5.3.6 7.1 1 14 2.1 21a93.536 93.536 0 0 1 1.3 16.6c2.2-.9 4.7-1.1 7-1.9 7.6-2.8 14.4-8.4 21.7-12 7.3-3.6 13.9-6.3 20.4-10.7a35.286 35.286 0 0 1 13.7-5.3h.5c0-.2-.1-.4-.1-.7 0-4.5-.3-7.6-2.9-11.5-2.6-3.9-4.4-6-6.2-9.3l-1.1-2a67.916 67.916 0 0 1-3.4 17.5ZM417.3 895.6c-1.4-12.3-4.6-24.4-5.7-36.8l-.3-4.4c-5.3 6.4-12.3 11.9-20 14.2-14.1 4-25.1-4.7-30.1-17.1-3.6-8.9-5.2-18.4-6.6-27.8-1.4-9.4-1.8-17-4.3-25a12.392 12.392 0 0 1-.4-1.6l-.5.3-.6.4-.5.3h-.2l-.4.3a.103.103 0 0 0-.071.029.1.1 0 0 0-.029.071l-.4.2h-.1l-.3.2h-.4l.8 2.9c2.9 11.9 5.1 24 7.8 35.9 2.7 11.9 6.1 26.2 9.3 39.2 3.2 13 4.7 24.6 8.3 36.5 8.9 2.4 16.4 8.3 23.7 13.7l2.4 1.8c3.9-10.4 8.1-22.3 15.6-30.4.9-.6 1.9-1.8 3-2.9ZM216.2 482.2h.7a14 14 0 0 1 3.3-1.5 15.104 15.104 0 0 1 5.6.5c4.9 1.4 9 5.1 12.6 8.6 11.1-5.7 26.9-9.2 38-2.3a16.81 16.81 0 0 1 5.6 5.3 37.496 37.496 0 0 1 4.3-13.5c2.6-4.7 8.2-10.6 14.2-9 6 1.6 6.4 7.5 6.6 12.1-.01.668.024 1.336.1 2 4.3-6.1 10.9-10.7 18-7.9 3.9 1.5 4.2 4.4 2.9 7.5 3-1.194 6.073-2.196 9.2-3a68.798 68.798 0 0 1 41.8 3.2c1.3.5 4.8-4.2 5.8-5.7l.2-.2a11.899 11.899 0 0 0 2.4-6.6 8.798 8.798 0 0 0-2.2-5c-2.8-3.2-14.2-5.2-17.6-2a47.462 47.462 0 0 0-6.3 1.4c-9.3 2.7-21.2 9.1-30.5 2.8-3.5-2.4-8-7-8.3-11.6a1.402 1.402 0 0 1-1.639-1.521c.03-.288.148-.561.339-.779 4.3-5.5-4.2-6-7.5-4.5a1.599 1.599 0 0 1-2.3-1.7c.5-2.8 6.2-11.6.9-12.6s-4.7 6.9-5.2 9.5c-.5 2.6-2.4 1.5-3.1.4-.1 1.7-.1 3.3-.2 4.5 0 3.6-1.6 15.9-8.2 13.7-2.9-.9-1.1-4.5-3.3-5.5-2.2-1-5.4 2.5-6 4.8-1.8 6.6-3.2 8.7-9.8 11.2a24.204 24.204 0 0 1-15.9.9l-.6-.2c-11.3 6.4-26.7 7.3-32.8-4.1-3.1 2.1-5.9 4.3-7.5 5.6l-1.4 1.4a8.595 8.595 0 0 0-2.2 3.8Z"/><path fill="#DBDBDB" d="M333.9 511.9c2 1.7 5.1 2 7.6 2.2a41.123 41.123 0 0 0 5-.2c1.8-.1 4-.2 3.1 2.1-.9 2.3-3.5 4.4-4.8 6.5-1.3 2.1-2.4 6.9 2.5 4.3 2.7-1.4 4.4-4.1 6.2-6.4 1.8-2.3 4.6-6.7 5.6-3.2.1.461.1.939 0 1.4-.3 3-1.1 6-.9 9 .042.477.143.948.3 1.4.096.474.301.919.6 1.3a2.4 2.4 0 0 0 2.6 1c1.2-.4 1.6-1.8 1.9-3.1.436-3.45.669-6.923.7-10.4 0-.7.1-1.7.8-2 .7-.3 1.9.4 2.4 1.2 1.7 2.3 9.5 4.5 8.7-.6a6.503 6.503 0 0 0-2.4-3.3c-1.8-1.3-6.9-2.5-5.7-5.6a5.3 5.3 0 0 1 2.8-2.5 21.619 21.619 0 0 0 3.3-1.9 2.71 2.71 0 0 0 .7-.8 5.195 5.195 0 0 0 .6-5.1 5.1 5.1 0 0 0-5.1-3.1c-2.5.2-4.5 2.1-6.2 4l-4.2 4.5a4.93 4.93 0 0 1-.1-1.2c-.7-4.7-6.5-10.8-10.8-5.4a6.297 6.297 0 0 0-1 5.8c.3.9.7 1.7 1 2.5.347.855.451 1.79.3 2.7-1 3.4-7.9 1-10.4.9-2.5-.1-9.1.7-5.1 4Zm22.7-3.7a2.6 2.6 0 0 1 1.6-.7h.5a2.301 2.301 0 0 1 2.3 2.4 2 2 0 0 1-.6 1.6 2.601 2.601 0 0 1-1.7.7h-.5a2.205 2.205 0 0 1-1.556-.644A2.205 2.205 0 0 1 356 510a2.8 2.8 0 0 1 .6-1.8ZM368.1 676.7a37.1 37.1 0 0 1-14.3 5.7c-5.5 1-12.7 1.4-17.7-1.8-.1.5-.3 1-.4 1.5a2.895 2.895 0 0 1-.2.9c-.7 2.8-1.5 5.9-1 8.8a68.5 68.5 0 0 0 7 2.2c1.5-4.4 4.6-9.1 8.9-9.4 4.3-.3 6.1 1.7 8.3 4.3 2.7-3.6 8.4-5.6 9.4-10.4v-1.8ZM358.5 694.9a8.792 8.792 0 0 1-9.6.7 4.594 4.594 0 0 1-1.9-.8l-1.2-.7a40.817 40.817 0 0 0-1.5 8.7v.2c5.1.2 14.1.9 14.7-5.1a6.997 6.997 0 0 0-.5-3ZM347.8 789.3c.5-1.3 1.1-3 1.6-4.6h-.2a12.896 12.896 0 0 1-5.4-2.9 32.445 32.445 0 0 1-2.3-2.9c-.8-1.1-1.5-2.3-2.2-3.4a8.1 8.1 0 0 1-1-4.2l-1.4.4-.6.4h-.2l-.6.4-.8.6a66.391 66.391 0 0 1 10.1 20.7 11.5 11.5 0 0 0 2.5-3.4l.5-1.1ZM284.9 612.9c5.9-1.7 11.6-4.2 17.7-5.4a61.989 61.989 0 0 1 17.7-1c6.1.6 19.1 4.2 20.1-5.3a34.329 34.329 0 0 0-.4-10c-.8-4.2-2.5-9.1-6.2-11.6s-11.9-3.6-12.4.7h.1a6.7 6.7 0 0 1 4.4 7.7c-1.1 4.6-6.3 6.6-10.8 7.8-7.2 2-14 4.7-20.9 6.9-6.9 2.2-18.1 1.5-26.4 1.7l-28.5.3c-5.1.1-10.4.1-15.1-1.9-4.7-2-7.6-5.6-8-9.9-6.3 2.9-12.6-1.5-15.2-7.5l-.2-.4c-7 6.6-16.1 8.6-24.7 12.4-8.6 3.8-21.1 5.6-31.5 6.2-8.8.6-18.6.8-27.3-1.3-5.1-1.3-11.5-6.1-10.8-11.6-.397-.442-.765-.91-1.1-1.4v.4c.1.1.1.1.1.2v.2h-.1c0 .1 0 .1-.1.2-.1 0-.1.1-.1.2h-.1l-.3.3a11.303 11.303 0 0 1-2.7 1.6l-1.3.6c-1.203.438-2.44.773-3.7 1l-1.6.3h-2.4l-2.2-.2-1.4-.3a8.996 8.996 0 0 1-2.9-1.6 6.2 6.2 0 0 1-1.6-3 7.1 7.1 0 0 1 .3-4.9l.9-1.2a7.406 7.406 0 0 1 2.3-1.4 7.893 7.893 0 0 1 2.2-.6l1.2-.3c2.1-.2 4.4-.2 6.4-.2l-.3-.5a10.094 10.094 0 0 1-.7-2.3v-.6c-.017-.37.017-.74.1-1.1a1.3 1.3 0 0 1 .1-.6 6.505 6.505 0 0 1 .8-1.7 8.093 8.093 0 0 1 2.1-2l1-.6c.1 0 .2 0 .2-.1l1-.3.3-.2.7-.2h2.3a15.408 15.408 0 0 1 4.9-3.2c.017-.737.084-1.472.2-2.2l-1.1-.4-.5-.2-.7-.3-.5-.2-.7-.3-5.6-2.6h-.3l-.9-.4h-.4l-1.2-.4a6.105 6.105 0 0 0-1.3-.3h-3c-9.5.3-19.3 6.2-23.8 14.7s1.1 16.1 6.8 21.9c3.1 3.2 6.4 6 9.6 9.1 3.2 3.1 4.5 6.1 8.3 7.8 3.8 1.7 10.4 1.8 15.4 2 9.023.583 18.073.617 27.1.1 10.2-.6 19.6-4.9 28.9-8.7 9.3-3.8 18-7.4 27.4-5.1a2.307 2.307 0 0 1 1.427 1.344A2.301 2.301 0 0 1 195.8 605c-.5.8-3.5 4.5-2.7 5.6.8 1.1 3.1.3 3.8.2 3.3-.1 6.7-.8 10.1-1a2.198 2.198 0 0 1 2.242 1.773c.067.341.053.693-.042 1.027-2.3 7.1 12.9 6 16.8 5.9 12.2-.4 24.3-1.8 36.4-2.7 7.6-.7 15.2-.8 22.5-2.9ZM340.3 723.4l.3-1.7a.597.597 0 0 1 .1-.4c0-.5.1-.9.1-1.3a.904.904 0 0 0 .1-.5c0-.5.1-.9.1-1.4v-.3c.083-.596.116-1.198.1-1.8-1.9 6-6.3 11.2-12.6 12.7a16.394 16.394 0 0 1-15.7-4.9 14.594 14.594 0 0 1-3.6-6.1c-.2-1.2-.4-2.3-.5-3.5.2 2.2.3 4.5.5 6.7.3 5.7 1.1 11 6.9 13 4.2 1.5 8.8 1.7 13.2 1.8 4.1-3.9 9.6-6.3 11-12.3ZM308.5 711c.017.704.084 1.406.2 2.1a18.196 18.196 0 0 1 .1-3.3l-.3 1.2ZM310.8 689.7c3.1-2.4 7-2.6 11-1.9 0-.5-.1-1-.1-1.5l-2.3-.2c-1.6-.3-4.4-1.3-6.9-1.3s-5.6.7-8.6 1c-3 .3-8.1-3.1-8.8-6.8a26.65 26.65 0 0 1-.7-4.7 2.998 2.998 0 0 0-.4.8l-.3.8c0 .1-.1.1-.1.2s-.1.4-.1.6c0 .2-.1.5-.2.8 1.8 3.5 2.3 7.4 4.3 10.9s6.3 7.5 8.4 11.9a.298.298 0 0 1 .1-.2c.9-3.7 1.4-7.9 4.7-10.4ZM291.5 671.7c.301-.457.636-.891 1-1.3a.298.298 0 0 0 .1-.2l1.1-1.3h.1l1.2-1.4a4.706 4.706 0 0 1-1.5.6h-.2l-2.1.3a6.592 6.592 0 0 1-3-.7l-1.1-.6 1.5 2.7c.7 1.1 1.3 2.2 2 3.2l.8-1.2a.299.299 0 0 0 .1-.1ZM248.3 541.6c-2.7 1.1-4.1 4.4-2 6.7 2.1 2.3 4.3.7 6 .1 1.7-.6 4.4-3 4.5-.1a11.423 11.423 0 0 1-.3 1.8c-.115.39-.183.793-.2 1.2.025.439.092.874.2 1.3a2.603 2.603 0 0 0 1.8 1.6 2.806 2.806 0 0 0 2.8-1.6 9.512 9.512 0 0 0 .9-3.3 6.495 6.495 0 0 1 .5-2c.151-.443.389-.851.7-1.2a2.501 2.501 0 0 1 3.1-.5c.6.4.8 1.1 1.2 1.7 3.2 5.1 11-.3 7.9-4.8-3.1-4.5-8.2-1.4-10.9.1a1.797 1.797 0 0 1-2.147-.341 1.797 1.797 0 0 1-.253-2.159c1-1.8 1.2-3.8 2-5.7.8-1.9 1.7-3.2-.3-4.4a3.5 3.5 0 0 0-3.8.3 5.1 5.1 0 0 0-1.9 3 .904.904 0 0 1-.1.5 14.193 14.193 0 0 0 .1 4.1 7.006 7.006 0 0 1-.1 2.5 2.402 2.402 0 0 1-1.6 1.9 4.797 4.797 0 0 1-2.3-.5 7.8 7.8 0 0 0-5.8-.2ZM166.4 499.2a6.905 6.905 0 0 0 2.9-1.3l4.1-2.8c.7-.6 2.4-2.5 3.4-2.4 1 .1 1.9 3.8 1.8 5.2a9.5 9.5 0 0 0-.1 2.9c.2 1 1 2 2 1.9 1-.1 1.5-1 1.6-2.1.079-.429.112-.864.1-1.3a18.794 18.794 0 0 0-1.2-4.8c-.2-.7-.6-1.5-.3-2.2.3-.7 2.4-1.1 3.3-.2.9.9 1.4 2.3 2.2 3.3.8 1 2.3 1.8 3.3 1s.5-2.8-.5-3.9-2.3-2-2.5-3.4l1.4-.2 6.9-1c1-.1 2.2-.3 2.6-1.3.4-1-.6-2.5-1.8-2.8a10.095 10.095 0 0 0-3.8.6 4.711 4.711 0 0 1-3.7-.2c-1.5-1-.3-3.4.3-4.4.6-1 2.5-4 2.8-6.3a.699.699 0 0 0 .1-.5c.2-2.6-1.3-5.6-3.9-6.1-2.6-.5-5.3 1.9-6.1 4.6-.8 2.7-.6 5.5-.9 8.2-.3 2.7-.8 3.2-2.2 3.5a2.907 2.907 0 0 1-2.6-1l-1.8-2.3a5.094 5.094 0 0 0-6-1.1c-5.1 2.8.4 8.4 4.1 9 .8.1 1.8.2 2.1.9a1.298 1.298 0 0 1-.7 1.6 5.493 5.493 0 0 1-1.8.6 12.497 12.497 0 0 0-6.4 2.9 4.199 4.199 0 0 0-1.6 1.9 2.795 2.795 0 0 0 0 2.5 2.796 2.796 0 0 0 2.9 1Z"/><path fill="#DBDBDB" d="M169.3 553.8c-1.8.8-3.3 1.3-4.8-.6s-1.7-3.1-2.7-4.7c-1-1.6-2.7-2.8-4.4-2.2-1.7.6-2.1 2.7-1.6 4.3a9.893 9.893 0 0 0 3.1 4l4 3.7c-4.7-.2-9.6-.3-13.8 1.9a7.105 7.105 0 0 0-3 2.7 3.703 3.703 0 0 0 0 3.9 3.9 3.9 0 0 0 4.1 1.4 9.006 9.006 0 0 0 4-2.3c.7-.7 2-1.2 2.4-.4a1.405 1.405 0 0 1 0 1.1c-.5 1.6-2.5 6.5.7 6.6 3.2.1 3.2-2.1 4-4.1.342-.773.61-1.576.8-2.4a6.496 6.496 0 0 1 1.2-2.8 1.795 1.795 0 0 1 2.058-.607c.24.089.459.227.642.407.27.735.339 1.529.2 2.3a3.796 3.796 0 0 0 2.9 3.6c3 .6 7.7-5 3.6-6.5-1.9-.7-1.8-3.9.5-3.8 2.146.14 4.29-.31 6.2-1.3a3.302 3.302 0 0 0 1.6-4.2c-1.6-4.1-8.9-1.2-11.7 0Z"/><path fill="#FC5B61" d="M760.7 301.1c-4.1 1.3-8.6 1.6-12.6 2.3-7.1 1.3-14.2 2.8-21.3 4-7.1 1.2-14.3 2.6-21.4 2.6-3.1 0-6.4-.2-9.5-.5-3.1-.3-5.4-3.2-7.3-6.2 1.7 4.7 4.6 8.2 10.1 9.2 7.4 1.4 15.6 0 23-.6 15.9-1.4 31.6-1.7 47.1-5.8-.04-2.452.195-4.9.7-7.3.1-1.1.3-2.4.5-3.7a20.096 20.096 0 0 1-9.3 6Z"/><path fill="#FC5B61" d="M667.1 244.8c0 5.5 1.4 10.8 1.4 16.3s.3 11.2.8 17c1.2 11.9.4 24 .6 35.9.2 11.9-.5 24.6-.2 36.9 0 10.5 1.3 20.9 1.4 31.4 0 2.3-.5 3.6-1.3 4.4 9.4-.3 18.8-1.3 26.8-5.9a2.398 2.398 0 0 1 1.3-.4c.2-2.7.3-5.4.4-8.1.7-18.3.3-36.8 1.8-55.1a18.991 18.991 0 0 1-9.4-4c-3.5-2.9-5.1-7.2-6.6-11.4-2.6-7.2-4-14.7-5.9-22.2-1.9-7.5-5.4-17.7-7.7-26.6-.5-2.2-2-6.7-2.3-10.7a3.309 3.309 0 0 0-1.1 2.5ZM663.9 585.5c-5.1.3-10.1 0-15.1.2s-10.4 1.1-15.7 1.5c-5.3.4-11.6-.3-17.4-.9-.3 1.9 1.9 3.9 3.5 4.5a33.583 33.583 0 0 0 10 1.4c6.7.4 13.4-.2 20.1-.5l19.5-.9c4.1-.2 8.5-.7 12.8-.7v-.5c0-.1-.1-.3-.1-.4-4.6-.2-10.3-3.4-13.9-4.6h-.3c-.2.9-1.6.8-3.4.9ZM618.5 395.6c5.6.7 11.2 1.6 16.8 2.1 5.6.5 12.2.4 18.3.6 4.3.1 15.1-3.2 18.2.8 1.8 2.3 1.4 9.7 1.7 12.6 2.1 22.5 1.6 45.4 1.2 68.1-.3 16.9-1.1 33.7-2.7 50.5-.9 8.7-1.8 17.4-2.8 26-1 8.6-1 15.5-3.9 22.3l1.4.4a70.854 70.854 0 0 1 7.4 2.4c-.05-.966-.05-1.934 0-2.9 0-2.4 3.7-2.4 3.8 0a14.1 14.1 0 0 1-.2 4.1l3.9.8c.083-.897.117-1.799.1-2.7.3-4.7.7-9.4 1.1-14.1.9-10.1 2.1-20.1 3.2-30.2 3.9-36.3 6.9-72.7 9.3-109.1.9-13.6 1.7-27.2 2.4-40.7-6.4 3.3-14.9 3.5-21.8 3.6-8.5.2-17 .2-25.6 1-14.6 1.4-28.8 4.5-44 .4 2.7 3.1 8.7 3.5 12.2 4Zm60.8 169.5c-.6 1.9-.5 3.9-.8 5.9-.3 2-2.7 1.4-3.2 0a9.798 9.798 0 0 1 .6-6.9c.8-2 4-1.2 3.4 1Zm5.5-171.2a2.1 2.1 0 1 1 4.2 0c.2 2.7.6 6-.3 8.5a1.897 1.897 0 0 1-1.8 1.292 1.898 1.898 0 0 1-1.8-1.292c-.9-2.5-.5-5.8-.3-8.5Zm-1.1 18.2a1.903 1.903 0 0 1 3.7 0 9.91 9.91 0 0 1 .4 3.8 10.197 10.197 0 0 1-.5 3.9 1.805 1.805 0 0 1-1.75 1.379 1.8 1.8 0 0 1-1.75-1.379 10.197 10.197 0 0 1-.5-3.9c-.066-1.28.069-2.562.4-3.8Zm-.3 15.8c.1-2.8 4.3-2.8 4.3 0s.5 5.9-.6 8.5a1.599 1.599 0 0 1-2.531.867 1.599 1.599 0 0 1-.569-.867c-1-2.6-.7-5.7-.6-8.5Zm-1.7 21.6a15.489 15.489 0 0 1 1.5-4.6c1.1-2 4.2-.6 3.6 1.6a26.968 26.968 0 0 0-.9 4.1 12.51 12.51 0 0 1-.7 4.3c-.8 1.6-2.9.8-3.4-.5s-.3-3.4-.1-4.9Zm-.5 16.1c.9-1.7 3.9-1 3.7 1-.2 2-.4 2.7-.5 4.1.017.735-.017 1.47-.1 2.2a4.708 4.708 0 0 1-.6 1.9c-.6 1.2-2.2.9-2.9 0-1.8-2.5-1.1-6.7.4-9.2Zm-.9 20.3a1.904 1.904 0 0 1 2.254-.199 1.902 1.902 0 0 1 .846 2.099c-.3 1.2-.6 2.3-.8 3.6a9.789 9.789 0 0 1-.9 4.1 1.794 1.794 0 0 1-2.351.591 1.788 1.788 0 0 1-.649-.591c-1.3-2.7-.7-7.5 1.6-9.6Zm-2.7 20.7c0-2.6 3.9-2.6 4 0 .1 2.6.4 5.4-.4 7.8a1.698 1.698 0 0 1-1.65 1.291 1.7 1.7 0 0 1-1.65-1.291c-.7-2.4-.4-5.3-.3-7.8Zm-1.3 20a1.899 1.899 0 1 1 3.8 0c.1 3.6.9 8.1-.6 11.4a1.5 1.5 0 0 1-2.6 0c-1.5-3.3-.7-7.8-.6-11.4Zm-.5 20a1.802 1.802 0 0 1 3.073-1.273c.337.338.527.796.527 1.273.1 2.1.5 4.5-.2 6.4a1.696 1.696 0 0 1-2.578.816A1.69 1.69 0 0 1 676 553c-.7-1.9-.4-4.3-.2-6.4ZM782.6 325.2c-2.3 14.8-4.3 31-4.3 46.1-1.1 9.7-1.8 19.5-2.7 29.2-.4 5.1-1.2 10.2-1.7 15.3-.3 2.7-.9 5.5-1.1 8.4-2.4 11.1-3.7 22.7-4.9 34-.4 3.7.9 16.7-4.4 17.8.2 1.9.7 3.5 2.3 4.1 4.7 1.8 5.8-6.8 6.2-9.4 1.1-7.3 1.1-14.5 1.8-21.8.7-7.3 1.8-16.3 2.6-24.5 1.4-13.7 2.7-27.4 4.4-41.1 1.7-13.7 4.1-26.5 5.2-39.9.7-9.6.9-19.7 4.4-28.8a7.693 7.693 0 0 1-6.5.5c.5 3.1-.8 6.9-1.3 10.1ZM783 307.2c-5.8-1.7-7.6-6.5-9.1-11.6-.3 2-1.1 4.7-.7 6.5a11.506 11.506 0 0 0 3.5 5.1 29.427 29.427 0 0 0 4 2.8c2.8 1.6 9.4 2.9 7.7-2.8a2.473 2.473 0 0 0-.2-.7h-.1c-1.8.6-3.2 1.2-5.1.7ZM775.7 308l.4-.3-.4.3Z"/><path fill="#FC5B61" d="M624.9 415.9c.6 14.5 1.1 29.1 1.8 43.6.8 16.2.7 32.3 2.5 48.4 1.2 10 2.2 20.1 2.6 30.1.4 10 1.4 19 .4 28a30.596 30.596 0 0 1-2.9 9.6 34.505 34.505 0 0 1 7.1-1.5 3.503 3.503 0 0 0 1.8-.6 2.8 2.8 0 0 0 .5-2.5c-.2-1.1-.3-2.2-.4-3.4v-7.5c0-5.1.1-10.1 0-15.1-.5-14.7-.9-29.4-2.3-44-1.4-14.6-3.7-29-5-43.6-1.3-14.6-2.2-28.6-5.7-42.5a1.285 1.285 0 0 0-.4 1ZM611.8 589.8l.3.6-.3-.6ZM611.8 590.7c0 .1 0 .1.1.2-.1-.1-.1-.1-.1-.2ZM608 585.6a22.995 22.995 0 0 1-3.3 2.1 28.505 28.505 0 0 1-10.3 3c-4.2.4-8.6-1.5-12.6-.8l-1.1.2c.1.3.1.6.2.8.091.683.408 1.317.9 1.8.5.6 1.2.5 2 .6 3.7.5 7.3 1.4 11.1 1.2a67.89 67.89 0 0 0 10.1-1 28.908 28.908 0 0 0 5.8-2.2 13.996 13.996 0 0 1-1-4.4c.01-.793.18-1.575.5-2.3a4.292 4.292 0 0 0-2.3 1ZM469.1 134.1c5.1-3.5 18.2-12.3 13.2-20l-.4-.6a33.346 33.346 0 0 0-5.2 2.1c1 2.2 2 4.4 2.9 6.7.9 2.3-1.4 2.4-2.3 1.4a40.141 40.141 0 0 1-2.7-3.4 38.598 38.598 0 0 1-1.9 5.4c-1.2 2.9-5.4.4-4.2-2.4a19.68 19.68 0 0 0 1-3.2l-1.6 2.3a1.7 1.7 0 0 1-2.8.1l-2.6 2c1 1.1 2.1 2.3 3 3.5.9 1.2-2.1 5.1-3.9 3l-2.6-3.4a51.383 51.383 0 0 0-9 11.3c5 4.3 14.9-2 19.1-4.8ZM516.6 140c3 1.3 6.7 2.8 8.9 5.2-2-3-5.3-4.4-8.9-5.2ZM583.6 207.6a6.4 6.4 0 0 0-3.7-1.5h-.5c-.281.9-.65 1.771-1.1 2.6l.9.6a21.122 21.122 0 0 1 3.5 3.2 11.188 11.188 0 0 1 2.2 2.6l2.9-1.9a8.404 8.404 0 0 0-1.9-3.1 13.71 13.71 0 0 0-2.3-2.5ZM516.9 210.8l.3-.8-3.3-.6c-.2.3-.6.2-.9-.2l-5.4-1.2a5.699 5.699 0 0 1-3.2-.3 5.395 5.395 0 0 1-1.4 1.6c-.9.7-1.8-.2-1.9-1.1a3.094 3.094 0 0 1 .5-1.8l-2-.6a55.71 55.71 0 0 0-16.1-2.5c.3 1.4.5 2.7.7 4.1 10.1.8 20.2 4.7 30 7.7a27.967 27.967 0 0 0 6.2 2c-2.6-.9-4.5-3.1-3.5-6.3Z"/><path fill="#FC5B61" d="m501.8 137.4 1.3 1a1.203 1.203 0 0 1-1.7 1.7 4.6 4.6 0 0 0-1.5-.9 1.396 1.396 0 0 1-.9-1.3 37.7 37.7 0 0 0-9.8 4.3 33.901 33.901 0 0 0-14.5 21.1c-1.9 9-1.4 18 .4 27 1.3 7 3.1 15.1 2.6 22.6-1.8 4-2.7 8.5-6.2 11.5s-9.7 2.6-14.4.4a10.202 10.202 0 0 1-6 .1 19.298 19.298 0 0 0 9.6 7.7c7.6 2.4 18.1-.8 19.6-9.6a28.222 28.222 0 0 1-5.7 5.2c-.4.2-.9.5-1.3.3s-.5-.6-.5-1c.139-.366.342-.705.6-1 1.4-1.6 3.4-2.5 4.9-4a9.103 9.103 0 0 0 2.6-4.8 24.811 24.811 0 0 0-.1-9.4c-.9-5.7-2.7-11.3-3.8-16.9-2.4-11.6-2.1-22.6 3.7-33a33.801 33.801 0 0 1 10.2-12c10.1-6.7 21.5.4 32.1 1.5-1.7-2.5-6.5-4-8.6-5-2.1-1-4.7-2.4-6.3-4.4h-.5a9.1 9.1 0 0 0-5.8-1.1ZM572.9 204.6c-12 12.1-29.9 9.2-45.3 7 .078.361.112.731.1 1.1a5.812 5.812 0 0 1-.6 1.7c-.8 1.6-2.4 3.1-3.9 3.1h-.9l1.7.4c.321.235.703.374 1.1.4l3 .5a55.383 55.383 0 0 0 15.7 1.4 63.803 63.803 0 0 0 21.2-4.5c4.7-2 8.9-5.1 10-9.9a15.17 15.17 0 0 0 .3-2.1 2.295 2.295 0 0 0-2.4.9ZM475.8 331.5c-2.8.7-5.6 1.7-8.4 2.3-2.8.6-5.5.3-8.2.9a.798.798 0 0 0 .1.4c.9 2.1 6.3.8 7.9.4 1.6-.4 5.4-1.7 8.2-2 6.5-.8 13.2.9 19.6 2.1h.1a40.896 40.896 0 0 1 1-4.8l-.9-.2c-6.4-.2-13.1-.7-19.4.9ZM584.1 290.7a159.09 159.09 0 0 1 .5 20.7c-.2 5.8.8 12.9-.8 18.6-3.3 4.8-7.1 8.7-13.8 9.9-8.3 1.5-16.9.7-25-1-9.7-2-19.1-4.8-28.9-6.3-4-.6-10.3-2.7-15-1.8a23.492 23.492 0 0 1-2 6c8.9-.2 17.2 3.1 25.8 5.4 8.6 2.3 20.4 3.2 30.8 4 6.4.6 13.4 1.2 19.5-1.1s8.1-5.5 10.7-9.6c1.2-1.8 3.1-4.3 3.6-6.4.5-2.1 0-5.4 0-7.8-.1-11.9-.4-24-2.3-35.7-1.9-11.7-5.4-20.4-5.6-31-4.8 11 1.4 24.8 2.5 36.1ZM798.1 246.6l-6.1-1c-.7 2.5 1.4 7-.6 9.4a24.784 24.784 0 0 1-2.6 1.9l1.7.2 5.6.6c1-3.6 1.2-7.4 2-11.1ZM798.9 167c-.085.84-.218 1.675-.4 2.5.1-.6.3-1.2.4-1.8v-.7ZM817.8 220.4c-.7 7.4-1.5 14.9-2.2 22.4-6.8-.7-13.7-3.7-20.3-4.8l-3.4-.4a2.795 2.795 0 0 0 .5 2.2c1.4 1.8 7.2 1.5 9.4 1.8 6.9 1 13.9 2.4 20.3 5.2.8-6.1.3-12.5.2-18.5 0-9-.1-18.7 2.3-27.6a4.012 4.012 0 0 1-2.6-1.8 3.5 3.5 0 0 1-2.6 1l-1-.2c0 .3.1.5.1.8 1.2 6.7 0 13.3-.7 19.9ZM796.3 185.8c-.8 7-1.5 13.9-2.1 20.9-.6 7-.8 11.1-.9 16.7.1-3.2.3-6.4.7-9.6 1-9.2 1.4-18.7 2.3-28ZM794.9 166.5c-4 13.9-4.5 28.1-6.1 42.3-.5 5.2-1 10.3-1.3 15.6-.2 2.6-.1 5.8-.9 8.3-.8 2.5-1.4 2.9-1.6 4.5l-9.8.4c4.3.6 8.7 1.5 12.8 2.1.203-.885.47-1.754.8-2.6a38.592 38.592 0 0 0 1.2-10.7c.2-6.6.5-13.1 1.1-19.7 1.3-13.9 2.8-27.8 5.4-41.6a1.9 1.9 0 0 0-1.6 1.4ZM792.3 288.4h.9v-.2a2.189 2.189 0 0 1 .1-.8c2.2-8 1-16.3 2-24.5l-5.3-.4c-.8 5.1-1.2 10.3-1.6 15.4-.4 5.1-.8 8.4-.7 12.6a9.692 9.692 0 0 1 4.5-2l.2 1.3-.1-1.4ZM791 294.4a2.199 2.199 0 0 0-1.5-.3c.5 1.1 2.2 1.9 4.2 1.8 2-.1 5.6-.4 6.6-2.5.114-.288.182-.591.2-.9a5.216 5.216 0 0 0-.2-1.4 1.794 1.794 0 0 0-1.5.7c-1.3 1.2-6.1 3.6-7.8 2.6ZM788 302l.8 1c0 .1 0 .1.1.2s1.6-2.4 2.5-3.5a8.586 8.586 0 0 1-3.3-1.1 6.385 6.385 0 0 1-1.5-1.3 4.79 4.79 0 0 0-.7 2.1l2.1 2.6ZM792.8 303.8l.6-1.1-.7 1.1h.1ZM696.4 740.5c-.4.9-.9 2.2-1.6 3.5l1.1.8 3.2 2.2a14.598 14.598 0 0 1 1.9-4.2l-2.9-1.3-1.7-1ZM729.6 738.9a23.993 23.993 0 0 1 2 3.9 27.114 27.114 0 0 0 4.4-5.7 26.16 26.16 0 0 1-2.8-1.7c-1.1 1.2-2.3 2.3-3.6 3.5ZM686.1 738.9a27.52 27.52 0 0 1 6.1 3.2c.655-.931 1.256-1.9 1.8-2.9h.1a42.706 42.706 0 0 0-6.8-3.3l-1.2 3ZM678.5 735v.4a7.092 7.092 0 0 0 .2 2.5 17.5 17.5 0 0 1 5.1.3 14.951 14.951 0 0 1 1-3 22.21 22.21 0 0 0-6.3-.2ZM673.1 735.1c-.2 1.5-.4 2.9-.7 4.4l3.6-1a18.662 18.662 0 0 1 .1-3.4h-3ZM738 729.4a37.455 37.455 0 0 1-3.3 4.3c.799.373 1.568.808 2.3 1.3a18.712 18.712 0 0 0 1.4-6c-.1.1-.3.2-.4.4ZM722.6 749a31.418 31.418 0 0 0 7-4.3 31.677 31.677 0 0 0-1.6-4.3 22.095 22.095 0 0 1-5.5 3.5c.133 1.696.167 3.399.1 5.1ZM713.7 745.4l-2.8-.2-1 3.7a21.248 21.248 0 0 1-.8 2.2c2.762.393 5.573.292 8.3-.3l2.7-.8c0-.5.1-1 .1-1.4 0-.4-.1-2.3-.1-3.5v-.4a25.126 25.126 0 0 1-6.4.7ZM702.3 745.6c-.4.9-.6 1.8-.9 2.7a24.995 24.995 0 0 0 5.4 2.3 38.682 38.682 0 0 1 1.8-5.7 35.386 35.386 0 0 1-5.4-1.3l-.9 2ZM645 723.7l1.1-.4c.3-1.3.7-2.7 1-4.1-1.6.3-3.2.8-4.8 1.2.133 1.396.166 2.799.1 4.2l2.6-.9ZM656.7 720.6l-1.4 2.3c1.303.308 2.551.814 3.7 1.5.389-.759.823-1.493 1.3-2.2 0-.2.1-.3.2-.5a14.172 14.172 0 0 0-3.5-1.7l-.3.6ZM592.1 729.7a2.986 2.986 0 0 0-.4 1c-.5 1.5-1.1 5-2.6 6.8a93.07 93.07 0 0 0 15.8-1.7 27.797 27.797 0 0 0 2.4-8.2 94.423 94.423 0 0 1-10.4 1.8 38.893 38.893 0 0 1-4.8.3ZM653.3 719.2a12.175 12.175 0 0 0-3.8-.3 22.364 22.364 0 0 1-.8 3.9 17.008 17.008 0 0 1 4.5-.2c.7-1 1.5-1.9 2.1-2.9a.105.105 0 0 0 .071-.029.105.105 0 0 0 .029-.071l-1.5-.2-.6-.2ZM608.4 729.8a22.312 22.312 0 0 1-1.3 5.6c4.2-.8 8.2-1.7 11.9-2.6-.1-2.7-.1-5.3 0-8l-10.3 2.5-.3 2.5ZM632.1 722.3c.2 2 .3 4.1.6 6 .1.2 0 .3 0 .5l.6-.3c2.4-.9 4.8-2 7.1-3-.1-1.5-.1-3.1-.1-4.7h-.5c-2.6.7-5.1 1.1-7.7 1.5ZM567.1 733.1a34.38 34.38 0 0 0 6.7 2.6 32.727 32.727 0 0 0 3.2-4.6l1.5-2.7a36.833 36.833 0 0 1-6.8-2.6c-3.6-1.9-6.4-4.7-9.4-7.5s-8.4-6.9-10.2-11.3a2.698 2.698 0 0 0-3.3-1.5c.7 11.3 8.7 22.6 18.3 27.6ZM576.3 736.4a53.695 53.695 0 0 0 10.6 1.1.5.5 0 0 1 .7-.1c-.4-.3 1.5-5.4 2.4-7.7-3.052.031-6.1-.237-9.1-.8a66.91 66.91 0 0 1-4.6 7.5ZM662.5 723.2c-.4.8-.9 1.7-1.2 2.5-.3.8-.2.2-.2.3.487.488.922 1.024 1.3 1.6a25.904 25.904 0 0 1 1.7 3.3l.8-1.2 1.1-1.9a5.607 5.607 0 0 1-.5-.8 25.173 25.173 0 0 0-3-3.8ZM621.1 732.3a105.084 105.084 0 0 0 10.5-3.2c-.1 0-.3-.2-.4-.4a20.79 20.79 0 0 1-1.3-6l-4.2.7-4.2.8a73.298 73.298 0 0 1-.4 8.1ZM667.4 730.4a.298.298 0 0 0-.1.2c-.7 1.1-1.3 2.5-2 3.7.282.868.65 1.706 1.1 2.5a5.1 5.1 0 0 0 3.5 2.8c.128-1.746.362-3.482.7-5.2a9.2 9.2 0 0 1-3.2-4ZM838.6 709.2c-5.3-4.3-10.5-5.1-17.3-5.4-6.8-.3-18.7.4-18.8-8.8 0-4.7 4.2-7.9 5.7-12.1 10.1-29.1-26.4-29-42.4-17.9a25.599 25.599 0 0 0-9.6 11.5c-1 2.7-1.4 5.5-3.3 7.8-5.6 6.5-14.5 1.1-20.6 6a19.3 19.3 0 0 0-6.7 13.1c-.1 4.2 2 7.3 4 10.7l1 1.9h.1a8.896 8.896 0 0 1 5-1.3h.1a13.462 13.462 0 0 0-.7-1.8c-1.8-4.4-3.6-10.1 0-14.2a10.393 10.393 0 0 1 8-3.1c3.4.2 6.7 2.3 10.1 2.2 7-.4 8.6-10.9 12-15.6a22.596 22.596 0 0 1 17.2-9.4c5.2-.1 9.9 1 12.7 3.9l1.2 1.5h-.1c1.5 2.3 2 5.4 1.1 9.5-1.9 9.3-10.6 14.2-12.2 23.5-.9 5.2.1 10.3 5.7 12 5.6 1.7 11.1.8 16.3 1 7.7.2 15.7 1.4 20.3 6.6 5.1.8 10.2-.9 13-5.8a15.698 15.698 0 0 0 1-11.3c-1-.6-1-2.9-2.8-4.5ZM820.8 175.8a4.692 4.692 0 0 0-.3 2.3 2 2 0 0 0-.8 1.9 10.812 10.812 0 0 1 4.8-.6l1.7.3.3-.3c-.2-4.3-.1-8.6-.3-12.9-.2-4.3-.3-12.2-3.8-16.5l-.3.2a5.195 5.195 0 0 1-.4 4 6.7 6.7 0 0 1-2.2 2.5c.5 2.4.9 4.7 1.2 7.1.3 2.4 1.7 8.5.1 12ZM446.1 99.5l1.7-.2 1.2-.2 1.5-.3 1.3-.3 1.3-.4 1.3-.4 1.3-.4.4-.2a39.61 39.61 0 0 0 9.1-4.8c5.9-4 10.9-7.6 12.6-15a8.79 8.79 0 0 0 .2-2.8 1.405 1.405 0 0 1-.2-.7 3.702 3.702 0 0 0-1.2-1.3l-.3-.2-.6-.2h-.6l-.5.2-.4.3c-.6.5-1 1.2-1.6 1.7l-.3.3h-.4a.099.099 0 0 0-.1.1h-.5c2.9 5.6-18 11.9-20.7 12.5-8.7 2.1-19.3 3.2-23.1 13.2h3c4.3-.2 8.7-.3 13-.6l1.7-.2h.9v-.1ZM476.3 49.3c.204.851.305 1.724.3 2.6a35.095 35.095 0 0 1-.7 6.6v.4a16.209 16.209 0 0 1-.1 6.2c-.3 1.6-.6 3.3-.9 4.7h1.3a3.599 3.599 0 0 1 1.8.8l.9 1.3.3.9c.1.2.1.5.2.7.326-.915.593-1.85.8-2.8 1.4-5 5.4-22.1-2.3-23.5h-.2a14.37 14.37 0 0 1-1.4 2.1Z"/><path fill="#464646" d="M830.2 696.6c-4-.5-8-.6-12-.7-4-.1-12.6 1-11-5a6.08 6.08 0 0 1 .9-1.8c.7-.9 1.7-1.7 2.5-2.6 7.7-7.9 7.2-22.4-2.2-28.7-6.2-4.2-19.2-7.7-26.8-3.8a37.892 37.892 0 0 0-20.5 7.4 38.402 38.402 0 0 0-7.6 8c-2.2 3.3-2.5 7.2-4.5 10.3-2 3.1-7 2.5-10.9 2.7a15.199 15.199 0 0 0-9.8 3.8c-5.4 4.9-9.2 12.5-8.3 19.9.4 3.4 1.9 6.3 3.6 9.2 1.7 2.9 5.4 8.3 2.7 12.4-4.2 6.5-17.7 1.1-22.5-1.7-6.3-3.5-12.3-7.4-19.7-4.9-2.8.9-6 3.4-9 3.3-3-.1-4.5-5.7-6.3-8.5a19.416 19.416 0 0 0-2.6-3.1.692.692 0 0 0-.245-.283.692.692 0 0 0-.355-.117 22.3 22.3 0 0 0-9.8-5 22.426 22.426 0 0 1-.5-2.2c-.1-.2-.1-.4-.2-.6.08-.189.115-.395.1-.6.1-1.6-.9-3.4-1.5-5a17.692 17.692 0 0 0-2.6-4.9 1.303 1.303 0 0 0-1.1-.5l-1.5-1.5c-2.1-1.4-4.7-1.9-6.8-3.1-2.1-1.2-1.6-5.9-2.1-9.2-.9-5.2-2.8-12.5-7-16.1-2.5-2.1-5.8-2.7-9-2.8-3.2-.1-4.9 0-7.3.8a23.422 23.422 0 0 1-8.7 1.5c-2.5-.1-4.9-.5-7.4-.4-2.6-10.5-1.3-21-2.5-31.6a6.896 6.896 0 0 0-3.7-5.7c-3.3-1.9-5.2-3.8-3.3-7.7 1-1.9 2.6-3.2 3.6-5.1 1-1.9.4-3.2-1-3.8-4.1-1.8-8-3.7-12.3-4.7a54.002 54.002 0 0 0-1.8-6.6h.8c6.2.9 12 2.2 18.5 1.8a72.26 72.26 0 0 0 8-.8 50.137 50.137 0 0 0 8.4-2.4c2.2-.8 3.9-.4 6.1.1 2.404.503 4.846.804 7.3.9 4.833.183 9.673.116 14.5-.2l22.8-1.3c3.3-.1 6.6-.3 9.9-.3 3.264-.2 6.536-.2 9.8 0a98.906 98.906 0 0 0 17.2.2c5.8-.5 12.2-1 17.6-3.1 5.4-2.1 7.8-5.6 10.8-9.6a52.483 52.483 0 0 1 4.4-5l-2.4-1.7c-4.1 3.5-7.8 7.7-12.6 10.5s-12 3.4-17.8 4.1c-3 .3-6.1.6-9.2.7-.5 0-6.8.9-6.8.2.1-6 .2-11.9.5-17.9.6-9 1.7-18 2.8-26.9 2.4-18.5 4.8-36.9 6.7-55.4 3.6-36.7 6-73.6 7.1-110.5.6-21 1.9-42.5.3-63.5 6.5.5 13.4-.4 18.7-.8 9-.7 18.1-.9 27.1-1.9a120.704 120.704 0 0 0 13.4-2.2l6.7-1.9c.5-.2 4.6-2.3 5.2-2.3l.8-.6.4-.4-.4.4-.8.6h.1c2.5 2.2 2.2 4 1.9 7-.3 3-1.1 7.8-1.7 11.7-1.3 7.7-2.9 15.4-4.1 23.2-2 13-4 26.1-5.2 39.2-1.2 13.1-2.4 27.7-3.8 41.5-.6 6.7-1.6 13.5-1.9 20.3-.2 4-.4 8.2-.6 12.3-.2 4.1-.4 6.7-.4 9.9s.5 6.6 2.5 9.2a5.797 5.797 0 0 0 2.6 2.3c3.2 1.4 6.5 0 8.5-2.6s4.3-9.8 4.9-14.8c3-27.1 4.8-54.4 7.9-81.6 1.5-13 3.9-25.9 5-38.9.9-10.9 1-21.9 3.9-32.5a9.91 9.91 0 0 0 4.5-2.7c1.7-1.9 3.5-5 3.2-7.6v-.2a9.202 9.202 0 0 0 1.7-2.2c1-1.5 2-3.8 1.4-5.6a3.403 3.403 0 0 0-1.6-1.9c.2-.72.2-1.48 0-2.2-.6-2.7-3.5-4.4-6.3-4.9v2.3a3.296 3.296 0 0 1 2.9 1.5c.13.455.197.926.2 1.4a2.895 2.895 0 0 1-.2.9c-1 2.1-4.7 2.4-6.6 2.5-1.9.1-3.7-.7-4.2-1.8s0-2.2 2.1-3.3l1-.4v-.7l-.2-1.3a9.692 9.692 0 0 0-4.5 2 10.605 10.605 0 0 0-1.4 1.6 4.799 4.799 0 0 0 .2 5.3c.429.509.935.947 1.5 1.3a8.586 8.586 0 0 0 3.3 1.1c-.9 1.1-1.7 2.3-2.5 3.5-.8 1.2-.1-.1-.1-.2l-.8-1-2.1-2.6-3.5-4.5c.5-5.8.6-11.7 1.1-17.5.5-5.8 1-10.6 1.1-15.8a34.71 34.71 0 0 0 5.5.8l5.3.4c-1 8.2.2 16.5-2 24.5a2.21 2.21 0 0 0-.1.8v.2h-.9l.2 1.3v.7a12.4 12.4 0 0 1 4.8-.8v-2.1c2.2-8 1.2-16.5 1.4-24.7a2.609 2.609 0 0 0 1.4-1.7c1.7-4.4 2-9 2.7-13.6 0-.2 14 3.4 15.3 3.8 2.9.9 6.7 3.3 8.1-.8 1.4-4.1.5-5.9.5-9 0-3.1.2-6.4.1-9.6a233.76 233.76 0 0 1 1.8-32.4 6.907 6.907 0 0 0 2-2.5 2 2 0 0 0 1.5-.2c4.1-1.9 4.8-4.8 3.7-7.6a13.007 13.007 0 0 0-5.5-5.9c-.1-7.2.2-14.4-.6-21.5-.5-5.2-1.4-11.7-5.8-15.2a5.798 5.798 0 0 0-4.1-6.6c-1.7-.4-3.3 0-4.9-1.3-1.6-1.3-.3-2.1-1.1-3.9-.8-1.8-5.9-3.2-9.3-3.2-.8-5.4-6.7-7.9-11.8-5.6a4.997 4.997 0 0 0-7.4 3.1c-4.5 1.3-7 5.6-7.2 10.4-4.5 3.9-5.9 9.8-7.3 15.4a289.505 289.505 0 0 0-5.3 29c-1.4 9.6-2.6 19.2-3.7 28.8-1.1 9.6-1.4 19-4.5 27.7a1.803 1.803 0 0 0 .8 2h.3a1.998 1.998 0 0 0 1.9.6c5.4-1.4 10.8-1 16.2-.2-1 5-1.9 12.6 2.4 16.1l1.3.8c-.8 5.5-1.2 11.1-1.7 16.6v.7c-14.9-4.9-30.3-5.5-45.7-7.4-2.9-.4-4.7-1.1-5.9-4-1.2-2.9-2.3-9.3-3.3-13.9a230.41 230.41 0 0 0-7-24.6c-4.7-13.5-11.4-27.6-22.8-36.7-9.9-7.9-22.3-11.7-34.7-13.7-5.9-1-11.9-.5-17.9-.6-6-.1-13.8.2-20.6-.1a128.974 128.974 0 0 1-13.8-1.4c-5.5-1-11-2.4-16.3-3.6-12-2.7-22.9-7.8-34.5-11.6l-1.1-1.3c10.1-5.7-2.5-25.2-7.8-30.4-5.3-5.2-13.8-10.3-20.9-14.9-7.1-4.6-14.6-6.6-23.6-6.6A69.82 69.82 0 0 0 477 111l-1.8.8a.401.401 0 0 1-.1-.3c-.8-1.8-1.6-3.5-2.3-5.3-.7-1.8-1.5-3.9-2.4-5.8a14.006 14.006 0 0 0-2.6-3.9 34.906 34.906 0 0 0 15.4-16.3 54.503 54.503 0 0 0 5-22.8c0-5.8-.8-12.6-6.3-15 1.3-5.8 3.5-11.6.4-17.3-1.2-2.4-3.5-5.2-6.6-4.6-3.1.6-3.1 2.5-4.1 4.5-2.2 4-4.7 7.6-7.2 11.4a25.302 25.302 0 0 1-10.6 9.1c-8.5 4.2-17 8.5-25.2 13.2-6.7 3.9-13.3 8.5-18.4 14.4-5.1 5.9-7.6 12.4-9.6 19.4-4.6 16.2-3 31.8 3.1 47.4a.902.902 0 0 0 .3.5c2.6 6.2 7.9 12.8 14.2 13.7a31.482 31.482 0 0 0 3.1 6.4c1.1 1.6 3 4.9 4.9 5.6 3.5 1.3 2.6-4.1 1.4-8.4 3 2.4 6.6 4.4 8.9 2.5a2.8 2.8 0 0 0 .9-1.8 7.203 7.203 0 0 0-.8-3.2 45.023 45.023 0 0 0-5.4-8.9 12.202 12.202 0 0 0 1.2-8.6c-1.3-5.4-5.7-9.3-8.9-13.6-1.7-2.3-3.5-5.1-3.3-8 .2-2.9 3.7-7.3 7.2-9 5.2-2.7 11.5-3.3 17.6-4 2.6 5.8 6 11.4 8.6 17.3l-6.3 3.5c-2.6 1.4-.8 5.4 2 4.7l.5-.2a1.499 1.499 0 0 0 1.1-.8c.1 0 .2 0 .2-.1a6.982 6.982 0 0 0-.4 2.8 31.769 31.769 0 0 0-2.7 3.7 48.901 48.901 0 0 0-7.8 24.5 68.502 68.502 0 0 0 2.3 21.9c1.8 6.7 5.7 12.2 9.2 18.1 3.5 5.9 13.4 21.3 2 23.1a6.305 6.305 0 0 1-5.6-2.2c-.6-.7-.4-1.4-1.5-1.4s-1.5.7-1.4 1.4a20.597 20.597 0 0 0 22.9 17.9c11.1-1.2 16.6-9.9 17-20.5a53.404 53.404 0 0 0-.2-5.6c6.3 1.9 12.8 3.4 19.1 5.3 6.3 1.9 13.7 4.2 20.6 5.8a65.01 65.01 0 0 0 25.2 1.6c7.7-1 16.1-2.8 22.6-7.2a20.2 20.2 0 0 0 4.9-4.8l2.4 2.6 1.9 2.4c-7.5 4.8-15.1 9.7-20.9 16.4-16.2 18.4 1.2 44.3-7.5 65.1-3.3 8.2-12.3 6.8-19.6 6.6a147.824 147.824 0 0 1-44.7-8.2c-3.6-1.2-8.7-3.4-12.9-3.3v2.4l1.4.3 12.2 3.9c1.1.4 11.1 2.7 11.1 3.4-1 5.7-1.5 11.5-2.4 17.2-.6 3.3-1.4 6.4-2.2 9.6a40.896 40.896 0 0 0-1 4.8h-.1c-6.4-1.2-13.1-2.9-19.6-2.1-2.8.3-5.5 1.4-8.2 2-2.7.6-7 1.7-7.9-.4a.798.798 0 0 1-.1-.4 2.603 2.603 0 0 1 1.3-2.1 10.39 10.39 0 0 1 4.3-.9c1.3-.1 5 0 5.5-1.7s-7.6-2.2-9.2-2.2c-1.6 0-2.6.3-3.2-.7a1.91 1.91 0 0 1-.067-1.518A1.907 1.907 0 0 1 458.9 324a7.106 7.106 0 0 1 2.5-.6 74.602 74.602 0 0 0 8.2-1.7 1.591 1.591 0 0 0 1.1-.7c.8-1.9-4.1-1.6-5-1.6-.9 0-4.9-.3-6.7-1.8a2.2 2.2 0 0 1-.6-3 2.502 2.502 0 0 1 1.9-.7h1l9.5.9c.282.04.569-.032.8-.2.3-.2.1-.7-.1-.9a2.1 2.1 0 0 0-1-.4c-2.9-.5-6.5-1.7-8.7-3.7-2.2-2-1.4-4.1 1.7-3.8 6.5.7 11.6 5.4 18.1 1.7a1.801 1.801 0 0 0 0-3.1c-1.5-1-8.9-5.6-6.8-8.2a1.3 1.3 0 0 1 1.2-.5v-2.4c-.949.06-1.889.228-2.8.5-5.8 2.2 0 8.2 4 11.6-4.4.6-8.8-2.8-13.3-3.2-2.8-.3-7.1.7-7.6 4s1.5 4.5 4 6.1c-1.9-1.2-6 1.5-6 3.6.1 4.7 6 2.2 7.4 5.2a20.13 20.13 0 0 0-3.3.9 5.097 5.097 0 0 0-2.6 2.4c-2.5 5 5.4 4.6 8.2 4.7-2.9 0-10.2 5.1-6 7.9a7.102 7.102 0 0 0 3.6.9h.9a63.887 63.887 0 0 0 8.7-.8 43.027 43.027 0 0 1 8.8-.8 93.517 93.517 0 0 1 12.9 2c4.1.9 8.3 1.3 12.4 2.1 8.5 1.6 16.5 5.1 25 6.7a237.107 237.107 0 0 0 31.5 3.5c11.4.5 21.9-3 27.9-12.2 0 5.7.1 11.3.3 17 .2 5.7.2 13.8.4 20.7.2 10.5 2.2 20.9 3.2 31.3.8 8.3 1.2 16.7 1.7 25.1 1.3 17.3 3.5 34.5 5.3 51.8 1.8 17.3 4.2 33.6 5.9 50.4.9 8.1 1.3 16.2 1.9 24.4.4 5.4 1.7 11 1.1 16.5-8.2.2-16.9 2.1-24.3 4.1-3 .8-6.4 2.1-7.9 5.1a8.598 8.598 0 0 0-.6 5.5c-10.2-4.7-22.1-5.4-33.1-6.6-15.2-1.6-31.6-4.2-46.2 1.5h-.2a11.004 11.004 0 0 0 1-9.6c-3-9.2-13.2-7.5-20-2.7 1.2-4.4 2.6-8.6-.9-12.8-3.5-4.2-8.3-4.4-13.1-4.3 1.9-5.2-6.4-8-12.2-8.8 5.2-5.7 11.9-14.5 2-18.5-7.8-3.1-14.5 5.4-18 12.2-3.7-3.6-9.8-8.7-13.1-4.2-3.3 4.5.3 7.6 3.5 10.9-4.5-.2-9.3-.4-13.4 1.3 5.1-19.7-2.2-41.9-17.9-55.4a68.7 68.7 0 0 0-11.6-7.7c7.8-5.4 11-16.6 8.1-25.5-2.9-8.9-12.2-18.1-22.2-14.8a4.709 4.709 0 0 0 .2-1.6 4.7 4.7 0 0 0-1.6-3.7c6.2-7.8 11.9-18.7.2-24.5-7.2-3.6-15.8.1-21.4 6a57.197 57.197 0 0 0-.6-6.1c-1.4-8.4-5.3-17.6-12.5-22.6-11.2-7.7-30.4-2.8-38.8 8.5a22.998 22.998 0 0 0-6-11.8c-7.5-7.3-16.7-2.4-22.2 4.6-7.5 9.4-11.2 21.9-12.1 33.7a62.97 62.97 0 0 0 1.1 18.9c1.2 5.4 3.1 10.6 3.5 16-2.4-3.1-4.2-7.2-9.2-4.9a6.798 6.798 0 0 0-4 6.4 10.604 10.604 0 0 0-3.9-1.3l-.4 2.8a7.099 7.099 0 0 1 5 3.9c.178.936.481 1.844.9 2.7.1.2.1.3.2.4.8 1.9 3.8.6 3.2-1.3a26.783 26.783 0 0 1-1.1-5.5c0-1.7.1-5 3-4.6.9.1 1.7 1.6 2.2 2.2 1.8 2.3 2.8 4.5 5.7 5.6 1.3.5 2.5-.8 2.5-2 .6-9.4-3.7-18.1-4.5-27.4a67.5 67.5 0 0 1 4.5-30.8c2.6-6.4 10.4-22.2 19.6-18.1 9.2 4.1 9.3 17.7 6.9 25.3-.9 2.8 3.7 4.1 4.5 1.2a23.533 23.533 0 0 0 1.1-5.4 24.494 24.494 0 0 1 14.7-15.3c7.1-2.8 16.2-3.2 22.3 2 11.4 9.6 11.8 26.9 6.7 39.6-.6 1.6 1.8 2.9 2.9 1.7 2.6-3.1 4-7.3 4.6-11.6 4.1-6 13-11.7 19.7-8.3 4.9 2.5 5 6.7 2.6 11.1a68.462 68.462 0 0 1-4.3 6.2c-.8 1.2-2.5 2.7-2.7 4.1-.2 1.4.7 2.2 2.1 1.5a4.784 4.784 0 0 1 1.6-.8 2.305 2.305 0 0 1 1.663.709 2.303 2.303 0 0 1 .637 1.691v.5a4.303 4.303 0 0 1-1.8 2.6c-1.2 1-1.7 2.3.2 2.7 1.9.4 2.2-.7 3.3-1.2 2.6-1.4 6-.9 8.6.4 5.5 2.6 9.2 8.8 10.2 14.7.7 4.014-.007 8.146-2 11.7a11.02 11.02 0 0 1-1.4 2.1c-1 1.5-4.5 6.2-5.8 5.7a68.798 68.798 0 0 0-41.8-3.2 76.178 76.178 0 0 0-9.2 3c1.3-3.1 1-6-2.9-7.5-7.1-2.8-13.7 1.8-18 7.9a15.542 15.542 0 0 1-.1-2c-.2-4.6-1.4-10.8-6.6-12.1-5.2-1.3-11.6 4.3-14.2 9a37.496 37.496 0 0 0-4.3 13.5 16.81 16.81 0 0 0-5.6-5.3c-11.1-6.9-26.9-3.4-38 2.3-3.6-3.5-7.7-7.2-12.6-8.6a15.104 15.104 0 0 0-5.6-.5c-1.161.355-2.27.859-3.3 1.5h-.2l-.6.3a.9.9 0 0 1 .6-.3h-.5a8.595 8.595 0 0 1 2.2-3.8l1.4-1.4c4-3.2 14.7-12 21.8-10.8l.4-2.8c-7.2-1.2-16.8 3.9-22.2 9.7.7-13.1-8.5-26.5-23.2-27.2-14.7-.7-35.1 7.6-41.1 22.3-1-2.5-2.5-4.4-5.9-4.5-5.4-.1-9.6 6.6-12.3 10.5-4.3 6.3-8.4 12.9-9.7 20.5-1.3 7.6-.1 13.4 2 19.8-8.8-3.2-19.1-4.9-24.3 4.6-7.4 13.5-.8 30.4 7.3 42.5-3.7-1-7.3-3.8-10.6-4.9-3.3-1.1-9.2-1.2-13.6-.1-8.9 2-17.8 8.7-21.6 17.2-3 6.7-1 13.6 3.1 19.4 4.1 5.8 8.4 11.1 13.9 13.9.7.3 3.6 1 3.9 1.9.8 2.4-5.1 2.3-6.6 2-1.5-.3-4-.4-6-.9a96.884 96.884 0 0 1-11.9-3.8c-7.1-2.4-14.5-4-21.8-1.2-2.5 1-1.5 5 1.1 4.1 5.9-1.9 10.9-.7 16.8.4l15.2 3.3.3-1.4-.3 1.4 3.7.9c9.2 2.2 17.7 5 27.2 5.8 9.5.8 18.7.6 28.1.5 9.4-.1 19.4-2.7 28.9-6.6 9.5-3.9 18.4-8.9 27.9-8.1-1.8 3.3-3 7.2 1 9.2 4 2 8.8.6 13.1-.1.1 5.7 7.1 7.7 12.6 8.2 5.552.517 11.137.584 16.7.2 5.4-.3 10.9-1.4 16.3-.9a17.7 17.7 0 0 1 10.2 3.8 11.398 11.398 0 0 1 3.8 6.6c.5 2.6-.5 5.3.8 7.8s3.5 3.8 4.9 6c1.4 2.2 2.8 7.5 4.2 11a101.229 101.229 0 0 0 4.7 9.3c3.1 5.4 9.6 9.2 11.2 15.3 1.6 6.1 2.7 9.6 6.4 14 2.1 2.6 4.3 5 5.2 8.3.9 3.3.7 6.8.9 10.2.2 5-.4 11.8 2.4 16.4 4.9 7.9 14.7 8.8 23.3 9.2a2.4 2.4 0 0 0 1.1.6c-2 7.9-4.1 15.8-4.1 24 .1 5.7 3.1 10 7 13.7 7.3 15.4 9.8 32.1 13.5 48.7a2347.26 2347.26 0 0 0 14 59.7c2.4 9.6 3.4 19.6 6.8 28.9 1.4 3.9 2.8 3.9 6.6 4.7a37.693 37.693 0 0 1 13 5.6c7.5 5 12.1 12.6 17.4 19.7a41.393 41.393 0 0 0 16.4 12.9c16.3 7.3 35.2 12.4 53.1 10.8a45.896 45.896 0 0 1 15.3 3.8c5.4 2.4 10.5 5.8 16.4 7 11.5 2.3 23.4-.6 34.7-2.5 11.3-1.9 20.4-1.5 29.9-4.9 9.5-3.4 16.1-11.4 20.2-21.4 2.3-5.5 3.5-11.2 5.6-16.7 2.1-5.5 6.9-11.3 11.9-16.1a110.407 110.407 0 0 0 22.4-30.2c6.1-11.8 10.5-23.5 11.2-36.8.3-6.4-.9-12.6-.9-18.8 0-6.2 3.9-9.6 6.4-14.8 2.5-5.2 2.6-13.7 3.3-20.3.8-8.5 1.7-17 2.8-25.5 1.1-8.5 2-17.6 3.2-26.4.7-4.8.3-10.9 1.9-15.7a10.51 10.51 0 0 1 2.2 3.4c1.2 2.8 1.9 5.8 3.8 8.2 4.9 5.9 10.2 2.5 16.3 1.6 8.4-1.1 15.1 8.5 22.2 11.5 12.6 5.4 27.4-.7 35.6-10.9a27.207 27.207 0 0 0 5.8-20.8 31.22 31.22 0 0 0-2.5-9.4c-1.2-2.7-3.3-6.3-2.8-9.4a3.395 3.395 0 0 1 3.2-3.3 12.302 12.302 0 0 1 4.9.8l2.7.9c3.3 1 6.4 1.3 9.6-.2 5.9-2.8 7.6-9 10.4-14.2 3.9-7.4 14.6-13 22.4-7.2 4.6 3.4-5.1 12.1-7.2 15.6-4.9 8.1-9.5 21.4-1.7 29.3 7.8 7.9 21.7 3.6 32 4.6 6.5.7 10.9 3.4 12.1 10.2.6 3.3 5.6 1.8 5.1-1.5a16.002 16.002 0 0 0-3.8-8.4c-4.6-5.2-12.6-6.4-20.3-6.6-5.2-.2-11.3.7-16.3-1s-6.6-6.8-5.7-12c1.6-9.3 10.3-14.2 12.2-23.5.9-4.1.4-7.2-1.1-9.5l-1.1-1.5c-2.8-2.9-7.5-4-12.7-3.9a22.599 22.599 0 0 0-17.2 9.4c-3.4 4.7-5 15.2-12 15.6-3.4.1-6.7-2-10.1-2.2a10.398 10.398 0 0 0-8 3.1c-3.6 4.1-1.8 9.8 0 14.2.276.582.51 1.184.7 1.8h-.1a8.896 8.896 0 0 0-5 1.3h-.1l-1-1.9c-2-3.4-4.1-6.5-4-10.7a19.3 19.3 0 0 1 6.7-13.1c6.1-4.9 15 .5 20.6-6 1.9-2.3 2.3-5.1 3.3-7.8a25.599 25.599 0 0 1 9.6-11.5c16-11.1 52.5-11.2 42.4 17.9-1.5 4.2-5.7 7.4-5.7 12.1.1 9.2 12.6 8.6 18.8 8.8 6.2.2 12 1.1 17.3 5.4 1.8 1.6 1.8 3.9 2.8 4.4 1 .5 1 .1 2-.6 3.4-2.3 1.4-8.9-.7-11.2-2.1-2.3-8.2-3.9-12.6-4.6Zm-104.7 38.6c.9 1.7 1.7 3.4 2.5 5.2a31.677 31.677 0 0 1 1.6 4.3 31.418 31.418 0 0 1-7 4.3 43.396 43.396 0 0 0-.1-5.1c-.2-2.6-.5-5.3-.7-7.9a15.26 15.26 0 0 0 3.7-.8Zm-11.4.3c1.847.353 3.72.554 5.6.6.285 2.858.419 5.728.4 8.6 0 .2.1.3 0 .4-.1.1.1 2.3.1 3.5 0 1.2-.1.9-.1 1.4l-2.7.8a23.49 23.49 0 0 1-8.3.3c.307-.718.574-1.452.8-2.2l1-3.7.6-2.2a65.148 65.148 0 0 0 2-7.6l.6.1Zm-2.3-.4c-.9 3.2-2.1 6.4-3.1 9.5a.394.394 0 0 1-.1.3 38.682 38.682 0 0 0-1.8 5.7 24.995 24.995 0 0 1-5.4-2.3c.3-.9.5-1.8.9-2.7l.9-2c.6-1.2 1.3-2.4 1.8-3.7a26.105 26.105 0 0 0 2.2-6.1 24.168 24.168 0 0 0 4.6 1.3Zm-7.6-2.5 1.1.5c-.8 3.2-2.5 6.2-4 9.1l-.3.6a14.598 14.598 0 0 0-1.9 4.2l-3.2-2.2-1.1-.8c.7-1.3 1.2-2.6 1.6-3.5.4-.9.1-.3.1-.4a88.507 88.507 0 0 0 3.8-9.7c1.23.85 2.536 1.587 3.9 2.2Zm-11.3-6a25.506 25.506 0 0 1 5.5 2.7 86.965 86.965 0 0 1-4.3 9.9h-.1c-.544 1-1.145 1.969-1.8 2.9a27.52 27.52 0 0 0-6.1-3.2l1.2-3 4.8-9.6c.3.1.6.1.8.3Zm-3.1-.7a91.452 91.452 0 0 0-5 9.3 14.951 14.951 0 0 0-1 3 17.5 17.5 0 0 0-5.1-.3 7.092 7.092 0 0 1-.2-2.5v-.4c.294-2.176.9-4.298 1.8-6.3 3.1-1.2 6.1-2.9 9.5-2.8Zm-12.2 3.7a16.685 16.685 0 0 0-1.5 5.4 18.662 18.662 0 0 0-.1 3.4l-3.6 1c.3-1.5.5-2.9.7-4.4.211-1.781.511-3.55.9-5.3a10.8 10.8 0 0 0 3.6-.1Zm-8.7-2.1a6.995 6.995 0 0 0 3 1.9c-.5 1.6-.9 3.3-1.3 5a43.355 43.355 0 0 0-.7 5.2 5.096 5.096 0 0 1-3.5-2.8 13.58 13.58 0 0 1-1.1-2.5c.7-1.2 1.3-2.6 2-3.7a.298.298 0 0 1 .1-.2l1.5-2.9Zm-4.5-8.4c1.2 2 1.9 4.3 3 6.2l-1.4 2.5-1.1 1.9-.8 1.2a25.904 25.904 0 0 0-1.7-3.3 10.139 10.139 0 0 0-1.3-1.6c0-.1.1-.2.2-.3.1-.1.8-1.7 1.2-2.5l.8-1.8c.4-.7.7-1.5 1.1-2.3Zm-5-4.6a13.088 13.088 0 0 1 3.5 2.7c-.7 1.6-1.6 3-2.4 4.5-.8 1.5-.2.3-.2.5a21.314 21.314 0 0 0-1.3 2.2 13.094 13.094 0 0 0-3.7-1.5l1.4-2.3.3-.6a50.668 50.668 0 0 0 2.4-5.3v-.2Zm-1.1-.6a.796.796 0 0 0-.4.4 36.51 36.51 0 0 1-2.5 5.3.103.103 0 0 1-.029.071.105.105 0 0 1-.071.029c-.6 1-1.4 1.9-2.1 2.9a17.008 17.008 0 0 0-4.5.2c.382-1.274.65-2.579.8-3.9.265-2.323.332-4.665.2-7 2.962.153 5.874.83 8.6 2Zm-16 6.5c-.1-1.3-.3-2.6-.5-3.8a13.407 13.407 0 0 0-1.4-4.7c2.4-.1 4.9-.2 7.4-.1a38.28 38.28 0 0 1-.6 6.8c0 .2-.1.4-.1.6 0 .2-.7 2.8-1 4.1l-1.1.4-2.6.9a29.593 29.593 0 0 0-.1-4.2Zm-1.9 5.1c-2.3 1-4.7 2.1-7.1 3l-.6.3c0-.2.1-.3 0-.5-.3-1.9-.4-4-.6-6a54.84 54.84 0 0 0-1.5-10l7.9-.4c1.6 2.4 1.8 5.7 1.8 8.9 0 1.6 0 3.2.1 4.7ZM552 692.1c3.3-5.4 10.4-10 17-8.6 6.6 1.4 7.1 10.3 7.9 16.4.8 6.1 2.7 10.3 8 12.6-1.6 3.4-2.5 7.4-3.9 10.6a36.51 36.51 0 0 1-2.5 5.3l-1.5 2.7a32.727 32.727 0 0 1-3.2 4.6 34.38 34.38 0 0 1-6.7-2.6c-9.6-5-17.6-16.3-18.3-27.6a23.803 23.803 0 0 1 3.2-13.4Zm56.5 22.2h.8l9.9-.8c0 3.8-.2 7.6-.2 11.4 0 3.8-.1 5.3 0 8-3.7.9-7.7 1.8-11.9 2.6a22.312 22.312 0 0 0 1.3-5.6l.3-2.5c.187-4.367.12-8.741-.2-13.1Zm12.5-1.1 8-.8c.8 3.4.6 6.9.9 10.3a20.79 20.79 0 0 0 1.3 6c.1.2.3.4.4.4a105.084 105.084 0 0 1-10.5 3.2c.283-2.691.416-5.395.4-8.1 0-3.7-.3-7.4-.5-11Zm-13.5 12.2c-.1.8-.1 1.5-.2 2.2a27.797 27.797 0 0 1-2.4 8.2 93.07 93.07 0 0 1-15.8 1.7c1.5-1.8 2.1-5.3 2.6-6.8.072-.355.207-.694.4-1 1.8-4.9 4.2-9.8 4.6-15.1 3.603.153 7.211.052 10.8-.3 0 3.7.1 7.4 0 11.1Zm-17.1 3.3-.4 1c-.9 2.3-2.8 7.4-2.4 7.7a.497.497 0 0 0-.7.1 53.695 53.695 0 0 1-10.6-1.1 66.91 66.91 0 0 0 4.6-7.5l.4-.9c2.2-4.3 4.8-9.6 5.9-14.7a33.392 33.392 0 0 0 7.7 1.2c-.8 5-2.8 9.4-4.5 14.2Zm21.5-137.8c-.1-.1-.1-.1-.1-.2s0 .1.1.2Zm18-10.7a1.997 1.997 0 0 1 1.1 0c.5.3.7.9 1 1.3.3.4.7 1.1 1.2 1a1.103 1.103 0 0 0 0-1.2c-.3-.9-.8-2.6.8-2.6.486.108.913.393 1.2.8.2.4 1.3 3.8 2.2 1.7.1-.326.1-.674 0-1a5.378 5.378 0 0 1-.3-1c.1-2.9 7.7-.1 9 .2l7.2 1.5c4.7 1.1 9.4 2.2 14 3.7h.3c3.6 1.2 9.3 4.4 13.9 4.6 0 .1.1.3.1.4v.5c-4.3 0-8.7.5-12.8.7l-19.5.9c-6.7.3-13.4.9-20.1.5a33.583 33.583 0 0 1-10-1.4c-1.6-.6-3.8-2.6-3.5-4.5.063-.376.237-.724.5-1a6.004 6.004 0 0 1 2.3-1.6 51.67 51.67 0 0 1 11.4-3.5ZM613 592.1a5.12 5.12 0 0 1-.9-1.6l-.3-.6.3.6a5.12 5.12 0 0 0 .9 1.6Zm150.9-122.7c.164-4.99.632-9.966 1.4-14.9 1.1-6.7 1.3-13.7 1.9-20.4 1.5-14.5 2.6-29 3.9-43.4 1.3-14.4 3.4-28.5 5.7-42.6 1.7-11 3.4-26.5 4.7-34.3l2.3 1.1h.1a7.706 7.706 0 0 0 6.5-.5h.1c-.1.1-.1.1-.1.2-3.5 9.1-3.7 19.2-4.4 28.8-1.1 13.4-3.6 26.6-5.2 39.9-1.6 13.3-3 27.4-4.4 41.1-.8 8.2-1.8 16.3-2.6 24.5s-.7 14.5-1.8 21.8c-.4 2.6-1.5 11.2-6.2 9.4-1.6-.6-2.1-2.2-2.3-4.1a41.63 41.63 0 0 1 .4-6.6Zm34.3-162.3a6.688 6.688 0 0 1-1.3 2.1 5.492 5.492 0 0 1-2.4 1.9 1.803 1.803 0 0 0-1-.4 12.708 12.708 0 0 1 1.3-3.2 13.626 13.626 0 0 0 3.5-.7c0 .1-.1.2-.1.3Zm-4.8-4.4 2-2.7a.401.401 0 0 0 .1-.3 15.27 15.27 0 0 0 3.4-.9 5.31 5.31 0 0 0 1.9-1.3l.7-.4a1.2 1.2 0 0 1 1.4.2 1.505 1.505 0 0 1-.1 1.7 8.4 8.4 0 0 1-4.2 3.9 8.706 8.706 0 0 1-3.1 1 25.344 25.344 0 0 1-2.7-.1h-.1l.7-1.1Zm-2.9-45.6-1.7-.2c-2.1-.2-4.7-.5-6.2-1.5s-1.7-8.1-1.9-11.7c3 .6 5.9 1.2 8.9 1.6l2.4.3 6.1 1c-.8 3.7-1 7.5-2 11.1l-5.6-.6Zm40.4-70.1.8.2a3.797 3.797 0 0 1 2.5 1.8v.2a3.704 3.704 0 0 1 0 1.8l-.3.8a5.971 5.971 0 0 1-.4.8.401.401 0 0 0-.1.3l-.2.2a2.71 2.71 0 0 1-.8.7c-.1 0-.3.1-.4 0a.802.802 0 0 1-.7-.2c-.4-.2-.8-.7-1.2-.9l-.7-.2-.6.2a1.797 1.797 0 0 0-.6.9l-.3.5c-.02.213-.088.418-.2.6 0 .1-.1.2-.1.4a5.309 5.309 0 0 1-1.3 1.6.797.797 0 0 1-.8.2l-.7-.2a2.19 2.19 0 0 1-.5-.8.602.602 0 0 0-.1-.4c-.1-.8-.2-1.7-1.1-1.9h-.2a1.398 1.398 0 0 0-.9.5 1.591 1.591 0 0 0-.4.7c-.2.5-.3 1-.5 1.5l-.3.4a1.697 1.697 0 0 1-1.5.5h-.1l-.7-.3a1.8 1.8 0 0 1-.7-.5c-.25-.36-.42-.769-.5-1.2a2.189 2.189 0 0 1-.1-.8c.01-.44.077-.877.2-1.3.095-.253.229-.49.4-.7a10.93 10.93 0 0 1 1.1-1.4l1.3-1.6 1.1-1.5a2 2 0 0 0 .4-.8.602.602 0 0 0 .1-.4c0-.2 0-.4-.2-.5l-.4-.3-1.1-.2h-.5a2.7 2.7 0 0 1-1.2-.6c-.1-.1-.3-.2-.3-.4s-.1-.1-.1-.2v-.6l.3-.5a2.4 2.4 0 0 1 .9-.8l.9-.5a14.775 14.775 0 0 1 2.9-1.2l1.3-.2h.7a1.604 1.604 0 0 1 1.2 1.5c0 .6-.5 1.1-.5 1.6-.1 1.9 3.8 2.9 5.2 3.2Zm-68.6 51.2c.4-1.9.6-3.9.9-5.7L765 219c1.2-8.8 2.3-17.6 3.5-26.4 1.2-8.8 2.5-18.5 4.3-27.7 1.2-6 2.1-15.2 6-20.8.2.6.3 1.1.5 1.6a2.793 2.793 0 0 0 1.8 1.6c-.6 3.1-.3 6.1 3.2 7.9a7.895 7.895 0 0 0 8.5-1.2c2.4 2.3 6.8.2 8.4-3.4a11.81 11.81 0 0 1 1.2 2.8h2v-.3c-.5-1.9-.3-3.8-.7-5.6a7.207 7.207 0 0 0-.9-2 5.41 5.41 0 0 0-1.5-1.5l-1.3-.5h-.4a3.411 3.411 0 0 0-2.5 1.1.997.997 0 0 0-.4.5 2.3 2.3 0 0 0-.3 1.6c.021.244.089.482.2.7.1.4.4.8.5 1.2.111.182.18.387.2.6a1.406 1.406 0 0 1-.3 1.3 1.002 1.002 0 0 1-.5.4h-.5a.786.786 0 0 1-.308-.192.786.786 0 0 1-.192-.308l-.2-.3c0-.2-.1-.5-.1-.8a1.6 1.6 0 0 0-.5-1c-.1-.2-.4-.3-.6-.4a2.499 2.499 0 0 0-2 1.2l-.3.8a4.895 4.895 0 0 1-.4 1.1.8.8 0 0 1-.2.4l-.4.6-.5.4c-.38.267-.835.407-1.3.4a3.506 3.506 0 0 1-2.9-1.6c-1-1.6-.8-3.6-.3-5.4.345-.75.45-1.588.3-2.4a1.101 1.101 0 0 0-.7-.9h-.5c-.586.213-1.188.38-1.8.5a.596.596 0 0 1-.6 0c-2.6-.2-1.8-4.5-.7-5.9l.9-1c1-.9 2.2-1.7 3.2-2.7a5.512 5.512 0 0 0 1.3-1.7c.26-.439.461-.909.6-1.4a3.39 3.39 0 0 1 1.4-2.2c.9-.4 1.9.2 2.9.5 3.3 1.4 9.1-.1 8.6 5.4-.1 1.1 1.1 2 2.1 2.1 1 .1 5.9-.9 6.9 1.9.4 1.2 0 2 1 3.1a5.604 5.604 0 0 0 2.9 1.6c1.3.3 2.8.1 4 .5 1.2.4 2.5 1.8 2 3.1s-1.7 1.3-2.8 1.8c-1.1.5-2.1 1.7-1.4 2.6a2.302 2.302 0 0 1 2.001-.503A2.297 2.297 0 0 1 819 151.5a2.297 2.297 0 0 1-1.156 2.754 2.303 2.303 0 0 1-1.044.246c-1.3-.1-2.4-1.3-3.7-1.3-1.3 0-2.9 2.6-4.7 3.1-1.8.5-3.3-1.1-3.9-2.8h-2a.895.895 0 0 0 .1.5c.3 1.3.3 2.9 1.2 4 2.3 2.9 6.3.4 9-1.4a6.397 6.397 0 0 0 6.8.2 6.7 6.7 0 0 0 2.2-2.5 5.202 5.202 0 0 0 .4-4l.3-.2c3.5 4.3 3.6 11.4 3.8 16.5.2 5.1.1 8.6.3 12.9v.4h-.3l-1.7-.3a10.798 10.798 0 0 0-4.8.6c-2.2.8-3.6 2.8-2.9 6.3.183.504.537.929 1 1.2a14.294 14.294 0 0 0-1.5 9.2 4.202 4.202 0 0 0 2.1 3l1 .2a3.506 3.506 0 0 0 2.6-1 4.001 4.001 0 0 0 2.6 1.8c-2.4 8.9-2.3 18.6-2.3 27.6.1 6 .6 12.4-.2 18.5-6.4-2.8-13.4-4.2-20.3-5.2-2.2-.3-8 0-9.4-1.8a2.808 2.808 0 0 1-.5-2.2c.2-1.3.9-2.7 1-3.9.1-3 .3-6 .3-9a5.253 5.253 0 0 1 .1-1.3c.1-5.6.5-11.1.9-16.7s1.3-13.9 2.1-20.9c.6-5.5 1.4-10.9 2.2-16.3.182-.825.315-1.66.4-2.5.182-.69.315-1.392.4-2.1.3-1.7-2.3-2.5-2.6-.8-.3 1.7-.1.7-.2 1-2.6 13.8-4.1 27.7-5.4 41.6-.6 6.6-.9 13.1-1.1 19.7a38.592 38.592 0 0 1-1.2 10.7c-.33.846-.597 1.715-.8 2.6-4.1-.6-8.5-1.5-12.8-2.1a32.79 32.79 0 0 0-13 .4Zm14.6 44.2h1.2c-.6 0-.5 9.6-.3 10.7.4 2.9 1.7 6.2 4.2 7.9 2.5 1.7 2.6 1.6 3.8 2.4a8.492 8.492 0 0 1 2.4 2.9c.1.222.168.458.2.7 1.7 5.7-4.9 4.4-7.7 2.8a29.339 29.339 0 0 1-4-2.8 11.492 11.492 0 0 1-3.5-5.1c-.4-1.8.4-4.5.7-6.5a.401.401 0 0 0 .1-.3c.6-3.8 1.1-8.8 2.9-12.7ZM587 174.4c6 1.4 12 3 18.1 4.2 3.5.7 7.4.5 10.9 1.4-6.3 12.4-13.7 23.1-25.3 31.2l-2.9 2-2.9 1.9a11.188 11.188 0 0 0-2.2-2.6 21.122 21.122 0 0 0-3.5-3.2l-.9-.6c.45-.829.819-1.7 1.1-2.6 1-3.6.1-7.6-.9-11.2a53.41 53.41 0 0 0-5.6-13.8c-3.1-5.4-7.2-10.1-11.3-14.9l-1-1.4c8.7 3.6 17.2 7.4 26.4 9.6Zm-29.5-7.3c3.8 4.8 7.9 9.4 11.2 14.6a44.4 44.4 0 0 1 6.6 21.2v.9a15.17 15.17 0 0 1-.3 2.1c-1.1 4.8-5.3 7.9-10 9.9a63.803 63.803 0 0 1-21.2 4.5 55.383 55.383 0 0 1-15.7-1.4l-3-.5a2.095 2.095 0 0 1-1.1-.4l-1.7-.4-1.9-.4a27.967 27.967 0 0 1-6.2-2c-9.8-3-19.9-6.9-30-7.7-.2-1.4-.4-2.7-.7-4.1-2.2-10.3-5.7-20.5-3.8-31.1a38.594 38.594 0 0 1 7.4-17.1 23.486 23.486 0 0 1 7-6.3c9.2-5.1 21.6 2.7 31.3 2.8a1.902 1.902 0 0 0 1.8-1.8 6.112 6.112 0 0 0-1.7-4.6c-2.2-2.4-5.9-3.9-8.9-5.2l-2.5-1.3c-1.4-.8-3.4-2-3.8-3.7-.4-1.7 3-5.2 5.4-5.6 5.5-1 11.4 2.2 16.2 4.7 4.8 2.5 10.2 4.6 12.7 9.5 1.5 3.1 1.5 6.5 2.8 9.6 2.3 5.4 6.5 9.3 10.1 13.8Zm-132.1-4.7a47.511 47.511 0 0 1-6.1-7.9c1.4.054 2.797-.185 4.1-.7v.2l1.9 7c.2.6.3 1.2.5 1.8l-.4-.4Zm5.9-10.2c.5.7 2.5 3.2 2.4 4.2-.3 2.7-2.8.2-3.8-.5a26.89 26.89 0 0 1-4.1-3.3h-.1l1.2-.9a18.844 18.844 0 0 0 2.5-2.4l1.9 2.9Zm13.9-52.6-1.7.2c-4.3.3-8.7.4-13 .6a23.075 23.075 0 0 0-7 2c-5.1 2.5-9.4 7.4-9.7 13.3-.3 5.9 2.8 9.7 6.2 13.6 3.4 3.9 11.9 11.6 6.8 18.5-7.5 10.3-17.1-.5-20.7-7.9a.798.798 0 0 0-.1-.4c-5.2-13.5-7.5-27.8-4-42.1 1.6-6.4 3.5-12.9 7.1-18.5 3.6-5.6 10.2-10.9 16.6-14.8 6.4-3.9 12-6.9 18.1-10.1 6.1-3.2 13.1-5.3 18-9.5a31.002 31.002 0 0 0 4.9-6.4 86.041 86.041 0 0 1 6.8-9.1c1.2-1.5 2.5-4.3 5-.2 1 1.6.3 4.4-.1 6-.4 1.6-1.9 6.1-2.4 9.2-.3 1.3.3 3.1 1.9 3.3 7.7 1.4 3.7 18.5 2.3 23.5-.207.95-.474 1.885-.8 2.8l-1.6.2c.004.247.073.488.2.7a8.79 8.79 0 0 1-.2 2.8c-1.7 7.4-6.7 11-12.6 15a39.61 39.61 0 0 1-9.1 4.8l-.4.2-1.3.4-1.3.4-1.3.4-1.3.3-1.5.3-1.2.2-1.7.2-.9.1Zm3 3.3 2.2-.3a62.507 62.507 0 0 0 14.1-4.2c1.9 3.7 3 8.3 4.6 12.1.4.8.7 1.6 1.1 2.3a10 10 0 0 0-3 3.4 57.975 57.975 0 0 0-7.6 5.4 4.993 4.993 0 0 0-2.1-1.2c-3.2-5.6-5.5-12.2-9.3-17.5Zm19.9 94.1c-.8-.6-2-1.1-2.8-.4a1.902 1.902 0 0 0 .1 2.5 17.3 17.3 0 0 0 2.1 1.7c2.3 2 2.8 5.5 2 8.4-.8 2.9-2.8 5.4-4.7 7.8a4.89 4.89 0 0 1-1.3 1.2 1.505 1.505 0 0 1-1.7-.1c-.4-.5.5-4.2.4-5.2a25.096 25.096 0 0 0-1.7-6.1 65.406 65.406 0 0 0-5.7-10.4c-2.5-4.3-5.7-8.5-7.4-13.1a63.086 63.086 0 0 1-3.2-26.6 43.497 43.497 0 0 1 5.8-17.8 51.383 51.383 0 0 1 9-11.3l2.6 3.4c1.8 2.1 5.6-.7 3.9-3-1.7-2.3-2-2.4-3-3.5l2.6-2a1.7 1.7 0 0 0 2.8-.1l1.6-2.3a19.68 19.68 0 0 1-1 3.2c-1.2 2.8 3 5.3 4.2 2.4a38.643 38.643 0 0 0 1.9-5.4 40.141 40.141 0 0 0 2.7 3.4c.9 1 2.9-.1 2.3-1.4-.6-1.3-1.9-4.5-2.9-6.7a33.346 33.346 0 0 1 5.2-2.1c6.9-2.3 14.3-3 21.7-3 9.2 0 15.7 2.6 23.1 7.6 7.4 5 16.1 9.5 21.4 17.1 2.4 3.4 10.5 17.2 4.4 19.8l-1.2-2c-3-5.8-2.3-11.8-7.8-16.3s-10.2-6.2-15.5-8.4c-5.3-2.2-10.6-3.9-15.6-1.7-3.4 1.5-6.5 5.5-5.5 9.4a8.2 8.2 0 0 0 1.2 2.5c1.6 2 4.2 3.3 6.3 4.4 2.1 1.1 6.9 2.5 8.6 5-10.6-1.1-22-8.2-32.1-1.5a33.801 33.801 0 0 0-10.2 12c-5.8 10.4-6.1 21.4-3.7 33 1.1 5.6 2.9 11.2 3.8 16.9.632 3.098.666 6.289.1 9.4a9.103 9.103 0 0 1-2.6 4.8c-1.5 1.5-3.5 2.4-4.9 4a3.297 3.297 0 0 0-.6 1c0 .4.1.9.5 1 .4.1.9-.1 1.3-.3a28.222 28.222 0 0 0 5.7-5.2c-1.5 8.8-12 12-19.6 9.6a19.298 19.298 0 0 1-9.6-7.7c1.965.569 4.055.534 6-.1 10.8-3.1 20.6-19.9 11-27.8Zm126.4 174.7c-.2-4.9-.5-9.8-.6-14.8-.4-11.8-.6-23.7-.8-35.6a227.256 227.256 0 0 0-2.5-31.9c-1.8-11.9-5-23.5-5.6-35.6-.1-2.1-3.4-2.1-3.4 0v.8c.2 10.6 3.9 20.6 5.6 31 1.7 10.4 2.2 23.8 2.3 35.7 0 2.4.5 5.5 0 7.8s-2.4 4.6-3.6 6.4c-2.6 4.1-6 7.9-10.7 9.6-4.7 1.7-13.1 1.7-19.5 1.1-10.4-.8-20.8-1.3-30.8-4s-16.9-5.6-25.8-5.4a23.492 23.492 0 0 0 2-6c.7-3.2 1.1-6.5 1.5-9.2.7-5 1.4-10 1.7-15.1a165.601 165.601 0 0 0 24.3 2.6c6.5.3 15.3 1.7 21.4-1.2 9-4.2 9.4-16.7 9.5-25.2a167.892 167.892 0 0 0-.7-17.4c-.6-7-1.6-14.9 1-21.7 2.6-6.8 8.8-11.6 14.2-15.7 5.4-4.1 11.7-7.9 17.5-11.9a80.11 80.11 0 0 0 19.3-18.8 98.042 98.042 0 0 0 7.4-11.5c1.8-3.2 2-6.5 6.6-6.3l10.2.4c6.761.286 13.504.92 20.2 1.9 12.6 1.8 25.9 5.3 35.9 13.6 12.2 10.2 18.4 26.7 22.9 41.5 2.5 8.5 4.2 17.1 6.3 25.7 1.2 4.7 2.5 9.7 7.4 11.8 2.6 1.1 5.5 1.2 8.3 1.4l12.9 1.3a156.092 156.092 0 0 1 24.4 4.4c-1.9 4.1-2.7 9.2-3.3 13.7-.2 1.3-.4 2.6-.5 3.7-.505 2.4-.74 4.848-.7 7.3-15.5 4.1-31.2 4.4-47.1 5.8-7.4.6-15.6 2-23 .6-5.5-1-8.4-4.5-10.1-9.2a33.517 33.517 0 0 1-1-3.4c-1-4.3-1.9-8.6-2.8-13-1.6-8.3-3.2-16.6-5.5-24.8-.6-2.2-1.3-4.4-1.9-6.6-.6-2.2-1.5-5.6-2.2-8.3-.7-2.7-2.2-7.8-1.3-10.1.9-2.3-1.5-3-2.9-2.3-1.4.7-3 4.1-2.8 7.5.2 3.4 1.8 8.5 2.3 10.7 2.3 8.9 5.5 17.6 7.7 26.6s3.3 15 5.9 22.2c1.5 4.2 3.1 8.5 6.6 11.4a19 19 0 0 0 9.4 4c-1.5 18.3-1.1 36.8-1.8 55.1-.1 2.7-.2 5.4-.4 8.1a2.398 2.398 0 0 0-1.3.4c-8 4.6-17.4 5.6-26.8 5.9-6.6.2-13.3 0-19.5.5-10.3.9-20.7 2-31.2 1.4a72.734 72.734 0 0 1-15.3-2.4 39.463 39.463 0 0 1-7.5-2.7c-2-1.1-1.6-2.3-1.6-4.4 0-2.1-.1-5-.2-7.4Zm9.8 114.2c-1.8-16.9-4-33.9-5.3-50.8-.6-8.5-1-17-1.7-25.5s-2.3-14.9-2.3-22.5a50.196 50.196 0 0 0 11.3 4.5c15.2 4.1 29.4 1 44-.4 8.6-.8 17.1-.8 25.6-1 6.9-.1 15.4-.3 21.8-3.6-.7 13.5-1.5 27.1-2.4 40.7-2.4 36.4-5.4 72.8-9.3 109.1-1.1 10.1-2.3 20.1-3.2 30.2-.4 4.7-.8 9.4-1.1 14.1.016.901-.017 1.803-.1 2.7l-3.9-.8a14.1 14.1 0 0 0 .2-4.1c-.1-2.4-3.8-2.4-3.8 0-.05.966-.05 1.934 0 2.9a70.854 70.854 0 0 0-7.4-2.4l-1.4-.4c-3.6-.9-7.3-1.8-11-2.5l-6.3-1-2.7-.4c-.7-.1-1.4.1-1.8-.6-.4-.7.1-1.7.2-2.4.6-4 .1-7.9-.1-11.9s-.7-8.6-.9-12.9c-.9-15.6-1.6-31.3-3.2-46.9-1.6-15.6-3.8-29.5-5-44.4-1.2-14.9-1.9-28.1-6.5-41.5a1.407 1.407 0 0 0-1.75-.95 1.41 1.41 0 0 0-.95 1.75c3.5 13.9 4.5 28.2 5.7 42.5 1.2 14.3 3.5 29 5 43.6 1.5 14.6 1.8 29.3 2.3 44 .1 5 0 10 0 15.1v7.5c.1 1.2.2 2.3.4 3.4a2.805 2.805 0 0 1-.5 2.5 3.494 3.494 0 0 1-1.8.6 34.505 34.505 0 0 0-7.1 1.5 31.184 31.184 0 0 0-6.6 2.6 6.103 6.103 0 0 1-2.6.8 4.996 4.996 0 0 1-2-.8l-3.1-1.7a2.003 2.003 0 0 1-1-.8c-.9-.8-.7-1.9-.7-3a19.734 19.734 0 0 0-.4-3.4c-.4-2.8-.8-5.6-1-8.4-.6-8.2-.9-16.4-1.7-24.6-1.7-16.9-4.1-33.6-5.9-50.4Zm-22.6 100.8a10.5 10.5 0 0 1 5.4-3.8 45.671 45.671 0 0 1 6.6-1.8 4.002 4.002 0 0 1 2.4-.3 2.098 2.098 0 0 1 1.9 1.4c.2.6.2 1.3.7 1.4a.703.703 0 0 0 .8-.7 2.692 2.692 0 0 0-.2-1.3 1.3 1.3 0 0 1 .2-1.2c.5-.4 1.3 0 1.6.5.225.585.493 1.153.8 1.7.4.5 1.2.8 1.6.3.4-.5-.6-1.9-.2-2.7.4-.8.8-.6 1.2-.7a17.113 17.113 0 0 1 4.5-.3c1.3.2 4.8 1.5 3.6 3.3l-.6.6a.099.099 0 0 1 .1-.1l.7-.2-.7.2a8.252 8.252 0 0 0-1.5 1.1l-.3.5a5.878 5.878 0 0 0-.5 2.3 13.996 13.996 0 0 0 1 4.4 28.908 28.908 0 0 1-5.8 2.2 67.89 67.89 0 0 1-10.1 1c-3.8.2-7.4-.7-11.1-1.2-.8-.1-1.5 0-2-.6a3.097 3.097 0 0 1-.9-1.8c-.1-.2-.1-.5-.2-.8a5.899 5.899 0 0 1 1-3.4Zm-155.8-45a7.572 7.572 0 0 1-.4-1.1c-.04-.283.032-.569.2-.8.2-.4.5-.5 1-.5l.5.2.7.3 1.8 1.3c.08.178.222.32.4.4l1.1 1 .8.7.7.8.6.6 1.7 1.9a1.9 1.9 0 0 0 1.5.7 2.3 2.3 0 0 0 1.6-.6l.3-.5.4-.9a40.485 40.485 0 0 1 5.3-8.2 13.309 13.309 0 0 1 3.7-3.1 6.802 6.802 0 0 1 2-.7h1c3.7-.1 4.6 2.1 4.1 4.6a8.601 8.601 0 0 1-.7 2.1l-1.2 2-1.5 1.6-3.2 2.9-1.6 1.5-.3.4a1.798 1.798 0 0 0-.2 1c.103.515.387.976.8 1.3.294.202.643.307 1 .3 1.3.1 2.7.1 4 .3l2 .3 2 .5h.5l2.3.7 1 .6.5.3c.379.431.653.945.8 1.5.014.205-.02.411-.1.6l-.3.5a3.206 3.206 0 0 1-1.5.9l-1.1.2c-1.08.015-2.157-.12-3.2-.4a18.613 18.613 0 0 1-3.1-1l-3.1-1.4-1.5-.7-1.4-.8c-.1 0-.1-.1-.1-.2a1.906 1.906 0 0 0-.5-.9 1.601 1.601 0 0 0-.9-.3 1.888 1.888 0 0 0-.94.131 1.892 1.892 0 0 0-.76.569.9.9 0 0 0-.3.6.798.798 0 0 0-.1.4c0 .2 0 .3.1.4a71.196 71.196 0 0 1 1.4 7.4c.133.692.167 1.399.1 2.1.016.635-.017 1.27-.1 1.9l-.3.8a3.2 3.2 0 0 1-1.4 1.8 1.8 1.8 0 0 1-1.3.4c-.6 0-.9-.4-1.2-1l-.2-.3a16.392 16.392 0 0 1-.4-2.5c0-.3-.1-.6-.1-.9v-2.6c0-.2.1-.3.1-.4v-1.8a1.7 1.7 0 0 0-.5-1.2 1.201 1.201 0 0 0-.8-.4h-.8l-.5.2-1.9 1.1-5.8 3.2-1.4.8-.6.4c-1.9 1-4.3 2.1-5.6 2.1-1.3 0-1.1-.4-1-1.3.1-.9 3.5-4.7 5.8-6.3a.997.997 0 0 1 .5-.4l.8-.6 3.4-2.5a28.504 28.504 0 0 1 3.7-2.3 1.7 1.7 0 0 0-.1-2.9l-.9-.2h-.4l-.3.2c-.1 0-.2 0-.2.1a38.3 38.3 0 0 1-5.7-5.7l-.7-1.2Zm-142-32a4.392 4.392 0 0 1 .1-2 1.692 1.692 0 0 1 1.4-.9 40.278 40.278 0 0 0-.4-6 47.486 47.486 0 0 1 3.1-15.4c1.4-3.6 6.7-13.4 11.9-10.6 3.3 1.8 2.7 8.9 2.5 11.9-.2 3-2.1 7.6-1.5 10.9.2 1.5 2 1.5 2.9.8.9-.7 2.2-3.2 2.7-5.6 2.8-6.3 8.7-13.8 15.8-12.8 1.7.2 2.8.3 2.4 2.2-.4 1.9-3.6 4.8-4.9 7.2-.2.5-.4 1.1-.1 1.5.3.4 1.2.4 1.7.2 5.3-1.9 10.1-4.3 15.5-5.7a67.939 67.939 0 0 1 15.6-1.8 62.2 62.2 0 0 1 30.1 7.5 93.102 93.102 0 0 1 8.9 6.1 52.199 52.199 0 0 1 11.4 65c-1.2 2.2 1.9 3.9 3.3 1.9a50.433 50.433 0 0 0 5.1-10.1h.1c5.1-2.3 10-2.4 15.2-2.4-5.7 3.5-12.4 9-10.5 14.2 2.6 7.4 13.5-.4 19.3-4.2 0 4.7.1 9.1 5.5 11a1.805 1.805 0 0 0 1.8-.5c4.2-4.3 4.6-9.5 3.8-14.9 4.3 2.3 10.4 4.6 14.3 2.9.324.217.711.322 1.1.3h2.7a1.196 1.196 0 0 1-.7-1.2c.2-1 1.8-.8 2.7-.3.9.5 4.2 1.6 6 2.9l.3.2.3.2.5.5.3.3.6.8c3 4.6-1.2 10.5-2 15.2a2.195 2.195 0 0 0 .815 2.15 2.198 2.198 0 0 0 2.285.25c3.8-1.6 18.4-12.6 17.4-1-.3 3.7-3.4 7-7.2 9.7a66.35 66.35 0 0 1-9 2.5 241.114 241.114 0 0 1-25.5 3.7c-16.3 1.6-32.7 1.6-49.2 1.7-19.1.1-38 .9-57-1.8h-.7a30.462 30.462 0 0 0-1.6-6.1c-2.5-7.2-8.5-15.4-16.5-15.1 1.6-7 .3-15.4-4-21.1a22.38 22.38 0 0 0-2.1-2.2l-.4-.3a12.75 12.75 0 0 0-2.5-1.5 9.675 9.675 0 0 0-2.2-.8h-.2a21.988 21.988 0 0 0-5.8-.6h-1.1a43.969 43.969 0 0 0-.4-5.1 93.241 93.241 0 0 0-6.1-14.3l-.2-.3a23.91 23.91 0 0 0-5.2-4.8h-.1l-.7-.5a24.8 24.8 0 0 0-11.5-3.6c-.974.001-1.946.101-2.9.3 2.8-2.6 3-6.8 2.8-10.5Zm-57.8 108.7c-3.9.1-19.1 1.2-16.8-5.9a2.202 2.202 0 0 0-2.2-2.8c-3.4.2-6.8.9-10.1 1-.7.1-3.3.4-3.8-.2-.5-.6 2.2-4.8 2.7-5.6a2.303 2.303 0 0 0-1.3-3.3c-9.4-2.3-18.9 1.5-27.4 5.1-8.5 3.6-18.7 8.1-28.9 8.7-9.027.517-18.077.483-27.1-.1-5-.2-10.8 0-15.4-2s-5.4-5.1-8.3-7.8c-2.9-2.7-6.5-5.9-9.6-9.1-5.7-5.8-11.1-13.7-6.8-21.9s14.3-14.4 23.8-14.7h3c.443.052.879.153 1.3.3l1.2.4h.4l.9.4h.3l5.6 2.6.7.3.5.2.7.3.5.2a14.31 14.31 0 0 0 6.8 1c1.4-.2 2.8-1.7 1.8-3.2-7.6-10.8-14.8-25.6-10.3-39 3.9-11.4 16-7 24.2-3.6a2.205 2.205 0 0 0 2.077-.545 2.206 2.206 0 0 0 .623-2.055c-2.4-6-4.3-12.3-3.9-18.8.4-6.5 3.3-12.8 7-18.4 2.3-3.6 4.7-7.6 8-10.5 3.3-2.9 5-1.6 6 2.2a28.685 28.685 0 0 0 1.7 5.7c.9 2 4 .9 4-1.1.3-16.6 21.2-25.9 35.5-26.4 8.1-.3 15.3 2.9 19.1 10.4a21.602 21.602 0 0 1 2 13.9 20.698 20.698 0 0 1-2.7 6.9c-1.2 1.9-2.8 4.1-2.6 6.4.1.5.2 1.1.7 1.3.5.2 1.5-.4 2.1-1 3.1-3.2 10-3.9 14-2.4s7.4 4.8 10.5 7.9a2.095 2.095 0 0 0 2.5.4c9.5-5.1 23.9-9 34-3.6 10.1 5.4 8.3 20.2 4.5 30a1.997 1.997 0 0 0 .9 2.6 2.206 2.206 0 0 0 1.5.8c6.8.6 13.5 1.7 18.2 7.3 4.7 5.6 4.9 13.4 5.3 20.7 0 .3 0 .6.2.7a.704.704 0 0 0 .6.2c2.9.1 6-.4 8.8.2 4.9 1.1 7.8 5.1 8.9 9.8 1.1 4.7 0 10.8-1.9 16.4a1.406 1.406 0 0 0 0 1.1 1.405 1.405 0 0 0 1.1.1h.2c.5-4.3 10.2-2.2 12.4-.7 2.2 1.5 5.4 7.4 6.2 11.6.622 3.296.756 6.665.4 10-1 9.5-14 5.9-20.1 5.3a61.989 61.989 0 0 0-17.7 1c-6.1 1.2-11.8 3.7-17.7 5.4-5.9 1.7-14.9 2.2-22.4 2.8-12.1 1.3-24.2 2.7-36.4 3.1Zm62.5 51.5-1.5-2.7-1.4-2.5c.8-.7 1.2-2.3 2.3-2.5 1.1-.2 2.3.8 3 1.3l4.8 3.2-.8.8-1.2 1.4h-.1l-1.1 1.3a.298.298 0 0 1-.1.2 11.25 11.25 0 0 0-1 1.3.298.298 0 0 1-.1.2l-.8 1.2c-.7-1-1.3-2.1-2-3.2Zm17.5 30.2a.298.298 0 0 0-.1.2c-2.1-4.4-5.9-7.5-8.4-11.9s-2.5-7.4-4.3-10.9c.1-.3.1-.6.2-.8.1-.2.1-.4.1-.6 0-.2.1-.1.1-.2l.3-.8c.093-.285.227-.555.4-.8 1.9-3.5 5.9-6.9 8.9-9.4 3.9 4 5.8 9.7 10.5 13 1.9 1.4 3.7 1.2 5.6 2.1 1.9.9 2.2 3.8 2.3 6.3 0 .5.1 1 .1 1.5-4-.7-7.9-.5-11 1.9-3.1 2.4-3.8 6.7-4.7 10.4Zm10 33.8c-5.8-2-6.6-7.3-6.9-13-.2-2.2-.3-4.5-.5-6.7v-1.1a14.926 14.926 0 0 1-.2-2.1c.6-2.4 1.3-4.8 2.1-7.2.8-2.9 1.3-8.6 4.3-10 3-1.4 10.3.6 14.1 1.7a51.825 51.825 0 0 0 11 2.6c.4 6.2 1.4 13.2 1 19.7v.3c0 .5-.1.9-.1 1.4a.904.904 0 0 1-.1.5c0 .4-.1.8-.1 1.3a.597.597 0 0 0-.1.4l-.3 1.7c-1.4 6-6.9 8.4-11 12.3-4.4-.1-9-.3-13.2-1.8Zm52-55.4c-1 4.8-6.7 6.8-9.4 10.4-2.2-2.6-5.3-4.6-8.3-4.3-3 .3-7.4 5-8.9 9.4a68.5 68.5 0 0 1-7-2.2c-.5-2.9.3-6 1-8.8.114-.287.182-.591.2-.9.1-.5.3-1 .4-1.5a15.182 15.182 0 0 1 1.2-3.2c1.4-2 2.6-2 5-2.1 2.4-.1 5.5-.1 7.9-2.2 2.4-2.1 4.4-5.1 6.4-7.8 4 2.7 10.7 6.7 11.5 11.4.05.298.05.602 0 .9v.9Zm-9.1 19.6c-.6 6-9.6 5.3-14.7 5.1v-.2c.2-2.5 1.2-16 7.8-14.2a9.701 9.701 0 0 1 6.9 9.3Zm-14.2 95.8a66.391 66.391 0 0 0-10.1-20.7l.8-.6.6-.4h.2l.6-.4 1.4-.4c1.8-.3 3.4.3 5.3 1.7s5.2 2.7 6.1 5.5c.9 2.8-.7 7.6-1.9 10.8l-.5 1.2a11.511 11.511 0 0 1-2.5 3.3Zm51.5 133.6c-7.3-5.4-14.8-11.3-23.7-13.7-3.6-11.9-5.3-24.4-8.3-36.5-3-12.1-6.3-26.1-9.3-39.2-3-13.1-4.9-24-7.8-35.9l-.8-2.9h.4l.3-.2h.1l.4-.2h.1l.4-.3h.2l.5-.3.6-.4.5-.3 1.6-1.1c2.4-1.5 4.6-1.6 7.3-1.9 2.7-.3 6.4-1.5 9.7-1.7 6-.3 9.6 2.6 13.1 7 7 8.4 11.3 19 17.4 28 3.3 4.8 8.6 9 10.4 14.5a46.628 46.628 0 0 1 1.9 12.5l.3 4.4c1.1 12.4 4.3 24.5 5.7 36.8-1.1 1.1-2.1 2.3-3 3.3-7.5 8.1-11.7 20-15.6 30.4l-2.4-2.3Zm21-95.9a14.2 14.2 0 0 1 4.2-9.9l.7-.8c4.5-3.5 11.6-4.4 16.7-5.6 7-1.7 14.8-5.6 20.8.4s10.6 15.3 14.8 23.3l1.1 2c1.8 3.3 4.1 6.2 6.2 9.3 2.1 3.1 2.9 7 2.9 11.5 0 .3.1.5.1.7h-.5a35.286 35.286 0 0 0-13.7 5.3c-6.5 4.4-13.4 7.2-20.4 10.7-7 3.5-14.1 9.2-21.7 12-2.3.8-4.8 1-7 1.9a93.536 93.536 0 0 0-1.3-16.6c-1.1-7-1.5-13.9-2.1-21-.2-1.7-.4-3.5-.7-5.3a46.483 46.483 0 0 0-1.1-5.1c2-2.9.9-10.3 1-12.8Zm93.1 23.1c-2.3 1.8-4.3 4.2-7 5.5-2.7 1.3-8.1 1-12.1 1.8h-1.1c.09-.349.224-.685.4-1a.394.394 0 0 1 .1-.3c.1-.3.1-.7.2-1 .1-.4.1-.7.2-1.1v-.2c0-.3.1-.7.1-1 0-.4-.1-.7-.1-1v-.3c-.1-.3-.1-.6-.2-.9-.1-.3-.1-.6-.2-1s-.1-.1-.1-.2l-.3-.8v-.2l-.4-.9c0-.1-.1-.1-.1-.2l-.4-.9h-.1a4.085 4.085 0 0 0-.5-.9c0-.1-.1-.1-.1-.2a5.607 5.607 0 0 0-.5-.8c0-.1 0-.1-.1-.1a9.515 9.515 0 0 0-.5-1h-.2l-.5-.9h-.1l-.7-.9h-.1l-.6-.9c-1.2-1.7-2.4-3.3-3.4-4.9l-.4-.5c-1-1.7-2-3.3-2.9-5l1-.9a37.958 37.958 0 0 1 8.4-5.3c5.2-2.5 8.6 2.2 12.1 5.5s13 11.9 13.2 19.4c-1.036.26-2.042.629-3 1.1Zm3.4 4.2a7.795 7.795 0 0 1 7.7-1c4.4 1.5 8.2 4.8 11.6 7.9 3.4 3.1 2.9 6.2 3.1 9.7.08.189.114.395.1.6v.5c0 .4.1.8.1 1.2a.394.394 0 0 0 .1.3c.018.407.085.81.2 1.2-.8 2.6-1.4 5.1-2.1 7.6a64.633 64.633 0 0 1-4.4 11.6c-2.6-3.6-5.4-6.9-7.7-10.7-.6-.8-1.1-1.7-1.7-2.6l-.3-.5-3.6-5.6-.3-.4-1.9-2.7-2.8-3.6a33.8 33.8 0 0 0-8.5-7.3 11.408 11.408 0 0 0 4.7-1.9c2.1-1.4 3.8-3.1 5.7-4.3Zm-37.4 103.5a3.4 3.4 0 0 1-1.9.9 40.645 40.645 0 0 1-4.6.3 63.213 63.213 0 0 1-9.7.2 79.041 79.041 0 0 1-16-2.9 84.016 84.016 0 0 1-28.4-14.1c-3.5-2.7-6-6-8.8-9.4a65.052 65.052 0 0 0-5.1-5.4c.372-.612.706-1.247 1-1.9l.3-.7.6-1.4.3-.7.6-1.4c.112-.182.18-.387.2-.6.276-.548.51-1.117.7-1.7h.1l1-2.8h.1c.19-.616.424-1.218.7-1.8 0-.2.1-.3.2-.5l.6-1.5c.309-.615.576-1.25.8-1.9 2.7-5.7 6.2-14.6 12.9-15.8 8.8-1.6 15.2-5.5 22.6-10.5 7.4-5 14.6-9.1 21.5-14.2 3.6-2.7 6.9-6.9 11.3-8.4s6.4-.6 9.3 0c6.6 1.3 13.1 2.8 18 7.7s8.9 11.6 13.1 17.6c2.8 4.1 5.9 8.9 10.1 11.8l-3 6.2c-.2.5-.5 1-.8 1.6l-.2.4-1.2 2.1-.6 1.2a2.19 2.19 0 0 0-.5.8l-1.2 1.8-.3.4-1.1 1.6-.5.5c-.5.6-1 1.3-1.5 1.8l-10.8 2c-5.2.9-11 1.9-15.3 5.2-4.3 3.3-6.6 9.6-8.4 14.9-1.1 3.3-2 6.7-3 10s-1.3 6.9-3.1 8.6Zm68.2 6.4c-12.5 1.5-25.6 6.3-38.2 4.2-6-1-11.6-4.2-17.4-6a71.302 71.302 0 0 0-9.1-2.3c2.2-4.6 3.5-9.6 4.9-14.5l.3-1.2c1.6-5.7 3.3-12.7 7.6-16.7s10.3-3.9 15.4-4.4c5.1-.5 11-1.6 16.5-2.4 5.5-.8 13.3-2.5 19.2-1.1 5.9 1.4 7.6 6.4 9.9 10.6 2.3 4.2 4.9 9.8 7.4 14.7l1.7 3.2.3.7 1.8 3.3.2.3c.5 1 1.1 1.9 1.7 2.9.222.227.393.5.5.8l2.1 3c-7.5 3.8-16.9 3.9-24.8 4.9ZM574 961c-7.2-10.3-10.4-23-17.4-33.6-2.7-4.1-6.2-7.6-11.2-8.8-5-1.2-13.5.4-19.6 1.4l-4.2.8 1.4-1.8.5-.5.9-1.3.5-.7.9-1.2.4-.6.9-1.3.4-.6c.3-.5.7-1 1-1.6l.2-.2 2.7-4.2 1.1-1.6c8.3.4 16.5-1.6 24.5-3.4 8-1.8 16.2-4 23.1-1.5 4.7 1.7 6 7.9 6.6 13.1.2 1.5.3 3 .5 4.3.5 4.4.3 10.4 2.2 14.8-4.6 9.4-7.3 21.7-15.4 28.5Zm76.1-223.3c-.8 6.3-2 12.5-2.8 18.7-1.9 14.4-3.8 28.7-5.5 43-.8 6.4-.8 12.7-4.5 18.2s-5 8.1-5.3 13.3c-.3 5.2 1.2 12.4 1 18.7a76.694 76.694 0 0 1-3.2 20.1c-3.9 12.5-9.9 25.1-18.1 35.4-6 7.6-13.8 14-19.2 22.1-.7-5.3-.9-10.6-1.6-15.9-.7-5.3-2.1-13.1-7.8-15.9-5.7-2.8-15.9-1.2-22.9.2-7 1.4-16.3 3.4-24.6 4.9 4.7-7.6 6.1-16.3 7.2-25.1 5.9-2 10.7-6.3 16.4-9.1 5.7-2.8 13.8-5.5 20.6-8.4 9.1-4 18.7-7.6 23.2-16.7l-1.7-.8c-1.3 2.8-3.3 4.5-6.7 6.4-5.5 3-11.1 5.8-16.9 8.4-5.8 2.6-11.8 5-17.6 7.8-5.8 2.8-12.5 9.4-18.5 8.6a15.205 15.205 0 0 0-2.8-7.5c-3.4-4.5-9.4-8.1-14.5-10.4a14.8 14.8 0 0 0-6.9-1.6c-.7-9.3-11.3-18.2-17.4-23.7-4.1-3.8-7.6-6.4-13.1-3.7-2.9 1.4-7.2 3.6-10 6.5-1.7-2.9-3.4-5.8-5.2-8.5-2.9-4.3-6.1-9.3-10.4-12.3-7.2-5.1-15.4-1.4-23 .6-3.7 1-8 1.9-11.9 3.6 2.3-5.9 1.1-12.3.6-18.4-.7-8.1-1.7-17.5-.1-25.4a1.003 1.003 0 0 0-.675-1.171 1.001 1.001 0 0 0-1.225.571c-2 7-1.3 14.5-1.1 21.6.2 7.1 2.9 16-1.5 22.4-2.9 4.3-7.6 6.7-8.9 12.1-.4 1.2-.8 6.8-.6 11.4-3.6-5.1-8.4-9.3-11.8-14.6-6.1-9.6-11.5-19.2-19.4-27.5-2.8-3.1-5.6-5.3-9.8-6-6.1-1.1-12 1.2-18 .2 1.5-4.6 3.4-13.4-2.8-15.7-1.4-.5-2.4-.5-3.7-1.5-1.3-1-1.9-1.8-3-2.5a11.293 11.293 0 0 0-5.2-1.9c-2.6-.2-4.6 1.4-6.8 2.5a17.599 17.599 0 0 1-1.1-8.4c.3-3.6.9-7.2 1.3-10.8.4-3.6.2-8.9 1.3-13a2.21 2.21 0 0 0 .1-.8c4-3 8-6.8 9.7-11.5 1.7-4.7 1.1-8.3 1-12.3-.1-4-.2-5.4-.3-8.1 8.2.8 20-.3 17.2-11.4a11.796 11.796 0 0 0-.7-2c4.6-2.6 11.2-9.5 11.2-14.7.1-7.8-9.4-12.4-14.6-16.6a2.003 2.003 0 0 0-2.8 0c-3.3 4.2-6 9.7-11.7 9.8-3.5.1-6.6.1-8.7 3.3-2.1 3.2-4.4 11.2-3.2 16.4-2.1-.8-4.3-1.6-6.4-2.2-.1-4.5 1.1-10.3-4.4-11.9-5.5-1.6-6.4-2.9-8.8-6.8-2.4-3.9-3.9-6.3-6.8-8.6a1.907 1.907 0 0 0-2.081-.417 1.915 1.915 0 0 0-.619.417c-.7.6-2.4 2-4.3 3.8-2.6-2.2-4.7-5.1-8.2-6.1a5.005 5.005 0 0 0-5.7 2.1c-.8-1.8-1.7-3.6-2.4-5.4-2.4-5.5-4.1-11.5-8.9-15.4-2.3-1.8-3.2-2.2-3.4-5.9-.1-1.2.2-2.3 0-3.5a14.911 14.911 0 0 0-2.2-5.6 14.506 14.506 0 0 0-5.8-4.7c5.1-.3 10.2-.7 15.3-1.3 8-.9 15.1-3.9 22.8-6.1a59.787 59.787 0 0 1 21.9-1.8c3.749.449 7.524.649 11.3.6a21.896 21.896 0 0 0 5.7-.9 10.099 10.099 0 0 0 6.2-6.8c.319-1.037.488-2.115.5-3.2 15 3.9 30.8 3.5 46.2 3.4 15.4-.1 32.2.3 48.4-.6 11.8-.7 24.3-1.4 36.2-3.9h.9l.8-.3a77.939 77.939 0 0 0 8.3-2.2c6.7-2.1 12.9-5.6 19.7-7.5 6.8-1.9 16.8-1.6 24.9-1.1 8.1.5 15.7 1.2 23.6 2.1a80.59 80.59 0 0 1 16.9 3.5c1.186.34 2.355.74 3.5 1.2 1.3.5 1.2 2.5 1.4 3.6.2 1.1.6 3.7 1 5.5.4 1.8.2 3 1 4.1.8 1.1 1.2.3 2 .6.998.279 1.968.647 2.9 1.1.7.2 6.1 2 6.1 2.5a25.692 25.692 0 0 0-.4 9.1c.6 3.5 3.1 3.2 5.4 5.3 4.2 4.2 1.7 14.5 1.2 19.7-.6 6.7-.8 13 .5 19.6a2.7 2.7 0 0 0 2 2c4.9.7 10.2 1.8 15.1 1.1a35.818 35.818 0 0 0 6.4-1.8c2.3-.7 4.8-.6 7-1.5l.8-.5a7.3 7.3 0 0 1 3.7 3.1c2.7 4.5 3.5 10.3 5.6 15.2.9 1.8 1 4.4 2.1 5.9s3.5 2 4.8 2.6c1.3.6 4.4 1.8 5.3 4 .9 2.2 1.5 5.6.8 6.8a2.403 2.403 0 0 0 .3 3c-8.3-.6-17 .3-25.2 1s-18.2 2.1-27.3 1.7c-3.5-.1-8-.3-11-2.3-3-2-3.3-8.3-3.6-12.3-.3-4-1.8-10.9-6.6-14.4s-10.5-3.4-15.7-1.7c-13.5 4.4-18.8 18.6-16.5 31.8a40.197 40.197 0 0 0 28 31.4c15.8 4.7 34.7.4 50.3-3.7a125.775 125.775 0 0 0 13.2-4.1l5.2-2.3a48.112 48.112 0 0 1 7.1-2.9 13.782 13.782 0 0 1 4.3-.7h1.1c-1.5 3-1.9 6.3-2.4 9.7Zm86.2-18.9 1.1.4c.92 3.18 1.259 6.5 1 9.8a18.712 18.712 0 0 1-1.4 6 17.063 17.063 0 0 0-2.3-1.3h-.2a29.26 29.26 0 0 1-3.7-2.4 11.994 11.994 0 0 0 1.5-10.8 4.696 4.696 0 0 1 4-1.7Zm-3.4 16.3.3.3a26.16 26.16 0 0 0 2.8 1.7 27.114 27.114 0 0 1-4.4 5.7 23.993 23.993 0 0 0-2-3.9c-.9-1.4-1.9-2.8-2.8-4.3a11.033 11.033 0 0 0 2.8-2 35.917 35.917 0 0 0 3.3 2.5Z"/><path fill="#464646" d="M739.6 575.3c-1.3 5.2-3 10.1-2.5 15.4a2.304 2.304 0 0 0 1.134 1.963 2.307 2.307 0 0 0 2.266.037c6.3-2.9 12.4-8.4 17-13.5a44.887 44.887 0 0 1 9.7-8.2c1.8-1.3 3.6-2.6 5.6-3.8a14.887 14.887 0 0 1 3.6-1.7c.5-.2 2.9-1.1 3.4-.4.5.7-.3 1.2-1 1.9a20.217 20.217 0 0 1-1.5 1.5c-3.3 3.6-6.8 7.2-10.1 10.9-1.9 2.1-4.8 5.8-1.5 8 1.5 1 3.6.3 5.2-.5a49.476 49.476 0 0 0 4.5-2.4c2.6-1.5 5.1-3.1 7.7-4.4 4.3-2.1 9.3-3.9 14.1-3.3.5.1 1.1.3 1.2.8.1.5-.4.9-.8 1.2-3.5 2.4-7.6 4.3-10.7 7.2-1.4 1.2-7.9 9.1-2.1 9 13-.3 26.5 1.3 39-2.6 2-.6 1.8-4.1-.5-3.8a155.432 155.432 0 0 1-18 1.2h-9c-2.6 0-5.5.5-7.9-.3a60.597 60.597 0 0 1 13.1-10 7.198 7.198 0 0 0 2.4-1.8 2.401 2.401 0 0 0 .2-2.8 3.8 3.8 0 0 0-2.3-1.1 33.497 33.497 0 0 0-25.5 7.2 7.7 7.7 0 0 1-2.1 1.4h-.3c-1 .2-2.2-.3-2.3-1.2-.1-.9.3-1.4.7-2a86.362 86.362 0 0 1 15.3-16.1 7.402 7.402 0 0 0 1.7-1.8 2.096 2.096 0 0 0-.2-2.3c-.6-.7-1.8-.6-2.7-.4a40.882 40.882 0 0 0-10.8 4.4l-3.9 2.3a170.19 170.19 0 0 0-14.4 9.5c-2.5 1.9-5.1 3.3-7.4 5.4a90.928 90.928 0 0 1-9.1 7.3c-1-2.5-.1-5.4 1.3-7.8 1.4-2.4 3.1-4.4 4.2-6.9a2.308 2.308 0 0 0 .3-1.8c-.3-1.1-1.8-1-2.6-.8-4.5 1-7.9 3.4-11.1 6.1l2.4 1.7a15.2 15.2 0 0 1 4.3-2.7ZM688.7 402.4c.9-2.5.5-5.8.3-8.5a2.104 2.104 0 0 0-2.1-2.1 2.1 2.1 0 0 0-2.1 2.1c-.2 2.7-.6 6 .3 8.5a1.898 1.898 0 0 0 3.6 0ZM687.3 419.8c.418-1.255.588-2.58.5-3.9a9.89 9.89 0 0 0-.4-3.8 1.91 1.91 0 0 0-.669-1.056 1.905 1.905 0 0 0-2.362 0 1.91 1.91 0 0 0-.669 1.056 12.296 12.296 0 0 0-.4 3.8c-.088 1.32.082 2.645.5 3.9a1.8 1.8 0 0 0 3.5 0ZM687.1 436.4c1.1-2.6.7-5.7.6-8.5-.1-2.8-4.2-2.8-4.3 0-.1 2.8-.4 5.9.6 8.5a1.599 1.599 0 0 0 2.531.867c.281-.218.481-.523.569-.867ZM685.2 454.9a12.51 12.51 0 0 0 .7-4.3c.193-1.388.494-2.759.9-4.1.6-2.2-2.5-3.6-3.6-1.6a15.48 15.48 0 0 0-1.5 4.6c-.2 1.5-.6 3.4.1 4.9.7 1.5 2.6 2.1 3.4.5ZM683.7 474.8a4.692 4.692 0 0 0 .6-1.9c.083-.73.117-1.465.1-2.2.1-1.4.4-2.7.5-4.1.1-1.4-2.8-2.7-3.7-1-.9 1.7-2.2 6.7-.4 9.2.7.9 2.3 1.2 2.9 0ZM681.7 495.5c.593-1.286.9-2.684.9-4.1.2-1.3.5-2.4.8-3.6a1.9 1.9 0 0 0-3.1-1.9c-2.3 2.1-2.9 6.9-1.6 9.6a1.791 1.791 0 0 0 2.351.591c.262-.14.485-.343.649-.591ZM681.2 514.4c.8-2.4.4-5.3.4-7.8s-4-2.6-4 0-.4 5.4.3 7.8a1.7 1.7 0 0 0 3.3 0ZM679.5 538c1.5-3.3.7-7.8.6-11.4a1.9 1.9 0 1 0-3.8 0c-.1 3.6-.9 8.1.6 11.4a1.5 1.5 0 0 0 2.6 0ZM679.2 553c.7-1.9.3-4.3.2-6.4a1.802 1.802 0 0 0-1.8-1.8 1.798 1.798 0 0 0-1.8 1.8c-.2 2.1-.5 4.5.2 6.4a1.7 1.7 0 0 0 3.2 0ZM675.9 564.1a9.798 9.798 0 0 0-.6 6.9c.5 1.4 2.9 1.8 3.2 0 .3-1.8.2-4 .8-5.9.6-1.9-2.6-3-3.4-1ZM608 755.6c0 6.2 2 12.3 3.1 18.4 1.5 7.9.4 16-.7 23.9-2 13.2-5.1 26.2-8.1 39.2a21.71 21.71 0 0 1-1 3.3l1.7.8.5-.9c2.1-4.7 2.8-10.2 3.9-15.2 1.9-8.2 3.7-16.3 5.1-24.6a155.235 155.235 0 0 0 2.2-21.5c.2-7.9-1.3-15.7-1.4-23.6 0-3.7-5.6-3.2-5.3.2ZM569.7 695.9c1.9.6 2.3-1.6 2.5-2.9a6.402 6.402 0 0 0-.2-3.1 1.112 1.112 0 0 0-.459-.837 1.102 1.102 0 0 0-.941-.163 2.302 2.302 0 0 0-1.9.9 8.378 8.378 0 0 0-.5 1.7c-.3 1.4-.1 3.9 1.5 4.4ZM552.4 666.9c6.3 1.6 17.7 6.7 18.9-3.7.4-4.1-1.1-8.6-5.9-8.5a15.715 15.715 0 0 0-5.7 1.3 1.102 1.102 0 0 0-1.1.3l-.3.3c-1.9.9-3.4 2.1-3.8 3.5v.2c-1.1 1.2-2.2 2.6-3.2 3.9a1.906 1.906 0 0 0-.081 1.607 1.909 1.909 0 0 0 1.181 1.093Zm4.7-4.5c2.2-.4 4.8-2.8 6.8-3.4 2-.6 2.4-.7 3.2 0 .8.7.9 4.2.3 5.4-1.6 3.6-7.6 1.3-11.5-.2l1.2-1.8ZM559.8 199.3c.532.05 1.068.05 1.6 0a1.599 1.599 0 0 0 1.4-1.6 1.701 1.701 0 0 0-1-1.7 3.806 3.806 0 0 0-3.3.2c-2.1 1.1-2 2.3-1.7 4.4a3.806 3.806 0 0 1 3-1.3ZM559 695.1a2.201 2.201 0 0 0 1.7.6 1.602 1.602 0 0 0 1.1-.5l.3-.5c.143-.248.245-.519.3-.8l.2-.6a2.21 2.21 0 0 0 .1-.8h.1a2.105 2.105 0 0 0-.8-1.9 1.993 1.993 0 0 0-2.1-.1 2.9 2.9 0 0 0-1.6 2.9c.018.633.267 1.237.7 1.7ZM546.7 748a1.996 1.996 0 0 0-1.9-1.9c-3.8 0-7.8-1.6-11.6-1.7a1.697 1.697 0 0 0-2.316-1.338c-.32.128-.594.351-.784.638-2.6 3.7-4.1 10.6-3.2 15 .9 4.4 5.9 7.2 11 7.5 11.1.5 8.5-10.8 8.8-18.2Zm-7.9 13.8c-9.1-.2-6.6-7.3-5.7-13.4 3 1.1 6.7 1.2 9.9 1.4.2 4.6 1.3 12.1-4.2 12ZM538.3 144l-.3-.3c-1.5-1.3-3.1-1.9-4.3-3.7-1.2-1.8-1.6-3.3-2.6-3-1 .3.5 4.2 1 4.3a6.198 6.198 0 0 1-3.3-1.7c-.5-.5-3-2.6-3-3.2 0-.6-.6-.6-1-.4a.804.804 0 0 0-.3.7c.013.262.12.51.3.7a15.6 15.6 0 0 0 4.7 5.2 17.014 17.014 0 0 0 6.1 2.8c1 .3 4.6.8 2.7-1.4ZM530.9 189.7a1.599 1.599 0 0 0-.867 2.531c.218.281.523.481.867.569a1.599 1.599 0 0 0 .867-2.531 1.599 1.599 0 0 0-.867-.569ZM529.3 201.9c-2.5-.3-6.4-.2-6.3-3.6.1-3.4 2.5-5.5 4.6-7.1 2.1-1.6.2-3.6-1.4-2.5-3.5 2.2-6.6 6.1-6.4 10.5.2 4.4 5.4 6.5 9.5 5.4 1.2-.4 1.4-2.4 0-2.7ZM525.4 179.3a7.297 7.297 0 0 1 2.9-5.2l.5-.3.3-.3c1.3-1.9-2.7-.1-3.2.4a8.1 8.1 0 0 0-2.4 5.1c-.1 2.4 1.4 3.1 1.9.3ZM522.5 174.6c-.2-2.1-1.3-3.3-2.8-4.6a9.993 9.993 0 0 1-1.4-1.5c-.4-.8.1-1.9-1.1-2.2-1.2-.3-2 3.8-2.3 4.8a15.903 15.903 0 0 1-3 5.4c-.8.9-2.5 1.7-2.8 2.9-.3 1.2.4 2.1 1.5 1.7a4.903 4.903 0 0 0 1.8-1.1 6.503 6.503 0 0 0 5.5 1.4 6.296 6.296 0 0 0 4.6-6.8Zm-3.5 3.5c-1.4 2-6.1.9-4-1.5 2.1-2.4.9-3 3-2.6a1.305 1.305 0 0 1 .8.7c.8 1.6.7 2.7.2 3.4ZM513.9 209.4a2.599 2.599 0 0 0 .4-1.8 7.192 7.192 0 0 1 1.7-5.8l.3-.4.3-.4c.8-2.1-2.7.6-3.1 1.1a7.598 7.598 0 0 0-1.1 5.5c.041.58.249 1.136.6 1.6.3.4.7.5.9.2Z"/><path fill="#464646" d="M503 209.3a5.395 5.395 0 0 0 1.4-1.6 5.699 5.699 0 0 0 3.2.3 8.489 8.489 0 0 0 2.4-.9 6.4 6.4 0 0 0 2.1-8 7.303 7.303 0 0 0-4.2-3.3 5.193 5.193 0 0 1-1.8-1c-.7-.6-.6-1.7-1.9-1.6-1.3.1-.5 4.2-.5 5.3a13.81 13.81 0 0 1-1 6 13.107 13.107 0 0 1-1.1 1.9 3.094 3.094 0 0 0-.5 1.8c.1.9 1 1.8 1.9 1.1Zm2.7-5.8c.6-1.5-.2-3.1 1.9-3.3a.998.998 0 0 1 1 .3c1.3 1.2 1.6 2.3 1.3 3.1-.7 2.4-5.4 2.9-4.2-.1ZM506.2 164.4a16.599 16.599 0 0 1-8.9 8.6c-1.9.8-.5 4.1 1.4 3.4 4.9-1.8 10-5.5 10.5-11.1.1-1.6-2.4-2.3-3-.9ZM499.6 122.1a5.602 5.602 0 0 1 3.3 1c1.2.9 2.8-1.1 1.6-2.1a6.9 6.9 0 0 0-4.9-1.9 1.503 1.503 0 0 0-1.5 1.5 1.503 1.503 0 0 0 1.5 1.5ZM499.9 139.2a4.6 4.6 0 0 1 1.5.9 1.203 1.203 0 0 0 1.7-1.7l-1.3-1-.9-.6a1.304 1.304 0 0 0-1.487.175 1.3 1.3 0 0 0-.313.425 1.103 1.103 0 0 0-.1.5 1.4 1.4 0 0 0 .9 1.3ZM498.2 128.8c1.247-.07 2.497.065 3.7.4a1.3 1.3 0 1 0 1-2.4 7.597 7.597 0 0 0-4.7-1.1 1.593 1.593 0 0 0-1.067.503 1.596 1.596 0 0 0-.433 1.097 1.503 1.503 0 0 0 1.5 1.5ZM489.5 193.4a11.602 11.602 0 0 1 2 4c.5 1.4.6 2.9 1.1 4.3a1.701 1.701 0 0 0 3.3-.4 14.099 14.099 0 0 0-3.9-9.9c-1.2-1.2-3.6.5-2.5 2ZM483.3 139.2a5.805 5.805 0 0 1 6 1 1.344 1.344 0 1 0 1.9-1.9 7.602 7.602 0 0 0-8.7-1.7c-1.5.7-.9 3.3.8 2.6ZM488.4 604.2c-15.4 4.8-30.8 4-46.6 5.8-6.7.8-13.8 1-20.4 2.5-6.6 1.5-8.7 5-13.1 7.6-7.4 4.5-13.5-.4-20.9-1.7-7.4-1.3-13.9 1.7-21.1 2.1-7.2.4-14.4-.4-21.6.3-7.2.7-13.7 2.7-20.1 1-6.4-1.7-8.7-6-14.9-5-6.2 1-10.9 5.6-16.5 7.7a1.505 1.505 0 0 0 .8 2.9c5.6-1 9.8-5.5 15.2-6.9 5.4-1.4 7.6 5.8 12.9 7.9 5.3 2.1 13.1.9 19.2.1s14.8-1.8 22.3-2.3c7.5-.5 14.3-3.8 21.4-3.3 7.1.5 12.5 5.2 19.4 3.9 6.9-1.3 9.3-5.3 14-8 4.7-2.7 14.4-2.6 21.1-3.5 16.8-2.3 34.5-1.1 50.3-7.9 1.8-.7.5-3.8-1.4-3.2ZM478.9 72l-.9-1.3a3.6 3.6 0 0 0-1.8-.8h-1.3c.3-1.4.6-3.1.9-4.7.231-2.059.265-4.135.1-6.2v-.4a10.9 10.9 0 0 0-2-5.2 3.3 3.3 0 0 0-4-1.1c-.8.3-2.7 3.2-2.9 3.5a20.7 20.7 0 0 1-5.4 3.9c-7.2 3.7-15.5 4.4-22.5 8.7-5.3 3.2-10.7 7.8-13 13.7-.5 1.2 1.3 2.1 2.2 1.3 4-4.1 7-8.5 12-11.6 5-3.1 9.1-4.2 14-5.8-.3 2.1-.4 4.3-.6 6.4-.2 2.1-1 5.4-.1 7.8a1.295 1.295 0 0 0 1.016.768 1.299 1.299 0 0 0 1.184-.468c1.3-2 1.2-4.7 1.4-7 .349-2.853.45-5.73.3-8.6h.1l4-1.6c-.02 1.477.114 2.951.4 4.4a31.357 31.357 0 0 0 1.3 6.8 1.3 1.3 0 0 0 2.5 0c.647-2.448.75-5.008.3-7.5a14.8 14.8 0 0 0-1.4-5.2 23.517 23.517 0 0 0 4.7-3.6c.1 0 1.5-2 2.1-1.8.6.2.6 5.1.6 5.7.1 3.5-.7 6.8-.9 10.3a4.896 4.896 0 0 0 .1 2.5h.5a.099.099 0 0 1 .1-.1h.4l.3-.3c.6-.5 1-1.2 1.6-1.7l.4-.3.5-.2h.6l.6.2.3.2c.499.33.911.776 1.2 1.3l1.6-.2c-.1-.2-.1-.5-.2-.7l-.3-1.1ZM455.2 168c.09-2.147.494-4.27 1.2-6.3.7-2-2.3-2.8-3-.9a28.399 28.399 0 0 0-1.3 11.9 19.295 19.295 0 0 0 3.3 9.4c.6.8 1.6 1.7 2.6 1.2a39.199 39.199 0 0 1-2.8-15.3ZM439.8 548.6a6.57 6.57 0 0 0 .1 1.4 1.7 1.7 0 0 0 1.7 1.5 1.802 1.802 0 0 0 1.6-1.3 4.312 4.312 0 0 0 .1-1.6c-.1-.9-.8-1.8-1.7-1.7h-.7a2.092 2.092 0 0 0-.768.709 2.09 2.09 0 0 0-.332.991ZM413.5 142.5a3.997 3.997 0 0 0 2.3 3.4 3.091 3.091 0 0 0 2.742-.015 3.092 3.092 0 0 0 1.658-2.185 3.696 3.696 0 0 0-.334-2.846 3.7 3.7 0 0 0-2.266-1.754c-2.8-.8-4.3 1.3-4.1 3.4Zm4.1-1.3h.3a1.798 1.798 0 0 1 .6 2.8c-2.6 2.9-4.1-3.7-.9-2.8ZM344.7 517.5c-3.2 3.7-7.3 9.8-2.5 12.6 4.8 2.8 10.4-3.5 14.2-8.2a26.307 26.307 0 0 0 .5 7.5 8.597 8.597 0 0 0 3.9 5.6 1.7 1.7 0 0 0 1.9-.3 19.109 19.109 0 0 0 4.1-14.2c3.8 3 8.7 4.5 11.6 0 2.9-4.5-2-10.4-6.8-13.3a21.898 21.898 0 0 0 5.4-4.6c2.1-2.5 2.8-5.5 0-8.6-5.4-5.8-11.4-1.3-15.6 3.4-2-4.8-7.4-8.9-12.5-5.9s-4.8 8.8-3.6 13.5c-6.7-.9-18.8-.9-15.6 6.9 1.8 4.4 8.9 5.9 15 5.6Zm-5.7-9.6c2.5.1 9.4 2.5 10.4-.9a5.004 5.004 0 0 0-.3-2.7c-.3-.8-.7-1.6-1-2.5a6.304 6.304 0 0 1 1-5.8c4.3-5.4 10.1.7 10.8 5.4a4.88 4.88 0 0 0 .1 1.2l4.2-4.5c1.7-1.9 3.7-3.8 6.2-4a5.106 5.106 0 0 1 5.1 3.1 5.2 5.2 0 0 1-.6 5.1 2.698 2.698 0 0 1-.7.8 21.667 21.667 0 0 1-3.3 1.9 5.3 5.3 0 0 0-2.8 2.5c-1.2 3.1 3.9 4.3 5.7 5.6a6.503 6.503 0 0 1 2.4 3.3c.8 5.1-7 2.9-8.7.6-.5-.8-1.5-1.6-2.4-1.2-.9.4-.8 1.3-.8 2a89.522 89.522 0 0 1-.7 10.4c-.3 1.3-.7 2.7-1.9 3.1a2.398 2.398 0 0 1-2.6-1 3.097 3.097 0 0 1-.6-1.3 5.829 5.829 0 0 1-.3-1.4c-.2-3 .6-6 .9-9 .1-.461.1-.939 0-1.4-1-3.5-5 2.3-5.6 3.2-.6.9-3.5 5-6.2 6.4-4.9 2.6-4.2-1.6-2.5-4.3 1.7-2.7 3.9-4.2 4.8-6.5.9-2.3-1.3-2.2-3.1-2.1a41.123 41.123 0 0 1-5 .2c-2.5-.2-5.6-.5-7.6-2.2-4-3.3 2.6-4 5.1-4Z"/><path fill="#464646" d="M358.2 512h.5a2.596 2.596 0 0 0 1.7-.7 2 2 0 0 0 .6-1.6 2.302 2.302 0 0 0-1.396-2.216 2.301 2.301 0 0 0-.904-.184h-.5a2.6 2.6 0 0 0-1.6.7 2.796 2.796 0 0 0-.6 1.6 2.195 2.195 0 0 0 1.309 2.216c.281.123.585.185.891.184ZM307.2 445.7c.5-2.6 1.3-10.1 5.2-9.5 3.9.6-.4 9.8-.9 12.6a1.602 1.602 0 0 0 .625 1.56 1.607 1.607 0 0 0 1.675.14c3.3-1.5 11.8-1 7.5 4.5a1.4 1.4 0 0 0 1.3 2.3l.6-.4c4.7-5.7.7-9.2-4.4-9.9h-1.7l-1.7.2c.127-.212.196-.453.2-.7.46-.975.86-1.977 1.2-3 1.7-4.8 2.5-9.8-4.1-11.2-6.6-1.4-10.4 8.3-8.8 13.6.1.2.2.3.2.4 0 .1 2.8 1 3.1-.6ZM266.6 561c-1.2 1.5 1.1 3.5 2.6 2.6 3.8-2.4 9.9-6.4 14.5-3.4 2.8 1.8 3.1 5.3 0 6.9-3.1 1.6-4.9 1.3-7.3 1.5a1.997 1.997 0 0 0 0 3.9l1.1-.2c4.8 0 15.1 6.9 7.7 10-4.1 1.7-10.7.9-14.2-1.7-1.3-1-3.1 1.2-1.8 2.3 5 3.8 16.5 5.6 20.8-.2 4.3-5.8-.7-9.4-5.8-12 4.8-2 8.3-5.7 4.1-11.8-4.2-6.1-17.2-3.8-21.7 2.1ZM241.8 548.2c1.5 6.4 7.8 5.3 12.8 3.1-1.2 3.4 0 7.6 4.6 7 4.6-.6 4.9-3.8 5.9-7 4.6 2.7 12.8-.7 13.8-6 1.3-7.1-6.4-8.1-12.1-7.1 1.4-4.3 1.7-9.9-2.8-11.3-4.5-1.4-7.3 2.2-8.4 6.4a21.784 21.784 0 0 0-.9 5.6c-6.6-1.3-15 .9-12.9 9.3Zm14.6-5.9a2.406 2.406 0 0 0 1.6-1.9 7.007 7.007 0 0 0 .1-2.5 14.193 14.193 0 0 1-.1-4.1.904.904 0 0 0 .1-.5 5.1 5.1 0 0 1 1.9-3 3.498 3.498 0 0 1 3.8-.3c2 1.2.8 2.8.3 4.4-.5 1.6-1 3.9-2 5.7a1.797 1.797 0 0 0 .253 2.159 1.796 1.796 0 0 0 2.147.341c2.7-1.5 8.7-3.2 10.9-.1 2.2 3.1-4.7 9.9-7.9 4.8-.4-.6-.6-1.3-1.2-1.7a2.496 2.496 0 0 0-3.1.5 3.502 3.502 0 0 0-.7 1.2 6.495 6.495 0 0 0-.5 2 9.512 9.512 0 0 1-.9 3.3 2.799 2.799 0 0 1-2.8 1.6 2.614 2.614 0 0 1-1.097-.579 2.61 2.61 0 0 1-.703-1.021 6.88 6.88 0 0 1-.2-1.3c.017-.407.085-.81.2-1.2.148-.591.248-1.193.3-1.8-.1-2.9-3.3-.4-4.5.1-1.2.5-4.5 1.4-6-.1s-.7-5.6 2-6.7a7.8 7.8 0 0 1 5.8.2 4.797 4.797 0 0 0 2.3.5Z"/><path fill="#464646" d="M225.3 525.1c.4-2.6 1.3-10.2 5.7-8.5 4.4 1.7.3 6.6.1 9.1-.2 2.5 1.7 2.3 2.9 1.7 3-1.8 15.6-7.4 15.2-.7-.4 9.4-15.1 8.9-21.6 9.1a1.504 1.504 0 0 0-1.116 1.45 1.498 1.498 0 0 0 1.116 1.45c8.7.3 27.1-.2 25.3-13.8-1-7.4-10.7-5.2-17-2.7.6-1.8 1.2-3.7.7-5.5-.5-1.8-3.5-4.3-6.2-4.4-6.5-.5-9.6 7.4-8.6 12.8.3 1.7 3.2 1.7 3.5 0ZM217.6 578.1c-1.3-.9-2.8 1-1.7 2.1 3.1 3 3.3 7.1-.8 9.3-4.1 2.2-9.4-1.3-11.6-5.7-.8-1.6-3-.3-2.7 1.2l.2.4c2.6 6 8.9 10.4 15.2 7.5l1.3-.7c5.5-3.5 5.7-10.6.1-14.1ZM176.3 496.5c-.6 3.9-1.1 9.5 3.8 9.1 2.5-.2 3.5-2.3 3.9-4.8.12-.996.186-1.997.2-3 2.1 1.9 4.7 3 7.2 1.1s1.8-4.8.3-7.1c3.7-.3 7.3-1.7 9.3-5a1.796 1.796 0 0 0-.2-2.1c-2.9-3-6.3-3.5-9.9-2.6.5-2.5 1.4-5.5 1.8-8.4.4-2.9-.1-8.2-5-9.3-7.9-1.7-9.1 8.7-10.8 14.9-3.7-3.4-9-6.2-12.4-1.1-3.4 5.1-.5 8.8 3.7 11.3-4.8 1.8-9.8 5.5-9 9.6 1.6 8.2 11.9.3 17.1-2.6Zm-12.8-.8a4.198 4.198 0 0 1 1.6-1.9 12.497 12.497 0 0 1 6.4-2.9 5.493 5.493 0 0 0 1.8-.6 1.298 1.298 0 0 0 .7-1.6c-.3-.7-1.3-.8-2.1-.9-3.7-.6-9.2-6.2-4.1-9a5.098 5.098 0 0 1 6 1.1l1.8 2.3a2.89 2.89 0 0 0 2.6 1c1.4-.3 2-2 2.2-3.5.2-1.5 0-5.6.9-8.2.9-2.6 3.3-5.1 6.1-4.6s4.1 3.5 3.9 6.1a.704.704 0 0 1-.1.5c-.3 2.3-1.6 4.2-2.8 6.3-1.2 2.1-1.8 3.4-.3 4.4a4.697 4.697 0 0 0 3.7.2 10.095 10.095 0 0 1 3.8-.6c1.2.3 2.4 1.7 1.8 2.8-.6 1.1-1.6 1.2-2.6 1.3l-6.9 1-1.4.2c.2 1.4 1.5 2.4 2.5 3.4s1.7 3 .5 3.9c-1.2.9-2.6 0-3.3-1-.7-1-1.2-2.4-2.2-3.3-1-.9-2.8-1-3.3.2s.1 1.5.3 2.2a18.794 18.794 0 0 1 1.2 4.8c.012.436-.021.871-.1 1.3-.1 1.1-.6 2.1-1.6 2.1s-1.8-.9-2-1.9a9.5 9.5 0 0 1 .1-2.9c.1-1.4.1-4.9-1.8-5.2-1.9-.3-2.7 1.8-3.4 2.4l-4.1 2.8a6.911 6.911 0 0 1-2.9 1.3 2.801 2.801 0 0 1-2.9-1 2.795 2.795 0 0 1 0-2.5ZM165.6 551c-1.7-2.4-4.5-6.3-7.4-7.3-2.9-1-4.7 2.6-4.4 5l.5 2c.8 2.4 2.2 5.8 3.4 5.8-7.4.5-17.6 1.6-17.4 10.5.2 6.6 6.5 5.6 11.5 3.5-.2 2.2.5 4.4 2.9 5.2 5.2 1.9 6.7-2.6 8.5-6.4l.2-.3c1.3 3.8 5 5.4 10 2.6 5-2.8 5.9-6 4.4-9 4.9-1.4 9.5-5.2 6.7-10.4s-13-3.7-18.9-1.2Zm13.8 7c-1.91.99-4.054 1.44-6.2 1.3-2.3-.1-2.4 3.1-.5 3.8 4.1 1.5-.6 7.1-3.6 6.5a3.804 3.804 0 0 1-2.9-3.6 4.404 4.404 0 0 0-.2-2.3 1.808 1.808 0 0 0-2.125-.297 1.795 1.795 0 0 0-.575.497 6.496 6.496 0 0 0-1.2 2.8c-.19.824-.458 1.627-.8 2.4-.8 2-2.2 4.2-4 4.1-1.8-.1-1.2-5-.7-6.6a1.405 1.405 0 0 0 0-1.1c-.4-.8-1.7-.3-2.4.4a9.006 9.006 0 0 1-4 2.3 3.903 3.903 0 0 1-4.1-1.4 3.703 3.703 0 0 1 0-3.9 7.105 7.105 0 0 1 3-2.7c4.2-2.2 9.1-2.1 13.8-1.9l-4-3.7a9.893 9.893 0 0 1-3.1-4c-.5-1.6 0-3.7 1.6-4.3 1.6-.6 3.5.7 4.4 2.2.9 1.5 1.5 3.4 2.7 4.7 1.2 1.3 3 1.4 4.8.6 1.8-.8 10.1-4.1 11.7 0a3.299 3.299 0 0 1-1.6 4.2ZM142 539.5c-3.9-4.5-2.5-10.8 1.5-14.8s9.6-3.4 12.8 2c.8 1.4 3.3.4 2.7-1.2-3.2-7.8-11.1-9.5-17.4-3.9-6.3 5.6-7.8 14.4-1.8 20.1a1.599 1.599 0 0 0 2.2-2.2ZM103 588.1c-2.3.4-9.6 3.8-12.8 2.3l-.3-.2h-.1l-.2-.2h-.1l-.2-.2a.1.1 0 0 0-.1-.1c0-.1-.1-.2-.1-.3H89c0-.2-.1-.3-.1-.4a.6.6 0 0 1-.1-.4 1.1 1.1 0 0 1 0-.8 1.3 1.3 0 0 1 .1-.6h.1l.3-.5.5-.5c2.9-2 10.6-.8 12.9-.9a1.799 1.799 0 0 0 .9-3.3 6.807 6.807 0 0 1-1.9-1.9l-.3-.8a2.699 2.699 0 0 1 .2-2l.3-.5a.105.105 0 0 0 .071-.029.105.105 0 0 0 .029-.071l.4-.4a.099.099 0 0 1 .1-.1 5.3 5.3 0 0 1 3.5-1.4 12.792 12.792 0 0 1 4.7.7c2.9.7 5.6 1.8 8.4 2.6 2.8.8 3-2.7.9-3.3-4.1-1.3-9.3-3.7-14-3.5h-2.3l-.7.2-.3.2-1 .3c0 .1-.1.1-.2.1l-1 .6a8.094 8.094 0 0 0-2.1 2 6.491 6.491 0 0 0-.8 1.7 1.3 1.3 0 0 0-.1.6c-.083.36-.117.73-.1 1.1v.6c.14.792.376 1.564.7 2.3l.3.5c-2 0-4.3 0-6.4.2l-1.2.3c-.759.092-1.5.294-2.2.6a7.388 7.388 0 0 0-2.3 1.4l-.9 1.2a7.1 7.1 0 0 0-.3 4.9 6.205 6.205 0 0 0 1.6 3 9.014 9.014 0 0 0 2.9 1.6l1.4.3 2.2.2h2.4l1.6-.3a22.449 22.449 0 0 0 3.7-1l1.3-.6c.97-.405 1.879-.944 2.7-1.6l.3-.3h.1c0-.1 0-.2.1-.2.1-.1.1-.1.1-.2h.1v-.2c0-.1 0-.1-.1-.2v-.4a2.4 2.4 0 0 0-2.5-2.1Z"/></svg>