<svg xmlns="http://www.w3.org/2000/svg" fill='#ff6e53' xmlns:xlink="http://www.w3.org/1999/xlink" version="1.1" x="0px" y="0px" viewBox="0 0 100 100" enable-background="new 0 0 100 100" xml:space="preserve"><path  d="M76.849,65.5c-1.105,1.913-3.552,2.568-5.465,1.465c-0.005-0.003-0.009-0.007-0.014-0.01L48.001,53.463  c-1.283-0.741-1.983-2.083-1.984-3.463H46V23c0-2.209,1.791-4,4-4s4,1.791,4,4v24.689l21.384,12.346  C77.297,61.141,77.953,63.587,76.849,65.5z M27.5,11.029c-1.912,1.104-2.568,3.551-1.464,5.465s3.552,2.569,5.465,1.464  s2.568-3.551,1.464-5.464C31.859,10.58,29.413,9.924,27.5,11.029z M68.5,82.043c-1.912,1.104-2.568,3.551-1.464,5.465  c1.104,1.912,3.552,2.568,5.464,1.463c1.913-1.104,2.568-3.551,1.465-5.463C72.859,81.594,70.413,80.938,68.5,82.043z M11.029,72.5  c1.105,1.914,3.551,2.57,5.467,1.465c1.909-1.107,2.566-3.551,1.462-5.464c-1.104-1.917-3.553-2.571-5.465-1.467  S9.926,70.585,11.029,72.5z M11.029,27.5c-1.104,1.913-0.449,4.36,1.465,5.465c1.913,1.105,4.359,0.449,5.465-1.464  c1.104-1.913,0.449-4.359-1.465-5.464C14.58,24.932,12.134,25.587,11.029,27.5z M27.5,88.971c1.915,1.105,4.361,0.451,5.467-1.465  c1.101-1.913,0.447-4.357-1.465-5.463c-1.914-1.107-4.363-0.449-5.467,1.463S25.588,87.864,27.5,88.971z M50,87  c-2.209,0-4,1.791-4,4s1.791,4,4,4s4-1.791,4-4S52.209,87,50,87z M5,50c0,2.21,1.791,4.001,4.002,4.001  c2.207-0.003,3.998-1.791,3.998-4c0.003-2.211-1.791-4.002-3.999-4.002S5.002,47.79,5,50z M88.983,72.473  C92.805,65.858,95,58.188,95,50C95,25.147,74.853,5,50,5c-2.209,0-4,1.791-4,4s1.791,4,4,4c0.003,0,0.005-0.001,0.008-0.001  c20.428,0.004,36.988,16.568,36.988,37c0,6.772-1.819,13.119-4.996,18.579l0.006,0.004c-1.04,1.899-0.385,4.292,1.502,5.382  c1.807,1.043,4.078,0.5,5.255-1.176l0.035,0.022c0.057-0.097,0.105-0.199,0.162-0.296c0.003-0.006,0.008-0.01,0.011-0.016  C88.976,72.491,88.979,72.481,88.983,72.473z"></path></svg>