<svg xmlns="http://www.w3.org/2000/svg" fill="none" viewBox="0 0 1000 1000"><path fill="#FC5B61" d="M203.9 473a7.301 7.301 0 0 0 5-2.1 4.907 4.907 0 0 0 1.4-2.3 4.197 4.197 0 0 0 .6-2.7 6.793 6.793 0 0 0-2-4.9 6.997 6.997 0 0 0-7.712-1.554A6.997 6.997 0 0 0 198.9 461a5.202 5.202 0 0 0-1.4 2.2 4.5 4.5 0 0 0-.6 2.7 7.201 7.201 0 0 0 2 5 7.3 7.3 0 0 0 5 2.1Z"/><path fill="#DBDBDB" d="M265.5 531.7a56.204 56.204 0 0 1-4.5 3.8l-1.5 1.2-3 2.5-6.4 4.6-3.2 2.1-3.9 2.4a61.515 61.515 0 0 1-8.1 4.1 31.137 31.137 0 0 1-4.3 1.5 21.187 21.187 0 0 0 7.4 2.7l1.6.3 3.1.3c2.8.2 5.4 0 8.1.2l1.6.2c1.092.1 2.167.335 3.2.7l.4.2a18.099 18.099 0 0 1 3.9 2c.394-.238.84-.375 1.3-.4h3.6c2.4-.1 4.7-.4 7.1-.7 4.6-.6 9.3-1.5 13.9-2.3l3.6-.6 7.1-1.2 7.2-1.1 10.7-1.5 3.6-.6 14.1-2c9.4-1.3 18.9-2.5 28.3-3.6l14.2-1.6 18.7-2.2 6.3-.8 12.6-1.7c3.3-.5 6.6-.7 9.9-1.4l1.4-.3 2.6-.7 5.1-1.8 2.5-.9 4.3-1.7c4.3-1.7 8.5-3.4 12.9-4.8 23.9-8.1 47.5-16.7 71.2-25.2l23.7-8.3c15.9-5.6 32-10.6 48-15.6 13.7-4.3 27.4-9 41.3-13a1.392 1.392 0 0 1-.2-.6 2.499 2.499 0 0 1 .3-1.7c0-1.2 0-2.4-.1-3.6a45.444 45.444 0 0 0-1.3-7.2c-.8-3.6-2-7.2-3.1-10.7-.4-1.2-.8-2.3-1.1-3.5a22.556 22.556 0 0 1-.9-3.5.393.393 0 0 1-.1-.3 1.305 1.305 0 0 1 1.091-1.192 1.303 1.303 0 0 1 1.409.792c1.5 5 3.3 9.7 5.1 14.5.9 2.6 1.8 5.1 2.5 7.7.178.418.312.854.4 1.3l.9 2.3c.1.4.3.7.4 1.1 2 4 4.9 5.9 11 4.4l15.4-4.1c2.8-.7 5.6-1.6 8.4-2.5l11-3.7 2.8-.9 2.3-.7 4.6-1.5a57.16 57.16 0 0 0 6.8-2.8 35.55 35.55 0 0 0 4.3-2.3 13.353 13.353 0 0 0 2.6-1.9 3.99 3.99 0 0 0 1-1.2c.292-.434.528-.905.7-1.4l.3-1.7a8.76 8.76 0 0 0 .2-1.7 9.12 9.12 0 0 0 .1-1.7c0-.6-.1-1.1-.1-1.7a21.397 21.397 0 0 0-.6-3.5 51.852 51.852 0 0 0-1.4-5.3c-1.2-3.5-2.7-6.9-3.9-9.9a8.802 8.802 0 0 1-.5-1.5v-.2l-2.7-7.1a37.087 37.087 0 0 1-8.5 4.1c-13.8 4.5-30.8 1-42.8-6.8a55.086 55.086 0 0 1-15.7-14.8h-.1l-2.7 1h-.2l-.8.3h-.3l-.7.2h-.4l-.7.2-.4.2h-1.1l-.6.2h-5.9l-.7-.2h-.4l-.7-.3h-.4l-1-.6-2-1.4-1.5-1.5-.7-.9a10.5 10.5 0 0 1-1.2-3.1 3.207 3.207 0 0 0-2.1-2 6.206 6.206 0 0 0-1.8 3.1c-1.8 7.3 9.3 17.6 12.5 23.3 2 3.5 4.6 7.4 5.2 11.4a9.399 9.399 0 0 1-.2 4.4 22.26 22.26 0 0 1-2.6-2.7c-2-2.4-3.7-5.1-6-7.1 2.4 2-6.1 22.1-7.4 24.9a50.998 50.998 0 0 1-18.5 21.4c-19.1 13.1-42.9 17.8-64.7 24-31.6 9-62.2 24.3-93.6 34.5-33.2 10.8-66.5 12.5-100.3 21-18.9 4.6-41.4 8.1-60.5 3.5-1.3-9.8 13-13.6 19.9-17 3.7-1.9 7.4-3.7 8.8-7a10.592 10.592 0 0 1-.2-2.5l-1.5-.2a3.795 3.795 0 0 1-.1 1.5l-.3.7h-.1c-.204.522-.51.998-.9 1.4h-.1l-.5.6h-.3l-.5.5h-.2l-.7.5a13.987 13.987 0 0 1-6.6 1.9c-1.265.1-2.535.1-3.8 0h-1.5a47.825 47.825 0 0 0-8.4.8l-2.8.4H271l-1 .4-1.1.6-1.2.9-1 1-1.2 1.9Z"/><path fill="#DBDBDB" d="M85.8 632.6h6.8l9.6.4h9.7a.601.601 0 0 1 .7.2c.112.182.18.387.2.6a1.004 1.004 0 0 1-.6 1.1c-5.3 1.5-11 .8-16.3.4l-4.7-.2h-4.6l.9.5 2.6 1.5 3.4 2.1a19.98 19.98 0 0 0 7.3 1.7h4.6c9.3.2 18.7.3 28 0l21.3-.7 7.1-.3 21.4-.5h7.2l29.9-.4 20-.6c9.9-.4 19.9-.8 29.9-1.5 6.7-.5 13.4-.8 20.2-1l10.1-.4c16.9-.6 33.7-1.1 50.4-3 11.2-1.4 22.4-2.6 33.7-3.9l33.6-4 14.7-1.9c29.4-3.8 58.667-8.4 87.8-13.8l14.6-2.9c7-1.3 14-2.8 21-4.4l27.7-6.4 13.9-3.3 6.9-1.6 13.8-3.1 7-1.5c7-1.466 14-2.867 21-4.2l6.3-1.1 6.3-1.2c10.4-1.9 20.8-4 31.2-6.4l6.2-1.4 24.9-6.2 24.9-6.2c7.7-1.9 15.3-4 23.1-5.4l3.5-.7 5.4-1c1.76-.36 3.497-.828 5.2-1.4l1.1-.3c1.342-.345 2.6-.957 3.7-1.8.471-.417.788-.981.9-1.6l.3-1.1c.1-.7.3-1.5.5-2.5a4.203 4.203 0 0 1 1.1-2.2c.248-.246.56-.419.9-.5h.7l1.5.3c.61.163 1.185.434 1.7.8l.9.4.8.6.8.5.8.5.4.2 1 .6.6.3 1.7.5c2.42.65 4.899 1.052 7.4 1.2h5.8c5.2-.1 10.5-.6 15.2-.3 2.2.1 4.4.2 6.7.1a33.99 33.99 0 0 0 4.5-.2l4.6-.4a59.487 59.487 0 0 0 19.5-5.6c11.6-6.1 13.2-17.6 13.9-29.3 0-1.2.1-2.4.2-3.6-.015-.834.019-1.669.1-2.5-7.4 7.1-16.7 11.7-27.4 12.1a37.4 37.4 0 0 1-36.9-26.6c-3.5-11.6-3.8-26-2.7-38.1l-2.8.6c-1.8.4-4.4.9-7.2 1.3-1.958.236-3.928.37-5.9.4h-1l-3.7-.4-.8-.3a9.105 9.105 0 0 1-3-1.3l-.6-.5a6.3 6.3 0 0 1-2.1-3.3c0-.3-.1-.6-.1-.9 0-.3-.5 0-1.1.3a25.971 25.971 0 0 0-3 1.6h-.2c-.2.1-.3.3-.4.4-.1.1-.2.2-.2.3-.221.19-.392.43-.5.7a3.593 3.593 0 0 0-.7 1.7 38.288 38.288 0 0 0-.9 5.9 29.897 29.897 0 0 1-.9 6.5 3.003 3.003 0 0 0-.2 1c.1 0 .1.1.1.2l.3.7 3.1 6.3c-.4-1 1.6-1 2.1-.6.248.459.353.981.3 1.5 1.4 6.6 4 12.7 5.5 19.2l.3 1.3 1.2 5.2c.4 1.7.7 3.5 1.1 5.2.4 1.7.2 1 .2 1.4a3.696 3.696 0 0 1 0 2.4c-.1.2-.1.4-.3.6l-.4.6a.806.806 0 0 1-.7.3h-.8a3.9 3.9 0 0 1-1.9-3.1 8.885 8.885 0 0 1-.2-1.6 2.21 2.21 0 0 1-.1-.8c-.3-1.7-.6-3.5-.8-5.3a48.99 48.99 0 0 0-.9-5.3 13.578 13.578 0 0 0-.4-1.7.597.597 0 0 0-.1-.4c-.1-.5-.3-1.1-.4-1.6 1.7 5.7 1.2 14.2-.1 20-1.3 5.8-4.6 12.7-10.5 15.9-34.1 17.8-71.6 28.1-108.8 36.9-14.7 3.5-29.4 6.7-44.2 9.6l-16.2 3.9c-17.9 4.1-35.8 7.7-53.8 11.4-24.5 5.1-48.9 10.6-74.1 11.9-6.1.3-12.2 1.6-18.3 2.3-6.1.7-11.3.9-16.8 1.8s-9.8 1.4-14.5 1.9l-3.5.4-2.9.3c-11.5 1.5-23.2 3.2-35.1 4.6-14.5 1.7-29.2 2.9-43.8 3.6-4.6.8-8.5.3-13 .5s-11.6 1.1-17.3 1.5l-34.7 2.1-24.1 1.7c-15.9 1.2-31.8 2.4-47.7 3.4-9.6.7-19.3 1.2-28.9 1.2-16.5.1-32.8-1.8-49.5-1.8-3 0-5.8.1-7.6-2.8-1.8-2.9-1-5.6 1.8-6.9 19.5-8.3 40.2-11.6 61.1-13.3 10.6-2.5 21.2-4.7 31.8-6.8l18.4-3.5-.4-.3h-.1l-.5-.3a14.594 14.594 0 0 0-4.9-1.5h-3a26.006 26.006 0 0 0-4 .3l-3.9.7-7.8 2-6.5 1.6-2.1.5-31.2 7.2c-6.2 1.4-12.5 2.7-18.7 3.9l-12.5 2.5-18.7 3.8-6.1 1.4-12 2.8-6.1 1.3-5.5 1-2.8.5a114.368 114.368 0 0 1-14.2 1.6c.174.925.442 1.83.8 2.7a20.504 20.504 0 0 0 4.5 6.1l.5.5c1.4 1.3 3.4 2.7 5.2 4.2l2.3-.2Zm715.3-128.3a61.673 61.673 0 0 1 1.9 7.4c.3 1.5.6 3.1 1 4.5a33.33 33.33 0 0 1 1.1 7.7 4.93 4.93 0 0 1-.1 1.2l-.3 1.2a.804.804 0 0 1-.2.5 1.6 1.6 0 0 1-.8.6 1.805 1.805 0 0 1-1.197-.192 1.807 1.807 0 0 1-.803-.908 22.863 22.863 0 0 1-.8-2.8l-.3-1.6c-.4-2-.6-4.1-.9-6.1a6.081 6.081 0 0 0-.2-1.5l-.3-1.3a5.028 5.028 0 0 0-.2-1.2l-.3-2.5a21.128 21.128 0 0 1-.2-2.5 6.226 6.226 0 0 1 .1-1.3c0-.4.1-.8.1-1.2 0-.4 2-1 2.4 0Zm-9.3-26.4c-.2-.8-.3-1.5-.5-2.3a19.892 19.892 0 0 0-.4-2.4l-.4-1.8c-.1-.4-.1-.8-.2-1.2a4.88 4.88 0 0 1-.1-1.2 1.494 1.494 0 0 1-.1-.7c0-1.4.4-2.6 1.6-2.9h.3a.804.804 0 0 1 .7.4h.1c.514.859.949 1.763 1.3 2.7l.6 1.4c.3 1 .5 2 .7 3 .291.986.525 1.987.7 3 .086.512.22 1.014.4 1.5.5 2.3 1.1 4.6 1.7 6.9.6 2.3.5 2.3.7 3.5.2 1.2.4 2.3.6 3.5v.4a1.103 1.103 0 0 1-.3.8 1.205 1.205 0 0 1-.5.5 1.803 1.803 0 0 1-1 .4h-.8l-1.1-.5a2.302 2.302 0 0 1-.7-1c-.5-1.5-.9-3.1-1.3-4.6-.8-3.1-1.4-6.2-2-9.4Zm1.8 41.1c.4 1.6.7 3.3 1 5 .3 1.7.3 1.7.4 2.5.1.8.4 1.7.5 2.5l.6 2.3c.1.4.1.8.2 1.2a5.197 5.197 0 0 1-.2 1.1.801.801 0 0 1-.2.5 1.604 1.604 0 0 1-1.8.5 1.597 1.597 0 0 1-.9-1.2 2.895 2.895 0 0 1-.2-.9 25.177 25.177 0 0 1-.5-2.9c-.1-1.6-.3-3.3-.4-5l-.6-5c-.2-1.4 1.8-2 2.1-.6ZM274.4 623.2l7.2-1.5c1.7-.2 3.3-.5 5-.6l4.9-.5c3.3-.3 6.7-.5 10-.6l5-.3 7.4-.4a.504.504 0 0 1 .42.106.49.49 0 0 1 .18.394v.3a.694.694 0 0 1-.4.5l-2.4.5a61.37 61.37 0 0 1-7.3 1.1c-9.9.9-19.9.3-29.6 2.5-.3 0-.5 0-.6-.2h-.2a1.392 1.392 0 0 1-.2-.6.897.897 0 0 1 .6-.7Zm-137.2 8.2h5.4l5.3-.2c10.7-.3 21.4-1.2 32.1-1.9l10.5-.6c10.5-.8 20.9-1.8 31.4-3a.802.802 0 0 1 .8.7c-.013.262-.12.51-.3.7l-.3.2-7.6 1.7c-11 2.1-22.5 2.6-33.6 3.2l-8.2.5-5.4.5-11 .7c-2.7.2-5.5.3-8.2.3l-8.2-.3-2.7-.2a1.4 1.4 0 0 1-.8-.5 1.095 1.095 0 0 1-.3-.8 1.102 1.102 0 0 1 1.1-1Zm-27.3-5.1a.695.695 0 0 1 .7-.5c4.6 0 9.5-.4 14.3-.4l5.7.3 2.8.3c.2 0 .3.1.3.2a.51.51 0 0 1 .2.4.499.499 0 0 1-.2.4c0 .1-.1.2-.3.2a50.75 50.75 0 0 1-5.6.5h-2.9c-3.8 0-7.7-.2-11.5-.4h-2.8a.803.803 0 0 1-.8-.8.4.4 0 0 1 .1-.2ZM978.8 530.7c2.1 3.6 1.3 7.8-4.3 10.4-10.9 5.3-25.6 7.2-37.4 5.4-4-.6-7.7-2.1-11.6-3a26.697 26.697 0 0 0-11.6.3c-6 1.4-11.7 3.1-17.9 2.8a1.3 1.3 0 0 1-1.3-1.7c.01-.44.078-.877.2-1.3-1.6 1.7.1 4.6 2.4 4.9 8.1 1 15.8 1.3 23.8 3.6s15.6 5.3 24 6a49.105 49.105 0 0 0 20.7-3.4c6.8-2.8 15.9-6.8 18.1-14.3 1.3-4.6-1.3-8.3-5.1-9.7Z"/><path fill="#DBDBDB" d="M965.3 535.5a36.602 36.602 0 0 1-7.7 4.4 47.101 47.101 0 0 1-19.3 3.7h-.9c8.2 1.2 16.5.2 24.5-1.9 3.9-1.1 12.4-2.1 14.4-6.2 1.1-2.2 0-3.9-2-5.3h-.5c-3.7.8-5.6 3.2-8.5 5.3ZM899.3 541.6c-.9 1.2-1.6 2.3-1.7 2.3 6.2-.1 11.8-2.1 17.8-3.2-5.5-.6-11-.6-16.1.9Z"/><path fill="#FC5B61" d="M802.2 668.1c15.1-5.6 30.7-13.1 39.1-27.4 9.6-16.4 13.8-35.9 16.3-54.5 1.1-8.5 1.8-17 3.6-25.2a63.507 63.507 0 0 1 3.6-11.2l.3-.6a33.82 33.82 0 0 1-4.2 1.3l-.9.3c-1.7 5-2 10.2-3 15.4-1 5.2-3.6 10.4-5.6 15.8-3.2 9-4.4 18.6-5.8 28-2.4 16-6.6 30.6-21.6 38.9-8 4.5-17 6.4-25.8 8.4s-19.7 3.6-25.7 10.4c-6 6.8-4.1 13.8-2.9 20.7a197.337 197.337 0 0 1 2.6 23c.5 10.4 1.3 20.8 1.9 31.2.5 7.2-.6 14.7.5 21.9-.3-3.8 6.5-9.8 6.9-14.1.4-4.3-1.6-8.9-2-13.3-1-13.3.1-26.9 1-40.1.5-6.5 1.5-13.3 5.2-18.8s10.1-7.7 16.5-10.1ZM843.2 779a9.236 9.236 0 0 0-1 2l1.8.2c8.3-.2 2-4.8-.8-2.2ZM825.4 782.4a6.402 6.402 0 0 0-3.9-.8h-7c-2.4 0-5.1.1-6.9 1.7-3.6 3 7.7 2.9 9 3a36.954 36.954 0 0 0 7.3-.5c2.3-.6 3.8-1.6 1.5-3.4ZM805.3 583.8c2.1-9.8 1.2-20.1 5.3-29.3a41.181 41.181 0 0 1-11.7-.9c-2.5 6.9-2.1 14.8-3.1 22a115.964 115.964 0 0 1-3.4 14.4c-.9 3.2-2.1 7.2-3.7 11.4 2.3-1.5 5-2.6 7.3-3.9 5.2-3.1 8.1-8 9.3-13.7ZM798 606.3a15.309 15.309 0 0 0 1.9-3 54.509 54.509 0 0 0 3.9-8.9 19.991 19.991 0 0 1-3.9 4.3c-3.8 3-8.5 4.5-12.3 7.6a1.408 1.408 0 0 1-1 .4c-4 9.2-10.4 15.9-18.3 21.1a103.772 103.772 0 0 0 16.4-9 54.493 54.493 0 0 0 13.3-12.5ZM795.5 446.4c1.8.8 4 .5 6.6.1-3.8-10.1-5.9-21.2-8.4-31.6-1.8-6.9-2.4-14.2-3.4-21.3a44.095 44.095 0 0 0-7.3-19.2c-3.4-5.2-6.6-10-8.9-15.7-2.3-5.7-4.2-13.1-5.8-19.8-2.1-8.2-4.2-19.1-10.4-25.5a13.9 13.9 0 0 0-4.2 10c-.1 4.9 1.4 9.8 3.2 14.3 3.7 9.5 8.8 18.5 12.3 28.1 5 13.9 11.1 27.5 15.6 41.6 2.4 7.5 4.3 15.1 6.5 22.6 1.6 5.3 3.4 10.8 4.2 16.4Z"/><path fill="#FC5B61" d="M770.9 332.7c1.6 5.8 2.8 11.7 4.5 17.5 1.2 3.8 2.5 7.7 5.2 10.7 2.7 3 4.1 4.6 6 7.1 3.8 5 7 10.2 8.8 16.3.4 1.3.7 2.7 1 4 1 5.9.7 11.9 1.2 17.9.6 7.6 3.2 14.9 4.8 22.4 1.3 5.7 2.4 11.6 4.6 17.1l3.9-.7c-.8-3-1.9-5.9-2.8-8.8-2.2-7-2.9-14.3-4.3-21.5-1.8-9-3.9-17.8-5.5-26.7-1-5.4-1.9-10.8-2.4-16.3-.1-.5-.1-1.1-.2-1.6a2.601 2.601 0 0 1-3.1 1.3 4.298 4.298 0 0 1-1.6-1.9c-3-5.7-6.6-10.8-10-16.3-3.4-5.5-5.3-11.7-7.2-17.9-2.7-9.1-5.5-18.4-5.4-27.9a12.386 12.386 0 0 0-.3-2.7c-3.1 1.1-5.7 2.8-6.8 6.5a.9.9 0 0 1-.3.6c5.6 4.8 8.1 14.8 9.9 20.9ZM774.5 390.6c2.9 8.4 5.7 16.9 8.2 25.4-1.2-4.8-2.6-9.6-4.2-14.2s-2.6-7.4-4-11.2ZM734.8 749.7c-.2-7.7-.2-15.5-.2-23.3-.1-12.8-.2-25.7-1.5-38.5-1-11.2-5.1-23.4-9-34-2.4-6.3-5.8-13.1-12.2-15.4-2.4-.9-4.7-1.5-6.8-2.4a19.3 19.3 0 0 1-6-4.2c-5.5-6.1-6.6-15.6-8.1-23.3-.3-1.3-.5-2.5-.7-3.8a148.846 148.846 0 0 1-2.1-16.5c-.1-2.3.4-4.9-.3-6.9l-5.2 1.1c.9 9.3 3.7 18.1 5.5 27.3 1.6 7.5 1.5 17.2 7.6 22.8a30.49 30.49 0 0 0 6.8 4.4c4.1 2.1 8.2 3.9 11.2 7.7a49.399 49.399 0 0 1 9.7 22.1 1.7 1.7 0 0 1-.2 1.3c3.9 11.4 3 25.1 3.5 36.4.9 19.6 1 39.2 1.1 58.8a4.964 4.964 0 0 1-.3 1.3l2.8-.3c3.4-.6 5.4.5 6.3 2.6-.3-3.1-.8-6.2-1.2-9.3-.4-3.1-.6-5.2-.7-7.9Z"/><path fill="#FC5B61" d="M675.4 609.4c2.8 8.3 5 17.3 10.8 24.2 8.1 9.7 21.2 13.7 29.9 22.7-2.3-5.7-5.1-11-10.9-14.4-5.8-3.4-11.6-5.5-14.9-11.9-3.3-6.4-4-14.3-5.7-21.5-1.7-7.2-4.6-16.8-4.7-25.5-3.9.8-7.7 1.5-11.6 2.1 2.4 8.1 4.4 16.3 7.1 24.3ZM681.4 788.1a33.794 33.794 0 0 0-4.5-.1h-4.3a1.503 1.503 0 0 1-1.3-1.179 1.51 1.51 0 0 1 0-.621 5.803 5.803 0 0 1 1.7-2.5l.2-.3a6.594 6.594 0 0 0-2.4 2c-.39.402-.696.878-.9 1.4a4.708 4.708 0 0 0-.4 1.7 4.807 4.807 0 0 0 0 1.7c.037.859.314 1.691.8 2.4a8.406 8.406 0 0 0 2.3 2.3c.996.599 2.138.91 3.3.9l1.7-.2a4.794 4.794 0 0 0 2.2-1.2 6.698 6.698 0 0 0 2.3-3.4c.18-.521.314-1.056.4-1.6.128-.421.162-.864.1-1.3a1.597 1.597 0 0 1-1.2 0ZM665.4 493.1a6.297 6.297 0 0 0-.1-3.6 76.78 76.78 0 0 0-3.8-9.4c-1.3-2.9-3.2-5.3-4.2-8.3a44.016 44.016 0 0 1-7.9 1.5 118.178 118.178 0 0 1 7.4 21.2c.082.293.116.597.1.9l8.5-2.3ZM659.1 791.8c-3.7-1.7-7.4-3.4-11.5-3.6-4.1-.2-11 1.5-10.4 6.5.1.6 8.1 1.6 9.2 1.9 3.5.6 11 1.6 12.9-2.5.6-1.1 1-1.8-.2-2.3ZM648.6 486.2a43.865 43.865 0 0 0 1.3 5.2c-.4-1.7-.8-3.5-1.3-5.2ZM613.7 371.2c3 5.3 5.1 11.1 8.3 16.2a7.496 7.496 0 0 0 4.1.5 25.095 25.095 0 0 0 5.7-1.8 27.312 27.312 0 0 1-3.5-3.3c-6.2-6.8-10.2-15.8-13.9-24.4l-7.1-16.5c-2.7-6.3-5.4-12.7-9.3-18.3a8.1 8.1 0 0 0-2.9-2.9c-1.5.7-2.8 1.7-3 3.6-.7 4.1 2.4 6.7 3.9 10.1 1.5 3.4 4.2 9 6.5 13.4 3 6 6.4 12.1 8.5 18.5l2.7 4.9Z"/><path fill="#DBDBDB" d="M592.2 350.5a61.526 61.526 0 0 1-10.6 1.5l-15.2 1.4a14.004 14.004 0 0 1-5-.1c-.9-.2-2.2-1.3-3.3-1.5-1.5 2.1-.2 4.6 1.9 6.4 2.1 1.8 8.5 2.5 12.6 2 5.125-.768 10.2-1.837 15.2-3.2a63.796 63.796 0 0 1 8.9-1.7l-3.4-5.2-1.1.4ZM484.9 261.6c8 2.9 17.5 2.9 25.9 3.7 8.4.8 16.6 1.5 24.9 1.6 8.3.1 14.8 0 22.1-1.8 7.3-1.8 16.1-5.5 19.3-11.9 3.2-6.4-1.7-11.3-7.5-9.7h-.4c.83.63 1.57 1.371 2.2 2.2 5.7 7.9-10.3 12.3-15.1 13.5a70.24 70.24 0 0 1-14.5 2c-10.8.3-21.5.9-32.2 1-7.7.1-16 1-23.1-2.7a8.603 8.603 0 0 1-3.9-3.9 4.408 4.408 0 0 0-.151 3.499 4.388 4.388 0 0 0 2.451 2.501Z"/><path fill="#DBDBDB" d="M488.3 256.5c7.2 4.4 18.8 2.5 26.9 2.4 6.4-.1 12.7-.3 19-.7l10.4-.7a58.199 58.199 0 0 0 13-2.9c1.8-.6 10.6-3 10.3-5.9-.1-1.1-1.5-2.1-3.2-2.8l-3.6 2.3a65.172 65.172 0 0 1-8.5 3.9 59.414 59.414 0 0 1-18.5 3.9h-3.2c-7.7 0-15.3-.7-22.9-1.3-7.6-.6-14.4-1.7-21.3-.8-.3.8.1 1.6 1.6 2.6Z"/><path fill="#FC5B61" d="M467.1 778.8c-6.8-.6-14.3-2.9-20.3 1.3a1.397 1.397 0 0 1-1.9-.1c-2.7.8-5.7.9-7.9-1.2s-1.7-2.6-3.1-3.6c-1.4-1-4.9-.9-7.7 0a2.795 2.795 0 0 1-2.665-.735 2.795 2.795 0 0 1-.735-2.665c.3-1.2.6-2.3.8-3.5-2.4-.3-4.6-.9-6.9-1.3-2.3-.4-4.9-1-6.6 1.4-1.7 2.4-.6 3.3-1.1 5.4-1.1 5.1-7.9 6.6-12.4 6.1a2.707 2.707 0 0 1-2.02-1.066 2.697 2.697 0 0 1-.48-2.234c.3-1.1 2.2-5.9 1.5-6.9-.7-1-5.3.3-6.2.4-.9.1-3.3-2.4-2.3-4.1 1-1.7 2.5-3.3 2.3-4.5-.2-1.2.4-.3-1-.9-1.4-.6-6.9-.1-9.4.2-7.1 1-9.9 6.2-13.2 11.8-3.3 5.6-9.3 13.1-16.5 12.1a18.588 18.588 0 0 1-3.4.6l-.8.5a69.4 69.4 0 0 1-20.8 2.5c-5.7-.2-12.6.3-18.1-1.4-2-.6-3.6-1.9-5.5-2.8-1.9-.9-6.8-.7-10.3-.4-7 .5-14.2.6-21.3.6l-16.2.2c-4.7 0-10.2 0-14.5-2.1-4.3-2.1-5.7-7.3-6.8-11.4-1.1-4.1-5.7-8.4-10-10.5-.8-.4-1.9-.7-2.6-.1a2.106 2.106 0 0 0-.2 1.9l.3.7c1.6 3.8 3.6 7.5 4.9 11.4.6 1.9 2 6.3-.3 7.6-2.3 1.3-5.6-1-7-2.4-1.4-1.4-3.6-4.7-5.3-6.9a6.803 6.803 0 0 0-3.2-2.6 13.827 13.827 0 0 0-2.9-.8c-1.88-.283-3.8-.112-5.6.5-.5.2-1 .4-1.1.9-.1.5.6 1.2 1 1.8a3.103 3.103 0 0 1 .4 3.2c-.6 1-2 .7-3 .6-2.9-.4-5.7-1.5-8.6-1.9-2.9-.4-6.6-1.5-9.8-.7-.9.3-1.9.7-2.2 1.6-.3.9.9 4.3-1.7 5.1-2.6.8-5.3-.8-7.3-1.7-2-.9-6.1-1.3-9-.9l-.6.3c-.3.3.1.8.5 1l1.2.5a1.202 1.202 0 0 1 .1 1.8c-1 1.3-3.8.6-5.2.4-1.4-.2-4.7-1.1-7.2-1.4a29.505 29.505 0 0 0-14.1 1.3c-3.2 1.2-6.2 2.7-9.3 3.5 1.88.276 3.798.104 5.6-.5a31.636 31.636 0 0 1 6.8-.8 68.348 68.348 0 0 1 12.8.7c5.6.9 10.7 3.6 16.4 4a24.4 24.4 0 0 0 10.7-1.8c3-1.3 4.9-4.2 8.3-4.6a25.223 25.223 0 0 1 6.7.4c3 .4 6 .6 9 .7.648.056 1.3-.047 1.9-.3a7.498 7.498 0 0 0 1.7-1.4 3.598 3.598 0 0 1 4.6 0c1 .8 1.2 1.9 2 2.8.8.9 3.3 2 5.3 2.5s4.5 1.5 6.9 1.8c4.7.5 9.8-2.1 14.4-.4 1.3.5 2.5 1.3 3.7 1.8 3 1.1 7.1.4 10.2.1a154.968 154.968 0 0 1 18-.7c5.9.1 11.9-.7 17.9-1.1 4.4-.3 9-.5 13.1 1s6.2 3.1 9.6 3.7c4.9.768 9.843 1.236 14.8 1.4 9.73.818 19.52.583 29.2-.7 6.5-1 13.2-2.4 19.2-5.3a5.392 5.392 0 0 1-1.34-2.321 5.39 5.39 0 0 1-.06-2.679c.6-2.7 2.9-3 5.3-3a4.806 4.806 0 0 1 .918-4.091 4.792 4.792 0 0 1 3.782-1.809c4.9-.1 7.7 5 6.8 9.4a8 8 0 0 1-3.1 5h.2c2.8 2 6.9 4.4 10.5 4.3a42.62 42.62 0 0 0 7.9-1c5-.9 11.6-3.6 13-9.1.2-.8.4-1.7 1.2-2 .8-.3 1.3.3 2 .5.834.067 1.674.033 2.5-.1 3.4-.4 6.4 2.1 8.9 4.5a11.1 11.1 0 0 0 2.7 2c1.549.501 3.2.605 4.8.3a60.894 60.894 0 0 0 14-3.4c4.2-1.4 8.7-1.5 13.1-1.5s11.4-.9 17.2-1.3c5.8-.4 8.8-.1 13.1-.3a104.197 104.197 0 0 0 18.5-2.5c.505-.095.983-.3 1.4-.6l-24 .6c-8.271.25-16.55.05-24.8-.6Z"/><path fill="#DBDBDB" d="M505.8 286.9c-3.7 2.6-8.8 2.5-13.1 2.7-8.4.3-16.8.1-25.3.2-6.1.2-12 1.2-18.1 1.7h-3.4l.5.2c4.3 1.2 8.7 2.1 13 3.1 6.4 1.4 12.7 3.3 19.2 4.2 6.5.9 15.6.4 22.3-3.3 3-1.6 6.7-4.5 7.8-8a4.608 4.608 0 0 0-.2-3.7 9.398 9.398 0 0 1-2.7 2.9Z"/><path fill="#FC5B61" d="m441.9 290.6-1-.6 1 .6Z"/><path fill="#DBDBDB" d="M426.9 351.6c-3 6.5-10.5 8.3-16.9 9.4-11 2-22 3.8-33.2 3.4a213.504 213.504 0 0 0-33.9 1.1c-6.2.8-17.4 2.6-21.7-3.7l-.6-1.2a4.992 4.992 0 0 0 2 3.9c8 5.5 20.6 2.5 29.6 2.5 11.3-.1 21.7 3.3 32.7 5 11 1.7 21.1 2.8 31.4-.5 10.3-3.3 17.6-10 20.4-19.9 2.2-7.9-8.3-13.7-13.5-8.7 3.8 1.5 5.4 5 3.7 8.7Z"/><path fill="#DBDBDB" d="M405.9 355.7c-9.2 2.2-17.8 2.1-27.2 1.8-9.4-.3-18.3-1-27.3-.7-4.4.2-8.7.7-13.1.8-4.4.1-8.3-1-12.5-1.3-1.6 1.9-1.6 4.2 1.7 5.4 1.584.51 3.236.779 4.9.8 7.3.3 14.6-1.5 22-1.9 9.7-.6 19.3.6 29 .2a127.563 127.563 0 0 0 26.8-4c2.2-.5 16.4-3.9 11.4-8.8a5.7 5.7 0 0 0-1.3-.8c-3.2 4.8-8.9 7.1-14.4 8.5Z"/><path fill="#FC5B61" d="M415.3 752.8a73.993 73.993 0 0 1-7.2 5.3c-3.6 2.3-7.7 3.9-10.9 6.7a4.8 4.8 0 0 1 2.9 2c1.3 2.1.8 5.1 0 7.8l1.1-.3c2.9-.7 2.5-2.5 2.9-5 .4-2.5 1.1-4.8 3.6-6.3s5.2-1.5 8-1.1a10.949 10.949 0 0 0-.8-1.5c-1-1.3.3-3 1.7-3a9.824 9.824 0 0 0 1.7-.2 7.607 7.607 0 0 0-1.2-1.9 22.779 22.779 0 0 1-1.8-2.5ZM380.9 777.9c-1.7.5-1.4 1.8-.2 2.5a1.1 1.1 0 0 1 .8.9 1.701 1.701 0 0 1-2.1 2.3l-1.2-.6h-.9c-.9 0-2.6-.2-3.2.6-.6.8.8 3.4 1.9 3.8a6.995 6.995 0 0 0 4.3.2c3.3-.7 5.6-3.6 4.5-7.1-.5-1.4-2.2-3.1-3.9-2.6ZM279.4 516a57.594 57.594 0 0 0-13.2 3.6c.2 1.1.3 2.1.5 3.2h.6c4.9-.1 9.6-1.3 14.5-1.2 2.5 0 5 .4 7.4.3 2.4-.1 4.3 0 5.8-.8a2.507 2.507 0 0 0 1.3-2c-.1-1.2-1.4-2-2.6-2.3a23.334 23.334 0 0 1-3.6-.8h-.4a39.461 39.461 0 0 0-10.3 0ZM227 267.9c-3.3 1.3-6.4 2.8-9.8 3.9l-2.5.8c-11.2 2.9-24.2 3.6-35.2-.9-2.3-.9-4.5-2.1-7-2.3-4.9-.5-9.2 3.2-12.8 6.6a8.6 8.6 0 0 0-2.6 3.7 6.399 6.399 0 0 0 1 4.6 12.197 12.197 0 0 0 3.6 3.9c-.6-.8-1.3-1.4-1.8-2.2-1.4-2.4.1-3.6 2.7-4.6 4.2-1.5 5.3-4.8 8.5-7.3s3.7.6 6.1 2.3c5.3 3.7 13 1.6 19 1.3 7.6-.3 14.5-2.2 21.5-4.6l7-2.6c14.5-5.4 32.2-10.6 41.6-23.9l-2.9-.4a108.592 108.592 0 0 1-36.4 21.7ZM256.6 521.9c-4.6 7.9-12.2 14.6-19.9 19.3-7.7 4.7-14 6.3-20.4 9.9l6.3.2a14.001 14.001 0 0 0 6.3-1.1 95.812 95.812 0 0 0 12-6A131.317 131.317 0 0 0 252 537c.9-.7 10.7-7.8 10.4-8.1a19.503 19.503 0 0 1-2.3-9.8 5.195 5.195 0 0 0-3.5 2.8ZM238.2 577.6a22.01 22.01 0 0 0-6.6-2.5 56.707 56.707 0 0 0-10.9-1h-3.5c-1.2 4-2.3 8.1-3.2 12.3 4.6-2.2 9.6-3.5 14.7-2.4a10.504 10.504 0 0 1 5.6 2.7c.8.7 3.5 2.7 4.6.8 1.1-1.9-.5-1.7-1.4-2.7a27.335 27.335 0 0 0-2.5-2.3c-1.2-1.1.5-3.3 1.8-2.3l.3.2c1.3 1.1 2.4 2.5 3.7 3.6 1.3 1.1 3 2.8 3.8 2.7a1.5 1.5 0 0 0 1-1.2 4.912 4.912 0 0 0-.1-1.7 24.759 24.759 0 0 0-1-2.9c.022.39-.083.776-.3 1.1-.6.5-5.2-3.9-6-4.4ZM218.1 229.9a20.91 20.91 0 0 1-2 7.3 123.29 123.29 0 0 1 18.3-7.9 42.445 42.445 0 0 0 7.8-5.2c-3.3-1.9-8-.5-12-.4a41.495 41.495 0 0 1-5.7 3.5c-1.9 1-4.5 1.4-6.4 2.7ZM146.3 587.3l-52.2 11.5c-3.4.7-6.7 1.6-10 2.5 1.3 2.8 2.8 6.6 2.9 10.1 12.4-2.4 24.6-5.8 37.1-8.1 17.4-3.1 34.7-7.1 51.9-11.1l25-5.8 7.8-1.9c.8-3.3 1.7-6.8 2.8-10.2a130.893 130.893 0 0 0-14 1.9c-17.2 3.2-34.2 7.3-51.3 11.1ZM127.9 682.8c-5.5-3-11.6-6.8-16-11.7.6 3.9 1.1 7.8 1.6 11.7 1.6 12.8 3.1 26.1 8.5 38a73.998 73.998 0 0 0 16.1 22.7 21.41 21.41 0 0 1 1.603-12.339 21.406 21.406 0 0 1 8.197-9.361c5.3-3.5 11.8-4.8 17.7-6.8a27.795 27.795 0 0 0 8.6-4.3 14.093 14.093 0 0 0 3.4-4.3l-16.3-7.5c-11.1-5.3-22.6-10.3-33.4-16.1ZM154.1 562.5l6.9-1.7c-.2-1.7 1.5-4.3 1.9-5.7a37.976 37.976 0 0 0 1.1-8.9c0-5.5-1.3-13.8-8.4-13.7-7.1.1-11.7 5.4-14.1 12.1-2.4 6.7-2.2 15.4 1.4 20.6l3.4-.8a5.2 5.2 0 0 1-3.5-3.7 2.297 2.297 0 0 1 .74-2.462 2.3 2.3 0 0 1 2.56-.238c.7.4 1.2 1.1 1.9 1.5 2.6 1.4 6.3-1.1 6.7-3.7.7-5.3-5.1-4.6-8.4-5.6-3.3-1-3.3-2.9-2.7-5.1a6.809 6.809 0 0 1 1.2-2.4c2.6-3.6 7.3-4.3 11.5-3.4.179.054.344.146.484.27a1.286 1.286 0 0 1 .44.99 1.293 1.293 0 0 1-.124.54c-.4.9-1.3.9-2.2.8-.9-.1-3.7-.8-5.7.6s-2.6 3-.5 3.6c2.1.6 3.3 0 4.8.6 3.7 1.3 6.7 4.9 6 8.9-.7 4-2.7 5.1-5.4 6.9ZM121.3 268.1a33.198 33.198 0 0 1 3.4-6.8c6.4-10.3 16.7-17.7 27.2-23.6a2.408 2.408 0 0 0-1.2-.3c-5.2 0-10.1 2-14.4 4.8-4.3 2.8-7.5 7.5-11.1 11.2a2.996 2.996 0 0 1-1.3.9 2.494 2.494 0 0 1-2.4-.9c-.59-.739-1.26-1.41-2-2a4.498 4.498 0 0 0-2.3-.8c-4.5-1-10.1-1.1-14.3-3.1a25.807 25.807 0 0 1-9.4-6.9 31.299 31.299 0 0 1-7.4-17.4 5.705 5.705 0 0 0-.7-2.2 4.1 4.1 0 0 0-.6 3c.1 3.5 1.3 7.2 2.5 10.6 5.7 16.3 17.8 28.4 34 33.5ZM114.9 485.6c5.2-1.7 11.4-3.4 16.8-2s9.7 5.5 13.5 9l2.6 2.5a25.177 25.177 0 0 1-.5-2.9c-.7-4.6-1-12.5 2.2-16.8-5.2-2.2-10.2-4.8-15.8-5.8-5.6-1-8.9 2-12.6 4.5a74.724 74.724 0 0 0-13.3 11.1 21.017 21.017 0 0 0-3.3 4.2h1.2a65.574 65.574 0 0 1 9.2-3.8Z"/><path fill="#FC5B61" d="M116.2 727.3c-6.1-12.4-7.9-26.3-9.3-39.9-.8-7.5-1.6-14.9-2.5-22.4-.7-5.6-1.5-11.4-1.1-17.1l-3.3-.3a22.286 22.286 0 0 1-8.4-2.5c.8 18.1-7.2 35.2-8.9 53.2-1.4 14.9-.7 29.4 9 41.3a65.194 65.194 0 0 0 31.7 20.8 53.115 53.115 0 0 0 17.7 2.1 37.662 37.662 0 0 0 7.6-1.3 62.964 62.964 0 0 1-10.8-7.1 82.795 82.795 0 0 1-21.7-26.8Z"/><path fill="#DBDBDB" d="M67.3 452.2a99.287 99.287 0 0 0 41.8-12c6-3.2 14-7.4 15.6-14.8a6.707 6.707 0 0 0-1.8-6.3l-.8-.6c.2 13-16.4 19.2-26.9 22.4-18.4 5.8-37.3-1.7-56 1.9-5.8 1.1-13.1 2.8-18.8.4l-1.2-.6c0 .2-.1.4-.1.6 0 2.7 8.8 4 10.8 4.5 4.5.9 9.2 1.4 13.8 2.2 7.8 1.3 15.7 2.7 23.6 2.3Z"/><path fill="#FC5B61" d="M88.2 643.9c.038-.286.14-.559.3-.8l-2.8-2.3H85c1.4 4.9-2.2 10.4-5 14-4.2 5.5-9.3 10-14.4 14.6-10 9-23.9 18.6-24.8 33a23.094 23.094 0 0 0 11.1 7.7c2.851.9 5.894 1.004 8.8.3l1.8-.5c.1-.5.1-1 .2-1.5a59.298 59.298 0 0 1 8.4-23.4c3.3-5.4 7.1-10.5 10.2-16.1a70.67 70.67 0 0 0 3.6-7.9 108.598 108.598 0 0 0 3.3-17.1ZM83.2 612.1c-.7-3.4-.9-6.7-2.4-10a101.864 101.864 0 0 1-12 2.4c-6.9.8-13.1-1.3-19.4-3.8a45.58 45.58 0 0 0 2.1 7.2 9.59 9.59 0 0 0 5.9 5.1c1.745.583 3.562.919 5.4 1 4.25.136 8.502-.132 12.7-.8l7.7-1.1ZM76.9 692.9c.5-3.2 1.1-6.5 1.9-9.7-3.9 6.6-7.4 13.3-8.9 20.9-1.5 7.6-1.8 13.3-.1 19.6 1.7 6.3 5.3 9.1 10.4 11.2-.5-1-.9-2-1.4-3.1-5-12.1-3.8-26.2-1.9-38.9Z"/><path fill="#464646" d="M896 546.6c6.2.3 11.9-1.4 17.9-2.8a26.697 26.697 0 0 1 11.6-.3c3.9.9 7.6 2.4 11.6 3 11.8 1.8 26.5-.1 37.4-5.4 5.6-2.6 6.4-6.8 4.3-10.4a12.898 12.898 0 0 0-6.1-5c-12.1-5.1-25.6-3.3-38-.8-10.1 2-36.4 5.8-39.8 18.7-.123.423-.19.86-.2 1.3a1.307 1.307 0 0 0 .204 1.191 1.306 1.306 0 0 0 1.096.509Zm3.3-5a43.389 43.389 0 0 1 2.9-3.9c4.7-3.9 12.1-5 18-6.2l17.1-3.4c7.8-1.6 15.9-2.7 23.8-1.8 2.5.3 9.5 1.4 13.2 3.9 2 1.4 3.1 3.1 2 5.3-2 4.1-10.5 5.1-14.4 6.2-8 2.1-16.3 3.1-24.5 1.9l-2.5-.5c-6.4-1.3-11.5-3.6-18.2-2.6l-1.3.2c-6 1.1-11.6 3.1-17.8 3.2.1 0 .8-1.1 1.7-2.3ZM894.9 757.4c-11.1 4.7-23.4 3.6-35.2 4.6-7.3.6-14.5 1.7-21.8 2.4-7.3.7-14.3.2-21.3 1.1-.2-.3-.5-.5-.6-.8a1.298 1.298 0 0 1-.1-.9 1.806 1.806 0 0 0-.331-1.501 1.787 1.787 0 0 0-1.369-.699c-5-.1-9.1 1.7-13.4 3.4a48.134 48.134 0 0 0 4.3-7.3 1.306 1.306 0 0 0-.256-1.12 1.298 1.298 0 0 0-1.044-.48c-4.9 0-8.2 3.4-11.8 6.3.8-4.2 3.2-8.4 4.9-12.1 1.7-3.7 3.4-8.7 3-13.6-.1-1.3-1.2-2.9-2.7-2.7-4.6.6-7.9 4.1-10.5 7.8 1-12.7 1-25.7 1.3-38.3.2-6.4.2-13.5 3.3-19.4 3.1-5.9 10.8-9.1 17.3-11.9 13.3-5.6 27-12.5 35.7-24.4 10.4-14.2 15.6-32.3 19-49.4 1.8-9.2 2.6-18.5 4-27.7a89.169 89.169 0 0 1 3-13.6c.6-2 1.4-3.8 2.1-5.7.7-1.9 1.1-4.5 1.9-6.7a30.467 30.467 0 0 0 5.1-4.3c4.8-5.2 6.3-11.4 6.8-18.2 1.4-17.8 1.1-35.8 1.9-53.7.4-10.4 1.2-20.8 2.1-31.1.6-6.2 1.1-9.6-1.8-14.9-.5-1-9.7-11.5-10.2-9.4 3-13.1.2-30.9-.2-44.5-.4-16-1.7-32-5.7-47.5-1.8-7.1-3.8-14-5.4-21.2-1.2-5-2.7-10.5-7.3-13.4-7.3-4.6-20.5-4.5-28.3.1-4.6-1.8-9.9-1.3-14.7-.7a146.981 146.981 0 0 0-26.9 6.7 144.402 144.402 0 0 1-14.1 4.5 86.165 86.165 0 0 0-9.1 2.1c-4.4 1.6-8.5 4.2-9.3 8.5-22.7 8.4-3.3 41.5 4.2 54 5.3 9 9.4 19 13.1 28.9 1.4 3.8 2.7 7.5 4 11.2 1.3 3.7 3 9.4 4.2 14.2 2 7.9 3.4 16 4.7 24.1a14.6 14.6 0 0 0-6.2 1.1c-8.5 3.2-10.7 13-7.5 20.7-9.8 2.9-19.3 6.5-29.1 9.2-9.8 2.7-17.1 5.1-25.6 7.8a86.218 86.218 0 0 0-3.5-10.9c-1.7-4.8-2.4-10-4.1-14.6l2.3-1.7c5.5-4.3 9.6-12 5.5-18.6h-.1c-.6-2.7-1.7-5.5-2.2-7.1-2.5-7.2-5.5-14.2-8.3-21.3-2.8-7.1-5.1-15.2-7.4-23.1-1.8-6.3-7.7-24.5-16.3-25.1-1.5-4.9-3.8-9.8-5.6-14.2-2.6-6.6-5.3-13.2-8.3-19.7-3-6.5-6.6-14.3-11-20.5-2.5-3.5-5.8-6-10.1-6.4-4.3-.4-9.7 1.9-14.2 3.4-6.8 2.2-13.8 4.1-20.5 6.8-6.7 2.7-11.5 6-17.6 8.2-18.2 6.5-15.8 17-9.3 28.2-5.004.236-9.984.838-14.9 1.8-5.4.8-15.1 2-18 7.6-2.9 5.6 5.2 11.8 10.5 12.4 11.1 1.2 22.2-3.6 33.2-4.8 2.1 3.7 4.3 7.4 6.3 11.2.6 1.2 3.6 5.8 3.2 7a2.502 2.502 0 0 1-1.2 1.3 7.504 7.504 0 0 0-2.9 6.8c.307 1.491.707 2.96 1.2 4.4 1.9 7.8-12.8 8.5-17.8 10.3l-16.9 6.3-69.1 25.7c-46 17-92.2 33.8-138.9 49-12.3 4.1-24.7 7.8-37 11.8-5.1 1.6-10.3 3.2-15.2 5a18.712 18.712 0 0 0-4.7 2.3c-4.4-3.4-15.4-3.5-18.9-3.5-6.9 0-15.2.4-22.1 3h-.5c-13.7 1.6-26.5 6.2-39.1 11.6-6.6 2.9-13.1 6-19.3 9.5a63.275 63.275 0 0 0-7.7 5 37.03 37.03 0 0 1-6.5 4.5c-.1-10.4 1.9-26.4-8.9-30.9 1.8-.3 3.6-.4 5.4-.6 5.4-.4 10.9-.7 16.3-.8 3.3-.1 6.7.3 9.8-.6 5.7-1.6 7.9-7.3 9.4-12.4 1.5-5.1 1.9-10.1 6.7-11 2.4-.4 5.3-.2 7.5-1.2s3.7-3.4 3.3-5.5a4.604 4.604 0 0 0-2.9-3.2 8.108 8.108 0 0 0-2.7-.5 3.8 3.8 0 0 1-1.5-.5 4.292 4.292 0 0 1-1.8-2.9c-1.2-5.4 2-12 3.8-17.5a11.398 11.398 0 0 0 6.8 3.9 1.902 1.902 0 0 0 2.096-.999c.126-.249.196-.522.204-.801.4-4.6-3.6-9.3-3.4-13.7 1.3 2.1 3 3.9 5.5 3.8 2.5-.1 4.9-3.9 5.8-6.6 2.4-7.9 1.2-14.1-3.8-19.3 3.1.4 6.2 2.1 9.3 2.6a1.498 1.498 0 0 0 1.8-1 6.504 6.504 0 0 0 .6-3.3c-.5-8.6-17.3-14.5-23.3-16.5-9.4-3.2-24.1-4.9-34.2 0l.8-.5c1.7-1.3 3.6-2.3 4.8-3.4 1.2-1.1.1-2.5-1.1-2.6-6.9-.5-13.8 4-19.2 7.8a27.598 27.598 0 0 0-5.4 5.4c-1.9 2.5-4.3 7.1-7.7 8.3a19.1 19.1 0 0 1 2.1-11.7 1.8 1.8 0 0 0-2.1-2.7c-16.3 3.1-30.4 24.9-23.6 41.1a12.4 12.4 0 0 1-6.1-5.9 2.095 2.095 0 0 0-1.75-.939 2.096 2.096 0 0 0-1.75.939 21.301 21.301 0 0 0-.3 16.8 19.986 19.986 0 0 0 3.5 6.1 10.894 10.894 0 0 1-3.8-1.4c-1.3-.8-3.5.6-2.8 2.2 2.5 6.2 8.2 10.5 14.4 12.5a23.11 23.11 0 0 0 8.2 1l-1.8 1.7-1.9 1.7c-1.2.9-.1 2.6 1.1 2.7 4.4.4 10.6-.3 14.5-3.3a35.53 35.53 0 0 1 .4 6.5c-6.1-.8-13.1-1.6-19.2-.7h-.1a2.898 2.898 0 0 0-1.1-1.6c-5.6-3.9-15-6.3-21.8-5.8-5 .3-9.8 3.4-13.9 6.3a75.69 75.69 0 0 0-14.7 13c-1.3 1.6-4.6 5.4-4.4 8.3a42.83 42.83 0 0 0-2.9 3.3c-3.1 3.9-5.8 8.1-8.6 12.2-8.7 12.9-18.2 25.1-26.2 38.4-8 13.3-16.5 26.6-18.1 41.8a41.7 41.7 0 0 0 1.2 14.9c.9 3.3 1.9 7 4.3 9.5a15.896 15.896 0 0 0 9 5c3.6.5 7 1.4 10.7 1.5-.5 3.5 2.1 8.2 3.9 10.6a39.109 39.109 0 0 0 4.5 5.4c.5.4 5.2 3.6 5 4.1v.4c-.6 7.6-6.1 13.1-11.4 18.1-5.3 5-9.6 8.4-14.5 12.5s-10.8 9.5-15.2 15.2c-2.6 3.4-5.2 7.2-6 11.5-.8 4.3 2.3 10.3 6.2 13.6a23.695 23.695 0 0 0 8.7 4.9c1.984.62 4.03 1.022 6.1 1.2.5 0 6.6.2 6.6-.4.5 11.9 5.7 24.6 19.5 23.7.42.007.833-.097 1.2-.3 9.8 15.4 27.7 26.1 45.4 29.1 10 1.6 19.6.5 29.5-1.6 3.5-.8 7.3-1.9 10.7-3 3.4-1.1 2.3-4.3-.1-4.9-8.3-2.3-15.8-4.9-22.7-9.6-2.5-5-3.2-10.9-.5-16.2 2.7-5.3 9.7-8.4 16-10.4 6.3-2 19.2-5.9 22.2-14.1a265.764 265.764 0 0 1 26.4 13.9c7.6 4.6 15.1 9.3 22.9 13.6 7.8 4.3 16.6 8.2 24.9 12.3 8.3 4.1 18.5 9.3 27.9 13.6 9.4 4.3 18.3 8.6 27.7 11.9 1.8 2.9 4.8 4.9 7.8 6.4a20.933 20.933 0 0 0 4.8 1.9h-1.7c-5.9-.2-13.8.5-19.1-2.3-5.3-2.8-8.2-2.6-13.9-2.1-5.7.5-13.5 1-20.3 1.1l-15.2.2c-4.6.1-14.1 1-17.2-3.2-1.2-1.6-1.4-4.1-2.2-5.9a18.8 18.8 0 0 0-4.1-5.6c-3.9-3.8-8.8-6.4-13.7-8.5-1.7-.7-3.1 1.3-2.7 2.7l.9 3.6c1.5 5.1 3.4 10.1 4.2 15.4-3.5-1.3-6.2-6.2-9.1-8a16.802 16.802 0 0 0-6.3-2.4 21.523 21.523 0 0 0-8 .1 1.9 1.9 0 0 0-1.1 2.7c.214.654.381 1.322.5 2-8.2-.8-20.9-6.4-23.5 3.8-6.9-.6-13.8-4.7-19.6 1.2h-.1c-5.8-1-11.4-2.5-17.4-1.2-6 1.3-12.6 5.6-19.8 5.6-2 0-2.6 3.2-.5 3.6 2.57.441 5.208.269 7.7-.5 3.1-.8 6.1-2.3 9.3-3.5a29.493 29.493 0 0 1 14.1-1.3c2.5.3 4.8 1 7.2 1.4 2.4.4 4.2.9 5.2-.4a1.207 1.207 0 0 0 .357-.923 1.195 1.195 0 0 0-.457-.877l-1.2-.5c-.4-.2-.8-.7-.5-1l.6-.3c2.9-.4 6.4-.4 9 .9 2.6 1.3 5.1 2.4 7.3 1.7s1.2-3.3 1.7-5.1c.5-1.8 1.3-1.3 2.2-1.6 3.2-.8 6.6.3 9.8.7 3.2.4 5.7 1.5 8.6 1.9 1 .1 2.4.4 3-.6a3.103 3.103 0 0 0-.4-3.2c-.4-.6-1.2-1.1-1-1.8.2-.7.6-.7 1.1-.9 1.8-.611 3.72-.783 5.6-.5.993.16 1.965.428 2.9.8a6.803 6.803 0 0 1 3.2 2.6c1.7 2.2 3.2 4.8 5.3 6.9 2.1 2.1 4.9 3.6 7 2.4 2.1-1.2.9-5.7.3-7.6-1.3-3.9-3.3-7.6-4.9-11.4l-.3-.7a2.106 2.106 0 0 1 .2-1.9c.7-.6 1.8-.3 2.6.1 4.3 2.1 8.7 5.8 10 10.5 1.3 4.7 2.6 9.4 6.8 11.4 4.2 2 9.8 2.1 14.5 2.1l16.2-.2c7.1 0 14.3-.1 21.3-.6 3.5-.3 7.1-1.1 10.3.4 3.2 1.5 3.5 2.2 5.5 2.8 5.5 1.7 12.4 1.2 18.1 1.4a69.4 69.4 0 0 0 20.8-2.5l.8-.5a18.588 18.588 0 0 0 3.4-.6c7.2 1 12.6-5.5 16.5-12.1 3.9-6.6 6.1-10.8 13.2-11.8 2.5-.3 7.1-1.2 9.4-.2 2.3 1 .8-.3 1 .9.2 1.2-1.7 3.6-2.3 4.5-.6.9.3 4.2 2.3 4.1 2-.1 6.1-.6 6.2-.4.1.2-1.2 5.8-1.5 6.9a2.7 2.7 0 0 0 2.5 3.3c4.5.5 11.3-1 12.4-6.1.5-2.1-.2-3.5 1.1-5.4 1.3-1.9 3.8-1.9 6.6-1.4s4.5 1 6.9 1.3c-.2 1.2-.5 2.3-.8 3.5a2.795 2.795 0 0 0 .735 2.665 2.795 2.795 0 0 0 2.665.735c2.8-.9 5.2-2 7.7 0s1.9 2.5 3.1 3.6c1.2 1.1 5.2 2 7.9 1.2a1.397 1.397 0 0 0 1.9.1c6-4.2 13.5-1.9 20.3-1.3 8.248.683 16.527.917 24.8.7l24-.6c9.2-.3 18.4-.5 27.7-.5l50.5-.2c17.1-.1 34.1.2 51.3.5 15.6.2 32.1 2.1 47.3-2.7a2.702 2.702 0 0 0 1.9-2.9 1.097 1.097 0 0 0-.1-1.2 29.812 29.812 0 0 1-2.7-4.5 22.386 22.386 0 0 1 3.7 3.2c.8.7 2.3.5 2.5-.6.7-3.3.6-6.7 1.3-10 4.9 4 4.8 12.2 11.2 15.1a1.598 1.598 0 0 0 2.3-.9c1.7-5.2-.6-9.5-2.3-14.3-.7-1.9-2.7-9.1 1-8 1.8.5 3.9 6.9 4.4 8.2 1.7 4.1 3.3 8.4 8 9.6 1.634.417 3.338.485 5 .2a7.308 7.308 0 0 1 2.5-.4c1.2.4.7 1.2.5 3a2.802 2.802 0 0 0 2.7 2.7c6.4.3 12.6-.7 18.9-1.3 6.3-.6 11.4.5 17.2.1 9-.5 9.5-6.9 11.5-13.8a41.797 41.797 0 0 1 12-19.2c-1.4 8.7-7.8 15.8-5.7 25.2a1.602 1.602 0 0 0 2.8.7c3.6-2.7 5.8-7.2 10.2-8.1-1.8 2.8-4.2 5.2-5.6 8.3a1.605 1.605 0 0 0 .065 1.826 1.607 1.607 0 0 0 1.735.574c4.7-1.3 11.1-5.5 15.9-4.8-.3 1.8-2 3.8.8 4.9a6.706 6.706 0 0 0 3.7 0c7-1.4 14.4-1.1 21.5-1.8s14.5-1.8 21.7-2.3c10.7-.8 25.5.9 34.6-5.8 1-.7.4-2.8-1-2.2Zm-35.8-462.6c2.4 5.1 2.5 11.1 4 16.4 2.2 7.5 4.8 14.6 6.3 22.2 5.7 29.4 6.6 60.4 4.7 90.3-2.2 3.5-5.7 5.9-9.6 7.7-.1-.1-.1-.3-.3-.4-3-4.1-2.1-12.3-2.3-17.1-.5-8-1.4-15.9-2.3-23.9-1.1-10.3-2.8-20.5-4.2-30.7-1.4-10.2-1.3-19.7-2.5-29.6-1-7.9-1.8-16.3-5.8-23.4-1.6-2.9-3.6-5.7-5.4-8.5-1.8-2.8-3.1-5.5-5.2-7.8 8.2-1.5 19-2.8 22.6 4.8Zm-97.8 16.4c1.1-3.7 3.7-5.4 6.8-6.5a45.703 45.703 0 0 1 5.6-1.4 142.405 142.405 0 0 0 20.2-6.1c8.3-3 17.3-5.8 26.2-6.5 3.8-.4 8-.7 10.9 2.1a49.555 49.555 0 0 1 4.9 6.2c4.5 5.8 8.8 10.5 10.6 17.9 1.8 7.4 2.4 17.4 3.8 26.1 2.9 18.2 4.5 36.4 6.7 54.6.8 7 1.4 13.9 1.8 20.9.2 4.4-.2 10.5 2.1 14.4a76.689 76.689 0 0 1-7.8 2.3c-3.3.9-6.6 1.6-9.9 2.2a90.577 90.577 0 0 1-1.4-19.5c.5-8.1 1.1-16.2 1.4-24.4.5-14.6 1.3-30.9-2.4-45.3-1.9-7.7-5.9-15.2-10-21.9-4.1-6.7-9.7-14.8-17-19.2-7.3-4.4-13.7-2.6-18.5 3.5-4.8 6.1-3.6 14.1-2.4 20.4 1.2 6.3 2.2 11.6 2.4 17.7.2 6.1-.1 14.3.4 21.4.1.5.1 1.1.2 1.6.5 5.5 1.4 10.9 2.4 16.3 1.6 8.9 3.7 17.7 5.5 26.7 1.4 7.2 2.1 14.5 4.3 21.5.9 2.9 2 5.8 2.8 8.8l-3.9.7c-2.2-5.5-3.3-11.4-4.6-17.1-1.6-7.5-4.2-14.8-4.8-22.4-.5-6-.2-12-1.2-17.9-.3-1.3-.6-2.7-1-4-1.8-6.1-5-11.3-8.8-16.3-1.9-2.5-3.9-4.8-6-7.1s-4-6.9-5.2-10.7c-1.7-5.8-2.9-11.7-4.5-17.5-1.6-5.8-4.3-16.1-9.9-20.9a.9.9 0 0 0 .3-.6Zm76.2 79.6a278.909 278.909 0 0 0 2.3 28.9c.5 4.5 1 9.2 1.1 13.7a41.639 41.639 0 0 1-.6 4.6l-2.1.4c-7.6 1.6-15.1 3.8-22.8 5.6-.4-3.1-1.2-6.3-1.6-9.4-1.1-6.6-1.9-13.2-3.4-19.8-3-13-7.3-25.8-9.9-39-2.6-13.2-.4-25.6-2.6-38.2-1.5-8.4-6-20.1 1.6-26.8a.998.998 0 0 0 .4-.7c14.6-9.6 30.9 24.9 34.5 35.3 4.7 14.1 3 30.7 3.1 45.4Zm-52.7 16.6c-4.5-14.1-10.6-27.7-15.6-41.6-3.5-9.6-8.6-18.6-12.3-28.1-1.8-4.5-3.3-9.4-3.2-14.3a13.902 13.902 0 0 1 4.2-10c6.2 6.4 8.3 17.3 10.4 25.5 1.6 6.7 3.1 13.4 5.8 19.8 2.7 6.4 5.5 10.5 8.9 15.7a44.095 44.095 0 0 1 7.3 19.2c1 7.1 1.6 14.4 3.4 21.3 2.5 10.4 4.6 21.5 8.4 31.6-2.6.4-4.8.7-6.6-.1-.8-5.6-2.6-11.1-4.2-16.4-2.2-7.5-4.1-15.1-6.5-22.6Zm-72.1 73.4-4.2 1.2-8.9 2.5v-.4c0-2.3-1.1-4.7-1.5-6.9-.4-2.2-1.1-5.2-1.8-7.7-.2-.9-1.1-5.9-2.5-8.6a87.564 87.564 0 0 0 12.9-4.9c-.2 3.8 1.1 7.9 2.1 11.2 1 3.3 2.7 9 3.9 13.6Zm-55.9 13.7a118.151 118.151 0 0 0-7.4-21.2 44.016 44.016 0 0 0 7.9-1.5l4.4-1.1c6.7-1.6 13.2-3.6 19.7-5.7a35.112 35.112 0 0 0 2.2 8.9 97.537 97.537 0 0 1 3.8 13.8l-14.5 3.6-7.5 1.8-8.5 2.3a2.793 2.793 0 0 0-.1-.9Zm-5.3 2.6c-23.7 7.2-50 11-74.4 16.1-24.4 5.1-51 10-76.8 13.6-6.1.9-12.3 1.3-18.5 1.9l-9.4 1-4.7.7c-1.7.2-3.8.1-1.2-1.2 6.8-3.7 14.2-5 21.4-7.6 32.6-11.7 65-23.9 98-34.4 17.2-5.6 34.9-10.5 51.7-17.2a11.495 11.495 0 0 0 6.8 3.3c1.6 4.2 3 8.5 4.2 12.9.5 1.7.9 3.5 1.3 5.2.4 1.7.8 3.1 1.1 4.7.105.361.274.7.5 1Zm32.8-33.1c1.4-.5 5-2.3 6.1-1.4 1.1.9 1.3 5.8 1.7 6.9 1 3.8 1.9 7.7 2.7 11.5.2 1.3 1.1 3.2.2 4.4-.9 1.2-4.2 1.3-4.2 1.4a54.157 54.157 0 0 0-2.8-10.5c-1.4-4.1-2.4-8.2-3.7-12.3Zm-36.5-164.6c6.3-.3 8.4 6.8 10.7 11.5 2.3 4.7 5.4 12.2 7.9 18.4 2.5 6.2 5 12.3 7.3 18.5a105.97 105.97 0 0 1 3.9 11.2c.2.7 1.8 11.2 2.4 11l-10.8 3.9c-4.2-12.3-8.3-24.5-13.5-36.5-5.2-12-10.9-24.1-17.3-35.7 3.1-1.1 6.3-2.2 9.4-2.3Zm-14.4 4 1.7-.5c10.1 24 20.8 47.9 30.4 72.2l-4.8 1.6c-1.3-9.9-5.8-20-10.4-29.2l-3.1-6.2c-6.1-12.1-12.5-24.6-20.1-35.9l6.3-2Zm-21.7 8.4c-.3 2.6 1 5.6 1.9 7.9 1.5 4.1 3.5 8.1 5.3 12 3.6 7.9 9.2 18.2 8.1 27.3-6.9-5.3-10.6-15.6-13.9-23.1-2.4-5.4-4.8-14.7-10.1-18.9l8.7-5.2ZM587.8 357c-5 1.363-10.075 2.432-15.2 3.2-4.1.5-9.2.7-12.6-2-3.4-2.7-3.4-4.3-1.9-6.4l.8-.9c4.7-4.2 13.5-4.4 19.3-4.8 4-.4 8.2-.2 12.2-.4 1 1.5 1.9 3 2.9 4.4l3.4 5.2a63.796 63.796 0 0 0-8.9 1.7Zm14.7-9.2c-2.3-4.4-4.5-8.9-6.5-13.4s-4.6-6-3.9-10.1c.2-1.9 1.5-2.9 3-3.6l3.8-1.6c6.1 6.2 8.4 15.2 12 22.9 3.6 7.7 8 18.6 16.6 22.7a2.205 2.205 0 0 0 2.011.151 2.204 2.204 0 0 0 1.289-1.551c2.9-10-2.3-20.3-6.1-29.3-1.7-4-3.6-7.8-5.3-11.7a57.518 57.518 0 0 1-2.7-7.3c-.5-1.7-.5-3.5-1.3-5.1a94.962 94.962 0 0 1 9.3-3.7c4.9 11.6 12.3 22.3 18.2 33.4 1.7 3 3.2 6.1 4.8 9.2 1.6 3.1 3 6.5 4.3 9.8 2.5 6.3 3.7 12.7 5.5 19.1l-13.6 4.3-9 2.8-3.1 1.3a25.11 25.11 0 0 1-5.7 1.8 7.504 7.504 0 0 1-4.1-.5c-3.2-5.1-5.3-10.9-8.3-16.2l-2.7-4.9c-2.1-6.4-5.5-12.5-8.5-18.5ZM267 504.4a109.372 109.372 0 0 1 19-2.1h6c1.7.2 4.5.1 6 1s-.5 2.1-1.6 2.8l-5.6 3.4c-1.5.9-3.2 2.2-3.1 3.9a3.391 3.391 0 0 0 2 2.4h.4c1.177.361 2.381.629 3.6.8 1.2.3 2.5 1.1 2.6 2.3a2.501 2.501 0 0 1-1.3 2c-1.5.8-4.1.7-5.8.8-1.7.1-4.9-.3-7.4-.3-4.9-.1-9.6 1.1-14.5 1.2h-.6c-.2-1.1-.3-2.1-.5-3.2a59.987 59.987 0 0 1 .8-15Zm-1.5 27.3 1.2-1 1-1 1.2-.9 1.1-.6 1-.4h2.4l2.8-.4a47.825 47.825 0 0 1 8.4-.8h1.5c1.265.1 2.535.1 3.8 0a13.987 13.987 0 0 0 6.6-1.9l.7-.5h.2l.5-.5h.2l.5-.6h.1c.39-.402.696-.878.9-1.4h.1l.3-.7c.133-.488.167-.998.1-1.5-.1-1.1-1-2.2-2.8-2.8l-5.6-2a1.4 1.4 0 0 1-.8-.5c-.8-1.6 3.9-3.4 4.8-3.8a123.13 123.13 0 0 1 11.9-4.8c1.6-.5 3-1.3 4.5-1.8s3.7-.9 5.6-1.5l15.3-4.7 31.5-10c41.6-13.4 83.6-28.8 125.1-43.6 20.9-7.5 41.5-15.4 62.5-22.4 21-7 41-12.2 59.9-22 1.3 3.9 3.5 7.5 5.5 11s4.6 8.9 6.6 13.4a22.26 22.26 0 0 0 2.6 2.7 9.399 9.399 0 0 0 .2-4.4 53.318 53.318 0 0 0-5.2-11.4c-3.2-5.7-14.3-16-12.5-23.3v-.6c.1-1.2.6-2.5 1.7-2.6 1.1-.1 1.9 1 2.2 2.1a10.51 10.51 0 0 0 1.2 3.1l.7.9 1.5 1.5 2 1.4 1 .6h.4l.7.3h.4l.7.2h5.9l.6-.2h1.1l.4-.2.7-.2h.4l.7-.2h.3l.8-.3h.2l2.7-1h.3c16.3-5.7 33-9.8 48.9-16.4 3.8-2.5 1.4-6.3.7-10.2a1.807 1.807 0 0 1-.111-1.062c.072-.357.25-.684.511-.938 2.5-1.6 9.2 22.4 10 25.4a210.553 210.553 0 0 0 6.8 20.8l2.7 7.1v.2c.121.514.289 1.016.5 1.5 1.2 3 2.7 6.4 3.9 9.9a51.852 51.852 0 0 1 1.4 5.3c.297 1.148.497 2.319.6 3.5 0 .6.1 1.1.1 1.7a9.12 9.12 0 0 1-.1 1.7 8.76 8.76 0 0 1-.2 1.7l-.3 1.7a6.112 6.112 0 0 1-.7 1.4 3.99 3.99 0 0 1-1 1.2 13.394 13.394 0 0 1-2.6 1.9 35.55 35.55 0 0 1-4.3 2.3 57.16 57.16 0 0 1-6.8 2.8l-4.6 1.5-2.3.7-2.8.9-11 3.7c-2.8.9-5.6 1.8-8.4 2.5l-15.4 4.1c-6.1 1.5-9-.4-11-4.4-.1-.4-.3-.7-.4-1.1l-.9-2.3a6.56 6.56 0 0 0-.4-1.3c-.7-2.6-1.6-5.1-2.5-7.7-1.8-4.8-3.6-9.5-5.1-14.5a1.301 1.301 0 0 0-2.5.4.394.394 0 0 0 .1.3c.206 1.189.507 2.36.9 3.5.3 1.2.7 2.3 1.1 3.5 1.1 3.5 2.3 7.1 3.1 10.7a45.444 45.444 0 0 1 1.3 7.2c.1 1.2.1 2.4.1 3.6a2.499 2.499 0 0 0-.3 1.7c.02.213.088.418.2.6-13.9 4-27.6 8.7-41.3 13-16 5-32.1 10-48 15.6l-23.7 8.3c-23.7 8.5-47.3 17.1-71.2 25.2-4.4 1.4-8.6 3.1-12.9 4.8l-4.3 1.7-2.5.9-5.1 1.8-2.6.7-1.4.3c-3.3.7-6.6.9-9.9 1.4l-12.6 1.7-6.3.8-18.7 2.2-14.2 1.6c-9.4 1.1-18.9 2.3-28.3 3.6l-14.1 2-3.6.6-10.7 1.5-7.2 1.1-7.1 1.2-3.6.6c-4.6.8-9.3 1.7-13.9 2.3-2.4.3-4.7.6-7.1.7h-3.6c-.46.025-.906.162-1.3.4a18.099 18.099 0 0 0-3.9-2l-.4-.2a13.225 13.225 0 0 0-3.2-.7l-1.6-.2c-2.7-.2-5.3 0-8.1-.2l-3.1-.3-1.6-.3a21.207 21.207 0 0 1-7.4-2.7 31.137 31.137 0 0 0 4.3-1.5 61.515 61.515 0 0 0 8.1-4.1l3.9-2.4 3.2-2.1 6.4-4.6 3-2.5 1.5-1.2a56.195 56.195 0 0 0 4.6-4.8Zm-20.9 35.8a25.132 25.132 0 0 0 2.3 1.8l6 5.7c.873.852 1.615 1.83 2.2 2.9.4 1 .9 3.2-.7 3.2s-1.9-1.2-2.6-1.6c-.7-.4-3.9-2.7-5.9-3.9a3.7 3.7 0 0 0-1.6-.9 1.701 1.701 0 0 0-1.7.5c-.6.9-.1 2 .5 2.8.6.8 1 1.9 1.4 2.9.393.945.727 1.914 1 2.9.132.557.166 1.132.1 1.7-.04.273-.155.529-.332.74a1.495 1.495 0 0 1-.668.46c-.8.1-3.2-2.2-3.8-2.7-.6-.5-2.4-2.5-3.7-3.6l-.3-.2c-1.3-1-3 1.2-1.8 2.3.88.714 1.715 1.482 2.5 2.3.9 1 1.7 2.2 1.4 2.7-.3.5-3.8-.1-4.6-.8a10.504 10.504 0 0 0-5.6-2.7c-5.1-1.1-10.1.2-14.7 2.4.9-4.2 2-8.3 3.2-12.3.7-2.4 1.5-4.7 2.3-6.9.8-2.2 2.8-7.5 4.6-11.3.3 0 9 3.2 9.8 3.4 3.9.9 7.3.4 11.3.6 2.2.1 16.2.5 14.8 5.1-.3 1-1.5 1.4-2.6 1.5a17.001 17.001 0 0 1-7.1-.6c-1.8-.5-3.8-1.6-5.6-.7-1.8.9-.8 1.5-.1 2.3Zm-76.5-101.4a22.553 22.553 0 0 1-4.4 1.4c-.8.2-3.5.6-2.2-.8l.2-.2a26.249 26.249 0 0 1 3.4-2.4c1.4-1.1 2.9-2.4 3-4.2.1-1.8-.1-.8-.4-.9h-.7a18.908 18.908 0 0 1-5.7 1.3c-1.9-.1-4-.9-5.8-.9a21.2 21.2 0 0 1-6.1-2.8 34.801 34.801 0 0 1-5.1-3.4c-.4-.3-.8-.8-.6-1.3.2-.5 1-.5 1.6-.4h.2l2.5.6a4.3 4.3 0 0 0 1.9.2 1.898 1.898 0 0 0 1.6-.9 2.203 2.203 0 0 0-.3-1.9c-.406-.491-.84-.959-1.3-1.4a16.098 16.098 0 0 1-5-15.8c-.3 1.1 4.2 3.5 5.1 3.8.9.3 4.3 1.4 5.9.3a1.797 1.797 0 0 0 .9-1.2.895.895 0 0 0-.1-.5 2.1 2.1 0 0 0-.4-1c-1.5-3.3-1.6-8-1.4-11.6a31.08 31.08 0 0 1 2.5-10.4 29.103 29.103 0 0 1 14.8-15.1l1.1-.4a22.801 22.801 0 0 0-.2 11.9 1.695 1.695 0 0 0 1.6 1.2c5.9-.7 8.8-6.8 12.2-11 3.4-4.2 11-9.4 17.8-11.6.281-.132.597-.167.9-.1a.804.804 0 0 1 .5.7l-.4.4-2.3 1.9a29.983 29.983 0 0 0-6 6.3c-.329.375-.568.82-.7 1.3a1.199 1.199 0 0 0 .5 1.3 1.7 1.7 0 0 0 1.9-.3c3-1.7 5.6-3.9 8.9-5a36.991 36.991 0 0 1 9.3-1.6 58.116 58.116 0 0 1 18.1 2.3c4.6 1.3 22.5 6.7 23.1 13.5a4.88 4.88 0 0 1-.1 1.2c-4.6-1.3-8.6-3.8-13.6-2.6a1.806 1.806 0 0 0-1.182 1.234A1.8 1.8 0 0 0 244 408.9c4 3.1 6.8 6.1 6.8 11.4a24.59 24.59 0 0 1-1.4 8.1c-2 4.9-4.7 0-5.9-2.6-1.2-2.6-2.4-1-3.1 0-4.5 5.8.4 10.8 1.3 16.6-5.9-3-8.5-12.3-12.5-16.9-2.3-2.6-9.3-5.4-8.3.8.149.692.249 1.394.3 2.1v.3c-.1.3-.1.6-.4.8-.3.2-.9-.1-1.2-.4-.3-.3-1-2.6-1.9-3.3-.9-.7-3.3-.3-4.5.1-7.3 2.3-9.3 11-12.4 17.2-1.4-1.2-2.4-2.7-3.7-3.9a9.51 9.51 0 0 0-2-1.5h-.1l-.4-.8a.804.804 0 0 0-.7-.413.804.804 0 0 0-.7.413c-1.2 2.4-.5 5.6-.7 8.3a34.89 34.89 0 0 1-1.9 8.5 31.099 31.099 0 0 0-2.8-13.7c-2.5-5.6-7.4-8.7-13.6-7.1a14.007 14.007 0 0 0-7.9 5.3 10.7 10.7 0 0 0-1.7 8.3 18.302 18.302 0 0 0 3.6 7.9 12.877 12.877 0 0 0 3.3 3.3 6.6 6.6 0 0 1 2 2.1c.123.319.191.658.2 1 0 2.8-3.4 4.4-5.6 5.3Zm-13.9 10.3c6.9 1.5 14.5.7 21.5 1.7 2.3.3 2.7-1.2 3-3 .492-1.524.794-3.102.9-4.7a36.085 36.085 0 0 0-2.4-12.6c-1.7-4.1-6-6.4-7.3-10.9-1.3-4.5 2.8-9.9 8.3-9.2 5.5.7 6.6 5.9 7.5 9.5.9 3.6.9 4.7 1.7 7 .8 2.3 1.4 2.8 2.8 3a3.298 3.298 0 0 0 2.3-1c1.8-2 2.2-6.1 2.5-8.6a43.72 43.72 0 0 0 .6-6.6c1.5 1.9 2.5 4.3 4.5 5.9a1.702 1.702 0 0 0 2.6-.3c2.6-3.7 8-20.9 14.1-16.1 1.2 1 1.5 2.5 3.6 2s2.3-2.3 2.3-4.1c-.05-.632-.05-1.268 0-1.9a2.304 2.304 0 0 1 .2-1.2 1.695 1.695 0 0 1 2-.3c1.4.8 2 2.9 2.8 4.3l3.5 6.1c1 1.7 2.1 3.4 3.2 5.1-1.4 4.9-3.7 9.5-4.5 14.6a15 15 0 0 0 .5 7 5.302 5.302 0 0 0 1.9 2.7 6.904 6.904 0 0 0 3.4.7h.9a3.8 3.8 0 0 1 2 1c2.3 2.8-2.4 4.1-4.2 4.3-1.8.2-5.4.1-7.7 1.8s-2.7 4-3.5 6.1a.103.103 0 0 0-.071.029.103.103 0 0 0-.029.071l-3.5-.6a18.08 18.08 0 0 1-4.6-1.7c-3.3-1.6-4.8 4.1-1.1 4.3 3.7.2 5.7.8 8.4.3a53.72 53.72 0 0 1-2.7 8c-2.1 4.1-4.7 5.1-9.1 4.9-18.6-.9-38.7-1.5-55.6 7.4a47.306 47.306 0 0 1-2.5-8.1c-1.2-5.6-2-12.3 1.8-16.9Zm-46.4 8.8a74.724 74.724 0 0 1 13.3-11.1c3.7-2.5 7.9-5.4 12.6-4.5 4.7.9 10.6 3.6 15.8 5.8-3.2 4.3-2.9 12.2-2.2 16.8.11.976.277 1.944.5 2.9l-2.6-2.5c-3.8-3.5-8.3-7.6-13.5-9-5.2-1.4-11.6.3-16.8 2a65.491 65.491 0 0 0-9.2 3.7h-1.2a20.989 20.989 0 0 1 3.3-4.1Zm-56.1 93.2c4.7-12.5 12.3-24.3 19.4-35.5 7.1-11.2 14.3-20.4 21.4-30.6 2.6-3.8 4.8-8 7.6-11.7a70.768 70.768 0 0 1 6.9-7.6 10.501 10.501 0 0 1 3.2-2.7l3.5-1.1c5.8-2.3 12.8-4.2 18.8-1.6s11.9 8.4 16.9 13.9c.1.5.3.9.4 1.3-3.6.6-8 1.7-6.5 5.1 1.5 3.4 3.8 1.2 5.5.2l2.7-1.3c0 .1.1.2.1.3 1.6 2.9 3.7 5.1 6.3 5.3a1.893 1.893 0 0 0 1.439-.728 1.908 1.908 0 0 0 .361-1.572 12.204 12.204 0 0 0-1.4-2.8 1.897 1.897 0 0 0-.4-1.1v-.2a83.7 83.7 0 0 1 20.1-5.7c.129.342.334.65.6.9 2.8 1.9 5.7 3.1 7.4 6.2a18.798 18.798 0 0 1 2.2 8.5c.4 5.7-.3 11.5-.2 17.3a2.197 2.197 0 0 0 2.1 2.1c5.7-.4 9.2-3.7 13.9-6.7a143.274 143.274 0 0 1 18.6-9.8c12.7-5.8 25.9-11.1 39.8-13.2a42.897 42.897 0 0 0-2.2 13.5 19.503 19.503 0 0 0 2.3 9.8c.3.3-9.5 7.4-10.4 8.1a131.317 131.317 0 0 1-11.1 7.2 95.812 95.812 0 0 1-12 6 14.001 14.001 0 0 1-6.3 1.1l-6.3-.2h-1.5c-6.3.1-12.6 1.5-18.7 2.7-2.9 0-6 1.1-8.8 1.6l-7.8 1.7c-.7-2.3-.4-4.5-.4-6.9 0-2.4-.3-4.8-.2-7.2.2-5.5.8-11 .7-16.4a1.699 1.699 0 0 0-3.3-.4c-1.8 4.9-1.7 10.2-2.1 15.4-.4 5.2-.7 11.2-1 16.9-1.38.095-2.751.295-4.1.6-.6.1-3.6.3-3.8.8a20.25 20.25 0 0 0 1.4-3.3 35.407 35.407 0 0 0 .6-17.1c-2.6-11.7-14.5-13.9-22.8-5.9s-12.2 23.8-4.3 32.4l-5.8 1.7c-2.3.8-9.1 4.1-11.1 1.6-2-2.5 2.6-13.1 4-15.8a74.8 74.8 0 0 1 4.8-7.6c.8-1.1 1.5-1.9 1.5-3.3a.51.51 0 0 0-.096-.24.508.508 0 0 0-.204-.16c-4-.8-7.8 6.4-9.6 9.2-2.9 4.8-5.9 10.8-5.9 16.6.2 11.5 13.1 7.4 19.9 5.5 17.3-4.8 35-8.4 52.7-11.7 8.1-1.5 16.6-3.8 24.9-3.7l3.4.2a74.186 74.186 0 0 0-7.1 16c-1.1 3.4-2 6.9-2.8 10.2l-7.8 1.9-25 5.8c-17.2 4-34.5 8-51.9 11.1-12.5 2.3-24.7 5.7-37.1 8.1-.1-3.5-1.6-7.3-2.9-10.1 0-.2-.1-.3-.2-.5a38.803 38.803 0 0 0-10-13.1c-6.6-5.5-15.4-8.2-23.4-5.6l1.1-3.7Zm101.8-31.7c-1.5-.6-3.3-.1-4.8-.6s-.9-2.7.5-3.6c1.4-.9 3.6-.7 5.7-.6 2.1.1 1.8.1 2.2-.8a1.293 1.293 0 0 0 .013-1.083 1.286 1.286 0 0 0-.329-.447 1.293 1.293 0 0 0-.484-.27c-4.2-.9-8.9-.2-11.5 3.4a6.817 6.817 0 0 0-1.2 2.4c-.6 2.2 0 4.3 2.7 5.1 2.7.8 9.1.3 8.4 5.6-.4 2.6-4.1 5.1-6.7 3.7-.7-.4-1.2-1.1-1.9-1.5a2.3 2.3 0 0 0-3.3 2.7 5.2 5.2 0 0 0 3.5 3.7l-3.4.8c-3.6-5.2-3.9-13.6-1.4-20.6 2.5-7 7.2-12 14.1-12.1 6.9-.1 8.4 8.2 8.4 13.7-.014 3-.383 5.987-1.1 8.9-.4 1.4-2.1 4-1.9 5.7l-6.9 1.7c2.7-1.8 4.9-4.4 5.4-6.9s-2.3-7.6-6-8.9ZM62.8 614a19.788 19.788 0 0 1-5.4-1 9.593 9.593 0 0 1-5.9-5.1 45.57 45.57 0 0 1-2.1-7.2l-.3-1.7a38.798 38.798 0 0 1 .6-14c8.5-2.1 16.6 0 23.4 6.4a34.89 34.89 0 0 1 7.6 10.6h.1c1.5 3.3 1.7 6.6 2.4 10l-7.7 1.1a67.19 67.19 0 0 1-12.7.9Zm15.5 14.6-.5-.5a20.504 20.504 0 0 1-4.5-6.1 13.787 13.787 0 0 1-.8-2.7c4.762-.237 9.505-.771 14.2-1.6l2.8-.5 5.5-1 6.1-1.3 12-2.8 6.1-1.4 18.7-3.8 12.5-2.5c6.2-1.2 12.5-2.5 18.7-3.9l31.2-7.2 2.1-.5 6.5-1.6 7.8-2 3.9-.7a26.006 26.006 0 0 1 4-.3h3c1.709.207 3.368.715 4.9 1.5l.5.3h.1c1.8 1.3 3.1 3.4 5.7 2.4s3.1-2.5 2.9-4.2c.1.5 3.1 1.1 3.5 1.1a2.999 2.999 0 0 0 2.7-1.4c.43-.794.572-1.713.4-2.6a8.599 8.599 0 0 0-1.3-3.8c-.4-.7-1.4-1.9-1.1-2.8.3-.9.6-.4 1.3.2l3.8 3.5c1.4 1.2 3.5 2.2 5.2.8 1.7-1.4 1.2-3.9.8-5.3-.9-4-4.6-6.8-7.4-9.4 4.3.5 9.5 1.1 12.2-1.2a3.899 3.899 0 0 0 1.4-2.3c8.7 0 17.2-1.7 25.8-3.1 8.6-1.4 19.1-2.8 28.6-4.2 19.6-2.666 39.267-5.067 59-7.2 19.2-2.1 38.3-4.8 57.5-7.6 30.5-4.5 61.1-8.6 91.6-12.8 30.5-4.2 57.8-10 87-16 29.2-6 59-13 88.4-20.5 21.4-5.4 42.5-12.2 63.6-19.2 6.8-2.2 12-2.9 14-8.1 0-.1 0-.2-.1-.2.009-.342.077-.68.2-1 .538-2.127.839-4.307.9-6.5.1-2.8.3-5.5 1.6-7.6.108-.27.279-.51.5-.7 0-.1.1-.2.2-.3.1-.1.2-.3.4-.4h.2a7.798 7.798 0 0 1 3-1.6c.6-.3 1.1-.5 1.1-.3s.1.6.1.9a6.3 6.3 0 0 0 2.1 3.3l.6.5a9.084 9.084 0 0 0 3 1.3l.8.3 3.7.4h1a56.494 56.494 0 0 0 5.9-.4c2.8-.4 5.4-.9 7.2-1.3 8.9-1.7 17.5-4.5 26.2-6.6 12.3-3.1 41.5-7.5 42.5-24.2l2 2.4c2.6 2.8 2.8 5.2 2.4 8.9-.7 7.7-1.2 15.4-1.8 23.1-1.1 16.9-.7 33.9-1.6 50.9-.1 1.2-.2 2.4-.2 3.6-.7 11.7-2.3 23.2-13.9 29.3a59.494 59.494 0 0 1-19.5 5.6l-4.6.4a33.99 33.99 0 0 1-4.5.2c-2.3.1-4.5 0-6.7-.1-4.7-.3-10 .2-15.2.3h-5.8a36.925 36.925 0 0 1-7.4-1.2l-1.7-.5-.6-.3-1-.6-.4-.2-.8-.5-.8-.5-.8-.6-.9-.4a5.292 5.292 0 0 0-1.7-.8l-1.5-.3h-.7c-.34.081-.652.254-.9.5a4.199 4.199 0 0 0-1.1 2.2c-.2 1-.4 1.8-.5 2.5l-.3 1.1a2.804 2.804 0 0 1-.9 1.6 10.296 10.296 0 0 1-3.7 1.8l-1.1.3a44.27 44.27 0 0 1-5.2 1.4l-5.4 1-3.5.7c-7.8 1.4-15.4 3.5-23.1 5.4l-24.9 6.2-24.9 6.2-6.2 1.4c-10.4 2.4-20.8 4.5-31.2 6.4l-6.3 1.2-6.3 1.1c-7 1.267-14 2.667-21 4.2l-7 1.5-13.8 3.1-6.9 1.6-13.9 3.3-27.7 6.4c-7 1.6-14 3.1-21 4.4l-14.6 2.9c-29.067 5.4-58.333 10-87.8 13.8l-14.7 1.9-33.6 4c-11.3 1.3-22.5 2.5-33.7 3.9-16.7 1.9-33.5 2.4-50.4 3l-10.1.4c-6.8.2-13.5.5-20.2 1-10 .7-20 1.1-29.9 1.5l-20 .6-29.9.4h-7.2l-21.4.5-7.1.3-21.3.7c-9.3.3-18.7.2-28 0h-4.6a20.001 20.001 0 0 1-7.3-1.7l-3.4-2.1-2.6-1.5-.9-.5h4.6l4.7.2c5.3.4 11 1.1 16.3-.4a1.004 1.004 0 0 0 .6-1.1 1.392 1.392 0 0 0-.2-.6.807.807 0 0 0-.7-.2h-9.7l-9.6-.4h-6.8l-2.3.2c-1.8-1.6-3.8-3-5.2-4.3Zm661.3-59.4 11.9-2.9c7.5-1.9 14.9-3.7 22.5-5.2 5.6-1.1 11.2-2.2 16.5-4.4-1.5 7.8-1.3 16-3.2 23.7a142.982 142.982 0 0 1-7.3 23c-2.7 6-7 15.2-14.4 16.3-10.4 1.5-16.8-10.8-18.9-19.1-2.5-10.2-2.2-21.9-7.1-31.4Zm2 34.8a77.993 77.993 0 0 1-11.3-18.2c-1-2.3-3-8.6-5.8-12.9l11.7-2.8c2.1 9.8 2.4 22.8 5.4 33.9Zm50.8-14a115.964 115.964 0 0 0 3.4-14.4c1-7.2.6-15.1 3.1-22a41.181 41.181 0 0 0 11.7.9c-4.1 9.2-3.2 19.5-5.3 29.3-1.2 5.7-4.1 10.6-9.3 13.7-2.3 1.3-5 2.4-7.3 3.9 1.6-4.2 2.8-8.2 3.7-11.4Zm-112.5-7c.1 8.7 2.8 17 4.7 25.5 1.9 8.5 2.3 14.9 5.7 21.5 3.4 6.6 9.1 8.4 14.9 11.9 5.8 3.5 8.6 8.7 10.9 14.4-8.7-9-21.8-13-29.9-22.7-5.8-6.9-8-15.9-10.8-24.2-2.8-8.3-4.7-16.2-7.1-24.3 3.9-.6 7.7-1.3 11.6-2.1Zm-429.6 67.9c6.1 2.5 12.1 5.2 17.9 8.1a346.245 346.245 0 0 1 33.1 18.6c10.6 6.7 21.3 13.7 31.3 21.4 4 3.1 7.9 6 12.1 8.8l3.6 2.5c-2.5-1.3-5-2.4-6.5-3.3-6.4-4-12.6-8.3-19-12.2-12.4-7.7-25.7-13.9-39-19.7-13.3-5.8-27.9-11.7-41.9-17.4-7.5-3-14.8-6.3-22-9.8l-2.5-1.4 19.8-.4c4.2 1.8 8.9 3.1 13.1 4.8Zm-134.9-2.5c2.2 4.6 4 9.6 7 13.7 1.6 2.1 4.8 3.9 6 6.1 1.2 2.2-1.6 4.9-3.9 6.7-6.2-3.7-11.7-8.4-14-14.8-.1-.2-.1-.4-.3-.5-.5-3.8-1.1-7.6-1.7-11.4l6.9.2Zm-45.6 75.3c-1.7-6.3-1.2-13.3.1-19.6 1.3-6.3 5-14.3 8.9-20.9-.8 3.2-1.4 6.5-1.9 9.7-1.9 12.7-3.1 26.8 1.9 38.9.5 1.1.9 2.1 1.4 3.1-5.1-2.1-8.8-5.5-10.4-11.2Zm11.5-54.9c-3.1 5.6-6.9 10.7-10.2 16.1a59.298 59.298 0 0 0-8.4 23.4c-.1.5-.1 1-.2 1.5l-1.8.5c-2.906.704-5.949.6-8.8-.3a23.1 23.1 0 0 1-11.1-7.7c.9-14.4 14.8-24 24.8-33 5.1-4.6 10.2-9.1 14.4-14.6 2.8-3.6 6.4-9.1 5-14h.7l2.8 2.3c-.16.24-.262.514-.3.8a108.61 108.61 0 0 1-3.3 17 70.723 70.723 0 0 1-3.6 8Zm67.4 92.4a37.662 37.662 0 0 1-7.6 1.3 53.118 53.118 0 0 1-17.7-2.1 65.194 65.194 0 0 1-31.7-20.8c-9.7-11.9-10.4-26.4-9-41.3 1.7-18 9.7-35.1 8.9-53.2a22.286 22.286 0 0 0 8.4 2.5l3.3.3c-.4 5.7.4 11.5 1.1 17.1.9 7.5 1.7 14.9 2.5 22.4 1.4 13.6 3.2 27.5 9.3 39.9a82.795 82.795 0 0 0 21.7 26.8 62.964 62.964 0 0 0 10.8 7.1Zm25.5-50.5a27.795 27.795 0 0 1-8.6 4.3c-5.9 2-12.4 3.3-17.7 6.8a21.406 21.406 0 0 0-8.197 9.361A21.41 21.41 0 0 0 138.1 743.5a73.998 73.998 0 0 1-16.1-22.7c-5.4-11.9-6.9-25.2-8.5-38-.5-3.9-1-7.8-1.6-11.7 4.4 4.9 10.5 8.7 16 11.7 10.8 5.8 22.3 10.8 33.4 16.1l16.3 7.5a14.093 14.093 0 0 1-3.4 4.3Zm118.4 47.7c-8-3.5-15.8-7.4-23.8-11.1-16-7.4-31.8-15.2-46.9-24.6a396.332 396.332 0 0 0-38.5-20.6 2.404 2.404 0 0 0-1-.5c-13.9-6.6-28-12.7-42-18.9-3.8-1.8-8.3-3.7-12.6-6 3.2-2.8 6.3-5.9 2.9-9.9s-6.6-6.5-8.9-11.1c-1.2-2.5-2.3-4.9-3.7-7.3h13.1c19.7-.4 39.4-1.4 59.2-1.5l18.1-.2c4.4 2.6 8.4 5.8 12.9 8.1 6.5 3.4 13.1 6.6 19.8 9.4 13.1 5.6 26.1 11.1 39.1 16.8 13 5.7 24.9 10.3 36.7 16.9 5.8 3.3 11.4 7.1 17.1 10.6l9.1 5.6c1.4.8 5.4 2.5 6.4 3.6-3.9 3.5-7.9 6.9-11.1 11.1-3.2 4.2-5.4 9.5-8.2 14.4l-4.1 6.7c-10.4-7-22.1-12.2-32.8-18.9-10.7-6.7-23.7-15.8-35.9-23.1-12.2-7.3-24.5-13.5-38-17.4l-8.1-2.4c-12.4-3.6-24.7-7.5-37-11.6-16.6-5.7-28.8-16.5-42.6-26.9l-.6-.2a1.197 1.197 0 0 0-1.09 1.407c.039.221.14.427.29.593a117.378 117.378 0 0 0 34.8 24.5c13.5 6.1 28.5 9.9 42.7 14.1l2.7.9c13.8 4.1 26.9 8.7 39.5 16.1 12.6 7.4 23.9 15.7 35.8 23.6 11.9 7.9 25.7 14.8 38 23.1l-3.3 5.4a55.35 55.35 0 0 0-4.5 9.5c-7.4-4.1-15.7-6.9-23.5-10.2Zm35.5 19.5c-1.5-.7-3.5-1-4.7-1.6a35.932 35.932 0 0 1-3.8-2.1c2.1-4.3 3.8-8.8 6.3-12.9s6.3-9.5 9.2-14.5c5.3-9.2 7.1-21.1 16-27.7a2.703 2.703 0 0 0 2.3-.6l1.5.6c-7 6.7-11.3 16.7-14.8 25.3-4.4 10.5-7.9 21.4-11.7 32.1a2.4 2.4 0 0 0-.3 1.4Zm.6 4.9a3.098 3.098 0 0 0 1.6-1.2l.3-.5a7.589 7.589 0 0 0 2.3 1.5l-4.2.2Zm17.4-3.7-2.9.3a30.293 30.293 0 0 1-8.6-1.2c3.9-9.8 6.8-20 10.6-29.9a145.638 145.638 0 0 1 10.9-21.6c.774.294 1.579.495 2.4.6-.3 1.2-.7 2.4-1.1 3.6-.4 1.2-1 3.5 0 5.1a1.395 1.395 0 0 0 1.2.679 1.407 1.407 0 0 0 1.2-.679c1-1.4 1.1-3.3 1.6-4.9.224-.821.391-1.656.5-2.5a36.323 36.323 0 0 0 2.3 3.9c.9 1.2 2.8 3.2 4.5 2.2 1.7-1 .5-3.4-.3-4.7l-3-3.8a56.961 56.961 0 0 0 8.1-5c3.5-2.5 7.6-4.7 12-3.3a19.022 19.022 0 0 1 5.1 3c-3.6 4.4-6.9 8.7-10.9 12.8-4 4.1-9.5 8.9-13.3 14.3-1.9 2.6-2.5 5-3.7 7.9-1.2 2.9-5.4 5-8.3 8-2.9 3-6.4 9.8-8.3 15.2Zm27.7-22.4c-6 2-9.6 7.3-12.6 12.6-1.6 2.8-3 5.8-5.3 8a10.598 10.598 0 0 1-2.3 1.6 9.604 9.604 0 0 0-3.4-.3c3-5.8 5.1-11.9 10.7-15.7 5.6-3.8 5.1-9.1 8.6-13.9 3.5-4.8 9.4-10.4 14.4-15.3 3.2-3 7-6.5 9.4-10.5l1.9 1.7.4.2c-.2 2.1-2 4.6-2.8 5.9l-1.6 2.4a2.205 2.205 0 0 0-1.2 1.8l-5.3 6.9c-3.1 3.9-9.1 9.3-10.9 14.6Zm14.7-1.6a29.766 29.766 0 0 0-7.9 0l2.6-3.3c3.1-3.7 6.3-7.5 9.3-11.4l2.5-3.2c4.8-.5 9.3-3.2 14.3-3.1 2.9.1 4.8 2.9 6.5 5.9-9.2 4.9-18 10.4-27.3 15.1Zm6.3 5.5a4.803 4.803 0 0 0-1.6-3.6c8.4-3.9 16.2-9.4 24.3-13.8.373.799.808 1.568 1.3 2.3a93.195 93.195 0 0 1-14 9.5c-3.4 1.8-7 3.3-10 5.6Zm23.5-3.4a9.824 9.824 0 0 1-1.7.2c-1.4 0-2.7 1.7-1.7 3 .305.479.573.98.8 1.5-2.8-.4-5.5-.4-8 1.1s-3.2 3.6-3.6 6.3c-.4 2.7 0 4.3-2.9 5l-1.1.3c.8-2.7 1.3-5.7 0-7.8a4.8 4.8 0 0 0-2.9-2c3.2-2.8 7.3-4.4 10.9-6.7a73.993 73.993 0 0 0 7.2-5.3 22.779 22.779 0 0 0 1.8 2.5c.492.57.896 1.211 1.2 1.9Zm303 3.8-.2-.3c-1.6-3.2-2.9-6.3-5.1-9.2-2.2-2.9-7.8-5.8-9.8.3-2 6.1 4.4 12.9 3.9 19.6-4.8-3.4-5.6-11.2-11-14.6a1.293 1.293 0 0 0-1.083-.012 1.293 1.293 0 0 0-.717.812c-1.2 2.9-1.2 5.9-1.6 9a13.606 13.606 0 0 0-6.4-3.8 1.897 1.897 0 0 0-1.672.528A1.904 1.904 0 0 0 687.1 765a28.3 28.3 0 0 0 2.8 5.8c-14.1 2.6-28.7 1.2-43 1.1-8.4-.1-16.7.7-25.1 1.1-8.4.4-17.9.3-26.8.6-17.4.5-34.9 1.2-52.4 1.2s-35.1-.7-52.7-1.1c-9.1-.3-18.2-.5-27.3-1.3-5.1-.5-10.2-.4-14.4 2.1a2.3 2.3 0 0 0-1.6-.3 19.16 19.16 0 0 1-4 .9c-3.4.1-1.4-.4-2.9-1.7-1.5-1.3-2.1-2.4-3.3-3.3-1.2-.9-4.9-1.8-7.5-1.3.12-.929.187-1.864.2-2.8 0-.69-.274-1.351-.762-1.838a2.596 2.596 0 0 0-1.838-.762 22.484 22.484 0 0 1-6.3-.6 6.613 6.613 0 0 0-.6-2c1.9-.7 3.3-2 2.7-4.5a14.41 14.41 0 0 0-4.1-5.8l3.9-3.1a1.799 1.799 0 0 0 .8-2c-2.2-5.2-3.8-13.8-10-16-4-1.4-9.1 0-13.9 1.6 1.8-3.5 2.7-7.1.7-9.9a2.693 2.693 0 0 0-2.3-1.2c-5.4-4.3-10.4-9-18-7.9-7.6 1.1-13 9.4-20.2 9.5l1.1-1.9v-.2a2.592 2.592 0 0 0 .3-2.8c-2-4-6.3-6.9-9.8-9.4-3.5-2.5-9.7-6.5-14.3-10.2-10.2-8.1-20.1-16.4-30.9-23.7a264.732 264.732 0 0 0-34.3-19.7c-5.867-2.8-11.867-5.3-18-7.5 6.2 2.3 14.6-1.1 22.4-2 44.3-4.9 88.9-6 133.3-10.2a1269.325 1269.325 0 0 0 128-18.7c42.8-8.5 84.5-22.2 127.4-29.4 2.1 8.3 4.3 16.6 6.3 24.9 2 8.3 3.9 16.2 8.3 23.1a48.807 48.807 0 0 0 13.5 13.3c6.1 4.2 13.3 7.2 18.8 12.1 5.5 4.9 7.8 11.7 8.7 18.8 1 8.7 1 17.7 1.3 26.5.8 18.8.1 37.7 0 56.5Zm43.8 6.5a84.242 84.242 0 0 0-8.7.4v-.6c.052-.346-.019-.7-.2-1 .1-12.5-.7-24.9-.6-37.3.1-12.4 1-24.8.6-37.2-.4-9.9-2-24 5.9-31.6 6.3-6.1 14.7-8.7 19-16.9a1.402 1.402 0 0 0-1.559-1.924 1.4 1.4 0 0 0-.841.524c-5.3 8-15.6 10.2-21.5 17.6-5.9 7.4-5.4 19.8-5.3 29.1 0 12.5-1.2 25-1.2 37.5.1 14.1.8 28.2.9 42.4-4.7.5-9.4 1.2-14.2 1.3a8.196 8.196 0 0 0-.7-2.9c-.9-2.1-2.9-3.2-6.3-2.6l-2.8.3c.158-.418.258-.855.3-1.3-.1-19.6-.2-39.2-1.1-58.8-.5-11.3.4-25-3.5-36.4a1.71 1.71 0 0 0 .2-1.3 49.399 49.399 0 0 0-9.7-22.1c-3-3.8-7.1-5.6-11.2-7.7a30.49 30.49 0 0 1-6.8-4.4c-6.1-5.6-6-15.3-7.6-22.8-1.8-9.2-4.6-18-5.5-27.3l5.2-1.1c4-.8 7.9-1.6 11.8-2.6l21.7-5.1a30.598 30.598 0 0 1 2.6 5.1c1.8 4.2 3 8.5 5.1 12.6 4 7.7 8.9 16.2 15.9 21.9 2.9 5.6 7.2 10.1 13.8 12.4l-1.7.7a31.288 31.288 0 0 1-9.5-2.2 26.503 26.503 0 0 1-12.7-9.9c-3.6-5.3-8.7-15.4-16.6-13.6-10.4 2.5-10.5 15.5-6.6 23.2 5.4 10.4 18 15.1 29.2 14.2a53.106 53.106 0 0 0 17.4-4.8 73.437 73.437 0 0 0 10-5.5c7.9-5.2 14.3-11.9 18.3-21.1a1.388 1.388 0 0 0 1-.4c3.8-3.1 8.5-4.6 12.3-7.6a19.991 19.991 0 0 0 3.9-4.3 25.525 25.525 0 0 0 2.9-5.7c4-10.8 2.2-22.5 7.5-33.2.178-.41.213-.867.1-1.3l3.2-.2c12.8-1.1 25.6.2 38.3-2.3a116.958 116.958 0 0 0-2.2 11.8c-.8 5.2-2.8 9.7-4.9 14.5-3.4 8.4-5 17.2-6.3 26.1-1.3 8.9-2.2 16.3-5.1 23.9-3.7 9.6-10.9 16-20.2 20-9.3 4-18.5 5.2-27.8 7.8-7.2 2-15.6 4.4-20.4 10.6-8.5 10.7-1.7 26.3-1 38.4.7 12.1 1.2 24.7 2 37.1.6 8.4-.6 17.1 1.8 25.2a19.876 19.876 0 0 1-6.6.4Zm-16.4-138.3a39.992 39.992 0 0 1-11.4 1.4c-6.6-.2-13.6-2.9-17.5-8.4-2.7-3.7-7.4-14.6-.4-16.7 4.5-1.4 8.4 5.8 10.4 8.7 2 2.9 4.3 6.6 7.6 9a44.312 44.312 0 0 0 11.3 6Zm31.8 67.8c-.9 13.2-2 26.8-1 40.1.4 4.4 2.4 9 2 13.3-.4 4.3-7.2 10.3-6.9 14.1-1.1-7.2 0-14.7-.5-21.9-.6-10.4-1.4-20.8-1.9-31.2a197.337 197.337 0 0 0-2.6-23c-1.2-6.9-2-15 2.9-20.7 4.9-5.7 17.2-8.5 25.7-10.4 8.5-1.9 17.8-3.9 25.8-8.4 15-8.3 19.2-22.9 21.6-38.9 1.4-9.4 2.6-19 5.8-28 2-5.4 4.6-10.2 5.6-15.8 1-5.6 1.3-10.4 3-15.4l.9-.3a33.82 33.82 0 0 0 4.2-1.3l-.3.6a63.507 63.507 0 0 0-3.6 11.2c-1.8 8.2-2.5 16.7-3.6 25.2-2.5 18.6-6.7 38.1-16.3 54.5-8.4 14.3-24 21.8-39.1 27.4-6.4 2.4-12.4 4.1-16.5 10.1s-4.7 12.3-5.2 18.8ZM852.6 778c-4.7-2.5-11.9-3.1-13.3 3.6a1.4 1.4 0 0 0 .9 1.7c4.5 1.7 9.3 0 12.7-3.1a1.508 1.508 0 0 0 .337-1.166A1.506 1.506 0 0 0 852.6 778Zm-8.6 3.2-1.8-.2a9.213 9.213 0 0 1 1-2c2.8-2.6 9.1 2 .8 2.2Z"/><path fill="#464646" d="M832.1 359c-1.7-9.4-4.3-19.4-10.4-26.9a40.155 40.155 0 0 0-5.1-5c-1.4-1.2-2.4-3.3-4.3-3.6-3.9-.6-5.2 5.2-5.5 8-.3 5.2 1.5 10.2 2.5 15.1s-1.4 9.5-2.4 14.2c-1 4.7 1.3 8.6 2.7 13.8A211.302 211.302 0 0 1 816 415c.2 4.8-.7 19.7 5.7 21.6 3.6 1.1 6.7-3.7 8-6.3 2.9-6.1 3.3-13.2 3.5-19.8.2-6.6-.3-14.6-.1-21.8.2-10 .8-19.9-1-29.7Zm-3.7 42.7a132.34 132.34 0 0 1-.2 17.8c-.2 1.7-2.7 15.1-6 13.6s-2.6-9.1-2.8-11c-.2-1.9-.5-6.5-.7-9.8-1.4-16.3-4.2-32.9-9.6-48.4.7-5.1 3.9-10 3.6-15.2-.3-5.2-3.2-13.2-1-19.1 9.2 4.6 12.9 18.3 15 27.4 3.3 14.6 1.2 29.8 1.7 44.7ZM819.7 779.8l-2.5.2c-4.8-.5-11.5-.5-14 4.5a1.6 1.6 0 0 0 1 2.3c4.1 1.8 28.6 6.8 25.8-3.9-1-4-7.3-3.4-10.3-3.1Zm4.2 5.9a36.954 36.954 0 0 1-7.3.5c-1.3-.1-12.6 0-9-3 1.8-1.6 4.5-1.7 6.9-1.7h7a6.395 6.395 0 0 1 3.9.8c2.3 1.9.8 2.9-1.5 3.4ZM798.7 504.3c0 .4-.1.8-.1 1.2a6.226 6.226 0 0 0-.1 1.3c.017.837.084 1.671.2 2.5l.3 2.5c.115.39.182.793.2 1.2l.3 1.3c.129.49.196.994.2 1.5.3 2 .5 4.1.9 6.1l.3 1.6c.207.949.474 1.885.8 2.8.155.386.439.707.803.908.365.2.788.268 1.197.192a1.6 1.6 0 0 0 .8-.6.804.804 0 0 0 .2-.5l.3-1.2a4.88 4.88 0 0 0 .1-1.2 33.33 33.33 0 0 0-1.1-7.7c-.4-1.4-.7-3-1-4.5a61.673 61.673 0 0 0-1.9-7.4c-.4-1-2.2-1.3-2.4 0ZM795.1 491.9c.139.39.381.736.7 1l1.1.5h.8a1.803 1.803 0 0 0 1-.4c.213-.113.387-.287.5-.5a1.105 1.105 0 0 0 .3-.8v-.4c-.2-1.2-.3-2.4-.6-3.5s-.4-2.4-.7-3.5c-.3-1.1-1.2-4.6-1.7-6.9a8.255 8.255 0 0 1-.4-1.5 26.367 26.367 0 0 0-.7-3c-.2-1-.4-2-.7-3l-.6-1.4a16.599 16.599 0 0 0-1.3-2.7h-.1a.805.805 0 0 0-.7-.4h-.3c-1.2.3-1.6 1.5-1.6 2.9-.023.238.011.478.1.7a4.88 4.88 0 0 0 .1 1.2c.1.4.1.8.2 1.2l.4 1.8c.182.791.316 1.593.4 2.4.2.8.3 1.5.5 2.3.6 3.2 1.2 6.3 2 9.4.4 1.5.8 3.1 1.3 4.6ZM792.5 529.6c.11.976.276 1.944.5 2.9.018.309.086.613.2.9.04.259.144.503.301.712.156.209.362.377.599.488a1.594 1.594 0 0 0 1.8-.5.801.801 0 0 0 .2-.5c.106-.358.173-.727.2-1.1-.1-.4-.1-.8-.2-1.2l-.6-2.3c-.1-.8-.3-1.6-.5-2.5-.2-.9-.3-1.7-.4-2.5-.1-.8-.6-3.4-1-5s-2.3-.8-2.1.6l.6 5c.1 1.7.3 3.4.4 5ZM782 473.9c-.5 6.3 2.6 12.3 4.2 18.3a.604.604 0 0 1 .1.4c.17.558.303 1.125.4 1.7a48.99 48.99 0 0 1 .9 5.3c.2 1.8.5 3.6.8 5.3a2.21 2.21 0 0 0 .1.8c.017.539.084 1.074.2 1.6a3.9 3.9 0 0 0 1.9 3.1h.8a.806.806 0 0 0 .7-.3l.4-.6c.2-.2.2-.4.3-.6a3.696 3.696 0 0 0 0-2.4c0-.4-.2-.9-.2-1.4 0-.5-.7-3.5-1.1-5.2l-1.2-5.2-.3-1.3c-1.5-6.5-4.1-12.6-5.5-19.2 0-.2-.1-.4-.1-.7 0-.3-2.3-.8-2.4.4ZM681.6 550.5c8.5-2.5 17.5-3.2 26.1-5.4 3-.8 6.8-1.3 9.5-3l1.5-1.1.7.2c1.5 0 2.5-2 1.3-3s-2.2-.5-3.5 0a116.55 116.55 0 0 1-11.4 3.7c-8.3 2.3-17.3 2.8-25.2 6.3-1.3.6-.4 2.7 1 2.3ZM679.6 782c-2-.5-4.9-.3-6.3 1.3h-.1l-.2.3a5.798 5.798 0 0 0-1.7 2.5 1.506 1.506 0 0 0 .252 1.188 1.497 1.497 0 0 0 1.048.612h4.3a33.794 33.794 0 0 1 4.5.1c.398.124.828.088 1.2-.1a1.901 1.901 0 0 0 .9-2 5.305 5.305 0 0 0-3.9-3.9ZM658.2 542.3c7-2.3 15.2-2.4 21.8-6a1.3 1.3 0 0 0 0-2.2h-.1a1.103 1.103 0 0 0-1.2 0c-7 2.1-14.4 3.3-21.1 6.1-1.2.5-.8 2.6.6 2.1ZM652.6 786.8c-8.4-1.6-16.1-.6-19 8.6a1.803 1.803 0 0 0 .8 1.9c5.5 3.2 27.3 7.2 28.3-3 .5-5.2-6.2-6.8-10.1-7.5Zm6.7 7.3c-1.9 4.1-9.4 3.1-12.9 2.5-1.1-.3-9.1-1.3-9.2-1.9-.6-5 6.7-6.7 10.4-6.5 3.7.2 7.8 1.9 11.5 3.6 1.2.5.8 1.2.2 2.3ZM557.6 582.6a150.998 150.998 0 0 1 20.1-3.6c6-.9 12.4-1.4 17.9-4.4.7-.3.4-1.5-.4-1.5-6.1.5-12.2 2-18.3 3a147.353 147.353 0 0 0-20 3.9c-1.7.4-1 3 .7 2.6ZM486.5 259.6c7.1 3.7 15.4 2.8 23.1 2.7 10.7-.1 21.4-.7 32.2-1 4.89-.16 9.749-.831 14.5-2 4.8-1.2 20.8-5.6 15.1-13.5-.63-.83-1.37-1.57-2.2-2.2-4.3-3-11-3.4-15.7-3.6-15.2-.4-29.6 4.2-44.6 4.8-7.7.3-17-.6-23.7 4.1-2.9 2.1-3.6 4.6-2.6 6.8a8.603 8.603 0 0 0 3.9 3.9Zm.2-5.7c.8-2.7 9.9-4.4 12-4.6 3.9-.3 7.9-.3 11.8-.6 3.9-.3 9.2-1.6 13.7-2.7 8-1.9 16.8-2.3 25-2.5a42.133 42.133 0 0 1 10.6.8c1.672.406 3.311.941 4.9 1.6 1.7.7 3.1 1.7 3.2 2.8.3 2.9-8.5 5.3-10.3 5.9a58.199 58.199 0 0 1-13 2.9l-10.4.7c-6.3.4-12.6.6-19 .7-8.1.1-19.7 2-26.9-2.4-1.5-1-1.9-1.8-1.6-2.6ZM518.4 473.5c9-4 18.7-6.7 27.3-11.4a.91.91 0 0 0 .499-.496.925.925 0 0 0-.198-1.002.905.905 0 0 0-.649-.271.924.924 0 0 0-.352.069c-9.4 2.7-18.7 7.1-27.6 11.3-1.3.6-.2 2.4 1 1.8ZM486.6 576.6c8.6.9 17.7-.1 26.2-1.3s17.3-2.5 24.9-6.7c.8-.4.2-1.7-.7-1.5a220.327 220.327 0 0 1-25.4 5.3c-8.4 1-16.7 1.1-25 1.5a1.353 1.353 0 0 0-1.35 1.35 1.353 1.353 0 0 0 1.35 1.35ZM440.9 290l1 .6a8.992 8.992 0 0 0 4 .9h3.4c6.1-.5 12-1.5 18.1-1.7 8.5-.1 16.9.1 25.3-.2 4.3-.2 9.4-.1 13.1-2.7a9.398 9.398 0 0 0 2.7-2.9c1.1-1.8 1.5-3.9.4-5.6-1.1-1.7-3.3-2.3-5.6-2.5h-5.6c-7.9-.8-17-2-24.8-.4h-.3c-4.7.6-9.5 1.6-14.4 1-4.9-.6-11.3-1.3-15.9 2.2l-.6.4c-2.5 2.1-4.3 5.5-2.6 8.7a7.896 7.896 0 0 0 1.8 2.2Zm1.2-6.7a6 6 0 0 1 2.6-3c4.3-2.3 12-.2 16 0s10.6-1.1 15.9-1.9c8.6 1 17.2.2 25.9-.2h.6a3.206 3.206 0 0 1 1.7.3 2.599 2.599 0 0 1 .9 3.4 4.2 4.2 0 0 1-3 2.3c-3.3.9-7.6.6-11 .9-6.8.4-13.6.4-20.4.6a141.61 141.61 0 0 0-15.9 1.1c-3.5.6-16.1 3.8-13.3-3.5ZM451.6 508.3c7.9-6.9 19.3-8.8 28.6-13.1a.698.698 0 0 0-.106-1.085.698.698 0 0 0-.394-.115c-10.2 2.2-22 5.3-30.1 12.3-1.4 1.2.6 3.2 2 2ZM463.3 486.5c4.6-2.2 9.4-3.8 13.3-7.2.9-.8-.2-2.1-1.2-1.6-4.4 2.3-9.1 4.2-13.6 6.3-1.7.8-.2 3.4 1.5 2.5ZM460.2 596.7c-6.2.9-12.3 2.9-18.5 4-6.2 1.1-13.5 2-20.3 2.7-12.2 1.2-24.4 2.3-36.5 4-1.4.2-1.1 2.6.3 2.5 12.3-1.1 24.6-1.8 36.9-3l2.9-.3 3.5-.4c4.7-.5 9.6-1.1 14.5-1.9 4.9-.8 12.7-2.6 18.2-5.3 1.4-.6.3-2.5-1-2.3ZM308.1 543.3c23.6-8.8 47.1-17.5 70.2-27.6 11.4-5.1 22.8-9.8 34.5-14.3 10.1-3.9 20.9-7.7 29.5-14.4.5-.4-.2-1.1-.7-.9-21.2 9.1-42.8 17.3-63.7 27-23 10.5-46.7 19.5-70.2 28.8-.8.3-.5 1.7.4 1.4ZM330.1 348.1c-4.4 1.7-11.8 7-9.5 12.5l.6 1.2c4.3 6.3 15.5 4.5 21.7 3.7a213.504 213.504 0 0 1 33.9-1.1c11.2.4 22.2-1.4 33.2-3.4 6.4-1.1 13.9-2.9 16.9-9.4 1.7-3.7.1-7.2-3.7-8.7-11.8-4.7-24.9 2.8-36.8 3.2-7.5.2-14.8 2.6-22.5 2.6-11.7.1-22.3-5.2-33.8-.6Zm40.6 4.8c14.2-2.1 28.4-7.4 42.9-6.4 1.7.1 4.7 0 6.7.7a5.7 5.7 0 0 1 1.3.8c5 4.9-9.2 8.3-11.4 8.8a127.563 127.563 0 0 1-26.8 4c-9.7.4-19.3-.8-29-.2-7.4.4-14.7 2.2-22 1.9a16.675 16.675 0 0 1-4.9-.8c-3.3-1.2-3.3-3.5-1.7-5.4.417-.484.886-.92 1.4-1.3 3.8-2.8 8.8-3.7 13.4-3.7s10.2 1.5 15.3 2.1c4.935.435 9.905.267 14.8-.5ZM388 784c.9-4.4-1.9-9.5-6.8-9.4a4.794 4.794 0 0 0-3.782 1.809 4.797 4.797 0 0 0-.918 4.091c-2.4 0-4.7.3-5.3 3a5.39 5.39 0 0 0 .06 2.679 5.392 5.392 0 0 0 1.34 2.321 8.494 8.494 0 0 0 6.1 2.5c2.23.029 4.407-.674 6.2-2a8 8 0 0 0 3.1-5Zm-7.7 3.7a6.995 6.995 0 0 1-4.3-.2c-1.1-.4-2.9-2.5-1.9-3.8 1-1.3 2.3-.6 3.2-.6h.9l1.2.6a1.705 1.705 0 0 0 1.802-.463 1.699 1.699 0 0 0 .298-1.837 1.1 1.1 0 0 0-.8-.9c-1.2-.7-1.5-2 .2-2.5s3.4 1.2 3.9 2.7c1.1 3.4-1.2 6.3-4.5 7ZM336.6 603.5c9.304.099 18.582-1.01 27.6-3.3 1-.3.8-2-.3-1.9-9.2.4-18.1 2.3-27.3 2.1a1.599 1.599 0 0 0-.867 2.531c.218.281.523.481.867.569ZM272.1 218.9c27.1-6.2 54.3-4 81.8-5.2a1.1 1.1 0 1 0 0-2.2c-27.2-1.3-55.9-2.4-82.2 5.5a1.002 1.002 0 0 0-.209 1.666c.171.144.386.226.609.234ZM329.9 220.6c-12.9-1.2-26.7-.7-38.9 3.9-.9.4-.5 1.8.4 1.5 12.6-3.9 25.6-2.8 38.5-4.1a.708.708 0 0 0 .32-.257.705.705 0 0 0 0-.785.704.704 0 0 0-.32-.258ZM274.2 624.5c.1.2.3.2.6.2 9.7-2.2 19.7-1.6 29.6-2.5a61.167 61.167 0 0 0 7.3-1.1l2.4-.5a.687.687 0 0 0 .26-.202.689.689 0 0 0 .14-.298v-.3a.506.506 0 0 0-.18-.394.504.504 0 0 0-.42-.106l-7.4.4-5 .3c-3.3.1-6.7.3-10 .6l-4.9.5c-1.7.1-3.3.4-5 .6l-7.2 1.5a.896.896 0 0 0-.6.6c.02.213.088.418.2.6l.2.1ZM256.6 614.6c8.4.6 17.1.3 24.9-2.9a1.139 1.139 0 1 0-.6-2.2 86.502 86.502 0 0 1-24.3 2.4c-1.8-.1-1.7 2.6 0 2.7ZM222.6 415.8c4.3.5 8.2 1.2 9.5 5.8.5 1.4.9 2.7 2.6 1.6a5.398 5.398 0 0 0 1.8-3.3c.4-1.8.5-2.1 2-.7 1.5 1.4 3.6 3.9 6.3 4.5a1.21 1.21 0 0 0 .916-.089 1.197 1.197 0 0 0 .584-.711c.6-2.9.4-5.5-2-7.4-.4-.3-1.2 0-1 .6.564 1.605.835 3.299.8 5-3.3-1.4-5.2-4.9-8.3-6.7-.6-.4-1.6.1-1.5.8a20.606 20.606 0 0 1-.1 4.3 7.898 7.898 0 0 0-2.6-3.2c-2.7-1.6-6.1-1.6-9-1.6a.601.601 0 1 0 0 1.1ZM219.1 438.2c1.9 1.8 6.6-1.1 8.2-2.3 1.6-1.2.9-2.9-.7-2.8-1.6.1-2.1.2-3.2.3-1.1.1-2.3.1-3.4.3-1.1.2-2.1 2.3-1.5 3.6l.6.9ZM215.2 452.1c3.5.1 7-.1 10.3.9a1.109 1.109 0 0 0 .874-.095 1.103 1.103 0 0 0 .526-.705c.8-3.4-.9-7-4.5-7.7-3.6-.7-6.1 2.4-6.1 5.9h-1.1a.9.9 0 0 0 0 1.7Zm6.9-4.7c1.6.3 2.3 1.6 2.5 3.1a29.106 29.106 0 0 0-5.1-.3c.1-1.5.7-3 2.6-2.8ZM215.1 455.4a.606.606 0 0 0-.36.55.6.6 0 0 0 .36.55c2.8.4 6.3.9 9-.3a.291.291 0 0 0 .098-.108.294.294 0 0 0 0-.284.307.307 0 0 0-.098-.108c-2.7-1.2-6.2-.8-9-.3ZM137.2 633.8l2.7.2 8.2.3c2.7 0 5.5-.1 8.2-.3l11-.7 5.4-.5 8.2-.5c11.1-.6 22.6-1.1 33.6-3.2l7.6-1.7.3-.2c.18-.19.287-.438.3-.7a.8.8 0 0 0-.8-.7c-10.5 1.2-20.9 2.2-31.4 3l-10.5.6c-10.7.7-21.4 1.6-32.1 1.9l-5.3.2h-5.4a1.1 1.1 0 0 0-1.1 1.1 1.111 1.111 0 0 0 .3.8c.216.217.497.358.8.4ZM120.5 270.6c-2.5 8.9-1.7 18.8 3.4 26.8 6.1 9.7 17.6 13 28.2 9.1l1-.4a21.3 21.3 0 0 0 15.4 4.4 1.3 1.3 0 0 0 1.3-1.3c0-4.8-3.6-7.6-6.1-11.2 0-.1-.1-.1-.1-.2a10.793 10.793 0 0 0 1.8-4.8 10.306 10.306 0 0 0-2.1-7.8c3.1-2.2 6.3-4 9.3-6.3 5.7 4.1 14.6 3.6 21.2 3.5a75.975 75.975 0 0 0 10.8-1.1c5 5.5 13.7 7.2 20.8 7.7 7.248.512 14.53.176 21.7-1a13.102 13.102 0 0 0-1.6 5.3c-.3 2.9.3 9.3 4.4 9.5a1.606 1.606 0 0 0 1.184-.607 1.596 1.596 0 0 0 .316-1.293 17.346 17.346 0 0 0-1.4-3.1 15.227 15.227 0 0 1-.6-4.2c.1-1.9.7-4.7 2.3-6.1a9.993 9.993 0 0 0 1.8 4.7c1.5 2.2 4.8 4.9 7.3 2.7a1.31 1.31 0 0 0 .413-.95 1.3 1.3 0 0 0-.413-.95c-1.3-1.3-3.1-1.7-4.2-3.4a9.998 9.998 0 0 1-1.5-2.9c3.7 3.5 9.2 5.2 13.6 1.9a1.596 1.596 0 0 0-.8-2.9c-4.2-.3-9.9.7-8.5-5.4-4.2-.3-8.3 2.6-12.4 3-4.1.4-8.9 1.3-13.4 1.6-8.7.7-17.7.3-25.4-4.4a111.785 111.785 0 0 0 16.5-5.1l1.6-.6c7.3 6.2 32.8 4.5 39.6-1.2 3.9 3.5 11.8 6.9 15.9 2.9a1.697 1.697 0 0 0 .367-1.85 1.705 1.705 0 0 0-1.567-1.05c-2.3-.3-4.5.3-6.9-.2a15.193 15.193 0 0 1-4.6-1.8c4.9-1.1 10.6-1.8 13.2-6.4a1.198 1.198 0 0 0-.713-1.693 1.2 1.2 0 0 0-.687-.007c-2.2.6-4.2 1.5-6.3 2.3 2.1-2.2 4.5-5.3 4.5-8.5a1.198 1.198 0 0 0-1.383-1.191c-.23.035-.444.136-.617.291-2.8 2.6-6.2 9.8-10.4 10.3-1.8.1-2.4-2.3-3.9.6s-2.1 4.8-4.9 5.8c-2.8 1-7 1.5-10.4 1.8a45.486 45.486 0 0 1-16.9-1.6c15.5-5.8 32.3-12.4 40.9-27.1a2.104 2.104 0 0 0-.373-2.63 2.093 2.093 0 0 0-.827-.47c-7.6-2.1-15.2-1.3-22.8.1 5.6-4 10.6-9 8.2-13.2-2.4-4.2-6.5-3.6-10.8-3.1a12.867 12.867 0 0 0 1.7-1.6 1.907 1.907 0 0 0 .417-2.081 1.915 1.915 0 0 0-.417-.619c-2.7-3-6-3.4-9.4-3.2 3-1.4 6.1-2.7 8.7-4.8a1.8 1.8 0 0 0 .3-2.3c-3.7-4.9-9.1-4-14.4-3.5.3-1.8 2.6-2.4 3.7-3.7a3.897 3.897 0 0 0 .8-4.4 4 4 0 0 0-3.4-1.6c-1.272.109-2.52.413-3.7.9a77.936 77.936 0 0 0-13 6.3 64.589 64.589 0 0 0-11.7 8.7 60.49 60.49 0 0 0-6.1 6.3c-2.3 2.5-2.9 2.3-6.1 2.3-12.2-.1-23.9 5.6-34.5 11-1.3-5.9-5.5-10.8-10.1-14.6-4.6-3.8-8.6-7.2-13.2-7.2s-4.8 7.4-4.8 12.7c-5-4.6-10.7-9.4-17.2-10.8a2.1 2.1 0 0 0-2.6 2 28.603 28.603 0 0 0 2.9 14.6c-4.4-2.2-8.2-5.2-12.2-8s-8.5-6.3-13.3-6.7c-8-.6-6.1 9.5-4.8 14.3 4.7 18 18.7 36.7 38 39.7Zm46.6 37.3c-4.3.1-7.7-1.1-11.5-3.1a24.188 24.188 0 0 0 6.4-4.9c1.9 2.6 4.5 4.9 5.1 8Zm-8.7-68.7a120.115 120.115 0 0 1 22-9.1 65.223 65.223 0 0 1 9.7-2.3c2-.2 4 .8 6 .4s3.1-3.9 4.6-5.7a71.813 71.813 0 0 1 7.7-7.9 68.97 68.97 0 0 1 8.9-6.4 64.987 64.987 0 0 1 9.9-4.9c1.3-.5 3.2-.8 3.9.4a1.997 1.997 0 0 1-.6 2.5c-1.3 1.2-3 1.6-4.3 2.7-1.3 1.1-3.3 2.7-5.1 4a1.9 1.9 0 0 0-.938 1.896 1.896 1.896 0 0 0 .727 1.263 1.899 1.899 0 0 0 2.111.141c4.3-2 14-6.5 18.7-3.2-4.3 2.9-9.7 4.1-13.9 7.2a1.9 1.9 0 0 0 .9 3.5h1.5c4-.1 8.7-1.5 12 .4a42.445 42.445 0 0 1-7.8 5.2 123.29 123.29 0 0 0-18.3 7.9 16.2 16.2 0 0 0 1.9-9.7c-.1-1-1.5-1.3-2.3-.9-5.8 3.2-11.8 6.7-16.9 11.1.08-.563.114-1.132.1-1.7a1.504 1.504 0 0 0-1.272-1.57 1.501 1.501 0 0 0-.728.07c-9 3.2-13.7 10.5-18.8 18.1-.9 1.4 1.3 2.7 2.3 1.3 4.3-6 8.3-12.1 15-15.4-.7 2.7-2.7 5.3-4.3 7.5-1.6 2.2 1.5 3.2 2.7 1.6 5.1-7.3 13-12.7 20.9-16.9-.9 3.7-3.4 7-4.8 10.4a2.205 2.205 0 0 0 .545 2.077 2.201 2.201 0 0 0 2.055.623c7-2.6 13.5-6.3 20.5-8.9a52.703 52.703 0 0 1 10.1-2.9c1-.2 8-1.1 8.5.1.5 1.2-6.4 6.7-7.7 7.7a98.874 98.874 0 0 1-9.6 6.3c-2.3 1.3-.7 4.5 1.7 4.1 9-1.8 18.2-4.7 27.4-4l2.9.4c-9.4 13.3-27.1 18.5-41.6 23.9l-7 2.6c-7 2.4-13.9 4.3-21.5 4.6-6 .3-13.7 2.4-19-1.3-2.4-1.7-3.2-4.8-6.1-2.3-2.9 2.5-4.3 5.8-8.5 7.3-2.6 1-4.1 2.2-2.7 4.6.5.8 1.2 1.4 1.8 2.2a3.798 3.798 0 0 1 1 2.2 8.767 8.767 0 0 1 0 2.3 10.202 10.202 0 0 1-3.6 6.1c-4.9 4.5-13.3 7.4-19.8 5.8-16.1-3.8-19.5-23.7-13.4-36.9s20-21.9 32.5-28.5Zm-73-18.2c1.7-1.9 6.2.8 8.7 2.4 7.5 4.6 13.9 10.7 22.4 13.6 1.7.5 3-1.5 2.2-3-2.3-4.6-4.5-9.5-4.7-14.7 6.1 2.2 11.3 7.5 15.9 11.7a1.993 1.993 0 0 0 1.903.479 2.004 2.004 0 0 0 1.397-1.379c.652-2.238.856-4.583.6-6.9 0-1.2-.9-5.5.3-6.5s9.6 5.2 10.8 6.2c4.1 3.5 8.1 8.1 8.7 13.7v.2l-1.8.9c-10.5 5.9-20.8 13.3-27.2 23.6a33.198 33.198 0 0 0-3.4 6.8c-16.2-5.1-28.3-17.2-34-33.5-1.2-3.4-2.4-7.1-2.5-10.6a4.1 4.1 0 0 1 .7-3ZM203.1 419.4c2.2-1.5 5.1-1.7 7.3-3.3a1 1 0 0 0-.8-1.8 18.807 18.807 0 0 0-7.7 3.6c-.9.7.2 2.2 1.2 1.5ZM206.3 413.6a8.105 8.105 0 0 1 3-2.1.31.31 0 0 0 .081-.127.3.3 0 0 0-.181-.373 8.705 8.705 0 0 0-3.7 1.9c-.5.4.3 1.3.8.7ZM183.2 427.7c2.6-.173 5.205.272 7.6 1.3 2.9 1.2 3.8 3.1 4.9 5.8a.9.9 0 0 0 1.7 0c2.3-7.6-9.1-9.7-14.2-9.3-1.3.2-1.3 2.2 0 2.2ZM190 435.2a18.573 18.573 0 0 0-3.3-1.2.619.619 0 0 0-.3 1.2c1.042.33 2.047.765 3 1.3a7.682 7.682 0 0 0 2.4 1.2.498.498 0 0 0 .5-.7 3.8 3.8 0 0 0-2.3-1.8ZM180.8 454a10.107 10.107 0 0 0-1.6-8.4c-1.5-2.1-4.2-4.4-6.9-3.9a.896.896 0 0 0-.7 1.183c.057.165.161.31.3.417 1.6 1.3 3.5 1.7 4.9 3.3a10.115 10.115 0 0 1 1.6 2.6 8.405 8.405 0 0 0-4.5-1.9c-.8-.1-.8 1-.2 1.2a8.293 8.293 0 0 1 5 5.5 1.098 1.098 0 0 0 1.702.558c.189-.139.328-.334.398-.558ZM164.4 437.4c-4.1-4.2-3-10-3.1-15.5 0-.9-1.4-.9-1.5 0-.1 2.8-1.2 8.8-.1 12.8.6 2.1 1.8 3.7 4.2 4a.694.694 0 0 0 .436-.13c.127-.09.22-.22.264-.37a.808.808 0 0 0-.2-.8Z"/><path fill="#464646" d="M152.2 298.9c2.9-1.1 4.8-5.4 1.7-7.4-3.1-2-7 2.6-5.6 5.6a3.102 3.102 0 0 0 3.9 1.8Zm1.1-3.3a1.608 1.608 0 0 1-1.126.871 1.608 1.608 0 0 1-1.374-.371 2.092 2.092 0 0 1-.4-.6c-.8-1.9 4.1-2.7 2.9.1ZM110.6 627.4h2.8c3.8.2 7.7.4 11.5.4h2.9a50.75 50.75 0 0 0 5.6-.5c.2 0 .3-.1.3-.2a.5.5 0 0 0 0-.8c0-.1-.1-.2-.3-.2l-2.8-.3-5.7-.3c-4.8 0-9.7.4-14.3.4a.7.7 0 0 0-.7.5.401.401 0 0 0-.1.3.797.797 0 0 0 .8.7ZM39.2 442.8c18.7-3.6 37.6 3.9 56-1.9 10.5-3.2 27.1-9.4 26.9-22.4a23.226 23.226 0 0 0-.2-2.4 2.197 2.197 0 0 0-2.1-1.5 94.894 94.894 0 0 0-11.9.2 1.699 1.699 0 0 0-1.5 1c-16.4.2-30.9-10.5-47.5-9.9-16.6.6-33.5 10.1-41.2 23.7-2.6 4.5-3.1 10.2 1.5 13l1.2.6c5.7 2.4 13 .7 18.8-.4ZM24 427.2c10.3-13 27.4-20.8 43.8-17.8 14.2 2.5 26.4 10 40.8 9 3.1.3 6.1.2 9.2.3-.5 10.3-15.1 14.9-23.4 17.4-16.6 5-32.9-1.1-49.6.8-5.3.6-10.4 2.2-15.7 2.6-2.2.1-6.2.6-8.1-1-1.9-1.6 1-8.8 3-11.3Z"/></svg>