<svg xmlns="http://www.w3.org/2000/svg" fill="none" viewBox="0 0 1000 1000"><path fill="#FC5B61" d="M128.6 365.1c1.9 4.7 7.5 3.7 11.2 1.8 3.7-1.9 9.1-6.9 6.7-11.2a5.607 5.607 0 0 0-.5-.8c-3.9-5.1-13.7-1.5-16.9 4.1a6.596 6.596 0 0 0-.5 6.1ZM102.9 383.4a6.405 6.405 0 0 0 1.1-4.2 4.815 4.815 0 0 0-1.8-3.3c-1.3-.8-2.3.1-3.3 1h-.3l1.8 5.6c.1.4.3.7.4 1.1.088.381.223.751.4 1.1l.3-.2a4.396 4.396 0 0 0 1.4-1.1Z"/><path fill="#DBDBDB" d="M925.8 685.3c-1.8 1-2.7 3.4-2.8 5.3-.5 4.3 2.2 8.8 7 7.6 4.8-1.2 5.1-4.6 3.7-8.1-1.4-3.5-4.9-6.5-7.9-4.8ZM868 648.5c-4.1 1.7-4.5 8-2.7 11.4 2.5 5 8.2 2.4 10.9-1.3 2.7-3.7-3-12.2-8.2-10.1ZM810.2 646.5c-4.4-.3-6.5 4.5-6.4 8.5.077.328.111.664.1 1 1.2 8 14 5.8 14.1-2.1 0-4.3-3.8-7.2-7.8-7.4ZM782.6 681.8a7.394 7.394 0 0 0-4.384 1.649 7.392 7.392 0 0 0-2.516 3.951 9.594 9.594 0 0 0 5 8.1c5 2.7 11.7-2.9 11.1-8.4-.6-5.5-5.7-5.6-9.2-5.3ZM763.5 646.3a7.604 7.604 0 0 0-4.5 2.9 4.294 4.294 0 0 0-.6 2 1.494 1.494 0 0 0-.1.7c0 .3.1.6.1.9.181.871.484 1.713.9 2.5a6.492 6.492 0 0 0 1.8 2.2l.8.5 1.8.8 1.4.2a7.9 7.9 0 0 0 8.2-6.4 5.01 5.01 0 0 0-.283-2.866 5.008 5.008 0 0 0-1.817-2.234l-.7-.5-1.4-.5a13.526 13.526 0 0 0-2.9-.5c-.908.001-1.814.101-2.7.3ZM737.9 681.2c-6.9-1.5-9.4 7.4-5.2 11.6 4.2 4.2 12.4 2.5 12.9-3.8.3-4.1-4.3-7-7.7-7.8ZM703.1 682.5c-3.6.2-5.1 2-6.5 4.4a8.898 8.898 0 0 0 5.9 10.4c5.4 1.9 10.8-3.9 9.6-9.3-1.2-5.4-5.3-5.7-9-5.5ZM664.7 589.2c-3.8-3.1-10-1.8-10.6 3.6-.6 5.4 5.8 12.4 11.3 7.5 3.6-3.3 2.8-8.1-.7-11.1ZM639 544.8l-1.2-1.2a.803.803 0 0 0-.4-.4l-.9-1.1c-2.4 2.2-4.5 6-4.5 9.4a7.61 7.61 0 0 0 .1 1.5l.3.9c.192.475.463.914.8 1.3l.4.5c.595.535 1.27.973 2 1.3a8.89 8.89 0 0 0 4 .7h.9l1.4-.4a4.81 4.81 0 0 0 1.9-1.3c.441-.427.723-.991.8-1.6a2.414 2.414 0 0 0 0-1.2c-.4-2.5-2.8-5.4-5-7.7l-.6-.7ZM631.9 629.6c-2.2 2.5-1.4 11.1 3.3 9.8 10.1-2.6 2.4-16.3-3.3-9.8ZM602.3 665.6c-6.9-1.3-8.9 8.4-5.8 12.8 1.9 2.8 5.6 4.5 8.4 1.8 2.8-2.7 3.8-13.4-2.6-14.6Z"/><path fill="#FC5B61" d="M745.299 625.9c14.7 8.7 32.701 10.1 49.101 5.9 16.4-4.2 34.399-13.4 39.899-29.8 4.1-12 1.601-25.5-3.799-36.6-5.4-11.1-13.7-18.1-24.1-25a60.003 60.003 0 0 0-18.601-7.9 58.21 58.21 0 0 0-16.099-1.4c-14.7.7-25.2 2-36.7 11.9a57.698 57.698 0 0 0-18.9 32.7c-4.1 22.2 11.199 39.5 29.199 50.2ZM729.5 578.5a45 45 0 0 1 56.299-33.8c22 6.5 37.901 32 25.901 53.9-4.3 7.9-15.701 14.6-23.901 8.1a16.693 16.693 0 0 1-5.099-7.4 17.602 17.602 0 0 1-6 6.4c-7.1 4.7-13.1-.8-13.5-8.5-.4-7.7 4.2-15.5 10-19.4 2.5-1.7 5.5-2.7 8.4-1.6 2.9 1.1 1.6 1.1 3.6.2a1.603 1.603 0 0 1 2 .1c.7.6.6 1.7.5 2.5-.9 6.4-3.2 25.1 8.3 24.2 11.5-.9 14.6-14.8 13.9-24.1-1.7-21.9-25.5-34.4-45.7-29.8-20.2 4.6-34.8 26.7-28.8 47 6 20.3 26.4 26.7 44.7 25.4 18.3-1.3 36.5-10.3 46.1-25.8 1.3-2.2 4.6-.2 3.4 2-11.2 22.5-40.5 32.3-64.1 28.5-23.6-3.8-41-23.8-36-47.9Z"/><path fill="#FC5B61" d="M768.4 596.9c.1 2 .7 5.6 3.4 5.4 2.7-.2 4.2-2.6 5.4-4.2 2.5-3.3 3.1-7.3 3.5-11.3.112-1.919.38-3.825.8-5.7-6-2.8-13.3 9.6-13.1 15.8ZM385.2 704.5a27.359 27.359 0 0 0 2.3-4 34.99 34.99 0 0 0 2.2-5.3c.3-.9.5-1.7.8-2.5l1.1-4.1c.3-1.3.7-2.7 1.1-4 .4-1.3.9-3.6 1.4-5.4.5-1.8.3-1.1.4-1.6-2 3.8-3.2 7.9-4.9 11.8-1.7 3.9-4 8.4-7.6 11.3-3.6 2.9-7.901 2.9-11.201 1.6a36.992 36.992 0 0 0-6.399-2.3h-3.7l-1.6.3a3.502 3.502 0 0 0-1.2.7 2.99 2.99 0 0 0-.9 1.8c-.1 2.2 4.499 2.7 6.299 3.1 1.8.4 5.501 1.4 8.601 1.9l2.6.3h4.6l1.9-.5.799-.3a12.116 12.116 0 0 0 3.401-2.8ZM262.3 620.2l1.1 1.8a113.793 113.793 0 0 0 8.9 12.1l2.2 2.6 4.5 5c1.5 1.7 3.1 3.4 4.7 5 .749.849 1.55 1.651 2.4 2.4a100.305 100.305 0 0 0 7.6 6.9l5.4 4a74.092 74.092 0 0 0 14.1 7c6.3 2.4 12.8 4.5 19 7.1a132.363 132.363 0 0 1 12.6 4.1l.7.2 1.9.6c3.6 1.2 7.3 2.3 11 3.3l4.8 1.4 6 1.9 4.9 1.7h.2l.8.5c0 .1.1.1.2.1l2.8-4.6.3-.5.2-.4.2-.3v-.2l.2-.4h.1c1.6-4.1 2.9-8.2 4.4-12.3.5-1.2.9-2.5 1.3-3.7-12.2 2-22.9-2.5-34.8-2.9a77.998 77.998 0 0 1-34.7-9.5 79.67 79.67 0 0 1-17.6-12.9c-2.7-2.7-12.6-11.5-11.1-15.7a6.999 6.999 0 0 1 3.6-3.4c7.4-4.5 16.1-7.2 19.2-14.6.1-1 .2-2.1.2-3.2a38.875 38.875 0 0 1-2.6 3.1 25.503 25.503 0 0 1-3 2.6c-1.6 1.8-4.5 2.8-6.9 3.6l-2 .6h-.2l-4.8 1.4c-4 1.1-8 1.9-11.9 2.7l-2.9.6-6.5 1.3-6.5 1ZM338.6 515.1c-8.1-5.5-16.9-9.4-26-12.8-6.9-2.6-10.9-6.5-16.6-10.8-17.8-13.1-32.4-30.7-51-42.1-1.2-.8-2.9-1.6-4.1-.7a2.19 2.19 0 0 0-.5.8l1.3 1.4c1 .9 1.9 1.9 2.9 2.9l1.4 1.5 6.2 5.9 2.8 2.5.4.4a79.189 79.189 0 0 0 9.4 7.3 149.47 149.47 0 0 1 12.7 9.9l6.1 5.3 3.1 2.6 3.1 2.5c1.2 1.2 2.5 2.3 3.8 3.4l4.2 3.2 2.1 1.6c2.2 1.5 4.3 3.1 6.3 4.6l4.2 3.3c6.8 5.2 13.7 10.1 20.7 14.9.518.295.99.666 1.4 1.1l3 2.3a32.98 32.98 0 0 0 3.3 2.3 6.097 6.097 0 0 0 3.3 1.2c2.3-.2 2.9-3.9 3.7-6.9l-.4-1a18.708 18.708 0 0 0-6.8-6.6ZM268.8 575.2c6.8 2.5 12.6 6.1 19.4 8.5 8.5 3.1 11.4 12.3 2.3 16.3-9.1 4-21.8 4.3-32 5.4-12 1.2-20.1 3.3-30.9 8.7-1.9.9-4.1 2.4-3.9 4.5a3.697 3.697 0 0 0 2.8 3c1.362.409 2.778.611 4.2.6v-.4l.3-.6.5-.4a29.472 29.472 0 0 1 8.3-2.5l6-.7h.4l3.3-.4 10-1.6 9.9-1.9 9.6-2.1 9.5-2.3 2.4-.6 4.7-1.5 2.3-1c1-.4 1.9-1 2.8-1.4a41.264 41.264 0 0 0 2.9-3 26.128 26.128 0 0 0 3.3-4.5l.7-1.3a34.9 34.9 0 0 0 2.8-7.1l.6-2.3.3-1.9c.2-1.3.4-2.6.5-4l-5.7-1.1-2.9-.5-2.9-.5-3.9-.7c-5.1-1-10.1-2.5-15.2-3.9l-6.1-1.6c-6.1-1.7-12.2-3.5-18.2-5.5-2.4-.6-4.9-1.3-7.3-2.1-4.9-1.5-9.7-3.2-14.6-4.8l-3.1-1.1-6.5 2.6c2.145.101 4.283.335 6.4.7 12.7 2.8 24.8 8.4 37 13ZM290.6 688.5l-2.5.2c-2.5-.1-5-.5-7.4-.7h-.2l-7.6-.8-3.8-.4-7.4 2c-7.7 1.9-15-.1-22.6.5a229.166 229.166 0 0 0-23.2 2.8 7.098 7.098 0 0 0-4.2 1.9h.1c.126.352.294.688.5 1h6.2l3.7-.2h2.3l5.6-.2h16.7l20.4-.3 6.8-.2h1.6c3.9 0 8.4.2 11.9-1.2a5.296 5.296 0 0 0 2-1.3 4.704 4.704 0 0 0 1.1-3.1ZM265 659.2c2.8 7 6.5 14.6 5.1 22.3l.7.4 10.5.9 3.5.2h3.5c-.9-1.3-1.8-2.7-2.6-4.1-2.6-4.2-5-8.4-7.5-12.7l-6.1-10.9c-6.3-11.2-13.9-22.2-19-34H252l-4.2.4h-.5l-1.7.3H244l-1.2.2h-.9l-1.1.2h-.4l-.7.2-4.7.8c5.4 3.6 14.1 11.5 15.4 12.8a67.206 67.206 0 0 1 14.6 23ZM240.2 554.6l7.3 2.4c7 2.2 13.9 4.4 20.9 6.4l5 1.5 4.8 1.4 4.8 1.6 2.4.8c2.4.7 4.8 1.4 7.2 1.9a99.86 99.86 0 0 1 10.1 2.6l2.6.8a94.269 94.269 0 0 0 13.5 3.2l4.5.2a5.806 5.806 0 0 0 2.6-.6 4.809 4.809 0 0 0 2-1.5c.42-.422.789-.892 1.1-1.4l-1.5-.8a18.294 18.294 0 0 0-4.7-.3c-12.1.6-24.9-4.4-36.6-7.4-11.7-3-25.4-6.7-38-10.3-3.2-1.3-6.6-2.2-9.6-3.8-3-1.6-9.5-3.9-14.1-5.9-9.2-4-18.1-8.7-27-13.3-18.4-9.5-36.9-17.3-57.6-19.3h-.7l.8.9 1.8 1.5 1.7 1.4 2.3 1.4 1.6.7 3.1 1.3a40.568 40.568 0 0 1 6 2.7l1.4.9c3.3 1.1 6.6 2.4 9.9 3.7l3.3 1.4c6.6 2.7 13.1 5.6 19.7 8.4l6.5 2.8 4.5 1.9 2.9 1.1c2.2.8 4.4 1.7 6.6 2.4 4.8 1.7 9.6 3.2 14.5 4.7l14.4 4.6ZM176.4 432.1c.18.19.286.438.3.7.023.25-.048.5-.2.7l-.2.3-.6.3h-.4l-1.3-.4-1.2-.6-.2.3a10.884 10.884 0 0 0-1.3 1.7 17.392 17.392 0 0 0-1.6 2.7l4.4-.5 3.2-.5 1.1-.3.8-.2a5.005 5.005 0 0 0 .4-3.2c-.5-3.7-4.3-7.5-6.6-9.6l-15.4-13.9-2.1-1.6-1 1.1-2.3 2.2h.1c1.9 1.9 3.8 3.7 5.8 5.4 2 1.7 3.1 2.7 4.7 4l4.5 3.7 3.1 2.5 6 5.2ZM110 402.2l-1.1-.8a1.4 1.4 0 0 0-1.4.2v.3l.8 1.5a26.196 26.196 0 0 0 7.2 8.7l.9.7a23.394 23.394 0 0 0 7.1 3l2.7.5h4.6l2.7-.4h.6a29.08 29.08 0 0 0 3.9-1.2l3.1-1.4 3.2-2 1.9-1.4 1.9-1.7 1.8-1.9c-4.1.3-7.7 3.6-12.5 5.7-11.4 4.8-19.9-2.3-27.4-9.8ZM103.9 320h-.2a47.396 47.396 0 0 0-20.4 16.6c-1.4 2-2.7 4.1-4.9 5a16.074 16.074 0 0 1-4.4.5c-6.8.4-10.6 5.1-13.8 10.5-.204.278-.372.58-.5.9l-.9 1.5-.2.3-1.2 2.1-1.3 2.4-.3.6-.6 1.3-.5.9v.4c-.8 1.7-1.8 3.5-2.4 5.2-.6 1.7-.1.5-.2.7-.4 1.8.2 3.7.5 5.5v.3c.8 4.6 1.5 9.9 4.1 13.8 5 7.5 6.7-4.1 7.1-7.7.4-3.6 1.1-9.3 2.1-13.9s2.5-11 5.5-15.6a10.8 10.8 0 0 1 4.7-4.3c.9-.4 6.9-.8 6.9 0 2.2-7.5 7.7-14.3 12.9-20a53.481 53.481 0 0 1 8-7Z"/><path fill="#464646" d="M965.4 505.2a13.29 13.29 0 0 0-2.1 4.7c-.4 1.6-.6 3.8.6 5a1.8 1.8 0 0 0 2.3.3c1.3-.7 1.6-2.4 1.9-3.7.179-1.4.514-2.775 1-4.1a2.198 2.198 0 0 0-.959-2.599 2.195 2.195 0 0 0-2.741.399ZM965.7 528.7c-2.2 3.5-2.8 7.5-3.2 11.5-.4 4-1.4 7.8.8 10.7 2.2 2.9 3.4.6 4.3-.6.9-1.2.5-6.3.3-9a34.978 34.978 0 0 1 1-11.2 1.799 1.799 0 0 0-2.221-2.044 1.796 1.796 0 0 0-.979.644ZM960.5 567.6c-.4 8.1-.8 16-1.9 24-.5 3.7 5.7 4.5 6.5.9 1.7-8.2.1-16.7-.4-24.9a2.1 2.1 0 1 0-4.2 0ZM957.6 606c-1.9 3.2-2.6 7.1-3.1 10.7-.5 3.6-1.3 7.5-.5 11s4.3 2.2 5.2 0c.9-2.2.6-6.5.7-9.5.196-3.62.597-7.225 1.2-10.8.2-2-2.3-3.5-3.5-1.4ZM953.4 644.9c-.3 5.2-1.6 10.3-2.4 15.4-.5 3.1-1.6 6.6-1.1 9.7.5 3.1 4.2 2.6 5.6.7l.3-.3a2.408 2.408 0 0 0 .4-1.8c.8-3.2.6-6.8.8-10.1.2-3.3.7-9.3 0-14-.3-2.1-3.4-1.5-3.6.4ZM951.8 682.1c-3.2 5.8-4.4 14.1-4.2 20.7.1 3.9 5.7 3.6 5.8 0h.1c.4-6.6 1.4-13.3 1.5-19.9a1.702 1.702 0 0 0-2.39-1.554 1.695 1.695 0 0 0-.81.754ZM942.4 534.4c-.3-1.6-2.7-1.8-3.5-.4-3.1 5.7-.9 13.4-3.1 19.5-1.4 3.9 4.6 5.5 6.1 1.7s1-6.8 1-10 .1-7.4-.5-10.8ZM938.1 570.4c-2.8 6.7-3.6 14.5-4.4 21.6a3.2 3.2 0 0 0 1.6 2.7h.2c.5.228 1.058.298 1.6.2-1 .2.3 0 .5 0a2.9 2.9 0 0 0 2.2-2.2c1.4-7 .2-14.4 1.9-21.4.6-2.3-2.7-3.1-3.6-.9ZM924.6 680.6c-4.6 2.3-7 8.6-6.5 13.4.7 6.7 6.3 10.7 12.9 9.2a10.5 10.5 0 0 0 7.7-13.9c-1.6-5.1-8.5-11.5-14.1-8.7Zm5.4 17.6c-4.8 1.2-7.5-3.3-7-7.6.1-1.9 1-4.3 2.8-5.3 1.8-1 6.7 2.1 7.9 4.8 1.2 2.7.1 7.1-3.7 8.1ZM935.6 627a110.035 110.035 0 0 0 1.1-18.1c0-1.9-3.1-3.1-4-1.1-1.6 3.6-1.8 7.5-2.3 11.4a54.589 54.589 0 0 0-1 6.9c-.3 3.5 5.6 4.4 6.2.9ZM933.7 663.1a86.416 86.416 0 0 1 1.3-19c.3-1.7-1.7-3.1-3-1.8s-3.3 6.8-3.9 10.2c-.6 3.4-1.3 7.7-.6 11.4.7 3.7 6.2 2.7 6.2-.8ZM911.1 571c-1.6 6.5-3.5 13.7-3.4 20.4.1 3.6 4.8 3.7 5.8.7 1.8-6.5.3-13.5 1.9-20 .6-2.7-3.6-3.9-4.3-1.1ZM908 642.4c-2.1 7.7-4.2 15.7-3.9 23.7-1 3.6 6.2 5.6 6.2.7a163.727 163.727 0 0 1 1.5-23.3c.4-2.5-3.1-3.6-3.8-1.1ZM907.4 678.4c-2.9 3.7-3.4 9.3-4.3 13.8-.9 4.5-1.7 7.7 2.3 8.8a2.901 2.901 0 0 0 3.6-3.5c-.6-1.9.5-5.3.7-7.3.3-3.6 1.2-7.5.4-11a1.601 1.601 0 0 0-2.7-.8ZM903.2 628.1c0 2.4 3.7 4.1 5.3 1.4 1.6-2.7 1.7-7.8 1.5-11.5a86.075 86.075 0 0 0-1.5-12.3c-.4-1.8-3.5-1.9-3.8 0a66.478 66.478 0 0 0-.7 10.9c0 3.8-1 7.7-.8 11.5ZM891.8 644.1c-1.7 2.3-2 6.1-2.5 8.8a67.641 67.641 0 0 0-1 10c-.1 3.9 5.7 3.9 5.9 0 .2-3.9.3-6.5.5-9.8.2-3.3.8-5.9.1-8.6-.7-2.7-2.2-1.5-3-.4ZM888.6 678.4c-1 6-1.5 12.4-1.9 18.5-.2 4.1 6.4 4.1 6.4 0 0-6 1-12.6-.6-18.5-.5-1.8-3.5-2-3.9 0ZM892.2 628.3c.4-6.8-1.3-12.9.6-19.6a1.696 1.696 0 0 0-1.174-1.96 1.7 1.7 0 0 0-.826-.04c-6.8 2.1-5 16.4-4.6 21.6.4 5.2 5.8 3.9 6 0ZM873.1 644.4c-15.5-6.1-18.6 25.5-2.5 23.1 5.5-.8 11.4-6.2 11.3-12.1-.1-5.9-4.3-9.3-8.8-11Zm3.1 14.2c-2.7 3.7-8.4 6.3-10.9 1.3-1.8-3.4-1.4-9.7 2.7-11.4 4.1-1.7 11.6 5.4 8.2 10.1ZM871.9 679.4c-.1-2.2-.9-2.3-1.9-1.6a9.097 9.097 0 0 0-2.5 3.4c-.9 2.7-.8 5.7-1 8.5a74.76 74.76 0 0 0-.3 9.5c0 3.9 6.1 3.9 6.1 0 0-2.2-.1-4.3-.1-6.5s0-3 .1-4.5-.2-5.8-.4-8.8ZM868 628.8c.3-2.9 0-6 .1-8.9.1-2.9.9-7.3.2-10.8a1.798 1.798 0 0 0-1.517-1.301 1.8 1.8 0 0 0-1.783.901c-1.6 3.4-2 7.5-2.4 11.2-.4 3.7-1.2 6.8-.3 9.6a2.897 2.897 0 0 0 3.154 2.125A2.897 2.897 0 0 0 868 628.8ZM853.1 615.8c-.3-2-3.2-1.7-3.7 0-1.4 4.7-1.7 11.4.2 16s6.5 2.2 5.5-1.5-1.3-9.7-2-14.5ZM852.4 642.9c-3.1 2-4.1 6.9-4.7 10.3a42.395 42.395 0 0 0-.8 13.3c.4 2.5 4.6 3.1 5.7.7.649-1.756.888-3.637.7-5.5 0-2.5-.4-5-.2-7.2s1.6-6.8 1.7-10.2a1.595 1.595 0 0 0-1.596-1.614 1.595 1.595 0 0 0-.804.214ZM850.1 678.4c-2.9 2.1-3.8 6.9-4.3 10.3-.5 3.4-1.3 8.6.1 12.1a3.197 3.197 0 0 0 2.9 2.3c4.5.4 2.5-6.7 2.5-9.1.1-4.8 1.5-9.1 2.1-13.7a2.192 2.192 0 0 0-1.103-1.901 2.196 2.196 0 0 0-2.197.001ZM836.6 679.6c-.2-1.7-2.9-3.1-3.8-1-2.6 6.2-3.4 15.5-2.6 22.1.4 2.5 4.1 4.5 5.5 1.5a6.897 6.897 0 0 0 1-3.9 1.103 1.103 0 0 0-.3-.8c.1-2.2.1-4.5.1-6.7s.5-7.5.1-11.2ZM836.5 665.4c.2-7.9.6-15.9-.6-23.7-.4-2.4-4-1.7-4.1.6-.2 7.3-1.7 14.6-1.8 22-1.6 3.4 6.3 7.1 6.5 1.1Z"/><path fill="#fff" d="M765.5 626.4c23.6 3.8 52.9-6 64.1-28.5 1.2-2.2-2.1-4.2-3.4-2-9.6 15.5-28.3 24.5-46.1 25.8-17.8 1.3-39.1-6.2-44.7-25.4-5.6-19.2 8.7-42.4 28.8-47 20.1-4.6 44 7.9 45.7 29.8.7 9.3-2.6 23.1-13.9 24.1s-9.2-17.8-8.3-24.2c.1-.8.2-1.9-.5-2.5a1.604 1.604 0 0 0-2-.1c-2 .9-1.5.6-3.6-.2s-5.9-.1-8.4 1.6c-5.8 3.9-10.3 12.3-10 19.4.3 7.1 6.4 13.2 13.5 8.5a17.61 17.61 0 0 0 6-6.4 16.695 16.695 0 0 0 5.1 7.4c8.2 6.5 19.6-.2 23.9-8.1 12-21.9-3.9-47.4-25.9-53.9a44.993 44.993 0 0 0-35.473 4.702A44.994 44.994 0 0 0 729.5 578.5c-5 24.1 12.8 44.2 36 47.9Zm15.2-39.6c-.4 4-1 8-3.5 11.3-1.2 1.6-3.3 4-5.4 4.2-2.1.2-3.3-3.4-3.4-5.4-.2-6.2 7.1-18.6 13.1-15.8a35.553 35.553 0 0 0-.8 5.7Z"/><path fill="#464646" d="M808.6 641.9c-6.8.6-11.9 10.5-9.1 16.5 2.8 6 12.2 9.8 18.2 5.7 6-4.1 6.4-10.8 3.6-15.8a13.402 13.402 0 0 0-12.7-6.4Zm-4.7 14.1a3.823 3.823 0 0 0-.1-1c-.1-4 2-8.8 6.4-8.5 4.4.3 7.8 3.1 7.8 7.4-.1 7.9-12.9 10.1-14.1 2.1ZM808.6 679.7c-1 3.181-1.801 6.42-2.4 9.7-.6 3-1.6 6.6-1.1 9.7.5 3.1 6.2 4.1 6.1 0 0-6.3 1.6-12.5 1.4-18.8a2.024 2.024 0 0 0-1.7-2.3 2.019 2.019 0 0 0-1.502.374 2.018 2.018 0 0 0-.798 1.326ZM780.5 677.4c-5.1.9-8.5 4.5-8.7 9-1.8 8 9.1 19 18.3 12.3 4.8-3.5 8.4-10.8 4.6-16.3-3.8-5.5-9.2-5.9-14.2-5Zm.2 18.1a9.598 9.598 0 0 1-5-8.1 7.397 7.397 0 0 1 6.9-5.6c3.5-.3 8.8 1.2 9.2 5.3.4 4.1-6.1 11.1-11.1 8.4ZM760.1 677.8c-.8 3.3-.7 6.7-.9 10-.2 3.3-.9 7.3-1.4 10.9-.5 3.6 3.3 3.6 4.9 2a4.102 4.102 0 0 0 1.3-3.3c1.6-6.1 1.2-13.8-.3-19.6a1.893 1.893 0 0 0-.693-.935 1.895 1.895 0 0 0-2.215 0 1.891 1.891 0 0 0-.692.935ZM736.9 676.5a10.392 10.392 0 0 0-8.656 3.599A10.402 10.402 0 0 0 726 689.2c1.6 6.8 9.7 12.8 16.6 9.8 6.9-3 9.3-8.6 6.6-14.3-2.7-5.7-7.4-7.7-12.3-8.2Zm8.7 12.5c-.5 6.3-8.9 7.9-12.9 3.8-4-4.1-1.7-13.1 5.2-11.6 3.4.8 8 3.7 7.7 7.8ZM740.6 661.5c.7-7.6.8-15.5 1.1-23.2 0-2-3.1-2.5-3.5-.5-1.4 7.5-4.8 16.8-3.1 24.5.7 3.3 5.3 2.2 5.5-.8ZM701.4 677.4c-11.2 1.3-11.7 13.8-5.2 20.5 4.2 4.2 11 5.3 15.6 1.2s6.1-10.8 2.9-15.8c-3.2-5-8.4-6.4-13.3-5.9Zm1.1 19.9a8.903 8.903 0 0 1-5.9-10.4c1.4-2.4 2.9-4.2 6.5-4.4 3.6-.2 8.2 1.5 9 5.5.8 4-4.2 11.2-9.6 9.3ZM707.6 657.8c1.8-6.3 3.6-15.8 1.3-22-.6-1.5-2.9-1.8-3.3 0-1 3.4-1.1 6.9-1.8 10.4s-1.7 6.9-2.2 10.4c-.5 3.5 5.9 4.9 6 1.2ZM677.1 631.9c-2.1 6.5-1 13.9-2.8 20.7-1 3.7 5 5.3 5.7 1.6a38.498 38.498 0 0 0 0-22.3 1.504 1.504 0 0 0-1.45-1.116 1.498 1.498 0 0 0-1.45 1.116ZM674 668.3a233.267 233.267 0 0 0-1.7 25.1c-1.3 3.6 6 5.6 5.9.7 0-8.6-.1-17.2-.4-25.8-.1-2.5-3.5-2.4-3.8 0ZM665.5 584.6c-2.7-1.7-7-2.4-9.9-.8-8.2 4.8-5.6 21.2 3.9 22.6 5.5.7 11.3-4 12.3-9.2 1-5.2-2.2-10-6.3-12.6Zm-.1 15.7c-5.5 4.9-11.9-1.3-11.3-7.5.6-6.2 6.8-6.7 10.6-3.6s4.3 7.8.7 11.1ZM661.6 631.1c-.4-2-3.4-1.4-3.5.5a156.538 156.538 0 0 1-2.4 19.3 3.4 3.4 0 0 0 1.3 3.4h.3c2.1 1.5 5-.9 4.3-3.2a54.315 54.315 0 0 0 0-20ZM654.7 671.1c-1.3 4.4-1.7 9.3-2.4 13.9a40.198 40.198 0 0 0-.2 12c.7 3.3 4.5 1.8 5.4-.5.9-2.3 0-2.6.1-3.7s.1-.7.2-1.1c.7-6.7 2.2-14 .6-20.6-.4-1.9-3.2-1.8-3.7 0ZM640.8 625.7c-4.3-2.9-11.4-2.5-13.3 2.5-1.9 5-1.4 11.8 3 14.8s9.6-.2 12.5-3.9c2.9-3.7 2.4-10.2-2.2-13.4Zm-5.6 13.7c-4.7 1.3-5.5-7.3-3.3-9.8 5.7-6.5 13.4 7.2 3.3 9.8ZM634.7 604.3a2.898 2.898 0 0 0 3.875-.198c.337-.336.585-.748.725-1.202 0-.2 0-.3.1-.3a6.713 6.713 0 0 0 .1-2 46.193 46.193 0 0 0-.2-5.3c-.1-5 1.3-9.9.2-14.8-.4-1.5-2.9-1.6-3.2 0-.9 5.2-2.4 10.3-2.7 15.5-.2 2.3-.9 6.6 1.1 8.3ZM630.3 666.6c-3.8 7.9-4.6 18.5-3.9 27.1a2.798 2.798 0 0 0 4.534 1.631c.502-.415.843-.992.966-1.631.5-3.9.2-8 .4-12 .164-4.56.632-9.103 1.4-13.6.3-1.9-2.4-3.6-3.4-1.5ZM613 534.7h-.1a2.191 2.191 0 0 0-1.9.5c-2.2 2.8-1.9 7.1-2 10.5-.1 3.4-1.2 7.6 1.6 9.2a2.397 2.397 0 0 0 2.6 0c2.8-1.7 1.6-7.1 1.6-9.9 0-2.8.9-9.7-1.8-10.3ZM611 595.2c0-3.5.2-6.9.1-10.3-.1-3.4.1-6.1-1.5-8.6a1.314 1.314 0 0 0-.461-.393 1.307 1.307 0 0 0-1.639.393c-1.5 2.6-1.5 5.7-1.8 8.6-.3 2.9-.7 6.8-.9 10.3-.2 3.5 6.1 3.9 6.2 0ZM599.5 643.7c.6 2 3.6 3 4.6.7 1-2.3 1.4-7.2 1.9-10.7.5-3.5 1.5-7.7 1.2-11.4a1.998 1.998 0 0 0-3.9-.6c-1.5 3.8-2.2 7.9-3.1 11.8-.9 3.9-1.8 7.1-.9 10.3l.2-.1ZM606 662.7c-6.1-2.9-13.3 2.9-14.2 9.1a8.895 8.895 0 0 0 0 5.8c1.2 4.1 5 7.9 9.4 8.2 11.4.8 14.1-18.6 4.8-23.1Zm-1.1 17.5c-2.8 2.7-6.5 1-8.4-1.8-3.1-4.4-1.1-14.1 5.8-12.8 6.9 1.3 6.3 10.9 2.6 14.6ZM588.5 487.7a2.005 2.005 0 0 0-1.9-1.376 1.998 1.998 0 0 0-1.9 1.376c-1.4 4.7-1.5 10.3-1.5 15.2 0 4.9-.4 8.7 3.1 11a1.793 1.793 0 0 0 1.399.183 1.798 1.798 0 0 0 1.101-.883c1.6-3.5.1-8.1 0-11.9-.1-3.8.9-9.3-.3-13.6ZM587.5 533.2a1.696 1.696 0 0 0-1.6-1.126 1.703 1.703 0 0 0-1.6 1.126c-1.2 3.1-.6 7.1-.7 10.4a63.872 63.872 0 0 1-1.3 10.7c-.5 2.8 3.3 4.7 4.9 2 1.6-2.7 1.6-7.5 1.6-10.9 0-3.4.1-8.6-1.3-12.2ZM586 576.1a.997.997 0 0 0-1.162-.25 1.003 1.003 0 0 0-.338.25c-2.3 2.8-2 6.4-2.2 9.9-.2 3.5-.8 9.4-.8 14.2 0 4.8 6.1 5.3 6.1.5s.2-9.8.2-14.7c0-4.9.4-7.1-1.8-9.9ZM583.3 619.9a2.3 2.3 0 0 0-2.9.8c-1.4 2.2-.8 6.9-1.1 9.4-.3 2.5-.8 6.6-1.1 10-.3 3.4 5.6 4.3 6.1.8.498-3.715.799-7.453.9-11.2.1-2.9.8-7.8-1.9-9.8ZM577.7 657.8c-1.2 9-2.3 18.3-2.1 27.4-1.2 3 5.7 6.2 5.9.9.4-9.2.5-18.7-.7-27.8-.2-1.6-2.8-2.4-3.1-.5ZM222.3 661.7l14.2 17c-4.7-5.7-9.4-11.4-14.2-17ZM171.8 293.3c1.9 0 3.6-.5 5.4-.2a39.963 39.963 0 0 1 8.3 2.6 15.783 15.783 0 0 0 5 1.8c3 .4 4.8-1.2 3.6-4.2-1.2-3-6.8-6.5-11.2-6.5a14.8 14.8 0 0 0-8 1.9 24.04 24.04 0 0 0-3.7 2.5c-1.2 1.2-1 2 .6 2.1ZM150.5 299.7a1.703 1.703 0 0 0 1.5-.5 7.123 7.123 0 0 0 1-1.4 10.198 10.198 0 0 1 5.8-4.8 40.87 40.87 0 0 0 7.2-3.7c3.6-2.1 8.5-5.4 6.2-10.2a5.1 5.1 0 0 0-5.8-3.3 14.797 14.797 0 0 0-6.8 3.5 32.079 32.079 0 0 0-7.9 9.3 16.088 16.088 0 0 0-2 5.7c-.2 1.1-.7 4.9.8 5.4ZM152.9 348a1.399 1.399 0 0 0 2-.8 11.696 11.696 0 0 1 2.5-4.8c.8-1-.2-2.6-1.4-1.8a6.599 6.599 0 0 0-3 3.4c-2.7-4.7-1.8-13.7 1.2-17.5 1-1.3-.6-3.1-1.9-1.8-5.5 5.1-5.7 18.7.6 23.3ZM148 377.6a19.094 19.094 0 0 0-14.8-1.5c-6.8 2-16.6 6.6-19 14-2.4 7.4 4.4 22.9 12.6 19.1 1.9-.9 2.7-3 4.1-4.5a28.477 28.477 0 0 1 4.7-4.5 34.072 34.072 0 0 1 10.6-4.9c3.1-.9 6.5-3.5 7.4-6.7.9-3.2-2.2-8.8-5.6-11Zm-6.4 1.6c1.713.298 3.347.945 4.8 1.9-2.4.3-4.7.7-7 1.2-.7-1-1.4-2.1-2.2-3.1 1.46-.2 2.94-.2 4.4 0Zm-10.9 2.1a16.543 16.543 0 0 1 3.7-1.4l2.1 3.3a32.958 32.958 0 0 0-7.3 3.6h-.2c-.6-1.3-1.2-2.6-1.7-3.9a35.696 35.696 0 0 1 3.4-1.6Zm-5.5 3a20.658 20.658 0 0 0 1.4 4.2l-4.4 3.5c-.6-1.2-1.1-2.5-1.6-3.8a21.98 21.98 0 0 1 4.6-3.9Zm-5.8 5.5a21.925 21.925 0 0 0 1.1 4 22.166 22.166 0 0 0-2.8 3.3 10.097 10.097 0 0 1 1.7-7.3Zm7.7 15.3c-3 2.6-5.1 1.4-6.9-1.5a15.316 15.316 0 0 1-1.4-2.9l3.3-3.4 1.2 2.1a17.615 17.615 0 0 0 4.2 5.3l-.4.4Zm3.7-4.1-1.7 1.9c-2.1-1.1-4.1-5.6-4.9-6.9l-.3-.6a49.606 49.606 0 0 1 4.1-3.8c.7 1.5 1.4 2.8 2.1 4.1a24.849 24.849 0 0 0 2.7 3.6l-2 1.7Zm9.4-6.3a47.358 47.358 0 0 0-4.9 2.8l-.6-.6a41.3 41.3 0 0 1-3.3-5.2c-.3-.7-.7-1.3-1-1.9l.4-.3a52.786 52.786 0 0 1 7.1-4l.9 1.5a67.433 67.433 0 0 0 4 6.3l-2.6 1.4Zm8.6-5.2a11.22 11.22 0 0 1-3.2 2.4c-1.3-2.6-3.2-5-4.7-7.4h-.1a21.583 21.583 0 0 1 7.8-1.5c1.8 1.8 2.4 4.2.2 6.5ZM116.2 353.5c1.1 0 2-.9 2.9-1.5.9-.6 2.5-1.6 3.9-2.3 1.4-.7 7.4-1.6 5.3-5a2.7 2.7 0 0 0-2.2-1.3c-3.3.3-6.4 2.1-9 4.1-2.6 2-4.6 5.8-.9 6ZM121.9 370.5c-.8.1-1.4.8-2 1.2a1.4 1.4 0 0 0-.3 2.2 1.392 1.392 0 0 0 1.174.392 1.4 1.4 0 0 0 1.026-.692 4.805 4.805 0 0 0 .9-2.5c-.1-.3-.5-.7-.8-.6ZM109.2 346.3c2.6-1.2 4.6-3.8 6.5-5.9 1.9-2.1 4-4.7 6-7s-2-8.1-4.8-4.8-3.9 5-5.8 7.5-4 5-4.7 8c-.7 3 1.3 2.8 2.8 2.2ZM120.299 366.5a1.498 1.498 0 0 0 0-2.5c-3.7-2.6-8.9.7-11 4-2.1 3.3-1.799 8.2.901 11.7 1.1 1.4 3.1-.4 2.3-1.9a6.497 6.497 0 0 1 .9-7.8c1.9-2.2 4.599-2.2 6.899-3.5Z"/><path fill="#464646" d="M983.6 482.5a41.828 41.828 0 0 0-3.8-11.1c-1.9-3.6-4.5-6.7-7.8-8.3-3.3-1.6-7.8-2.4-11.7-2.9-7.9-1-15.7-2.9-23.5-4.5-7.8-1.6-17.6-2.1-26.4-3.7-8.8-1.6-18-4.2-27.1-6-9.1-1.8-17.6-2.9-26.5-3.9-18.8-2.1-37.8-4-56.7-5.9-18.9-1.9-38.4-3.2-57.7-2.2-19.3 1-38.4 1.7-57.6 1.3-22.1-.4-44-2.5-66.1-1.9-4.3.2-32.6-.1-40.7 6.2-14.6-.2-29 5.9-42.9 9.7a502.66 502.66 0 0 0-50.9 16.4 475.18 475.18 0 0 0-46.6 20.8c-7.9 4.2-15.7 8.5-23.8 12.2-8.1 3.7-17.4 6.8-26 10.3a96.802 96.802 0 0 0-8.1 3.6 59.439 59.439 0 0 0-5.6 2.9c-1.6.8-3.2 2.6-4.7 3.2-1.5.6-5.4-3.4-7-4.2a44.3 44.3 0 0 0-6.8-2.8 36.083 36.083 0 0 1-12.6-8.9c-3.8-4.2-8.1-8.1-12.1-12-5.8-5.6-11.6-11.3-17.3-17.1-11.8-12.1-21.5-25.5-30.3-39.8-4.2-6.8-8.3-13.7-12.4-20.5-3.1-5-6.1-10.3-10.6-14.1-9.3-7.6-22.4-5.2-32.5-.7-2.9 1.3-6 2.2-9 3.4-7 2.8-14.2 5.4-21.7 5.5-2.3 0-4.5-1.5-6.4-2.7a57.112 57.112 0 0 1-6.5-4.4 68.438 68.438 0 0 1-10.3-9.1c-3.3-3.5-5.6-7.5-8.4-11.4a8.885 8.885 0 0 0-.2-1.6 40.613 40.613 0 0 0-3.4-11.9 32.767 32.767 0 0 0-3.5-5.6c2.9-.1 5.4-3.3 6.5-7 2.9-9.3-1.4-21.1-4.4-30-2.2-6.7-7.7-13.1-14.7-7.2a9.092 9.092 0 0 0-1.7 1.7 14.108 14.108 0 0 1-.8-1.8c-1.3-7.3-6.5-14.2-11.2-19.5-4.7-5.3-13-12.2-21.3-14.6-6-1.7-14.8-2-18.8 3.6s-2 9.9.3 14.5l-3.5-.5a105.675 105.675 0 0 0-13.8-1.3c-5.7-.1-16.6.5-19.5 6.5-2.9 6 5.5 8.7 12.6 10.4a45.817 45.817 0 0 0-11.7 5.9c-7 4.7-13.5 12.3-16.1 20.4-1.3 3.9-1.8 11.4 4.5 9.2 2.6-.9 4.7-3.1 6.6-5l.3-.2.3-.3a49.998 49.998 0 0 0-5 15.6 50.8 50.8 0 0 0 3.9 27.7 14.094 14.094 0 0 0 4.1 5 7.605 7.605 0 0 0 2.9 1.6c3 1.1 6.2.2 8.1-4 2.8-6.4 2-14.8 3-21.7 1-6.9 3.3-22.2 13.8-19.8.3 0 .9.5 1.4 1l.8.7a10.607 10.607 0 0 1 2.7 3.3 58.722 58.722 0 0 1 2.6 6.5c1.4 3.7 2.4 7.4 3.4 11.1 2.8 10.3 4.4 21.3 8.5 31.2 3.3 8 9.1 14.9 17.5 17.8a27.402 27.402 0 0 0 17 .3c4.9-1.5 10.8-4.7 13.5-9.2 2.3 1.8 4.4 4.2 6.6 6.2 2.2 2 4.8 4.1 7.1 6.3s3.2 2.2 4.4 3.7c1.2 1.5-.7 3.7-1.7 5.5-2.4 4-4.5 8.3-6.7 12.4l-9.5 18.4c-4 7.8-7.9 15.7-11.3 23.7-2 4.7-5.8 10.6-6.6 16.1-1.9 3.7.2 9.1 2.8 12.3 2.6 3.2 8.6 6.7 13.8 8.4 5.2 1.7 9.6 3.7 13.7 5.4 11.1 4.7 22.1 9.9 33.2 14.6 8.8 3.8 17.7 7 26.7 10.1-14.9 5.8-30 12-43.6 20.1-5.1 3.1-10.9 7.6-11.1 14.1-.5 11.1 10.8 21.3 17.2 29.2 8.7 10.7 17.9 21 27.1 31.2l10 11.3-4.2-5 8.1 9.1c2.1 2.3 4.2 4.6 6.5 6.7.8.7 4.9 6.1 5.8 6.1-4.1.5-8.1 1.5-12.2 2.1-4.1.6-11 1.3-15.6 3.9-4.6 2.6-5.6 6.3-4.2 10.2a7.192 7.192 0 0 0 1.6 2.5c-7.5.2-14.9 1.1-22.3 1.3-5.3.2-10.7 0-16-.2-5.3-.2-10.9-1.1-16.4-.7-5.5.4-3.8 7.2.3 6.7s10.1-1.1 15.2-1.1l16.9-.3c11.3-.6 22.8-1.4 34.1-2.7l.7-.3c9 .2 18.1 0 27.2-.1H265c7.1.9 14.4.7 21.5 1.3 7.1.6 17 1.8 25.4 2.8 19.1 2.2 37.7 7.5 56.8 8.7 22.2 1.4 44 3.6 66.3 3.7 6.6 0 13.1-.1 19.7-.4h.5c13.6.1 27.2-.8 40.7-2 8.4-.1 16.9-.5 25.4-1.1 19.1-1.4 38.9-3.1 58.2-3.1 19.3 0 41.4-.6 62.1 1l6.2.5c29.2 2.9 58.5 9.9 88 9.9 14.9 0 29.3-1.9 44.2-.8 14.9 1.1 29.2 2.1 43.9 1.5 14.7-.6 29.5-1.6 44.2-2.8 6.8-.6 13.6-1.6 20.5-1.9 6.9-.3 14.9.6 22.4.7 7.5.1 15.9-.6 23.5.9 4.5 1 8.7 2.7 13.2 3.8 7.7 1.9 16.8 2.5 20.6-5.6 2.4-2.5 3.3-6.4 3.5-9.9.5-7.7.1-15.4.7-23.1 1.8-20.3 4.9-40.4 7.3-60.5 2.4-20.1 4-39.9 3.1-59.9-.801-18.664-.6-37.357.6-56 .4-8.2 1.6-16.8.1-25.1Zm-403.7-37.6a4.791 4.791 0 0 1 1.2-1.6c2.9-2.6 8.4-2.9 12-3.4 9-1.1 18.1-.9 27.1-1.1 19-.3 37.7 1.5 56.7 2.2 35.4 1.2 70.7-3 106-.4 17.3 1.2 34.5 3.3 51.8 4.9 17.3 1.6 35.3 3.2 52.5 7.2 9 2.1 18 4.5 27.2 5.8 9.2 1.3 18 2.3 26.9 4.2a170.408 170.408 0 0 0 21.1 3.1c6.6.6 12.1 2 12.2 9.7-2.7 12.5-11.2 22.1-19.9 31.8-11.9 13.3-24.9 25.3-37.3 38.1-12.4 12.8-25.4 26.4-39.3 38.3a419.357 419.357 0 0 1-43.7 32.5 193.028 193.028 0 0 1-26.4 14.4c-7.6 3.4-15.7 5.6-23.4 8.7-4.4.8-8.6 1.9-13.1 1.4s-10.9-2.5-15.8-4.8c-8.1-3.7-15.7-8.5-23.2-13.2-19.2-11.9-36.7-26.1-53.1-41.5-16.4-15.4-32.2-31.7-45.1-50-11.3-15.9-20.1-34-32.6-48.9-6.9-8.1-15.3-15.5-19.8-25.3-1.4-3-3.6-8.6-2-12.1ZM770.5 647l.7.5a5.006 5.006 0 0 1 2.1 5.1 7.401 7.401 0 0 1-8.2 6.4l-1.4-.2-1.8-.8-.8-.5a6.492 6.492 0 0 1-1.8-2.2 9.477 9.477 0 0 1-.9-2.5c0-.3-.1-.6-.1-.9a1.494 1.494 0 0 1 .1-.7 4.294 4.294 0 0 1 .6-2 7.601 7.601 0 0 1 4.5-2.9 12.386 12.386 0 0 1 2.7-.3c.982.061 1.954.228 2.9.5l1.4.5Zm-125.9-92.6a2.703 2.703 0 0 1-.8 1.6 4.81 4.81 0 0 1-1.9 1.3l-1.4.4h-.9a8.89 8.89 0 0 1-4-.7 7.695 7.695 0 0 1-2-1.3l-.4-.5a4.597 4.597 0 0 1-.8-1.3l-.3-.9a7.61 7.61 0 0 1-.1-1.5c0-3.4 2.1-7.2 4.5-9.4l.9 1.1c.177.08.319.222.4.4l1.2 1.2.6.7c2.2 2.3 4.6 5.2 5 7.7.101.394.101.807 0 1.2Zm-273.2-33.7c.6-1.2 2.9-1.8 4-2.3l4.3-2.2c5.5-2.6 11.3-4.9 17-7.1 14.8-5.6 28.7-12.2 42.9-19.1 29.2-14.2 60.2-25.4 91.5-34.1l23.6-6.7c6.9-2 13.8-3.9 21-4.2-3.4 5.4-5.2 11.6-7.3 17.6a181.328 181.328 0 0 0-7.8 28.9c-4 21.9-5.4 43.9-6.2 66.1-1.4 42.5-5.9 84.9-6.5 127.4 0 2.4 0 4.9.1 7.4-8.6-4.7-19.3-5.8-28.3-9.6-14.5-6.1-28.5-13.1-42.4-20.5-27.7-14.7-54.5-30.3-80.5-47.6-12.3-8.2-24.5-15.8-35.1-26 4-.9 6.5-3.4 6-8.6a12.21 12.21 0 0 0 3.2-5.5c.4-2.1.3-5.7-1.8-6.2.1-.596.1-1.204 0-1.8a4.197 4.197 0 0 0-2.3-3.9c.2-4.1-2.5-6.8-6.6-6.7-.4-2.8-3.1-4.4-5.8-4.7h-1.3l.3-1.3a4.594 4.594 0 0 0 3.9 1.2 3.802 3.802 0 0 0 3.1-3.7c2.1 1.9 4.7-.1 6.1-2.4a3.901 3.901 0 0 0 1.9-1 6.804 6.804 0 0 0 3.3-2.4c3.1-3.6 3.2-9.5 2-14-.6-2.1-3.3-4.9-2.3-7ZM336.9 557a51.984 51.984 0 0 0 6.8-.6l4.1-1h.9c-.2 2.1.1 4.1.1 6.1s-.5 3.4 1.1 4.2c1.6.8 2.6-.2 3.5-.6a15.108 15.108 0 0 0 6.3-6.7c.2-.4 2.7.8 3 1a5.603 5.603 0 0 1 1.5 2.7 3.415 3.415 0 0 1-.3 2.6 8.31 8.31 0 0 1-2.6 3c-.8.8-2.1 1-2.7 2a1.095 1.095 0 0 0 .2 1.4c1.3 1.6 3.8-.1 4.9-1.2a15.156 15.156 0 0 0 1.8-2.6 9.35 9.35 0 0 0 .4-2.2h.1c.1-.2.4-.4.6-.3.2.1.7 3.4.6 4.2a7.704 7.704 0 0 1-2.8 4.5c-.9.8-3.9 1.4-3.9 2.7 0 1.3 2.4 1.9 3.3 1a29.32 29.32 0 0 0 4.8-6.2c.1-.1.3-.3.4-.2.1.1.2.2.2.3a14.105 14.105 0 0 1-1.9 6.4 6.1 6.1 0 0 1-4.6 2.7c-1.2 0-5-.1-3.1 2.1s3.8.9 5.3.1c-4.6 9.9-26.9-1.4-33.6-3.6 2-2.4 5.2-21.8 5.6-21.8Zm-1.6-6.1c-5-.7-9.8-2.2-14.7-3.4a89.875 89.875 0 0 0-4.7-21c-.8-2.5-1.7-5.5-2.9-8.3l.3.2a229.949 229.949 0 0 0 20 12.5c2.4 1.3 5.2 1.9 7.5 3.3a19.131 19.131 0 0 1 4.3 3.7 20.109 20.109 0 0 1 2.7 4c2 3.5 2.1 5.4 1.4 9.3 0 .5-12.9-.2-13.9-.3Zm16.5 10.9c.3-2.5.5-4.9.8-7.4l2.4.3c4.4 1.3.2 6.2-3.2 7.1Zm2.4-14.8c.6-1.8 1.3-3.6 2.1-5.4.023.169.057.335.1.5.5 1.4 2.3 7.7-1 5.7l-1.2-.8Zm1.3-31c5.9 2 11.7 4.8 14.9 10.6 2.1 4 2.8 10.3.1 14.1.1-.4.3-.8.4-1.2a11.014 11.014 0 0 0-.2-5.7c-.6-1.8-1.1-4.7-2.6-6.1a.807.807 0 0 0-.646-.177.798.798 0 0 0-.554.377c-1.1 2.2.7 4.5 1.4 6.6.7 2.1.7 6.6-.9 8.4.7-3.3-.4-9.4-3.9-10.7a1.103 1.103 0 0 0-1.114.415 1.099 1.099 0 0 0-.086 1.185c1.4 2.2 2.7 4 2.8 6.8a6.71 6.71 0 0 1-1.9 5c-2 1.9-2.8-.7-3.2-2.4a25.446 25.446 0 0 0-1.7-4.6c-1-2.2-2.4-5.1-4.6-6.4-2.2-1.3-3.4 1.8-1.6 2.8a7.01 7.01 0 0 1 2.3 2.5 27.68 27.68 0 0 0-3.1 6.2 74.04 74.04 0 0 1-4.7-8.7c1.1-3.9 1.3-8.1 2.8-12 1.5-3.9 3.8-4.6 5.4-6.9l.7-.1ZM82.9 347c0-.8-6-.4-6.9 0a10.8 10.8 0 0 0-4.7 4.3c-3 4.6-4.4 10.3-5.5 15.6-1.1 5.3-1.5 9.3-2.1 13.9-.6 4.6-2.1 15.2-7.1 7.7-2.6-3.9-3.3-9.2-4.1-13.8v-.3c-.3-1.6-.9-3.6-.5-5.5a43.701 43.701 0 0 1 2.4-15.5 66.59 66.59 0 0 1 5.9-12.7c1.2-2 2.5-4 3.9-5.9 1.4-1.9 3.9-3.8 2.4-4.7-1.5-.9-.9.1-1.2.4l-8.5 7.9c-2.3 2-4.6 4-7 5.8-2.4 1.8-2.7 2.1-4.1 3.1-3.4 2.5-2.8-2-2.1-3.9a51.258 51.258 0 0 1 2.5-5.3 39.603 39.603 0 0 1 13-14.3c5.2-3.3 11.6-7.4 18-5.9a1.346 1.346 0 1 0 .7-2.6l-2.7-.6c-4.9-1.5-16.7-4.7-15.9-8 .8-3.3 7-3.3 8.9-3.6a43.588 43.588 0 0 1 10.2-.4l8.9 1c2.307.343 4.582.878 6.8 1.6 1.1.3 6.2 2.4 4.7-.9a6.506 6.506 0 0 0-1.3-1.6 17.501 17.501 0 0 1-3.6-8.5c-.4-2.9.3-5.9 3-7.6 5.7-3.6 14.2-.5 19.4 2.5a51.593 51.593 0 0 1 14.8 13.9c2 2.7 3.9 5.5 5.7 8.3 1.8 2.8 3.8 5.6 4.3 9.2.5 3.6-.4 4.3-.9 6.7a36.07 36.07 0 0 0-1 8.2c-2.6-3-6.3-11.8-7.3-13.3-3.8-5.7-9.3-10-16.5-7.9a39.988 39.988 0 0 0-11.2 5.4l-.3.2a53.504 53.504 0 0 0-8.1 7c-5.2 5.8-10.7 12.6-12.9 20.1Zm67.1 59.2-1.8 1.9-1.9 1.7-1.9 1.4-3.2 2-3.1 1.4a29.08 29.08 0 0 1-3.9 1.2h-.6l-2.7.4h-4.6l-2.7-.5a23.384 23.384 0 0 1-7.1-3l-.9-.7a26.196 26.196 0 0 1-7.2-8.7l-.8-1.5v-.3a88.44 88.44 0 0 1-4.1-10.8c-.6-1.8-1.3-3.6-2-5.4l-.2-.4a6.5 6.5 0 0 0-.2-.7 7.572 7.572 0 0 1-.4-1.1l-1.8-5.6a6.366 6.366 0 0 0-.2-.7l-.7-2.2a21.1 21.1 0 0 1-1.2-4.3c-.1-3.3 4.4-5.4 6.7-7 2.3-1.6 1.1-2.8-.4-3.1a8.109 8.109 0 0 0-6.6 1.9 21.294 21.294 0 0 0-2.2 2.1c-.4-.9-.7-1.8-1.1-2.6a44.41 44.41 0 0 0-3.3-7.1c2.2-.5 4.3-1.1 6.5-1.5 3.8-.7 2-7-1.5-5.7a26.4 26.4 0 0 0-7.3 3.7l-.6-.7-1.7-1.7c.22-1.305.589-2.58 1.1-3.8 2.6-2.9 4.9-7.7 6.9-10.4l8.2-10.7a25.35 25.35 0 0 1 3.6-2.9c6.8-4.7 14.1-6.1 19.7-.1 3.9 4.1 5.4 9.6 8.2 14.4 1.5 2.5 5.1 6.6 8.3 5.3 4.9-1.8 2.6-10.9 3.6-14.7.7-2.3 2.3-6.4 5-7.1 4.8-1.3 7.1 3.9 8.4 7.5a99.653 99.653 0 0 1 3.8 14.5c1 4.9 1.8 9.2.1 14.1a7.41 7.41 0 0 1-1.9 3.2 4.002 4.002 0 0 1-2.6 1 1.798 1.798 0 0 1-1-.2c-1-.3-1.5-1.5-2.6-1.6-1.1-.1-1.3.9-1.2 1.7a4.396 4.396 0 0 0 1.1 2 36.814 36.814 0 0 1 6.3 11.7 27.607 27.607 0 0 1-1.9 21.8c-.7 1.4-1.5 2.7-2.3 4.1a49.144 49.144 0 0 1-6.1 7.8Zm17.3 18.1-4.5-3.7c-1.6-1.3-3.2-2.6-4.7-4s-3.9-3.5-5.8-5.4h-.1l2.3-2.2 1-1.1a30.402 30.402 0 0 0 5.8-7.9 38.526 38.526 0 0 0 4.2-14.6c4 7.3 11.1 13.4 17.5 18.3s13 9.9 20.3 9.5a36.705 36.705 0 0 1-13.2 17.3 40.504 40.504 0 0 1-10.9 5.7l-.8.2-1.1.3-3.2.5-4.4.5c.451-.946.986-1.85 1.6-2.7.376-.608.812-1.177 1.3-1.7l.2-.3 1.2.6 1.3.4h.4l.6-.3.2-.3c.152-.2.223-.45.2-.7a1.102 1.102 0 0 0-.3-.7l-6-5.3-3.1-2.4Zm44 121c-2.2-.7-4.4-1.6-6.6-2.4l-2.9-1.1-4.5-1.9-6.5-2.8c-6.6-2.8-13.1-5.7-19.7-8.4l-3.3-1.4c-3.3-1.3-6.6-2.6-9.9-3.7l-1.4-.9a40.568 40.568 0 0 0-6-2.7l-3.1-1.3-1.6-.7-2.3-1.4-1.7-1.4-1.8-1.5-.8-.9a9.79 9.79 0 0 1-2.6-4.9c6-13.1 11.7-26.2 18.1-39.1l10.8-21.9c.8-1.6 1.6-3.6 2.5-5.6 8.3 2.7 19.3-2.9 25.5-7.6 6.2-4.7 14.4-14.3 15.5-24 .3-1.8 11-4.9 12.6-5.5 8.9-3.5 17-8 26.5-5.2s12.9 9.3 17 16.3c7 11.8 13.9 23.7 21.5 35.1a206.878 206.878 0 0 0 26.6 31.7l7 7c2.2 2.1 4.4 3.8 6.6 5.7l10.7 8.7c4 3.2 8.4 5.9 12.4 9 1.8 1.3.5 2.3-.5 3.6a19.199 19.199 0 0 0-2.8 4.2 11.15 11.15 0 0 0-.8 2.4c-.8 3-1.4 6.7-3.7 6.9a6.097 6.097 0 0 1-3.3-1.2 32.98 32.98 0 0 1-3.3-2.3l-3-2.3a6.036 6.036 0 0 0-1.4-1.1c-7-4.8-13.9-9.7-20.7-14.9l-4.2-3.3c-2-1.5-4.1-3.1-6.3-4.6l-2.1-1.6-4.2-3.2c-1.3-1.1-2.6-2.2-3.8-3.4l-3.1-2.5-3.1-2.6-6.1-5.3a149.312 149.312 0 0 0-12.7-9.9 79.084 79.084 0 0 1-9.4-7.3l-.4-.4-2.8-2.5-6.2-5.9-1.4-1.5c-1-1-1.9-2-2.9-2.9l-1.3-1.4c-1.3-1.3-3.6.4-2.6 1.9 5.9 9 14.4 16 22.1 23.3 7.7 7.3 17.5 16.1 26.8 23.7 6.5 5.2 13.1 10.3 19.8 15.2a80.211 80.211 0 0 1 10.3 33c-23.8-5.9-46.4-17.1-69.4-24.8-11.6-3.9-23.3-7.7-34.8-12.1-9.7-3.7-19.4-7.5-28-13.5h-.2l-1-.7c-1.3-.9-2.8 1.1-1.7 2.2 7.5 7.3 17.4 11.2 27 15.2 16.5 6.8 33.4 12.7 50.4 18.5 19.1 6.5 37.7 14.4 56.7 21.1 5.9 2 16.8 2.5 16.3 10.4-.2 3.2-1 7.9-3.1 11.1-.311.508-.68.978-1.1 1.4a4.8 4.8 0 0 1-2 1.5 5.806 5.806 0 0 1-2.6.6l-4.5-.2a94.269 94.269 0 0 1-13.5-3.2l-2.6-.8a100.126 100.126 0 0 0-10.1-2.6c-2.4-.5-4.8-1.2-7.2-1.9l-2.4-.8-4.8-1.6-4.8-1.4-5-1.5c-7-2-13.9-4.2-20.9-6.4l-7.3-2.4-14.4-4.6c-4.9-1.6-9.7-3.1-14.5-4.8ZM231.7 665c-6.2-6.5-11.9-13.4-17.7-20.2-10.4-12-20.5-24.2-31.1-36-4.9-5.5-13-14.9-7.2-22.3 3.6-4.6 9.9-7.1 15-9.6 11.4-5.6 23-10.7 34.7-15.4l6.5-2.6 3.1 1.1c4.9 1.6 9.7 3.3 14.6 4.8 2.4.8 4.9 1.5 7.3 2.1 6 2 12.1 3.8 18.2 5.5l6.1 1.6c5.1 1.4 10.1 2.9 15.2 3.9l3.9.7 2.9.5 2.9.5 5.7 1.1c-.1 1.4-.3 2.7-.5 4l-.3 1.9-.6 2.3a34.9 34.9 0 0 1-2.8 7.1l-.7 1.3a26.128 26.128 0 0 1-3.3 4.5 41.264 41.264 0 0 1-2.9 3c-.9.4-1.8 1-2.8 1.4l-2.3 1-4.7 1.5-2.4.6-9.5 2.3-9.6 2.1-9.9 1.9-10 1.6-3.3.4h-.4l-6 .7a29.472 29.472 0 0 0-8.3 2.5l-.5.4-.3.6v.4c.018.309.085.613.2.9.6.9 2.2 1 4.1.8l4.7-.8.7-.2h.4l1.1-.2h.9l1.2-.2h1.6l1.7-.3h.5l4.2-.4h1.1c5.1 11.8 12.7 22.8 19 34l6.1 10.9c2.5 4.3 4.9 8.5 7.5 12.7.8 1.4 1.7 2.8 2.6 4.1h-3.5l-3.5-.2-10.5-.9-4.1-.4c-5.2-.5-10.4-1-15.6-1.8-8.1-1.8-14-9.4-19.4-15.2Zm46.6-47.7c3.9-.8 7.9-1.6 11.9-2.7l4.8-1.4h.2l2-.6c2.4-.8 5.3-1.8 6.9-3.6a25.503 25.503 0 0 0 3-2.6 38.664 38.664 0 0 0 2.6-3.1c0 1.1-.1 2.2-.2 3.2a9.12 9.12 0 0 1-.1 1.7 197.177 197.177 0 0 0-1.4 21.6c0 .3.1.6.1.8-.124.477-.058.984.184 1.413.243.429.643.747 1.116.887 4.4 1.7 9.1 1.8 13.8 2.4 6.12.858 12.169 2.161 18.1 3.9 10.1 2.7 20.2 5.9 30 9.6 4.3 1.7 8.6 3.7 12.7 5.7l3.9 2-.5 1.5c-.8 2.5-1.6 5-2.5 7.5-.9 2.5-.8 2.5-1.3 3.7-1.5 4.1-2.8 8.2-4.4 12.3h-.1l-.2.4v.2l-.2.3-.2.4-.3.5-2.8 4.6c-.1 0-.2 0-.2-.1l-.8-.5h-.2l-4.9-1.7-6-1.9-4.8-1.4c-3.7-1-7.4-2.1-11-3.3l-1.9-.6-.7-.2-10-3.3-2.2-.7h-.4c-6.2-2.6-12.7-4.7-19-7.1a74.092 74.092 0 0 1-14.1-7l-5.4-4a100.305 100.305 0 0 1-7.6-6.9 27.18 27.18 0 0 1-2.4-2.4c-1.6-1.6-3.2-3.3-4.7-5l-4.5-5-2.2-2.6a113.793 113.793 0 0 1-8.9-12.1l-1.1-1.8 6.6-1 6.5-1.3 2.8-.7Zm-2.7 76.8H274l-6.8.2-20.4.3h-16.7l-5.6.2h-2.3l-3.7.2h-6.2a4.675 4.675 0 0 1-.5-1h-.1c-1.1-2.3-.3-3.8 2.7-5.2a35.788 35.788 0 0 1 9.1-2.3l11.2-1.8 5.6-1c1.6-.4 3.2-1.1 4.8-.8 7.2 1.3 14.3 2.8 21.6 3.6l2.4.3 3.8.4 7.6.8h.2c2.4.2 4.9.6 7.4.7l2.5-.2a4.704 4.704 0 0 1-1.1 3.1 5.296 5.296 0 0 1-2 1.3c-3.5 1.4-8 1.2-11.9 1.2Zm76.4 9.2c.2 1.085.571 2.132 1.1 3.1-4.9-1.4-10.5-1.7-14.8-2.4-7.9-1.2-15.7-2.1-23.6-3-7.9-.9-17.5-2-26.3-2.8h-.4c4.3-1.2 9.3-5 7.4-10-1.9-5-4.6-12.2-7.9-17.8-3.3-5.6-7.1-11.1-10.4-16.8-6.2-10.9-12.2-22.9-20.3-32.6l2.9-.4c7.7 15.9 21.2 31.2 35.4 41.5 6.7 4.8 14.4 8.2 22.2 11l12.5 4.6c4.9 2.9 11.2 4.7 16.1 6.6 7.9 3.1 15.9 5.7 23.9 8.5a19.112 19.112 0 0 1-3.7 1.7c-2.2.5-4.6.4-6.8.8-4.1.9-7.9 3.3-7.3 8Zm29.8 4.2-.8.3-1.9.5h-4.6l-2.6-.3c-3.1-.5-6.3-1.3-8.6-1.9-2.3-.6-6.4-.9-6.3-3.1a2.995 2.995 0 0 1 .9-1.8 3.502 3.502 0 0 1 1.2-.7l1.6-.3h3.7c15-1.8 18.1-14.4 22.6-27 1.1-2.9 2.1-5.8 3.2-8.8a48.18 48.18 0 0 1 1.6-5.6l.4.2a9.213 9.213 0 0 1 3.536 3.536 9.212 9.212 0 0 1 1.164 4.864c0 2.7-1.3 6-2 8.6-.1.6-.3 1.2-.4 1.8-.1.6-.3 1-.4 1.6-.1.6-.9 3.6-1.4 5.4-.5 1.8-.8 2.7-1.1 4l-1.1 4.1c-.3.8-.5 1.6-.8 2.5a34.99 34.99 0 0 1-2.2 5.3 27.359 27.359 0 0 1-2.3 4 12.109 12.109 0 0 1-3.4 2.8Zm162-1.4c-25.8 1.9-51.9 3.4-77.9 5.5-10.6.8-21.2 1.2-31.8 1.2-10 0-20.1-.3-30.1-.7-5.5-.2-11-.4-16.3-1.6l-2.6-.7c4.3-3.7 5.9-10.6 7.9-15.7a196.381 196.381 0 0 0 6.5-20.1c1.2-4.2 3.8-9.6 2.5-14 0-.1 0-.2-.1-.2a.412.412 0 0 0-.1-.3c0-.1-.1-.2-.1-.3h-.1v-.2c-1.6-2.9-6.1-5-8.3-6.2a180.503 180.503 0 0 0-17.9-8.3 198.897 198.897 0 0 0-62.1-15.1 2.8 2.8 0 0 0 0-1.3c.3-6 .4-12 .6-18 .1-3 .3-6 .4-9a32.17 32.17 0 0 1-.2-4.4c.1-1.8 1.6-3.5 2-5.3a40.496 40.496 0 0 0 1.1-5c.1-1 0-3 .9-3.7.9-.7 4.1.1 5.5.2a9.5 9.5 0 0 0 2.9-.1 21.42 21.42 0 0 0 2.2-1.3c5.7 2.6 19.8 7.9 29.4 7.7 7.7 9.8 18.8 16.8 29 23.6 12.8 8.3 25.2 17.2 38.2 25.2 27.3 16.7 55.4 32.9 84.4 46.4a141.107 141.107 0 0 0 19.9 7.7c6.4 1.9 13.4 3.4 18.9 7.4a1.8 1.8 0 0 0 .9.4 23.826 23.826 0 0 0 1.5 3.7c.408.761.912 1.467 1.5 2.1l-8.6.4Zm434.4-199.4a446.403 446.403 0 0 0-1.4 50.4 436.282 436.282 0 0 1-2 56c-1.9 18.3-4.7 36.4-6.9 54.7-1.1 9.8-2.6 19.8-2.5 29.6 0 3.3.5 6.6.3 9.9-.2 3.3-1.7 6.1-3.8 8.9-5 4.8-15.7.4-21.4-1.1-10.9-3-22.1-2.1-33.2-2.3-6.3-.1-12.5-.9-18.7-.7-6.2.2-14.9 1.5-22.4 2-14.1 1-28.2 2.1-42.3 2.6-14.1.5-28-.6-42-1.8-7.1-.6-14.1-1.3-21.2-1-7.1.3-14.7 1.1-22 1.3-28.2.7-56.4-6.1-84.3-9-30.1-3.2-60.5-2.2-90.7-.9-5.4-1.6-7.7-3.7-8.8-9.4-1.1-5.7-.6-9.9-.6-14.7.5-19.2 1.2-38.2 2.6-57.3 1.4-19.1 2.9-40.9 3.5-61.4.6-20.5 1.2-41.7 4.1-62.4a208.051 208.051 0 0 1 6.7-32.1c1.7-5.4 3-11.1 5-16.5 1.1 8.6 7.7 17.2 13 23.8 5.3 6.6 10.4 12.2 14.8 18.9 6.6 10.2 12.8 20.6 19.7 30.6 3.5 5.2 7.3 10.3 11.1 15.2-8.3 3.9-10.7 16.9-1.4 21.3a13.005 13.005 0 0 0 10.9.3 7.803 7.803 0 0 0 4.3-5.1 555.137 555.137 0 0 0 22.2 23.1l10.7 10.1a12.786 12.786 0 0 0-1.4 5.5c-.6 4.7-1 9.4-1.2 14.2-.2 2.9 4.2 4.1 5.6 1.5a5.4 5.4 0 0 0 .5-3.3l-.2-.4c.1-4.9.5-10.2-.5-15a332.319 332.319 0 0 0 42.8 32.8c9.4 6 19.1 12.3 29.5 16.6l4.6 1.7c-4.8 2.5-7.8 7.6-5.9 13 1.9 5.4 8.1 8.1 13.4 6.7a12.298 12.298 0 0 0 8.8-10.1 8.906 8.906 0 0 0-2.3-7 18.295 18.295 0 0 0 10-2.9h.6a31.391 31.391 0 0 0-3.5 10.3c-.6 3-2 7.9.3 10.3a2.796 2.796 0 0 0 3.96.047c.352-.343.607-.773.74-1.247.6-2.5 0-6.1.2-8.8a61.937 61.937 0 0 1 1.3-9.5 1.81 1.81 0 0 0-.7-1.7 175.981 175.981 0 0 0 18.1-6.4 173.579 173.579 0 0 0 24.6-11.8c15.9-9.2 31-20.5 45.2-32.1 5.3-4.3 10.4-8.9 15.4-13.5-1.5 1.8-1.9 4.6-2.1 6.9-.2 2.3-1 6.7 1.6 8.6a2.695 2.695 0 0 0 2.271.082 2.701 2.701 0 0 0 1.529-1.682c.5-1.9-.4-4.7-.4-6.7s.3-4.5.5-6.8-1.4-2-2.4-1.4c8.1-7.6 15.9-15.7 23.6-23.8a4.286 4.286 0 0 0 1.3 3.2c1.3 1 3.8.9 4.1-1 .3-1.9-.3-2.8-.3-4.2a7.594 7.594 0 0 1 1-3.9c.2-.2.2-.4.3-.7 11.7-11.9 23.9-23.5 34.4-36.6 5.2-6.6 11.1-12.8 15.5-20a38.517 38.517 0 0 0 5.2-12.4h.5a46.505 46.505 0 0 1 1 11 173.021 173.021 0 0 1-.8 17.5ZM41.7 375.4c-4.4-2.6-10.3-.8-14.7.5-4.4 1.3-11.5 4.8-11.6 11.1-.1 6.3 3.6 6.5 7.7 4.2 6.7-3.8 10.2-11.8 18-13.8l.7-.2c.3-.2.6-.5.6-.8a1.299 1.299 0 0 0-.7-1ZM29.5 391h-.2c-4.6 1.4-8.9 4.4-11 8.8-2.1 4.4-2.5 9.3 1.3 12.3s5 .3 6.2-2.5a12.102 12.102 0 0 0 1-6.5c-.2-3.8-.8-7.8 3.2-10l1-.7a.999.999 0 0 0 .3-1c-.3-.6-1.2-.6-1.8-.4Z"/></svg>