<svg xmlns="http://www.w3.org/2000/svg" fill="none" viewBox="0 0 1000 1000"><path fill="#FC5B61" d="M221.2 444.2a24.53 24.53 0 0 0 1-2.4c.199-.852.299-1.725.3-2.6l-.3-2.4a15.689 15.689 0 0 0-.9-2.3 10.8 10.8 0 0 0-3.2-3.2l-2.2-.9a6.8 6.8 0 0 0-3.7-.2 4.2 4.2 0 0 0-2.4.7c-.431.08-.84.25-1.2.5a16.644 16.644 0 0 0-2.1 1.6 10.397 10.397 0 0 0-2.5 4.6 8.697 8.697 0 0 0 .1 5.3l.9 2a5.6 5.6 0 0 0 2.2 2.4 3.991 3.991 0 0 0 1.9 1.1 5.996 5.996 0 0 0 3.2.7h.4l1.3-.2a4.6 4.6 0 0 0 2.3-.6 9.997 9.997 0 0 0 4.9-4.1ZM355.7 427.6a8.502 8.502 0 0 0 5.9-2.4c3.3-3.7 2.5-9.6-1.2-12.7a7.598 7.598 0 0 0-6.5-1.6 8.203 8.203 0 0 0-6.5 8.4 8.212 8.212 0 0 0 2.401 5.899 8.212 8.212 0 0 0 5.899 2.401ZM700.2 359.9c-3.8 0-3.8 6 0 6s3.9-6 0-6ZM663.4 361.4a8.557 8.557 0 0 0 .1 1.5c0 1.9.1 4.2.1 4.2 3.6-.3 3.5-5.7-.2-5.7ZM253.2 634.3c.2 1.6.3 3.2.5 4.8l6.3 4.4 2.9 1.7c-.4-9.4-.9-18.7-1.2-28.1a1.602 1.602 0 0 1-.5-.9c-1.8-1.5-3.4-3.3-5.1-4.9a31.764 31.764 0 0 1-4.1-4.1c-1.5 3.1-.4 8.5-.1 11.2.4 5.3.9 10.6 1.3 15.9ZM288.3 626.2c-.4-3.1.1-8.7-3.7-9.8-3.8-1.1-6.5.2-9.5.5.5 2.8.5 5.6.9 8.4.5 4.5 1.2 8.9 1.9 13.4 1.786-.048 3.57.154 5.3.6h.2a1.508 1.508 0 0 1 1.2.5l5.1 7c-.1-3.4-.3-6.7-.5-10.1l-.9-10.5ZM271.8 658.9c-2.6-1.7-4.8-5.8-6.2-8.9.1 2.2.2 4.4.4 6.6.2 2.2.3 7.1.5 10.7.2 3.6-.5 7.3 4.4 7.8 2 .3 4.1.4 6.2.6-.6-5.1-1.5-10.6-1.1-15.8a10.41 10.41 0 0 1-4.2-1ZM291.8 651.4c.2 8.9 0 17.9-.4 26.9a1.195 1.195 0 0 1-.4.9c2.6 1.5 5.2 3.2 7.9 4.5 0-9.2 0-18.3-.2-27.4-2.2-1.7-4.5-3.3-6.8-4.9h-.1ZM263.1 648.9v-.6a46.946 46.946 0 0 1-9.1-5.5c.4 3.9.7 7.9 1.1 11.8 1.3-1.1 2.7-2 4-3a46.916 46.916 0 0 1 4-2.7ZM289.2 614.8c2.2 2.9 1.5 9.3 1.7 12.3.5 6.9.7 13.7.9 20.5a76.18 76.18 0 0 1 6.5-4h.1c-.2-6.7-.5-13.4-1.1-20.1-.3-4.8.1-10.9-1.4-15.5l-.3-1-3.1 3.8c-1.1 1.4-2.1 2.7-3.3 4ZM288.8 679.7c-.1-.1-.2-.2-.2-.3l-11.9-1.2c-2.9-.2-6.4 0-9.2-.9a5.287 5.287 0 0 1-1.5-.8c-.6.9-1.4 1.8-2 2.6l-2.4 2.9-1.3 1.4c-.1.1-.4.7-.6.7a.9.9 0 0 1-.3.6h-.1a21.014 21.014 0 0 0 2.3 1.9l1.9.9h.3l1.4.6c2.8.8 5.7 1.3 7.7 1.7 6.7 1.2 19.6 2.1 25.6-2.8-3.6-1.9-7.1-4.1-9.7-7.3ZM263.7 617.5c.6 9.5 1.2 19 1.7 28.5.8-1.2 1.8-2.2 2.7-3.3.9-1.1 2.2-3.5 3.4-4.1a11.606 11.606 0 0 1 4.2-.1c-1.5-6.6-2.9-14.5-2.3-21.4l-9.7.4ZM257.6 609.2c1.6 1.6 3.4 3 4.9 4.7h.4l13.8-.4c3-.1 8-1 10.9 0 .8-1.2 1.8-2.3 2.7-3.5.9-1.2 2.5-3.3 3.8-4.8-.9-.5-2-.3-3.7-.3h-7.8l-17.2.4-.6.2H263l-9.2.4a32.77 32.77 0 0 1 3.8 3.3ZM260.3 678.6c1.3-1.3 2.6-3.2 4.2-4.3-.8-2.3-.4-5.5-.5-8-.3-5-.5-9.9-.8-14.9l-2.5 2.2a56.153 56.153 0 0 1-5.3 4.4c.3 2.7.5 5.3.8 7.9.3 2.6.5 5.3.7 8 .2 2.7.2 2.7.2 4.2l.4 1c-.105.324-.172.66-.2 1 .017.505.084 1.008.2 1.5a27.973 27.973 0 0 1 2.8-3ZM289.1 676.9c.6-8.1.8-16.2.7-24.3a34.972 34.972 0 0 0-3.7 6.2 1.697 1.697 0 0 1-1.3.7c-1.6 0-3.8.3-6.1.4 1.1 5.2.9 10.9 1.1 16.1l9.3.9Z"/><path fill="#FC5B61" d="M281.4 656.6c3-.2 4.7-3.2 6.9-5.7.013-.262.12-.51.3-.7l.2-.2-6.1-8.7c-3 .5-6.3-.8-9.3-.1-3 .7-4.8 4.8-6.9 7.1h.2c2.4 2.1 3.8 5.4 6.4 7.2 2.6 1.8 5.3 1.4 8.3 1.1ZM298.7 653.2c-.1-2.3-.1-4.5-.2-6.8l-5.2 3.3 5.4 3.5Z"/><path fill="#DBDBDB" d="M181 464.3a.597.597 0 0 1-.1-.4c-.1-5-1.7-9.5-2.6-14.5-1.2-7-2.6-14-4-21-4.6-23.3-8.7-46.7-13.4-70-1.1-5.4-2.3-10.6-3.9-15.8-1.6-5.2-1.7-11.1-4-16.5a3.698 3.698 0 0 0-1.5-1.9 2.997 2.997 0 0 0-2.1-.2c-4.9.7-11 .4-15.4 3s-2.9 7.6-2.1 12c4.6 23.1 10 45.9 14.4 69 2.5 12.8 4.8 25.6 7 38.4 1.2 6.8 1.2 14 4.2 20.4 1.6 3.3 3.1 4.7 6.6 5 3.5.3 12.4.5 15.5-2.4 1.3-1.3 1.4-3.3 1.4-5.1ZM196.9 616.1c-.3-5.5-.5-11-.7-16.5-.2-3.3-.2-6.8-1.7-9.8-3.5-7.2-19-5.6-18.6 3.3.9 18.6 2.8 37.4 3.9 56.1.6 9.6 1.2 19.3 1.9 28.9.4 6.3.9 14 6.9 17.9 4.1 2.7 9.7 2.6 12.7-1.6s1.6-12.3.7-17.8c-3.3-20-4.3-40.2-5.1-60.5ZM301.5 324.7c1.7 12.8 4.4 20.9 5.9 32.9.1 1.2 1.7 9.8 2.6 10.5 4.2 3.6 16.6 2.6 18.4-2.5.6-1.6-.5-4.6-.7-6.2-2.1-14-4.6-27.9-7-41.9-1-6.1-2.1-12.2-2.9-18.4-.4-2.7-.2-5.7-2.8-7.3-2.6-1.6-7.7-.5-10.8-.2-3.1.3-7.2 1.1-7.9 4.5a6.499 6.499 0 0 0 0 2.4c1.2 9 4 17.1 5.2 26.2ZM347.5 487.5c-.2-8.8-.8-17.2-1.8-25.9-1.4-13.4-2.2-27.6-5.8-40.7-.3-1-.6-3.4-1.7-3.9s-8.2-.3-11 .1c-6.8 1.1-8.5 1.4-8.1 5.4.9 8.2 1.6 12.9 2.6 20.4 2.1 15.2 4.3 30.4 6.2 45.6 1 7.6 19.7 4.6 19.6-1ZM343 593.3c5.2 3.3 14.6 2.7 15.3-4.8l.3-4c0-20.6-2.1-40.5-3.7-61.2-.7-8.7-19.4-8.9-21.6-1-2.2 7.9.5 19.2 1.3 26.9.8 7.7 2 17.1 2.4 25.7.3 6.4-.3 14.5 6 18.4ZM360.4 622.1c0-9.5-21-7.5-20.5-1.5 1.1 13.6 1.3 27.3 1.4 40.9 0 10.2.2 20.3-.6 30.5a5.1 5.1 0 0 0 .4 3c2.2 4.1 14.5 1.1 17.7-.2a1.698 1.698 0 0 0 1-.6c.1-.3.1-.6.2-.8.8-10.6 1.9-21.3 1.6-31.9-.3-13.1-1.2-26.3-1.2-39.4Z"/><path fill="#FC5B61" d="M553 458.3c-6.2 2.6-14.1 1.3-18.6-4.2-4.5-5.5-6.4-17.1-9.1-25.4a1.3 1.3 0 0 0-1.3-1c-.3 4.5 2.3 10.6 3.1 13.6 1.3 4.6 2.2 9.4 4.7 13.6a16.198 16.198 0 0 0 14.7 7.7c2.8-.1 5.4-.7 7.4-2.7a5.202 5.202 0 0 0 1.3-1.7 3.299 3.299 0 0 0-2.2.1ZM659.1 452.9l-.3 1.2c.149-.386.25-.789.3-1.2ZM646 445.7c-6 .5-11.9 2-17.8 2.5-9 .7-17.9 1.3-26.8 2.2-8.9.9-16.7 2.2-25 3.4-5.4.9-12 1.1-16.9 4.1-.1 0-.1.1-.2.2a8.996 8.996 0 0 1-2 3.4c15.2-3 31.1-4 46.4-5.2 17.1-1.4 34.1-2.3 51.2-2.8a1.699 1.699 0 0 1 1.4.4c.9-2.5 1.9-4.9 2.8-7.4h-2.3c-3.6-.4-6.9-1.1-10.8-.8ZM721.8 392.4a9.21 9.21 0 0 0-.1-1.6 18.615 18.615 0 0 1-4.5 2.7c-.006.58.096 1.157.3 1.7l.3 1.4c.196.66.578 1.25 1.1 1.7l3.2-1c-.5-1.5-.2-3.4-.3-4.9ZM717.6 389.8h.5l.4-.2c3.5-2.5 4.2-6.1 4.4-10.1.3-5.8.7-11.7.9-17.6v-.3a1.502 1.502 0 0 0-1.6 0c-3.4 1.4-3.1 6.1-3.1 9.2-.1 6.2.3 11.9-6.6 14.4-6.9 2.5-14.8 3.8-21.9 5.5-7.1 1.7-15.5 3.3-22.8 1.5.9 1.3 2.3 2.1 4.6 2.6 5 1.2 10.7.7 15.7.3a172.783 172.783 0 0 0 29.5-5.3ZM679.4 352.6c-1-.7-1.1-2.6.4-2.8a71.441 71.441 0 0 1 13.8-1.2 2 2 0 0 1 1.3.8 3.008 3.008 0 0 0 1.42-2.55 3.002 3.002 0 0 0-1.42-2.55l-1-.5c-5.8 1.9-13.2 1.5-19.1 2-3.6.3-8.1 1.3-12.1 1.2 0 1.2.1 2.4.2 3.6h3.5a43.454 43.454 0 0 1 5.2-.6 1.795 1.795 0 0 1 1.742 1.814 1.805 1.805 0 0 1-.242.886h6.3v-.1ZM706.8 334.2c-10.3 1.4-20.8 2.6-31.2 1.6-.1.3-.2.6-.5.7a19.3 19.3 0 0 1-13.4.5c.2 1.4.3 2.9.5 4.3 4.2-.7 9-.5 12.6-.8 6.4-.6 14-2.5 20.4-1.2a1.703 1.703 0 0 1 1.4 1.6c3.475.053 6.93-.523 10.2-1.7-.1-1.665-.1-3.335 0-5Z"/><path fill="#FC5B61" d="M672.8 382.4c2.5-.3 5.1-.4 7.6-.6 2.5-.2 7.7-1 11.5-1.1a2.191 2.191 0 0 1 1.7.7c4.2-.4 8.5-1.4 10.7-3.9a1.798 1.798 0 0 0 .2-1.4 10.697 10.697 0 0 1-4.8 1.7 204.829 204.829 0 0 1-34.1 3c.115.458.182.928.2 1.4a53.988 53.988 0 0 1 7 .2ZM673.2 602c-1.8 5.8-3.6 11.6-5 17.5a641.84 641.84 0 0 0-15.3 118.7c-.1 3.1-.3 6.2-.6 9.5 4.8.1 9.6.2 14.3.5 0-3.8.1-7.6.2-11.5a657.71 657.71 0 0 1 2.7-47.1c1.4-15.2 3.4-30.3 5.7-45.4 1.3-7.9 2.6-15.7 4-23.6 1.4-7.9 2.3-16.6 4.8-24.3a55.544 55.544 0 0 0-6.3-2.4c-2.7.3-2.9 2.7-4.5 8.1ZM652 751.4c-.1 2-.3 4.1-.5 6.2 5.1.4 10.2.8 15.3 1.5-.1-2.7-.1-5.3-.1-8-4.881.549-9.801.65-14.7.3ZM668.2 787c0-.7-.1-1.7-.1-2.9-1.4-7.4-1.2-15.5-1.3-23a73.857 73.857 0 0 1-15.6.5 136.94 136.94 0 0 0-.3 16.9c-16.9.9-33.6 2.3-50.6 2.4-8.3 0-16.7-.2-25 .4-8.3.6-13.9 1.4-20.7-.1h-.9c.173.99.441 1.961.8 2.9a1 1 0 0 1-1.8.7 22.21 22.21 0 0 1-.8-2.4 2.193 2.193 0 0 0-.378 1.839 2.205 2.205 0 0 0 1.178 1.461l1.4.8c21.7-.5 43.3-.8 65-.7 16.4.1 32.7.8 49.1 1.2ZM722.9 420.1l4.9 1.2c-1.3-6.3-3.2-14.2-2.9-21.1l-3.2 1.3c-1 4.9.1 13.9 1.2 18.6ZM672.1 497.5a33.196 33.196 0 0 0 14.5-7.6c5.6-5 4.5-7.9 4.4-14.6-.1-10.1 2.1-20.3 5.4-29.8 3.3-9.5 8.2-18.1 18.2-18.3 3.4-.1 6.9.7 10.2 0a9.01 9.01 0 0 0 3.5-1.8l-17.3-4.6c-.7 1.8-2.7 2.9-4.2 4.3s-3.7 4-5.8 4.8l-.9.2c-2 4-4.2 7.8-5.7 12.1a86.199 86.199 0 0 0-3.7 13.2c-2.1 10.1-2.3 20.3-3.5 30.6a1.802 1.802 0 0 1-1.4 1.5c-1.5 1.9-4.4 3.4-6.2 4.6-1.8 1.2-5.1 3.8-7.9 5.4h.4ZM865.7 576.7a24.694 24.694 0 0 1-6.1-6.4c-.3-.4-2.7-4.9-2.8-4.9l-2.1.7c.7 3.8-.5 8-1.7 11.6a19.79 19.79 0 0 0-1.2 3.1c-.5 1-.1 1.8 1.3 2.5l.6-1.4c1.1-1.3 1.4-4.2 2.2-5.9a1.001 1.001 0 0 1 1.7 0 .898.898 0 0 1 1.1.4c3 5.6 5.7 11.6 11.8 13.9-1-3.5-5.4-6-6.1-9.8-.1-1 1-2.3 2-1.5a25.599 25.599 0 0 0 9 4.6c.9.2 2.8.7 3.8.3a5.912 5.912 0 0 0-.4-.8c-2.4-3.8-9.7-4-13.1-6.4ZM830.3 762.6v-.3c-1.5-2.7-3.1-5.4-4.5-8.2h-.1l-13.9 1.9c.9 2.1 1.8 4.2 2.8 6.3h.3c2.4-.9 5.9-.4 8.1-.2 2.55.069 5.091.336 7.6.8 0-.1 0-.2-.1-.2l-.2-.1Z"/><path fill="#FC5B61" d="m869.8 584.8-.3-.4 1.1 1.3-.8-.9ZM795.1 499.9c-7.9-4.9-16.9-7.7-25.7-10.5l-12.1-3.8c.9 4.5 1.8 9 2.6 13.5l.8.2c18.9 2.4 38.6 9.3 53.5 21.1 8.8 7 16.2 15.5 23.7 23.8 5.3 5.9 13 12.5 16.2 20 1.5-1 3.1-1.9 4.7-2.8-2.1-3.2-24.9-31.6-27.2-33.8-11-10.7-23.5-19.7-36.5-27.7ZM819.4 787l26.9.4c-.1-8.9-6-18.1-14.7-21.1l-3.8-1h-8.5c1.7.8 3.5.8 5.2 1.4a13.598 13.598 0 0 1 5 3.1 15.398 15.398 0 0 1 3.5 5.2c.8 2 1.7 4 2.4 6-4.9.8-10.3-.4-15.3-.3-5 .1-10.8.4-16.1.3-5.3-.1-13.2.1-19.8-.2-4.3-.2-8.9-.7-12.8 1.2a31.621 31.621 0 0 0-1.7 3.7 1.386 1.386 0 0 1-.866.747 1.401 1.401 0 0 1-1.134-.147c-.09.256-.124.529-.1.8 17.3-.1 34.5-.2 51.8-.1ZM765.1 612.4c6.2 30.3 15.3 59.6 24.9 89.2a284.632 284.632 0 0 0 12.3 32.2c3.2 6.8 5.8 13.5 8.7 20.3 4.5-.9 9.1-1.6 13.7-2.1a385.568 385.568 0 0 1-19.6-44.7c-13.5-35.7-23.2-72.7-31-110-3.3-15.7-6.2-31.5-9-47.4-3.8-.7-7.5-1.6-11.2-2.5l1.8 15.9c1.8 16.8 6.1 32.8 9.4 49.1ZM754 476.8c-.1.6-1 .6-1.2 0-.2-.6-.1-2.1-.3-3.1a13.707 13.707 0 0 0-.7-2.9.6.6 0 0 1 1-.5 7.386 7.386 0 0 1-.2-1.2 1.808 1.808 0 0 0-.657-.876 1.804 1.804 0 0 0-2.743.876c-1.2 5.2 0 10-.1 15.2-.2 20 2 39.6 4.3 59.2 3.8 1.2 7.6 2.4 11.3 3.8-.5-2.5-.9-5-1.3-7.6-3.2-18.5-6.6-37.2-8.6-55.9-.1-.6.3-.9.8-1a43.41 43.41 0 0 1-1.5-6.2l-.1.2ZM886.9 313.7c7.5-1.7 15-3.4 22.5-5.4 7.5-2 39.5-9.2 37.7-16.2-1.8-7-15.8-7.1-21.4-7.7-10.2-1-20.4-1.9-30.3-4-8.2-1.7-20.3-2.1-27.3-7.1s16.7-15 22-17.5c12-5.4 24.2-10.4 35.4-17.3 2.8-1.7 12.9-5.7 9.9-8.9s-14.3-.6-17.5-.4l-24.2 1.8c-32.1 2.5-64.2 5.6-96 10.7 2.7-1.7 5.7-3.1 7.8-4.6 7.1-4.9 14-10 21.2-14.7 7.2-4.7 14-8.4 20.8-12.8 6.8-4.4 11.7-6.3 16.3-10.9a3.6 3.6 0 0 0-2.5-6.1c-10.9-.6-22.7 2.2-33.4 4.1a319.528 319.528 0 0 0-34.8 8.2 254.99 254.99 0 0 0-30.9 11.7 100.197 100.197 0 0 0-13 6.8l-3.3 2.3c5.4-3.8 10.2-11.2 15.4-15.8 5.2-4.6 12.8-10.3 13.7-16.1-12.4 1.6-26.2 13.5-36.7 19.9-10.5 6.4-21.1 12.7-31.2 19.7-16.5 11.6-32.7 25.7-39.8 45.1-1 2.7 3.2 3.8 4.2 1.2 7.3-18.9 24.3-32.5 40.7-43.3 9.2-6.1 18.7-11.6 28.1-17.3l6.9-4.1a104.797 104.797 0 0 0-12.3 16c-1.2 1.8.3 4.7 2.5 4.5 7.7-.7 13.7-6.8 20.3-10.1a225.249 225.249 0 0 1 33.6-13.2 296.935 296.935 0 0 1 33.8-8.1c6.1-1.1 12.3-1.9 18.5-2.7l3.5-.5a81.036 81.036 0 0 0-7.8 3.9c-7.3 4.4-14.6 8.8-21.6 13.5-7 4.7-13.5 9.8-20.5 14.2-2.8 1.8-19.8 11.2-13.7 15.8 1.7 1.2 4 1.1 6.1.9l90.9-9.5c8-.8 16.3-1.6 23.6 1.5-9.2 7.4-19.9 11.4-30.2 16.5a205.04 205.04 0 0 0-23 13.7 2.998 2.998 0 0 0-1.6 1.7c-.3 1.3 1.3 2.3 2.6 2.8 22.1 8.6 47.5 10.1 69 20.7-5.7-.3-11.1 2.8-16.7 3-5.6.2-11.8 1.2-17.8 2.1-14.8 2.1-29.6 3.6-44.1 6.9-1.4.4-3.1.9-3.4 2.4-.111.757.03 1.53.4 2.2 3.3 6.2 12.1 8.7 18 11.4 13.5 6.2 25.9 13.8 38.4 21.6 3 1.8 13.1 5.7 14.5 8.6 2.8 6.1-15.9 4.4-19.8 4.3a290.02 290.02 0 0 1-66.1-9.1c-4.6-1.2-13.9-5.6-17.2.5-1.4 2.6 1 5.7 3.1 7.7 13.8 13.8 29.2 26.1 44.7 38 1.3 1 2.7 2.6 1.9 3.9-16.5-6-30.1-17.3-44-27.4-9.5-6.9-18.4-15.3-29.8-18.8a5.406 5.406 0 0 0-2.8-.2c-3.9 1.3 1.7 11.3 2.8 13.3 6.8 13.3 17.4 25.5 23.4 39-2.9 1.2-6.6-.7-9.4-2.1l-51.5-24.4c-.2 4 3.5 7.1 6.9 9.3 9.8 6.7 19.7 13.5 30.2 19.1 16.1 8.6 33.5 14.3 50.7 20.3 1 .3 2.3.5 2.9-.4.6-.9.1-1.4-.1-2-2.4-5.7-6.2-10.7-10.1-15.4a271.64 271.64 0 0 0-25.4-27.2c-2.4-2.3-3.8-4.9-5.7-7.6-.7-1.1-1.4-2.4-.9-3.5.5-1.1 3.4.9 4.8 1.9 25.3 16.6 51 36.7 80.2 46.3a4.7 4.7 0 0 0 3.3.1 2.898 2.898 0 0 0 1-3.4 7.2 7.2 0 0 0-2.1-3.1c-10.5-10.9-22.1-20.7-32.8-31.5-4.2-4.2-14.3-10.9-14.9-17.3-.6-6.4 10.2-3.3 15.1-2.9l24.3 2c16.9 1.6 33.4 3.9 50.5 3.1 4.7-.2 10.5.3 14.8-1.4a2 2 0 0 0 1.2-.7c2.5-3.4-27.1-20.4-30.7-22.5-11.4-6.8-23.1-13.3-34.9-19.4a10.793 10.793 0 0 1-3.6-2.4c-4.4-5 13.4-6.5 16.7-7.2Z"/><path fill="#464646" d="M250.2 631.3c1.5 16.8 2.7 33.7 4.8 50.5.6 5.1 3.5 6.5 7.9 8.2a54.9 54.9 0 0 0 20 3.6c5.8-.1 12.3-.6 16.6-4.8 4.3-4.2 3.5-9.4 3.5-15.2 0-5.8-.2-13.1-.4-19.7-.5-13.4-1.5-26.7-2.8-40.1-.4-4 1.7-9.4-2.6-11.4-2.8-1.3-6.8-.7-9.8-.7-8.9.1-17.9.7-26.8.9-6.5.2-10.6-1.7-11.8 6.3-1.2 8 .8 15.3 1.4 22.4Zm3.8 11.5a46.896 46.896 0 0 0 9.1 5.5v.6a46.916 46.916 0 0 0-4 2.7c-1.3 1-2.7 1.9-4 3-.4-3.9-.7-7.9-1.1-11.8Zm3.5 38.8a7.664 7.664 0 0 1-.2-1.5c-.1-.7-.1-1.3-.2-2s-.1-3-.2-4.2c-.1-1.2-.5-5.3-.7-8-.2-2.7-.5-5.2-.8-7.9a56.153 56.153 0 0 0 5.3-4.4l2.5-2.2c.3 5 .5 9.9.8 14.9.1 2.5-.3 5.7.5 8-1.6 1.1-2.9 3-4.2 4.3a27.973 27.973 0 0 0-2.8 3Zm18.2-43.1a11.583 11.583 0 0 0-4.2.1c-1.2.6-2.6 3-3.4 4.1-.8 1.1-1.9 2.1-2.7 3.3-.5-9.5-1.1-19-1.7-28.5l9.7-.4c-.6 6.9.8 14.8 2.3 21.4Zm1.4 37.2c-2.1-.2-4.2-.3-6.2-.6-4.9-.5-4.2-3.7-4.4-7.8-.2-4.1-.4-7.2-.5-10.7-.1-3.5-.3-4.4-.4-6.6 1.4 3.1 3.6 7.2 6.2 8.9 1.315.624 2.745.964 4.2 1-.4 5.2.5 10.7 1.1 15.8Zm-4-20.1c-2.6-1.8-4-5.1-6.4-7.2h-.2c2.1-2.3 4.2-6.4 6.9-7.1 2.7-.7 6.3.6 9.3.1l6.1 8.7-.2.2c-.18.19-.287.438-.3.7-2.2 2.5-3.9 5.5-6.9 5.7-3 .2-6 .5-8.3-1.1Zm11.7 3.9a1.695 1.695 0 0 0 1.3-.7 34.972 34.972 0 0 1 3.7-6.2c.1 8.1-.1 16.2-.7 24.3l-9.3-.9c-.2-5.2 0-10.9-1.1-16.1 2.3-.1 4.5-.4 6.1-.4Zm-.2-19.6a1.506 1.506 0 0 0-1.2-.5h-.2a19.168 19.168 0 0 0-5.3-.6c-.7-4.5-1.4-8.9-1.9-13.4-.4-2.8-.4-5.6-.9-8.4 3-.3 7-1.1 9.5-.5 2.5.6 3.3 6.7 3.7 9.8l.9 10.6c.2 3.4.4 6.7.5 10.1l-5.1-7.1Zm-11.7 50c-2-.4-4.9-.9-7.7-1.7l-1.7-.6-1.9-.9a11.405 11.405 0 0 1-2.5-1.8h.3a.903.903 0 0 0 .3-.6c.2 0 .5-.6.6-.7l1.3-1.4 2.4-2.9c.6-.8 1.4-1.7 2-2.6.454.346.96.616 1.5.8 2.8.9 6.3.7 9.2.9l11.9 1.2c0 .1.1.2.2.3 2.6 3.2 6.1 5.4 9.7 7.4-6 4.7-18.9 3.8-25.6 2.6Zm26-6.3c-2.7-1.3-5.3-3-7.9-4.5a1.192 1.192 0 0 0 .4-.9c.4-9 .6-18 .4-26.9h.1c2.3 1.6 4.6 3.2 6.8 4.9.2 9.1.2 18.2.2 27.4Zm-.2-30.4-5.4-3.5 5.2-3.3c.1 2.3.1 4.5.2 6.8Zm-2.8-45.2c1.5 4.6 1.1 10.7 1.4 15.5.6 6.7.9 13.4 1.1 20.1h-.1a76.18 76.18 0 0 0-6.5 4c-.2-6.8-.4-13.6-.9-20.5-.2-3 .5-9.4-1.7-12.3 1.2-1.3 2.2-2.6 3.3-4l3.1-3.8.3 1Zm-32.9-2.8h2.4l17.2-.4h7.8c1.7 0 2.8-.2 3.7.3-1.3 1.5-2.5 3.2-3.8 4.8-1.3 1.6-1.9 2.3-2.7 3.5-2.9-1-7.9-.1-10.9 0l-13.8.4h-.4c-1.5-1.7-3.3-3.1-4.9-4.7a32.906 32.906 0 0 0-3.8-3.6l9.2-.3Zm-11 2a31.764 31.764 0 0 0 4.1 4.1c1.7 1.6 3.3 3.4 5.1 4.9.063.347.239.663.5.9.3 9.4.8 18.7 1.2 28.1l-2.9-1.7-6.3-4.4c-.2-1.6-.3-3.2-.5-4.8-.4-5.3-.9-10.6-1.3-15.9-.3-2.7-1.4-8.1.1-11.2ZM206.5 363.9c2.4-3 3.3-6.9 5.9-9.8a17.798 17.798 0 0 1 11.5-6c2.4-.2 2.5-3.8 0-3.9a20.897 20.897 0 0 0-14.8 5.9c-3.3 3.1-6.9 8.8-4.8 13.5a1.503 1.503 0 0 0 1.034.637 1.5 1.5 0 0 0 1.166-.337ZM333.2 330.9c2.7.2 5.4.9 6.9 3.3s1.4 4.7 1.5 7.3a1.4 1.4 0 0 0 2.4 1c3-3 2.4-8.3 0-11.4-2.4-3.1-7.2-5.3-11.2-3.8a1.81 1.81 0 0 0 .4 3.6ZM310.6 388.9a14.002 14.002 0 0 0 16.731 13.731 13.997 13.997 0 0 0 5.047-25.372 14.002 14.002 0 0 0-7.778-2.359 13.9 13.9 0 0 0-14 14Zm20.3-6.3a5.998 5.998 0 0 1 5.885 7.171 6.007 6.007 0 0 1-1.642 3.072 6.004 6.004 0 0 1-9.232-.91 5.998 5.998 0 0 1 4.989-9.333ZM235.9 412.3a13.995 13.995 0 0 0 12.934-8.643 13.996 13.996 0 0 0-3.035-15.257 13.996 13.996 0 0 0-15.257-3.034A14.001 14.001 0 0 0 226 408.199a14 14 0 0 0 9.9 4.101Zm6.3-20.4a5.998 5.998 0 0 1 4.243 10.242 5.995 5.995 0 0 1-6.539 1.301 5.993 5.993 0 0 1-3.704-5.543 6.002 6.002 0 0 1 6-6ZM284.2 423.1a9.692 9.692 0 0 1 8.1-1.3c2.7.8 4.2 2.9 6.6 4.1a1.301 1.301 0 0 0 1.9-1.1c0-4-4.3-6.3-7.8-7a12.306 12.306 0 0 0-10.7 2.9c-1.4 1.1.4 3.5 1.9 2.4ZM298.5 459.7c-4.2 0-9 4.9-11.3 8-2.3 3.1-5.2 8.8-2.6 12.5 2.6 3.7 7.7 1.6 9.4-1.8a32.094 32.094 0 0 0 2.8-14.8 6.505 6.505 0 0 0 2.1-3.3.404.404 0 0 0-.011-.426.4.4 0 0 0-.17-.143c-.068-.031-.145-.042-.219-.031Zm-5.5 11.1c-.3 1-1.9 7.2-4 5.5-.4-.3 1-3.6 1.2-4a21.297 21.297 0 0 1 3.8-5.6c-.3 1.4-.6 2.8-1 4.1ZM725.8 356.4a22.995 22.995 0 0 0 3.3-2.1c1-.7 1.8-1 2.3-2.2a.812.812 0 0 0 .11-.378.805.805 0 0 0-.71-.822c-1.4 0-2.2.7-3.4 1.4l-1.1.7c1.1-3 3.1-5.9 4-8.9a1 1 0 0 0-1.6-1c-1.7 1.7-2.8 4.3-3.7 6.5-.9 2.2-2.5 4.3-2 5.9.5 1.6 1.8 1.3 2.8.9ZM693.6 348.6a71.441 71.441 0 0 0-13.8 1.2c-1.5.2-1.4 2.1-.4 2.8a1.3 1.3 0 0 0 .8.3h.8a4.097 4.097 0 0 0 1.2 2.9l.4.4h-.4a.302.302 0 0 0-.099.108.304.304 0 0 0 0 .284.31.31 0 0 0 .099.108c3.736.716 7.577.682 11.3-.1 1.1-.2.9-2.1-.2-2l-2.7.2a3.698 3.698 0 0 0 .5-2.3l2.9-.4c1.5-.2 1.7-1.8.9-2.8a1.997 1.997 0 0 0-1.3-.7Zm-5.5 5.2c-.083.311-.257.59-.5.8a2.894 2.894 0 0 1-2.4.4 1.797 1.797 0 0 1-1-.9 9.81 9.81 0 0 1-.5-1.1h2.5a6.505 6.505 0 0 0 2.4-.1c-.2.2-.3.6-.5.9ZM680.6 360.8c-3.5-.4-7.9-.4-11.1 1.2-3.2 1.6-2.8 5.5-1.8 8a1.605 1.605 0 0 0 1.711 1.047 1.6 1.6 0 0 0 1.389-1.447c0-1.1-.3-2.2-.3-3.4 0-1.2.8-1.7 2.4-2.4a24.985 24.985 0 0 1 7.7-1.4c1 0 1-1.5 0-1.6ZM679.6 367.1h-.9a1.404 1.404 0 0 0-1.4 1.4 1.4 1.4 0 0 0 1.4 1.4h.9a1.503 1.503 0 0 0 1.5-1.5 1.6 1.6 0 0 0-1.5-1.3ZM751.8 470.8c.338.938.573 1.911.7 2.9.2 1 0 2.1.3 3.1s1.1.6 1.2 0v-.2c.4-1.9-.4-4.4-1.2-6.1 0-.1 0-.1-.1-.2a.604.604 0 0 0-.813.207.593.593 0 0 0-.087.293ZM504.5 399.1c.6.9 2.2.4 1.8-.7-3.2-9-8.6-16.9-14.2-24.5-1.1-1.6-3.7-.1-2.6 1.5 5.3 7.7 9.6 16.1 15 23.7ZM474.4 408.9c8.1 2 17.1 4.1 25.5 3.4 1.4-.1 1.9-2.3.4-2.6-8.2-1.9-16.8-2.3-25-3.9-2-.4-2.9 2.6-.9 3.1ZM478.9 433.9c-2.1.7-1.2 4 1 3.4 7.5-2 15.5-2.9 22.9-5.2a1.415 1.415 0 0 0-.4-2.8c-7.8-.1-16 2.5-23.5 4.6ZM520.7 501.9c2-4.6 4.9-9.5 5.8-14.5a1.195 1.195 0 0 0-.722-1.215 1.198 1.198 0 0 0-1.378.315c-2.9 4-4.5 9.2-6.4 13.8-.8 1.8 1.9 3.4 2.7 1.6ZM691.9 380.7c-3.8.1-7.7.8-11.5 1.1-3.8.3-5.1.3-7.6.6l-2.9.5c-1.6.3-1.7 3 0 3.3 6.9 1.2 15.8.5 22.6-1.3a2.194 2.194 0 0 0 1.49-1.454 2.201 2.201 0 0 0-.39-2.046 2.209 2.209 0 0 0-1.7-.7Z"/><path fill="#464646" d="M924.5 790.5c-25-1.4-50-2.4-75-3 1-10-6.6-20.5-16-23.9h-.4c-15.9-34.4-30.1-68.9-40.6-105.4s-17.9-73.2-24.4-110.3c-2.7-15.3-5-30.7-7.7-46 8.5 2.7 17.2 4.4 25.6 7.2a89.998 89.998 0 0 1 28.8 15.8c7.7 6.5 14.3 14.1 21 21.6 2.9 3.2 5.8 6.5 8.6 9.8 2.8 3.3 4.8 6.2 7.7 8.8l.6.4-.3.4v.2c-1.4 4.4-1.5 9.1-3.1 13.6-.7 2.1-1.5 4.6.3 6.4 4.2 4.4 6.8-3.1 7.8-7.2 2.9 6.5 6.9 12.7 14.3 14.5a1.306 1.306 0 0 0 1.12-.256 1.308 1.308 0 0 0 .48-1.044c.2-2.7-1.2-4.5-2.7-6.3l-1.1-1.3-.3-.3c4.3 2.5 9.9 4.6 13.3 2.3 3.4-2.3.9-5.4-2.7-7.2 4.8.2 9.8.7 12.4-4.2a1.401 1.401 0 0 0-.8-2.1l-1.4-.4a13.904 13.904 0 0 0 6.9-2.4c1.7-1.5 2.7-4.2.8-6-1.9-1.8-3.9-1.2-5.5-2.7-1.6-1.5-2.8-4.9-3.8-7.4s-3.1-6.9-6.7-8.7l-.8-.2a313.29 313.29 0 0 0-22.7-34.3 236.025 236.025 0 0 0-28-31.9c-22.1-21-49.1-35.1-76.5-48a153.337 153.337 0 0 0-22.5-8.6 1.799 1.799 0 0 0 .7-2.1h.1c-.7-3.9-1.5-7.8-2.2-11.7l-.9-6-.6-2.9a6.505 6.505 0 0 0-.6-2.4 4.206 4.206 0 0 0-1.5-1.1c-1.4-.9-1.4-3.1-1.5-4.6a13.9 13.9 0 0 1 1.1-7.3 29.78 29.78 0 0 0 .7-4.3c.25-3.095.25-6.205 0-9.3 7.6 1.2 12.1-10 15.1-15.4a180.293 180.293 0 0 0 13.5-30.5 90.186 90.186 0 0 0 3.8-15.2c.5-3.5 1.6-11.1-.8-14.2-2.4-3.1-4.6-1.2-6.8-.7l-1.9.4a49.286 49.286 0 0 0 5.8-6.4c3.3-4.2 6.1-11.6-1.6-13-4.1-.8-9.2 1.4-13.1 2.5l-8.2 2.7a11.61 11.61 0 0 0 1.3-5.6 1.495 1.495 0 0 0-.61-1.162 1.5 1.5 0 0 0-1.29-.238c-8 2.6-16.1 5.1-23.9 8.3.48-1.17.652-2.444.5-3.7a1.404 1.404 0 0 0-1.118-1.208 1.392 1.392 0 0 0-.582.008c-6.9 1.5-13.4 4.2-20 7a94.964 94.964 0 0 0-18 9.1 47.89 47.89 0 0 0-11.6 11.3c-2 2.7-4.6 6.8-5 10.6-1.6 6.2-1.7 13.1 3.2 17.9a14.604 14.604 0 0 0 3.8 2.7 98.75 98.75 0 0 0 0 6.3 8.685 8.685 0 0 0-2.7 1.4 1.203 1.203 0 0 0-.619 1.05 1.196 1.196 0 0 0 .619 1.05c.887.452 1.828.788 2.8 1 .2 3.8.5 7.6.8 11.5l.9 10.2c.116.829.183 1.663.2 2.5a5.31 5.31 0 0 1 0 2.5 4.31 4.31 0 0 1-1.4 1.6c-1.3.8-3 2.1-3.2 3.7-.2 1.6 2.7 2 3.9 2h1.3c.3 4.5.1 11.8 3.1 15.4 3 3.6 10.5 3.5 14.9 3.7h4.8c.9 0 2.3-.3 2.5.9-.05.666-.05 1.334 0 2 .021.836.088 1.671.2 2.5a27.11 27.11 0 0 0 .4 4.1c-17.5-2.9-36.7 1.1-53.4 4.8-12.5 2.8-24.6 7.5-37 11.1-12.4 3.6-26.8 6.8-39.4 12-.8-4-1.6-8-2.5-11.9-.6-2.3-.7-6.3-2.6-8-3.6-3.1-7.1.6-8 4a88.39 88.39 0 0 0-2.1 8.9c-1.2-4.1-2.5-8.2-3.8-12.3-1.3-4.1-1.5-9.6-5.7-9.7-2.5-.1-3.4 1.8-3.7 3.9a2.501 2.501 0 0 0-3.1-.8c-3.6 1.4-1.8 8.6-1.5 11.3v.2c-5 3.3-2.4 11.1-1.2 15.8 2 7.9 3.4 17.4 10 22.9 4.7 3.9 12.6 5.9 18.5 3.7l2.3-1.1h.4c16.7-1 33.3-3.8 50-5 16.7-1.2 33.4-1.7 50.2-1.4-12.1 33.1-20.7 67.8-28 102a912.803 912.803 0 0 0-17.8 122c-.5 6.1-.9 12.2-1.3 18.3-.7 10.3-1.2 20.7-1.3 31-.1 5.1-.1 10.3 0 15.5a7.3 7.3 0 0 1-1.5 4.9c-1.2 1.1-2.7 1.2-4.2 1.3l-5.2.3-10.2.7c-7.1.6-15.4.5-22.1 3.4a20.9 20.9 0 0 0-11.4 25.3c.221.814.488 1.616.8 2.4a1.003 1.003 0 0 0 1.168.34 1 1 0 0 0 .632-1.04 15.677 15.677 0 0 1-.8-2.9c-1.1-5.8 0-11.9 4-16.5s10.5-6.4 16.9-7l10.4-.8a63.15 63.15 0 0 0 0 8.7c.2 1.7 1.3 3.4 3.3 3 2-.4 2.9-3 3.2-4.9.448-2.373.649-4.786.6-7.2h4a17.511 17.511 0 0 0 0 8.2c.3 1.7.8 4.3 3.1 3.9 2.3-.4 2.7-3 3.2-4.7.634-2.414.77-4.932.4-7.4.2.6 5.5.3 6.2.3 3.4.2 6.9.5 10.3.9 3.4.4 6.9.7 10.2 1.3 3.3.6 5.1.9 7.7 1.2 4.6.6 9.3 1.2 14 1.5a73.923 73.923 0 0 0 15.6-.5c.1 7.5-.1 15.6 1.3 23l.3 1.6c.1.7 1 .4 1-.1 1-8.1.1-16.7.1-24.9s0-16.1.2-24c.4-15.7 1.3-31.4 2.8-47.1 1.5-15.7 3.4-31.6 5.8-47.4 1.2-7.867 2.5-15.767 3.9-23.7 1.2-6.9 3.2-14.1 3.9-21.2a65.016 65.016 0 0 1 9 5c6.8 4.6 9.5 13.3 12.5 20.4 7.1 17.2 13.6 34.6 19.8 52.2 6.2 17.6 11.7 33.5 19.1 49.7 7.4 16.2 16.4 33.5 25.3 49.9.146.247.352.454.6.6a18.998 18.998 0 0 0-5.1 10.4 1.3 1.3 0 0 0 .4.9 1.41 1.41 0 0 0 1.134.148 1.402 1.402 0 0 0 .866-.748 31.786 31.786 0 0 1 1.7-3.7c8.8-15.4 29.9-16.4 47.6-16.7h8.8l3.8 1c8.7 3 14.6 12.2 14.7 21.1l-26.9-.4c-17.3-.1-34.5 0-51.8.2-17.3.2-32.4.2-48.6.1-16.2-.1-33.3.1-50-.3h-.8c-16.4-.4-32.7-1.1-49.1-1.2-21.7-.1-43.3.2-65 .7l-35 .8a8496.098 8496.098 0 0 0-58.4 1.8c-16.4.6-32.9.9-49.2 2l1.8-.9a1.5 1.5 0 0 0 .7-1.2c4.2-10.4-7.8-20.5-17-21.6-9.2-1.1-19.9 2.8-25.9 10.2 0-3.2-.2-6.5-.4-9.7a153.942 153.942 0 0 0-3.3-24.4c-2.7-12-7.3-25.7-17.2-33.8 16-1.9 32.4-5.5 42.6-18.1 7.9-9.9 7.6-19.2 8.3-31.5.9-14.9 1.4-29.7 1.5-44.5.1-18.1-.3-36.2 0-54.2.2-9.8.6-19.6 1.3-29.4 1-12.1.2-22.5-1.1-34.6-.3-3.8-.8-7.7-1.3-11.5 3.9 9.5 9.2 18.2 16.4 24.5 7.2 6.3 18.6 11.4 29.1 11.5a38.004 38.004 0 0 0 18.9-5.1c5.4-2.9 10.4-5.1 14.5-9.7a56.088 56.088 0 0 1 6.8-6c1.9-1.8 4.4-6.4 6.4-7.5a39.506 39.506 0 0 0 10.5-8 62.14 62.14 0 0 0 4.9-6.3c1.8-2.3 4.6-4.5 5.9-7.1a1.198 1.198 0 0 0-.65-1.64c-.207-.08-.432-.1-.65-.06-4.2.7-7 6.4-9.4 9.6a40.987 40.987 0 0 1-9.1 8.6 6.1 6.1 0 0 0-.9-3.1c5.4-7 10.8-14 14.7-21.9h.1l.6-1.5c1.1-2.3-2.3-4.3-3.4-2-3.7 8.3-9 15.6-13.8 23.1l-.8-.6a51.624 51.624 0 0 0 4.4-10.6c.8-2.7 1.2-5.4 1.8-8.2.3-1.3.8-2.6 1.1-3.9.171-.625.305-1.259.4-1.9a1.397 1.397 0 0 0-1-1.8c-4.8-1.6-5.2 7.6-5.6 10.4a58.413 58.413 0 0 1-4.2 14.9 5.995 5.995 0 0 0-3 1.2c.3-5.8-.6-13.5-6.1-15.9a1.696 1.696 0 0 0-1.993.536 1.704 1.704 0 0 0-.007 2.064c4.4 5 4.1 12 3.3 18.3-.1.8-.3 1.7-.5 2.6-3.9 8-4.5 16-12.2 21.3a34.203 34.203 0 0 1-25 5.8 44.4 44.4 0 0 1-25-14.1c-9.8-11-12-25.1-17.6-38.1-5.6-13-6.6-31.7-8.6-46.9-2.4-18.9-4.4-37.9-8.1-56.7-3.4-16.7-7.3-33.5-13.1-49.6-3.6-10.1-8.8-23.1-18.1-29.7 0-.1 0-.2-.1-.2-8.7-8.9-23.4-7.1-34.7-6.9a345.063 345.063 0 0 0-52.7 4.6c-17.8 2.8-35.6 6.2-53.2 10s-34.9 6.9-52.3 10.6a161.895 161.895 0 0 0-17.2 4.9c-13.3 3-26.7 7-28.1 22.2-1 10.9 2.5 22 5.3 32.2 4.5 16.4 7.4 32.9 10.8 49.5 3.4 16.6 7.1 34.2 9.7 51.5l1.5 9c-5.1.6-10.3 2.9-14.8 4.7a140.662 140.662 0 0 0-15.2 7.2A116.597 116.597 0 0 0 82.7 505a113.498 113.498 0 0 0-28.6 62.2 1.7 1.7 0 0 0-.5 1.4c0 .2.1.4.1.6a46.7 46.7 0 0 0-1 13.4c.2 3.8.4 10.6 4.5 12.4l.6.2a18.4 18.4 0 0 1 2.3 8.3c.2 3-.4 6-.1 8.9a1.898 1.898 0 0 0 1.9 1.9 1.898 1.898 0 0 0 1.9-1.9c.5-5.1.1-12.7-3.4-17.1a6.794 6.794 0 0 0 2.7-1.3c4.2 4.4 7.5 11.3 6.1 17.1v.2a.899.899 0 0 0-.1.5 1.3 1.3 0 0 0-.1.6c-.4 2.9 5 2.9 4.4-.6a17.907 17.907 0 0 0-.2-2.3l-.3-.5c-1.2-6.5-3-12.3-7.7-16.9a9.206 9.206 0 0 0 1.6-2.9 40.213 40.213 0 0 1 6.5 3.4c3.2 1.9 5.8 3.6 6.7 7.4a2.201 2.201 0 0 0 3.9.5c2.2-4.1-3.1-8.1-6.1-9.9a37.407 37.407 0 0 0-10.6-4.6 12.797 12.797 0 0 0-.6-3.3c5 1.1 11.2-1 13.7-5a2.3 2.3 0 0 0 0-2.4c-2.4-3.3-4.6 1.3-6.6 2.4a9.2 9.2 0 0 1-9.2.5c-2.2-3.7-5.1-7.3-6.6-10.8a1.898 1.898 0 0 0-1-1c4.4-21.9 14-42.4 29.5-58.8a116.2 116.2 0 0 1 26.9-21 120.787 120.787 0 0 1 16.3-7.6c4.1-1.5 8.6-2.3 12.8-3.8.7 4.5 1.5 9 2.2 13.6 5.4 35.5 9.6 71.2 13.7 106.9 2 18.2 3 36.4 4.9 54.6 1.7 15.4 1.3 34.5 11.1 47.3 6.8 9.1 19 10.7 29.4 13.1 4.3 1 8.7 1.8 13.1 2.4-2.4 10.8-5.1 21.6-13.5 29.6-4.7 4.6-10.7 7.1-17 8.3a70.19 70.19 0 0 1-9.1 1l-5 .2c-.6.1-2.5-.1-2.2.1h-.9a2.397 2.397 0 0 0-1.7 2.9c-1.7 4-2.1 8.3-2.3 12.6a2.196 2.196 0 0 0 2.153 2.043c.364.007.723-.077 1.047-.243a4.5 4.5 0 0 1 1.5 3.3c-2.9.6-4.2 3.5-4.4 6.9-.3 6-.6 15.4 2.6 20.7.117.223.288.414.497.554.21.139.452.224.703.246a11.7 11.7 0 0 0 3.5.8l-17.6 1.3c-2.1.2-2.1 3.4 0 3.3 21.2-.7 42.4-1.9 63.6-2.9 21.2-1 41.1-2.4 61.6-2.4s41-2.5 61.6-3.4c20.6-.9 40.4-1.7 60.6-2.5 17.1.1 34.3-.9 51.4-1.4 17.1-.5 34.6-.9 51.9-1.2 33.4-.6 66.9-.8 100.3-.9 33.4-.1 66.6-1.5 99.9-1.1 33.3.4 66.7 1.9 100.1 2.6 39.5.9 78.9 1.4 118.4.4a1.705 1.705 0 0 0 1.202-.498 1.691 1.691 0 0 0 .498-1.202 1.696 1.696 0 0 0-.498-1.202 1.704 1.704 0 0 0-1.202-.498Zm-335.3-25c-.1.2-.1.4-.2.5a.402.402 0 0 1-.5.2c-.2 0-.4-.3-.4-.5s-.1-.4-.2-.6V764c0-.7-.1-7.3-.2-7.3h1.7a32.189 32.189 0 0 0-.1 4.5 12.987 12.987 0 0 1-.1 4.3Zm10.9-5.2a41.947 41.947 0 0 1-.2 5 1.004 1.004 0 0 1-.6 1l-.5-.2a2.506 2.506 0 0 1-.7-2c-.2-2.6 0-5.2-.4-7.7h2.2a25.55 25.55 0 0 1 .2 3.9Zm282-210.3a.696.696 0 0 0 .6-.3c3.3 3.3 3.8 8.8 6.9 12.4 1.2 1.5 2.9 1.8 4.1 3 5 5-8.7 4.8-10.7 4.6-2-.2-1.8 1.9-.7 2.5a43.389 43.389 0 0 0 6.3 2.8c-3.6 3.2-11.1.5-15.4 1.6a1.504 1.504 0 0 0-1.116 1.45 1.498 1.498 0 0 0 1.116 1.45c.8.3 6.2 1.9 6.4 2.5.2.6.2 1.6-.4 1.9-.6.3-2.9-.1-3.8-.3a25.599 25.599 0 0 1-9-4.6c-1-.8-2.1.5-2 1.5.7 3.8 5.1 6.3 6.1 9.8-6.1-2.3-8.8-8.3-11.8-13.9a.898.898 0 0 0-1.1-.4 1.001 1.001 0 0 0-1.7 0c-.8 1.7-1.1 4.6-2.2 5.9l-.6 1.4c-1.4-.7-1.8-1.5-1.3-2.5a19.79 19.79 0 0 1 1.2-3.1c1.2-3.6 2.4-7.8 1.7-11.6l2.1-.7c4.4-1.6 8.6-4.2 12.6-6.5s9.1-5.3 12.7-8.9ZM724.9 400.2c-.3 6.9 1.6 14.8 2.9 21.1l-4.9-1.2c-3.7-1-7.5-1.8-11.3-2.5-1.5-.3-2.9-.3-4.1-1.4a6.9 6.9 0 0 1-2.1-3.6c-.2-.5-1.3-6.8-1.5-6.8 4-.1 8.2-1.6 11.8-2.7l6-1.6 3.2-1.3Zm-28.8 18.7c.2-.3 2.3-2.3 2.6-2.2l3.1 1.2 4.7 1.6-1.7 1.7-2.8 2.6c-.5.4-1.3 1.4-2 2-1.2-1.1-5-5.1-3.9-6.9Zm1.9 10.2c-5.2 7-7.9 16.6-9.8 24.8a4.328 4.328 0 0 1-.2 1.1 191.689 191.689 0 0 0-3.2 19.9c-.3 2.9-.2 5.7-1.7 8.3a23.2 23.2 0 0 1-5.1 5.7c-2.8 2.4-6 4.3-8.8 6.7a43.907 43.907 0 0 1-7.7-10.4 26.196 26.196 0 0 1-2-5.3c-.6-1.8-1.5-3.5-1.4-5.4a9.793 9.793 0 0 1 .8-2.8 52.589 52.589 0 0 1 1.5-5.3 97.324 97.324 0 0 1 9.1-16.8c6.9-10.1 15.6-18.6 24.5-26.7a36.725 36.725 0 0 0 3.6 5.7.997.997 0 0 0 .4.5Zm24.1-31.8-3.2 1-5 1.7c-3.7 1.1-7.8 1.6-11.3 3.3l-9.3-3.9-1-.4 7-1c5.2-.9 10.9-1.7 15.8-3.8l2.1-.7a18.615 18.615 0 0 0 4.5-2.7 9.21 9.21 0 0 1 .1 1.6c.1 1.5-.2 3.4.3 4.9Zm-26.3 5.9 5.6 2.4h.2a74.42 74.42 0 0 0 .9 8.1 61.294 61.294 0 0 0-12.3-4.1 44.044 44.044 0 0 0-.5-5.1c-.2-1.3-.2-2.7-.4-4.1 2.2.3 5 2.1 6.5 2.8Zm-38.1-72c-4.2-3.5-4.7-9-4.1-14.1.5-1.3.8-2.7 1.3-4.1a33.32 33.32 0 0 1 4.4-7.8c3.7-5.1 8.7-8.9 14.1-12.1a120.186 120.186 0 0 1 32.4-13 6.114 6.114 0 0 1-.8 2.7 8.611 8.611 0 0 1-3.6 2.3 77.924 77.924 0 0 0-13.6 8.2c-2.3 1.7-5.7 3.4-4.9 6.7.1.8 1.4.6 1.4-.2 0-3.8 9.5-8.2 12.3-9.7a105.249 105.249 0 0 1 11.8-5.5 223.868 223.868 0 0 1 21.9-7.2c-.6 2.5-2.3 4.3-4.5 6h-.1c-6.2 2.4-14.6 5.1-17.3 11.9-.3.7.9 1.4 1.4.8 3.4-4.4 8.3-7.4 13.4-9.6l4.4-1.7c.781-.141 1.55-.342 2.3-.6l1.9-.8 9.6-2.6 2.6-.6c3.2-.8 13.5-4 10 4.3-1.2 2.9-4.3 5.8-6.4 8-4.2 4.4-9.3 7.8-13.5 12.2a.6.6 0 0 0 .7.9 55.88 55.88 0 0 0 5.7-3.3c3.07-2.036 6.4-3.65 9.9-4.8 2.6-.8 4.9-1.7 6 1.4.5 1.5.2 3.7.1 5.3-.5 7.8-3 15.6-5.5 22.9a177.805 177.805 0 0 1-8.9 21.1c-2 4.1-9.6 21.3-15.8 18.7 0-1.3-.1-2.6-.1-3.9 6-.7 10.8-5.5 13-10.9 2.2-5.4 3.3-12.6-.8-16.4-4.1-3.8-10-2.1-13.4 1.5a28 28 0 0 0-3.6 4.9 58.167 58.167 0 0 0-3.4 7.7c-.4 1.3-.9 2.6-1.2 3.9a8.41 8.41 0 0 1-1.7 3.7 2.1 2.1 0 0 1-2.1.6 1.8 1.8 0 0 1-1-.9 3.892 3.892 0 0 1-.5-1.4 83.594 83.594 0 0 1-1.2-9.9c-.2-2.7-.3-5.6-.7-8.3a20.898 20.898 0 0 0-.7-3.6l6-.9h.1c2.7-.5 2.7-4.7-.1-4.4-9.3.8-18.6 2-27.9 3.1-7.1.8-26.9 3.4-25-9a.797.797 0 0 0-.481-.81.798.798 0 0 0-.919.21c-3.9 6.2 2.2 10.3 7.9 12.3-3.8 0-7.6-.5-10.8-3.2Zm6.4 45.3c-.259.619-.56 1.221-.9 1.8h-2.9c-.4 0-1.8.6-1.9 0-.1-.6 1.1-1.3 1.4-1.5l1.9-1.8.3-.2h.4l2.5.2c-.2.5-.6 1-.8 1.5Zm-1-22.5a10.81 10.81 0 0 0 3.1.1l-.3.8a7.69 7.69 0 0 1-1.8 1.8l-.2.2h-.7c0-1-.1-2-.1-2.9Zm9.4 40.8c-2.3-.5-3.7-1.3-4.6-2.6a8.1 8.1 0 0 1-1-3.1c-.4-2.3-.8-4.6-1.1-6.9a6.82 6.82 0 0 0-.2-1.4 204.829 204.829 0 0 0 34.1-3 10.697 10.697 0 0 0 4.8-1.7 3.2 3.2 0 0 0 1.1-2.7c0-2.7-3-3.6-5.2-3.7-11.8-1-24.7.9-36.5 2.7l-.3-5.3s-.1-2.3-.1-4.2c0-1.9-.2-2.9-.2-4.3 0 .3 2.4.5 2.7.4a11.603 11.603 0 0 0 4.8-1.1c1.1-.5.3-2.2-.8-1.9l-1.6.4.2-.3a7.125 7.125 0 0 0 .2-2 19.155 19.155 0 0 0 3.3-.6 2.199 2.199 0 0 0 1-.9 1.8 1.8 0 0 0-1.5-2.7c-1.744.095-3.48.296-5.2.6h-3.5c-.1-1.2-.2-2.4-.2-3.6 4 .1 8.5-.9 12.1-1.2 5.9-.5 13.3-.1 19.1-2l1.3-.5a2.5 2.5 0 0 0 1.4-2.4 1.703 1.703 0 0 0-1.4-1.6c-6.4-1.3-14 .6-20.4 1.2-3.6.3-8.4.1-12.6.8-.2-1.4-.3-2.9-.5-4.3a19.3 19.3 0 0 0 13.4-.5c.3-.1.4-.4.5-.7 10.4 1 20.9-.2 31.2-1.6-.1 1.665-.1 3.335 0 5 .2 2.6.6 5.2.8 7.7.2 2.5-.2 8 1.1 11.3a4.905 4.905 0 0 0 3.041 3.028A4.903 4.903 0 0 0 716 360.6a5.399 5.399 0 0 0 2-2.7c1.9-4.2 3-8.8 5-13 2-4.2 4.4-7.1 8.6-7.9 8.3-1.5 6.3 10.6 4.2 15l-.5.9a13.902 13.902 0 0 1-5 5.2c-1.7 1-3.5 1.5-5.3 2.5-1.8 1-.9.4-1.1.9v.3c-.2 5.9-.6 11.8-.9 17.6-.2 4-.9 7.6-4.4 10.1l-.4.2h-.5a172.742 172.742 0 0 1-29.4 5.3c-5.1.5-10.8 1-15.8-.2Zm1.9-17.4h-.7c-2.5.1-5 .4-7.4.6.069-.31.169-.611.3-.9l1.2-2.1 6.7-.9a10.995 10.995 0 0 0-.2 1.8 6.086 6.086 0 0 0 .1 1.5Zm2.3-1.4v-2.1l5-.5c-.017.768.017 1.536.1 2.3a1.495 1.495 0 0 0 .7 1.2l-5.8.4V376Zm7.4-2.8h1.7l3.4-.2c.3 1.1.7 2.2 1.1 3.3l-6.4.6a1.402 1.402 0 0 0 .6-1.1 18.705 18.705 0 0 0-.4-2.6Zm8 2.8-1.4-3.2h4.6l.9 1.2.6 1c.144.224.353.399.6.5l-2.8.3-2.5.2Zm6.5-1.8a8.36 8.36 0 0 0-.6-1.4l-.2-.3c1.8 0 4.3.2 3.2 2.2a5.592 5.592 0 0 1-2.4.5c.1-.326.1-.674 0-1ZM556 456.1a9.018 9.018 0 0 1-.8 2.1 5.202 5.202 0 0 1-1.3 1.7c-2 2-4.6 2.6-7.4 2.7a16.198 16.198 0 0 1-14.7-7.7c-2.5-4.2-3.4-9-4.7-13.6-.8-3-3.4-9.1-3.1-13.6a5.7 5.7 0 0 1 .9-3.2 62.383 62.383 0 0 0 4.5 16.8c.4.8 1.7.2 1.5-.7-1.133-4.2-2.033-8.5-2.7-12.9-.4-2.5-2.3-10.8-.8-12.7-.6.7 1.6 7.9 1.9 9.2.7 3.6 1.5 7.2 2.1 10.8.3 1.8 3 1 2.7-.8-.8-4.5-1.4-9.1-1.8-13.7-.2-2.2-.5-4.4-.5-6.7.1-4.9 2.8-.2 3.4 1.7 2 7 4.1 13.9 6.1 20.9a45.536 45.536 0 0 0-1.5 9.7.999.999 0 0 0 1.9.5 29.413 29.413 0 0 0 2.9-8.8c0-.1.1-.3.1-.4l.9-4.8a65.905 65.905 0 0 1 2-8.8c.2-.7 1.2-4.1 2.2-3.9 1 .2 1 2.8 1.2 3.5 1.2 5.5 2.3 11.1 3.3 16.6 1 5.5 2.5 10.9 1.7 16.1Zm86.6 51.1c4.9-17.9 10.6-35.5 16.2-53.1l.3-1.2c1.3-4.2 2.7-8.4 3.9-12.6.3-.8-.9-1.1-1.2-.4l-2.7 6.6c-.9 2.5-1.9 4.9-2.8 7.4a1.705 1.705 0 0 0-1.4-.4c-17.1.5-34.1 1.4-51.2 2.8-15.3 1.2-31.2 2.2-46.4 5.2a9.004 9.004 0 0 0 2-3.4c.1-.1.1-.2.2-.2 2.8-4.5-.3-13.4-1.2-17.9 13.1-3 26.1-7.7 39-11.3 12.9-3.6 23.6-7.7 35.6-10.5a243.904 243.904 0 0 1 30.5-5.6 89.23 89.23 0 0 1 21.3.2 66.811 66.811 0 0 1 11.3 2.9 28.8 28.8 0 0 0-3.4 2.7 1.4 1.4 0 0 0-.3 1.5 137 137 0 0 0-25.5 27.2 80.704 80.704 0 0 0-8.6 15.5c-1 2.5-2.2 4.9-3 7.5a14.294 14.294 0 0 0-.5 6.8 45.401 45.401 0 0 0 12.1 21.8 1.899 1.899 0 0 0 2.7-.1l2.2-1.1c2.8-1.6 5.3-3.6 7.9-5.4 2.6-1.8 4.7-2.7 6.2-4.6a1.802 1.802 0 0 0 1.4-1.5c1.2-10.3 1.4-20.5 3.5-30.6a86.199 86.199 0 0 1 3.7-13.2c1.5-4.3 3.7-8.1 5.7-12.1l.9-.2c2.1-.8 4.1-3.3 5.8-4.8 1.7-1.5 3.5-2.5 4.2-4.3l17.3 4.6a122.317 122.317 0 0 1 19 6.6c14 6.3 27.8 13.6 41.2 21.1 24.7 13.9 45.2 33.4 62.8 55.5 10.2 12.8 18.9 26.6 28.7 39.6-4.1 2.5-8 5.8-12.1 8.2-4.1 2.4-6.1 3.4-9.1 5s-3.2 1.8-4.7 2.8c-3.2-7.5-10.9-14.1-16.2-20-7.5-8.3-14.9-16.8-23.7-23.8-14.9-11.8-34.6-18.7-53.5-21.1h-.8c-.8-4.5-1.7-9-2.6-13.5-.2-.7-.3-1.4-.5-2.1a.882.882 0 0 0-.147-.365.89.89 0 0 0-.663-.387.892.892 0 0 0-.39.052c-.5.1-.9.4-.8 1 2 18.7 5.4 37.4 8.6 55.9.4 2.6.8 5.1 1.3 7.6-3.7-1.4-7.5-2.6-11.3-3.8-18.5-5.5-38.3-8.2-57.2-9.4-13.2-.8-26.7-.9-39.9.9-6.7.9-15.8 1.8-22.1 5.7 2.6-11.4 5.4-22.6 8.4-33.7Zm8.9 250.4-12.6-1c-10.1-1.1-20.1-3-30.1-4.5 0-.2.1-.3.1-.5.1-2.3.2-4.6.2-6.9a222.444 222.444 0 0 0 29.1 5.4c4.6.6 9.2 1 13.8 1.3 4.899.35 9.819.249 14.7-.3 0 2.7 0 5.3.1 8-5.1-.7-10.2-1.1-15.3-1.5Zm97.1-36.4c-8.1-18.3-14.2-37.5-21.1-56.3-6.9-18.8-13-35.5-20.8-52.7-2.5-5.6-5.6-10.4-11-13.6a77.487 77.487 0 0 0-25-9.5c-1.4-.3-2.1 1.8-.6 2.2 1.5.4 5 1.6 7.6 2.6 2.6 1 4.2 1.5 6.3 2.4-2.5 7.7-3.4 16.4-4.8 24.3-1.4 7.9-2.7 15.7-4 23.6-2.3 15.1-4.3 30.2-5.7 45.4-1.4 15.2-2.4 31.4-2.7 47.1-.1 3.9-.2 7.7-.2 11.5-4.7-.3-9.5-.4-14.3-.5-4.8-.1-8.8-.3-13.2-.7-10-.9-20-2.4-29.9-4.3.6-17.5 1-35 2.3-52.5 1.5-21 3.7-41.8 6.5-62.6 3.9-28.1 9-56.1 15.4-83.7 3.4-2.1 7.8-3 11.6-3.9a114.438 114.438 0 0 1 16.4-2.7c12.751-1 25.566-.9 38.3.3a277.6 277.6 0 0 1 35.1 5.2c6.4 1.4 12.7 3.1 19.1 4.6 3.7.9 7.4 1.8 11.2 2.5 2.8 15.9 5.7 31.7 9 47.4 7.8 37.3 17.5 74.3 31 110a385.568 385.568 0 0 0 19.6 44.7c-4.6.5-9.2 1.2-13.7 2.1-4.5.9-10.2 2-15.2 3.2-8.3 1.8-17.9 3.2-25.5 7.5-7.6-14.3-15.1-28.7-21.7-43.6Zm74.4 40.9c-2.2-.2-5.7-.7-8.1.2h-.3a106.783 106.783 0 0 0-26.1 3.8 38.098 38.098 0 0 0-13.8 6.9.1.1 0 0 0-.008-.038.103.103 0 0 0-.021-.033.115.115 0 0 0-.033-.021.084.084 0 0 0-.038-.008l-3.3-6.2c12.4-6.1 26.6-8.7 40.5-10.7l13.9-1.9h.1c1.4 2.8 3 5.5 4.5 8.2.103.111.173.25.2.4.1 0 .1.1.1.2a48.972 48.972 0 0 0-7.6-.8Zm-622.5-57.9c-15-4-26-6.5-27.1-24.1-.7-10.5-2.8-21-4-31.5-1.2-10.5-2.5-23-3.9-34.5-2.7-22.5-5.7-45.1-8.6-67.6-3.2-24.3-6.8-49.5-10.6-73.6a2.303 2.303 0 0 0-.4-2.7c-2.5-15.5-5.1-30.9-8.4-46.2-3.3-15.3-6.1-31.3-9.8-46.7-3.7-15.4-9.8-29.6-9.9-45a20.697 20.697 0 0 1 3.3-11.8c.1-.1.3-.2.3-.3 3.6-4.7 10.6-6.6 16-8.5a175.31 175.31 0 0 1 22.5-6.5c15.9-3.3 31.8-6 47.7-9.5a711.022 711.022 0 0 1 71.2-12.4c11.9-1.4 23.8-2.5 35.8-3.1 12-.6 23.4-3.1 33.4 4.5s15.7 20.4 19.7 32.9a378.897 378.897 0 0 1 11.7 48.1c3.3 17.7 5.2 35.5 7.6 53.3 3.8 27.6 9.8 55 11.7 82.9 1.3 19.1 1 38.4.4 57.6-.6 19.2-.4 37.2-1.5 55.7s.1 41-3.6 60.1c-3.1 16.1-17 20.9-30.8 25.2-17.8 5.6-37.2 5.8-55.4 8.1a305.78 305.78 0 0 1-54.1 2c-11.1-.5-22.2-1.1-33.1-2.6v-1a1.219 1.219 0 0 0-1-1.4 1.214 1.214 0 0 0-1.4 1l-.3 1a152.68 152.68 0 0 1-17.4-3.4Zm-29.4 94.5c-.2-5.3-2.4-21.9.5-21.6a2.1 2.1 0 0 0 2.1-1.6c.9-4.1-.1-10.1-4.2-10.4.1-2.6.3-5.1.5-7.6l1.4.3c.284.513.747.905 1.3 1.1 9 3 14.6 13.7 14.4 22.8a17.404 17.404 0 0 1-5.4 12.7c-3.1 2.9-6.7 3.8-10.6 4.3Zm170.8-5c-20.6.8-41 .1-61.6 2s-41.1 2.4-61.6 3.6l-42.9 2.5c7.7-1.5 14.1-10.4 15-17.7 1.2-9.8-3.2-20.8-11.3-26.7l5-.9c7-1.1 13.9-3.5 19.5-8.1 10-8.5 14.8-22.1 16.2-35.1 8.2 1 16.5 1.6 24.8 2 20.301 1.15 40.66.749 60.9-1.2l30.5-3 9.5-.9c11.1 8.6 15.6 24.5 18.1 37.8a152.406 152.406 0 0 1 2.5 23.3c.2 5-1 11.8.5 16.9a1.1 1.1 0 0 0-.3 2 23.406 23.406 0 0 0 8.2 2.3c-11 .533-22 .933-33 1.2Zm40.2-1.4a2.793 2.793 0 0 0 .3-2.5 4.6 4.6 0 0 1 3.3-1.5 4.598 4.598 0 0 0 3.4 3.7l-7 .3Zm7.9-5.7a2.303 2.303 0 0 0-1.7-2.2c-4-.9-10.1.2-10.4 4.3l-7.6-.5c.18-.486.314-.989.4-1.5a2.004 2.004 0 0 0 1-1.2c3-9 13.7-14.7 22.8-14.5a17.597 17.597 0 0 1 12.7 5.4c2.9 3.2 3.8 6.7 4.3 10.7-5.2.1-21.8 2.3-21.5-.5Z"/></svg>