<svg xmlns="http://www.w3.org/2000/svg" fill="none" viewBox="0 0 1000 1000"><path fill="#FC5B61" d="M868.2 473.5a9.004 9.004 0 0 0 .1-4 10.005 10.005 0 0 0-1.6-3.5l-1.1-1.2a6.498 6.498 0 0 0-4.2-1.6 7.999 7.999 0 0 0-3.8 1 7.296 7.296 0 0 0-3.2 3.5.1.1 0 0 0 .038-.008.115.115 0 0 0 .033-.021.115.115 0 0 0 .021-.033.1.1 0 0 0 .008-.038 6.403 6.403 0 0 0 .2 4.8c1.1 3.6 5.4 5.6 10.3 4.1l.7-.4.4-.2.7-.5a3.302 3.302 0 0 0 1.4-1.9ZM794.8 414.2a2.904 2.904 0 0 0-.7 2c.2 1.5 2 2.6 3.6 3.3 3.3 1.6 10.8 2.7 12.1-2.2 1.3-4.9-4.2-6.6-8.2-6-2.3.4-5.4.8-6.8 2.9Z"/><path fill="#DBDBDB" d="M814.7 165.9c2.5-.7 23.9-5.8 19.8-10.2-2.2-2.3-7.7.2-9.9 1.1a82.896 82.896 0 0 0-12.6 6.4c-3 1.7-5.9 3.5-8.8 5.4 3.9-1.1 8-1.8 11.5-2.7ZM829.6 104.7c-2.2-2.1-7.6 1.2-9.4 2.4-7.6 4.8-13.8 11.8-19.7 18.4-1.7 1.9-3.4 4.3-5.2 6.6 7.4-6 16.7-9.2 24.5-14.6 2.3-1.5 12.9-9.7 9.8-12.8ZM820.7 191.9c-2 .3-3.9 1.6-5.8 2.4-4.3 1.8-8.7 3.2-13 4.8-4.3 1.6-8.3 3.7-12.4 5.7 11.4-2.2 23.9-2.8 33.3-9.6 2.9-2.1 1.4-3.8-2.1-3.3ZM775.8 235.3c1.4-.3 8-2.2 4.8-3.7s-8.1.5-10.6.9c-4.4.8-8.9 1.9-13.3 3l-10.8 2.8c5.3 0 10.7-.6 15.9-1a82.955 82.955 0 0 0 14-2ZM773.2 134.6c-5.6-.5-13.8 9.4-16.7 12.4a29 29 0 0 0-2.4 2.7c6.8-4.5 13.9-8.6 19.1-15.1ZM770 94.2c-.5-3-6.6 4.2-7.4 5.4-.8 1.2-2.7 4-4.2 6s-3.6 5-5.5 7.4c2.5-2.4 5.3-4.6 7.9-6.9 2.6-2.3 9.9-7.9 9.2-11.9ZM753.9 185.6c1.1-.6 9.3-5.3 6.3-6.4-1.5-.6-4.6 1.9-5.9 2.6-1.3.7-4.3 3-6.6 4.2a37.289 37.289 0 0 0-3.7 2.3 70.098 70.098 0 0 0-9.1 7.4c1.9-1.2 6.9-3.4 7.7-3.8l11.3-6.3ZM704.5 232.4c9.2-3 20.8-6 28.1-12.6 1-.9 2.4-2.2 2.4-3.6s-3.4-2-5.2-1.7c-5.2 1.1-10.2 3.7-14.8 6.2-10.2 5.3-19.9 10.8-28.9 17.7 5.9-2.4 12.4-4 18.4-6ZM720.6 150.9a65.536 65.536 0 0 0-8.6 9.6c-2.2 2.8-4.2 5.6-6.3 8.4l6.8-5.4c3.3-2.8 6.6-5.6 9.6-8.5 1.4-1.3 5.7-4.6 5.7-6.6s-6.1 1.5-7.2 2.5ZM713.1 128.5c3.7-3.5 8.1-6.4 10.8-10.7.6-.9 2.9-4.9 1.7-5.7-1.2-.8-3 1-3.6 1.5a24.492 24.492 0 0 0-4.3 4.2c-2.5 3-4.4 6.3-6.7 9.4-3.6 5.1-7.7 9.7-11.4 14.7 4.5-4.5 8.8-9.1 13.5-13.4ZM665.3 267.8l4-.6c8-1.2 16-2.1 24-3.1l5.4-.8 2.6-.4c4.4-.7 8.9-1.5 13.2-2.6 1.6-.4 4.5-.9 6.1-1.8l.6-.5a2.7 2.7 0 0 0 1-1.3c.2-.8-1.1-1-2.4-1l-2.2.2-4.5.5a205.77 205.77 0 0 0-31.2 6.5l-15.4 4.2-5.1 1.3 3.9-.6ZM714.7 192.3c-5.2.8-9.8 6.1-13.3 9.4-3.5 3.3-7 7.1-10.5 10.6 3.1-2.3 6.1-4.8 9.2-7.3 5.1-4 10.7-7.4 14.6-12.7ZM680.6 189c-6.1.5-10.1 8.7-13.2 13.1-3.1 4.4-7.4 8.8-10 13.5a136.373 136.373 0 0 0 12.3-10.5c4.3-4.2 10.4-9.7 10.9-16.1ZM642.8 253.8c6.6-4.1 16.4-9.4 20.2-16.8a7.721 7.721 0 0 0 .7-1.6l.2-.6a5.297 5.297 0 0 0 .4-1.6c-.1-.2-.2-.5-.4-.6h-1.1a4.49 4.49 0 0 0-1.8.7l-.4.3-1.3 1.1-1.3 1.1-1.7 1.8-5.5 5.4c-1.8 1.9-3.5 3.8-5.3 5.6l-3.8 3.9-3.9 3.6-2.6 2.4 5.1-3.1 2.5-1.6ZM533.6 588.9a61.19 61.19 0 0 0-24 7.1l-1.1.6 2.4-.4a.901.901 0 0 1 .5 1.7c-8.2 4.1-14.1 9.5-19.6 16.7-.7 1-2.2.3-1.9-.7a42.346 42.346 0 0 1-4 3.4c0 .1-.1.2-.1.3 0 .1-2.3 2.3-3.5 2.9a11.7 11.7 0 0 1-4.4 1.3 1.099 1.099 0 0 1-1.1-1.5 9.505 9.505 0 0 1-6.8-3.5c-1.7-2.2-4.1-5-4.7-7.9-1.8 3.6-2.6 7.5-1.4 11.4 2.6 8.3 14.1 6.4 20.3 4.5 15.3-4.7 24.9-18.4 38.5-26.2 5.4-3 13.6-6.6 21.4-7.6-2.3-.8-4.5-1.5-6.8-2.1h-3.7ZM488.3 696.3a44.884 44.884 0 0 1-2 6.2c-1.3 3.3-3.7 7.3-7.6 7.5a6.499 6.499 0 0 1-5.9-3.1c.7 4.5 3.1 7.9 8.7 7.8 8.8-.2 11.2-11.4 12.2-20 .2-2.1.3-4.1.5-5.6.4-5.1.8-10.3 1.7-15.4a46.487 46.487 0 0 1 2.9-10.3 22.803 22.803 0 0 1 5.5-7.5c.2-.2.5-.4.6-.7a.803.803 0 0 0-.3-.9 1.102 1.102 0 0 0-.8.1c-2.6 1-4.2 2.9-6.3 4.6l-1 .9c-4.7 7.1-5.4 18.5-6.4 25.5a103.271 103.271 0 0 1-1.8 10.9Zm3.7-1.7v.2a13.125 13.125 0 0 0-.9 3.4c-.1 1-.1 2-.2 3a.5.5 0 0 1-1 0 8 8 0 0 1 .1-4.6 7.909 7.909 0 0 1 .9-2.3.6.6 0 0 1 1.1.3ZM444.8 781c1.5 4.1 5.2 10.1 5.2 15.1a8.008 8.008 0 0 1-.4 2.7c-1.6 4.9-8.3 7-13.4 6.1a8.605 8.605 0 0 0 8.5 3.2c5.8-1 7.4-6.3 7.3-12-.1-5.7-1.4-10.4-2.3-13.7-2-7.6-7.8-14.7-6.1-22.1-3 6.4-1.2 14 1.2 20.7ZM423.8 700.2l-.6 2.5a24.312 24.312 0 0 1 2.8-6.1 1.03 1.03 0 0 1 1.35-.55 1.032 1.032 0 0 1 .55 1.35 74.413 74.413 0 0 1-5.8 18.8 26.797 26.797 0 0 1-11.2 13.2c-1.1.7-.9-.9.2-1.6 5.9-3.8 7.6-9.7 9.7-16.3l.3-1c-3.4 10.3-9.2 20.8-20.4 20.4a2.1 2.1 0 0 0 .6 1 6.697 6.697 0 0 0 3 2.6h.3l.7.2c6.1 1.8 15-4 18.7-10.1 6.4-10.6 6.7-23.8 9.7-35.6 2.1-8 5.3-19.8 12.5-25.4l-2.9 1.1c-11.4 9.2-16.3 21.6-19.5 35.5ZM381.3 787.4c-3.8 7.5-4.3 17.1-3.3 25 .453 2.647.754 5.318.9 8a11.001 11.001 0 0 1-2.3 7.5 6.6 6.6 0 0 1-4.2 2.3 8.297 8.297 0 0 0 2.1 1.6c2.9 1.5 5.2 0 5.9-2.8 1.9-7.4-1.2-14.2-1.4-21.4a53.8 53.8 0 0 1 1.2-11.4c.2-1 .5-1.9.7-2.9.2-1 .5-1.9.7-2.9.2-1 .6-4.1 1.4-5l-1.7 2ZM355.8 665.5c.24.16.514.262.8.3 1.7.4 3.7-.7 5.2-1.5a46.11 46.11 0 0 0 9.4-7.6l4.7-5.2 4.8-5.8c4.8-5.8 9.8-11.4 16.4-14.8-2.7.6-5.4 1.2-8.1 2a63.406 63.406 0 0 0-8.2 6l-2.9 2.3a205.376 205.376 0 0 1-21.4 15.1l-.5.3c-.9 2.1-2.4 5.6-1.5 7.4a3.193 3.193 0 0 0 1.3 1.5Zm18.4-19.1c.8-.8 1.6-1.5 2.3-2.3a13.12 13.12 0 0 1 2-2.1.704.704 0 0 1 .864-.032.703.703 0 0 1 .236.832c-.095.505-.3.983-.6 1.4a19.5 19.5 0 0 1-3.4 3.6.999.999 0 0 1-1.4-1.4Zm-13.3 13.3c.7-1.6 2.9-2.6 4.1-3.7 1.2-1.1 2.9-2.9 4.4-4.4a.697.697 0 0 1 .789-.025.698.698 0 0 1 .311.725 12.402 12.402 0 0 1-3.8 5c-1.3 1.1-3.2 3.1-4.9 3.2h-.2a.703.703 0 0 1-.679-.501.703.703 0 0 1-.021-.299ZM234.6 332.8a73.23 73.23 0 0 1 9.3-3.3c2.7-.7 5.5-1.4 8.2-1.9 2.7-.5 5.5-.9 8.2-1.2-1.5-.1-3 0-4.5 0a98.595 98.595 0 0 0-19.5 2.8 90.81 90.81 0 0 0-9 2.2l-4.1 1.3-1.4.6a9.32 9.32 0 0 0-2.6 1.5 5.01 5.01 0 0 0-1.6 2.2 1.4 1.4 0 0 0 0 .9v.2h1.3l.9-.3.9-.3 4.8-1.6 5.1-1.6.8-.2 3.2-1.3Zm-16.4 5.3h-.3c0-.1.1-.2.2-.3a.305.305 0 0 1 .093.136c.017.053.02.11.007.164ZM229.9 302.5a80.715 80.715 0 0 0 7.9 3.7l5.4 2.2 8.3 3-4.6-2.5-4.1-2.3c-2.8-1.5-5.5-3.1-8.3-4.8l-4-2.5c-3.6-2.2-7.2-4.7-11.1-6.7l-2.3-1.1a31.16 31.16 0 0 0-4.8-1.8 54.43 54.43 0 0 0-8.3-.9h-2.6l-1.2.2c-2 .4-3 1.4-1.7 3.3a8.697 8.697 0 0 0 3.5 2.6l1.8.7c2.9.9 6.2 1.5 8.4 2.2a33.823 33.823 0 0 0 5.5 1.3l3.4.5a31.395 31.395 0 0 1 7.8 2.2l1 .7ZM143.3 324.1c-2.3.7-7.5 1.8-8.8 4-2.7 4.5 5.5 3.1 7.3 2.9 1.8-.2 5.2-1 7.7-1.5 6.5-1.4 13-2 19.5-3l23-3.8 7.7-.9c-9-.2-18.1-.9-27.1-1.1a122.78 122.78 0 0 0-20.1 1.3 58.334 58.334 0 0 0-9.2 2.1ZM176.5 365.1c-7.2 3.1-14.2 6.5-20.4 11.6a74.183 74.183 0 0 0-11.3 11.8c-1.5 2-3.5 4.5-3.9 7.1-.4 2.6.8 3.2 2.8 1.8 5.1-3.6 8.6-9.4 12.8-13.9a158.123 158.123 0 0 1 20-18.4ZM144.9 270.9a81.627 81.627 0 0 0 19.4 5.1c-10.5-5.8-18.5-16.6-29.4-21.5-2.3-1.5-4.6-1.2-6.8.8a12.58 12.58 0 0 0 1.3 4.3 15.695 15.695 0 0 0 3.2 4.1c3.4 3.3 7.9 5.5 12.3 7.2ZM77.8 293.4c10.7 8.5 26.7 6.7 39.6 7.4 12.9.7 27.1 1.5 40.6 2-9.8-2.5-19.5-6.4-29-9.3-9.5-2.9-18.5-4.8-28.1-4.9-5.4-.1-18.7-.3-23.1 4.8ZM104 371.7c-2.5 1.7-10.1 6.5-9 10.4 1.1 3.9 15-4.1 17.1-5.4 8.8-5.1 17.2-11 25.7-16.6 3.7-2.6 7.5-5.3 11.4-7.8-10.9 4.1-22.4 6.9-32.8 12.2a108.287 108.287 0 0 0-12.4 7.2ZM82.9 437.7c6.6-7.2 12.4-14.9 18.9-22.1a81.71 81.71 0 0 0-6.4 5.3c-3.5 3.1-13 10.7-12.5 16.8ZM57.5 251c5.3 1.198 10.681 2 16.1 2.4l22.1 1.7c-7.2-2.9-14-7.2-20.9-10.7a136.644 136.644 0 0 0-16.2-7c-4.1-1.5-17.8-4.4-16.7 3.5.8 5.7 10.9 8.9 15.6 10.1ZM45.5 345.1c11.1-4 22.2-7.9 33.5-11.1l-8.5-.8a92.775 92.775 0 0 0-19.7.6 84.7 84.7 0 0 0-14 2.8c-3.1 1-11.7 5.3-10 10 1.7 4.7 15.2-.3 18.7-1.5ZM28 416.9c-2.6 5.8 5 1.5 6.8 0 1.8-1.5 4.2-3.8 6.2-5.8 4.9-4.9 10-9.7 15.3-14.2-5 2.1-10 4.2-14.5 7.3-4.5 3.1-11.4 7.5-13.8 12.7Z"/><path fill="#FC5B61" d="M959 882.1c-3.2-2.4-7.8-4.5-11.9-7.1l-1.3-.9a.499.499 0 0 1-.2.4c-1.2.6-2.3.4-3.5.8a19.007 19.007 0 0 0-4 1.4l-2 1.1 2.3 1.7.8-.6c2-1.5 4.6-3.5 7.1-3.9.27-.069.555-.033.8.1a.897.897 0 0 1 .457 1.137.89.89 0 0 1-.257.363c-1.8 1.6-4.2 2.6-6.2 4l-.4.3c2.5 1.4 5.2 2.6 7.8 3.9a61.703 61.703 0 0 1 24 21.9c2.6-8.5-7.4-20.1-13.5-24.6ZM934.2 876a16.5 16.5 0 0 1 2.2-1.4c1.9-1 5.1-2.3 7.6-1.9a27.578 27.578 0 0 1-3-2.9 60.919 60.919 0 0 1-9.4 3.1c.8.9 1.5 1.9 2.3 2.9l.3.2ZM934.9 867.5c1.9-.4 5.6-.7 6.1-3.1.5-2.4-3.6-5.4-4.8-7.1a95.346 95.346 0 0 1-7.2-10.7 207.901 207.901 0 0 1-13.4-28.2 42.406 42.406 0 0 1-12.4 5.2c10 6.9 22.7 23.3 19.1 36.3-1.1 4.1-5.4 6.2-9.3 7.8-8.1 3.3-16.2 6.2-24.5 8.7l3.7 3.8c.474.073.903.323 1.2.7 3-5.3 17.3-7.8 20.6-8.6 7-1.6 14-3.1 20.9-4.8ZM929.2 431.2c-.486.519-1.022.988-1.6 1.4a.596.596 0 0 1-.733 0 .587.587 0 0 1-.167-.2c-1.7.9-3.6 2-4.3 2a2.699 2.699 0 0 1-2.9-1.1l-.6 1.2a10.48 10.48 0 0 1-1.7 1.9c-.287.32-.625.59-1 .8h-.7a20.922 20.922 0 0 1-1.4 3 25.48 25.48 0 0 1-1.6 2.8l-.9 1.3c-1 1.3-2 2.5-3.1 3.7h.6c.1 0 .2 0 .2-.1h2.2l.9-.2.8-.2.8-.2a39.57 39.57 0 0 0 6.9-2.2l2.1-1.1a36.301 36.301 0 0 0 8-5.4l1.8-1.7a33.912 33.912 0 0 0 4.4-5.6l-.9-.6c-2.6-1.8-4.8-.7-7.1.5Zm-7.2 8.2c-1 1.2-2.1 2.3-3.1 3.4s-1.7 2.6-3 2.6a.913.913 0 0 1-.433-.203.906.906 0 0 1-.267-.397c-.5-1.3 1.2-2.5 1.9-3.4.7-.9 2.3-2.3 3.4-3.6 1.1-1.3 2.4.5 1.5 1.6ZM897.5 395.8c3.1 9.2 5 19.4 4.4 29.1-.3 6-1.3 11.8-5.6 16.4a12.61 12.61 0 0 1-5.1 3.5c-.9.4-2 .5-2.6 1.3a2.297 2.297 0 0 0-.3 1.1c-.1.6 0 1.3-.1 2s0 .2-.1.2a1.2 1.2 0 0 1-2.3.3l-.3-.3c0-.1-.1-.2-.2-.3-1.8 1.1-2.2 3.6-5 2.8a1.797 1.797 0 0 0-1.4-.2 1.3 1.3 0 0 0-.6 1.2 13.204 13.204 0 0 1-4.3 7c-.5.4-8.4 4.4-8.4 4.9l1.1 1.2a10.005 10.005 0 0 1 1.6 3.5 9.004 9.004 0 0 1-.1 4 3.302 3.302 0 0 1-1.4 1.9c5.8-3.9 14.8-10.5 20.3-14.9l3.7-2.9c2.4-1.9 4.8-3.7 7-5.6a31.138 31.138 0 0 0 3.3-2.9l1.6-1.5 2.9-3.3a38.826 38.826 0 0 0 5.9-9.9c4.1-9.7 3.2-19.3-.5-27.9a42.622 42.622 0 0 0-4.3-7.8l-1.7-2.5a53.717 53.717 0 0 0-5-5.7 3.7 3.7 0 0 0-2.5 5.3ZM839.6 673.8c4.6 1.3 7.3 4.8 10.2 8.6a256.724 256.724 0 0 1 23.5 38.1c6.4 12.5 9.2 25.2 13.7 38.5 1.6 4.9 3 10 4.5 15a66.252 66.252 0 0 1 1.8 11 37.437 37.437 0 0 1 9.9-2.2.503.503 0 0 1 .5.3c.1.2 0 .6-.3.6a87.539 87.539 0 0 0-10.3 3.1c-.1.3 11.4 12.7 14.6 20.9 1.2 3.1 2.4 6.4 1.9 9.7a1.903 1.903 0 0 1-.2.8 40.758 40.758 0 0 0 5.1-2.6c-4-10.7-7.4-21.6-10.6-32.6-3.2-11-5.4-19.6-8.1-29.3-4.2-15.1-8.6-30.2-12.8-45.4a1.096 1.096 0 0 1-.9.8c-9.3 1.3-14.8-8.9-18.1-16-4.2-8.9-6.5-18.4-9.9-27.5h-.3a124.198 124.198 0 0 1-23.2 5.5 161.117 161.117 0 0 1-19.6 1.2l8 .4c6.4.4 14.5-.6 20.6 1.1ZM885.9 502.9c-.6 10.2-.3 18.2-5.5 27.2-4.3 7.4-10.1 14-16 20.2-10.5 11.1-24.1 21.2-36.4 30.3-12.3 9.1-28.2 18.5-44.6 21.6-4.7.9-10.7 2.5-11 7.3-1.6 1.1-3.7-.3-4.9-1.8-1.2-1.5-2.4-2.8-4-2.9a.401.401 0 0 1 .1.3 6.09 6.09 0 0 0 .3 3.3c.4 1 1.3 1.9 1.5 2.9a1.105 1.105 0 0 1-.762 1.277c-.175.052-.36.06-.538.023-2.3-.8-3-3.8-3-6.2a3.903 3.903 0 0 0-.2 2.4 9.693 9.693 0 0 0 2.5 4.1c0 .1-3.7 4.1-6.6 7.3a2 2 0 0 1 2.5.2 38.114 38.114 0 0 1 3.3 3.6l1.1 1.1c2.9 2.3 6 1.1 6.3-2.7a9.493 9.493 0 0 0-1-4 1.501 1.501 0 0 1 1-1.7l1.3-.5a1.498 1.498 0 0 1 1.8 1c.3 1 .6 2.7 1.4 3.4.8.7 2.5.1 2.9-1.4.187-.854.22-1.734.1-2.6a2.793 2.793 0 0 1-.1-.9c-.1-.3-.1-.6-.2-.9-.1-.3-.1-1.1-.1-1.6a.699.699 0 0 1 .1-.5.996.996 0 0 1 .5-.6c.2-.2.5-.2.8-.3h1.8c1.7 0 2.9.1 4 1 .649.36 1.198.876 1.6 1.5l1.2 1.3h.2c.3.1.7-.3 1.5-.8l.7-.4.3-.3c.6-.6 1.1-1.2 1.6-1.6 2.4-1.9 5.1-2.6 7.9-3.5l2.7-1c2.7-1.2 5.3-2.7 8-4l2.7-1.4 3.2-1.6c2.1-1.1 4.3-2.2 6.3-3.4 2-1.2 4.2-2.4 6.2-3.7 2-1.3 6.1-3.9 9-6l2.8-1.9a190.056 190.056 0 0 0 8.4-6 87.935 87.935 0 0 0 10.4-8.8c5.8-5.9 12.5-10.7 18.4-16.5a49.61 49.61 0 0 0 9.5-13.4 39.9 39.9 0 0 0 3.3-12.4c.8-8.26.088-16.596-2.1-24.6l-.9-3.4h-.3c-.7.2-.9 1.2-1 2Z"/><path fill="#FC5B61" d="M870.8 659.9c-4.7 2.7-10.2 3.8-15.4 5.3 4.3 11 17.2 49.1 26.4 40h.3a1.103 1.103 0 0 1-.1-.5c-4-14.9-8.3-29.9-10.6-45.1l-.6.3ZM809.8 494.2c17.5 11.4 38.1 3.7 53.9-7 4.6-3.2 9.1-6.6 13.5-10.1l-1.3-2.4a1.903 1.903 0 0 1-.2-.7c-2.6 1.9-5.1 3.9-7.8 5.7-2.7 1.8-6.5 4.2-10 6.2a95.127 95.127 0 0 1-9 4.6l-3.7 1.6-3.9 1.4a41.055 41.055 0 0 1-5.7 1.7l-3.9.8a56.987 56.987 0 0 1-5.8.6h-2l-3.8-.2-1.9-.3a31.386 31.386 0 0 1-9.3-2.9 3.8 3.8 0 0 0 .9 1ZM870.4 649.9a6.302 6.302 0 0 0-2 1.3c-6.1 1.1-12.1 3.4-18.2 4.7a139.842 139.842 0 0 1-21.3 2.9c-14.2.8-28.2-.6-42.3-2-14.1-1.4-27-2.4-39.8-6.6-5.6-1.8-12.2-4.3-16.5-8.5-1.8-1.7-2.9-4.3-4.2-6.5l-5.1-.2-8.7-.3c17.1 23.7 52.2 29.4 79.3 32.3 18.2 1.9 37.2 1.8 54.9-3.4 6.4-1.8 13.2-3.5 19.3-5.9 3.2-1.2 6.8-2.9 8.7-5.9 1.9-3 2.2-17.5-3.9-17.4h-.5a.402.402 0 0 1-.5-.1 16.614 16.614 0 0 1-4.5 3.2 17.5 17.5 0 0 1 4 7.3c.4 1.7.8 3.4 1.3 5.1ZM873.7 658.9a6.88 6.88 0 0 1 .2-1.3l-.4.4c.018.309.086.613.2.9Z"/><path fill="#FC5B61" d="m861.3 575.8-.2.2c-.3 2.8-.3 5.8-.5 8.3-.4 6.9-1.1 13.8-2 20.6a87.13 87.13 0 0 1-4.4 18.8 63.64 63.64 0 0 1-2.9 7.2 19.697 19.697 0 0 1-4.7 6.4 3.992 3.992 0 0 0-1.6 3.1l2.3-.5 8.6-2.2a51.995 51.995 0 0 0 7-2.3l.3-.2 2.2-1.1c1.2-.7 2.8-1.7 3.3-3.2.16-.586.228-1.193.2-1.8l-.2.2c-3.9 3.6-10.6 2.6-15.4 3.8a1.602 1.602 0 0 1-1.584-.476A1.6 1.6 0 0 1 851.4 631a.997.997 0 0 1 .4-.5c4.4-4 11.4-.3 15.6-4.5 4.2-4.2 2-8.1 2-11.9v-1.4c0-3 .3-6 .5-9 .6-7.2 1.8-14 3.1-21.1 0-.3.1-.7.1-1.1l.6-6.1c.3-3.8.4-7.6 1-11.3-1.6 1.2-3.2 2.4-4.7 3.7-1.5 1.3-5.7 5.5-8.7 8ZM865 476.5c-4.9 1.5-9.2-.5-10.3-4.1a6.403 6.403 0 0 1-.2-4.8.1.1 0 0 1-.008.038.103.103 0 0 1-.021.033.115.115 0 0 1-.033.021.1.1 0 0 1-.038.008c-1.4 2.2-2.2 4-1.9 9.1.2.4-9.1 5.2-10 5.6a52.768 52.768 0 0 1-10.9 4 42.21 42.21 0 0 1-11.8 1c-1.9 0-9.9-1.2-10.9.5l.6.4.5.2h.2a34.321 34.321 0 0 0 7.4 2.9l1.5.3 2.9.5c1.894.183 3.8.217 5.7.1.941-.001 1.88-.101 2.8-.3l1.4-.2 2.8-.6a57.4 57.4 0 0 0 7-2.3l1.3-.5 4.1-1.9 4.1-2.1 2.6-1.5 1.4-.7 8.8-5.2 1.1-.6-.1.1ZM740.3 807.1l.7-.4c-.1-6-.1-12-.2-17.8a184.607 184.607 0 0 1 3.7-41.3 165.295 165.295 0 0 1 12.5-37.5c5-10.1 11.7-18.5 18.5-27.2a115.886 115.886 0 0 0-9.5-10.4l-.3-.3-.4.4-.6.6c-16.5 15.3-27.2 36.5-33.6 57.8a148.222 148.222 0 0 0-6 39.1c-.1 11.7.3 25.3 5.5 36.1a.804.804 0 0 1-.2 1c.211.484.379.986.5 1.5 3.6.3 7.1.1 9.4-1.6ZM738.9 622.4l-1.1-.5a37.473 37.473 0 0 1-8.8-6.6c2.2 5.2 5.1 10.5 9.6 13.6a12.8 12.8 0 0 0 13.7.1 7.805 7.805 0 0 0 3.8-7.3c0-.1.1-.2.1-.3.021-.244.089-.482.2-.7l-1.2 1.4c-4.7 2.9-11.2 2.6-16.3.3ZM751.3 517.7c.7-2 1.6-6.1 2.8-9.9l-1 2-4.2 7.9c-2 4-4 8.1-5.8 12.1-1.8 4-3.7 8.2-5.3 12.4-1.6 4.2-2.5 13.4-5.7 18.8h4.2a2.202 2.202 0 0 1 1.7 2.1c0 2.5-.3 5.3 1 7.5.226-.337.395-.708.5-1.1a6.56 6.56 0 0 0 .4-1.3c.5-2 .6-4.2 1.3-6a173.47 173.47 0 0 1 5-26.8c1.5-5.9 3.2-11.8 5.1-17.7ZM741.8 811.4c-2.1-1.1-7.3.9-9.7.8h-.8a6.103 6.103 0 0 1-.3 1.3c-1.6 5.4-6.6 5.7-11.3 6.2-4.7.5-10.7 1.8-16.1 2.3a.605.605 0 0 1 .092.671.605.605 0 0 1-.592.329c-9.2 1.7-19.3 2.9-28.7 1.7-5.1-.7-11.7-1-16.1-4.3 2.4 7.9 22.6 8.3 38.1 7.6 7.7-.4 14.2-1 16.9-1.2a56.466 56.466 0 0 1 14.2.8c3.8.6 10.9 2.5 14.1-.4l.2-.2c2.6-2.9 3.7-13.5 0-15.6ZM711.2 939c-63.6 15.5-131.4 8.6-196.4 10.8-36.3 1.3-72.7 1.6-109 .7-30.3-.7-60.5-1.9-90.8-3.7-18.9-1.1-38.6-1.9-58.2-3.9-23.5-2.3-46.7-6.2-68.2-13.9-9.1-3.2-24-7-30.4-14.6a11.762 11.762 0 0 1-1.7-2.4c1.5 8.4 9.7 12.9 17.1 18a164.526 164.526 0 0 0 33.7 17.8c20.6 7.8 42.4 11.7 64.3 13.7 43.6 4.1 87.4-1.6 131-.8 19.2.4 38.4.7 57.6 1.4 13.8.5 27.5 1.3 41.3 2.1 27.4 1.5 55 3.2 82.5 3.5 3.8 0 7.7.1 11.6 0 40.7-.2 80.7-4.5 119.2-18.3a66.397 66.397 0 0 0 14.3-6.6c6.8-4.5 12.7-11.4 12.2-19.2-3.8 10-21.3 13.3-30.1 15.4ZM716.7 631.4l6.2.2c3.7.2 7.5.1 10.8-1.3a34.796 34.796 0 0 1-7-9.9c0-.2-.1-.3-.1-.4a25.468 25.468 0 0 1-1.1-2.4l-6.8-.5c-10.6-.6-29-1.3-31.6-1.3-27.3.3-53.7 2.2-79.4 12.1-12.4 4.8-24.8 10.3-38.1 10.7a4.203 4.203 0 0 0-2.2.5c-.1 5.7 21.3 0 23.7-.4 16.4-3 32.5-7 49.3-7.4H655c.652-.2 1.349-.2 2 0h59.7v.1Zm-83.6-6.6c-1.8.8-4 .8-5.9 1a25.77 25.77 0 0 1-6.8.2c-.9-.1-1.4-1.6-.2-1.8l6.5-.7c2.1-.2 4.3-.6 6.4-.1a.7.7 0 1 1 0 1.4Zm52 0c-13-.3-25.7-.4-38.7.8-1.2.2-1.4-1.7-.3-2 12.1-3.7 25.7-2.4 38.1-2.3 7.1.1 14.2-.2 21.3-.7 4.1-.2 8.7-.9 13-.6 2.046.048 4.071.419 6 1.1l.3.2c.2.3.1.6-.3.8-5.7 2.3-12.9 1.9-19 2.3-6.1.4-13.6.6-20.4.4ZM722.3 884.9c-5.5 5.7-14.2 4.3-21.1 6.9a21.807 21.807 0 0 0 7.4 3c5.7-.2 12.2-1.4 15.5-6.3 1.5-2.3 2.9-6.1 1.7-8.9a5.51 5.51 0 0 0-1-1.6c.4 2.2-.3 4.6-2.5 6.9ZM772.1 390.1c-6.7-5.5-14.6-8.8-21.8-13-7.2-4.2-13.7-1.5-19-5.9-1.2-1-2.3-2.4-3.9-2.9a13.062 13.062 0 0 1-2.7-.6c-1.6-.6-2.1-2.1-2.5-3.9-.4-1.8-.8-3.6-1.9-4.8-1.1-1.2-6-1.6-7.9.6-1.9 2.2-1.5 2.5-2.3 3.7-2.7 3.6-5.3 1-7.6-1.8a29.394 29.394 0 0 0 .2 9.8c.074.546.208 1.083.4 1.6l.6 1.5a4.898 4.898 0 0 0 2.9 2.9l.7.2h.8a3.299 3.299 0 0 0 2.6-1c.323-.301.564-.68.7-1.1.336-1.033.505-2.113.5-3.2-.022-.37.012-.74.1-1.1 0-1 .1-2 .2-3a8.903 8.903 0 0 1 1.8-4.6 3.503 3.503 0 0 1 1.9-1.3h.7c.5-.042 1.003.046 1.458.257.456.21.85.535 1.142.943h.2c.1 0 .3 0 .3.2-.1 2.8-1.6 5.1-2.5 7.7-.1.222-.168.458-.2.7a7.308 7.308 0 0 0-.4 2.5 6.105 6.105 0 0 0 .4 2.4 4.2 4.2 0 0 0 3.2 2.5c3.3.7 2.1-6.9 7.1-6.3a1.7 1.7 0 0 1 1.5 1.2c.5 1.7.3 3.4.5 4.8.023.169.057.335.1.5.077.541.282 1.056.6 1.5a4.889 4.889 0 0 0 2.1 1.5 8.101 8.101 0 0 0 2.2.7l3.3.8c1.137.195 2.246.531 3.3 1 5.3 2.3 10.1 6 14.6 9.9l6 5.4a154.48 154.48 0 0 1 11.7 11.1 76.038 76.038 0 0 1 6.2 7.6 42.433 42.433 0 0 1 4.8 8c.1.2.3.3.5.5l.3-1.1a9.825 9.825 0 0 1 .5-1.6l.6-1.6c1.1-3.2 2.5-6.5 3.4-9.8l-4.1-7c-3.6-6.1-7.7-11.9-13.3-16.4ZM666.9 337.4a.702.702 0 0 1-.3-1.1c-2.3-1-4.7-2-7.1-2.8l.9.6c.5.5-.1 1.2-.7 1.1-4.3-.8-8.3-2.5-12.7-3.2a118.019 118.019 0 0 0-14.6-1 .9.9 0 0 1-.6-.3l-1.6.3a36.911 36.911 0 0 0-16 8.7c-3.3 3-9 7.2-8.9 12.2h.6l2.2-.3c5.8-1.6 10.1-8.1 15.1-11.3l1.6-1a31.296 31.296 0 0 1 12.7-3.5h1.8c2.918.009 5.829.277 8.7.8l1.7.3 3.3.9 3.3 1.1a81.87 81.87 0 0 1 8.2 3.2 129.98 129.98 0 0 1 29.8 17.8l3.8 3.2a55.94 55.94 0 0 1 .7-5.9c-3.9-3.4-8.1-6.4-12.3-9.4-6.7-3.1-13.2-7.2-19.6-10.4ZM613.5 327.8c-2.3-2.7-9.9-.9-12.3.7a57.149 57.149 0 0 0-5.7 3.9c-1.5 1.2-4.4 3.6-5.5 5.3a6.197 6.197 0 0 0 3-.7l.8-.4 2-1.2c2.1-1.2 4-2.7 6-3.9l1.1-.6 1.1-.6 2.1-.8 2.3-.4h1.7c.535.15 1.041.387 1.5.7l.4.5.3.4c.249.36.42.769.5 1.2.083.361.116.731.1 1.1.411-.345.721-.794.9-1.3.6-1.7.4-3-.3-3.9ZM587.3 642.9h-.2v.4c0-.1.1-.2.2-.4ZM324.8 820.5a17.813 17.813 0 0 1-1.1 5.3 17.593 17.593 0 0 1-2 7.6l-.6 1.1c0 .1-.1.1-.1.2-.196.421-.43.822-.7 1.2l1.1-.4a11.994 11.994 0 0 0 3.8-2l.7-.8.6-.9a11.812 11.812 0 0 0 1.3-5.2c.083-.361.116-.731.1-1.1a21.936 21.936 0 0 0-.3-3.6 37.717 37.717 0 0 0-3.6-10.4 21.276 21.276 0 0 0-1.1-2.1 18.84 18.84 0 0 0 .9 3.6 24.43 24.43 0 0 1 1 7.5Z"/><path fill="#FC5B61" d="M314.6 816.4a.401.401 0 0 1 .1.3 21.298 21.298 0 0 1-9.9 27.5c-8.9 4.5-17 1.2-25.3-1.5a20.997 20.997 0 0 0-9.6.8 9.486 9.486 0 0 0-2.1.9l.8-.2h2.5a11.9 11.9 0 0 1 3.7.6l.6.2h.2l.5.2h.3l.5.2h.2l.5.2h.3l.5.2.4.2.8.3.4.2 2.2 1 2.3.8a20.808 20.808 0 0 0 6.6 1.1 32.197 32.197 0 0 0 19.8-5.8 45.964 45.964 0 0 0 4.1-3.6 24.766 24.766 0 0 0 3.5-4.5c.266-.309.501-.644.7-1 .125-.384.293-.753.5-1.1a16.5 16.5 0 0 0 1.4-5.9v-1.2c0-.3-.1-.6-.1-.9a9.387 9.387 0 0 0-.4-1.6 16.03 16.03 0 0 0-2.3-4.5l-.9-1.4-2.3-3.2h-.1c-.4.2-.5.8-.4 1.7Z"/><path fill="#FC5B61" d="M335.4 838.9c-3.2 2.9-7.1 4.4-10.3 7a10.701 10.701 0 0 0-3.3 4.1 5.798 5.798 0 0 0-.3 3.7c.8 2.6 3.3 5.3 2.7 8.1a3.9 3.9 0 0 1-.9 1.7 1.896 1.896 0 0 1 1.5 1.1c.9 2.8-4.2 5.2-6 6.1l-1.2.6a25.412 25.412 0 0 1-9.1 2.3c-4.8.3-9.5 1.6-14-.9a7.804 7.804 0 0 1-3.2-3.8c.2 1.3.1 2.5-1.4 3.2-1.5.7-4.5 0-6.5-1s0-3.8 2-1.7c.5.5.9 1.2 1.6 1.4h.8a4.292 4.292 0 0 1-2.8-2.3 38.333 38.333 0 0 1-1.3-3.6c-.2-.2-.3-.5-.6-.7a3.793 3.793 0 0 1-1.1 1.1 6.201 6.201 0 0 1-5.5 0c-.5-.2-3.4-1.4-3.1-2.3-.5.8-.1 1.9.2 2.8.3.9.6 2.2-.1 2.9a1.7 1.7 0 0 1-1.8.4 5.388 5.388 0 0 1-1.6-1 19.703 19.703 0 0 1-3.3-4.3 3 3 0 0 1 0-2.1l-1-2.1c-1.8-3.3-3.5-6.6-5.2-10a1.6 1.6 0 0 0-.7-.7h-.2a3.096 3.096 0 0 1-2.9.9c-1.3-.2-1.7-1.2-1.5-2.4a.703.703 0 0 1 .6-.5c-1.6-5.6-2.7-11.1-2.3-16.9a93.373 93.373 0 0 1 1.6-10.4 55.647 55.647 0 0 0-1.8 5.8c-3.8 15.5 1.4 34.9 14 45.1 5.4 4.4 11.2 5.8 17.8 6.6 4.74.617 9.528.785 14.3.5 2.3-.2 4.5-.5 6.7-.9h.4a31.518 31.518 0 0 0 4.2-.9 47.876 47.876 0 0 0 6.3-2.4l1.2-.6c2.8-1.6 5.9-4.1 9.1-4.2 3.2-.1 2 .9 2.8 2.4a13.092 13.092 0 0 0 3.8 4.3c5 3.4 13.6 2.6 19.2 1.6a56.097 56.097 0 0 0 17.7-6.4c6.4-3.6 11.9-10.3 16.1-16.2 2.7-3.7 4.1-6.9 1.9-7.8-.6-.2-1.5.3-2.5 1a38.092 38.092 0 0 0-4.5 4.4 17.285 17.285 0 0 1-2.4 2.3 3.396 3.396 0 0 1-3.2.4c-3-1.4 1.6-7-1.9-7.3-.9-.1-1.7.7-2.3 1.4a43.39 43.39 0 0 1-9.7 8.9c-3.5 2.4-7.3 5.2-11.2 6.9a34.806 34.806 0 0 1-10.1 2.5c-1.6.2-10.5 1-9.4-2.1 1.1-3.1 3.1-.9 4.4-.7 2.617.366 5.268.433 7.9.2a14.799 14.799 0 0 0 10-4.9c-4.4.1-11 1.5-13.5-3.3-.5-1-1.6-6.5-.2-7a12.2 12.2 0 0 0-5.6 4.4c-.211.345-.482.65-.8.9-.4.1-.9.1-1.1-.3a1.312 1.312 0 0 1 .045-.532c.052-.172.139-.331.255-.468 2.4-3.7 6.1-5.5 9.4-8.4a14.497 14.497 0 0 0 4.5-12.2c-1.7 4.8-5.9 8.1-9.8 11.2-3.9 3.1-5.3 4.1-6.9 6.8-.6.9-1 5.1-2.7 3.7-1.7-1.4 2.1-6.4 3.1-7.4s5-3.9 7.3-6.1a35.208 35.208 0 0 0 8.4-12.8c1.9-4.8 3.9-9.7 3.2-15-.5-2.8-2.6-3.2-4.1-.7a13.004 13.004 0 0 0-1.8 4.2c-.9 3.4-.9 7.1-1.5 10.3-.8 4.9-3.1 8.6-6.8 12.1Zm6.7 31c6-.5 12.8-2 18.1-5.2 5.3-3.2 7-6 11.1-8.3 1.5-.9 3.3 1.3 1.9 2.5-4.1 3.6-8.2 7.8-13.2 10.2a41.3 41.3 0 0 1-17.9 3.9 1.599 1.599 0 0 1-.867-2.531c.218-.281.523-.481.867-.569Z"/><path fill="#FC5B61" d="M299.7 879.5c-4.854.5-9.746.5-14.6 0l-2.9-.4a41.335 41.335 0 0 1-8.5-2.4c-9.5-4-16.5-12.1-20.6-21.7v.4c.6 4 .8 8.1 1.7 12 1.9 8 12.8 10.6 19.6 12l.9.2c2.2.3 4.5.3 6.7.6h.6c2.8.5 5.5 1.3 8.3 2 5.4 1.3 10.9 2.6 16.5 1.9 1.1-.1 4.9-.8 5-2.4.1-1.6-4.4-2.2-5.6-2.3a33.703 33.703 0 0 0-7.1.1Z"/><path fill="#FC5B61" d="M271.4 867.8h.3l-.5-.3-1.2-1c0 .027.011.052.029.071a.103.103 0 0 0 .071.029c.2.5.6 1.2 1.3 1.2ZM251.8 860.8c-.4-3.1-.9-6.3-1.3-9.4a60.665 60.665 0 0 0 1.3 9.4Z"/><path fill="#FFFFFF" d="M968.8 887.1a45.189 45.189 0 0 0-12.6-10.8 110.939 110.939 0 0 1-11.8-8c1 .8 4.3-3.9 4-5.1-.3-1.2-5.2-4.8-6.5-6.5l-4.8-6.5c-4.7-6.8-8.3-14.3-11.8-21.8-4.2-9.1-7.9-18.4-11.4-27.8-3.5-9.4-6.6-19.1-9.4-28.8-5.7-19-10.9-38.1-16.6-57-5.7-18.9-9.8-37.1-14.2-55.8a2.895 2.895 0 0 1-.2-.9l.4-.4a14.2 14.2 0 0 0 4.8-12.7c-.6-4.3-2.5-12.2-7.6-12h-.5a5.009 5.009 0 0 0 .4-4.6 3.388 3.388 0 0 0-.6-1.2c1.3-2.4 1.5-5.4 1.4-8.3-.1-2.9-.3-4.2-.3-6.1v-1.3c.2-3.2.6-6.3 1-9.4.9-5.6 2.2-11.1 3.5-16.6 1.7-7.1 1-14.1 1.2-21.2 0-.8.1-1.5.1-2.2a9.29 9.29 0 0 0 1.5-1.3c11-9.9 16.8-22.7 16.6-37.5-.3-17.3-6.5-34-14.7-49.1a7.976 7.976 0 0 1-.8-1.6 2.296 2.296 0 0 0-1.1-.9c5.3-4.2 10.5-8.5 16-12.3l2.5-1.7a.997.997 0 0 1 .5-.4c2-1.5 4-3 5.8-4.5h.3c1.1.1 2.2 0 3.4 0a42.113 42.113 0 0 0 13.2-2.8 42.498 42.498 0 0 0 18.4-13.5 46.518 46.518 0 0 0 6.4-11.3c7.3-19.2 6.4-42.2-3.4-60.3-9.8-18.1-26.6-30.7-44.4-39.6-9.7-4.8-19.2-6.1-29.9-5.6s-20.8 1.2-30.7 4.1c-18.1 5.4-35.9 20.9-34.9 41.1-9-7.8-20.3-12.1-29.8-19.2-3.1-2.4-9-6.9-13.3-6.1 1.4-2.5 3.4-4.4-.5-7.4s-7.8-2.2-11 .5c1.7-3.1 6.8-9.1 3.5-13.1s-10.6-2.3-13.3 1.9c0-.1.1-.2.1-.3 0-.1 2.1-3.1 1.7-4.8-1.7-6.5-9.6-9.7-15.1-5.9-1.4 1.1-2.8 2.2-4.1 3.4a101.605 101.605 0 0 0-20-10.8c-7.7-3.4-15.3-7.1-23.2-9.7a164.022 164.022 0 0 0-26.8-5.8l-2.7-.3c-.7-4.636-1.101-9.312-1.2-14 4.8-1 9.8-1.4 14.6-2.2 4.8-.8 9.6-1.8 14.4-2.4 9.9-1.2 19.8-2.3 29.6-4 1.2-.2 26.2-4.8 18.7-10-2.9-1.9-8.5-.2-11.6.2-7.3 1.2-14.7 1.9-22 3.3-7.3 1.4-17 4.6-25.6 6.5-6.2 1.4-12.7 2.6-18.7 5.1-.6-4.1-1.9-12.6-2-12.7 3.8-2.2 6.7-4.2 10.3-6.7 3.6-2.5 16.5-11.4 13.7-19.2-2.8-7.8-15.4 5.5-17.5 7.7l-7.4 7.9c-.3-11.2-2.2-22.4-4-33.4-1.5-9.5-2.3-20.6-9.5-27.8-7.2-7.2-16-8.6-24.7-9.8a240.647 240.647 0 0 0-34.9-2.3c-24.3 0-48.6 1.4-72.9 2-12.4.4-24.8.6-37.1.1-9.2-.4-18.7-.8-27.5-3.3-22.9-6.6-26.9-32.7-32.5-52.6h1.1c4.6 0 11.2 2 15.4-.6 4.2-2.6 3.8-7.6 3.3-11.6s-1.3-6.3-1.4-9.5c-.1-3.2.3-8.2.3-12.3.1-7.8.7-15.7.5-23.5-.1-11-3.1-21-13.9-25.4-10.8-4.4-21-3.9-31.2-3.4a140.5 140.5 0 0 0-45.2 10c-5.9 2.3-12.8 5.3-17.6 9.6-3.3 2.9-4.2 6.6-4.4 10.9-.6 15.8 4.4 31.2 5.6 46.8.7 8.2 1.5 21.8 11.6 23.9a2.3 2.3 0 0 0 2.5-1.1h.5v.6c2 16.3 6.1 32.1 7.1 48.6.2 3.9.3 7.7.2 11.6-.1 3.9.2 8.7-2.5 11.7s-6.7 4-10 5.2c-3.3 1.2-7.1 2.8-10.8 4-14.2 4.8-28.8 8.6-43.1 13.4-12.4 4.1-27 8.6-37.1 17.3-5.4 4.7-7.5 10.6-7.6 17.6-.2 9.4.1 19 .8 28.4-6-3.5-12.3-6.1-19.4-6.1-3.1 0-8.1.1-9.8 3.3-1.7 3.2 2.1 7 5 8.4 5.8 3 12.9 4.4 19.1 6.3l4.9 1.5c.7 8.2 1.2 16.3 1.3 24.5v.3c-5.2 1.8-10.4 4.5-12.6 9.2a1.297 1.297 0 0 0 .278 1.625c.151.13.329.224.522.275 3.1.8 5.8-.4 8.7-1.7l4.2-1.6c-.1 20.4.9 40.7.7 61.2-.2 20.5-1 41.1-1.8 61.7-1.6 41.3-2.4 82.5-.8 123.8 1.6 41.3 4.4 83 6.8 124.4 1.2 20.4 1.9 40.9 3.8 61.3.9 9.8 2.1 19.6 3 29.4.9 9.8 1 20.4 1.8 30.6l1.2 14.6c.2 2.262.2 4.538 0 6.8a126.71 126.71 0 0 0-36.9 8.3c-7.2 2.8-31.7 11.5-32 20.7-.1 4.1 4.4 4.7 8 5.9-10.7 2.5-32.4 11.5-23.3 25.8a11.801 11.801 0 0 0 1.7 2.4c6.4 7.6 21.3 11.4 30.4 14.6 21.5 7.7 44.7 11.6 68.2 13.9 19.6 2 39.3 2.8 58.2 3.9 30.3 1.8 60.5 3 90.8 3.7 36.3.9 72.7.6 109-.7 65-2.2 132.8 4.7 196.4-10.8 8.8-2.1 26.3-5.4 30.1-15.4a6.402 6.402 0 0 0 .6-1.8c1.7-8.1-7.6-14.8-13.2-18.7a51.409 51.409 0 0 0-15.4-7.1l-4.7-1.2a21.807 21.807 0 0 1-7.4-3c6.9-2.6 15.6-1.2 21.1-6.9 2.2-2.3 2.9-4.7 2.5-6.9-1-5.7-8.6-10.5-13.5-12.4-13.1-5-27.9-7.7-41.8-9.5a237.83 237.83 0 0 0-49.9-.8 128.19 128.19 0 0 0 6.4-16.3c3.1-9.4 5.3-19.1 8-28.7 2.7-9.6 5.5-18.6 8-27.9 10-38.9 12.9-78.7 15.2-118.6.6-9.7 1-19.5 1.6-29.2 4-.2 8-.2 12.1-.2h6.6l19.5.2h9.2c-.2.5-.3 1-.5 1.5a8.346 8.346 0 0 0-.7 1.3c-1.7 3.2-3.2 6.4-4.7 9.6a128.75 128.75 0 0 0-7.1 19.7c-3.9 14.4-5.9 29.3-7.1 44.1a191.696 191.696 0 0 0 1.2 45.4c2.1 14.2 5.5 30.9 13.8 42.9-1.8-1-28.9 2.4-31.7 3-8.2 1.9-12.8 6.3-14.2 14.6-1.4 8.3-1 11.4 6.6 13.9 11.1 3.7 23.2.8 34.7.2h3.2c7.1 0 15-.9 22 .2 5.2.7 15.9 4.4 20.9 1.7 10.3-5.8 3-32.9 2.8-41.9a192.673 192.673 0 0 1 3.4-42.9 165.576 165.576 0 0 1 12.3-37.4 104.117 104.117 0 0 1 9.4-16.1c2.2-3 4.8-6 6.9-9.1 14.2 18.6 23.1 40.9 33.3 62.1 15.2 31.7 26.7 65.2 45 95.4a251.095 251.095 0 0 0 20.4 27.8c2.5 3.1 14.4 20.8 18.4 14.2 3.9 3.8 5.4 10.3 8.8 14.6 3.4 4.3 8.8 8.4 12.3 2.2 6.4 9.1 16.7 12.9 27.5 14.9 8.9 1.6 22.6 3.7 29.8-3.4 7.2-7.1 1.4-19.4-4.1-26.4Zm-302.3-620 15.4-4.2a205.795 205.795 0 0 1 31.2-6.5l4.5-.5 2.2-.2c1.3 0 2.6.2 2.4 1-.19.527-.54.981-1 1.3l-.6.5c-1.6.9-4.5 1.4-6.1 1.8-4.3 1.1-8.8 1.9-13.2 2.6l-2.6.4-5.4.8c-8 1-16 1.9-24 3.1l-4 .6-3.9.6h-.1l5.2-1.3Zm-265-203 .3-1.2c.5-1.6 2.6-3.2 4.3-2.5 3.6 1.5 1.6 6.5 1.8 9.4.3 4.9.8 9.8 1.2 14.7a5.903 5.903 0 0 1-.6 3.7c-1.1 1.5-5.2 1.3-5.6-.8-1.3-7.2-1.3-14.6-1.4-21.9v-1.4ZM882 704.6c-.006.172.028.343.1.5h-.3c-9.2 9.1-22.1-29-26.4-40 5.2-1.5 10.7-2.6 15.4-5.3l.6-.4c2.3 15.3 6.6 30.3 10.6 45.2Zm-8.3-129.2a59.971 59.971 0 0 1-.6 6.1c0 .4-.1.8-.1 1.1-1.3 7.1-2.5 13.9-3.1 21.1-.2 3-.5 6-.5 9v1.4c0 3.8.9 8.8-2 11.9-2.9 3.1-11.2.5-15.6 4.5a.997.997 0 0 0-.4.5 1.6 1.6 0 0 0 1.9 2.1c4.8-1.2 11.5-.2 15.4-3.8l.2-.2a5.785 5.785 0 0 1-.2 1.8c-.5 1.5-2.1 2.5-3.3 3.2l-2.2 1.1-.3.2a52.137 52.137 0 0 1-7 2.3l-8.6 2.2-2.3.5a3.896 3.896 0 0 0-2.6 1.6 1.2 1.2 0 0 0 .7 1.7 6.798 6.798 0 0 0 3.4-.2c1.4-.4 2.9-.9 4-1.1 2.8-.7 5.7-1.5 8.5-2.4l3.7-1.3 2.4-1.2a16.614 16.614 0 0 0 4.5-3.2.402.402 0 0 0 .5.1h.5c6.1-.1 5.5 14.8 3.9 17.4-1.6 2.6-5.5 4.7-8.7 5.9-6.1 2.4-12.9 4.1-19.3 5.9-17.7 5.2-36.7 5.3-54.9 3.4-27.1-2.9-62.2-8.6-79.3-32.3l8.7.3 5.1.2c3.8 0 7.5-.5 10.7-2.4a15.398 15.398 0 0 0 10.5 2.4c5.4-.7 12-4.1 13-9.6 2.5 2.4 5 5.2 9 3.4a6.1 6.1 0 0 0 3.5-5.5c1.2 1.6 2.8 2.7 4.9 1.9 2.1-.8 2.7-5.6 2.3-9 0-.7-.1-1.3-.1-1.9 2.1.2 2.6 1 4.2 2.9a6.488 6.488 0 0 0 1.3 1.6 2.896 2.896 0 0 0 3.2.6c1.2-.4 2.1-1.7 3.1-2.5 2.9-2.7 6-3.5 9.7-4.7 6.9-2.2 14-6.5 20.4-10.1 6.4-3.6 14.3-8.9 21.2-13.7 6.9-4.8 12.5-7.9 18.1-12.6l.2-.2c3-2.5 5.7-5.4 8.7-8 3-2.6 3.1-2.5 4.7-3.7-.6 3.7-.7 7.5-1 11.3Zm13.5-74.5.9 3.4a68.296 68.296 0 0 1 2.1 24.6 39.9 39.9 0 0 1-3.3 12.4 49.61 49.61 0 0 1-9.5 13.4c-5.9 5.8-12.6 10.6-18.4 16.5a87.935 87.935 0 0 1-10.4 8.8 134.76 134.76 0 0 1-8.4 6l-2.8 1.9a131.965 131.965 0 0 1-9 6c-2 1.3-4.1 2.5-6.2 3.7-2.1 1.2-4.2 2.3-6.3 3.4l-3.2 1.6-2.7 1.4c-2.7 1.3-5.3 2.8-8 4l-2.7 1c-2.8.9-5.5 1.6-7.9 3.5-.5.4-1 1-1.6 1.6l-.3.3-.7.4c-.8.5-1.2.9-1.5.8h-.2l-1.2-1.3a4.494 4.494 0 0 0-1.6-1.5c-1.1-.9-2.3-1-4-1h-1.8c-.3.1-.6.1-.8.3a1 1 0 0 0-.5.6.699.699 0 0 0-.1.5c0 .5.1 1.1.1 1.6s.1.6.2.9c-.016.303.018.607.1.9a7.38 7.38 0 0 1-.1 2.6c-.4 1.5-.7 3.4-2.9 1.4s-1.1-2.4-1.4-3.4a1.498 1.498 0 0 0-1.8-1l-1.3.5a1.501 1.501 0 0 0-1 1.7 9.496 9.496 0 0 1 1 4c-.3 3.8-3.4 5-6.3 2.7l-1.1-1.1a38.114 38.114 0 0 0-3.3-3.6 2.002 2.002 0 0 0-2.5-.2l-.4.5a1.903 1.903 0 0 0-.2.7c0 .1-.1.2-.1.3a7.796 7.796 0 0 1-3.8 7.3 12.798 12.798 0 0 1-13.7-.1c-4.5-3.1-7.4-8.4-9.6-13.6l-2-5.1c-4.1-10.9-8.1-22.6-6.5-34.2.2-1.3.4-2.6.7-3.9 1.6-6 7-6.6 12.5-6.7.2 3.4 1.2 6.6 4.1 8.9a1.698 1.698 0 0 0 2.2 0c1.3-1.1 1.9-3.6 2.5-6 .6-2.4 1.4-6.1 3.5-6.2 2.1-.1 2.8 4.1 4 6.1a7.601 7.601 0 0 0 5 3.9 1.6 1.6 0 0 0 1.9-.7 8.8 8.8 0 0 0 1.4-5 13.506 13.506 0 0 1-.4-2.8c.3-2.9 2.1-3.9 4-5 1.2 2 3.1 4 5.5 2.5s2.1-3.8 1.6-6c-.1-.5-.3-.9-.4-1.3 4-1.4 7.5 1.6 11.1-2.1 1.3-1.3 2.1-3.2 3.3-4.6 1.2-1.4 5.6-4.7 8.4-6.8 7.9-5.9 16.6-11.5 22.6-19.5 1.8-2.4-2.4-4.9-4.2-2.4-5.6 7.9-14.2 13.9-21.7 19.8-3.5 2.8-6.8 5.2-9.3 8.9-1.2 1.9-1.4 2.5-3.5 3.2-2.1.7-2.6.3-4.3.3a8.5 8.5 0 0 0-4.7 1.3 1.283 1.283 0 0 0-.396.333 1.304 1.304 0 0 0-.104 1.467 4.61 4.61 0 0 1 .7 1.6c.5 1.8-.2 3.6-2.3 2-2.1-1.6-1.2-1.5-2.9-1s-4.6 1.8-5.7 3.8c-1.1 2-.1 5.5-.9 8.2-3.7-2.8-3.5-11.4-9.9-9.5a5.102 5.102 0 0 0-3.6 3.5c-.7 1.8-.8 4-1.3 6a6.495 6.495 0 0 1-.4 1.3 3.686 3.686 0 0 1-.5 1.1c-1.3-2.2-1-5-1-7.5a2.2 2.2 0 0 0-1.7-2.1h-4.2c3.2-5.4 3.5-13.2 5.7-18.8 2.2-5.6 3.4-8.3 5.3-12.4s3.8-8.1 5.8-12.1l4.2-7.9 1-2c5-9.4 10.1-18.8 15.5-28 2.9-4.9 6-9.7 8.8-14.7 1.4-2.6 2.7-5.3 4.2-7.8 2.8 12.3 10.1 24.7 19.9 32.2a32.716 32.716 0 0 0 6.4 3.8 31.386 31.386 0 0 0 9.3 2.9l1.9.3 3.8.2h2a56.987 56.987 0 0 0 5.8-.6l3.9-.8a41.014 41.014 0 0 0 5.7-1.7l3.9-1.4 3.7-1.6a95.127 95.127 0 0 0 9-4.6c3.5-2 6.9-4.1 10-6.2 3.1-2.1 5.2-3.8 7.8-5.7.021.244.089.482.2.7l1.3 2.4a135.825 135.825 0 0 1 10 23.6Zm-228.1 46.4c0-.6-.1-1.2-.1-1.9 9.4-1.5 14.4 5 21 10.9s13.2 9.1 19.9 4.6c6.7-4.5 1.3-12.6-3.4-15.9-4.7-3.3-11.9-5.3-18.2-5.9-3.327-.3-6.673-.3-10 0-3.1.3-6.5.5-9 2.6.3-2.5-.3-5.5-.3-8-.1-4.5.3-9.5-1.2-13.8a37.501 37.501 0 0 0 7.1-5.3c6.9-6.5 7.4-17.1-2.4-21l-.5-.2a3.398 3.398 0 0 0 .4-1.8c-1.4-25.8-3.2-51.5-4.9-77.2-.9-12.6-1.7-25.1-2.6-37.7-.7-10.3-1.4-20.5-2.2-30.8a8.998 8.998 0 0 1 .3-4c7.4 2.2 14.5 5.8 21 9.4a108.576 108.576 0 0 1 24.4 17.7 23.11 23.11 0 0 0 2.9 8.1c1.6 2.5 3.2 3.2 6.2 3.7s6-.4 7.4-3a7.803 7.803 0 0 0 2.9 3.9c1.6 1.2 3.3 2.3 5.4 1.4 2.1-.9 2.1-4.2 3.2-5.9.173.759.307 1.527.4 2.3.4 2.2.9 4.1 3.7 5.5 2.8 1.4 6.6 1.9 9.8 3.6 3.2 1.7 7.7 5.6 11.2 8.8 6.5 5.7 13.4 11.4 19.1 17.9A56.897 56.897 0 0 1 779 427c1.7 3.3 2.4 6.8 3.3 10.3a47.917 47.917 0 0 0-.5 15.1v.2a55.303 55.303 0 0 0-5 7.3c-2.7 4.6-5.7 9-8.5 13.5-6.3 10.3-12.3 20.8-18 31.4a332.054 332.054 0 0 0-14.8 29.9c-1.8 4.5-3.9 9.1-5 13.8-1.1 4.7-1.8 11.7-6.8 14.7a12.272 12.272 0 0 0-3.3 2.3c-1.4 1.9-1.2 4.7-3.3 5.9-2.1 1.2-8 .4-10.8.5l-13.1.8c-11.4.8-22.8 2-34.2 3.1.5-9.4.1-19 .1-28.5Zm9.6-4.3c8.9.2 18.4.2 25.6 5.3 2.3 1.6 6.4 6.1 3.9 9-2.5 2.9-8.5 1.1-11.3-.5-6-3.5-11.6-10.9-18.2-13.8Zm-89 27.3a15.412 15.412 0 0 0 2.8 4.9 30.208 30.208 0 0 0 8.4 7.1c-4.7.3-9.4.8-14.1.8-4.7 0-9-.3-13.4.7s-10.1 4-6.7 8.8h-.2a132.826 132.826 0 0 0-14.1-5.5 92.575 92.575 0 0 0-15.6-4.4 2 2 0 0 0 .4-.8c1.2-5.2 6.7-11.6 10.8-14.9 4.1-3.3 4.1-1.4 7.1-.3 3 1.1 7 2.4 9 4.8a1.405 1.405 0 0 0 1.539.313 1.408 1.408 0 0 0 .861-1.313c-.2-1.3-.3-2.5-.4-3.8a409.063 409.063 0 0 0-1.8-17.7 44.737 44.737 0 0 1-.8-8.9c.1-3.4 3.3-4.9 6-6.4 5.1-3 10.3-5.7 15.5-8.5l9.1-5.2c3-1.6 6-2.9 8.8-4.7a5.809 5.809 0 0 0 1.4-1.3 4.2 4.2 0 0 0 .3-1.9c.2-3.4 2.2-43.9 2.4-47.1.1-1.7 4.1-3.1 5.3-3.7 1.2-.6 4.4-2 6.5-3 2.1-1 2-1.6 1.8-3.2-.2-2.362-.2-4.738 0-7.1 0 .1 5.4-.3 9.2-.8l3.4-.5a53.261 53.261 0 0 0 11.3-6.5l.3-.2c1.4 17.9 2.6 35.9 3.7 53.8a52.492 52.492 0 0 0-15.9 9.5 74.004 74.004 0 0 0-16.5 21.2c-3.7 7.2-7.8 17.5-5.5 25.7a1.299 1.299 0 0 0 .6 1 1.5 1.5 0 0 0 1.7-.5 6.692 6.692 0 0 0 .5-1.9c.5-2.8 3.8-5.5 5.8-7.3a43.06 43.06 0 0 1 8.5-5.6c6.2-3.2 12.9-5.2 19.6-7.3l2.9-1v.7c.4 10.3.3 20.5.6 30.8.1 5.1.1 10.3.6 15.4a6.998 6.998 0 0 0 1 3l-1.3.2c-12.6 1.1-23.9 1.6-35.6-4.1-4.5-2.3-8.7-5.1-13.3-7.1-3-1.4-11.2-4.9-12.8 0a6 6 0 0 0 .3 3.8ZM544.1 591c-7.8 1-16 4.6-21.4 7.6-13.6 7.8-23.2 21.5-38.5 26.2-6.2 1.9-17.7 3.8-20.3-4.5-1.2-3.9-.4-7.8 1.4-11.4a42.88 42.88 0 0 1 5.5-7.7c9.1-10.4 23.1-14.6 36.5-15.4a89.71 89.71 0 0 1 30 3.1c2.3.6 4.5 1.3 6.8 2.1Zm84.6-64.3c-9 2.8-18.6 6.5-24.6 13.5a68.101 68.101 0 0 1 17.7-30.6c10-10.2 25-18 39.3-12.1 14.3 5.9-1.6 16.8-7.8 20-7.8 4.1-16.2 6.6-24.6 9.2Zm206-198.5a103.121 103.121 0 0 1 26.9-5.6c9.7-.9 19.6-1.4 28.8 2.1 16.7 6.4 33.3 18.5 43.9 32.9 10.6 14.4 13.6 29.7 11.7 46.2a.703.703 0 0 0-.592.087.7.7 0 0 0-.308.513 73.482 73.482 0 0 1-2.3 10.1c-.2.4.4.7.8.4l.4-.5a51.502 51.502 0 0 1-6.8 16.6 33.912 33.912 0 0 1-4.4 5.6l-1.8 1.7a36.301 36.301 0 0 1-8 5.4l-2.1 1.1a39.57 39.57 0 0 1-6.9 2.2l-.8.2-.8.2-.9.2h-2.2c0 .1-.1.1-.2.1h-.6c1.1-1.2 2.1-2.4 3.1-3.7l.9-1.3a25.48 25.48 0 0 0 1.6-2.8 20.864 20.864 0 0 0 1.4-3h.7c.375-.21.713-.48 1-.8a10.48 10.48 0 0 0 1.7-1.9l.6-1.2a24.174 24.174 0 0 0 1.9-4.5c.4-1-1.3-1.5-1.7-.4a24.08 24.08 0 0 1-1.5 3.3.8.8 0 0 0-.2.4l-.5.7-.5.8-.5.7.3-1.1c.225-.719.392-1.455.5-2.2.1-.2.1-.5.2-.7a46.895 46.895 0 0 0-8.9-36.6 56.305 56.305 0 0 0-19.9-16.5c-2-1-8-4.2-12.8-5-3.3-.6-6.1.1-6.7 3.4-.6 3.3 2.3 5.4 5.1 6.6-1.6.4-4.2-1.4-5.2-2.1-3.7-2.7-5.7-6.7-2.1-10.8a1.597 1.597 0 0 0 .23-1.63 1.596 1.596 0 0 0-1.33-.97c-9.5-.7-18.9-1.8-27.2 3.7s-10.9 13.8-18 18.6c1.3-8.3 8.8-20-1.7-24.3a21.366 21.366 0 0 0-3.4-.9 19.9 19.9 0 0 0-10.2 1c.1-17.2 13.6-30.4 29.3-36.3Zm-19.6 38.2a7.998 7.998 0 0 1 5 2.7c4.7 5.2-3.2 16.3-2.6 22.6-.03.268.018.54.138.782a1.403 1.403 0 0 0 2.062.518c7.7-3.8 11.2-12 17.3-17.7 7.7-7.1 16.7-6.7 26.2-5.8-2.6 4.6-.8 9.4 3.9 13 4.7 3.6 9.5 5.2 11.2-.6a1.4 1.4 0 0 0-1-1.8c-1.2-.4-5.3-1.9-5.1-3.6.2-1.7 1.5-2 3.3-1.7 5.6 1 16.5 8.6 17.9 9.7a75.71 75.71 0 0 1 6.6 6.1 53.717 53.717 0 0 1 5 5.7l1.7 2.5a42.622 42.622 0 0 1 4.3 7.8c3.7 8.6 4.6 18.2.5 27.9a38.797 38.797 0 0 1-5.9 9.9l-2.9 3.3-1.6 1.5a31.138 31.138 0 0 1-3.3 2.9c-2.2 1.9-4.6 3.7-7 5.6l-3.7 2.9c-5.5 4.4-14.5 11-20.3 14.9l-.7.4-.4.2-1.7 1-8.8 5.2-1.4.7-2.6 1.5-4.1 2.1-4.1 1.9-1.3.5a57.343 57.343 0 0 1-7 2.3l-2.8.6-1.4.2c-.92.199-1.859.299-2.8.3-1.9.117-3.805.083-5.7-.1l-2.9-.5-1.5-.3a34.321 34.321 0 0 1-7.4-2.9h-.2l-.5-.2-.6-.4c-18.5-10.7-25.6-35.3-20.6-54.7.2-1 .5-2 .8-3 1-3.2 2-6.4 3.3-9.5 1.3-3.1 1.3-4.3 1.9-6.5a33.833 33.833 0 0 0 1.4-6.9 24.89 24.89 0 0 0-.4-7.2c-.7-3.2-2.3-6.1-2.9-9.2-1.9-9 12.5-26.1 22.7-24.6Zm-87.8-52.3c4.2-2.7 7.4-.4 7.9 3.2a7.8 7.8 0 0 1-.2 3.4l-.6 1.5c-.8 1.6-1.8 3-2.5 4.7a3.596 3.596 0 0 0-.5 2.1 1.802 1.802 0 0 0 1.1 1.7 2.403 2.403 0 0 0 2.7-1.4c.5-1 .6-2.1 1.1-3.1a10.1 10.1 0 0 1 2.8-3.6c1.9-1.5 4.3-2.5 6.3-1.2 4.1 2.7-.8 9.5-2.4 12.7a7.986 7.986 0 0 0-.9 3 2.403 2.403 0 0 0 1.7 2.4c1.4.3 2.5-1 3.3-2.2a20.855 20.855 0 0 1 2.2-2.8 7.11 7.11 0 0 1 2.2-1.5c1.9-.8 4.5-.2 5.2 1.8.7 2-2.8 5.7-2.1 8.6.7 2.9 3.2 2.7 4.9 1.6 1.7-1.1 2-2.1 4.2-1.1 3.9 1.9 6.7 5.7 10.1 8.3 7.7 6 17 9.5 24.5 15.9-4.1 2.5-6.8 6.9-8.6 11.3-3.1 7.5-1.6 12.6.5 20 1.4 4.8.7 9.5-.7 14.1s-2.3 6.6-3.4 9.8l-.6 1.6a9.825 9.825 0 0 0-.5 1.6l-.3 1.1-.2.3-.3-.8a42.433 42.433 0 0 0-4.8-8 76.038 76.038 0 0 0-6.2-7.6 154.48 154.48 0 0 0-11.7-11.1l-6-5.4c-4.5-3.9-9.3-7.6-14.6-9.9a13.897 13.897 0 0 0-3.3-1l-3.3-.8a8.101 8.101 0 0 1-2.2-.7 4.9 4.9 0 0 1-2.1-1.5 3.402 3.402 0 0 1-.6-1.5 4.294 4.294 0 0 1-.1-.5c-.2-1.4 0-3.1-.5-4.8a1.703 1.703 0 0 0-1.5-1.2c-5-.6-3.8 7-7.1 6.3a4.2 4.2 0 0 1-3.2-2.5 6.105 6.105 0 0 1-.4-2.4 7.308 7.308 0 0 1 .4-2.5c.032-.242.1-.478.2-.7.9-2.6 2.4-4.9 2.5-7.7 0-.2-.2-.2-.3-.2h-.2a2.892 2.892 0 0 0-1.142-.943 2.891 2.891 0 0 0-1.458-.257h-.7a3.503 3.503 0 0 0-1.9 1.3 8.903 8.903 0 0 0-1.8 4.6c-.1 1-.2 2-.2 3-.088.36-.122.73-.1 1.1a10.197 10.197 0 0 1-.5 3.2c-.136.42-.377.799-.7 1.1a3.304 3.304 0 0 1-2.6 1h-.8l-.7-.2a4.898 4.898 0 0 1-2.9-2.9l-.6-1.5a7.484 7.484 0 0 1-.4-1.6 29.42 29.42 0 0 1-.2-9.8v-.3c.8-7.4 3.6-14.4 6.5-21.2a90.269 90.269 0 0 1 8.4-15.2c2.7-3.9 5.9-8 9.9-10.7Zm-89.5-58 3.9-3.6 3.8-3.9c1.8-1.8 3.5-3.7 5.3-5.6l5.5-5.4 1.7-1.8 1.3-1.1 1.3-1.1.4-.3a4.49 4.49 0 0 1 1.8-.7h1.1c.2.1.3.4.4.6a5.297 5.297 0 0 1-.4 1.6l-.2.6a7.721 7.721 0 0 1-.7 1.6c-3.8 7.4-13.6 12.7-20.2 16.8l-2.5 1.6-5.1 3.1 2.6-2.4Zm-3.5 32.8c15.3 1.9 30.7 3.6 45.2 8.9 7 2.6 13.7 5.8 20.5 8.7a102.782 102.782 0 0 1 17.9 9.6c-4.4 4.8-7.8 10.7-10.7 16.4a90.917 90.917 0 0 0-8.3 23.8c0 .3-.1.6-.1.9a55.94 55.94 0 0 0-.7 5.9l-3.8-3.2a129.995 129.995 0 0 0-29.8-17.8 81.87 81.87 0 0 0-8.2-3.2l-3.3-1.1-3.3-.9-1.7-.3a49.392 49.392 0 0 0-8.7-.8h-1.8a31.312 31.312 0 0 0-12.7 3.5l-1.6 1c-5 3.2-9.3 9.7-15.1 11.3l-2.2.3h-.6c-3.9-.9 3-10.3 4.4-12.2 1.4-1.9 3.1-4.1 3.2-6.5a4.11 4.11 0 0 0-.1-1.1c-.08-.431-.25-.84-.5-1.2l-.3-.4-.4-.5a5.112 5.112 0 0 0-1.5-.7h-1.7l-2.3.4-2.1.8-1.1.6-1.1.6c-2 1.2-3.9 2.7-6 3.9l-2 1.2-.8.4a6.197 6.197 0 0 1-3 .7c-.8-.1-1.3-.8-.8-2.5 1.2-3.9 4.4-7.3 7.6-9.9l1.4-1.1a13.201 13.201 0 0 1 5.8-2.6c1.5-.5 2.9-1.9 2.5-3.6-1-4.4-10.4-1-13.1-.6-2.7.4-14.2 1.7-8.8-2.7 5.4-4.4 14.3-6.4 21.2-9.5 4.6-2.1-11.8-6.6-13.5-6.9-3.9-.6-13-1.8-12.3-7.6.6-4 11.6-2.8 19.6-1.7 3.6.5 6.5 1 7.8 1 1.3 0 2-1.7 1-2.5-4.3-3.5-9.6-5.7-13.7-9.5-1.7-1.4-6.2-7.1-1.2-5.9a19.895 19.895 0 0 1 6.1 2.8c5.5 3.3 10.7 7.2 16.6 9.9 5.9 2.7 11.9 3.1 18.1 3.9Zm-41 17.4c.28-.921.514-1.855.7-2.8.009-.342.077-.681.2-1l5.7 1.4-6.6 2.4ZM321.4 118.2a11.41 11.41 0 0 1-4-1.1c-.4-2.9-.5-5.7-.6-7.8-.9-11.1-3.7-22-5-33.1-.5-4.8-1.6-11.4-.1-16.2 1.5-4.8 8-7.6 12.3-9.9 11.5-5.9 24.9-9.2 37.6-11.3a107.7 107.7 0 0 1 30-1.1c3 2.7 3.3 7.2 3.4 11.3.5 12.4.8 24.9 1.2 37.4a23.913 23.913 0 0 1-.6 8c-2 6.7-8.1 6-13.9 6.7-5.8.7-13.2 2.6-19.8 3.5-10.9 1.3-21.5 7.1-31.4 11.2-2.9 1.3-5.9 2.5-9.1 2.4Zm70.8 25.3c-8.7.7-17.4 2-26 3.4-6.2 1-12.5 1.9-18.5 3.8-2.2.6-4.3 1.5-6.4 2.3-2.1.8-2.6.7-3.8 1.2l-1.8-9.8c4.3-.9 8.9-3.3 13.1-4.5 5.8-1.7 11.7-2.8 17.7-4 6-1.2 15-3.4 22.5-3 .1 1 .4 2.1.6 3.1a60.224 60.224 0 0 0 2.6 7.5ZM333 132.8a5.7 5.7 0 0 0-.8-1.3c6-2.1 11.7-4.9 18-6.4a207.99 207.99 0 0 1 37.3-5.2c.3 3 .5 6 .9 9l-4.4.3a147.539 147.539 0 0 0-16.4 2.8c-6.1 1.3-12.2 2.4-18.2 4.1-4.1 1.1-10.4 2.4-14.4 5.2-.6-2.9-1.3-5.7-2-8.5ZM230.8 254.7a20.995 20.995 0 0 1 7.8-7.3c12.9-8 28.2-12.6 42.5-16.9 14.3-4.3 29-8.4 43-13.9 5.3-2.1 11.2-4.2 14.1-9.5 2.9-5.3 2.4-13 2.3-19a264.789 264.789 0 0 0-2.5-30.5c2.3.1 5-1.2 7-1.9a99.431 99.431 0 0 1 17.8-4c10.3-1.7 20.6-3.4 31-4.1a47.972 47.972 0 0 1 1.8 5.8c1.2 5.2 2.7 9.2 6.1 13.4 6.7 8.1 16.8 13.5 27.4 13.7a4.204 4.204 0 0 0 2.5-.6c11.6 3.2 24.7 3.1 35.9 3.3 24.1.5 48.4-.4 72.5-1.4 15.2-.6 30.9-1.5 46.4-.6 13.4 6.2 28.3 16.4 30.8 31.5.6 3.7.8 6.6.1 9.1a45.5 45.5 0 0 1-21.5 6.9c-6.9.4-13.8.1-20.7.9-6.9.8-13.1 2.5-19.5 4.1a264.105 264.105 0 0 0-40.4 13.9 184.003 184.003 0 0 0-17.2 8.6c-6.5 3.7-12.5 8.3-19.1 11.9a50.689 50.689 0 0 1-19.7 6c-8 .6-15.9-1.3-23.8-2.8a144.177 144.177 0 0 0-19.6-2.6c-7.4-.2-14.8 1-22.1 2.5-7.3 1.5-13.8 3-20.9 3.3-7.1.3-15.7-1.1-23.4-2.2-15.2-2.3-30.3-5.1-45.5-6.7a86.985 86.985 0 0 0-22.8.4c-8.2 1.3-16.3 3.6-24.6 4.2-8.3.6-20.6 1.4-27.4-4.5-.1-3.7-.1-7.7 1.7-11Zm-9.7 45.1-3.4-.5a33.823 33.823 0 0 1-5.5-1.3c-2.2-.7-5.5-1.3-8.4-2.2l-1.8-.7a8.704 8.704 0 0 1-3.5-2.6c-1.3-1.9-.3-2.9 1.7-3.3l1.2-.2h2.6a54.43 54.43 0 0 1 8.3.9 31.122 31.122 0 0 1 4.8 1.8l2.3 1.1c3.9 2 7.5 4.5 11.1 6.7l4 2.5c2.8 1.7 5.5 3.3 8.3 4.8l4.1 2.3 4.6 2.5-8.3-3-5.4-2.2a80.715 80.715 0 0 1-7.9-3.7l-1-.5a31.394 31.394 0 0 0-7.8-2.4Zm4.5 36.1-4.8 1.6-.9.3-.9.3h-1.3v-.2a1.4 1.4 0 0 1 0-.9 5.004 5.004 0 0 1 1.6-2.2 9.32 9.32 0 0 1 2.6-1.5l1.4-.6 4.1-1.3a90.947 90.947 0 0 1 9-2.2 98.595 98.595 0 0 1 19.5-2.8c1.5 0 3-.1 4.5 0-2.7.3-5.5.7-8.2 1.2-2.7.5-5.5 1.2-8.2 1.9a73.23 73.23 0 0 0-9.3 3.3l-3.1 1.3-.8.2-5.2 1.6Zm13.7 388.4c-2.3-40.1-4.9-80.2-6.8-120.3-1.9-40.1-2.3-79.4-1-119.1 1.3-39.7 3.4-79 2.4-118.5-.3-9.9-.9-19.5-2.1-29.3a3.508 3.508 0 0 0-.6-1.4l7.9-2.3a152.72 152.72 0 0 1 34.8-5.9h.1a18.91 18.91 0 0 0-2.3 7.3c-.1 2.6 1.1 4 3.4 5 4.1 1.9 8.5 3.3 12.6 5.1 4.1 1.8 7.9 5.1 9.9 10.9a99.49 99.49 0 0 1 3.4 13c0 .5.5.7 1 .8 6.1.6 11.4 4.2 16.8 7 1.4.8 2.6-1.3 1.2-2-1.4-.7-5.6-3.1-8.5-4.4l-3.3-1.4c-1.1-.3-3.8-.5-4.6-1.2-.8-.7-1.6-3.8-2-5.7a72.654 72.654 0 0 0-2.2-8c-1.4-4.1-3.2-8.3-6.4-11.4-3.2-3.1-7.5-4.8-11.7-6.4-1.2-.5-3.6-.8-4.3-2.1-.7-1.3 1.1-4.9 2-6.3a25.113 25.113 0 0 1 6.3-6.3c.4-.3 6.5-4.8 5.7-5.5 3.3 3.2 7.9 5.1 12.1 7.2a1.7 1.7 0 0 0 2.2-.6c2.9-5.8 7.9-13.2 13-17.2s9.4-2.3 14.4-2.9c5-.6 7-1 10.4-1.5 1-.1.7-1.7-.2-1.7-4.9 0-9.6 1.3-14.4 1.3-4.8 0-7.3.2-10.5 2.3-6.3 4.2-9.1 11.6-14.3 16.8-3.7-2.7-8-4.7-10.6-8.6a2.496 2.496 0 0 0-2.862-1.042c-.349.11-.669.295-.938.542l-5.2 5.9c.645-2.622.471-5.38-.5-7.9-2.1-4.8-7-8.5-10.6-12.2a32.906 32.906 0 0 1-6.6-9.6 16.697 16.697 0 0 0-3.9-6.2.904.904 0 0 0-1.024.176.9.9 0 0 0-.176 1.024c3.6 3.7 4.4 9.6 7.7 13.8 3.3 4.2 8.9 7.7 10 12.4 1.1 4.7-.5 9.8-2.1 13.9a35.974 35.974 0 0 1-2.2 4.4c-2.1-1.4-7.2-1.3-9.9-1.7a74.055 74.055 0 0 0-10.5-.7 99.954 99.954 0 0 0-20.3 3.3l-2.3.6c.1-.461.1-.939 0-1.4-.8-3.8-.1-7.8-.5-11.7-.4-3.9-.7-5.1-1.2-7.7.2.7 8.7 2.8 9.7 3.1l10 3.4 1 .3 8.3 3.1 4.8 2c1.2.5 4.4 2.4 3.4 0-1-2.4-4.1-4.1-5.8-5.2-4.2-2.8-8.8-4.6-13.2-7.1l-.9-.5c-6.3-3.7-12.5-7.9-18.8-11.7a2.896 2.896 0 0 0 .6-1.7c.2-7.5 0-15.1 0-22.6 4.2 3 9.7 4.4 14.9 5 12.5 1.4 24.5-1.3 36.8-3.3 16.6-2.6 33.8 1 50.2 3.6 16.4 2.6 30.8 6.3 46.1 4.8s29.7-6.7 45.3-4.9c15.6 1.8 29.5 7.1 44.7 3.7 15.2-3.4 25.2-12.9 37.7-19.7a222.777 222.777 0 0 1 43.1-17.2 210.344 210.344 0 0 1 24.6-6.1c8.5-1.5 17.3-.5 25.8-1.5a49.303 49.303 0 0 0 15.6-4.6c5.8 6.2 4.2 17.2 5.8 25 .2 1.1 1.1 6.8 2.1 13l-1.3 1.7a2 2 0 0 0-.6 1.6c.4 1.6 1.4 1.2 2.5.2.8 5 1.6 9.9 2.1 12.6h-1c-8.3-2-15.1-7.4-22.3-11.7-2.9-1.7-8-4.8-11.5-3.2-7.9 3.6 5.4 13 12.6 17.8l-2.3-.3c-3.6-.4-7.2-1.1-10.7-1.3-3.5-.2-11.3-.5-12.6 4.4-1.9 6.8 6.9 10.1 15.2 12.3-.2 1.8-.3 3.8-.4 5.2l-1.3.5c-3.3 1.5-9.5 3.8-10.7 7.8-2.7 9.4 15.4 4.7 22.5 3.6v.2a28.595 28.595 0 0 0-7.4 4.6 53.504 53.504 0 0 0-4.8 4.7c-2.2 2.4-5.6 6.8-4.3 10.3 1.3 3.5 6.5 3 9.3 1.7 2.8-1.3 5-3 7.5-4.6a26.756 26.756 0 0 1 4.1-2.2c2-.8 2.4-.9 1.8 1-1.3 4.4-6.2 7.2-7.6 11.8-1.4 4.6-.7 8.8 3.8 9.9 4.5 1.1 10.6-3.8 14.2-6.9a46.405 46.405 0 0 1 8.4-6c-.1.3-.1.6-.2 1-.2 5.4.9 10.8 1.4 16.1.9 8.6 2.4 17.5 2.4 26.1 1.2 15.7 2.6 31.3 3.8 46.9v1.1c-1.6 1.4-3.4 2.8-5 4.3s-4.6 4.2-7.9 4.9l-2.1.3a59.337 59.337 0 0 1-8.4.2c-2.4-.2-4.8-.2-4.3 3a6.502 6.502 0 0 1-.2 3.1c-1 3.4-4 5.1-6.7 7a91.768 91.768 0 0 1-9.5 5.7c-.3.2 0 4.2 0 4.7s0 3.3.1 4.9c0 3.5.1 6.9.3 10.3l.6 12.7c.1 3.9.5 7.7-.7 11.5l-.9 2.4c-.3.4-1.5 1.7-1.5 2.1-4.3 5.3-12.1 8.1-18.1 11.3-6 3.2-11.1 5.1-16 8.6s-4.8 7.2-4.1 12.9c1 7.4 2.3 14.8 3.3 22.3a41.79 41.79 0 0 0-7.7-4.2c-2.8-1.2-5.3-2.2-8.2-.7-2.9 1.5-6.2 5.6-8.4 8.7-2.2 3.1-5 6.4-5.7 10-.073.435-.039.881.1 1.3-18.6-2.5-38.5 1.1-51.9 12.6a41.923 41.923 0 0 0-8.2 9.9c-5.8-.3-11.8.5-17.6.3-5.8-.2-13.9-.9-20.8-1.6-11.5-1.3-22.9-3-34.3-4.5-3.7-.5-8-1.2-11.6-.1-3.6 1.1-6.7 4.8-9.1 7.7-2.4 2.9-2.6 4.1-4.2 5.8-1.6 1.7-.8.8-1.4 1-.6.2-2.5.1-3.4.2-6.8.7-12.8 4.1-19.7 4.1a1.201 1.201 0 1 0 0 2.4c8.2.3 16-4.5 24.1-3.2a1.707 1.707 0 0 0 1.7-.4c4.4-5.4 9-12.8 16.7-12.9 7.7-.1 14.5 2.1 21.8 2.9 10.3 1.1 20.7 2.3 31.2 3 7.5.5 16.6 1.3 24.4-.4-2.8 6.5-3.2 13.6 2.5 18.4 5.7 4.8 13.9 3.8 20.2 2 8.4-2.2 15.5-7.2 22.1-12.6 6.6-5.4 14.1-12.6 22.7-16.6a69.99 69.99 0 0 1 14.8-5.1 47.757 47.757 0 0 1 7.6-.8c1.4-.1 3.2-.3 4.8-.3.95.051 1.891.219 2.8.5 1.9.8 3.6 2.2 5.7 3a64.116 64.116 0 0 0 7.5 2.1l2.1.6h-4.1c-2.206.007-4.409.14-6.6.4-3.2.5-6.1 1.7-6.3 4.6a.401.401 0 0 0-.1.3c0 4.2 6 5.2 9 6.2a84.664 84.664 0 0 0 14.1 3.2c-4.9 1.3-9.8 2.5-14.9 3.5-3.1.6-13.2 2.7-8.9 7.8a6.799 6.799 0 0 0 4.1 2.3c2.114.352 4.262.452 6.4.3 5.7-.1 11.4-.9 17-1.4-7.8 2.8-20.6 7.6-19.1 13.4a9.441 9.441 0 0 0-1 1c-2.2 2.5-4.8 5.4-7 7.5-2.2 2.1-7.5 4.7-11.9 5.9-4.4 1.2-7.5 1.4-10.4 3.3-2.9 1.9-2.1 2.9-2.7 4.8-3.4 10-6.1 20.2-9.7 30-3.6 9.8-7.6 19.4-9.5 29.6-11.3.7-22.6.1-33.9-.4-5.8-.3-11.6-.5-17.4-.4-4 .1-8.5-.2-12.3 1.3-6.7 2.6-11.3 9.4-15.4 14.9-2.7 3.6-5.4 8-9.7 9.8-4.3 1.8-8.5 1.1-12.7 1-.7 0-.9 1.1-.2 1.2 6.1 1 12.6 1.3 17.6-2.9 5-4.2 9.8-13.3 16.1-18.7 4.5-3.9 8.9-4.2 14.7-4.2 5.8 0 12.2.3 18.3.7 12.1.7 24.3 1.6 36.4 1.2a1.697 1.697 0 0 0 1.7-1.3c1.9-10.1 5.8-19.5 9.4-29 3.6-9.5 6.3-19.6 9.6-29.4 1.5-4.4 1.5-5.1 6-7 4.5-1.9 7.4-2.7 11-4.4a34.203 34.203 0 0 0 13.8-12.9c1.8 2.3 5.8 2.4 8.6 2.3-5.3 10.8-3.6 23.8-6 35.3-1.5 7-6.6 10.5-12.4 14.2-5.8 3.7-10.7 6.7-15.4 10.9-7.2 6.6-9.6 14.6-10.1 24.2-.6 14.5-8.6 27.2-12.1 41a115.05 115.05 0 0 0-2.7 18.4c-.4 5.7 1 13.9-1.9 19s-11 2.1-16.7 2.6a40.716 40.716 0 0 0-13.3 3.8c-3.8 1.8-7.3 4.3-8.6 8.4-1.3 4.1.2 10.3 1.1 15.2 1.6 8.7 4.1 21.1-3.8 27.6-7.9 6.5-25.1 5.2-31.4 16.8-2.1 3.8-2.5 8.2-3.7 12.3l-.6.2a22.902 22.902 0 0 1-7.8.9H358a398.758 398.758 0 0 1-52.3-3.8 169.678 169.678 0 0 1-43.7-12l-7.3-3.2a22.705 22.705 0 0 1-6.7-10.8c-.9-3.8-.3-7.5.1-11.3a68.756 68.756 0 0 0-.2-13.6c-.1-1-.1-2-.2-3-1.4-18.5-2.3-36.9-4.2-55.4-1.9-18.5-3-38.6-4.2-57.9Zm346-40.1c-3.5 15.4-10.4 30-12.2 45.8-1.7 13.8.3 29.8 7.5 41.9 4 6.8 8.4 12.6 11.3 20.1 1.9 5.2 4.1 10.3 8.4 14a65.41 65.41 0 0 0 9.6 6.2c2.1 4 3.2 7.7 3.1 11.1-5.3-3-12.6-4.7-16.9-8.3-1.2-1-2.9.6-1.8 1.8 4.4 4.7 12.7 5.9 18.3 9.5a15.406 15.406 0 0 1-6.2 8.5c-8.5-4.4-19.4-2.7-27.1-8.9-5.4-4.3-7.5-11.4-9.5-17.7-2-6.3-3.7-12.6-6.8-18.4-3.1-5.8-5.3-11.4-5.9-18.6-.6-7.2-1.2-12.3-.7-18.2 1-11.3 6.8-21.9 6.4-33.3-.2-5.7-4.5-8.7-8.3-4.2v-.8a20.198 20.198 0 0 0-7 8.3 75.324 75.324 0 0 0-2.4 8.1c-2 6.8-5.9 13-8.8 19.5-5.2 11.9-3.8 26.6-1.9 39.2 1.6 10.6 3.7 23 .2 33.6-1.4 4.1-4.6 8-9 8.7-2.5.5-5.1-.1-7.8-.2a19.498 19.498 0 0 0-15.6 6.8c-3.5 4.1-6 10.9-3.9 16.2 2.1 5.3 7.5 10.6 9.1 16.4a6.896 6.896 0 0 1-1.2 5.9c-1.9 2.2-5.2 2.5-8.2 2.4-3-.1-6-.3-8.6 1-2.6 1.3-4.4 4.9-6.3 7.6-3.8 5.2-11.8 9.8-18.1 10.7a42.21 42.21 0 0 1-15-1.1c.125-.384.293-.753.5-1.1 1.4-2.3 4.1-3.6 6.6-4.5l2.4-.6c3.4-.8 7-.9 10.5-1.6 9.3-1.8 15.3-9.1 18.3-17.8.4-1.2-1.3-1.8-2-.8-3 4.3-5.8 9.3-10.2 12.4-4.4 3.1-8.1 3.5-12.6 4.2a37.267 37.267 0 0 0-4.6.9c-5.1 1.1-10 3.2-12 8a9.393 9.393 0 0 1-3.1-1.7 6.204 6.204 0 0 1-2.1-3.2c.7-3.3 1.5-6.6 3.4-9.3 4-5.2 12-7.1 18-9 8.6-2.9 16-7.5 17.5-17.1.7-4.4.2-8.8-.3-13.2-.5-4.4-3.7-13-2.5-18.7 1.2-5.7 9.4-8.9 15.1-10.2a20.711 20.711 0 0 1 8.2-.6c2.4.4 4.9 1.2 7.4 1 11.9-1.4 9.7-17.2 10.3-25.4a92.835 92.835 0 0 1 3.5-21.6c2.1-7 5.2-13.7 7.6-20.6a65.695 65.695 0 0 0 3.9-19.6c.2-5.8 1.5-11.3 5.1-15.9 3.6-4.6 10.5-9.4 16.3-13 5.8-3.6 11.9-6.9 14.7-12.9 2.8-6 2.5-12.3 3.1-18.2a124.987 124.987 0 0 1 4.5-23.5c3.2-.3 6.4-.7 9.6-1.3h.2c-.1.2-.2.3-.2.4-6.3 12.5 1.3 27.7-1.8 40.9Zm16.9 162.4c-.2 4.8-2.3 8.3-4 12.6a43.5 43.5 0 0 1-20.9 22.6c-11 5.7-23.5 7.7-35.8 9.6-15.5 2.5-30.6 3.3-46.2 3.9a6.3 6.3 0 0 1-4.3-.8c1.1-3.8 3.4-6.7 8.8-7 5.4-.3 10.5.3 13.9-4.8 3.4-5.1 1.2-12.8-.8-18.8s-2.4-16.1 1.4-23.2c8.9 2.2 18.4 1.9 26.2-3.3 7.8-5.2 12.9-14.5 12-24.6-.9-10.1-6.2-21.6-8.1-32.7-2.3-13.3.7-26.2 4.4-39l4-14.5a34.659 34.659 0 0 1 1.9-5.7c.9-2.2 4.1-7.7 5.4-2.3.9 3.7-.7 8.9-1.5 12.5-1.5 6.6-4.1 13-5.3 19.7-.8 5.2-.5 10.6-.5 15.8 0 5.2.2 11.6 1.9 17s5.4 10.5 7.4 16 3.8 12.7 6.4 18.8c4.6 10.9 13 15.3 24.1 17.5 3.2.7 7.1.9 10.5 2-1.4 2.5-.8 5.7-.9 8.7Zm58.4 13c13.9 1.1 27 4.3 40.4 8.1 4 1.2 26.3 8.6 15.7 14.9-6.4 3.7-14.9 2.2-21 6.5a2.493 2.493 0 0 0-1.253 1.803A2.502 2.502 0 0 0 695.1 893c5.5 6.6 13.6 9.3 21.4 11.9 5.2 1.8 10.8 5.5 10.9 11 .1 7-8.2 10.7-15 12.3-35.8 8.6-69.6 14-106.5 13.9-38.9-.1-77.8-.6-116.7-.6-26.9.1-54.5.5-81.1-.9-26.6-1.4-53.7-1.8-80.6-2.7-26.9-.9-53-1-78.9-4.9-11.5-1.7-22.9-4-34.3-6-9.1-1.5-65.5-11.6-51-29 4.9-6 16.4-6.2 23.2-8.4 1.5-.5 2.6-2.3 1.6-3.7-2.4-3.2-10.3-4.2-6.9-9.7 1.3-2 3.6-3.1 5.8-4a169.205 169.205 0 0 1 45.4-11.5c2.629-.093 5.228-.6 7.7-1.5a27.001 27.001 0 0 0 4.4 16.6c7 10.4 19.4 15.9 30.9 19.5 15.2 4.7 31.4 6.4 47 8.2 20.5 2.5 41.1 3.9 61.6 4.7 18.9.8 37.8 1.2 56.6 1.4l-1.3.4a56.863 56.863 0 0 1-12.3 1.7c-9.3.2-19-2.6-27.6 2-1 .5-.3 2.3.8 1.9 10-3.6 21.7.5 32.1-.7 4.9-.5 12.3-1 15.6-5.2 19.3.1 38.7-.9 58-1.6 34.1-1.1 70.9-2.4 96.6-28.2a85.017 85.017 0 0 0 14.8-20 272.16 272.16 0 0 1 43.3-.3Zm-45.8-96c-2.8 13.9-4.5 28-6.5 42a68.505 68.505 0 0 1-13.3-15.7 67.608 67.608 0 0 0-3.3-7.8l-1.1-1.9c-1-3.3-1.6-6.8-2.5-10.1-.9-3.3-3.1-9.4-4.4-14.2-2.4-8.5-4.9-18.3-3.7-27.2.1-.4.1-.9.2-1.3 1.2-7 4.5-14.1 7.2-20.5a69.291 69.291 0 0 0 6-22.8c.8-9.2.2-18.4-.4-27.6-.3-3.8-.5-7.7-.8-11.6 13.6-.9 27.1-4.1 40.5-7-2.3 42.4-9.6 84.1-17.9 125.7Zm77.4-132H657a3.392 3.392 0 0 0-2 0h-14.6c-16.8.4-32.9 4.4-49.3 7.4-2.4.4-23.8 6.1-23.7.4.4-2.5 9.5-6.2 11.5-7.1 2-.9 6.6-3.2 9.9-5h.1a.897.897 0 0 0 .636-.264.897.897 0 0 0 0-1.272.897.897 0 0 0-.636-.264c-5.4 0-10.7.7-16.1 1a70.49 70.49 0 0 1-8 .2c-1.426.173-2.864.24-4.3.2l-1.1-.4c-3.1-2.1.9-4.3 2.7-4.8a45.693 45.693 0 0 1 7.3-1c6.4-.9 12.5-2.8 18.8-4.1a1.698 1.698 0 0 0 .93-2.697 1.698 1.698 0 0 0-.93-.603c-5.8-1.6-11.9-1.9-17.7-3.4l-6.4-1.6c-.9-.3-4.7-1.3-4.9-2.4v-.3c.2-1.3 2.8-1.8 4.4-2l.9-.2c2.73-.2 5.47-.2 8.2 0 5.4 0 10.7-1 16.1-.8a1.7 1.7 0 1 0 0-3.4c-8.5-.3-19.1-2.7-26.5-6.7-1.2-.6-3-1.4-2.7-2.7.3-1.3 8.3-3.1 10.1-3.3 3.6-.2 7.1 0 10.7-.1 5.3-.3 10.5-1.1 15.8-1a1.498 1.498 0 0 0 1.327-1.971 1.5 1.5 0 0 0-.527-.729c-5.5-3.2-12-5.7-14.8-11.7l-.4-.9c-.9-2.9 1.3-3.2 4.1-2.2a54.574 54.574 0 0 1 7.7 2.8c4.9 2.4 9.5 5.7 14.6 7.8 10.9 4.5 21.4 3.9 32.9 2.9l13.8-1.2a4.986 4.986 0 0 0 1.7-.2c20.3-1.9 40.4-4 60.9-4.1a54.278 54.278 0 0 0 .3 16.1 94.21 94.21 0 0 0 7.7 25.9c.325.818.692 1.619 1.1 2.4 0 .1.1.2.1.4a34.796 34.796 0 0 0 7 9.9c-3.3 1.4-7.1 1.5-10.8 1.3l-6.2-.2h-24.5v-.1Zm-2.2 80.1c.1-2 .3-4 .4-6 2.2 3 4.9 5.6 6.9 8.7 3 4.7 5 9.8 4.5 15.4-.6 8.2-4 17.4-10.9 22.4a195.842 195.842 0 0 1-.9-40.5ZM741.8 827l-.2.2c-3.2 2.9-10.3 1-14.1.4a56.466 56.466 0 0 0-14.2-.8c-2.7.2-9.2.8-16.9 1.2-15.5.7-35.7.3-38.1-7.6 4.4 3.3 11 3.6 16.1 4.3 9.4 1.2 19.5 0 28.7-1.7a.6.6 0 0 0 .5-1 .799.799 0 0 0-.7-.5c-6.6-.6-13.2.4-19.8.7-1.832.1-3.668.1-5.5 0l-5.8-.5c-4.8-.5-9.5-1.4-13.6-3.9a13.303 13.303 0 0 1 2.8-5.8c4.5-6.2 15-6.6 22-7.2l3.2-.3c-.7 3.1-.3 7.1 1.6 9.5a1.102 1.102 0 0 0 1.8-.4c.214-1.624.281-3.264.2-4.9-.1-1.5-.1-3-.3-4.4l5.6-.6v2.3a45.781 45.781 0 0 0-.3 5.3 1.106 1.106 0 0 0 .826.945 1.1 1.1 0 0 0 1.174-.445c1.5-2.2 1.6-5.6 1.3-8.4l5.5-.9c2.6 4.6 12.2 6.6 16.1 7.6a74.126 74.126 0 0 0 11.6 2.1h.8c2.4.1 7.6-1.9 9.7-.8 3.7 2.1 2.6 12.7 0 15.6Zm151.6 53.9a1.895 1.895 0 0 0-1.2-.7l-3.7-3.8c-4.3-4.3-8.6-8.5-12.5-13.2a174.711 174.711 0 0 1-15.1-21.3c-9.3-15.1-16.9-31.2-24.1-47.5-13.3-30.3-26.2-61-41.8-90.3-8.1-15.1-16.6-26.9-31.2-36.4h-.4c-.9-.2-1.7 1.1-.9 1.7l2.4 2.2h-.4c-17.9 15.5-29.2 38-35.7 60.3a146.678 146.678 0 0 0-5.9 40 116.807 116.807 0 0 0 1.4 19.6c.7 5.4 1.7 11 4.9 15.5a.802.802 0 0 0 1.2.2.797.797 0 0 0 .2-1c-5.2-10.8-5.6-24.4-5.5-36.1a148.222 148.222 0 0 1 6-39.1c6.4-21.3 17.1-42.5 33.6-57.8l.6-.6.4-.4.3.3a115.886 115.886 0 0 1 9.5 10.4c-6.8 8.7-13.5 17.1-18.5 27.2a165.344 165.344 0 0 0-12.5 37.5 184.607 184.607 0 0 0-3.7 41.3c.1 5.8.1 11.8.2 17.8l-.7.4c-2.3 1.7-5.8 1.9-9.4 1.6a66.783 66.783 0 0 1-9.8-1.8c-5-1.1-10.3-2.3-14.4-5.5l-1.3-1.2a10.985 10.985 0 0 1-1.4-1.8c-1.5-2.3-2-4.7-3.1-7.8-1.1-3.1-3.3-8.7-4.6-13.1-2-6.801-3.603-13.713-4.8-20.7l-.3-2.4c7.6-4.2 11.3-14.8 12.3-22.9 1.2-10.3-4.9-21.5-12.8-28.1a229.154 229.154 0 0 1 5.4-34 137 137 0 0 1 6.9-20.8c1.6-3.9 3.9-8 5.3-12.2 12.4 18 34.1 26 55.2 30.4h.2l13.3 2.4a228.592 228.592 0 0 0 34 3.1 161.117 161.117 0 0 0 19.6-1.2 124.198 124.198 0 0 0 23.2-5.5h.3c3.4 9.1 5.7 18.6 9.9 27.5 3.3 7.1 8.8 17.3 18.1 16a1.096 1.096 0 0 0 .9-.8c4.2 15.2 8.6 30.3 12.8 45.4 2.7 9.7 5.3 19.5 8.1 29.3s6.6 21.9 10.6 32.6a40.893 40.893 0 0 1-5.1 2.6c-11.6 5.1-24.2 3.9-31.8-9a43.907 43.907 0 0 1-4.7-10.6c-1.1-4.1.5-6.1 4.5-7.2 4-1.1 8.6-2 12.9-3.5l2.8-1.1a87.596 87.596 0 0 1 10.3-3.1c.3 0 .4-.4.3-.6a.496.496 0 0 0-.5-.3 37.398 37.398 0 0 0-9.9 2.2c-2.5.9-5.1 1.9-7.7 2.6-2.6.7-9.3 1-12.8 3.7-5.4 4-.4 12.6 1.8 17.1 3.9 7.7 10.3 14.1 19.1 15.5 3.157.501 6.381.399 9.5-.3a42.394 42.394 0 0 0 12.4-5.2 207.964 207.964 0 0 0 13.4 28.2 95.346 95.346 0 0 0 7.2 10.7c1.2 1.7 5.3 4.9 4.8 7.1-.5 2.2-4.2 2.7-6.1 3.1-6.9 1.7-13.9 3.2-20.9 4.8-3.3.8-17.6 3.3-20.6 8.6Zm79.1 25.8c-.138.476-.305.944-.5 1.4-4.5 9.1-21.2 6.2-29.1 4.8-10.8-2-19.5-6.2-27-14.3-.6-.7-1.5-.1-1.6.6-.1.7-.7.2-1 .7-3.5 6.2-9.8-4.9-11.8-7.9s-3-6-5.3-8.2c1.8-2.7 6.5-3.9 9.1-4.7 6.1-1.8 12.3-3 18.5-4.3l7.8-1.9a60.919 60.919 0 0 0 9.4-3.1 27.669 27.669 0 0 0 3 2.9c-2.5-.4-5.7.9-7.6 1.9a16.5 16.5 0 0 0-2.2 1.4 14.196 14.196 0 0 0-4.6 5.7c-.4 1 1.2 1.6 1.8.7a15.903 15.903 0 0 1 4.7-4.6l2-1.1a19.027 19.027 0 0 1 4-1.4c1.2-.4 2.3-.2 3.5-.8a.51.51 0 0 0 .2-.4l1.3.9c4.1 2.6 8.7 4.7 11.9 7.1 6.1 4.5 16.1 16.1 13.5 24.6Z"/><path fill="#FFFFFF" d="M933.1 884.5c-.9 1.1.6 2.6 1.6 1.6a32.983 32.983 0 0 1 6-5.2l.4-.3c2-1.4 4.4-2.4 6.2-4a.907.907 0 0 0 .309-.805.897.897 0 0 0-.509-.695 1.103 1.103 0 0 0-.8-.1c-2.5.4-5.1 2.4-7.1 3.9l-.8.6a35.68 35.68 0 0 0-5.3 5ZM936.2 402.6c0 1.7.1 3.5.1 5.2a19.417 19.417 0 0 1-1.2 5.3.802.802 0 0 0 1.4.7c2.6-2.9 1.8-7.6 1.8-11.2a1.104 1.104 0 0 0-1.05-.772 1.102 1.102 0 0 0-1.05.772ZM933.9 378.6c-.9-.7-2.2.6-1.3 1.3a8.1 8.1 0 0 1 2.6 3.5.717.717 0 0 0 1.4-.3 7.796 7.796 0 0 0-2.7-4.5ZM934.8 372.2c.3.5 1 .1.9-.4a21.308 21.308 0 0 0-4.6-10.4c-.5-.7-1.6.2-1.2.9 1.9 3.2 3 6.7 4.9 9.9ZM927.6 432.6a10.704 10.704 0 0 0 1.6-1.4c1.9-2.5 2.8-6.2 3.7-9 .9-2.8-1.6-1.8-2-.6-.4 1.2-1.2 3.5-1.9 5.2-.7 1.7-1.7 3.1-2.4 4.7a.697.697 0 0 0 .1.9.596.596 0 0 0 .403.311.605.605 0 0 0 .497-.111ZM925.7 420.2a24.004 24.004 0 0 0 2.4-8.7c.2-1.1-1.6-1.6-1.7-.5-.4 3-1.2 5.9-1.7 8.8-.1.6.7 1 1 .4ZM920.5 437.8c-1.1 1.3-2.2 2.4-3.4 3.6-1.2 1.2-2.4 2.1-1.9 3.4a.898.898 0 0 0 .7.6c1.3 0 2.2-1.7 3-2.6.8-.9 2.1-2.2 3.1-3.4 1-1.2-.6-2.7-1.5-1.6ZM910.3 344.2a16.099 16.099 0 0 1 4.8 3.4 21.6 21.6 0 0 0 3.8 3.6c.6.5 1.3-.4 1-1a18.678 18.678 0 0 0-4-4.9 15.316 15.316 0 0 0-5.1-3c-1.2-.4-1.6 1.4-.5 1.9ZM898.4 356c.8.2 1.2-.9.5-1.4a7.196 7.196 0 0 1-2-1.9 1.204 1.204 0 0 0-1.249-.58c-.161.029-.314.09-.451.18-.5.4-.7 1.4-.2 1.8a16.287 16.287 0 0 0 3.4 1.9ZM893.4 438.5c.8-.1 1.7-.9 1.3-1.8-1-2.5-3.4-3.9-4.2-6.6a14.804 14.804 0 0 1 .7-8.6c.6-1.6-1.6-2.3-2.5-1.1a13.508 13.508 0 0 0-2.3 10.8c.7 3.2 3.3 7.5 7 7.3ZM883.2 341h3.5c1.051.238 2.123.372 3.2.4a.8.8 0 0 0 .6-1.4c-1.9-1.6-5-1.5-7.3-1.2-2.3.3-1.4 2.4 0 2.2ZM888.1 449.4c.1 0 .1-.2.1-.2s0-1.4.1-2c-.1-.2-.1-.4-.2-.6-.8-2.8-3.7-5-6.2-6.1-2.5-1.1-9.1-3.1-11.8-.7a1.2 1.2 0 0 0 0 1.6c2 1.7 5.9 1.3 8.4 2.1a11.497 11.497 0 0 1 4.3 2.1 10.706 10.706 0 0 1 2.5 3.5c.1.1.2.2.2.3l.3.3a1.196 1.196 0 0 0 1.265.734 1.196 1.196 0 0 0 1.035-1.034ZM869.2 330c1.743-.36 3.52-.527 5.3-.5 1.9.1 3.3 1.1 5.1 1.5 1.8.4 1.8-.8 1.3-1.6-2.6-3.9-8.2-2.7-12-2.1-1.5.2-1.2 2.8.3 2.7ZM877.9 452.3c.6 0 1.1-1 .4-1.3a12.667 12.667 0 0 0-1.8-.6 9.477 9.477 0 0 1-1.7-1c-.8-.7-1.7.8-.8 1.4a5.597 5.597 0 0 0 3.9 1.5ZM878.1 345.1c-3.5-1.1-7.3.2-10.6 1.6-1.5.6-.8 3.1.8 2.5 3.2-1.2 6.5-1.5 9.8-2.4a.9.9 0 0 0 0-1.7ZM856.6 336.7c2.004.05 4.01-.05 6-.3a26.085 26.085 0 0 0 5.6-.8 1.002 1.002 0 0 0 .668-1.487 1 1 0 0 0-.468-.413c-3.5-1.7-8.1.2-11.8.2-1.8-.1-1.8 2.6 0 2.8ZM848.5 347.8c-1 1.1.5 2.6 1.5 1.6a9.605 9.605 0 0 1 4.5-2.7c1.7-.4 3.1 0 4.7.1a.89.89 0 0 0 .5-.133.894.894 0 0 0 .2-1.367c-3.3-3.3-8.9-.2-11.4 2.5ZM858.8 354.5c-3.6-1.1-7.9 1.2-10.8 3.1a1.213 1.213 0 0 0-.465.271 1.196 1.196 0 0 0 .167 1.879 1.189 1.189 0 0 0 1.04.132 1.19 1.19 0 0 0 .458-.282 23.893 23.893 0 0 1 5.2-2.2 34.947 34.947 0 0 0 4.6-1.4c.7-.3.4-1.4-.2-1.5ZM836.5 388.1c5.2 1.1 15 5.5 18.7-.4 1.1-1.7-.7-3.4-2.4-3.1-1.7.3-2.8 1.1-4.5 1.1a27.449 27.449 0 0 1-5-.8c-2.3-.5-5.2-1.2-7.2.3s-1.1 2.6.4 2.9ZM838 436.8c-.9.7-.2 2.1.8 1.6 4.2-2.1 7 2.3 8.6 5.6a16.002 16.002 0 0 1 1.6 4.8c.187.528.248 1.092.178 1.647A3.589 3.589 0 0 1 848.6 452c-1 1.6-2.9 2.4-4.6 1.2-1.7-1.2-2.2.6-1.5 1.4 1.9 2.8 5.1 2 7.2-.2 2.1-2.2 1.9-5.6.8-8.6-1.6-4.6-6.7-13.4-12.5-9ZM840.2 332.4a19.889 19.889 0 0 1 4.9-.5c1.4-.1 3 .2 4.4-.3a1.104 1.104 0 0 0 .468-1.594 1.11 1.11 0 0 0-.468-.406 17.294 17.294 0 0 0-10.2.7c-1.2.5-.3 2.3.9 2.1ZM822.9 411.5c5.7.1 11.4 3.8 14.9 8.2a1.7 1.7 0 0 0 2 .2l.4-.2a1.8 1.8 0 0 0 0-2.4 31.893 31.893 0 0 0-2.6-2.6 7.8 7.8 0 0 0 5.8-5.9 21.849 21.849 0 0 1 3.1 2.2 2 2 0 0 0 2.8-2.8c-4.3-4.6-21.1-12.7-25.8-5.1a1.097 1.097 0 0 0 .389 1.432c.154.097.33.155.511.168h1.9a7.664 7.664 0 0 0-.2 1.5 7 7 0 0 0 .5 3.5 17.018 17.018 0 0 0-3.9.1.895.895 0 0 0-.517.923.9.9 0 0 0 .717.777Zm5.3-5.6c.8-1.6 2.8-2.6 4.5-1.2a3.097 3.097 0 0 1 .5 4.1 3.2 3.2 0 0 1-4.1.6 2.803 2.803 0 0 1-.9-3.5ZM834.2 345.1a9.9 9.9 0 0 1 4.8-3.4c1.5-.6 3.3-.8 4.7-1.6a1 1 0 0 0-.2-1.7c-2-.5-4.5.4-6.3 1.3a10.394 10.394 0 0 0-4.9 4.4c-.7 1.2 1.1 2.2 1.9 1ZM832.6 398.2c1.017.103 2.022.304 3 .6a6.89 6.89 0 0 0 2.8.8 1.005 1.005 0 0 0 .892-.485.993.993 0 0 0 .008-1.015c-1.2-1.9-4.4-2-6.4-2.1-2-.1-1.5 2-.3 2.2ZM836.9 360.1c-1.9-.4-3.7.7-5.3 1.5a39.867 39.867 0 0 0-5.6 3.4c-1 .6-.4 2.5.9 2s3.5-1.4 5.3-2.2c1.8-.8 4-1.3 5.2-2.7a1.21 1.21 0 0 0 .31-.529c.055-.2.058-.411.008-.613a1.2 1.2 0 0 0-.818-.858ZM823.6 418.1a1.103 1.103 0 0 0-.642 1 1.104 1.104 0 0 0 .642 1c2 .5 4 .3 5.9.5 1.9.2 3.9.9 5.9 1.1 2 .2 1.4-1.2.8-1.9-2.6-2.9-9.2-2.6-12.6-1.7ZM795.4 170.6c-.5.2-1.1.7-1.1 1.2s1.5 1 2.4.7c6.3-2.1 12.6-3.2 19-4.9 6.4-1.7 15.6-3.2 19.9-8 2.7-3.1-.2-6.3-3.7-6.4-6.8-.2-14.4 4.5-20.1 7.6-5.7 3.1-10.9 6.6-16.4 9.8Zm29.2-13.8c2.2-.9 7.7-3.4 9.9-1.1 4.1 4.4-17.3 9.5-19.8 10.2-2.5.7-7.6 1.6-11.5 2.7 2.9-1.9 5.8-3.7 8.8-5.4a82.805 82.805 0 0 1 12.6-6.4ZM835.6 441.6c-1.1-2.4-5.3 2.2-1.4 2.1a1.49 1.49 0 0 0 1.138-.507A1.504 1.504 0 0 0 835.7 442c0-.2-.1-.3-.1-.4ZM808.4 436.9c-3.6.8-5.9 3.9-7.8 7.7-1.9 3.8-2.1 6.8 1.6 8.3a5.997 5.997 0 0 0 3.5 0l3.4-.5a14.197 14.197 0 0 1 5.4.3c6.1 1.6 10.7 6.6 14.7 11.2a1.8 1.8 0 0 0 2.4 0c2.5-2 3-4.8 2.5-7.8-1-4.9-5-10.2-8.1-12.6a34.703 34.703 0 0 0-13.7-6.5 7.407 7.407 0 0 0-3.9-.1Zm23 19.7a4.8 4.8 0 0 1-.9 3.7c-4.5-4.9-9.7-9.8-16.5-11a15.513 15.513 0 0 0-5.3.3 18.312 18.312 0 0 1-3.3.2c-4.7-.5-1.8-5.1.8-8.5 5.7-2.3 11.5.3 16.6 3.4 2.8 1.7 8 7.3 8.6 11.9ZM827.2 352a1.5 1.5 0 0 0-.6 2 1.402 1.402 0 0 0 2 .5l2.4-1.3a3.4 3.4 0 0 0 1.9-1.6 1.003 1.003 0 0 0-.5-1.2c-.8-.6-2-.2-2.8.1a9.684 9.684 0 0 0-2.4 1.5ZM787.2 140.1c4.9-3 9.2-6.7 13.7-10.2 4.5-3.5 8.1-4.5 12.1-6.6a59.539 59.539 0 0 0 10.9-7c2.7-2.3 6.8-6.2 7.6-9.7 1.5-6.3-8.9-3-11.4-1.6s-7.4 5.8-10.8 9.1a235.805 235.805 0 0 0-22.8 25.1.6.6 0 0 0 .7.9Zm13.3-14.6c5.9-6.6 12.1-13.6 19.7-18.4 1.8-1.2 7.2-4.5 9.4-2.4s-7.5 11.3-9.8 12.8c-7.8 5.4-17.1 8.6-24.5 14.6 1.8-2.3 3.5-4.7 5.2-6.6ZM818.1 348.5a20.484 20.484 0 0 1 6.1-5.3c1.9-1.2 4.3-2.2 5.7-3.9a.918.918 0 0 0-.9-1.6c-4.9.9-10.7 5.2-12.7 9.7-.5 1.2 1.1 2.2 1.8 1.1ZM814.2 200.9c2.9-1.1 12.1-3.6 12.1-7.8.1-6.7-12.7 0-14.8.7-12.5 4.7-26.1 9-37.4 16.3-.5.3-.2 1.2.4 1a72.087 72.087 0 0 0 9.7-3.8c9.8-2.6 20.3-2.9 30-6.4Zm-12.3-1.8c4.3-1.6 8.7-3 13-4.8 1.9-.8 3.8-2.1 5.8-2.4 3.5-.5 5 1.2 2.1 3.3-9.4 6.8-21.9 7.4-33.3 9.6 4.1-2 8.2-4.1 12.4-5.7ZM816.6 358.1c.4-1.4.9-2.5 2.3-3s1.2-2.5-.3-2.4a4.812 4.812 0 0 0-3.402 1.511 4.792 4.792 0 0 0-1.298 3.489 1.404 1.404 0 0 0 1.191 1.276 1.402 1.402 0 0 0 1.509-.876ZM805.1 389.2c1.2.3 2.1 2.1 2.4 3.2a1.996 1.996 0 0 0 1.63 1.246 2.001 2.001 0 0 0 1.87-.846c3-4 6.1-14.7.7-18.3-.5-.3-1 .2-.9.8a18.202 18.202 0 0 1-1.5 13 4.31 4.31 0 0 0-4.2-1.3 1.2 1.2 0 0 0 0 2.2ZM737.1 240.9h.6c7.7-1.2 15.7-.8 23.6-1.5 6.1-.6 15.1-.7 20.2-4.6 2.9-2.2 1.6-4.5-1.7-4.8-6.9-.7-14.8 1.8-21.5 3.4-6.7 1.6-15.1 3-21.7 6.7-1 .5-.2.7.5.8Zm19.6-5.4c4.4-1.1 8.9-2.2 13.3-3 2.5-.4 8-2.1 10.6-.9 2.6 1.2-3.4 3.4-4.8 3.7a82.955 82.955 0 0 1-14 2c-5.2.4-10.6 1-15.9 1l10.8-2.8ZM741 162.7l.7-.7c.313.029.628-.041.9-.2a48.781 48.781 0 0 0 4.1-3.8c10.1-7.4 21.7-13.2 29.2-23.4.4-.4.1-1.2-.4-1.5-5.8-2.7-12.9 4.9-16.7 8.5-3.8 3.6-8.9 9.4-13.2 14.1a52.764 52.764 0 0 0-5.8 5.8c-.6.8.4 1.9 1.2 1.2Zm15.5-15.7c2.9-3 11.1-12.9 16.7-12.4-5.2 6.5-12.3 10.6-19.1 15.1a29 29 0 0 1 2.4-2.7ZM746.4 121.1c5.8-6.2 12.6-11.1 18.7-16.9 3.1-3 6.9-6.8 6.6-11.5a.898.898 0 0 0-.9-.8c-5.2-.2-8.3 4.3-11 8.2-4.6 6.7-10.6 12.9-14.5 20.1-.4.7.5 1.5 1.1.9Zm12-15.5c1.5-2 2.8-4 4.2-6 1.4-2 6.9-8.4 7.4-5.4s-6.6 9.6-9.2 11.9c-2.6 2.3-5.4 4.5-7.9 6.9 1.9-2.4 3.7-5 5.5-7.4ZM764.1 612.6a1.097 1.097 0 0 0 1.3-1.3c-.2-1-1.1-1.9-1.5-2.9a6.09 6.09 0 0 1-.3-3.3.412.412 0 0 0-.1-.3c-.2-1-2-1.2-2.2 0a7.767 7.767 0 0 0-.2 1.6c0 2.4.7 5.4 3 6.2ZM726.8 201.7l12.9-6.9c4.8-2.6 9.5-5.3 14.4-7.7 2.1-1.1 11.5-5.7 8.5-9.3-1.5-1.7-7.3 1.4-8.9 2.2a74.55 74.55 0 0 0-8.1 5.2c-6.4 4.6-14.8 9.2-19.7 15.4a.71.71 0 0 0 .9 1.1Zm17.2-13.4a37.405 37.405 0 0 1 3.7-2.3c2.3-1.2 4.3-3 6.6-4.2 2.3-1.2 4.4-3.2 5.9-2.6 3 1.1-5.2 5.8-6.3 6.4l-11.3 6.3c-.8.4-5.8 2.6-7.7 3.8a70.098 70.098 0 0 1 9.1-7.4ZM745.9 603.8c-1.7-3.9-3.2-7.9-4.7-11.9-.4-1-1.9-.6-1.6.4 2.7 7.5 4.9 17.1 10.8 22.8.6.6 1.4-.2 1.1-.9-1.6-3.5-3.9-6.8-5.6-10.4ZM679.7 240.9c-1 .9.4 2.3 1.4 1.4l.7-.5h.5c7-3.4 15.3-4.9 22.7-7.3 8.9-2.9 18.3-5.8 26.2-10.9 2.8-1.9 9.3-7.5 4.1-10.8-5.2-3.3-16.7 3.7-21.4 6.1-12.1 6.1-24.8 12-34.2 22Zm50.1-26.4c1.8-.3 5-1 5.2 1.7.2 2.7-1.4 2.7-2.4 3.6-7.3 6.6-18.9 9.6-28.1 12.6-6 2-12.5 3.6-18.4 6 9-6.9 18.7-12.4 28.9-17.7 4.6-2.5 9.6-5.1 14.8-6.2ZM722 147.4c-5.8 4-10.7 9.6-15.1 15.1a85.323 85.323 0 0 0-5.6 7.8 15.586 15.586 0 0 0-1.6 2.8 3.89 3.89 0 0 0-.4 1.3c-.4 1.3-.7 3 .1 2.2 5.6-5.9 13-10.4 19.2-15.7 2.2-2 13.7-10.1 11.3-14.4-2.4-4.3-5.9-.5-7.9.9Zm.1 7.6c-3 2.9-6.3 5.7-9.6 8.5l-6.8 5.4c2.1-2.8 4.1-5.6 6.3-8.4a65.478 65.478 0 0 1 8.6-9.6c1.1-1 7.4-5.9 7.2-2.5-.2 3.4-4.3 5.3-5.7 6.6ZM695.8 146.9c1.4 1.2 9.3-7.4 10.5-8.6 3.7-3.7 7.3-7.5 11.2-10.9 3.9-3.4 7.6-6.5 9.4-11.1 1.8-4.6 1.7-8.5-3.3-6.1a17.998 17.998 0 0 0-5 3.7c-3 2.9-5.3 6.5-7.8 9.9l-9 12.7-4.5 6.4c-.4.5-2.2 3.1-1.6 3.9l.1.1Zm15.2-19.7c2.3-3.1 4.2-6.4 6.7-9.4a24.492 24.492 0 0 1 4.3-4.2c.6-.5 2.7-2.1 3.6-1.5.9.6-1.1 4.8-1.7 5.7-2.7 4.3-7.1 7.2-10.8 10.7-3.7 3.5-9 8.9-13.5 13.4 3.7-5 7.8-9.6 11.4-14.7ZM720.4 351.9c.7-2.3 1.4-4.5 2.3-6.7.9-2.2 2.2-3.7 2.5-5.7a1.4 1.4 0 0 0-2.3-1.4c-3.2 3.1-5 9.2-4.5 13.5a1.008 1.008 0 0 0 .85 1.15 1.008 1.008 0 0 0 1.15-.85ZM724.8 621.3l-.3-.2a19.4 19.4 0 0 0-6-1.1c-4.3-.3-8.9.4-13 .6-7.1.5-14.2.8-21.3.7-12.4-.1-26-1.4-38.1 2.3-1.1.3-.9 2.2.3 2 13-1.2 25.7-1.1 38.7-.8 6.8.2 13.6 0 20.4-.4 6.8-.4 13.3 0 19-2.3.4-.2.5-.5.3-.8ZM682.9 217.4c-.2.3-.4.5-.4.8 0 2.2 8.9-3.4 9.8-4 3.2-2.4 6.1-5.1 9.3-7.5 5.8-4.6 12.2-8.5 16.1-15a1.095 1.095 0 0 0-.02-1.042 1.102 1.102 0 0 0-.88-.558c-5.8-.6-10.7 4.2-14.6 7.8-3.9 3.6-7 6.8-10.4 10.3-3.4 3.5-6.3 5.9-8.9 9.2Zm18.5-15.7c3.5-3.3 8.1-8.6 13.3-9.4-3.9 5.3-9.5 8.7-14.6 12.7-3.1 2.5-6.1 5-9.2 7.3 3.5-3.5 6.9-7.2 10.5-10.6ZM666.9 337.4c6.4 3.2 12.9 7.3 19.6 10.4a55.81 55.81 0 0 0 8.6 3.2c1.1.2 1.7-1.2.8-1.7-8.8-5.2-18.7-9.4-28-13.5a.9.9 0 0 0-1.3.5.689.689 0 0 0-.133.627.696.696 0 0 0 .433.473ZM652.3 221.9c4-1.4 7.2-5.5 10.4-8.2 0-.5 3-2.5 3.5-2.9l3.8-3.2a35.404 35.404 0 0 0 5.9-5.7c3.4-4.2 7.3-8.3 7.1-14.1a1.204 1.204 0 0 0-1.2-1.2c-6.4-.7-10.9 5.9-14.2 10.5-5.3 7.3-12.2 14.2-16.1 22.4-1.3 2.5-.5 2.9.8 2.4Zm15.1-19.8c3.1-4.4 7.1-12.6 13.2-13.1-.5 6.4-6.6 11.9-10.9 16.1a136.373 136.373 0 0 1-12.3 10.5c2.6-4.7 6.9-9 10-13.5ZM645.9 887.5c5.3.6 10.8-1.9 15.9.4a1.546 1.546 0 0 0 1.5-2.7c-5.4-3-12-2.2-17.8-.8-1.8.5-1.2 2.9.4 3.1ZM592.9 907.8c11.5 2 23.9 1.8 35.5.7 11.6-1.1 22.3-4.1 33.5-5.3 1.3-.1 1.9-2.2.3-2.5-11-2-21.9 1.4-32.8 2.6-10.9 1.2-24.5 0-36.5 2.1a1.298 1.298 0 0 0-.582 1.921c.142.214.345.38.582.479ZM647 332c4.4.7 8.4 2.4 12.7 3.2.6.1 1.2-.6.7-1.1l-.9-.6c-7.1-5.4-18.8-4.5-27.1-4.3a.895.895 0 0 0-.767.563.902.902 0 0 0 .767 1.237c4.883.031 9.759.365 14.6 1ZM640.3 925.2c-9.1-1.7-18.6 2-27.6 2.7-9 .7-17.7-3-26.8-2.3a.997.997 0 0 0-1 1 .997.997 0 0 0 1 1c9.1.6 17.5 4.6 26.8 4.1a215.17 215.17 0 0 0 27.6-3.7 1.503 1.503 0 0 0 .698-2.249 1.503 1.503 0 0 0-.698-.551ZM633.1 623.4c-2.1-.5-4.3-.1-6.4.1l-6.5.7c-1.2.2-.7 1.7.2 1.8 2.265.234 4.552.166 6.8-.2 1.9-.2 4.1-.2 5.9-1a.702.702 0 0 0 .7-.7.7.7 0 0 0-.7-.7ZM437.8 416.2c8.6-2.6 16.2-2.8 25-1.9 8.8.9 14.9 1.6 22.4.6 15.2-2.1 28.1-11.1 40.5-19.5 6.4-4.3 13.1-9.6 20.7-11.7 7.6-2.1 18.3 1.8 27.5.8 14.5-1.4 28-10.1 38.6-19.7a1.002 1.002 0 0 0 .2-1.4 1.002 1.002 0 0 0-1.4-.2c-15 9.2-28.4 20-47.2 16.3-7.7-1.5-14.7-3.2-22.3-.3-7.6 2.9-13 7.1-19 11.2-12.6 8.6-25.9 18.1-41.6 19.3-15.7 1.2-31.9-5.3-44.5 3.8-1.3.9-.6 3.2 1.1 2.7ZM524.8 348c.27.192.576.328.9.4 1.479.309 2.999.377 4.5.2a40.4 40.4 0 0 0 14.5-3.8c5.2-2.4 9.3-6.7 13.1-10.7 2-2.1 3.9-4.8 6.8-5.7 2.9-.9 5.7-.5 8.4-.9 5.4-.8 10.3-3.6 15.5-4.9a.503.503 0 0 0-.1-1c-5.8-.2-11.1 3.5-16.9 4-3.9.4-8 .2-11.5 2.3-5.1 2.9-8.8 8-13.9 11s-13.1 3.4-19.9 5c-1.7.4-2.9 2.8-1.4 4.1ZM582.2 809.6c1 .8 2.9.1 2.4-1.4-1.6-4.6-4.8-8.6-6.5-13.3a49.389 49.389 0 0 1-3.3-15.6.897.897 0 0 0-.264-.636.897.897 0 0 0-1.273 0 .9.9 0 0 0-.263.636c-.3 10.1 1 23.1 9.2 30.3ZM576 673.8c-.4 3.4-1.9 6.4-2.4 9.8-.5 3.4.2 4.7-.4 7-.6 2.3-4.7 5.3-7.4 7.6a49.88 49.88 0 0 1-6.1 5.1c-7.9 5-17 7.3-20.1 17-.4 1.3 1.5 1.7 1.9.6 2.6-6.4 8.4-8.8 14.3-11.3a35.415 35.415 0 0 0 11.8-7.7c3.1-3.1 6.8-6.5 7.5-11.1.5-3 0-5.9.7-8.8.7-2.9 1.9-5.1 1.3-8.2-.1-.5-1-.6-1.1 0ZM559 464.2c-8.5 1.6-17-1.5-25.5-1.4-8.5.1-13.2 3-18.4 8.2-5.2 5.2-11.9 11.6-20.3 15a180.077 180.077 0 0 1-24.7 7.5c-1.6.4-1.3 2.9.3 2.8 16.7-1.6 32.6-4.3 44.8-16.9 2.8-2.9 5.5-6.3 9.1-8.4 3.6-2.1 8.5-2.7 13-2.4 7.9.4 15.4 1.8 23-1.5 1.7-.7.4-3.2-1.3-2.9ZM529.8 802.8c-2.8 5.7-.3 14.6-8.1 16.9-.9.3-.8 1.9.2 1.8 4-.5 6.6-3 8.1-6.6 1.5-3.6 2.7-8.2 1.4-11.9a.9.9 0 0 0-1.6-.2ZM531.3 789.1c-.4-2.5-1.6-4.7-2.3-7.1a17.604 17.604 0 0 1-.7-9.1c.2-1.4-1.8-2-2.1-.6-1.3 5.6-.4 13.3 3.8 17.5a.807.807 0 0 0 .883.083.801.801 0 0 0 .417-.783ZM496.4 297.1c4.6-5.5 12.7-1.3 18.6-2.3 5.9-1 10.9-4.1 15.8-6.5.9-.5.2-1.6-.6-1.5-3.2.5-5.9 2-8.8 3.4A22.203 22.203 0 0 1 509 293c-4.9-.3-10.2-1.2-13.6 3.1-.5.7.4 1.7 1 1ZM520.4 546c-12.8 0-23 9.8-35.1 12.7-12.1 2.9-25.2-5.6-36.9 1.1-1 .6-.1 2.1 1 1.6 6.9-3.5 14.1-.6 21.1 1 7 1.6 11 1.6 16.6.2 11.7-2.9 22.4-10 33.6-14.4 1.1-.5 1.1-2.2-.3-2.2ZM511.7 822.5a63.007 63.007 0 0 1-13.5 3.8c-3.9.8-7.6 1.9-10.1 5.2-8 10.5 2.9 22.7 1.6 33.8-.2 1 1.5 1.2 1.7.2 1.3-4.6.8-8.9-.4-13.5-1.2-4.6-3.9-12.9.2-18.4 4.1-5.5 16-3.2 21.3-9.8.4-.5 0-1.7-.8-1.3ZM490 613.6c0 .1-.1.2-.1.3 0 .1 1.2 1.7 1.9.7 5.5-7.2 11.4-12.6 19.6-16.7a.899.899 0 0 0-.5-1.7l-2.4.4c-8 2.2-14.3 10.5-18.5 17ZM508.9 920.1c-11.4-2.9-24.1 2.4-35.6 2.5-6 0-12-1-18-1a167.37 167.37 0 0 0-18.7 1 1.398 1.398 0 0 0-.743 2.199c.186.244.447.42.743.501 5.9.8 11.9.3 17.9.5 6 .2 12.5 1.5 18.8 1.6a95.973 95.973 0 0 0 16.9-1.7c6.2-1 12.6-1.8 18.7-3.3a1.198 1.198 0 0 0 .619-1.867 1.198 1.198 0 0 0-.619-.433ZM486.7 716.2c7.4-4 9-14.7 10-22.1.7-5.4 1-10.9 1.8-16.3s1.7-10.4 4.2-14.9c1.1-2.1 7.6-9.1 5.2-11.5-2.4-2.4-7.9 2.7-9.7 4a64.552 64.552 0 0 0-8.4 7.3 91.575 91.575 0 0 0-13.2 18.3c-4.3 7.7-7.9 17.3-6.5 26.3 1.4 9 9.2 12.9 16.6 8.9Zm-11-27.7a79.798 79.798 0 0 1 15.3-23.6 65.255 65.255 0 0 1 5.5-5l1-.9c2.1-1.7 3.7-3.6 6.3-4.6.244-.133.53-.169.8-.1a.803.803 0 0 1 .3.9c-.1.3-.4.5-.6.7a22.803 22.803 0 0 0-5.5 7.5 46.487 46.487 0 0 0-2.9 10.3c-.9 5.1-1.3 10.3-1.7 15.4-.2 1.5-.3 3.5-.5 5.6-1 8.6-3.4 19.8-12.2 20-5.6.1-8-3.3-8.7-7.8-1-6.1 1.2-14.2 2.9-18.4Z"/><path fill="#FFFFFF" d="M489.9 701.2c0 .133.053.26.146.354a.504.504 0 0 0 .707 0 .5.5 0 0 0 .147-.354c.1-1 .1-2 .2-3 .146-1.169.448-2.312.9-3.4v-.2a.6.6 0 0 0-1.1-.3 7.88 7.88 0 0 0-.9 2.3 8 8 0 0 0-.1 4.6ZM447.7 311.9c6.3 1.5 12.8-2.1 19.3-2.1s13.5 1 19.6-2c1.2-.6.7-2.8-.7-2.6-7 .9-13.8.6-20.8 1.1-7 .5-11.5 3.1-17.4 4-.9.1-.8 1.4 0 1.6ZM484.6 616.1a15.202 15.202 0 0 0-3.3 1.8 24.322 24.322 0 0 1-3.7 1.6 1.098 1.098 0 0 0-.8.8 1.098 1.098 0 0 0 .561 1.401c.168.078.354.112.539.099a11.7 11.7 0 0 0 4.4-1.3c1.2-.6 2.9-1.6 3.5-2.9.6-1.3.1-.2.1-.3a.996.996 0 0 0-.288-.992 1.001 1.001 0 0 0-1.012-.208ZM449.9 810.6c7.1-4.1 6.6-14.2 5.6-21.2a60.32 60.32 0 0 0-3.5-13.9c-1.2-3.1-3-5.8-4.2-8.8a18.086 18.086 0 0 1-1-6.9c.2-2.4.9-5 2.8-6.5s-.2-2.1-1.2-1.6c-9.3 5.1-14.8 16.1-17.9 25.8-3.1 9.7-3.9 17.8.3 26.3s11.6 11.2 19.1 6.8Zm-17.5-25c1.6-9.6 5.3-19.3 11.7-26.9a14.183 14.183 0 0 0-.5 1.6c-1.7 7.4 4.1 14.5 6.1 22.1.9 3.3 2.3 8.7 2.3 13.7s-1.5 11-7.3 12a8.605 8.605 0 0 1-8.5-3.2c-4-4.8-4.6-14-3.8-19.3ZM396 720.9c-.1 8.8 3 19.2 13.8 17.3 14.5-2.6 20.1-17 23-29.7 1.6-7.2 2.7-14.5 4.8-21.6 2.1-7.1 5.3-21.4 13.6-24.5 2.7-1.1.6-1.6-1.1-1.5-2.79.175-5.513.924-8 2.2-5 2.1-9.5 5.5-14 8.5-8.3 5.6-16.4 11.9-22.7 19.7-6.3 7.8-9.2 19.2-9.4 29.6Zm28-43.1c3.7-2.8 7.5-5.4 11.3-8a71.694 71.694 0 0 1 8-5l2.9-1.1c-7.2 5.6-10.4 17.4-12.5 25.4-3 11.8-3.3 25-9.7 35.6-3.7 6.1-12.6 11.9-18.7 10.1l-.7-.2h-.3a6.697 6.697 0 0 1-3-2.6 2.092 2.092 0 0 1-.6-1 15.48 15.48 0 0 1-1.4-4.3c-1.3-8.9.6-20.4 4.8-28.3 4.2-7.9 12.6-15.1 19.9-20.6ZM434.6 463.4c-3 .9-5.7 2.4-8.7 3.1a42.523 42.523 0 0 1-10.7.7c-5.9-.3-10.6.1-15.7 3.2a.805.805 0 1 0 .8 1.4c11.4-5.6 25.1 2.8 35.5-6.3a1.212 1.212 0 0 0 .45-1.65 1.212 1.212 0 0 0-1.65-.45ZM356.8 315.7c7.7-3.6 14.9-4.8 23.3-3 6.4 1.4 12.6 4 19.2 3.1 2.8-.4 5.3-1.3 8-1.9 4.3-1 7.6-.3 11.7.8 5.8 1.6 10.9 1.9 16.5-.6 1.1-.6.3-2.4-.9-2.1a20.3 20.3 0 0 1-12.9-.8c-2.8-1-5.4-2.4-8.4-2.8-6.3-.8-12.1 2.8-18.5 2.8s-14.3-2.7-21.7-2.1c-7.4.6-11.6 2.6-17.1 5.4-.8.4-.1 1.6.8 1.2ZM431.5 511.1c-6.9 1.4-13.4 3.5-20.4 4-7 .5-13.2.8-17.8-3.8a.998.998 0 0 0-1.4-.2 1.002 1.002 0 0 0-.2 1.4c2.8 5.7 10.2 6.4 15.8 6.5 8.4.1 17.7-1.2 25-5.5a1.3 1.3 0 0 0-1-2.4Z"/><path fill="#FFFFFF" d="M411.1 727.8c-1.1.7-1.3 2.3-.2 1.6a26.797 26.797 0 0 0 11.2-13.2 74.413 74.413 0 0 0 5.8-18.8 1.032 1.032 0 0 0-1.339-1.355 1.034 1.034 0 0 0-.561.555 24.312 24.312 0 0 0-2.8 6.1c-.8 2.6-1.4 5.3-2.1 7.8l-.3 1c-2.1 6.6-3.8 12.5-9.7 16.3ZM281.5 434.6c10.6 5 20 12.1 30.8 16.7 24 10.2 49.5 2.4 73.9-2.1a168.655 168.655 0 0 1 35.5-2.3l7 .3c13.1.9 26.3 2.4 39.4 1.1 13.1-1.3 22.9-5.2 33.2-11.3 10.3-6.1 18.5-12.6 28.5-17.6a58.997 58.997 0 0 1 20.9-6c6.8-.5 13.6-.6 20.1-2.8 6.5-2.2 10.8-5.8 16.2-9.4a44.894 44.894 0 0 1 19.9-7.3.704.704 0 0 0 .44-.65.705.705 0 0 0-.12-.393.708.708 0 0 0-.32-.257 32.106 32.106 0 0 0-14.3 2.8c-5.3 2.2-10.5 4.4-15.6 6.7a56.193 56.193 0 0 1-18.9 4.9c-6.6.6-13.1.8-19.5 2.6-22.7 6.6-38.9 26.1-61.6 32.5-15.8 4.4-31.9 3.3-48.1 2.3l-7-.4c-9.2-.4-18.3-.6-27.3.6-26.6 3.5-54.7 14.5-80.5 2.1-12-5.7-22.4-14.1-34.8-18.9-12.4-4.8-27.1-4.7-39.5 1.8-2 1.1-.6 4.5 1.5 3.7a50.202 50.202 0 0 1 40.2 1.3ZM354 667.4c6.8 4.9 17-7.5 20.7-11.6 5.1-5.7 9.6-12 15.3-17.1a37.084 37.084 0 0 1 9.3-6.5 55.26 55.26 0 0 1 5.3-1.8c.6-.2 2.4-1.1 2.6-1.8.2-.7-2.8-1-3.9-1a45.687 45.687 0 0 0-13.3 1.6 69.305 69.305 0 0 0-24.4 11.9c-5 3.9-9.7 8.9-12.1 14.8-1.3 3.3-3.1 8.9.5 11.5Zm2-10.8c.153-.256.287-.523.4-.8 2.8-5.9 7.9-10.7 13.3-14.3a69.503 69.503 0 0 1 19.3-8.6c2.7-.8 5.4-1.4 8.1-2-6.6 3.4-11.6 9-16.4 14.8l-4.8 5.8c-1.5 1.8-3.1 3.6-4.7 5.2a46.11 46.11 0 0 1-9.4 7.6c-1.5.8-3.5 1.9-5.2 1.5a1.085 1.085 0 0 1-.8-.3 3.193 3.193 0 0 1-1.3-1.5c-.9-1.8.6-5.3 1.5-7.4ZM389.9 563.8c-9.1 5.7-23.5 3.2-32.2-2.2-10.2-6.4-23.2-6.5-34.1-1.4-1.6.7-.7 3 .8 3 6.9.2 13.6-2.4 20.5-1.7s11.6 4.9 17.8 6.7c9 2.7 20.8 3.4 28.4-2.9.8-.7-.3-2.1-1.2-1.5ZM387.9 781.5c.196-.476.297-.985.3-1.5a1.4 1.4 0 0 0-.7-1.3 2.293 2.293 0 0 0-1.9.5l-2.1 1.5c-7.7 6.1-12.1 15.2-14.7 24.6-.733 2.6-1.333 5.2-1.8 7.8-1.7 8.8-2.9 23.1 9.8 23.9 9.5.6 8.7-12.7 8-18.8-.7-6.1-1.6-9.6-2.1-14.5a28.213 28.213 0 0 1 1-10 117.7 117.7 0 0 1 4.2-12.2Zm-6.3 8.9c-.2 1-.5 1.9-.7 2.9-.2 1-.5 1.9-.7 2.9a53.794 53.794 0 0 0-1.2 11.4c.2 7.2 3.3 14 1.4 21.4-.7 2.8-3 4.3-5.9 2.8a8.297 8.297 0 0 1-2.1-1.6c-4.8-4.9-2.9-15.4-1.6-21.2.174-.98.408-1.948.7-2.9a50.088 50.088 0 0 1 9.8-18.7l1.7-2c-.8.9-1 3.8-1.4 5Z"/><path fill="#FFFFFF" d="M375.6 647.8a19.53 19.53 0 0 0 3.4-3.6c.3-.417.505-.895.6-1.4a.703.703 0 0 0-.236-.832.707.707 0 0 0-.437-.134.705.705 0 0 0-.427.166 13.12 13.12 0 0 0-2 2.1c-.7.8-1.5 1.5-2.3 2.3a.996.996 0 0 0 .093 1.307 1 1 0 0 0 1.307.093ZM342.1 873a41.3 41.3 0 0 0 17.9-3.9c5-2.4 9.1-6.6 13.2-10.2 1.4-1.2-.4-3.4-1.9-2.5-4.1 2.3-7.1 6-11.1 8.3-4 2.3-12.1 4.7-18.1 5.2a1.599 1.599 0 0 0-.867 2.531c.218.281.523.481.867.569ZM264.2 522.6c6.2 1.3 10.6 5.2 15.3 9.1 7.5 6.3 15.3 6.9 24.6 4.6 5.5-1.4 10.6-3.5 16-5.1 5.4-1.6 12.1-1.3 18.4.9 6.3 2.2 10.4 4.1 16 4.9 2.546.433 5.144.466 7.7.1 3-.5 5.7-2 8.7-2.1a.9.9 0 0 0 0-1.8 48.894 48.894 0 0 0-7.6.7 28.806 28.806 0 0 1-11.3-1c-5.3-1.5-10.2-4-15.4-5.6-11.5-3.4-21 1.6-31.9 4.6-6 1.6-12.9 2.8-18.6-.5-4.2-2.6-7.4-6.6-11.8-9.1-9.1-5.3-19.2-3.7-28.7-.3a1.143 1.143 0 0 0-.8 1.4 1.139 1.139 0 0 0 1.4.8c5.8-1.5 12-2.8 18-1.6ZM361.6 660.5h.2c1.7-.1 3.6-2.1 4.9-3.2a12.402 12.402 0 0 0 3.8-5 .699.699 0 0 0-1.1-.7c-1.5 1.5-2.8 3-4.4 4.4-1.6 1.4-3.4 2.1-4.1 3.7a.703.703 0 0 0 .166.561.703.703 0 0 0 .534.239ZM369.8 925.6c-6.4-2.8-14.3-2.6-21.1-3.4a121.404 121.404 0 0 0-24.1-1.3 1.7 1.7 0 1 0 0 3.4c8.1.6 16.2 2.1 24.3 3.3 8.1 1.2 14.3 2.7 20.6.1.8-.3 1.3-1.7.3-2.1ZM271 408.2c8.3-3.1 17-3.2 24.8 1.3 7.8 4.5 11.9 11.3 18.7 15.9 10.8 7.3 29.3 10.9 40.2 2 1.1-.9.2-3.1-1.2-2.9-8 .9-15.2 2.9-23.3 1.2-8.1-1.7-15.3-7-21.8-13.1-10.6-9.8-25-14.5-38.3-6.6-1.2.7-.4 2.7.9 2.2ZM318.8 741.6c.7-1.2-1-2.1-1.8-1-8.9 12-30.5 20.2-42.8 9.1-3.7-3.3-7-7.8-11.8-9.7-4.8-1.9-10.7-.2-13.5 4-.6.9.4 1.9 1.3 1.7 3.4-.6 6.2-2.8 9.8-1.7 3.6 1.1 5.2 3.2 7.3 5.3 4.2 4.2 8.5 8.3 14.6 9.5 13.9 2.8 29.7-5.4 36.9-17.2ZM303.6 833.3c3.6-4.5 7-11.4 6.2-17.4-.2-1.6-.9-.1-1.1 1.5-.8 5.9-2.7 9.5-5.6 14.7-.7 1.1-.4 2.3.5 1.2ZM263.5 708.1c3.7.6 6.6-1.2 10.2-1.3 5.3-.2 6.4 3.9 10.4 6.1 6.3 3.4 14.3-1.1 19.4-4.9.9-.6.4-2.4-.9-1.9-3.9 1.3-8 3.5-12.1 3.7-4.1.2-5.8-2.9-9-5.2-5.8-4.2-11.9-1.2-18 .5-1.4.4-1.5 2.7 0 3Z"/><path fill="#FFFFFF" d="M333.9 835.4c-2.6 3.9-6.6 5.7-10.1 8.6a16.095 16.095 0 0 0-4.3 5.1c-.091.317-.226.62-.4.9a8.794 8.794 0 0 0-.3 4.8c.4 1.5 1.3 2.5.9 4.1-.4 1.6-7 2.9-9.3 2.9-4.2-.2-12.8-4.2-10.8-9.7a27.216 27.216 0 0 0 8.8-4.1 44.123 44.123 0 0 0 8.7-7.8c3.1.7 7.4-1 9.7-2.6 4.4-3.3 5.5-9.2 4.8-14.4-.7-5.2-3.7-12.5-7-17.9-2.3-3.7-5-7.1-7.5-10.7-2.5-3.6-4.1-7.5-6.6-11.1a1.597 1.597 0 0 0-2-.5 3.9 3.9 0 0 0-1.6 1.5l-1.2-.3a6.296 6.296 0 0 0-3.4.7l-.2-.2c-4.1-5.4-12.7-3.5-18.3-1.7a49.792 49.792 0 0 0-21.7 15 62.5 62.5 0 0 0-12.2 24.6 49.071 49.071 0 0 0-1.1 14.9c.2 2.2.5 4.3.9 6.5s.4 4.9.8 7.4.9 6.3 1.3 9.4v.2c.5 4.1.6 8.7 3.4 12a19.7 19.7 0 0 0 7.3 5.1 56.502 56.502 0 0 0 12.4 3.2c2.4.4 4.8.8 6.9 1.3 6.1 1.5 12.1 3.4 18.4 3.9 4.1.3 9.8.4 13.6-1.3 1.9-.8 2.9-2.3 2.1-4.3-.8-2-2.7-2.9-4.7-3.5 4.7-1.3 8.8-1.9 12.8-5 .5-.4 1.2-.8 1.8-.5 2.7 1.4 3.5 4.7 6.2 6.2a27.413 27.413 0 0 0 9.2 3.3c5.7 1 11.6-.7 17-2.6a87.025 87.025 0 0 0 15.1-7.2 51.917 51.917 0 0 0 12.9-10.9c3.4-4 7.2-9.6 7.1-15.1a2.005 2.005 0 0 0-2.5-1.9 19.77 19.77 0 0 0-5.1 2.9l-1.7 1.3a40.661 40.661 0 0 1-3.3 2.5c-2.1 1.2-1.7 1-1.8-.7-.1-1.7.7-4.2-2.1-4.8-2.8-.6-8.3 4.3-11.2 6a46.372 46.372 0 0 1-11.3 5.2c-2.7.8-9.6 1.1-11.3-2-1.7-3.1 3.4-7.8 5.2-10.7a19.802 19.802 0 0 0 2-14.1.8.8 0 0 0-.2-.4 67.64 67.64 0 0 0 1.8-6.8c.7-3.7 2.6-11.7-1.2-14.6-3.8-2.9-5.6.6-6.9 3.2a33.432 33.432 0 0 0-1.9 5.3c-.7 2.7-1.3 5.6-2.1 8.3-.8 2.7-3.5 7.7-5.8 11.1ZM309 786.5c2.3 3.6 4.1 7.6 6.7 11.1a87.386 87.386 0 0 1 7.2 11.7c.405.679.773 1.38 1.1 2.1a37.717 37.717 0 0 1 3.6 10.4c.199 1.19.299 2.394.3 3.6.016.369-.017.739-.1 1.1a11.812 11.812 0 0 1-1.3 5.2l-.6.9-.7.8a12.005 12.005 0 0 1-3.8 2l-1.1.4c.27-.378.504-.779.7-1.2 0-.1.1-.1.1-.2l.6-1.1a17.593 17.593 0 0 0 2-7.6 12.502 12.502 0 0 0-3.7-9c-1.7-1.9-3.3-3.5-3.7-6.2-.4-2.7.2-4 .2-5.9 0-1.9 0-5-2-6.3a3.697 3.697 0 0 0-2.5-.5c-.2-2.6-2.3-5.3-3-7.7a.801.801 0 0 0-.2-.5c0-.1.1-.3.1-.4a6.828 6.828 0 0 0-.1-2.5l.2-.2Zm-1.9 9.2c.105-.376.239-.744.4-1.1l.3.7c.5 1 1.8 6.1-.8 5.9-.7 0-.7-.4-.9-1-.2-.6.6-3.3 1-4.5Zm5.3 86.1c-.1 1.6-3.9 2.3-5 2.4-5.6.7-11.1-.6-16.5-1.9-2.8-.7-5.5-1.5-8.3-2h-.6c-2.2-.3-4.5-.3-6.7-.6l-.9-.2c-6.8-1.4-17.7-4-19.6-12-.9-3.9-1.1-8-1.7-12v-.4c4.1 9.6 11.1 17.7 20.6 21.7a41.335 41.335 0 0 0 8.5 2.4l2.9.4c4.854.5 9.746.5 14.6 0a33.7 33.7 0 0 1 7.1 0c1.2 0 5.7.6 5.6 2.2Zm29.8-55.1c.6-3.2.6-6.9 1.5-10.3a13.004 13.004 0 0 1 1.8-4.2c1.5-2.5 3.6-2.1 4.1.7.7 5.3-1.3 10.2-3.2 15a35.208 35.208 0 0 1-8.4 12.8c-2.3 2.2-5 3.8-7.3 6.1s-4.8 6.1-3.1 7.4c1.7 1.3 2.1-2.8 2.7-3.7 1.6-2.7 4.5-4.8 6.9-6.8 2.4-2 8.1-6.4 9.8-11.2a14.51 14.51 0 0 1-4.5 12.2c-3.3 2.9-7 4.7-9.4 8.4a1.296 1.296 0 0 0-.3 1c.2.4.7.4 1.1.3.318-.25.589-.555.8-.9a12.196 12.196 0 0 1 5.6-4.4c-1.4.5-.3 6 .2 7 2.5 4.8 9.1 3.4 13.5 3.3a14.799 14.799 0 0 1-10 4.9 34.854 34.854 0 0 1-7.9-.2c-1.3-.2-3.8-1-4.4.7-.6 1.7 7.8 2.3 9.4 2.1a34.806 34.806 0 0 0 10.1-2.5c3.9-1.7 7.7-4.5 11.2-6.9a43.39 43.39 0 0 0 9.7-8.9c.6-.7 1.4-1.5 2.3-1.4 3.5.3-1.1 5.9 1.9 7.3.525.203 1.092.273 1.65.203a3.395 3.395 0 0 0 1.55-.603 17.285 17.285 0 0 0 2.4-2.3 38.092 38.092 0 0 1 4.5-4.4c1-.7 1.9-1.2 2.5-1 2.2.9.8 4.1-1.9 7.8-4.2 5.9-9.7 12.6-16.1 16.2a56.097 56.097 0 0 1-17.7 6.4c-5.6 1-14.2 1.8-19.2-1.6a13.102 13.102 0 0 1-3.8-4.3c-.8-1.5-1-2.5-2.8-2.4-1.8.1-6.3 2.6-9.1 4.2l-1.2.6a47.93 47.93 0 0 1-6.3 2.4 31.518 31.518 0 0 1-4.2.9h-.4c-2.2.4-4.4.7-6.7.9-4.772.285-9.56.117-14.3-.5-6.6-.8-12.4-2.2-17.8-6.6-12.6-10.2-17.8-29.6-14-45.1a55.647 55.647 0 0 1 1.8-5.8 63.516 63.516 0 0 1 7.8-14.8c6.6-9.4 23.5-23.1 35.9-16.8-.625.931-1.193 1.9-1.7 2.9-.8 1.7-1.4 3.4-1.9 4.8a36.925 36.925 0 0 0-1.2 7.4c-1.5 1-2.6 2.3-4.1 3.3a21.492 21.492 0 0 0-4.1 3.2c-1.8 2.1-3.2 5.1-1.2 7.5 2 2.4 4.2 1.1 5.8-.5a41.819 41.819 0 0 0 2.7-3.2 22.302 22.302 0 0 1-2.5 7.8c-4.6 8.3-15.7 7.6-22.7 13-.9.8-.3 2 .7 2.4h1.1c6.2-3.6 13.5-4.2 19.8-7.6 7.9-4.2 10-12.7 8.8-21.1-.6-3.8-1.4-7.7-.8-11.6a18.265 18.265 0 0 1 1.5-4.5 13.29 13.29 0 0 1 2.9-3.8l1.3-1h.5a2.003 2.003 0 0 1 2.1.5c.271.489.409 1.041.4 1.6-.1.3-.1.6-.2.9-.9 4.5-4.7 8.9-3.1 13.5h-.1c-1.5 5.3.4 12.6-.5 18-.085.61-.219 1.211-.4 1.8-1.7 5.4-6.6 9.6-12.1 11.9-1.3.5-1.4 2.9.3 2.7 5.3-.6 9.8-6.7 12-11.3.486-.998.887-2.035 1.2-3.1 1.6-5.7.7-11.8 1.8-17.7l.9.3c2 .2 2.4-1.2 3.8-2.1 1.4-.9 2-2.1 3.1 0s-.3 4.5-.3 5.8c0 1.3 1 3 2.3 4.9h.1l2.3 3.2.9 1.4a16.03 16.03 0 0 1 2.3 4.5c.18.52.314 1.056.4 1.6 0 .3.1.6.1.9v1.2a16.5 16.5 0 0 1-1.4 5.9 5.427 5.427 0 0 0-.5 1.1 6.084 6.084 0 0 1-.7 1 24.835 24.835 0 0 1-3.5 4.5 45.964 45.964 0 0 1-4.1 3.6 32.205 32.205 0 0 1-19.8 5.9 20.808 20.808 0 0 1-6.6-1.1l-2.3-.8-2.2-1-.4-.2-.8-.3-.4-.2-.5-.2h-.3l-.5-.2h-.2l-.5-.2h-.3l-.5-.2h-.2l-.6-.2a11.9 11.9 0 0 0-3.7-.6h-2.5l-.8.2-1.7.5a2.501 2.501 0 0 0-.6-1.4l-.2-.2a1.597 1.597 0 0 0-2 .2c-.204.278-.372.58-.5.9 0 .1-.1.2-.1.3a.393.393 0 0 0-.1.3c-.08.189-.115.395-.1.6v.6a3.195 3.195 0 0 0 2.2 2.8 1.707 1.707 0 0 0 1.7-.4c4.3-.4 8.1-1.3 12.3.3.1 0 .2 0 .2.1 3.4 1.3 6.4 3.1 10.1 3.7 2.357.3 4.743.3 7.1 0a9.282 9.282 0 0 0 .5 3.2c0 .1.1.2.1.4a11.91 11.91 0 0 0 3 4.6c4.5 4.5 11.3 5.3 17.3 4.5 2-.3 4.8-.6 6.3-2.1a3.9 3.9 0 0 0 .9-1.7c.6-2.8-1.9-5.5-2.7-8.1a5.798 5.798 0 0 1 .3-3.7 10.701 10.701 0 0 1 3.3-4.1c3.2-2.6 7.1-4.1 10.3-7 3.2-2.9 6-7 6.8-12Zm-48.7-20a12.297 12.297 0 0 1-3 7.4c-1.7 1.9-4.6 2.3-4.4-1.1.2-1.8 2.2-3.3 3.5-4.3l1.2-.7c.861-.51 1.764-.945 2.7-1.3Z"/><path fill="#FFFFFF" d="M294.9 868.3a3.498 3.498 0 0 0 3.1-2 3.4 3.4 0 0 0-.8-3.3v-.2a1.993 1.993 0 0 0-1.4-.8c-.5-.1-1.2.2-1.2.8 0 .6 1 1.3 1.3 2.1a1.404 1.404 0 0 1-.618 1.607 1.417 1.417 0 0 1-.582.193 3.405 3.405 0 0 1-2.4-.5 5.19 5.19 0 0 0-2-.9 1.702 1.702 0 0 0-1.8.9c-.3.9.7 1.7.9 2.7a1.9 1.9 0 0 1-1.3 1.9h-1c-.7-.2-1.1-.9-1.6-1.4-2-2.1-3.8 1-2 1.7 1.8.7 4.3 2.2 6.5 1 2.2-1.2 1.6-1.9 1.4-3.2-.2-1.3-.1-.8-.2-1.2 1.185.429 2.44.633 3.7.6ZM290.3 859.7c1.4.1 4.3-.9 3.5-2.9l-.2-.2a.805.805 0 0 0-.7-.4c-1 .1-1.6 1.1-2.5 1.3a2.903 2.903 0 0 1-2.9-1.2.711.711 0 0 0-.459-.307.718.718 0 0 0-.849.847.725.725 0 0 0 .108.26 4.593 4.593 0 0 0 4 2.6ZM288.8 775.5a9.734 9.734 0 0 1-2.4.8c-2.3.3-1.9-1.9-3.3-2.6-1.4-.7-2.8 3.8-1.7 5.2 1.1 1.4 6.4 1.6 8.7-.1.315-.214.586-.485.8-.8a1.702 1.702 0 0 0 .2-1.9c-.4-.8-1.4-.8-2.3-.6ZM280.8 801.8c-1 1.2-3.1 3.2-2.2 5 .9 1.8 2.7-.6 3.1-1.8.4-1.2 2.8-3.3 4.6-4.5 1.8-1.2 1.8-1.2 1.8-2.2h-1.6c2.4 0 .5-4.3-.6-5a3.203 3.203 0 0 0-3 0c0-1.1.2-4.4-2-2.6-2.2 1.8-.8 3.7-1 5a6.406 6.406 0 0 1-2 3.7c-.9.7-2.1 1.3-2.2 2.4 2.3.3 3.2-1.9 5.1 0Zm3.6-7c.248.074.465.225.619.433a1.194 1.194 0 0 1 0 1.434 1.198 1.198 0 0 1-.619.433 1.198 1.198 0 0 1-.619-1.867c.154-.208.371-.359.619-.433ZM282.8 253.6c4.1-1.3 5.8-8.8 2.9-12-2.9-3.2-7.9 5.5-7.9 8.5s2.3 4.3 5 3.5Zm-1.4-9c.5-.9 1.2-1.4 2.1-.9.9.5.5 4.7 0 5.7s-2.7 2.7-3.1.8a11.595 11.595 0 0 1 1-5.6ZM283.3 857.4a7.702 7.702 0 0 0-1.6-2.7c-.1-.1-.2-.1-.2-.2a1.6 1.6 0 0 0-1.7-.4 1.498 1.498 0 0 0-.3 1.9 21.134 21.134 0 0 0 1.8 3.3 3.799 3.799 0 0 1 .2 3.6 3.297 3.297 0 0 1-4.3.7 10.394 10.394 0 0 1-3.2-3.4 2.304 2.304 0 0 0-1.1-1.1 1.204 1.204 0 0 0-1.4 0 1.703 1.703 0 0 0-.3 1.4c0 1.512.306 3.009.9 4.4.238.537.374 1.113.4 1.7a1.8 1.8 0 0 1-.8 1.1h-.3c-.7 0-1.1-.7-1.3-1.3a.103.103 0 0 1-.071-.029.103.103 0 0 1-.029-.071c-.4-1-1.7-5-2.5-5.1-.8-.1-.5.2-.7.4a3 3 0 0 0 0 2.1 19.656 19.656 0 0 0 3.3 4.3c.47.425 1.012.763 1.6 1a1.696 1.696 0 0 0 1.8-.4c.7-.7.5-1.9.1-2.9s-.7-2-.2-2.8c-.3.9 2.6 2.1 3.1 2.3a6.201 6.201 0 0 0 5.5 0 3.793 3.793 0 0 0 1.1-1.1c1.3-1.6 1.1-4.4.2-6.7ZM279.5 917.2c-5.2.8-10.1 1.8-15.5 1.5-5.4-.3-8.9-1.3-13.4-1.7-6.7-.7-15 .8-20.9-3.3-.9-.6-2.1.9-1.2 1.6 6 4.9 14.6 3.4 21.8 4.5 9.8 1.5 20.8 4.9 30.3.1 1.6-.8.4-3-1.1-2.7ZM271.8 778.6c-.3 3.5-4.2 5.2-5.3 8.2-.5 1.1.7 2.2 1.7 2.3 2.5.1 4.4-2.4 5.6-4.3a9.102 9.102 0 0 0 1.8-6.7c-.5-2.3-3.6-1.5-3.8.5ZM255.2 260.4c5.3-.1 11.6-3 14-7.8 2.4-4.8 1.6-9.2-2.9-11.3-4.5-2.1-9.8-.7-13.8 1.5s-7.9 7.6-5.4 12.6c1 3.1 4.4 5 8.1 5Zm.2-14.3c2.4-1.2 7.9-2.8 10.1-.3 2.2 2.5-2.5 7.8-5.2 9a11.004 11.004 0 0 1-6.9 1.2c-2.1-.5-2.8-1.9-3.3-3.8a8.896 8.896 0 0 1 5.3-6.1ZM259.1 847.8l-1.7.4h-.6v-.6c.1-.5-.4-.8-.9-.7a.7.7 0 0 0-.6.5c-.2 1.2.2 2.2 1.5 2.4a3.1 3.1 0 0 0 2.9-.9h.1c.3-.5-.1-1.3-.7-1.1ZM213 894.5c-1.9-.3-2.7 2.4-.8 2.9 2.103.469 4.246.737 6.4.8 2.084.316 4.199.383 6.3.2 1.2-.1 1-1.7.3-2.2-3.3-2.5-8.4-1.1-12.2-1.7ZM163.2 317.4c-7.5.4-15.1 1.4-22.2 4-3.1 1.2-11.4 4-11.3 8.4.1 9.3 23.1 1.5 27.4.8 9.7-1.4 19.2-3.2 28.8-5 9.6-1.8 17.4-2 25.9-3.8 2.5-.1 5.1-.3 7.6-.6a1.102 1.102 0 0 0 1.1-1.1 1.1 1.1 0 0 0-1.1-1.1c-10.3-1.2-20.8-1-31.2-1.3-8.3-.3-16.7-.7-25-.3Zm9.4 3.3c9 .2 18.1.9 27.1 1.1l-7.7.9-23 3.8c-6.5 1-13 1.6-19.5 3-2.5.5-5.1 1.1-7.7 1.5-2.6.4-10 1.6-7.3-2.9 1.3-2.2 6.5-3.3 8.8-4a58.334 58.334 0 0 1 9.2-2.1 122.773 122.773 0 0 1 20.1-1.3ZM217.9 338.2h.3a.298.298 0 0 0-.1-.2c-.1 0-.2.1-.2.2ZM183.3 362.2c2.7-1.1 5.5-2.3 8.2-3.6a1.2 1.2 0 0 0-.9-2.1c-14.5 4.9-29 10.8-40.2 21.6-3.4 3.3-18 17.3-10.8 22.6 4.9 3.5 12.8-8.1 15.1-11a158.484 158.484 0 0 1 28.6-27.5Zm-39.6 35.2c-2 1.4-3.3 1.3-2.8-1.8s2.4-5.1 3.9-7.1a74.183 74.183 0 0 1 11.3-11.8c6.2-5.1 13.2-8.5 20.4-11.6a158.123 158.123 0 0 0-20 18.4c-4.2 4.5-7.7 10.3-12.8 13.9ZM89.7 286.6c-5 .7-12.1 1.4-15 6.3a1.5 1.5 0 0 0 .2 1.7c10.5 9 25.8 8.3 38.7 8.6 19.7.6 39.2 1.9 58.8 1.9 2.5.117 5.004.083 7.5-.1a.897.897 0 0 0 .636-.264.897.897 0 0 0 0-1.272.897.897 0 0 0-.636-.264c-21.2-.4-39.9-10.5-60.2-15a86.493 86.493 0 0 0-30-1.6Zm39.3 6.9c9.5 2.9 19.2 6.8 29 9.3-13.5-.5-27.1-1.3-40.6-2s-28.9 1.1-39.6-7.4c4.4-5.1 17.7-4.9 23.1-4.8 9.6.1 19 2.1 28.1 4.9ZM138.7 270.8a74.472 74.472 0 0 0 16.4 5.8c5.5 1.2 11.3 1.4 16.8 2.3 1.5-2.7-11-8.1-13-9.5-4.6-3.4-9-7.2-13.5-10.7-4.5-3.5-16.3-13.1-19.4-5.3-3.1 7.8 7.4 14.8 12.7 17.4Zm-10.6-15.5c2.2-2 4.5-2.3 6.8-.8 10.9 4.9 18.9 15.7 29.4 21.5a81.627 81.627 0 0 1-19.4-5.1c-4.4-1.7-8.9-3.9-12.3-7.2a15.695 15.695 0 0 1-3.2-4.1 12.58 12.58 0 0 1-1.3-4.3ZM160.4 347.4a.941.941 0 0 0 .45-1.25.941.941 0 0 0-1.25-.45c-15 4.8-30.5 9.3-44.5 16.6a100.746 100.746 0 0 0-14.4 8.8c-3.1 2.3-7.3 5.4-8.1 9.4-1.5 7.3 6.6 5.5 10.5 3.9 9.9-4.2 19-10.7 27.7-16.8 8.7-6.1 16.6-12.6 25.4-17.8 1.4-.9 2.8-1.6 4.2-2.4Zm-22.6 12.7c-8.5 5.6-16.9 11.5-25.7 16.6-2.1 1.3-15.8 10.2-17.1 5.4-1.3-4.8 6.5-8.7 9-10.4a108.287 108.287 0 0 1 12.4-7.2c10.4-5.3 21.9-8.1 32.8-12.2-3.9 2.5-7.7 5.2-11.4 7.8ZM109.3 406.7c-6.4 5.4-13.2 10.1-19.2 16-2.9 2.9-6.1 5.9-8 9.7-.9 1.8-1.8 4-1.3 6.1.7 3.7 4.3.1 5.5-1.2 2.9-3 5.5-6.4 8.2-9.7 5.3-6.6 10.5-13.4 15.9-20.1.1-.2.3-.4.3-.6a.298.298 0 0 0-.1-.2c-.2-.4-.9-.3-1.3 0Zm-26.4 31c-.5-6.1 9-13.7 12.5-16.8a81.73 81.73 0 0 1 6.4-5.3c-6.5 7.2-12.3 14.9-18.9 22.1ZM46.9 251.1c5.7 3.1 12.1 4.4 18.5 5.2a222.576 222.576 0 0 0 23.1 2.1c6.5.2 13.4-.9 19.8-.3-8.1-4.5-16.5-7-24.5-11.4-6.3-3.4-12.7-6.5-19.3-9.4-6.6-2.9-11.9-5.3-18-4.6-4 .5-8.6 2.8-8.8 7.3-.2 4.5 5.2 9 9.2 11.1Zm11.7-13.7a136.478 136.478 0 0 1 16.2 7c6.9 3.5 13.7 7.8 20.9 10.7l-22.1-1.7c-5.419-.4-10.8-1.202-16.1-2.4-4.7-1.2-14.8-4.4-15.6-10.1-1.1-7.9 12.6-5 16.7-3.5ZM41.9 349.4c16.4-5.1 32.2-13.1 49.2-15.6a.701.701 0 0 0 .495-1.195.701.701 0 0 0-.495-.205c-15.6-2.3-30.6-3.4-46.3-.9-7.2 1.2-23 5.1-21 15.7 1.3 7.5 13.7 3.5 18.1 2.2Zm-5.1-12.8a84.7 84.7 0 0 1 14-2.8 92.775 92.775 0 0 1 19.7-.6l8.5.8c-11.3 3.2-22.4 7.1-33.5 11.1-3.5 1.2-16.9 6.5-18.7 1.5-1.8-5 6.9-9 10-10ZM60 392.6c-2.8 1-5.5 2.2-8.2 3.4a82.715 82.715 0 0 0-14.9 8.9c-3.5 2.8-13.5 9.4-11.7 15 1.8 5.6 10.3-.5 12.7-2.7 5.7-5.2 11-10.8 16.6-16.1 2.2-2 4.3-4.1 6.5-5.9 2.2-1.8 4-2.4 4.7-3.9-1.5-1-4.2.7-5.7 1.3Zm-19 18.5c-2 2-4 4-6.2 5.8-2.2 1.8-9.4 5.8-6.8 0 2.6-5.8 9.3-9.6 13.8-12.7 4.5-3.1 9.5-5.2 14.5-7.3-5.3 4.5-10.4 9.3-15.3 14.2Z"/></svg>