<svg xmlns="http://www.w3.org/2000/svg" fill="none" viewBox="0 0 1000 1000"><path fill="#DBDBDB" d="M367.2 264.3c-28.7-.2-57.3.1-85.9-.7-28.6-.8-57.4-2.5-86-3.8l-9.9-.4c-4.3 3.4-11 3.7-14.9-.4l-18.9-.4a9.695 9.695 0 0 1-10.6-.1h-10.6c-2.4 0-5 0-7.6-.2a7.695 7.695 0 0 1-3.1 2.1c-4.8 1.8-11.1.2-14.1-4a13.3 13.3 0 0 1-7.8-5.4 11.6 11.6 0 0 1-1.9-8.4c-1.7 4.5-1.4 9.9-1.3 14.7l.3 8 1-.2c11.3-.7 22.7.2 33.9.5l32.9 1.1c77 2.2 154 3.7 231 5.1l18.2-7-44.7-.5ZM791.2 345.2c1.5 1.1 4.2 2.2 5 4 .14.443.307.877.5 1.3.6 1.5 1.1 3.4.3 4.8s-2.9 2.8-4.6 3.7c-1.7.9-4.6 2.5-7 3.6-2.4 1.1-4.9.7-7.3-2a41.226 41.226 0 0 1-5.3-7.8c-3-5.4-5.4-11.1-8-16.6-1-2-2-4.5-3.3-6.7a156.31 156.31 0 0 1 16.6 7.8c4.5 2.4 8.9 5.1 13.1 7.9ZM787.9 169.4a49.981 49.981 0 0 0-3.4-10.1l-.8 1.6c-4.6 7.5-14.1 9.5-21.9 6.3a21.098 21.098 0 0 1-6.9-4.5c4.9 9.1 7.9 18.5 11.2 28.1l11.5-5.8 5.7-3.3a18.222 18.222 0 0 0 3.6-2.2 4.702 4.702 0 0 0 1.2-3 17.098 17.098 0 0 0-.2-7.1ZM749 239.1a11.598 11.598 0 0 1 4.3-5.5c-.9-2.6-1.7-5.3-2.5-8a156.796 156.796 0 0 1-4.7-19.4l-5.7 2.3c3.7 8.6 5.3 17.8 7.6 26.8.3 1.3.7 2.5 1 3.8ZM754.3 278a98.733 98.733 0 0 1-3.1-14.1c-1.8-5.6-3.5-12-3.4-17.7-.8-2.6-1.3-5.1-1.9-7.2-2.6-9.9-4.6-19.9-7.6-29.6l-6.8 2.8a15.506 15.506 0 0 1 3.4 5.3c1.6 3.3 3.5 7.2 4.1 10.8.1 1-.7 1.8-1.7 1.3-2.9-1.6-4-5-5.2-7.9a35.005 35.005 0 0 0-4.2-7.9l-2.3 1-11 5.3c2.9 2.2 4.9 6.5 6.3 9.2a176.922 176.922 0 0 1 7 16.9c2.4 6.2 4.8 12.4 7.4 18.5l4.1 9.2c1 2.3 1.7 4.7 2.6 7.1 1.6 4.2 3.6 8.8 7.6 11.4 1.3.8 2.5.6 3.9.9 2.143.403 4.319.604 6.5.6-2.1-5.2-4.1-10.5-5.7-15.9ZM204.9 283.8c2.7-1.5 5.4-2.8 8.2-4.2l7.1 3.9a9.602 9.602 0 0 0-4.9 11.8h-5.2v-8.7a2.401 2.401 0 0 0-1.6-2.1 19.699 19.699 0 0 1-3.6-.7Z"/><path fill="#FC5B61" d="M118.5 247.3c2.7 2.2 3.8 6.9.3 8.9a8.8 8.8 0 0 1-9.4-1.4c-4.8-4.6 1.9-9.5 6.8-8.6a6.989 6.989 0 0 1 2.3 1.1Z"/><path fill="#DBDBDB" d="M151 253.9a5.798 5.798 0 0 1-7.7 1.8c-3.2-2.2-3.4-7.6.2-9.8a4.503 4.503 0 0 1 5.3.5c2.3 1.7 3.7 5 2.2 7.5ZM184.4 254.1a7.4 7.4 0 0 1-8.9 3.4 5.804 5.804 0 0 1-3.506-5.472c.02-.769.192-1.526.506-2.228 1.3-2.8 4.6-3.6 7.4-3.6 2.8 0 6.1 4.5 4.5 7.9ZM747.3 153.4h-.4c-2.4.2-4.4-.6-6.6-1.3l-.6-.2H736l-2.1.6-1.1.4-1.7.7-.8.3a252.205 252.205 0 0 0-22.9 15.8c-8.2 6.3-16.7 12.4-26.4 16.1a38.104 38.104 0 0 1-27.2-.3 86.612 86.612 0 0 0 5.9 11.8 145.547 145.547 0 0 0 8.3 12.2c2.3 3 4.3 6.9 7.2 9.5l.2.3c2.6 2.3 7 2.8 10.4 3.1 4.832.398 9.69-.32 14.2-2.1 10.1-3.6 19.4-9.2 29.2-13.4l17-7.3 8.1-3.4c.8-.4 8.5-3.4 8.4-3.8-1.3-11.3-7.3-23.1-12.1-33.1l-3.3-5.9ZM525.9 472.8l-.3-1.4-1.2-4.9c-.7-3.3-1.3-6.5-1.9-9.8-1.1-6.6-1.8-13.2-2.4-19.8-.8-8.5-1.3-17-1.9-25.5-1.1-15.28-1.1-30.62 0-45.9h-.3c-14.8-1.1-29.6-1.8-44.5-2.3l-22.7-.5c-5.2-.1-10.5.1-15.7-.2l-5.4 2.8c-11.4 5.8-23 12-35.3 15.7h-.5c.3 5.3.7 10.6 1.2 15.8 2.1 24.1 5.4 50.2 14.3 73.5h.6c9.5-.2 19.2 1.2 28.7 1.9s18.5 1.3 27.7 1.7c13.8.7 27.6 1 41.3 1.1h9.2c2.4 0 5.8.6 8.1-.4a1.801 1.801 0 0 0 1-1.8ZM485 392.2c.9-3.9 5.2-5.9 8.8-5h4.1a7.2 7.2 0 0 1 0 14.4 35.314 35.314 0 0 1-7.9-.8c-3.9-.7-5.9-4.9-5-8.6Zm-74.1-8.3c20-.9 40 1.5 60 2 9.2.3 9.2 14.6 0 14.4-20-.6-40-2.9-60-2-9.2.4-9.2-14 0-14.4Zm15 64.4c-4.5-.1-9-.5-13.5-1s-7.2-3-7.2-7.2 3.3-7.6 7.2-7.2c4.478.582 8.985.916 13.5 1 9.2.1 9.2 14.5 0 14.4Zm-16.5-26c-9.2-.7-9.2-15.1 0-14.4 19.9 1.6 39.8 2.3 59.7 3.1 5.6.2 11.2.7 16.8.9 2.8.1 5.7.2 8.6.1h2.7c5.8-2.6 13.8 3.4 9.4 9.8s-9.9 4.7-15.4 4.7-12.9-.6-19.4-.9c-20.8-1.3-41.6-1.7-62.4-3.3Zm94.5 29.5c-19.3-.1-38.7-1.5-58-1.5-9.2 0-9.2-14.4 0-14.4 19.3.1 38.7 1.5 58 1.5 9.2 0 9.2 14.4 0 14.4ZM490.7 491.7l-3.4 1.8c-8.1 4.3-16 8.9-24.3 12.9-4.2 2.1-8.5 4.1-12.5 6.5-2 1.2-3.9 2.4-5.8 3.8l-.8.5c-1.2.6-2.2.3-3.4-.9l-4.6-4.5c-2.9-3.1-5.8-6.3-8.5-9.7a99.503 99.503 0 0 1-9.5-13.8c6.2 1.1 12.8 1 19 1.2l21 .8 21 .8 11.8.6ZM316.6 282.6c16.1 0 32.4.6 48.6 0l-20.7 7.9c-20 .9-39.9 1.1-59.9.8-9.867-.2-19.767-.5-29.7-.9-3.3-.2-15.1.4-14.6-5.3.2-3.5 4.8-2.3 7.1-2.3h7.9l61.3-.2ZM302.9 425.8c.5 17.2-1.5 34.2-1.2 51.4-18.2-.4-36.5-.4-54.7-.5-15.7-.1-31.7-.9-47.4-.1a815.187 815.187 0 0 1 54.4-26.2c16.7-7.3 33.6-14.6 48.9-24.6ZM158 349.8c15.1-.1 30.2.2 45.3 1.1-11 6-21.8 12.1-33 17.7-16.7 8.6-34.8 14.2-51 24a1.298 1.298 0 0 0-.5.6l-12 5.1c.7-15.5-1.7-31.1-2.5-46.5 8.8-.4 17.4-1.5 26.2-1.6 8.8-.1 18.3-.4 27.5-.4ZM301 551.6c-.2-17.6.3-35.2 1.1-52.8-48.2 1.4-96.5-.9-144.8.5h-.6c-13.4 7-26.8 14-40.1 21.2 1.4 18.7.5 37.9.6 56.7.1 18.8.3 36.8.4 55.2 0 .4 56.6 2.6 61.7 2.8l31.2 1.5 15.6.8c3.9.1 7.7.5 11.4 0a20.325 20.325 0 0 0 6.5-2l19.7-10.4c13.2-6.867 26.467-13.7 39.8-20.5-2.7-17.4-2.4-35.5-2.5-53Zm-53.4-17.7c4.2-.6 8.4-1.9 12.7-2.3 4.3-.4 7.2 3.2 7.7 6.8.5 3.6-1.8 7.8-5.6 8.5-3.8.7-10-.3-14.8-.9-4.8-.6-6-11.3 0-12.1Zm-108.4-5.7c13.4-.8 26.6.2 39.9 1 13.3.8 26.5.6 39.4 2.4 3.5.5 5.6 4.8 5.2 8-.4 3.2-3.5 5.9-7.1 6.2-12.6 1.1-25.9-.9-38.5-1.6-12.6-.7-25.9-1-38.9-1.9-9-.6-9-13.5 0-14.1Zm35.3 75.3c-5.4 3.9-15.6 2.4-21.8 1.6-6.2-.8-16.3-.5-19.4-6.5-.8-1.6-1.1-3.8 0-5.3 4.4-6.1 13.1-4 19.6-3.8 3.6.1 7.1.5 10.7.8 3.6.3 7.6.2 10.9 2.1 3.3 1.9 3.8 8.4 0 11.1Zm26-.1a6.002 6.002 0 0 1-2.5 2.5 6.706 6.706 0 0 1-3.4.9h-.3a7.506 7.506 0 0 1-4.7-1.9 4.507 4.507 0 0 1-1.3-2.2 5.101 5.101 0 0 1-.6-2.5 7.492 7.492 0 0 1 1-3.6 6.81 6.81 0 0 1 11.8 6.8Zm58.3 5.4c-7.38.666-14.797.833-22.2.5-7.1-.1-17.1-.1-22.4-5.7a6.205 6.205 0 0 1-.016-8.673 6.199 6.199 0 0 1 2.716-1.627c6.4-2 14.6-.5 21.3-.9 6.7-.4 13.7-1.7 20.6-1.4 11.6.5 11.3 16.9 0 17.8Zm3.8-32.2c-11.4 1.3-23.5.5-34.9.5-11.4 0-22-.4-33-.6-11-.2-22.6-.1-33.9-.9-11.3-.8-24.6-.8-31.3-9.6-2.2-3.1-.3-7.3 2.4-9.1 4.8-3.2 10.4-2.5 15.8-2.2 5.4.3 11.1.5 16.7.7 10.6.5 21.3.6 32 .8 10.7.2 22.1.5 33.1.5s22.3-1.3 33.1-.1c12.8 1.5 12.7 18.5 0 20ZM705.7 486c3.3-3.3 6.8-7.9 4.8-12.1-.5-.9-1.2-1.7-1.7-2.6a17 17 0 0 0 1.8-4.4c4.5 1.1 10.1 2.6 14.5.9 2.2 5.9 3 11.7-1.4 16.7-9.1 10.4-22.8 17.5-35 24.3a4.38 4.38 0 0 1-1.6.2l-.5-.6a58.324 58.324 0 0 1-6.2-12.5c3.9 1.9 8.9 1.5 13-.3s8.6-5.9 12.3-9.6ZM696.9 139.4a11.402 11.402 0 0 1-5.9-4.6c-2 3.1-2.3 6.4.2 9.5l.2.2 9-4.3a13.704 13.704 0 0 1-3.5-.8ZM702.9 451.7c3.7 6.2 5.8 14.5-.8 19.7a13.301 13.301 0 0 1-2.8 1.6c-1.4-5.1-2.9-10.3-3.8-15.6l1.3-1a54.97 54.97 0 0 1 6.1-4.7ZM693.2 459.1a80.997 80.997 0 0 0 2.7 14.7 6.792 6.792 0 0 1-5.4-2.8c-2-2.6-2.3-5.7-2.3-8.8a32.097 32.097 0 0 0 5-3.1ZM631 203.3a30.297 30.297 0 0 1-11 4c1.2 3 2.1 5.5 2.7 7.2 5.4-1.9 9.7-6.5 9.6-12.1l-1.3.9ZM611.5 207.7c-10.3-.9-21-7.3-22.9-17a19.14 19.14 0 0 1-2.7-3.5c-.1.3-.1.6-.2.9-.2 2.9 1.2 5.9 2.9 8.4a41.108 41.108 0 0 0 4.8 6.2c6 6.4 14.7 12.5 23.8 12.7h.8c-.9-2.6-1.8-5.1-2.9-7.6l-3.6-.1ZM594 211c-2.8 6.7-7.7 12.9-12.7 17.8a35.817 35.817 0 0 1-3.5 3.2 36.512 36.512 0 0 1-12.6 8.7h-.2a2.404 2.404 0 0 0 .5 1.6l4.1-1.8 4.6-2.4c4.8-2.8 9.8-5.6 13.9-9.3a46.784 46.784 0 0 0 10.2-12.8c.194-.453.429-.888.7-1.3-1.8-1.1-3.4-2.4-5-3.7ZM538 554.1c7.6-6.1 17.3-9.1 25.6-14 5.1-1.7 10.3-3.3 15.1-5.8 6.4-3.4 12.1-9 13.9-16.1.8-3 .9-6.2 1.3-9.4a16.607 16.607 0 0 1 3-8.1l1.5-.6c1.7-.7 3.3-1.2 4.9-1.7l1.3-.4c0 3.2-.1 6.5-.3 9.7-.2 3.2-1.3 8.4-1.4 12.8-.1 4.4-.2 8.9-1.8 13.1a17.9 17.9 0 0 1-8.7 9.3c-.863.452-1.767.82-2.7 1.1l-15.4 3.4c-11.2 2.6-22.3 5.2-33.7 6.4l-2.6.3ZM523.9 301.2a90.128 90.128 0 0 0 14.6-7.2c-1.6 2.9-3.2 5.9-4.6 8.9-1.4 3-2.2 5.6-4.2 7.7-2 2.1-4.4 2.9-6.7 4.3a64.808 64.808 0 0 1-8 3.8c-5.5 2.2-11.1 4-16.4 6.6-12 5.9-24.2 11.4-36.1 17.5l-17.1 9.1-15.7 8.4c-11.9 6.2-24.1 11.7-36.1 17.8l-.9-14.6a9.498 9.498 0 0 0 6.4 1.3c3-.3 5.9-1.7 8.7-3.1l53.1-26c2.1-1 4.5-2.3 5.1-4.6.6-2.3-2.4-5-4.1-3.3 2.4-6 10.1-7.1 16.5-7.8 14.8-1.7 29.7-6.2 41.4-15.4l4.1-3.4ZM382.8 649.7c10.4-3.7 25.5-14.4 35.7-5.7 0 .1 0 .1.1.1-30.4 14.4-59 33-86.1 52.6-3.5 2.5-7.1 5-10.7 7.3 1.1-3 1.2-6.3 1.7-9.5 1.2-7.1 7.3-8.7 13.4-10.3a39.1 39.1 0 0 0 24-17.4c2.9-4.6 5.6-9.3 10.3-12.3 4.7-3 7.7-3.5 11.6-4.8ZM319.3 691.2c-1.2 4.9 0 10.1-1.7 15-.08.189-.115.395-.1.6-11.5 7.3-23.3 13.9-35.3 20.3a39.209 39.209 0 0 0 6.1-15.7 28.03 28.03 0 0 0-.7-8 11.39 11.39 0 0 0 8.8 4c5.9-.1 11.1-3.9 15.3-8.2 2.5-2.6 4.9-5.5 7.6-8ZM225.2 686.5a19.1 19.1 0 0 1 5.9 2.7c8.7 6 11 17.5 4.7 26.1-3.8 5.3-9.2 8.5-14.5 8.6.2-12.5.4-25 3.8-37.2a.298.298 0 0 1 .1-.2ZM209 717.4c-8.5-11.1-3.1-30.7 12.7-31.2-3.1 5.2-3.6 12.1-4.3 17.9a172.764 172.764 0 0 0-1 19 16.3 16.3 0 0 1-7.4-5.7ZM225.7 452c-9 1.7-18 4.1-27.1 5.1 12-2.5 23.6-6.9 35-11.2 13.6-5.2 27.3-10.4 39.8-17.9a95.481 95.481 0 0 0 23.3-19.2c2-2.4 5.5-6 7.1-9.3 1 6 1.9 11.9 2.9 17.9a21.353 21.353 0 0 0-3 2.1c-16 10.9-33.7 18.9-51.5 26.7-8.5 2.8-17.8 4.3-26.5 5.8ZM208.8 752.3c4.7.2 9.2-1.6 13.5-3.5a412.025 412.025 0 0 0 37.5-19c7.9-4.4 16.3-9.9 19-18.6 1-3.5 1.4-7.7 2.9-10.8.3 1.7.9 3.3 1.2 5.1.804 4.14.493 8.419-.9 12.4-2 6.1-6 10.4-10.2 14.7-12.4 6.5-24.8 12.9-37 19.9-6.1 3.4-13.3 8.3-20.7 7.9-7.4-.4-13.4-7.9-15.8-15.2.1-.3.1-.6.2-.9.8 4.7 5.6 7.7 10.3 8ZM83.8 473.5a30.503 30.503 0 0 1-17.2 5.2c.203 1.815.503 3.618.9 5.4.4 1.8.5 4.7 2.3 4.9a4.195 4.195 0 0 0 1.8-.6 27.954 27.954 0 0 0 3.4-2c4.7-2.7 9.1-7.6 9.9-13.1a2.004 2.004 0 0 1 .1-.7l-1.2.9ZM51.2 472.5a21.588 21.588 0 0 0-.2 4.4c.6 7.8 6.6 11 13.3 12.2-1.5-3.2-2-7.1-2.2-10.8a20.1 20.1 0 0 1-10.9-5.8ZM61.9 523.3h-.1l.2-.2c0 .1 0 .1.1.2a.797.797 0 0 0 .57.499.806.806 0 0 0 .73-.199c3.9-2.4 7.8-4.6 11.7-6.8l-.6 4.5c8 .3 15.7-2.9 23.1-6.1a936.485 936.485 0 0 0 89.5-45.1c2.6-1.5 5.4-3.3 6.2-6.2a4.202 4.202 0 0 0-.3-2.7c6.1.5 11.2.7 17.3-.7 6.1-1.4 9.9-2.1 14.8-3.2l4.2-1-13.8 6.7c-16.7 8.5-33 17.7-49.5 26.6l-8.9 4.7a2.405 2.405 0 0 0-1.7.9c-13.1 6.7-26.3 13.2-39.4 20.1-7.4 4-15 7.7-22.4 11.9-7.4 4.2-13.6 8.4-20.7 6.3-4.6-1.2-8.2-5.6-11-10.2Z"/><path fill="#FC5B61" d="M976.8 475.2a65.983 65.983 0 0 1-2.6 16.5 149.259 149.259 0 0 0 2.6-16.5ZM970.1 478.5c.8-4.9 1.3-9.9 2.4-15a135.705 135.705 0 0 1-1.3 16.8 7.758 7.758 0 0 0-1.1-1.8ZM969.2 487.4l.6.9c-.8 3.7-1.7 7.3-2.8 10.9a28.918 28.918 0 0 0-1.9-2.9l.6-1.5a41.842 41.842 0 0 0 3-8.6c.209.381.377.783.5 1.2ZM794.9 651.9c1.5 9.3 4.4 18.4 7.4 27.3 8.6 26.3 16.8 52.8 25.1 79.2h-2.6c-4.899.182-9.778.716-14.6 1.6-13.3 2.1-25.8 9.9-37.1 17.1-28 17.7-48.5 44-72.4 66.5-14.9 14-33.2 26.4-53.8 29.9a63.497 63.497 0 0 1-30.6-2c-2.8-1-13.8-4-14.7-7.3-1.6-5.8 7.5-4.5 11.2-4.1 28.1 3.6 55.9-12.9 73-35.5 5.5-7.3 10.1-15.1 15.3-22.5a162.81 162.81 0 0 1 50.5-46.2c12.4-7.3 23.5-18.6 30-31.6s.3-33.2-4-46.9c-6.5-21.2-20.4-55.8 4.7-70.7 25.1-14.9 51.1-16 76-26.6 28.3-11.9 61.5-26.7 83.1-49 9.3-9.6 14-20.7 21.6-31.5 6.1 13.7-2.5 18.1-9.4 29.1a114.893 114.893 0 0 1-15.1 18.9c-17.8 17.9-39.7 32.2-60.9 45.4a437.073 437.073 0 0 1-39.4 22.3l-20.3 9.4c-6.4 3-14.4 5.6-20.1 9.9-5.7 4.3-3.8 11.7-2.9 17.3ZM894 442a41.597 41.597 0 0 1-2.5 9c-8.5-1.3-17.9-1.9-25.9.5h-.2a28.205 28.205 0 0 0 1.5-8.5h.4a68.503 68.503 0 0 1 26.7-1ZM864.9 453.1a.995.995 0 0 0 1 .7c8.1.4 15.9.1 23.9 1a35.402 35.402 0 0 1-4.4 6.5c-6 7-15.7 11.3-24.8 9.5a6.403 6.403 0 0 1-4-2 3.198 3.198 0 0 1-.6-2.3 40.598 40.598 0 0 0 8.4-12.4c.2-.3.3-.7.5-1ZM766.2 321.7c17.1 5.3 34 6.7 50.1 15s32.5 17.8 46.5 29.9c19.6 16.7 32.2 41.6 31.8 67.7v1.2c-.1.7-.1 1.5-.2 2.2-9.2-1.1-18.9-1.3-27.6 2.4-.6-9.5-5.3-18.6-10.1-27.3a211.314 211.314 0 0 0-35.1-46.9c-1.9-2-4-3.9-6-5.8h-.2a66.449 66.449 0 0 0-8.9-7.7 183.074 183.074 0 0 0-30.8-20.1c-7.5-3.8-15.4-6.5-23.3-9.7-6.1-2.4-12.3-5.5-16.6-10.5-.8-1.6-1.7-3.2-2.6-4.8-.9-1.6-1.4-2.6-2.2-3.9a22.106 22.106 0 0 1-.9-8.5 9.012 9.012 0 0 1 3.5-6.3c-1.6 16.6 18.8 28.7 32.6 33.1ZM701.2 415.9c.5 2.5.2 5.1.4 7.6a10.717 10.717 0 0 1-.7-1.9c-.8-2.6-.2-5.4-.4-8.1.325.771.56 1.576.7 2.4ZM703.6 310.3c-.3-7.2-5.2-12.3-7.1-18.8a63.303 63.303 0 0 1 4.5 9.2 30.193 30.193 0 0 1 3.1 8.4c.4 2.5 0 5 0 7.5a32.846 32.846 0 0 1-.5-6.3Z"/><path fill="#FC5B61" d="M740 398.3c0-1.6.5-3.3.4-4.9a11.604 11.604 0 0 0-1.2-4.5 1.5 1.5 0 0 0-2.6 0 10.102 10.102 0 0 0-1.1 4.9c.052 1.45.254 2.891.6 4.3a33.615 33.615 0 0 0 3.3 10.3l.3.4a3.4 3.4 0 0 1-4.7-2.3 47.123 47.123 0 0 1-2.1-13c-.1-2.7.5-1.5-1.2-2.4-1.7-.9-2.3-.6-3.3-1.2-5.9-3.5-7.8-11.7-5.8-17.9a26.112 26.112 0 0 1 4.3-7.6c-.8 3.8-2.4 7.3-1.6 11.5.8 4.2 4.2 7.7 7.6 10.7a1.415 1.415 0 0 0 2-2c-5.2-5.9-5.3-11-2.9-18.1a22.59 22.59 0 0 0 .9-10.4 2.996 2.996 0 0 0-.5-2.1c-.1-.2-.1-.4-.2-.5-1.8-4.2-6.2-6.5-10.1-8.3-3.9-1.8-3.5-5.7-3.4-9.8a19.793 19.793 0 0 0-1.1-6.8c-1.2-3.3-2.1-5.6-5.4-6.9a3.698 3.698 0 0 0-1.8.1c-2.1-.8-3-2.1-2.9-4 .1-1.9 0-3.1 0-4.6a23.394 23.394 0 0 0-1.3-7.9c-1.5-4.7-4-9.1-6.4-13.5a23.861 23.861 0 0 0-2.9-4.4 2.208 2.208 0 0 1 1.932-.701 2.202 2.202 0 0 1 1.668 1.201c3.2 5.9 7.9 11.9 8.8 18.8.3 2.5-.5 8.3 1.5 10.2 2 1.9 6 .3 8.2 1.3a10.096 10.096 0 0 1 5.9 7.6c.7 3-.8 6.8.4 9.6 1.2 2.8 7.4 6.1 10.6 8.3 3.2 2.2 7.4 6.7 7.6 12 .2 5.3-3.4 11.4-6.3 16.1-.9 1.5-2.9 3.8-2.7 5.7.2 1.9 3.1 3.7 4.5 5.3 4.9 5.7 1.2 15.2 2.8 21.9a3.098 3.098 0 0 1 0 1.9l-.2-.3a14.515 14.515 0 0 1-1.1-2.9 22.073 22.073 0 0 1-.5-5.1ZM698 379.2c1.7 1.3 3.9 2.2 5.6 3.6 4.1 3.7 4.4 9 2.4 13.9-.244.82-.545 1.622-.9 2.4l.5.6a15.799 15.799 0 0 1 3.1 8.2c.6 6.3-.9 12.5 1.5 18.6.6 1.3-.5 2.5-1.7 2.9a14.103 14.103 0 0 1-2.2-7c0-3.6.6-7-.5-10.5a34.234 34.234 0 0 0-3.7-7.7c-2.7-4.1-.2-6.1.5-10.4.7-4.3-.1-9.1-3.9-11.3-3.8-2.2-7.3-5.3-4.5-10 1.5-2.8 1.3-4.6.8-7.7-1-6.6-2.5-12-6.5-17.1l1-.6c3.3 4.1 7.5 7.6 9.6 12.5 2.1 4.9.6 11-2.3 16.1-.196.549-.43 1.084-.7 1.6l1.9 1.9Z"/><path fill="#FC5B61" d="M694.1 395.6c.7-1.8 2.4-3.6 3-5.6l-1.1-.6-3.1-1.6c-4.7-2.5-9.2-6.1-8.2-12 .6-3.8 4.6-7.4 4.1-11.1h.9a13.201 13.201 0 0 1-.4 6.3c-1.7 4.9-.3 9.2 3.7 12.5 4 3.3 6 2.8 6.1 7 .1 4.2-2.5 5.6-3.6 8.8-1.1 3.2-.1 4.9 1 7.2a15.837 15.837 0 0 1-2.2-2.9 9.101 9.101 0 0 1-.2-8ZM676.6 348.8c-3.1-6.1-1.7-11 1.7-16.2-.4 6.6-.4 11.7 4.1 17.1 3 3.6 6.4 9.5 7.3 14.9h-.9a4.8 4.8 0 0 0-.9-2.1c-3.5-4.7-8.6-8.3-11.3-13.7ZM673.4 314c-.7-2.1-.3-4.3-.4-6.4a21.578 21.578 0 0 0-1.1-5.3 26.223 26.223 0 0 1 2.2 4.8 9.988 9.988 0 0 1 .5 4.5c-.1 1.1-.8 2.4-.4 3.1.4.7 5.8 3.4 7.4 4.3 4.9 2.8 9.1 6.7 9.3 12.7.1 3.2-1.3 5.3-3.2 7.7-1.9 2.4-1.2 3.6.4 5.9l1.4 1.8-1 .6-.9-1.1c-3.3-3.8-3.9-7-3.9-12 .1-2.8.6-6.1-.6-8.8-1.2-2.7-3.1-3.9-5-5.7-1.9-1.8-3.9-3.7-4.7-6.1ZM670.1 428c-1-3.5-6-5.4-5.2-9.1.8-3.7 2.6-5.5 2.4-8.8a8.498 8.498 0 0 1 .5 4.7c-.2 1.1-.8 4.4-1.6 5.2-.8.8 1.2 1 1.6 1.4a12.001 12.001 0 0 1 2.9 5c.352 1.439.453 2.927.3 4.4h-.5a8.602 8.602 0 0 0-.4-2.8ZM668.9 315.2c1.4 6.5 9 9.2 9.4 15.5a31.164 31.164 0 0 1-3.1-1.8 61.11 61.11 0 0 1-6.1-3.6c-5-3.5-8.1-9-5.2-14.9 1.6-3.3 1.2-4.9-.8-8l-4.2-6.1c-1.3-1.8.7-3.8 2.5-3.5a.803.803 0 0 0 .5.8c3.3 2.8 5.5 5.2 6.5 9.6 1 4.4-.4 8 .5 12Z"/><path fill="#FC5B61" d="M673.9 438.7c1.8 4.3-3.9 7.6-7.3 5.7-3.4-1.9-6.8-6.9-6.8-12s-2.2-4.1-3.9-7.3c-1.7-3.2-.1-8.3 2.4-12.1.1-.2 1.1-1.6 1.2-1.2a12.29 12.29 0 0 0-1-4.3 37.062 37.062 0 0 0-3.2-8c-.9-1.7 1.5-3.8 2.9-2.2a10.403 10.403 0 0 0 .3 4.6c.7 2.7 2.9 5.1 3.4 7.7.9 4.6-4.1 8.2-2.3 13 .6 1.6 1.8 2.6 3 3.8a9.876 9.876 0 0 1 2.6 2.4c1 1.9.3 4.1.3 6 0 1.9.6 6.7 3.5 4.9.2 0 .3-.2.3-.4v-.5l.4-.6c.6-.6.3-2.4.4-3.4.237-1.354.371-2.725.4-4.1h.5c-.033.872.034 1.744.2 2.6.4 1.9 2 3.7 2.7 5.4ZM654.5 320.8a31.859 31.859 0 0 1-.5 5.4c-.3 2.4.4 4.3 1.5 6.5s3.4 6.3 2 9.5a1.298 1.298 0 0 1-1.7.5 26.416 26.416 0 0 1-5.6-5.1 11.9 11.9 0 0 1-2-5.9c0-3.9 1.7-7.4 1-11.3-.7-3.9-2.6-5.9-4.7-8.4s-3.7-3.4-4.4-5.8a19.82 19.82 0 0 1 .1-7.3c1.1-6.2 5.3-12.2 2.8-18.6l-.6-1.1a16.397 16.397 0 0 1 4.2 7.1c1.2 4.5.2 9.3-1.2 13.8-.4 1.3-2.7 6.3-2.1 7.4.6 1.1 5.4 3.4 6.8 4.7a12.703 12.703 0 0 1 4.4 8.6ZM642.3 318.4a7.5 7.5 0 0 1 1.7 3.3c-1.4-1.1-3.3-1.6-4.8-2.3a14.798 14.798 0 0 1-6.4-5.7c-3.2-5.6-.6-11.5 1.8-17.1a26.218 26.218 0 0 0-.8 7.5 13.499 13.499 0 0 0 3.8 9.5c1.5 1.7 3.3 3 4.7 4.8ZM628.1 263.8a1.591 1.591 0 0 1 1 .8l1.7 2.6a17.583 17.583 0 0 1-2.7-3.4ZM628.9 442.6a15.998 15.998 0 0 1-3.9-10.8c0-3.5 1.6-7.4 1-10.8a4.708 4.708 0 0 0-1-2l.8-.3 1.2 1.7c2.4 4.1.3 8.8 1 13.1.7 4.3 3.3 3.9 3.8 6.4a1.102 1.102 0 0 0 1.1 1.1 1.1 1.1 0 0 0 1.1-1.1 4.299 4.299 0 0 0-.3-3.1l1.2-.5c.159.419.36.821.6 1.2 2.5 4-3.5 8.7-6.6 5.1ZM631 277.5c-2.9-3.2-4.2-7.4-5.5-11.4a1.898 1.898 0 0 1 0-1.3 14.721 14.721 0 0 0 2.6 3.7c3.3 3.6 7.1 7.3 9.5 11.6 2.4 4.3.8 6.2-.4 9.2 1.2-5.7-2.8-7.9-6.2-11.8ZM622.4 362.6a4.294 4.294 0 0 0-.1-.5 2.4 2.4 0 0 1 .8 3.3 9.994 9.994 0 0 0-1.2 1.9c.369-1.538.537-3.118.5-4.7Z"/><path fill="#FC5B61" d="M619.5 384.9c-4.8-4.7-1.3-9.2 1-13.8.341-.613.641-1.248.9-1.9-.4 2.4.6 4.7 1.3 7.6a50.84 50.84 0 0 0 2.6 8.9c3 6.8 3.5 11.8 1.9 19-1 4.5.9 4.1 3.8 6.7a12.2 12.2 0 0 1 4.1 7.1c1.2 5.8-2.6 12.3-.2 17.8l-1.2.5-1.2-1.8c-2.2-3.9-.1-8.8-.8-13-.4-2.2-1.6-3.6-3-5.3-1.4-1.7-3.7-4-4.3-6.7-.6-2.7 0-5.3 0-7.7 0-2.4.8-8.2-.1-11.8-.9-3.6-2.8-3.7-4.8-5.6ZM613.2 294.9a38.266 38.266 0 0 1 2.7 7.1c.088.414.222.817.4 1.2-1-2.7-2.2-5.5-3.1-8.3Z"/><path fill="#FC5B61" d="M612.9 382.4c.7 3.1 2.5 5.1 4.7 7.2 2.2 2.1 1.9 3.1 1.8 6v5.8c0 3.4-.2 7.1 1.1 10.3 1.3 3.2 3.5 4.7 5.3 7l-.8.3c-1.4-1.6-3.9-2.5-5.4-4.1a12.1 12.1 0 0 1-2.5-9.9c.5-4.5 2.3-7.9-.6-11.9s-4.4-6.2-5.1-10.2c-1.5-7.7 2.9-14.9 7.7-20.6l.6-.5-.3.8c-.8 7.4-8.5 11.9-6.5 19.8ZM613.8 311.5c.8 5.5.4 11.6 3 16.7a1.293 1.293 0 0 0 1.242.557 1.304 1.304 0 0 0 1.058-.857 6.499 6.499 0 0 1 1.1 4.2c-.3 1.9-2.4 3.1-3.9 1.6s-6.7-4.1-8.8-7.6c-2.1-3.5-.5-5.5-.1-8.6 1-7.5-8.9-19.5-1.3-25.7a3.404 3.404 0 0 1 3.9-.5 8.103 8.103 0 0 1 2.3 2.2 1.202 1.202 0 0 0-1.5 1.1c-.8 5.7 2.3 11.2 3 16.9ZM669 467.1c.3 3.4.8 6.8 1.3 10.2-3 3.6-10.4 5.1-14.5 7.2-10 5-22.5 4.2-33 1.3-4.3-1.1-10.1-2.7-13.7-5.7-.7-.6-1-.3-1.5-.4a46.433 46.433 0 0 0-.3-6.5 59.865 59.865 0 0 0-.8-7.4l3.2 1.6a26.704 26.704 0 0 0 15.7 2.9c10.5-1.5 17.9-12.2 28.6-12.2 5.6 0 9.8 2.4 14.7 4.8 0 1.4.2 2.9.3 4.2ZM584.5 411.8a24.89 24.89 0 0 1-.4 7.2c-.2-3.4-.2-6.9-.3-10.3a28.29 28.29 0 0 1 .7 3.1ZM585.6 366.1c3 6.6 2.1 14.1 3.9 21a177.368 177.368 0 0 1 4.2 21.5c.8 7.4 2.2 15 .8 22.4a10.097 10.097 0 0 0 0 5.2c.7 3.1 2.6 2.9 4.3 5.1a2.698 2.698 0 0 1 .241 3.285c-.217.33-.504.608-.841.815-3.3 2.1-6.4 0-8.5-2.7a18.095 18.095 0 0 0 4.9 2.1c1.2.3 2.2-1.7.9-2.3-9.4-4-8.6-12.7-6.5-21 1.7-6.6.9-11.6-.7-18.2s-1.5-14.4-2.9-21.5c-.7-3.7-1.9-7.6-1.5-11.4.3-2.1.6-3.4-.1-5.2a1.702 1.702 0 0 1 1.8.9ZM582 367.1a1.403 1.403 0 0 1 .5-1.4 6.802 6.802 0 0 1-.4 2.9c0-.5-.1-1-.1-1.5ZM576.1 313.7c.468 3.2.124 6.467-1 9.5a118.014 118.014 0 0 0-3.4 12c-.1.3-.1.6-.2.8a20.663 20.663 0 0 1 1-5.2c1.4-4.5 2.9-8.9 3.2-13.6l.3-4.4c0 .3.1.6.1.9ZM567.1 344.8a3.801 3.801 0 0 1-6-.8c-3.7-7.2-.4-17.7 3.4-24.4 2.3-4 4.5-6.3 5.1-11.1.4-3 .8-5.9 2.4-8.5l.3-.4a64.906 64.906 0 0 0-2.3 17.6c-.1 8.1-6.2 18.3-1.4 25.9a11.383 11.383 0 0 1-1.5 1.7ZM549 344.7l-.9-3.4a1.6 1.6 0 0 1 1 1.8c0 .6-.1 1.1-.1 1.6ZM551.3 428.8c-1 8.2-3.3 15.2 1.2 22.6 1.1 2-1.3 4.6-3.3 3.3a16.501 16.501 0 0 1-3.9-4l.7-.4a10.191 10.191 0 0 0 3.4 3.1 1.005 1.005 0 0 0 1.351-.727.994.994 0 0 0-.051-.573c-2.4-4.3-3.7-8-3.4-13.1.3-5.1 1.1-8 1.7-12.1 1.2-9.3-2-18.2-1.9-27.4.2-5.5-.2-10.9-.5-16.3s-1.2-11.6.3-16.8c.4-1.3.8-2.5 1.3-3.8a77.006 77.006 0 0 0-1 9.4c0 9.4 1.6 18.8 2.7 28s2.5 19.3 1.4 28.8ZM542.6 548.2l-2.9 2a12.408 12.408 0 0 1 2.9-2Z"/><path fill="#FC5B61" d="M544.1 432.8c-.7 5.5-1.5 12.7 1.9 17.5l-.7.4c-3.1-4.5-4.4-10.5-4.7-15.7-.6-10.1-.3-20.1-1.3-30.2a6.159 6.159 0 0 0-.1-1.3h1.5c0 .4.1.7.1 1.1 1.1 9.6 4.6 18.3 3.3 28.2ZM542.3 356.7a98.201 98.201 0 0 1 2.5-14.2 1.4 1.4 0 0 1 .9-1.2c-.8 5.3.9 10.6-.2 15.9-1.1 5.3-3.1 7.9-3.7 12.2-.7 5.8-.1 11.8-.5 17.6-.4 5.8-1.1 10.9-.6 16.4h-1.5c-1.1-10.3-3-20.6-.4-30.8 1.4-5.3 2.9-10.3 3.5-15.9ZM525.5 654.2a2.393 2.393 0 0 0-1.684-2.879 2.41 2.41 0 0 0-1.216-.021c-25.5 5.7-52.6-.1-76.9-8.8-22.2-8-44.5-19.8-61.3-36.8a140.235 140.235 0 0 1 10.1-25.1c2.6 2.867 5.3 5.667 8.1 8.4 9.6 9.6 20.3 16.6 31.9 23.4 11.6 6.8 29 7.4 42.3 6.3a92.025 92.025 0 0 0 21.5-4.2c5.8-1.9 11.1-4.7 17.4-4.9 6.3-.2 12.6 1.8 16.5 6.5a20.796 20.796 0 0 1 3.9 9.3c.399 2.413.599 4.854.6 7.3.4 12.5-.5 26.6-3.6 38.7-3.7 14.2-10.6 27.9-18.1 40.4-7.5 12.5-17.8 25.3-27.5 37.2-4.2 5.3-8.5 10.4-12.8 15.7-4.3 5.3-8.6 11.8-14.6 15.9a43.76 43.76 0 0 1-4.7 2.7c-2.252-.02-4.5.215-6.7.7a269.19 269.19 0 0 0 76.8-129.8Z"/><path fill="#FC5B61" d="M518.8 660.8c.3-1.3.8-2.6 1.1-3.8-.3 1.2-.7 2.5-1.1 3.8ZM517.4 665.5a264.893 264.893 0 0 1-39.3 78.2 304.883 304.883 0 0 0 39.2-78.2h.1ZM383.5 567.9c2.4 3 4.9 5.9 7.4 8.8l-1.2 2.7c-3.6 7.8-5.7 15.6-7.7 23.9l-.4-.5a103.214 103.214 0 0 1-7.3-8.8c2.5-7.1 3.5-14.2 6.7-21.2l2.5-4.9ZM303.4 358.4c1.4 9.5 4.1 18.8 6.3 28.2 4 17.4 8.3 34.7 13.4 51.8 4.6 15.5 11.4 30.1 16.4 45.2a323.57 323.57 0 0 0 20.3 48.2 214.594 214.594 0 0 0 20.1 31.4c-1.6 2.9-3.1 5.8-4.4 8.8-2.2 5.1-4.6 11.3-4.6 17.2-5.2-7.8-9.8-16.1-14.2-24.1a337.147 337.147 0 0 1-19.9-44.2c-11.4-30.3-19.1-62-24.5-93.9-1.8-10.4-3.4-20.7-4.9-31.1 0-.3-.1-.5-.1-.8-1-6.6-2-13.3-3.1-20a169.43 169.43 0 0 1-2.4-25.7c0-.7 0-3.4.3-6.5v.4c.181 5.052.615 10.092 1.3 15.1ZM589.9 669.3a17.899 17.899 0 0 0-3.6 6.3c-2.8-1.7-6.5-.8-9.1 1.1-2.6 1.9-4.2 4.9-5.9 7.7a297.392 297.392 0 0 1-45.7 58.5c-6.5 6.5-25.9 23-21.8 34.2 4.9 13.7 24.6-5.2 29.6-9.8a281.728 281.728 0 0 0 28.5-29.3c12.7-15.4 24.7-29.2 33.8-47.6 2.8-5.7 5.4-12.1 4-18.3a6.803 6.803 0 0 0-2.1-4c-2-1.6-5.3-1-7.3.8l-.4.4ZM610.1 810.5c9.7-13.7 26.8-34.4 25.8-52.7a2.2 2.2 0 0 0-.5-1.6c-.8-.9-2.2-.5-3.2 0l-3.3 1.4c-3.2 1.5-4.7 3.9-8.5 4-3.8.1-4.9-2.6-7.7-2.6-4.7.1-10.6 5.6-14.1 8.3-16.1 12.1-27.4 29.1-42.3 42.1-6.1 5.3-12.3 10.6-18.8 15.2.4-.3 23.2 16.9 43.8 29 .9-1.4 24.4-36.8 28.8-43.1ZM689.6 646.5c-4.3-3.4-9.4-1.6-13 1.8-3.6 3.4-7.8 10.6-10.7 16.3a290.924 290.924 0 0 1-15.3 27.2 138.502 138.502 0 0 1-16.7 22c-4.9 5.3-11.1 11.6-12.2 19-.4 2.5.9 4.6 3.6 4.8 4.2.2 6.9-1.9 9.4-4.4 2.5-2.5 7.5-4 7.7-2a2.798 2.798 0 0 0 3.5 2.6c12.6-2.7 22.9-16 30.6-25.4 9.9-11.9 19.2-26.6 19.7-42.5.2-6.4-1.3-15.2-6.6-19.4Z"/><path fill="#464646" d="M761.8 272.7c1.7 1.7 3 4.1 1.9 6.4a.9.9 0 0 1-1.6 0c-.8-1.6-1.2-3.4-2.3-4.9-1.1-1.5 1-2.4 2-1.5ZM758.7 263.4a.802.802 0 0 1-1.2.9c-7-4.8-9.6-17.7-11.6-25.3-2.6-9.9-4.6-19.9-7.6-29.6l2.1-.9c3.7 8.6 5.3 17.8 7.6 26.8a126.254 126.254 0 0 0 4.5 14.8c1.7 4.5 4.8 8.7 6.2 13.3ZM740.5 403.4a14.515 14.515 0 0 0 1.1 2.9l.2.3c.393.563.634 1.217.7 1.9a1.498 1.498 0 0 1-.8 1.4 1.404 1.404 0 0 1-1.4-.3l-.2-.2a2.092 2.092 0 0 1-.4-.6l-.3-.4a33.615 33.615 0 0 1-3.3-10.3 21.153 21.153 0 0 1-.6-4.3c-.052-1.7.327-3.385 1.1-4.9a1.508 1.508 0 0 1 1.3-.752 1.5 1.5 0 0 1 1.3.752 11.609 11.609 0 0 1 1.2 4.5c.1 1.6-.4 3.3-.4 4.9a22.073 22.073 0 0 0 .5 5.1ZM695 364.8c.5 3.1.7 4.9-.8 7.7-2.8 4.7.3 7.7 4.5 10s4.5 7.3 3.9 11.3c-.6 4-3.2 6.3-.5 10.4a34.234 34.234 0 0 1 3.7 7.7c1.1 3.5.5 6.9.5 10.5a14.103 14.103 0 0 0 2.2 7c.6 1.2 1.3 2.4 1.9 3.8.6 1.4-2 2.6-2.8 1.2-1.9-3.1-4.6-4.7-5.6-8.4a18.695 18.695 0 0 1-.4-2.5c-.2-2.5.1-5.1-.4-7.6-.14-.824-.375-1.63-.7-2.4-1-2.4-2.8-4.7-4-7.1-1.2-2.4-1.8-4.6-1-7.2.8-2.6 3.7-5.2 3.6-8.8-.1-3.6-3.4-4.8-6.1-7-2.7-2.2-5.4-7.6-3.7-12.5.641-2.037.778-4.199.4-6.3-.9-5.4-4.3-11.3-7.3-14.9-4.5-5.4-4.5-10.5-4.1-17.1v-1.9c-.4-6.3-8-9-9.4-15.5-.9-4 .4-8-.5-12s-3.2-6.8-6.5-9.6a.798.798 0 0 1-.5-.8 1.497 1.497 0 0 1 1.71-1.569c.294.042.569.17.79.369 3.9 3.1 6.6 6.4 8 10.7a21.569 21.569 0 0 1 1.1 5.3c.1 2.1-.3 4.3.4 6.4.7 2.1 2.8 4.4 4.7 6.1 1.9 1.7 4 3.3 5 5.7 1 2.4.7 6 .6 8.8 0 5 .6 8.2 3.9 12l.9 1.1c4 5.1 5.5 10.5 6.5 17.1ZM722.1 345.2c3.9 1.8 8.3 4.1 10.1 8.3.1.1.1.3.2.5.225.685.392 1.387.5 2.1a22.59 22.59 0 0 1-.9 10.4c-2.4 7.1-2.3 12.2 2.9 18.1a1.415 1.415 0 0 1-2 2c-3.4-3-6.7-6.1-7.6-10.7-.9-4.6.8-7.7 1.6-11.5.224-.956.391-1.924.5-2.9.2-2.8.3-5.4-1.7-7.5-2-2.1-4.7-3.4-6.9-5s-4.2-5.4-4.3-9.1c-.1-3.7.6-6-.2-9.1-.3-.8-.6-1.9-1-2.7-1.3-2.5-2-1.9-4.4-2.9-2.4-1-4.3-3.8-4.7-6.9 0-.6-.1-1.1-.1-1.7 0-2.5.4-5 0-7.5a30.205 30.205 0 0 0-3.1-8.4 63.099 63.099 0 0 0-4.5-9.2c-1.2-1.8-2.5-3.2-4-3.6-1.5-.4-1.2-2.9.4-2.7a6.896 6.896 0 0 1 4 2.2 23.861 23.861 0 0 1 2.9 4.4c2.4 4.4 4.9 8.8 6.4 13.5a23.394 23.394 0 0 1 1.3 7.9c0 1.5-.4 3.1 0 4.6.4 1.5.8 3.2 2.9 4a3.71 3.71 0 0 1 1.8-.1c3.3 1.3 4.2 3.6 5.4 6.9a19.793 19.793 0 0 1 1.1 6.8c-.1 4.1-.8 7.7 3.4 9.8ZM669.3 439.4c0 .2-.1.4-.3.4-2.9 1.8-3.5-3-3.5-4.9 0-1.9.7-4.1-.3-6a9.892 9.892 0 0 0-2.6-2.4c-1.2-1.2-2.4-2.2-3-3.8-1.8-4.8 3.2-8.4 2.3-13-.5-2.6-2.7-5-3.4-7.7a10.404 10.404 0 0 1-.3-4.6l.3-1.2a1.503 1.503 0 0 1 2.249-.698c.25.172.442.415.551.698 1.3 4.5 4.8 8.3 5.8 12.8.1.4.1.8.2 1.1.2 3.3-1.7 5.6-2.4 8.8-.7 3.2 4.2 5.6 5.2 9.1.287.905.422 1.851.4 2.8a27.11 27.11 0 0 1-.4 4.1c-.1 1 .2 2.8-.4 3.4l-.4.6v.5ZM654.5 345c.5.7-.2 1.9-1 1.3-6.1-4.6-10.7-11.3-9.6-19.1.379-1.811.413-3.677.1-5.5a7.5 7.5 0 0 0-1.7-3.3c-1.4-1.8-3.2-3.1-4.7-4.8a13.499 13.499 0 0 1-3.8-9.5 26.214 26.214 0 0 1 .8-7.5 22.89 22.89 0 0 1 1.2-3.7c.4-1.2 1-2.4 1.4-3.6 1.2-3 2-6.2.4-9.2-1.6-3-6.2-8-9.5-11.6a14.721 14.721 0 0 1-2.6-3.7 11.2 11.2 0 0 1-.9-4.2c-.1-1.7 2.5-1.7 2.6 0a8.488 8.488 0 0 0 .9 3.2 17.613 17.613 0 0 0 2.7 3.4c1.7 1.6 3.6 3.1 5.1 4.6 1.5 1.5 5 4.5 6.5 7.4l.6 1.1c2.5 6.4-1.7 12.4-2.8 18.6a19.8 19.8 0 0 0-.1 7.3c.7 2.4 2.9 4 4.4 5.8 1.5 1.8 4.1 5.2 4.7 8.4.6 3.2-1 7.4-1 11.3a21.314 21.314 0 0 0 3.1 7.8c1.1 1.8 1.9 3.9 3.2 5.5ZM619.4 362.6l.3-.8a1.495 1.495 0 0 1 1.388-.612 1.498 1.498 0 0 1 1.212.912c.043.164.077.331.1.5a18.316 18.316 0 0 1-.5 4.7c-.119.645-.286 1.28-.5 1.9a16.243 16.243 0 0 1-.9 1.9c-2.3 4.6-5.8 9.1-1 13.8 2 1.9 4.1 2.7 4.8 5.6.7 2.9.1 8.1.1 11.8 0 3.7-.6 5.4 0 7.7s2.7 4.7 4.3 6.7c1.6 2 2.6 3.1 3 5.3.7 4.2-1.4 9.1.8 13l1.2 1.8c.484.959.591 2.065.3 3.1a1.102 1.102 0 0 1-1.1 1.1 1.102 1.102 0 0 1-1.1-1.1c-.5-2.5-3.4-3.6-3.8-6.4-.4-2.8 1.4-9-1-13.1l-1.2-1.7c-1.8-2.3-4-4.2-5.3-7-1.3-2.8-1.1-6.9-1.1-10.3v-5.8c.1-2.9.4-4-1.8-6s-4-4.1-4.7-7.2c-2-7.9 5.7-12.4 6.5-19.8ZM613.2 294.9c.9 2.8 2.1 5.6 3.1 8.3a40.792 40.792 0 0 1 2.1 7.6c.8 5.6 1.6 11.6.7 17.1a1.296 1.296 0 0 1-1.058.857 1.306 1.306 0 0 1-1.242-.557c-2.6-5.1-2.2-11.2-3-16.7-.8-5.5-3.8-11.2-3-16.9a1.205 1.205 0 0 1 .489-.906c.144-.106.309-.178.484-.211.175-.034.355-.028.527.017.33.164.581.452.7.8.1.2.1.4.2.6ZM589.7 544c.933-.28 1.837-.648 2.7-1.1a17.9 17.9 0 0 0 8.7-9.3c1.6-4.2 1.8-8.7 1.8-13.1s1.2-8.5 1.4-12.8c.2-4.3.3-6.5.3-9.7h3c.217 4.098.184 8.206-.1 12.3-.9 9.6.9 21.3-5.3 29.5a19.987 19.987 0 0 1-1.9 2.2v2.8a35.392 35.392 0 0 0-4.5.8l-5.6 1.2-.5-2.8ZM595.5 442.5c1.3.6.3 2.6-.9 2.3a18.095 18.095 0 0 1-4.9-2.1 14.702 14.702 0 0 1-7.1-10.4c-.8-4.6.7-8.9 1.5-13.3a24.89 24.89 0 0 0 .4-7.2 28.29 28.29 0 0 0-.7-3.1c-.8-3.2-2-6.3-2.3-9.7-.3-3.4.4-7.7.2-11.6-.2-3.9-2.3-8.9-1.8-13.3a9.201 9.201 0 0 1 1.1-2.9l1.1-2.6a6.802 6.802 0 0 0 .4-2.9c0-.3-.1-.6-.1-.9 0-.3.7-1 1-.5l.4.9c.7 1.8.4 3.1.1 5.2-.4 3.8.8 7.7 1.5 11.4 1.4 7.1 1.1 14.4 2.9 21.5 1.8 7.1 2.4 11.6.7 18.2-2.1 8.3-2.9 17 6.5 21ZM579.5 288.6c-.2 4.7-1.9 9.2-2.7 13.8a71.708 71.708 0 0 0-.8 10.4l-.3 4.4c-.3 4.7-1.8 9.1-3.2 13.6a20.663 20.663 0 0 0-1 5.2 62.822 62.822 0 0 0 .2 8.6.8.8 0 0 1-1.4.6 15.657 15.657 0 0 1-1.7-2.1c-4.8-7.6 1.3-17.8 1.4-25.9a64.906 64.906 0 0 1 2.3-17.6 32.599 32.599 0 0 1 6.2-11.4c.3-.5 1.1-.1 1 .4ZM547.3 439c-.3 5.1 1 8.8 3.4 13.1a1.004 1.004 0 0 1-.727 1.351 1.002 1.002 0 0 1-.573-.051 10.21 10.21 0 0 1-3.4-3.1c-3.4-4.8-2.6-12-1.9-17.5 1.3-9.9-2.2-18.6-3.3-28.3 0-.4-.1-.7-.1-1.1-.5-5.5.3-10.9.6-16.4.3-5.5-.2-11.8.5-17.6.6-4.3 2.9-8 3.7-12.2.8-4.2-.6-10.6.2-15.9.1-1.3 2.1-1.2 2.4 0l.9 3.4a34.494 34.494 0 0 1 .9 11.5 27.43 27.43 0 0 1-1.7 6.4c-.5 1.3-.9 2.5-1.3 3.8-1.5 5.2-.6 11.4-.3 16.8s.7 10.8.5 16.3c-.1 9.2 3.1 18.1 1.9 27.4-.6 4.1-1.5 8.1-1.7 12.1Z"/><path fill="#464646" d="M563.6 540.1c-8.3 4.9-18 7.9-25.6 14l-1.9-1 3.5-2.9h.1l2.9-2c4.8-3 10.1-5.3 15.3-7.9 5.2-2.6 8.6-4.5 11.8-8 3.2-3.5 4.7-10.5 5.5-16.4 1.4-10.5 7.3-15.4 16.3-19.8 1.2-.6 9-3.9 13.2-3.6v-.7h2.7c0 2 .1 4 .2 6.1h-3l-1.3.4c-1.6.5-3.2 1-4.9 1.7l-1.5.6a56.139 56.139 0 0 0-9.1 4.8c-8.2 5.3-6.9 16.3-12.1 23.8a35.497 35.497 0 0 1-12.1 10.9Z"/><path fill="#464646" d="M604.4 473c-3.1 1.3-6.4 4-8.8 5.5-4.6 2.8-9.3 6-14.1 8.4-4.8 2.4-9.6 3.4-13.6 6.7-4 3.3-5.8 8.3-7.5 13.4a11.4 11.4 0 0 1-4.9 6.5c-5.2 3.4-11.4 6-16.9 8.8-5.5 2.8-11.7 5.7-18 6.2-6.3.5-12-2.2-18.1-1.2l-3.1.6-.6-2.4a51.592 51.592 0 0 1 8.9-1.4c6.4-.4 12.5.7 18.7-1.4 6.2-2.1 14.3-6.9 21.3-10.4 3.8-1.9 6.9-3.1 8-7.3 1.1-4.2 2.6-9 5.6-12.7 6.2-7.6 17.2-9.8 25.6-14.3 4.2-2.3 8.5-4.6 12.9-6.8a27.063 27.063 0 0 1 4.2-2c-.1-.7-.2-1.7-.4-2.8l2.9-.6c.42 2.448.687 4.919.8 7.4.252 2.157.352 4.329.3 6.5 0 4.1-.2 8.1-.2 12.1h-2.7c-.1-4.2-.1-8.4 0-12.5 0-2.067-.1-4.167-.3-6.3ZM341.2 328.5c.7 4.2 2.1 11.3 3.4 11.1 1.3-.2 2-6.6 2.4-13.4-1.9.4-3.9.8-5.4 2.1l-.4.2Zm9 4.1c.1 3.7-1.2 14.3-7.1 11.3-3.5-1.8-3.3-5.8-3.8-9.1a70.897 70.897 0 0 1-1.4-10.3c0-1.2.8-3.8.8-5.8h2.6c0 2.3-.6 4.7-.5 6.7v.3a8.602 8.602 0 0 1 2.8-2.9 9.493 9.493 0 0 1 3.7-1.2h2.6c-.1 3.9.2 7.6.3 11Z"/><path fill="#464646" d="M328.5 344c2 2 1.6.4 1.9-1.3.402-1.738.604-3.516.6-5.3.1-1.932.1-3.868 0-5.8h-.3a2.807 2.807 0 0 0-1.3.3c-3.3 2-3.1 9.9-.9 12.1Zm11.3-30a6.502 6.502 0 0 1 1.5 4.7h-2.6a2.295 2.295 0 0 0-.9-2.2c-4.3-2.3-3 9.2-3 11.2 0 4.5.4 9.1-.2 13.6-.3 2.6-1 8.1-4.3 8.8-3.3.7-4.5-2.3-5.3-4.3-1.7-4.6-1.7-10.3-2-15.1-.1-1.6.5-12.4-2.7-10.6a3.414 3.414 0 0 0-1.3 2.3 82.496 82.496 0 0 0-3.1 20.3c-.1 4.2.7 8.6.2 12.8l-2.4-.3v-.5c-.1-12.4-3.2-27.5 4.9-38.3 3.9-5.4 7.5 2 7.7 5.6.2 3.6.3 5.1.5 7.6a4.993 4.993 0 0 1 3.9-2c.1-.1.1 0 .2 0s0-2.8.1-4.2c.3-3.4 3.5-15.1 8.8-9.4ZM209 717.4a16.3 16.3 0 0 0 7.4 5.7c-.016-6.347.318-12.69 1-19 .7-5.8 1.2-12.7 4.3-17.9-15.8.5-21.2 20.1-12.7 31.2Zm1.4-33.1a20.097 20.097 0 0 1 19.3-1.8c8.9 3.8 15.5 13.2 14.9 23.1-.6 9.9-10.4 22.4-21.6 23.5-11.2 1.1-18.5-7.1-21.7-16.1-3.2-9 .5-22.8 9.1-28.7Zm25.4 31c6.3-8.6 4-20.1-4.7-26.1a19.1 19.1 0 0 0-5.9-2.7.298.298 0 0 0-.1.2c-3.4 12.2-3.6 24.7-3.8 37.2 5.3-.1 10.7-3.3 14.5-8.6ZM208.4 284.5a2.402 2.402 0 0 1 1.6 2.1v8.8h5.2a9.602 9.602 0 0 1 4.9-11.8l-7.1-3.9c-2.8 1.4-5.5 2.7-8.2 4.2 1.179.311 2.384.512 3.6.6Zm11.8 11.4a2.102 2.102 0 0 1 .39 2.186 2.105 2.105 0 0 1-1.79 1.314l-10.8.4a2.3 2.3 0 0 1-2.2-2.2c0-3.1-.1-6.1-.1-9.2a36.834 36.834 0 0 1-7.1-2.3c-1.5-.7-1.3-3 0-3.8a52.293 52.293 0 0 1 12.1-5.3 2.2 2.2 0 0 1 2-2l1 .3 15.1 8.1c2.2 1.1.7 4.6-1.6 3.9-5.4-1.8-11.1 3.5-7 8.6ZM190.9 291c1.3-.5 2.9.7 2.1 2.1-2.2 3.8-7 5.7-11.8 5.7-6.4 0-12.7-3.4-12.9-10.1-.1-5.1 3.8-9.9 8.6-11.3 4.8-1.4 7.7.3 11.4 2.6-.1-1.3-.6-2.5-.7-3.8-.1-1.3.8-2.7 2-2.7h.3c1.1.2 1.6 1.5 1.8 2.6.2 1.1 1.8 4.3 1.9 6.4a3.802 3.802 0 0 1-1.2 3.3c-1.7 1.6-5.1 2.2-7.4 2.5-.7.1-1.7 0-1.9-.8a1.498 1.498 0 0 1 .3-1.1 9.89 9.89 0 0 1 3-2.8c-4.2-1.7-12.4-2.1-12.5 4.5 0 3.7 4.3 5.2 7.4 5.5 3.1.3 6.5-1.2 9.6-2.6ZM175.5 257.5a7.4 7.4 0 0 0 8.9-3.4c1.6-3.4-.6-7.9-4.5-7.9s-6.1.8-7.4 3.6a5.809 5.809 0 0 0-.112 4.478 5.808 5.808 0 0 0 3.112 3.222Zm-7.7-5.8c.7-6.5 8.6-12.2 15.4-9.4a9.995 9.995 0 0 1 5.916 11.091 10 10 0 0 1-1.816 4.109c-4.2 5.3-12.9 6.4-17.3.9a8.895 8.895 0 0 1-2.2-6.7ZM157.6 291a1.804 1.804 0 0 1-2.545-.573 1.792 1.792 0 0 1-.255-.927 6.398 6.398 0 0 1 1-3.3 45.927 45.927 0 0 0-7.4.5c-2.6.4-5.4 1.7-7.5-.3a.902.902 0 0 1-.3-1c.9-3.4 5.6-3.6 8.5-4 2.9-.4 4.5-.5 6.7-.6a52.151 52.151 0 0 0-5.4-2.4 1.497 1.497 0 0 1-.696-1.713 1.501 1.501 0 0 1 1.496-1.087 38.391 38.391 0 0 1 13.7 5.7 2.298 2.298 0 0 1 .792 3.065 2.298 2.298 0 0 1-.792.835 16.397 16.397 0 0 0-4 2.9c-1.1 1-1.9 2.3-3.3 2.9ZM143.3 255.7a5.798 5.798 0 0 0 7.7-1.8c1.5-2.5.1-5.8-2.2-7.5a4.502 4.502 0 0 0-5.3-.5c-3.6 2.2-3.4 7.6-.2 9.8Zm-5.5-7.1c1.1-7.1 9.8-9.3 14.8-4.6 5 4.7 4.3 9.4.8 13.1-3.5 3.7-11.8 4.3-14.6-1.3a12.107 12.107 0 0 1-1-7.2ZM109.4 254.8a8.8 8.8 0 0 0 9.4 1.4c3.5-2 2.4-6.7-.3-8.9a7.009 7.009 0 0 0-2.3-1.1c-4.9-.9-11.6 4-6.8 8.6Zm-1.1-11.2c5-2.8 10.8-1.3 14.4 2.9 3.6 4.2 2.9 11.5-3 13.8-5.9 2.3-13.7-.5-15.4-6.8a8.4 8.4 0 0 1 4-9.9ZM119.2 292.2c2 1.4.8 4.9-1.7 4.1-5.2-1.8-10.2-5.3-14.6-8.5a2.298 2.298 0 0 1-.792-3.065c.189-.341.461-.628.792-.835 4.1-3.1 8.5-6.4 13.3-8.1 1.2-.5 2.1 1.3 1.2 2.1a31.138 31.138 0 0 1-3.3 2.9c5.6-1 11.7-.9 15.9 1.5 1.5.9 1.4 3.5-.5 3.9-3.6.6-7.2-.4-10.9-.4s-6.3.3-9.4.5c3.4 2 6.8 3.8 10 5.9Z"/><path fill="#464646" d="M388.2 328.9a145.722 145.722 0 0 1 2.7 14.4l.3 3.2c3-2.8 9.1-4.6 11.6-5.8l15.3-7.6c2.9-1.4 25.8-13.3 16.5-16.7-3.3-1.3-8-.2-11.3.5a137.006 137.006 0 0 0-14.3 3.9c-6.6 2.2-13.9 6.3-20.9 7.2 0 .4.1.7.1.9Zm-87.5 50.8c-.8-5.2-1.5-11-2.1-16.9-7.2 3.5-15.8 4.9-23.1 7.3a118.363 118.363 0 0 0-15.4 5.7c-2.7 1.3-7.6 3.1-7.9 6.6-1.2 13.5 39.6.2 48.5-2.7Zm268.9-139.2 4.6-2.3c4.8-2.8 9.8-5.6 13.9-9.3a45.41 45.41 0 0 0 10.2-12.8l.7-1.3a51.11 51.11 0 0 1-6.8-5.5 42.66 42.66 0 0 1-1.9 4.3 52.706 52.706 0 0 1-6.6 11.5c-4.8 6.4-10.9 12.6-18.5 15.6h-.2a2.398 2.398 0 0 0 .5 1.6l4.1-1.8Zm-192.1 37.4 5.7-2.2c-17.733 0-35.433-.1-53.1-.3-38.9-.5-77.7-1.1-116.6-1.8h-.8l-23.1-.4-34.9-.9c-19.4-.6-39.4 0-58.8-2.5l-.8-.2c.2 5.6.4 11.2.4 16.9 0 5.7.1 9.5.1 14.3 9-.8 18.2-.5 27.2-.5h27.8c10.2 0 20.4-.1 30.6 0H208c35.6.3 71.3 1.1 106.9 1.8l5.2-2.1 10.5-4c-16 .4-32 .5-48 .2-9.2-.1-18.5-.4-27.7-.8-6-.3-14 .1-17.9-5.5-2.2-3.3-2.9-10.1 1.8-11.8 1.9-.7 4.6-.1 6.6-.1h20.8l56.4-.2c18.2-.3 36.7-1.1 54.9.1Zm63 238.4c1.2 1.2 2.2 1.5 3.4.9l.8-.5c1.9-1.4 3.8-2.6 5.8-3.8 4-2.4 8.3-4.4 12.5-6.5 8.3-4 16.2-8.6 24.3-12.9l3.4-1.8-11.8-.6-21-.8-21-.8c-6.2-.2-12.8-.1-19-1.2a99.503 99.503 0 0 0 9.5 13.8c2.7 3.4 5.6 6.6 8.5 9.7l4.6 4.5Zm-58.5 87c2-8.3 4.1-16.1 7.7-23.9l1.2-2.7a145.169 145.169 0 0 1 12.6-21.1 165.19 165.19 0 0 1 35.6-36.2l-6-5.9a2.496 2.496 0 0 1-.8 1 189.794 189.794 0 0 0-37.5 36.3 140.397 140.397 0 0 0-11.3 17.1l-2.5 4.9c-3.2 7-4.2 14.1-6.7 21.2a103.214 103.214 0 0 0 7.3 8.8l.4.5Zm-267.1 53.4c9.1.6 18.2 1 27.3 1.3 18.9.5 37.7.2 56.6-.7 11.4-.5 22.2-9.1 32.1-14.7a32646.76 32646.76 0 0 1-115.7-5.4 2.5 2.5 0 0 1-2.4-2.5v-57.5c0-18.2-.9-36.6.2-54.7-5.6 3-11.2 6.2-16.8 9.3.09.256.124.529.1.8.9 37.5-.1 75.1-.4 112.6-.1 5.1-.6 9.2 5.4 10.4 4.4.8 9.1.8 13.6 1.1Zm294.4-186.4h.6c9.5-.2 19.2 1.2 28.7 1.9s18.5 1.3 27.7 1.7c13.8.7 27.5 1 41.3 1.1h9.2c2.4 0 5.8.7 8.1-.4a1.801 1.801 0 0 0 1-1.8l-.3-1.4-1.2-4.9c-.7-3.2-1.3-6.5-1.9-9.8-1.1-6.6-1.8-13.2-2.4-19.8-.8-8.5-1.3-17-1.9-25.5a305.767 305.767 0 0 1 .1-45.9h-.4c-14.8-1.1-29.6-1.8-44.4-2.3l-22.8-.5c-5.2-.1-10.5.1-15.7-.2l-5.4 2.8c-11.4 5.8-23 12-35.3 15.7h-.5c.3 5.3.7 10.5 1.2 15.8 2.1 24.1 5.4 50.2 14.3 73.5ZM605.1 180c7 7 15.3 27.9 17.6 34.5 6.1-2.1 11-7.8 9.2-14.7-2.3-8.9-12.1-15.4-20.3-18.3a38.124 38.124 0 0 0-6.5-1.5Zm-87.2 180.9.7.2c.3-2.7.6-5.3 1-8a246.838 246.838 0 0 1-32.2.7c-10.1-.3-20.6-.6-30.6-2.7l-13.9 7.3h8.8l21.8.3c14.8.6 29.6 1.333 44.4 2.2Zm-152.1-8.3a35.795 35.795 0 0 0 1.8 6.4c1 2.4 1.2 2.8 2 .1 2-7.5 1.6-15.4 2.7-23l-4.4 1.9c-1.1.4-2.8 1.6-4.4 2 .8 4.2 1.5 8.4 2.3 12.6Zm122.6-3.3c10.7.2 21.2-.4 31.9-.8.3-2 .6-4 1-6a167.803 167.803 0 0 1 6.5-24.8c-8 5.7-17.8 7.8-26.6 12.1-12 5.9-24.2 11.4-36.2 17.3l-1.3.6c8.2.5 16.4 1.5 24.7 1.6ZM117.6 632.4c0 .4 56.6 2.6 61.7 2.8l31.2 1.5 15.6.8c3.792.35 7.608.35 11.4 0a20.3 20.3 0 0 0 6.5-2l19.7-10.4 39.8-20.5c-2.7-17.4-2.4-35.5-2.5-53-.1-17.5.3-35.2 1.1-52.8-48.2 1.5-96.5-.9-144.8.5h-.6c-13.4 7-26.8 14-40.1 21.2 1.4 18.7.5 37.9.6 56.7.1 18.8.3 36.8.4 55.2Zm59 64.5a.897.897 0 0 1 .4-1.2c12.3-9.9 22.9-22 35.6-31.3 12.7-9.3 24-12.5 37.1-16.5 13.1-4 26.5-11.9 39.3-19.7 12.8-7.8 27-16.1 41.6-21.3 12.4-4.4 24.7-11.5 37.8-13.7-2.6-3.7-5-7.6-7.4-11.5-41.1 21.6-82.9 41.9-123.9 63.7-15 8-29.7 16.8-45.3 23.6-5 2.3-10.8 4.9-14.7 9-3.9 4.1-3.3 12.2-.8 18.3l.3.6Zm-111.8-241a17.666 17.666 0 0 0-4.1 2.1c-6.1 4-10.3 11.5-9.7 18.9.6 7.4 6.6 11 13.3 12.1-2.3-4.9-2.3-11.5-2.2-16.7.1-5.2.4-11.5 2.7-16.4Zm612.9 31.4c.8 2.9 1.7 5.8 2.7 8.6a58.278 58.278 0 0 0 6.2 12.5l.5.6c.098.222.233.425.4.6l1.2-.8c12.2-6.8 25.9-13.9 35-24.3 4.4-5 3.6-10.8 1.4-16.7-4.4 1.7-10 .2-14.5-.9a17 17 0 0 1-1.8 4.4 15.7 15.7 0 0 1-8.1 6.4c-6.4 2.4-12-.6-14.8-5.5a12.298 12.298 0 0 0-6-.4c-1.9.5-3.3 2-5.1 2.7.8 4.3 1.8 8.6 2.9 12.8Zm33.3-22.8 8 .4a16.309 16.309 0 0 0 4.5-.7c-2.4-5.1-5.4-10.1-7-14.7h-.6a44.268 44.268 0 0 0-8.2.4 25.5 25.5 0 0 1 3.3 14.6Zm-665.1 29c1.6 2.7 3.1 5.6 4.6 8.4a120.047 120.047 0 0 1 13-9.5c-7.3.5-14.1-3.2-16.5-10.8a19.595 19.595 0 0 1-.9-4.2l-2.6 2.3a18.808 18.808 0 0 1-4.3 3.1c2.3 3.7 4.7 7.2 6.7 10.7Zm241.7 209.9c.617 2.619.852 5.314.7 8a39.209 39.209 0 0 1-6.1 15.7c12-6.4 23.8-13 35.3-20.3-.015-.205.02-.411.1-.6 1.7-4.9.5-10.1 1.7-15 .053-.41.154-.813.3-1.2 1.6-5.2 6.5-7.8 11.4-9.4 7.5-2.4 14.2-4.1 20.2-9.5s7-9.7 10.7-14.4c6.9-8.6 17.1-10.2 26.8-14.4 7.3-3.2 15-6.5 22.4-5.6a17.897 17.897 0 0 1 10.2 4.5 1.4 1.4 0 0 1 .7 1.3l5.5-2.4c-3.6-1.6-7.1-3.3-10.5-5.1-4.2-2.2-8.2-4.6-12.2-7.1-6 2.9-11.1 7.5-17.3 9.9-7.8 3.2-16.4 3.2-24.4 5.6-11.1 3.4-15.1 14.8-23.6 21.8-8.5 7-22 14.5-34.1 19.4-5.8 2.4-13.6 4.1-17 9.9-1.6 2.6-1.3 5.7-.8 8.9Zm453-573.6c4.4 10.9 8.2 21.7 13.8 32 5.6 10.3 8.3 19 11.7 29l11.5-5.8 5.7-3.3a22.632 22.632 0 0 0 3.7-2.2 5.003 5.003 0 0 0 1.1-3 17.098 17.098 0 0 0-.2-7.1c-1-5-3.2-9.8-5.4-14.4l-2.1-4.6c-2.4-5.6-4.7-11.5-8.4-16.4-4.9-6.5-12.6-8-20.4-7a68.25 68.25 0 0 0-11 2.8Zm-347 248.3c12-6.1 24.2-11.6 36.1-17.8l15.7-8.4 17.1-9.1c11.9-6.1 24.1-11.6 36.1-17.5 5.3-2.6 10.9-4.4 16.4-6.6a64.808 64.808 0 0 0 8-3.8c2.3-1.4 4.8-2.4 6.7-4.3 1.9-1.9 3-5.1 4.2-7.7 1.2-2.6 3-6 4.6-8.9a90.087 90.087 0 0 1-14.6 7.2c-6.9 2.8-14.1 5.2-20.6 8.4-6.5 3.2-11.7 6.1-18.2 7-6.5.9-14.4-1.2-21.4.8-2.2.6-7.1 1.5-7.1 4.3s1.2 2.4.7 4.1c-.8 3.2-3.8 7.2-6.4 9.2-2.6 2-8 4-12 5.5s-10.5 3.5-15.7 5.4a141.625 141.625 0 0 0-17 7.1c-4.6 2.5-8.4 5.8-12.6 8.8a1.298 1.298 0 0 1-1 .2 7.61 7.61 0 0 0 .1 1.5l.9 14.6Zm301.9 79.3c.9 5.3 2.4 10.5 3.8 15.6a13.301 13.301 0 0 0 2.8-1.6c6.6-5.2 4.5-13.5.8-19.7a54.97 54.97 0 0 0-6.1 4.7l-1.3 1ZM586.1 234.5a40.212 40.212 0 0 1 6 .2c2.097-.15 4.203-.15 6.3 0 3.9.5 7.8.4 11.7 1 3.9.6 8.4 3.5 9.1 7.5 9-.5 18-.4 27-.1 9 .3 16.3.5 24.3 2.6 26.1 6.8 43.2 28.2 56.5 50.6.3-7.8 4.9-10.6 10.9-13.5-2.4-5-4.5-10.1-6.8-15.2s-4.8-10.5-6.9-16c-2.1-5.5-4.2-11.8-6.9-17.4-2.7-5.6-4.8-7.9-7.6-11.9-13 5.6-26.5 8.9-37.8-.9-3.3-2.4-5.7-5.5-8.2-8.9a111.764 111.764 0 0 1-10.4-16.8c-4.6-9.1-9.5-21.7-.3-29.5 3.5-3.1 8-5.3 12-7.7 4-2.4 8.6-5 13-7.2l9.7-5c-9.1-6.9 1.4-18.4 8.7-22.2 9.3-4.9 23.1-5.3 25.7 7l4.2-1.7c6.7-2.6 13.3-5.4 20.2-7 6.9-1.6 13-2.1 18.8.5 5.8 2.6 8.1 6 10.9 10.2 2.8 4.2 5.3 10.6 7.8 15.9 2.5 5.3 4 8.6 5.7 13l1.5 4.6c1.2 4.1 2 8.7.9 12.9a11.1 11.1 0 0 1-2.8 5.5 14.905 14.905 0 0 1-2.7 2.3l-3.2 1.7c-.9.5-1.8 1.2-2.8 1.7a52.2 52.2 0 0 1-5.8 2.9c-3.7 1.7-7.6 3.2-11.3 5-3.7 1.8-9 4.2-13.7 6.1 3.5 10.9 6.5 21.9 10 32.8a5.802 5.802 0 0 1 2.8-1.5c4.6-1.2 10.4-.9 15.1-.7a72.305 72.305 0 0 1 18.5 3.7c23.8 8 42.5 25.9 60.6 42.5 38.4 35.1 82.4 68.5 105.8 116.4a145.497 145.497 0 0 1 14.2 77.3 149.259 149.259 0 0 1-2.6 16.5 121.3 121.3 0 0 1-26.6 53.4c-16.9 19.2-39 33.9-60.4 47.6a461.806 461.806 0 0 1-40.7 24c-13.8 7.1-28.2 12.9-42 20-4.2 2.1-5.4 2.7-5.4 7.4a55.172 55.172 0 0 0 1.7 12.1c1.9 8.4 4.6 16.7 7.3 24.9 9 26.7 17.1 53.7 25.6 80.6.9 2.7-3.2 4.4-4.6 1.9h-5.8c-2.8.2-5.6.5-8.4.9a54.512 54.512 0 0 0-16.8 4.6 189.006 189.006 0 0 0-45 29.5c-23.4 20.7-42.5 46.8-68.5 64.5-11.9 8.1-25.2 14.1-39.6 15.9-14.4 1.8-29.9-1.7-43.5-8.7-31-15.9-58.9-36.9-87.7-56.4-11.6-7.9-23.4-15.6-36.5-20.7-13.1-5.1-28.6-8.1-40.3 1.1-2.4 1.8-5.8-1.4-3.4-3.4a257.898 257.898 0 0 0 44.5-47.1 264.893 264.893 0 0 0 39.3-78.2h-.1c-21.8.8-43.6 1.367-65.4 1.7-11.2.2-22.3.3-33.5.3s-20.1.5-30.1-.2l-15.5 9.6c-19.3 12.2-37.4 26.4-56.7 38.5-17.3 10.9-35.6 19.9-53.7 29.3-8.6 4.4-17.2 9-25.8 13.8-6.2 3.4-12.9 7.2-20.2 7.7a19.202 19.202 0 0 1-16.8-7.8c-6-7.7-6-17-8.8-25.9-5.1-16.2-22.2-27.6-23-45.4-.6-13.2 11.5-18.8 21.9-23.1l3.6-1.5c-19 .933-38 1.033-57 .3-9.7-.3-19.5-.8-29.2-1.6-5.8-.4-13.9-.5-15.9-7.3-1.2-3.9-.4-8.6-.4-12.7s.1-10.5.1-15.8c.1-9.8.1-19.7.2-29.6.1-20.5.1-41.1.8-61.6-5.6 3.2-11.9 6.1-18.5 5.2-6.6-.9-11.7-6.6-15.6-12.1-4.9-7.1-8.6-14.9-12.6-22.5s-8.7-14.8-13.1-22.3c-6.8-11.5-13.4-25.7-8.2-39 4-10.5 13.5-17.6 23.2-22.6s21.7-9 32.9-12.7l10.5-3.7c-2.5-21.7-1.2-44.2-.8-66 .3-23.6.8-47.3.2-71-.2-10.1-2.9-25.3 5.7-33 3.8-3.5 9.2-4.5 14.2-4.6 10.2-.4 20.6.3 30.8.4 42.6.4 85.2.1 127.9-.3s84.7-.5 127.1.3c20.8.4 41.6 1.3 62.4 1.4 13.2 0 26.3-.5 39.5-.2 9.8-4 19.6-8.1 29.2-12.5 6.9-3.1 14-5.9 20.6-9.7 4.6-2.7 9.6-6 15.1-6.6 11.9-1.5 11.9 12.8 17.3 19.9l.9-1.2a65.451 65.451 0 0 0 5.5-10.5c.8-1.9 1.1-4.2 2.2-5.9a122.288 122.288 0 0 1-3-3.9c-2.5-3.8-4.8-8.5-4.6-13.2a9.903 9.903 0 0 1 2.4-6.1 19.101 19.101 0 0 1 6.1-4.8c4.7-2.1 9.1-3.4 14.4-3a37.901 37.901 0 0 1 14.7 4c9.6 4.6 20.8 14.4 19.8 26.2-1 11.8-13.5 18.2-24.1 16.6a38.192 38.192 0 0 1-10.8-3.6c-2.7 6.4-8.7 11.1-14.2 15.1l-3 2.1h.1Zm109.8 239.3a80.997 80.997 0 0 1-2.7-14.7 32.097 32.097 0 0 1-5 3.1c0 3.1.3 6.2 2.3 8.8a6.793 6.793 0 0 0 2.37 2.037 6.79 6.79 0 0 0 3.03.763Zm76.9-121a41.226 41.226 0 0 0 5.3 7.8c2.4 2.7 3.9 3.5 7.3 2s4.7-2.4 7-3.6c2.3-1.2 3.7-2 4.6-3.7.9-1.7.3-3.3-.3-4.8-.193-.423-.36-.857-.5-1.3-.8-1.8-3.5-2.9-5-4-4.2-2.8-8.6-5.5-13.1-7.9a156.31 156.31 0 0 0-16.6-7.8c1.3 2.2 2.3 4.7 3.3 6.7 2.6 5.5 5 11.2 8 16.6ZM189.1 718.1c4.4 7.5 6.4 14.6 8.1 23.1.286 1.354.653 2.69 1.1 4 2.4 7.3 7.5 14.8 15.8 15.2 8.3.4 14.6-4.5 20.7-7.9 12.2-7 24.6-13.4 37-19.9 4.2-4.3 8.2-8.6 10.2-14.7a23.804 23.804 0 0 0 .9-12.4c-.3-1.8-.9-3.4-1.2-5.1a9.113 9.113 0 0 1-.3-2.3c.1-12.4 15.6-16.3 24.8-19.6 12.9-4.7 27.2-11.2 36.2-22 3.1-3.7 5.6-8.2 9.2-11.6 3.6-3.4 9-5.6 14.3-6.8 7.6-1.6 15.5-2.1 22.5-5.6 4.3-2.2 8.2-5 12.5-7.2a124.025 124.025 0 0 1-30.1-28.6c-16.2 3.3-31.3 10.8-46 18.2-14.7 7.4-26.9 14.6-39.9 22.6a131.522 131.522 0 0 1-18.5 9.9c-6.1 2.5-12.5 3.3-18.8 5.1-14.1 4.1-26.8 10.4-37.9 20-11.1 9.6-20.3 21-32 26.7 3.2 6.6 7.7 12.6 11.4 18.9Zm-121.6-234c.4 1.8.5 4.7 2.3 4.9a4.194 4.194 0 0 0 1.8-.6 27.954 27.954 0 0 0 3.4-2c4.7-2.7 9.1-7.6 9.9-13.1a16.4 16.4 0 0 0-2.5-11c-3.4-5.4-8.8-7.8-14.3-7.1-1.1.1-1.8 12.9-1.8 14.3a55.1 55.1 0 0 0 1.2 14.6Zm182.7-155.9c17.4-7.6 35.1-14.7 52.9-21.6-31.9-.4-63.8-.4-95.7-.5h-56.8l-27.8.2c-9 0-18.2.4-27.2-.2l-.3 21.1c5.9-1.4 12.5-.9 18.5-1 6-.1 13.2-.3 19.9-.3h38.7c13.3.1 26.5.3 39.8.7l19.9.6c5.9.1 12.3-.4 18.1 1Zm343.2-125.5c6 6.4 14.7 12.5 23.8 12.7h.8a133.202 133.202 0 0 0-8.3-19.4c-1.9-3.9-4.3-7.4-6.4-11.1-2.1-3.7-4.1-5.4-7.2-5.5a8.601 8.601 0 0 0-4.1 1 10.797 10.797 0 0 0-4.5 3.4 7.396 7.396 0 0 0-1.8 4.3c-.2 2.9 1.2 5.9 2.9 8.4a41.108 41.108 0 0 0 4.8 6.2ZM891.5 451l5.1.9a112.294 112.294 0 0 1 29.7 10.2 106.19 106.19 0 0 1 25.9 18.7 96.637 96.637 0 0 1 9.8 11.4c.8 1.2 2 2.6 3.1 4.1a28.918 28.918 0 0 1 1.9 2.9c1.1-3.6 2-7.2 2.8-10.9l-.6-.9a6.06 6.06 0 0 0-.5-1.2c-8.3-18.7-26.1-29.8-44.8-36.4A147.617 147.617 0 0 0 894 442a68.503 68.503 0 0 0-26.7 1h-.4a28.21 28.21 0 0 1-1.5 8.5h.2c8-2.4 17.4-1.8 25.9-.5ZM765 293.7a54.777 54.777 0 0 0 6.7-1.7c4.4-1.2.9-6.8-.1-9.3-2.5-6.4-5-12.7-7.4-19-1.3-3.2-2.5-6.4-3.7-9.5-1.2-3.1-2.2-6.5-3.5-9.8-2.3-6.1-4.3-12.5-6.2-18.8a140.625 140.625 0 0 1-4.7-19.4l-5.7 2.3-2.1.9-6.8 2.8a16.614 16.614 0 0 1 3.4 5.3c1.6 3.3 3.5 7.2 4.1 10.8.1 1-.7 1.8-1.7 1.3-3-1.6-4-5-5.2-7.9a35.005 35.005 0 0 0-4.2-7.9l-2.3 1-11 5.3c2.9 2.2 4.9 6.4 6.3 9.2a176.922 176.922 0 0 1 7 16.9c2.4 6.2 4.8 12.4 7.4 18.5l4.1 9.2c1.1 2.3 1.7 4.7 2.6 7.1 1.6 4.2 3.6 8.8 7.6 11.4 1.3.8 2.5.6 3.9.9 3.795.681 7.667.816 11.5.4ZM306.4 479.5c0 .61-.242 1.195-.674 1.626a2.296 2.296 0 0 1-1.626.674c-19.1.2-38.1-.1-57.1-.2s-36.6.6-54.6-1.1L166.7 494c46-.6 91.9 2.1 137.8.3a2.298 2.298 0 0 1 2.2 2.3c-.8 18-1.1 36-1 54 .1 18 1.6 34.8 1.3 52.2 17-8.7 34-17.4 50.9-26.3-13.5-23.1-23.9-48-32.1-73.4-8.2-25.4-13.7-52.9-18.2-79.8.6 18.3-2.7 37.9-1.2 56.2Zm397-340.6 9.5-4.1c0-.1-.1-.2-.1-.3h-.1l-.2-.3c-.4-.3-.5-.9-.7-1.1a2.9 2.9 0 0 0-1.9-1c-.8-.1-1.4-.5-1.4-1.4a1.404 1.404 0 0 1 1.4-1.4 5.9 5.9 0 0 1 4.2 1.5c.602.63.987 1.436 1.1 2.3a3.41 3.41 0 0 1-.1.9l2.4-1c-3.4-17.1-36-.3-26.3 11.4l.2.2c3.9-2 7.9-3.9 12-5.7ZM602.5 458c5.5.9 9.5 4.9 14.8 6.1 5.3 1.2 10.4 0 15.4-2.7 2.4-1.3 4.3-3.4 6.7-4.6 2.4-1.2 3.7-1.4 5.4-2.3a21.005 21.005 0 0 1 11.3-2.1c4.09.329 8.07 1.486 11.7 3.4 3.3 1.7 5.3 2.9 9.2 2.9a17.4 17.4 0 0 0 7.8-1.4c8.7-3.8 13.8-12.4 23.8-13.5 5.4-.5 10.6-.8 15.9.4 5.3 1.2 10.2 2.9 14.9-1.2 2.8-2.6 4.4-6.3 8.2-7.7 3.8-1.4 9-.3 13.5-.8a9.606 9.606 0 0 0 7.6-5.6 18.395 18.395 0 0 0 1.5-4.7c.4-1.9-.4-4.3-.9-6.2l-1.8-6.6c-1.2-4.4-2.4-8.8-3.7-13.2-3.7-13-7.7-25.9-12.5-38.5a394.487 394.487 0 0 0-26.3-55.8c-14.5-25.5-34-51.3-65.3-54.9-4.3-.5-8.6-.8-12.9-1.1-10.7-.7-21.2-.2-31.9.3h-.2c-2.2.1-4.4.6-6.6.9-17.9 2.5-33.6 9.8-46.7 22.4-23.8 22.7-34.6 55.5-38.2 87.5-2.2 20.1-1.5 40.3-.1 60.4 1 17 2.2 34 6.2 50.4a13.207 13.207 0 0 0 2 3.2c2.4 2.9 4.5 2.1 7.2.2 2.7-1.9 8.4-6.3 13.1-7.9 4.7-1.6 7.5 1.2 11.7 3 4.2 1.8 13 2.4 18.2-1.1 3.6-2.5 6-6.3 10-8.2 4-1.9 7.4-1.6 11-1Zm71.2 9.7c.1.8.3 1.6.4 2.3a9.005 9.005 0 0 1 5-2.4 9.502 9.502 0 0 1 5.3.6 16.287 16.287 0 0 1-.3-4.4 26.498 26.498 0 0 1-10.9.6c.2 1.1.3 2.2.5 3.3ZM564.3 238.5c4.2-3.9 8.5-7.5 12.2-11.7a28.525 28.525 0 0 1-4.3-7.8c-.7.4-1.7.6-2.4 1l-2.5 1.2-6.9 3.5c-5.8 3.1-11.6 6.4-17.4 9.7-11.8 6.5-24.3 11.6-35.9 18.2a107.72 107.72 0 0 0-22.2 16.9c-5.4 5.3-10.7 11-17.1 15.2-6.4 4.2-14.5 5.9-22.8 6.9a188.382 188.382 0 0 0-29.9 5.9 199.672 199.672 0 0 0-30 12c-7.9 3.7-15.1 9.6-23.7 11.5.6 4.9.6 9.8 1.4 14.8 1.1-.6 2.4-.9 3.3-1.3.9-.4 4.6-2 6.9-2.3.1-.3.1-.5.2-.8 1-4.1 7-13.8 12.5-10.3a5.1 5.1 0 0 1 1.9 3c5.7-3.9 13.9-5.9 20.1-7.9 6.2-2 37.5-12 33.2 4.6-2.2 8.6-15.5 13.5-22.4 17l-14.7 7.3c-2.9 1.4-5.7 2.7-8.5 4.3a8.898 8.898 0 0 1-3.6 1.6l.6 7.6c2.7-4.4 7.9-7.4 12.3-9.8a116.595 116.595 0 0 1 17.4-7.4l16.2-5.5c4.3-1.6 9.5-2.8 12.3-6.7 1.3-1.7 2.3-3.1 2-5.3-.3-2.2-1.6-3.2-.7-5.3 1.5-3.8 6.3-5.2 9.9-6.3 6.6-2 13-.7 19.7-1 6.7-.3 15.1-4.6 22.1-8 11.4-5.5 23.8-8.8 34.9-14.9 5.2-2.9 8.8-7.9 12.5-12.3a103.986 103.986 0 0 1 12.9-12.8l5.5-4.3a77.997 77.997 0 0 1 21.2-10.6c-3.5-3.5-5.2-8-6.4-12.7-2.5 1.6-5 3.1-7.5 4.4l-4 2a22.155 22.155 0 0 0-3.8 1.8 1.599 1.599 0 0 0 1.8.7l.9-.3a1.105 1.105 0 0 1 1 .1c1.7 1.4-3.1 2.7-3.9 2.7a6.401 6.401 0 0 1-5.1-1.7c-2-1.8-1.9-4.3-.6-6.5.145-.226.367-.391.624-.465.258-.073.534-.05.776.065Zm198.4-46c-1.3-11.3-7.3-23-12.1-33a110.78 110.78 0 0 0-9.3-15.6c-2.5-3.6-4-7.7-5.6-11.8h-1l-5.6 2.2c-8.8 3.5-17.7 7.1-26.4 11-8.7 3.9-15.9 7.5-23.7 11.4-5.1 2.6-10.3 5.1-15.4 7.5a28.402 28.402 0 0 1-4.3 2.1 9.208 9.208 0 0 0-3.1 1.6c-1.9 1.3-4.3 3.3-4.5 5.8a25.694 25.694 0 0 0 2.1 11.9 82.319 82.319 0 0 0 5.9 11.9 130.74 130.74 0 0 0 8.3 12.2c2.3 3.1 4.3 6.9 7.2 9.5l.2.3c2.6 2.3 7 2.8 10.4 3.1a31.399 31.399 0 0 0 14.2-2.1c10.1-3.6 19.3-9.1 29.2-13.4l17-7.3 8.1-3.4c.8-.5 8.5-3.5 8.4-3.9Zm-175.3 45.3a24.897 24.897 0 0 0 5.7 8.6c.271.31.445.692.5 1.1 0-.5 7.7-1.9 8.5-2 3-.6 5.9-1.1 8.9-1.5.8-.1 2.8-.1 3.1-1 .3-.9-1.6-2.1-2.3-2.5a30.994 30.994 0 0 0-7.2-2.6c-3.7-1-7.6-.9-11.4-.9-1.955.07-3.899.338-5.8.8Zm-525 283.9c14.1-10.2 30.4-17 46.1-24.5 15.7-7.5 30-15.7 44.8-24 7.5-4.3 15-9 22.8-12.7 4.9-2.4 9.8-2.9 15.2-2.9 2.4-.1 4.9-.2 7.3-.5 9.1-1 18.1-3.4 27.1-5.1 9-1.7 18-3 26.5-5.8 17.8-7.8 35.5-15.8 51.5-26.7a21.353 21.353 0 0 1 3-2.1c-1-6-1.9-11.9-2.9-17.9a11.17 11.17 0 0 0-.2-1.7c-21.1 6.2-41.5 14.9-63 19.9-1 .2-2.6-.4-2.7-1.6-.7-4.8 1-8.2 3.8-11.1-14.1.9-27.1 8-39 15.4-11.9 7.4-22.6 15.7-34.7 22-12.1 6.3-25.9 11-39 16.1-13.1 5.1-27.4 11-38.7 20.3-5.1 4.2-9 9.3-15 12.3-4 2.1-8.7 3.2-12 6.3a49.842 49.842 0 0 1-4.2 3.8c-1.2.9-5.1 4.9-6.4 4.9 1.4 2.9 2.9 5.8 4.4 8.6 1.5 2.8 2.9 5.5 4.7 8.5h.1c2.8 4.6 6.4 9 11 10.2 7.1 2.1 14.8-3 20.7-6.4 5.9-3.4 15-7.9 22.4-11.9 13.1-6.9 26.3-13.4 39.4-20.1a2.4 2.4 0 0 1 1.7-.9l8.9-4.7c16.5-8.9 32.8-18.1 49.5-26.6l13.8-6.7-4.2 1c-4.9 1.1-9.9 2-14.8 3.2-4.9 1.2-11.2 1.2-17.3.7h-1.1c-8-.6-13.9 2-20.8 5.8s-14.9 8.1-22.3 12.2c-14.7 8-29.3 16-44.4 23.2-9.8 4.6-19.7 9.3-29.3 14.5-3.9 2.2-7.8 4.4-11.7 6.8a.803.803 0 0 1-.73.199.794.794 0 0 1-.57-.499c-.1-.1-.1-.1-.1-.2a.999.999 0 0 1 .4-1.3Zm627.5-9.4c3.1 3.1 6.8 5.1 11.1 7.1 16.8-3.5 33.4-7.9 50.1-12.3 20.8-5.5 41.7-11.5 61.8-19.4 14-5.5 28.6-12.1 39.4-22.7 5-4.8 9.1-10.7 10.6-17.5 1.5-6.8-.7-16-4.3-23.4-13.5-27.3-32.6-52.2-56.6-71 .6 4.2-2.4 7.6-7.1 10.1-4.7 2.5-11.2 7.3-16.6 3.9-5.4-3.4-10.2-13.1-13.1-19.8-1.7-3.8-3.2-7.7-5-11.5-1.8-3.8-3.4-5.4-4.1-8.4l-2.3-.8a80.807 80.807 0 0 1-13.9-6.7c5.9 11.5 11.2 23.2 16 35.3a315.762 315.762 0 0 1 11.9 36.8c.8 3.3 1.9 6.6 2.2 9.9.3 3.3 2.1 5.9 3.2 9 .5 1.5 1.4 2.7 1.9 4.2a17.125 17.125 0 0 1 1 5 22.094 22.094 0 0 1-3.6 13.9c-2.9 4.3-6.4 5.9-11.4 6.4-3.3.3-6.9-.6-10 .1-3.1.7-4.4 3.3-6.6 5.6-6.6 7-14.2 5.1-22.2 4l3.7 7.5c.7 1.3 1.3 2.6 1.9 4 3.2 7.3 6 16.2 1.2 23.5-4.8 7.3-12.4 11.5-18.8 15.7a146.039 146.039 0 0 1-20.4 11.5ZM314.5 360.7a2.104 2.104 0 0 1-2.4.9c-4.5-1.3-4.5-7.7-4.6-11.5-.1-3.8.3-5.6.3-8.4 0-2.8-1-8-1.8-11.9-2.4 1-3.5 7.7-3.9 13.1-.3 3.1-.3 5.8-.3 6.5a169.43 169.43 0 0 0 2.4 25.7c1.1 6.7 2.1 13.4 3.1 20 0 .3.1.5.1.8 1.5 10.4 3.1 20.7 4.9 31.1 5.4 31.9 13.1 63.6 24.5 93.9a337.147 337.147 0 0 0 19.9 44.2c4.4 8 9 16.3 14.2 24.1 0-5.9 2.4-12.1 4.6-17.2 1.3-3 2.8-5.9 4.4-8.8 2.86-5.082 6.068-9.96 9.6-14.6a179.572 179.572 0 0 1 40-38.8h.1a113.706 113.706 0 0 1-13.3-17.7c-18.5-30.8-22.8-68.6-25.6-103.8-1.6-19.1-1.2-39-5.8-57.6-.6-2.4.1-6.5-4-4.8-2 .8-3.2 3.6-3.8 5.4-1.3 4-1 8.3-1.4 12.4a117.702 117.702 0 0 1-2.4 15.6c-.4 1.9-.9 4.8-3 5.8-3.9 1.8-6.1-4.8-7-7.4-3.1-9.3-4.1-19.4-5.1-29.1-.3-3.1-.7-6.2-.9-9.3-.2-3.1-1.3-15.3-5.1-7.4a26.106 26.106 0 0 0-2.3 9.9h-2.6c.4-4.9.7-9.3 1.3-10.9 2.1-5 8.4-9.3 11.1-2.5a26.705 26.705 0 0 1 1.4 8.9c4.9-2.1 9.4-5.2 13.9-7.9a143.816 143.816 0 0 1 16.3-7.9 182.99 182.99 0 0 1 32-10.9c10-2.2 20.4-2.4 30.3-4.7 9.9-2.3 15.7-7.8 22.1-14.1 6.4-6.3 11.9-12.1 18.9-17 7-4.9 17-10.3 25.9-14.6 10.6-5 20.7-10.6 31-16.3 5.8-3.2 11.8-6.1 17.7-9.3l.5-.4c.5-.6-.5-2.1-.8-2.7a7.409 7.409 0 0 0-2-2.3 6.09 6.09 0 0 0-5.1-.9c-4 .7-7.4 3.2-10.7 5.2-14.9 8.9-30.9 15-46.5 22.1-7.8 3.5-16.2 5.9-24.2 9.1-8 3.2-16.5 6.9-24.8 10.1-17 6.3-34 12.7-50.9 19.4-24.8 9.9-50.2 18.7-74.9 29-8.1 3.4-16.3 6.8-24.5 10-32.5 12.6-64.4 26.2-95.6 41.5-14.7 7.2-29 15.3-44.1 21.6-9.1 3.8-18.5 7-27.7 10.6 0 .3-.2.5-.5.7a322.235 322.235 0 0 1-55.6 25.7c-11.8 4.3-23.9 8.1-34.8 14.5-9.1 5.3-17.9 13-18.8 24.2-.7 9.6 3.6 18.7 8.7 27.2 1.4-1.2 3.4-2 4.9-3.1 1.5-1.1 2.9-2 4.3-2.8 1.4-13.2 14-25.9 27.6-23a19.305 19.305 0 0 1 6.9 3 .901.901 0 0 1 .3-.6c6.7-8.6 20.3-11.6 29.9-15.4 6.3-2.5 12.6-5 18.4-8.4 3.3-2 8-5 8.9-9.1-6.3-1.3-12.6-2.2-18.9-3.4a3.098 3.098 0 0 1-2.1-2.8c1-10.8 11.9-13.8 21-14.9 4.279-.549 8.586-.849 12.9-.9a78 78 0 0 0 22.4-4.8 282.012 282.012 0 0 0 43-19.5c13-7.2 26-14.7 40.1-19.8 14.1-5.1 28.5-2.9 40.3-10.9a2.708 2.708 0 0 1 1.2-.3c-1.1-.1 2.5-13.3 3.6-14.7 1.1-1.4 6.2-3.4 8-.3 1.8 3.1 2 6.9 1.5 10.8-.5 3.9-.1 10.3-.2 15.3a4.506 4.506 0 0 0 .4 2.3 1.499 1.499 0 0 0 2 .4 1.206 1.206 0 0 0 .4-1l2.4.3a14.302 14.302 0 0 1-1.6 5.1Zm102.1 125c6.6-1.1 13.6-.5 20.3-.4l22 .4 22 .5c6.7.1 13.7-.3 20.2.8 3-1.3 6-2.6 8.9-4.1 2.9-1.5 4.1-2 6.1-3.2-16.9 0-33.9-.5-50.8-1.4-9.2-.5-18.5-1.1-27.7-1.9-9.2-.8-18.2-1.1-27-3 1.7 4.2 3.7 8.3 5.8 12.3h.2ZM89.7 467.1c.406 1.973.507 3.996.3 6l2.2-1.7c24.1-17 54.4-21.4 79.8-36.1 23.4-13.5 47-36 75.8-34.7.491-.021.976.123 1.376.409a2.207 2.207 0 0 1 .762 2.605A2.207 2.207 0 0 1 249 404.7c-2.9 2.2-6.2 4.4-6.8 7.9 20.5-5.1 40-14.2 60.9-18-.4-2.3-.3-7.8-1.8-9.5-1.5-1.7-10.5 2.8-12.7 3.5a113.98 113.98 0 0 1-14.2 3.7c-7 1.3-16.8 3-23-1.6a9.307 9.307 0 0 1-4.054-7.373 9.296 9.296 0 0 1 3.554-7.627c7-5.7 17.2-8.1 25.6-10.6 8.4-2.5 14.5-3.9 21.8-5.8-.3-4.1-.5-8.2-.5-12.1-5.7 3.5-12.2 4.7-18.7 5.8a129.855 129.855 0 0 0-21.3 5.2c-13.8 4.7-26.5 11.9-39.3 18.9a358.367 358.367 0 0 1-38.6 18.3c-11.5 4.5-22.6 7.6-34.9 8.4-5.9.4-18.6.7-21.5 7.4 6 1.1 12.2 1.9 17.9 4.2a2.5 2.5 0 0 1 1.7 3c-2.3 11.1-15.1 16.3-24.4 20.2-6.7 2.8-13.4 5.2-20.1 7.9-6.7 2.7-11.4 4.3-15.7 8.1l-.3.2a22.302 22.302 0 0 1 7.1 12.3Zm678.2-206.4 3.3 9.4c2.1 5.8 4.2 11.7 6.1 17.6.6 2.2-1.8 4.5-3.4 5.7a17.096 17.096 0 0 1-6.6 2.5 39.997 39.997 0 0 1-18.5-.9c-1.7-.5-4.5-1.2-5.8-2.6a7.188 7.188 0 0 1-1.2-2.1l-2.6-4.9a23.225 23.225 0 0 0-5.6 3.1 8.992 8.992 0 0 0-3.5 6.3c-.256 2.865.05 5.752.9 8.5.8 1.3 1.5 2.6 2.2 3.9.7 1.3 1.8 3.2 2.6 4.8 4.3 5 10.5 8.1 16.6 10.5 7.9 3.2 15.8 5.9 23.3 9.7a183.074 183.074 0 0 1 30.8 20.1c3.1 2.5 6.1 5.1 9.1 7.8s4.1 3.8 6 5.8a211.314 211.314 0 0 1 35.1 46.9c4.8 8.7 9.5 17.8 10.1 27.3 8.7-3.7 18.4-3.5 27.6-2.4l1.3.2a149.012 149.012 0 0 1 31.4 7.9c17.5 6.4 33.5 16.7 43 32.7a7.758 7.758 0 0 1 1.1 1.8 135.705 135.705 0 0 0 1.3-16.8 139.901 139.901 0 0 0-13.7-62.5c-22.5-46.5-64.8-79.1-102.1-113.2-18.2-16.6-36.5-35.4-60.3-43.9a70.315 70.315 0 0 0-18.7-4.1c-3.1-.2-6.3 0-9.4 0-1.3 0-4.4-.3-5.5.6a3.901 3.901 0 0 0-.9 3.3c.032.242.1.478.2.7.5 1.3 1 2.7 1.4 4.1 9.8-2.7 25.5 1 29.5 10.8.3.8-.7 1.6-1.4 1.4-4.4-1.6-8.1-4.7-12.4-6.5a32.9 32.9 0 0 0-14.5-2.4c.4 0 2.9 8.1 3.2 8.9ZM468.4 537.5c10.5-3.3 19.9-9.2 30.4-12l.6 2.4c-9.7 2.6-18.2 9.7-28.1 11.3 19.4 10.6 41 16.4 63.5 15.1l1.3-1.2 1.9 1 2.6-.3c11.4-1.2 22.5-3.8 33.7-6.4l15.4-3.4.6 2.7-4.2.9c-3.9.9-8 1.6-11.9 2.8-6.3 2-13.2 3.1-19.7 4.3a195.875 195.875 0 0 1-20.2 2.7.897.897 0 0 1-.7 0c-7.235.549-14.507.348-21.7-.6-20.8-2.9-40.2-12-56.9-24.4-4.1-3-8.2-6.3-12.2-9.7a162.007 162.007 0 0 0-35.6 36.9 174.807 174.807 0 0 0-12.7 21 140.205 140.205 0 0 0-10.1 25.1c16.8 17 39.1 28.8 61.3 36.8 24.3 8.7 51.4 14.5 76.9 8.8a2.398 2.398 0 0 1 2.879 1.684c.111.397.119.816.021 1.216A269.195 269.195 0 0 1 448.7 784c2.2-.485 4.447-.72 6.7-.7 21.7-.4 45.4 15.9 61.6 26.9 27.3 18.6 54.2 39.2 83.8 54.3l9.7 4c33.2 15.3 65.9-2 90.2-24.9 24.3-22.9 44.4-48.8 72.4-66.5 11.3-7.2 23.8-15 37.1-17.1a101.81 101.81 0 0 1 14.6-1.6h2.6c-8.3-26.4-16.5-52.9-25.1-79.2-3-8.9-5.9-18-7.4-27.3-.9-5.6-2.3-13.5 2.9-17.3 5.2-3.8 13.7-6.9 20.1-9.9l20.3-9.4a437.348 437.348 0 0 0 39.4-22.3c21.2-13.2 43.1-27.5 60.9-45.4a115.3 115.3 0 0 0 26.4-41.9 17.402 17.402 0 0 1-2.6-3.7c-1.2-2.2-2.2-4.6-3.4-6.4a73.376 73.376 0 0 0-9.7-11.8 104.707 104.707 0 0 0-24.4-17.8 108.697 108.697 0 0 0-29.3-10.3 56.254 56.254 0 0 0-5.7-.9c-8-.9-15.8-.6-23.9-1a.997.997 0 0 1-1-.7c-.2.3-.3.7-.5 1a40.598 40.598 0 0 1-8.4 12.4c-6.1 6.2-13.7 11.1-21.1 15.1-14.5 7.8-30.3 13.3-45.9 18.3-23.5 7.6-47.5 13.5-71.5 19.5-5 1.3-10 2.4-15 3.4h-.2l-.9.2c-6.467 1.2-13.067 2.3-19.8 3.3-11.9 1.7-23.3 5.2-34.9 8.3-7.2 2-14.5 3.7-21.7 5.2-7.2 1.5-13.4 2.8-20.1 4.2l-4.5.7v-2.8l7.9-1.5c12.4-2.3 24.6-5.1 36.8-8.3 12.2-3.2 22.9-6.9 34.8-8.8l12.8-2.2a29.7 29.7 0 0 1-8.8-8.1c-5.3-6.8-8.4-15.2-10.7-23.5-1.1-4-2-8.1-2.8-12.2-.8-4.1-1-6.8-1.3-10.2-.1-1.3-.3-2.8-.3-4.2-4.9-2.4-9.1-4.8-14.7-4.8-10.7 0-18.1 10.7-28.6 12.2a26.704 26.704 0 0 1-15.7-2.9l-3.2-1.6-2.9.6c-.1-.7-.3-1.4-.4-2-3.8-1.3-7.6-1.6-11.3 1.2-3.7 2.8-6.4 6.5-11 8.4-4.6 1.9-10.2 1.9-15.5.9a22.9 22.9 0 0 1-7.1-2.8c-3.2-1.8-4.9-1.6-8 .1-3.1 1.7-5.5 3.2-8.1 5-2.6 1.8-3 2.5-5 3a8.602 8.602 0 0 1-5-.3 5.903 5.903 0 0 0-4.3-.5c-2.1.6-3.8 2-5.6 3a70.817 70.817 0 0 1-7.2 3.8c-7.5 3.7-15.5 6.6-23 10.2-7.5 3.6-16.7 9.1-25.3 13.2-8.6 4.1-14.4 7.3-21.4 11.2a148.035 148.035 0 0 0 22.9 16.7ZM519.9 657a.798.798 0 0 0 .1-.4c-27.3 4.9-55.9-2-81.4-11.8l-5.6-2.3c-12.3 6.4-24.5 13.1-36.5 20 7.6-.1 15.3.1 22.9 0l32.5-.3c22.3-.4 44.6-.8 66.9-1.4.4-1.3.8-2.6 1.1-3.8Zm-96.6-396.7c20-7.8 40.2-15.2 60.2-23-10.5 0-20.9.3-31.3.2-22.2-.4-44.4-1.1-66.5-1.5-81.7-1.7-163.4.1-245.1-1.1-10-.1-20.1-.7-30.1-.4-5.5.2-11.5 1.5-14.1 6.9-2.6 5.4-2 10.7-1.8 15.8l.3 8 1-.2c11.3-.7 22.7.2 33.9.5l32.9 1c77 2.3 154 3.8 231 5.2l29.6-11.4Zm-90.8 436.4c27.1-19.6 55.7-38.2 86.1-52.6-.1 0-.1 0-.1-.1-10.2-8.7-25.3 2-35.7 5.7-3.9 1.3-8.1 2.5-11.6 4.8s-7.4 7.7-10.3 12.3a39.1 39.1 0 0 1-24 17.4c-6.1 1.6-12.2 3.2-13.4 10.3-.5 3.2-.6 6.5-1.7 9.5 3.6-2.3 7.2-4.8 10.7-7.3Zm12-406.2 20.7-7.9c-16.2.6-32.5 0-48.6 0l-61.3.2h-7.9c-2.3 0-6.9-1.2-7.1 2.3-.5 5.7 11.3 5.1 14.6 5.3 9.867.4 19.767.7 29.7.9 20 .3 39.9.1 59.9-.8Zm-42.8 186.7c-.3-17.2 1.7-34.2 1.2-51.4-15.3 10-32.2 17.3-48.9 24.6a815.68 815.68 0 0 0-54.4 26.2c15.7-.8 31.7 0 47.4.1 18.2.1 36.5.1 54.7.5Zm-79.4-136.1c5.8-2.8 11.6-5.6 17.5-8.2l-8.7-.6-19.9-.6-38.8-.7h-39.7l-19.9.2c-5.7 0-11.9.8-17.6-.3l-.3 15.6c-.3 18.9.4 37.9-.7 56.7l8.6-3.4c-.6-16.7-2.5-33.3-2.9-50 0-.583.232-1.143.644-1.556a2.205 2.205 0 0 1 1.556-.644c9.5-.2 18.9-1.6 28.4-1.9 9.5-.3 18.3-.4 27.5-.5 17.5 0 35.1.5 52.6 1.8 3.8-2 7.7-4 11.7-5.9Zm-52 27.5c11.2-5.6 22-11.7 33-17.7-15.1-.9-30.2-1.2-45.3-1.1-9.2 0-18.4.2-27.5.4-9.1.2-17.4 1.2-26.2 1.6.8 15.4 3.2 31 2.5 46.5l12-5.1c.101-.247.276-.456.5-.6 16.2-9.8 34.3-15.4 51-24Z"/></svg>